<?xml version="1.0" encoding="UTF-8" standalone="no"?>
<svg
   id="Svg"
   width="128"
   height="128"
   version="1.1"
   xmlns="http://www.w3.org/2000/svg"
   xmlns:svg="http://www.w3.org/2000/svg">
  <defs
     id="defs10" />
  <path
     id="path3419"
     d="M 5.6523438 0 C 5.9342082 1.6556739 6 2.9673968 6 4 L 7 4.0039062 C 7 2.9856279 7.1473442 1.4714098 6.2675781 0 L 5.6523438 0 z M 9.3417969 0 C 8.3572502 0.98939259 8 2.7495845 8 4 L 9 4 C 9 2.2423295 9.4010178 1.2311221 9.8339844 0 L 9.3417969 0 z M 21.652344 0 C 21.934208 1.6556739 22 2.9673968 22 4 L 23 4.0039062 C 23 2.9856279 23.147344 1.4714098 22.267578 0 L 21.652344 0 z M 25.341797 0 C 24.35725 0.98939259 24 2.7495845 24 4 L 25 4 C 25 2.2423295 25.401018 1.2311221 25.833984 0 L 25.341797 0 z M 37.652344 0 C 37.934208 1.6556739 38 2.9673968 38 4 L 39 4.0039062 C 39 2.9856279 39.147344 1.4714098 38.267578 0 L 37.652344 0 z M 41.341797 0 C 40.35725 0.98939259 40 2.7495845 40 4 L 41 4 C 41 2.2423295 41.401018 1.2311221 41.833984 0 L 41.341797 0 z M 53.652344 0 C 53.934208 1.6556739 54 2.9673968 54 4 L 55 4.0039062 C 55 2.9856279 55.147344 1.4714098 54.267578 0 L 53.652344 0 z M 57.341797 0 C 56.35725 0.98939259 56 2.7495845 56 4 L 57 4 C 57 2.2423295 57.401018 1.2311221 57.833984 0 L 57.341797 0 z M 69.652344 0 C 69.934208 1.6556739 70 2.9673968 70 4 L 71 4.0039062 C 71 2.9856279 71.147344 1.4714098 70.267578 0 L 69.652344 0 z M 73.341797 0 C 72.35725 0.98939259 72 2.7495845 72 4 L 73 4 C 73 2.2423295 73.401018 1.2311221 73.833984 0 L 73.341797 0 z M 85.652344 0 C 85.934208 1.6556739 86 2.9673968 86 4 L 87 4.0039062 C 87 2.9856279 87.147344 1.4714098 86.267578 0 L 85.652344 0 z M 89.341797 0 C 88.35725 0.98939259 88 2.7495845 88 4 L 89 4 C 89 2.2423295 89.401018 1.2311221 89.833984 0 L 89.341797 0 z M 101.65234 0 C 101.93421 1.6556739 102 2.9673968 102 4 L 103 4.0039062 C 103 2.9856279 103.14734 1.4714098 102.26758 0 L 101.65234 0 z M 105.3418 0 C 104.35725 0.98939259 104 2.7495845 104 4 L 105 4 C 105 2.2423295 105.40102 1.2311221 105.83398 0 L 105.3418 0 z M 117.65234 0 C 117.93421 1.6556739 118 2.9673968 118 4 L 119 4.0039062 C 119 2.9856279 119.14734 1.4714098 118.26758 0 L 117.65234 0 z M 121.3418 0 C 120.35725 0.98939259 120 2.7495845 120 4 L 121 4 C 121 2.2423295 121.40102 1.2311221 121.83398 0 L 121.3418 0 z M 12 0.75 C 10.5 1.5 10.25 2.25 10 4 L 11 4 C 11 3.25 11.5 1.75 12 0.75 z M 28 0.75 C 26.5 1.5 26.25 2.25 26 4 L 27 4 C 27 3.25 27.5 1.75 28 0.75 z M 44 0.75 C 42.5 1.5 42.25 2.25 42 4 L 43 4 C 43 3.25 43.5 1.75 44 0.75 z M 60 0.75 C 58.5 1.5 58.25 2.25 58 4 L 59 4 C 59 3.25 59.5 1.75 60 0.75 z M 76 0.75 C 74.5 1.5 74.25 2.25 74 4 L 75 4 C 75 3.25 75.5 1.75 76 0.75 z M 92 0.75 C 90.5 1.5 90.25 2.25 90 4 L 91 4 C 91 3.25 91.5 1.75 92 0.75 z M 108 0.75 C 106.5 1.5 106.25 2.25 106 4 L 107 4 C 107 3.25 107.5 1.75 108 0.75 z M 124 0.75 C 122.5 1.5 122.25 2.25 122 4 L 123 4 C 123 3.25 123.5 1.75 124 0.75 z M 3 1 C 3.5 2 4 3.25 4 4 L 5 4 C 5 2.25 4.25 1.5 3 1 z M 19 1 C 19.5 2 20 3.25 20 4 L 21 4 C 21 2.25 20.25 1.5 19 1 z M 35 1 C 35.5 2 36 3.25 36 4 L 37 4 C 37 2.25 36.25 1.5 35 1 z M 51 1 C 51.5 2 52 3.25 52 4 L 53 4 C 53 2.25 52.25 1.5 51 1 z M 67 1 C 67.5 2 68 3.25 68 4 L 69 4 C 69 2.25 68.25 1.5 67 1 z M 83 1 C 83.5 2 84 3.25 84 4 L 85 4 C 85 2.25 84.25 1.5 83 1 z M 99 1 C 99.5 2 100 3.25 100 4 L 101 4 C 101 2.25 100.25 1.5 99 1 z M 115 1 C 115.5 2 116 3.25 116 4 L 117 4 C 117 2.25 116.25 1.5 115 1 z M 13.5 7 C 14 9.25 14 10.75 14 12 L 15 12.003906 C 15 10.751906 15.25 8.75 13.5 7 z M 29.5 7 C 30 9.25 30 10.75 30 12 L 31 12.003906 C 31 10.751906 31.25 8.75 29.5 7 z M 45.5 7 C 46 9.25 46 10.75 46 12 L 47 12.003906 C 47 10.751906 47.25 8.75 45.5 7 z M 61.5 7 C 62 9.25 62 10.75 62 12 L 63 12.003906 C 63 10.751906 63.25 8.75 61.5 7 z M 77.5 7 C 78 9.25 78 10.75 78 12 L 79 12.003906 C 79 10.751906 79.25 8.75 77.5 7 z M 93.5 7 C 94 9.25 94 10.75 94 12 L 95 12.003906 C 95 10.751906 95.25 8.75 93.5 7 z M 109.5 7 C 110 9.25 110 10.75 110 12 L 111 12.003906 C 111 10.751906 111.25 8.75 109.5 7 z M 125.5 7 C 126 9.25 126 10.75 126 12 L 127 12.003906 C 127 10.751906 127.25 8.75 125.5 7 z M 2 7.5 C 0.5 8.25 0 10.5 0 12 L 1 12 C 1 10 1.5 9 2 7.5 z M 18 7.5 C 16.5 8.25 16 10.5 16 12 L 17 12 C 17 10 17.5 9 18 7.5 z M 34 7.5 C 32.5 8.25 32 10.5 32 12 L 33 12 C 33 10 33.5 9 34 7.5 z M 50 7.5 C 48.5 8.25 48 10.5 48 12 L 49 12 C 49 10 49.5 9 50 7.5 z M 66 7.5 C 64.5 8.25 64 10.5 64 12 L 65 12 C 65 10 65.5 9 66 7.5 z M 82 7.5 C 80.5 8.25 80 10.5 80 12 L 81 12 C 81 10 81.5 9 82 7.5 z M 98 7.5 C 96.5 8.25 96 10.5 96 12 L 97 12 C 97 10 97.5 9 98 7.5 z M 114 7.5 C 112.5 8.25 112 10.5 112 12 L 113 12 C 113 10 113.5 9 114 7.5 z M 4 8.75 C 2.5 9.5 2.25 10.25 2 12 L 3 12 C 3 11.25 3.5 9.75 4 8.75 z M 20 8.75 C 18.5 9.5 18.25 10.25 18 12 L 19 12 C 19 11.25 19.5 9.75 20 8.75 z M 36 8.75 C 34.5 9.5 34.25 10.25 34 12 L 35 12 C 35 11.25 35.5 9.75 36 8.75 z M 52 8.75 C 50.5 9.5 50.25 10.25 50 12 L 51 12 C 51 11.25 51.5 9.75 52 8.75 z M 68 8.75 C 66.5 9.5 66.25 10.25 66 12 L 67 12 C 67 11.25 67.5 9.75 68 8.75 z M 84 8.75 C 82.5 9.5 82.25 10.25 82 12 L 83 12 C 83 11.25 83.5 9.75 84 8.75 z M 100 8.75 C 98.5 9.5 98.25 10.25 98 12 L 99 12 C 99 11.25 99.5 9.75 100 8.75 z M 116 8.75 C 114.5 9.5 114.25 10.25 114 12 L 115 12 C 115 11.25 115.5 9.75 116 8.75 z M 11 9 C 11.5 10 12 11.25 12 12 L 13 12 C 13 10.25 12.25 9.5 11 9 z M 27 9 C 27.5 10 28 11.25 28 12 L 29 12 C 29 10.25 28.25 9.5 27 9 z M 43 9 C 43.5 10 44 11.25 44 12 L 45 12 C 45 10.25 44.25 9.5 43 9 z M 59 9 C 59.5 10 60 11.25 60 12 L 61 12 C 61 10.25 60.25 9.5 59 9 z M 75 9 C 75.5 10 76 11.25 76 12 L 77 12 C 77 10.25 76.25 9.5 75 9 z M 91 9 C 91.5 10 92 11.25 92 12 L 93 12 C 93 10.25 92.25 9.5 91 9 z M 107 9 C 107.5 10 108 11.25 108 12 L 109 12 C 109 10.25 108.25 9.5 107 9 z M 123 9 C 123.5 10 124 11.25 124 12 L 125 12 C 125 10.25 124.25 9.5 123 9 z M 5.5 15 C 6 17.25 6 18.75 6 20 L 7 20.003906 C 7 18.751906 7.25 16.75 5.5 15 z M 21.5 15 C 22 17.25 22 18.75 22 20 L 23 20.003906 C 23 18.751906 23.25 16.75 21.5 15 z M 37.5 15 C 38 17.25 38 18.75 38 20 L 39 20.003906 C 39 18.751906 39.25 16.75 37.5 15 z M 53.5 15 C 54 17.25 54 18.75 54 20 L 55 20.003906 C 55 18.751906 55.25 16.75 53.5 15 z M 69.5 15 C 70 17.25 70 18.75 70 20 L 71 20.003906 C 71 18.751906 71.25 16.75 69.5 15 z M 85.5 15 C 86 17.25 86 18.75 86 20 L 87 20.003906 C 87 18.751906 87.25 16.75 85.5 15 z M 101.5 15 C 102 17.25 102 18.75 102 20 L 103 20.003906 C 103 18.751906 103.25 16.75 101.5 15 z M 117.5 15 C 118 17.25 118 18.75 118 20 L 119 20.003906 C 119 18.751906 119.25 16.75 117.5 15 z M 10 15.5 C 8.5 16.25 8 18.5 8 20 L 9 20 C 9 18 9.5 17 10 15.5 z M 26 15.5 C 24.5 16.25 24 18.5 24 20 L 25 20 C 25 18 25.5 17 26 15.5 z M 42 15.5 C 40.5 16.25 40 18.5 40 20 L 41 20 C 41 18 41.5 17 42 15.5 z M 58 15.5 C 56.5 16.25 56 18.5 56 20 L 57 20 C 57 18 57.5 17 58 15.5 z M 74 15.5 C 72.5 16.25 72 18.5 72 20 L 73 20 C 73 18 73.5 17 74 15.5 z M 90 15.5 C 88.5 16.25 88 18.5 88 20 L 89 20 C 89 18 89.5 17 90 15.5 z M 106 15.5 C 104.5 16.25 104 18.5 104 20 L 105 20 C 105 18 105.5 17 106 15.5 z M 122 15.5 C 120.5 16.25 120 18.5 120 20 L 121 20 C 121 18 121.5 17 122 15.5 z M 12 16.75 C 10.5 17.5 10.25 18.25 10 20 L 11 20 C 11 19.25 11.5 17.75 12 16.75 z M 28 16.75 C 26.5 17.5 26.25 18.25 26 20 L 27 20 C 27 19.25 27.5 17.75 28 16.75 z M 44 16.75 C 42.5 17.5 42.25 18.25 42 20 L 43 20 C 43 19.25 43.5 17.75 44 16.75 z M 60 16.75 C 58.5 17.5 58.25 18.25 58 20 L 59 20 C 59 19.25 59.5 17.75 60 16.75 z M 76 16.75 C 74.5 17.5 74.25 18.25 74 20 L 75 20 C 75 19.25 75.5 17.75 76 16.75 z M 92 16.75 C 90.5 17.5 90.25 18.25 90 20 L 91 20 C 91 19.25 91.5 17.75 92 16.75 z M 108 16.75 C 106.5 17.5 106.25 18.25 106 20 L 107 20 C 107 19.25 107.5 17.75 108 16.75 z M 124 16.75 C 122.5 17.5 122.25 18.25 122 20 L 123 20 C 123 19.25 123.5 17.75 124 16.75 z M 3 17 C 3.5 18 4 19.25 4 20 L 5 20 C 5 18.25 4.25 17.5 3 17 z M 19 17 C 19.5 18 20 19.25 20 20 L 21 20 C 21 18.25 20.25 17.5 19 17 z M 35 17 C 35.5 18 36 19.25 36 20 L 37 20 C 37 18.25 36.25 17.5 35 17 z M 51 17 C 51.5 18 52 19.25 52 20 L 53 20 C 53 18.25 52.25 17.5 51 17 z M 67 17 C 67.5 18 68 19.25 68 20 L 69 20 C 69 18.25 68.25 17.5 67 17 z M 83 17 C 83.5 18 84 19.25 84 20 L 85 20 C 85 18.25 84.25 17.5 83 17 z M 99 17 C 99.5 18 100 19.25 100 20 L 101 20 C 101 18.25 100.25 17.5 99 17 z M 115 17 C 115.5 18 116 19.25 116 20 L 117 20 C 117 18.25 116.25 17.5 115 17 z M 13.5 23 C 14 25.25 14 26.75 14 28 L 15 28.003906 C 15 26.751906 15.25 24.75 13.5 23 z M 29.5 23 C 30 25.25 30 26.75 30 28 L 31 28.003906 C 31 26.751906 31.25 24.75 29.5 23 z M 45.5 23 C 46 25.25 46 26.75 46 28 L 47 28.003906 C 47 26.751906 47.25 24.75 45.5 23 z M 61.5 23 C 62 25.25 62 26.75 62 28 L 63 28.003906 C 63 26.751906 63.25 24.75 61.5 23 z M 77.5 23 C 78 25.25 78 26.75 78 28 L 79 28.003906 C 79 26.751906 79.25 24.75 77.5 23 z M 93.5 23 C 94 25.25 94 26.75 94 28 L 95 28.003906 C 95 26.751906 95.25 24.75 93.5 23 z M 109.5 23 C 110 25.25 110 26.75 110 28 L 111 28.003906 C 111 26.751906 111.25 24.75 109.5 23 z M 125.5 23 C 126 25.25 126 26.75 126 28 L 127 28.003906 C 127 26.751906 127.25 24.75 125.5 23 z M 2 23.5 C 0.5 24.25 0 26.5 0 28 L 1 28 C 1 26 1.5 25 2 23.5 z M 18 23.5 C 16.5 24.25 16 26.5 16 28 L 17 28 C 17 26 17.5 25 18 23.5 z M 34 23.5 C 32.5 24.25 32 26.5 32 28 L 33 28 C 33 26 33.5 25 34 23.5 z M 50 23.5 C 48.5 24.25 48 26.5 48 28 L 49 28 C 49 26 49.5 25 50 23.5 z M 66 23.5 C 64.5 24.25 64 26.5 64 28 L 65 28 C 65 26 65.5 25 66 23.5 z M 82 23.5 C 80.5 24.25 80 26.5 80 28 L 81 28 C 81 26 81.5 25 82 23.5 z M 98 23.5 C 96.5 24.25 96 26.5 96 28 L 97 28 C 97 26 97.5 25 98 23.5 z M 114 23.5 C 112.5 24.25 112 26.5 112 28 L 113 28 C 113 26 113.5 25 114 23.5 z M 4 24.75 C 2.5 25.5 2.25 26.25 2 28 L 3 28 C 3 27.25 3.5 25.75 4 24.75 z M 20 24.75 C 18.5 25.5 18.25 26.25 18 28 L 19 28 C 19 27.25 19.5 25.75 20 24.75 z M 36 24.75 C 34.5 25.5 34.25 26.25 34 28 L 35 28 C 35 27.25 35.5 25.75 36 24.75 z M 52 24.75 C 50.5 25.5 50.25 26.25 50 28 L 51 28 C 51 27.25 51.5 25.75 52 24.75 z M 68 24.75 C 66.5 25.5 66.25 26.25 66 28 L 67 28 C 67 27.25 67.5 25.75 68 24.75 z M 84 24.75 C 82.5 25.5 82.25 26.25 82 28 L 83 28 C 83 27.25 83.5 25.75 84 24.75 z M 100 24.75 C 98.5 25.5 98.25 26.25 98 28 L 99 28 C 99 27.25 99.5 25.75 100 24.75 z M 116 24.75 C 114.5 25.5 114.25 26.25 114 28 L 115 28 C 115 27.25 115.5 25.75 116 24.75 z M 11 25 C 11.5 26 12 27.25 12 28 L 13 28 C 13 26.25 12.25 25.5 11 25 z M 27 25 C 27.5 26 28 27.25 28 28 L 29 28 C 29 26.25 28.25 25.5 27 25 z M 43 25 C 43.5 26 44 27.25 44 28 L 45 28 C 45 26.25 44.25 25.5 43 25 z M 59 25 C 59.5 26 60 27.25 60 28 L 61 28 C 61 26.25 60.25 25.5 59 25 z M 75 25 C 75.5 26 76 27.25 76 28 L 77 28 C 77 26.25 76.25 25.5 75 25 z M 91 25 C 91.5 26 92 27.25 92 28 L 93 28 C 93 26.25 92.25 25.5 91 25 z M 107 25 C 107.5 26 108 27.25 108 28 L 109 28 C 109 26.25 108.25 25.5 107 25 z M 123 25 C 123.5 26 124 27.25 124 28 L 125 28 C 125 26.25 124.25 25.5 123 25 z M 5.5 31 C 6 33.25 6 34.75 6 36 L 7 36.003906 C 7 34.751906 7.25 32.75 5.5 31 z M 21.5 31 C 22 33.25 22 34.75 22 36 L 23 36.003906 C 23 34.751906 23.25 32.75 21.5 31 z M 37.5 31 C 38 33.25 38 34.75 38 36 L 39 36.003906 C 39 34.751906 39.25 32.75 37.5 31 z M 53.5 31 C 54 33.25 54 34.75 54 36 L 55 36.003906 C 55 34.751906 55.25 32.75 53.5 31 z M 69.5 31 C 70 33.25 70 34.75 70 36 L 71 36.003906 C 71 34.751906 71.25 32.75 69.5 31 z M 85.5 31 C 86 33.25 86 34.75 86 36 L 87 36.003906 C 87 34.751906 87.25 32.75 85.5 31 z M 101.5 31 C 102 33.25 102 34.75 102 36 L 103 36.003906 C 103 34.751906 103.25 32.75 101.5 31 z M 117.5 31 C 118 33.25 118 34.75 118 36 L 119 36.003906 C 119 34.751906 119.25 32.75 117.5 31 z M 10 31.5 C 8.5 32.25 8 34.5 8 36 L 9 36 C 9 34 9.5 33 10 31.5 z M 26 31.5 C 24.5 32.25 24 34.5 24 36 L 25 36 C 25 34 25.5 33 26 31.5 z M 42 31.5 C 40.5 32.25 40 34.5 40 36 L 41 36 C 41 34 41.5 33 42 31.5 z M 58 31.5 C 56.5 32.25 56 34.5 56 36 L 57 36 C 57 34 57.5 33 58 31.5 z M 74 31.5 C 72.5 32.25 72 34.5 72 36 L 73 36 C 73 34 73.5 33 74 31.5 z M 90 31.5 C 88.5 32.25 88 34.5 88 36 L 89 36 C 89 34 89.5 33 90 31.5 z M 106 31.5 C 104.5 32.25 104 34.5 104 36 L 105 36 C 105 34 105.5 33 106 31.5 z M 122 31.5 C 120.5 32.25 120 34.5 120 36 L 121 36 C 121 34 121.5 33 122 31.5 z M 12 32.75 C 10.5 33.5 10.25 34.25 10 36 L 11 36 C 11 35.25 11.5 33.75 12 32.75 z M 28 32.75 C 26.5 33.5 26.25 34.25 26 36 L 27 36 C 27 35.25 27.5 33.75 28 32.75 z M 44 32.75 C 42.5 33.5 42.25 34.25 42 36 L 43 36 C 43 35.25 43.5 33.75 44 32.75 z M 60 32.75 C 58.5 33.5 58.25 34.25 58 36 L 59 36 C 59 35.25 59.5 33.75 60 32.75 z M 76 32.75 C 74.5 33.5 74.25 34.25 74 36 L 75 36 C 75 35.25 75.5 33.75 76 32.75 z M 92 32.75 C 90.5 33.5 90.25 34.25 90 36 L 91 36 C 91 35.25 91.5 33.75 92 32.75 z M 108 32.75 C 106.5 33.5 106.25 34.25 106 36 L 107 36 C 107 35.25 107.5 33.75 108 32.75 z M 124 32.75 C 122.5 33.5 122.25 34.25 122 36 L 123 36 C 123 35.25 123.5 33.75 124 32.75 z M 3 33 C 3.5 34 4 35.25 4 36 L 5 36 C 5 34.25 4.25 33.5 3 33 z M 19 33 C 19.5 34 20 35.25 20 36 L 21 36 C 21 34.25 20.25 33.5 19 33 z M 35 33 C 35.5 34 36 35.25 36 36 L 37 36 C 37 34.25 36.25 33.5 35 33 z M 51 33 C 51.5 34 52 35.25 52 36 L 53 36 C 53 34.25 52.25 33.5 51 33 z M 67 33 C 67.5 34 68 35.25 68 36 L 69 36 C 69 34.25 68.25 33.5 67 33 z M 83 33 C 83.5 34 84 35.25 84 36 L 85 36 C 85 34.25 84.25 33.5 83 33 z M 99 33 C 99.5 34 100 35.25 100 36 L 101 36 C 101 34.25 100.25 33.5 99 33 z M 115 33 C 115.5 34 116 35.25 116 36 L 117 36 C 117 34.25 116.25 33.5 115 33 z M 13.5 39 C 14 41.25 14 42.75 14 44 L 15 44.003906 C 15 42.751906 15.25 40.75 13.5 39 z M 29.5 39 C 30 41.25 30 42.75 30 44 L 31 44.003906 C 31 42.751906 31.25 40.75 29.5 39 z M 45.5 39 C 46 41.25 46 42.75 46 44 L 47 44.003906 C 47 42.751906 47.25 40.75 45.5 39 z M 61.5 39 C 62 41.25 62 42.75 62 44 L 63 44.003906 C 63 42.751906 63.25 40.75 61.5 39 z M 77.5 39 C 78 41.25 78 42.75 78 44 L 79 44.003906 C 79 42.751906 79.25 40.75 77.5 39 z M 93.5 39 C 94 41.25 94 42.75 94 44 L 95 44.003906 C 95 42.751906 95.25 40.75 93.5 39 z M 109.5 39 C 110 41.25 110 42.75 110 44 L 111 44.003906 C 111 42.751906 111.25 40.75 109.5 39 z M 125.5 39 C 126 41.25 126 42.75 126 44 L 127 44.003906 C 127 42.751906 127.25 40.75 125.5 39 z M 2 39.5 C 0.5 40.25 0 42.5 0 44 L 1 44 C 1 42 1.5 41 2 39.5 z M 18 39.5 C 16.5 40.25 16 42.5 16 44 L 17 44 C 17 42 17.5 41 18 39.5 z M 34 39.5 C 32.5 40.25 32 42.5 32 44 L 33 44 C 33 42 33.5 41 34 39.5 z M 50 39.5 C 48.5 40.25 48 42.5 48 44 L 49 44 C 49 42 49.5 41 50 39.5 z M 66 39.5 C 64.5 40.25 64 42.5 64 44 L 65 44 C 65 42 65.5 41 66 39.5 z M 82 39.5 C 80.5 40.25 80 42.5 80 44 L 81 44 C 81 42 81.5 41 82 39.5 z M 98 39.5 C 96.5 40.25 96 42.5 96 44 L 97 44 C 97 42 97.5 41 98 39.5 z M 114 39.5 C 112.5 40.25 112 42.5 112 44 L 113 44 C 113 42 113.5 41 114 39.5 z M 4 40.75 C 2.5 41.5 2.25 42.25 2 44 L 3 44 C 3 43.25 3.5 41.75 4 40.75 z M 20 40.75 C 18.5 41.5 18.25 42.25 18 44 L 19 44 C 19 43.25 19.5 41.75 20 40.75 z M 36 40.75 C 34.5 41.5 34.25 42.25 34 44 L 35 44 C 35 43.25 35.5 41.75 36 40.75 z M 52 40.75 C 50.5 41.5 50.25 42.25 50 44 L 51 44 C 51 43.25 51.5 41.75 52 40.75 z M 68 40.75 C 66.5 41.5 66.25 42.25 66 44 L 67 44 C 67 43.25 67.5 41.75 68 40.75 z M 84 40.75 C 82.5 41.5 82.25 42.25 82 44 L 83 44 C 83 43.25 83.5 41.75 84 40.75 z M 100 40.75 C 98.5 41.5 98.25 42.25 98 44 L 99 44 C 99 43.25 99.5 41.75 100 40.75 z M 116 40.75 C 114.5 41.5 114.25 42.25 114 44 L 115 44 C 115 43.25 115.5 41.75 116 40.75 z M 11 41 C 11.5 42 12 43.25 12 44 L 13 44 C 13 42.25 12.25 41.5 11 41 z M 27 41 C 27.5 42 28 43.25 28 44 L 29 44 C 29 42.25 28.25 41.5 27 41 z M 43 41 C 43.5 42 44 43.25 44 44 L 45 44 C 45 42.25 44.25 41.5 43 41 z M 59 41 C 59.5 42 60 43.25 60 44 L 61 44 C 61 42.25 60.25 41.5 59 41 z M 75 41 C 75.5 42 76 43.25 76 44 L 77 44 C 77 42.25 76.25 41.5 75 41 z M 91 41 C 91.5 42 92 43.25 92 44 L 93 44 C 93 42.25 92.25 41.5 91 41 z M 107 41 C 107.5 42 108 43.25 108 44 L 109 44 C 109 42.25 108.25 41.5 107 41 z M 123 41 C 123.5 42 124 43.25 124 44 L 125 44 C 125 42.25 124.25 41.5 123 41 z M 5.5 47 C 6 49.25 6 50.75 6 52 L 7 52.003906 C 7 50.751906 7.25 48.75 5.5 47 z M 21.5 47 C 22 49.25 22 50.75 22 52 L 23 52.003906 C 23 50.751906 23.25 48.75 21.5 47 z M 37.5 47 C 38 49.25 38 50.75 38 52 L 39 52.003906 C 39 50.751906 39.25 48.75 37.5 47 z M 53.5 47 C 54 49.25 54 50.75 54 52 L 55 52.003906 C 55 50.751906 55.25 48.75 53.5 47 z M 69.5 47 C 70 49.25 70 50.75 70 52 L 71 52.003906 C 71 50.751906 71.25 48.75 69.5 47 z M 85.5 47 C 86 49.25 86 50.75 86 52 L 87 52.003906 C 87 50.751906 87.25 48.75 85.5 47 z M 101.5 47 C 102 49.25 102 50.75 102 52 L 103 52.003906 C 103 50.751906 103.25 48.75 101.5 47 z M 117.5 47 C 118 49.25 118 50.75 118 52 L 119 52.003906 C 119 50.751906 119.25 48.75 117.5 47 z M 10 47.5 C 8.5 48.25 8 50.5 8 52 L 9 52 C 9 50 9.5 49 10 47.5 z M 26 47.5 C 24.5 48.25 24 50.5 24 52 L 25 52 C 25 50 25.5 49 26 47.5 z M 42 47.5 C 40.5 48.25 40 50.5 40 52 L 41 52 C 41 50 41.5 49 42 47.5 z M 58 47.5 C 56.5 48.25 56 50.5 56 52 L 57 52 C 57 50 57.5 49 58 47.5 z M 74 47.5 C 72.5 48.25 72 50.5 72 52 L 73 52 C 73 50 73.5 49 74 47.5 z M 90 47.5 C 88.5 48.25 88 50.5 88 52 L 89 52 C 89 50 89.5 49 90 47.5 z M 106 47.5 C 104.5 48.25 104 50.5 104 52 L 105 52 C 105 50 105.5 49 106 47.5 z M 122 47.5 C 120.5 48.25 120 50.5 120 52 L 121 52 C 121 50 121.5 49 122 47.5 z M 12 48.75 C 10.5 49.5 10.25 50.25 10 52 L 11 52 C 11 51.25 11.5 49.75 12 48.75 z M 28 48.75 C 26.5 49.5 26.25 50.25 26 52 L 27 52 C 27 51.25 27.5 49.75 28 48.75 z M 44 48.75 C 42.5 49.5 42.25 50.25 42 52 L 43 52 C 43 51.25 43.5 49.75 44 48.75 z M 60 48.75 C 58.5 49.5 58.25 50.25 58 52 L 59 52 C 59 51.25 59.5 49.75 60 48.75 z M 76 48.75 C 74.5 49.5 74.25 50.25 74 52 L 75 52 C 75 51.25 75.5 49.75 76 48.75 z M 92 48.75 C 90.5 49.5 90.25 50.25 90 52 L 91 52 C 91 51.25 91.5 49.75 92 48.75 z M 108 48.75 C 106.5 49.5 106.25 50.25 106 52 L 107 52 C 107 51.25 107.5 49.75 108 48.75 z M 124 48.75 C 122.5 49.5 122.25 50.25 122 52 L 123 52 C 123 51.25 123.5 49.75 124 48.75 z M 3 49 C 3.5 50 4 51.25 4 52 L 5 52 C 5 50.25 4.25 49.5 3 49 z M 19 49 C 19.5 50 20 51.25 20 52 L 21 52 C 21 50.25 20.25 49.5 19 49 z M 35 49 C 35.5 50 36 51.25 36 52 L 37 52 C 37 50.25 36.25 49.5 35 49 z M 51 49 C 51.5 50 52 51.25 52 52 L 53 52 C 53 50.25 52.25 49.5 51 49 z M 67 49 C 67.5 50 68 51.25 68 52 L 69 52 C 69 50.25 68.25 49.5 67 49 z M 83 49 C 83.5 50 84 51.25 84 52 L 85 52 C 85 50.25 84.25 49.5 83 49 z M 99 49 C 99.5 50 100 51.25 100 52 L 101 52 C 101 50.25 100.25 49.5 99 49 z M 115 49 C 115.5 50 116 51.25 116 52 L 117 52 C 117 50.25 116.25 49.5 115 49 z M 13.5 55 C 14 57.25 14 58.75 14 60 L 15 60.003906 C 15 58.751906 15.25 56.75 13.5 55 z M 29.5 55 C 30 57.25 30 58.75 30 60 L 31 60.003906 C 31 58.751906 31.25 56.75 29.5 55 z M 45.5 55 C 46 57.25 46 58.75 46 60 L 47 60.003906 C 47 58.751906 47.25 56.75 45.5 55 z M 61.5 55 C 62 57.25 62 58.75 62 60 L 63 60.003906 C 63 58.751906 63.25 56.75 61.5 55 z M 77.5 55 C 78 57.25 78 58.75 78 60 L 79 60.003906 C 79 58.751906 79.25 56.75 77.5 55 z M 93.5 55 C 94 57.25 94 58.75 94 60 L 95 60.003906 C 95 58.751906 95.25 56.75 93.5 55 z M 109.5 55 C 110 57.25 110 58.75 110 60 L 111 60.003906 C 111 58.751906 111.25 56.75 109.5 55 z M 125.5 55 C 126 57.25 126 58.75 126 60 L 127 60.003906 C 127 58.751906 127.25 56.75 125.5 55 z M 2 55.5 C 0.5 56.25 0 58.5 0 60 L 1 60 C 1 58 1.5 57 2 55.5 z M 18 55.5 C 16.5 56.25 16 58.5 16 60 L 17 60 C 17 58 17.5 57 18 55.5 z M 34 55.5 C 32.5 56.25 32 58.5 32 60 L 33 60 C 33 58 33.5 57 34 55.5 z M 50 55.5 C 48.5 56.25 48 58.5 48 60 L 49 60 C 49 58 49.5 57 50 55.5 z M 66 55.5 C 64.5 56.25 64 58.5 64 60 L 65 60 C 65 58 65.5 57 66 55.5 z M 82 55.5 C 80.5 56.25 80 58.5 80 60 L 81 60 C 81 58 81.5 57 82 55.5 z M 98 55.5 C 96.5 56.25 96 58.5 96 60 L 97 60 C 97 58 97.5 57 98 55.5 z M 114 55.5 C 112.5 56.25 112 58.5 112 60 L 113 60 C 113 58 113.5 57 114 55.5 z M 4 56.75 C 2.5 57.5 2.25 58.25 2 60 L 3 60 C 3 59.25 3.5 57.75 4 56.75 z M 20 56.75 C 18.5 57.5 18.25 58.25 18 60 L 19 60 C 19 59.25 19.5 57.75 20 56.75 z M 36 56.75 C 34.5 57.5 34.25 58.25 34 60 L 35 60 C 35 59.25 35.5 57.75 36 56.75 z M 52 56.75 C 50.5 57.5 50.25 58.25 50 60 L 51 60 C 51 59.25 51.5 57.75 52 56.75 z M 68 56.75 C 66.5 57.5 66.25 58.25 66 60 L 67 60 C 67 59.25 67.5 57.75 68 56.75 z M 84 56.75 C 82.5 57.5 82.25 58.25 82 60 L 83 60 C 83 59.25 83.5 57.75 84 56.75 z M 100 56.75 C 98.5 57.5 98.25 58.25 98 60 L 99 60 C 99 59.25 99.5 57.75 100 56.75 z M 116 56.75 C 114.5 57.5 114.25 58.25 114 60 L 115 60 C 115 59.25 115.5 57.75 116 56.75 z M 11 57 C 11.5 58 12 59.25 12 60 L 13 60 C 13 58.25 12.25 57.5 11 57 z M 27 57 C 27.5 58 28 59.25 28 60 L 29 60 C 29 58.25 28.25 57.5 27 57 z M 43 57 C 43.5 58 44 59.25 44 60 L 45 60 C 45 58.25 44.25 57.5 43 57 z M 59 57 C 59.5 58 60 59.25 60 60 L 61 60 C 61 58.25 60.25 57.5 59 57 z M 75 57 C 75.5 58 76 59.25 76 60 L 77 60 C 77 58.25 76.25 57.5 75 57 z M 91 57 C 91.5 58 92 59.25 92 60 L 93 60 C 93 58.25 92.25 57.5 91 57 z M 107 57 C 107.5 58 108 59.25 108 60 L 109 60 C 109 58.25 108.25 57.5 107 57 z M 123 57 C 123.5 58 124 59.25 124 60 L 125 60 C 125 58.25 124.25 57.5 123 57 z M 5.5 63 C 6 65.25 6 66.75 6 68 L 7 68.003906 C 7 66.751906 7.25 64.75 5.5 63 z M 21.5 63 C 22 65.25 22 66.75 22 68 L 23 68.003906 C 23 66.751906 23.25 64.75 21.5 63 z M 37.5 63 C 38 65.25 38 66.75 38 68 L 39 68.003906 C 39 66.751906 39.25 64.75 37.5 63 z M 53.5 63 C 54 65.25 54 66.75 54 68 L 55 68.003906 C 55 66.751906 55.25 64.75 53.5 63 z M 69.5 63 C 70 65.25 70 66.75 70 68 L 71 68.003906 C 71 66.751906 71.25 64.75 69.5 63 z M 85.5 63 C 86 65.25 86 66.75 86 68 L 87 68.003906 C 87 66.751906 87.25 64.75 85.5 63 z M 101.5 63 C 102 65.25 102 66.75 102 68 L 103 68.003906 C 103 66.751906 103.25 64.75 101.5 63 z M 117.5 63 C 118 65.25 118 66.75 118 68 L 119 68.003906 C 119 66.751906 119.25 64.75 117.5 63 z M 10 63.5 C 8.5 64.25 8 66.5 8 68 L 9 68 C 9 66 9.5 65 10 63.5 z M 26 63.5 C 24.5 64.25 24 66.5 24 68 L 25 68 C 25 66 25.5 65 26 63.5 z M 42 63.5 C 40.5 64.25 40 66.5 40 68 L 41 68 C 41 66 41.5 65 42 63.5 z M 58 63.5 C 56.5 64.25 56 66.5 56 68 L 57 68 C 57 66 57.5 65 58 63.5 z M 74 63.5 C 72.5 64.25 72 66.5 72 68 L 73 68 C 73 66 73.5 65 74 63.5 z M 90 63.5 C 88.5 64.25 88 66.5 88 68 L 89 68 C 89 66 89.5 65 90 63.5 z M 106 63.5 C 104.5 64.25 104 66.5 104 68 L 105 68 C 105 66 105.5 65 106 63.5 z M 122 63.5 C 120.5 64.25 120 66.5 120 68 L 121 68 C 121 66 121.5 65 122 63.5 z M 12 64.75 C 10.5 65.5 10.25 66.25 10 68 L 11 68 C 11 67.25 11.5 65.75 12 64.75 z M 28 64.75 C 26.5 65.5 26.25 66.25 26 68 L 27 68 C 27 67.25 27.5 65.75 28 64.75 z M 44 64.75 C 42.5 65.5 42.25 66.25 42 68 L 43 68 C 43 67.25 43.5 65.75 44 64.75 z M 60 64.75 C 58.5 65.5 58.25 66.25 58 68 L 59 68 C 59 67.25 59.5 65.75 60 64.75 z M 76 64.75 C 74.5 65.5 74.25 66.25 74 68 L 75 68 C 75 67.25 75.5 65.75 76 64.75 z M 92 64.75 C 90.5 65.5 90.25 66.25 90 68 L 91 68 C 91 67.25 91.5 65.75 92 64.75 z M 108 64.75 C 106.5 65.5 106.25 66.25 106 68 L 107 68 C 107 67.25 107.5 65.75 108 64.75 z M 124 64.75 C 122.5 65.5 122.25 66.25 122 68 L 123 68 C 123 67.25 123.5 65.75 124 64.75 z M 3 65 C 3.5 66 4 67.25 4 68 L 5 68 C 5 66.25 4.25 65.5 3 65 z M 19 65 C 19.5 66 20 67.25 20 68 L 21 68 C 21 66.25 20.25 65.5 19 65 z M 35 65 C 35.5 66 36 67.25 36 68 L 37 68 C 37 66.25 36.25 65.5 35 65 z M 51 65 C 51.5 66 52 67.25 52 68 L 53 68 C 53 66.25 52.25 65.5 51 65 z M 67 65 C 67.5 66 68 67.25 68 68 L 69 68 C 69 66.25 68.25 65.5 67 65 z M 83 65 C 83.5 66 84 67.25 84 68 L 85 68 C 85 66.25 84.25 65.5 83 65 z M 99 65 C 99.5 66 100 67.25 100 68 L 101 68 C 101 66.25 100.25 65.5 99 65 z M 115 65 C 115.5 66 116 67.25 116 68 L 117 68 C 117 66.25 116.25 65.5 115 65 z M 13.5 71 C 14 73.25 14 74.75 14 76 L 15 76.003906 C 15 74.751906 15.25 72.75 13.5 71 z M 29.5 71 C 30 73.25 30 74.75 30 76 L 31 76.003906 C 31 74.751906 31.25 72.75 29.5 71 z M 45.5 71 C 46 73.25 46 74.75 46 76 L 47 76.003906 C 47 74.751906 47.25 72.75 45.5 71 z M 61.5 71 C 62 73.25 62 74.75 62 76 L 63 76.003906 C 63 74.751906 63.25 72.75 61.5 71 z M 77.5 71 C 78 73.25 78 74.75 78 76 L 79 76.003906 C 79 74.751906 79.25 72.75 77.5 71 z M 93.5 71 C 94 73.25 94 74.75 94 76 L 95 76.003906 C 95 74.751906 95.25 72.75 93.5 71 z M 109.5 71 C 110 73.25 110 74.75 110 76 L 111 76.003906 C 111 74.751906 111.25 72.75 109.5 71 z M 125.5 71 C 126 73.25 126 74.75 126 76 L 127 76.003906 C 127 74.751906 127.25 72.75 125.5 71 z M 2 71.5 C 0.5 72.25 0 74.5 0 76 L 1 76 C 1 74 1.5 73 2 71.5 z M 18 71.5 C 16.5 72.25 16 74.5 16 76 L 17 76 C 17 74 17.5 73 18 71.5 z M 34 71.5 C 32.5 72.25 32 74.5 32 76 L 33 76 C 33 74 33.5 73 34 71.5 z M 50 71.5 C 48.5 72.25 48 74.5 48 76 L 49 76 C 49 74 49.5 73 50 71.5 z M 66 71.5 C 64.5 72.25 64 74.5 64 76 L 65 76 C 65 74 65.5 73 66 71.5 z M 82 71.5 C 80.5 72.25 80 74.5 80 76 L 81 76 C 81 74 81.5 73 82 71.5 z M 98 71.5 C 96.5 72.25 96 74.5 96 76 L 97 76 C 97 74 97.5 73 98 71.5 z M 114 71.5 C 112.5 72.25 112 74.5 112 76 L 113 76 C 113 74 113.5 73 114 71.5 z M 4 72.75 C 2.5 73.5 2.25 74.25 2 76 L 3 76 C 3 75.25 3.5 73.75 4 72.75 z M 20 72.75 C 18.5 73.5 18.25 74.25 18 76 L 19 76 C 19 75.25 19.5 73.75 20 72.75 z M 36 72.75 C 34.5 73.5 34.25 74.25 34 76 L 35 76 C 35 75.25 35.5 73.75 36 72.75 z M 52 72.75 C 50.5 73.5 50.25 74.25 50 76 L 51 76 C 51 75.25 51.5 73.75 52 72.75 z M 68 72.75 C 66.5 73.5 66.25 74.25 66 76 L 67 76 C 67 75.25 67.5 73.75 68 72.75 z M 84 72.75 C 82.5 73.5 82.25 74.25 82 76 L 83 76 C 83 75.25 83.5 73.75 84 72.75 z M 100 72.75 C 98.5 73.5 98.25 74.25 98 76 L 99 76 C 99 75.25 99.5 73.75 100 72.75 z M 116 72.75 C 114.5 73.5 114.25 74.25 114 76 L 115 76 C 115 75.25 115.5 73.75 116 72.75 z M 11 73 C 11.5 74 12 75.25 12 76 L 13 76 C 13 74.25 12.25 73.5 11 73 z M 27 73 C 27.5 74 28 75.25 28 76 L 29 76 C 29 74.25 28.25 73.5 27 73 z M 43 73 C 43.5 74 44 75.25 44 76 L 45 76 C 45 74.25 44.25 73.5 43 73 z M 59 73 C 59.5 74 60 75.25 60 76 L 61 76 C 61 74.25 60.25 73.5 59 73 z M 75 73 C 75.5 74 76 75.25 76 76 L 77 76 C 77 74.25 76.25 73.5 75 73 z M 91 73 C 91.5 74 92 75.25 92 76 L 93 76 C 93 74.25 92.25 73.5 91 73 z M 107 73 C 107.5 74 108 75.25 108 76 L 109 76 C 109 74.25 108.25 73.5 107 73 z M 123 73 C 123.5 74 124 75.25 124 76 L 125 76 C 125 74.25 124.25 73.5 123 73 z M 5.5 79 C 6 81.25 6 82.75 6 84 L 7 84.003906 C 7 82.751906 7.25 80.75 5.5 79 z M 21.5 79 C 22 81.25 22 82.75 22 84 L 23 84.003906 C 23 82.751906 23.25 80.75 21.5 79 z M 37.5 79 C 38 81.25 38 82.75 38 84 L 39 84.003906 C 39 82.751906 39.25 80.75 37.5 79 z M 53.5 79 C 54 81.25 54 82.75 54 84 L 55 84.003906 C 55 82.751906 55.25 80.75 53.5 79 z M 69.5 79 C 70 81.25 70 82.75 70 84 L 71 84.003906 C 71 82.751906 71.25 80.75 69.5 79 z M 85.5 79 C 86 81.25 86 82.75 86 84 L 87 84.003906 C 87 82.751906 87.25 80.75 85.5 79 z M 101.5 79 C 102 81.25 102 82.75 102 84 L 103 84.003906 C 103 82.751906 103.25 80.75 101.5 79 z M 117.5 79 C 118 81.25 118 82.75 118 84 L 119 84.003906 C 119 82.751906 119.25 80.75 117.5 79 z M 10 79.5 C 8.5 80.25 8 82.5 8 84 L 9 84 C 9 82 9.5 81 10 79.5 z M 26 79.5 C 24.5 80.25 24 82.5 24 84 L 25 84 C 25 82 25.5 81 26 79.5 z M 42 79.5 C 40.5 80.25 40 82.5 40 84 L 41 84 C 41 82 41.5 81 42 79.5 z M 58 79.5 C 56.5 80.25 56 82.5 56 84 L 57 84 C 57 82 57.5 81 58 79.5 z M 74 79.5 C 72.5 80.25 72 82.5 72 84 L 73 84 C 73 82 73.5 81 74 79.5 z M 90 79.5 C 88.5 80.25 88 82.5 88 84 L 89 84 C 89 82 89.5 81 90 79.5 z M 106 79.5 C 104.5 80.25 104 82.5 104 84 L 105 84 C 105 82 105.5 81 106 79.5 z M 122 79.5 C 120.5 80.25 120 82.5 120 84 L 121 84 C 121 82 121.5 81 122 79.5 z M 12 80.75 C 10.5 81.5 10.25 82.25 10 84 L 11 84 C 11 83.25 11.5 81.75 12 80.75 z M 28 80.75 C 26.5 81.5 26.25 82.25 26 84 L 27 84 C 27 83.25 27.5 81.75 28 80.75 z M 44 80.75 C 42.5 81.5 42.25 82.25 42 84 L 43 84 C 43 83.25 43.5 81.75 44 80.75 z M 60 80.75 C 58.5 81.5 58.25 82.25 58 84 L 59 84 C 59 83.25 59.5 81.75 60 80.75 z M 76 80.75 C 74.5 81.5 74.25 82.25 74 84 L 75 84 C 75 83.25 75.5 81.75 76 80.75 z M 92 80.75 C 90.5 81.5 90.25 82.25 90 84 L 91 84 C 91 83.25 91.5 81.75 92 80.75 z M 108 80.75 C 106.5 81.5 106.25 82.25 106 84 L 107 84 C 107 83.25 107.5 81.75 108 80.75 z M 124 80.75 C 122.5 81.5 122.25 82.25 122 84 L 123 84 C 123 83.25 123.5 81.75 124 80.75 z M 3 81 C 3.5 82 4 83.25 4 84 L 5 84 C 5 82.25 4.25 81.5 3 81 z M 19 81 C 19.5 82 20 83.25 20 84 L 21 84 C 21 82.25 20.25 81.5 19 81 z M 35 81 C 35.5 82 36 83.25 36 84 L 37 84 C 37 82.25 36.25 81.5 35 81 z M 51 81 C 51.5 82 52 83.25 52 84 L 53 84 C 53 82.25 52.25 81.5 51 81 z M 67 81 C 67.5 82 68 83.25 68 84 L 69 84 C 69 82.25 68.25 81.5 67 81 z M 83 81 C 83.5 82 84 83.25 84 84 L 85 84 C 85 82.25 84.25 81.5 83 81 z M 99 81 C 99.5 82 100 83.25 100 84 L 101 84 C 101 82.25 100.25 81.5 99 81 z M 115 81 C 115.5 82 116 83.25 116 84 L 117 84 C 117 82.25 116.25 81.5 115 81 z M 13.5 87 C 14 89.25 14 90.75 14 92 L 15 92.003906 C 15 90.751906 15.25 88.75 13.5 87 z M 29.5 87 C 30 89.25 30 90.75 30 92 L 31 92.003906 C 31 90.751906 31.25 88.75 29.5 87 z M 45.5 87 C 46 89.25 46 90.75 46 92 L 47 92.003906 C 47 90.751906 47.25 88.75 45.5 87 z M 61.5 87 C 62 89.25 62 90.75 62 92 L 63 92.003906 C 63 90.751906 63.25 88.75 61.5 87 z M 77.5 87 C 78 89.25 78 90.75 78 92 L 79 92.003906 C 79 90.751906 79.25 88.75 77.5 87 z M 93.5 87 C 94 89.25 94 90.75 94 92 L 95 92.003906 C 95 90.751906 95.25 88.75 93.5 87 z M 109.5 87 C 110 89.25 110 90.75 110 92 L 111 92.003906 C 111 90.751906 111.25 88.75 109.5 87 z M 125.5 87 C 126 89.25 126 90.75 126 92 L 127 92.003906 C 127 90.751906 127.25 88.75 125.5 87 z M 2 87.5 C 0.5 88.25 0 90.5 0 92 L 1 92 C 1 90 1.5 89 2 87.5 z M 18 87.5 C 16.5 88.25 16 90.5 16 92 L 17 92 C 17 90 17.5 89 18 87.5 z M 34 87.5 C 32.5 88.25 32 90.5 32 92 L 33 92 C 33 90 33.5 89 34 87.5 z M 50 87.5 C 48.5 88.25 48 90.5 48 92 L 49 92 C 49 90 49.5 89 50 87.5 z M 66 87.5 C 64.5 88.25 64 90.5 64 92 L 65 92 C 65 90 65.5 89 66 87.5 z M 82 87.5 C 80.5 88.25 80 90.5 80 92 L 81 92 C 81 90 81.5 89 82 87.5 z M 98 87.5 C 96.5 88.25 96 90.5 96 92 L 97 92 C 97 90 97.5 89 98 87.5 z M 114 87.5 C 112.5 88.25 112 90.5 112 92 L 113 92 C 113 90 113.5 89 114 87.5 z M 4 88.75 C 2.5 89.5 2.25 90.25 2 92 L 3 92 C 3 91.25 3.5 89.75 4 88.75 z M 20 88.75 C 18.5 89.5 18.25 90.25 18 92 L 19 92 C 19 91.25 19.5 89.75 20 88.75 z M 36 88.75 C 34.5 89.5 34.25 90.25 34 92 L 35 92 C 35 91.25 35.5 89.75 36 88.75 z M 52 88.75 C 50.5 89.5 50.25 90.25 50 92 L 51 92 C 51 91.25 51.5 89.75 52 88.75 z M 68 88.75 C 66.5 89.5 66.25 90.25 66 92 L 67 92 C 67 91.25 67.5 89.75 68 88.75 z M 84 88.75 C 82.5 89.5 82.25 90.25 82 92 L 83 92 C 83 91.25 83.5 89.75 84 88.75 z M 100 88.75 C 98.5 89.5 98.25 90.25 98 92 L 99 92 C 99 91.25 99.5 89.75 100 88.75 z M 116 88.75 C 114.5 89.5 114.25 90.25 114 92 L 115 92 C 115 91.25 115.5 89.75 116 88.75 z M 11 89 C 11.5 90 12 91.25 12 92 L 13 92 C 13 90.25 12.25 89.5 11 89 z M 27 89 C 27.5 90 28 91.25 28 92 L 29 92 C 29 90.25 28.25 89.5 27 89 z M 43 89 C 43.5 90 44 91.25 44 92 L 45 92 C 45 90.25 44.25 89.5 43 89 z M 59 89 C 59.5 90 60 91.25 60 92 L 61 92 C 61 90.25 60.25 89.5 59 89 z M 75 89 C 75.5 90 76 91.25 76 92 L 77 92 C 77 90.25 76.25 89.5 75 89 z M 91 89 C 91.5 90 92 91.25 92 92 L 93 92 C 93 90.25 92.25 89.5 91 89 z M 107 89 C 107.5 90 108 91.25 108 92 L 109 92 C 109 90.25 108.25 89.5 107 89 z M 123 89 C 123.5 90 124 91.25 124 92 L 125 92 C 125 90.25 124.25 89.5 123 89 z M 5.5 95 C 6 97.25 6 98.75 6 100 L 7 100.00391 C 7 98.751906 7.25 96.75 5.5 95 z M 21.5 95 C 22 97.25 22 98.75 22 100 L 23 100.00391 C 23 98.751906 23.25 96.75 21.5 95 z M 37.5 95 C 38 97.25 38 98.75 38 100 L 39 100.00391 C 39 98.751906 39.25 96.75 37.5 95 z M 53.5 95 C 54 97.25 54 98.75 54 100 L 55 100.00391 C 55 98.751906 55.25 96.75 53.5 95 z M 69.5 95 C 70 97.25 70 98.75 70 100 L 71 100.00391 C 71 98.751906 71.25 96.75 69.5 95 z M 85.5 95 C 86 97.25 86 98.75 86 100 L 87 100.00391 C 87 98.751906 87.25 96.75 85.5 95 z M 101.5 95 C 102 97.25 102 98.75 102 100 L 103 100.00391 C 103 98.751906 103.25 96.75 101.5 95 z M 117.5 95 C 118 97.25 118 98.75 118 100 L 119 100.00391 C 119 98.751906 119.25 96.75 117.5 95 z M 10 95.5 C 8.5 96.25 8 98.5 8 100 L 9 100 C 9 98 9.5 97 10 95.5 z M 26 95.5 C 24.5 96.25 24 98.5 24 100 L 25 100 C 25 98 25.5 97 26 95.5 z M 42 95.5 C 40.5 96.25 40 98.5 40 100 L 41 100 C 41 98 41.5 97 42 95.5 z M 58 95.5 C 56.5 96.25 56 98.5 56 100 L 57 100 C 57 98 57.5 97 58 95.5 z M 74 95.5 C 72.5 96.25 72 98.5 72 100 L 73 100 C 73 98 73.5 97 74 95.5 z M 90 95.5 C 88.5 96.25 88 98.5 88 100 L 89 100 C 89 98 89.5 97 90 95.5 z M 106 95.5 C 104.5 96.25 104 98.5 104 100 L 105 100 C 105 98 105.5 97 106 95.5 z M 122 95.5 C 120.5 96.25 120 98.5 120 100 L 121 100 C 121 98 121.5 97 122 95.5 z M 12 96.75 C 10.5 97.5 10.25 98.25 10 100 L 11 100 C 11 99.25 11.5 97.75 12 96.75 z M 28 96.75 C 26.5 97.5 26.25 98.25 26 100 L 27 100 C 27 99.25 27.5 97.75 28 96.75 z M 44 96.75 C 42.5 97.5 42.25 98.25 42 100 L 43 100 C 43 99.25 43.5 97.75 44 96.75 z M 60 96.75 C 58.5 97.5 58.25 98.25 58 100 L 59 100 C 59 99.25 59.5 97.75 60 96.75 z M 76 96.75 C 74.5 97.5 74.25 98.25 74 100 L 75 100 C 75 99.25 75.5 97.75 76 96.75 z M 92 96.75 C 90.5 97.5 90.25 98.25 90 100 L 91 100 C 91 99.25 91.5 97.75 92 96.75 z M 108 96.75 C 106.5 97.5 106.25 98.25 106 100 L 107 100 C 107 99.25 107.5 97.75 108 96.75 z M 124 96.75 C 122.5 97.5 122.25 98.25 122 100 L 123 100 C 123 99.25 123.5 97.75 124 96.75 z M 3 97 C 3.5 98 4 99.25 4 100 L 5 100 C 5 98.25 4.25 97.5 3 97 z M 19 97 C 19.5 98 20 99.25 20 100 L 21 100 C 21 98.25 20.25 97.5 19 97 z M 35 97 C 35.5 98 36 99.25 36 100 L 37 100 C 37 98.25 36.25 97.5 35 97 z M 51 97 C 51.5 98 52 99.25 52 100 L 53 100 C 53 98.25 52.25 97.5 51 97 z M 67 97 C 67.5 98 68 99.25 68 100 L 69 100 C 69 98.25 68.25 97.5 67 97 z M 83 97 C 83.5 98 84 99.25 84 100 L 85 100 C 85 98.25 84.25 97.5 83 97 z M 99 97 C 99.5 98 100 99.25 100 100 L 101 100 C 101 98.25 100.25 97.5 99 97 z M 115 97 C 115.5 98 116 99.25 116 100 L 117 100 C 117 98.25 116.25 97.5 115 97 z M 13.5 103 C 14 105.25 14 106.75 14 108 L 15 108.00391 C 15 106.75191 15.25 104.75 13.5 103 z M 29.5 103 C 30 105.25 30 106.75 30 108 L 31 108.00391 C 31 106.75191 31.25 104.75 29.5 103 z M 45.5 103 C 46 105.25 46 106.75 46 108 L 47 108.00391 C 47 106.75191 47.25 104.75 45.5 103 z M 61.5 103 C 62 105.25 62 106.75 62 108 L 63 108.00391 C 63 106.75191 63.25 104.75 61.5 103 z M 77.5 103 C 78 105.25 78 106.75 78 108 L 79 108.00391 C 79 106.75191 79.25 104.75 77.5 103 z M 93.5 103 C 94 105.25 94 106.75 94 108 L 95 108.00391 C 95 106.75191 95.25 104.75 93.5 103 z M 109.5 103 C 110 105.25 110 106.75 110 108 L 111 108.00391 C 111 106.75191 111.25 104.75 109.5 103 z M 125.5 103 C 126 105.25 126 106.75 126 108 L 127 108.00391 C 127 106.75191 127.25 104.75 125.5 103 z M 2 103.5 C 0.5 104.25 0 106.5 0 108 L 1 108 C 1 106 1.5 105 2 103.5 z M 18 103.5 C 16.5 104.25 16 106.5 16 108 L 17 108 C 17 106 17.5 105 18 103.5 z M 34 103.5 C 32.5 104.25 32 106.5 32 108 L 33 108 C 33 106 33.5 105 34 103.5 z M 50 103.5 C 48.5 104.25 48 106.5 48 108 L 49 108 C 49 106 49.5 105 50 103.5 z M 66 103.5 C 64.5 104.25 64 106.5 64 108 L 65 108 C 65 106 65.5 105 66 103.5 z M 82 103.5 C 80.5 104.25 80 106.5 80 108 L 81 108 C 81 106 81.5 105 82 103.5 z M 98 103.5 C 96.5 104.25 96 106.5 96 108 L 97 108 C 97 106 97.5 105 98 103.5 z M 114 103.5 C 112.5 104.25 112 106.5 112 108 L 113 108 C 113 106 113.5 105 114 103.5 z M 4 104.75 C 2.5 105.5 2.25 106.25 2 108 L 3 108 C 3 107.25 3.5 105.75 4 104.75 z M 20 104.75 C 18.5 105.5 18.25 106.25 18 108 L 19 108 C 19 107.25 19.5 105.75 20 104.75 z M 36 104.75 C 34.5 105.5 34.25 106.25 34 108 L 35 108 C 35 107.25 35.5 105.75 36 104.75 z M 52 104.75 C 50.5 105.5 50.25 106.25 50 108 L 51 108 C 51 107.25 51.5 105.75 52 104.75 z M 68 104.75 C 66.5 105.5 66.25 106.25 66 108 L 67 108 C 67 107.25 67.5 105.75 68 104.75 z M 84 104.75 C 82.5 105.5 82.25 106.25 82 108 L 83 108 C 83 107.25 83.5 105.75 84 104.75 z M 100 104.75 C 98.5 105.5 98.25 106.25 98 108 L 99 108 C 99 107.25 99.5 105.75 100 104.75 z M 116 104.75 C 114.5 105.5 114.25 106.25 114 108 L 115 108 C 115 107.25 115.5 105.75 116 104.75 z M 11 105 C 11.5 106 12 107.25 12 108 L 13 108 C 13 106.25 12.25 105.5 11 105 z M 27 105 C 27.5 106 28 107.25 28 108 L 29 108 C 29 106.25 28.25 105.5 27 105 z M 43 105 C 43.5 106 44 107.25 44 108 L 45 108 C 45 106.25 44.25 105.5 43 105 z M 59 105 C 59.5 106 60 107.25 60 108 L 61 108 C 61 106.25 60.25 105.5 59 105 z M 75 105 C 75.5 106 76 107.25 76 108 L 77 108 C 77 106.25 76.25 105.5 75 105 z M 91 105 C 91.5 106 92 107.25 92 108 L 93 108 C 93 106.25 92.25 105.5 91 105 z M 107 105 C 107.5 106 108 107.25 108 108 L 109 108 C 109 106.25 108.25 105.5 107 105 z M 123 105 C 123.5 106 124 107.25 124 108 L 125 108 C 125 106.25 124.25 105.5 123 105 z M 5.5 111 C 6 113.25 6 114.75 6 116 L 7 116.00391 C 7 114.75191 7.25 112.75 5.5 111 z M 21.5 111 C 22 113.25 22 114.75 22 116 L 23 116.00391 C 23 114.75191 23.25 112.75 21.5 111 z M 37.5 111 C 38 113.25 38 114.75 38 116 L 39 116.00391 C 39 114.75191 39.25 112.75 37.5 111 z M 53.5 111 C 54 113.25 54 114.75 54 116 L 55 116.00391 C 55 114.75191 55.25 112.75 53.5 111 z M 69.5 111 C 70 113.25 70 114.75 70 116 L 71 116.00391 C 71 114.75191 71.25 112.75 69.5 111 z M 85.5 111 C 86 113.25 86 114.75 86 116 L 87 116.00391 C 87 114.75191 87.25 112.75 85.5 111 z M 101.5 111 C 102 113.25 102 114.75 102 116 L 103 116.00391 C 103 114.75191 103.25 112.75 101.5 111 z M 117.5 111 C 118 113.25 118 114.75 118 116 L 119 116.00391 C 119 114.75191 119.25 112.75 117.5 111 z M 10 111.5 C 8.5 112.25 8 114.5 8 116 L 9 116 C 9 114 9.5 113 10 111.5 z M 26 111.5 C 24.5 112.25 24 114.5 24 116 L 25 116 C 25 114 25.5 113 26 111.5 z M 42 111.5 C 40.5 112.25 40 114.5 40 116 L 41 116 C 41 114 41.5 113 42 111.5 z M 58 111.5 C 56.5 112.25 56 114.5 56 116 L 57 116 C 57 114 57.5 113 58 111.5 z M 74 111.5 C 72.5 112.25 72 114.5 72 116 L 73 116 C 73 114 73.5 113 74 111.5 z M 90 111.5 C 88.5 112.25 88 114.5 88 116 L 89 116 C 89 114 89.5 113 90 111.5 z M 106 111.5 C 104.5 112.25 104 114.5 104 116 L 105 116 C 105 114 105.5 113 106 111.5 z M 122 111.5 C 120.5 112.25 120 114.5 120 116 L 121 116 C 121 114 121.5 113 122 111.5 z M 12 112.75 C 10.5 113.5 10.25 114.25 10 116 L 11 116 C 11 115.25 11.5 113.75 12 112.75 z M 28 112.75 C 26.5 113.5 26.25 114.25 26 116 L 27 116 C 27 115.25 27.5 113.75 28 112.75 z M 44 112.75 C 42.5 113.5 42.25 114.25 42 116 L 43 116 C 43 115.25 43.5 113.75 44 112.75 z M 60 112.75 C 58.5 113.5 58.25 114.25 58 116 L 59 116 C 59 115.25 59.5 113.75 60 112.75 z M 76 112.75 C 74.5 113.5 74.25 114.25 74 116 L 75 116 C 75 115.25 75.5 113.75 76 112.75 z M 92 112.75 C 90.5 113.5 90.25 114.25 90 116 L 91 116 C 91 115.25 91.5 113.75 92 112.75 z M 108 112.75 C 106.5 113.5 106.25 114.25 106 116 L 107 116 C 107 115.25 107.5 113.75 108 112.75 z M 124 112.75 C 122.5 113.5 122.25 114.25 122 116 L 123 116 C 123 115.25 123.5 113.75 124 112.75 z M 3 113 C 3.5 114 4 115.25 4 116 L 5 116 C 5 114.25 4.25 113.5 3 113 z M 19 113 C 19.5 114 20 115.25 20 116 L 21 116 C 21 114.25 20.25 113.5 19 113 z M 35 113 C 35.5 114 36 115.25 36 116 L 37 116 C 37 114.25 36.25 113.5 35 113 z M 51 113 C 51.5 114 52 115.25 52 116 L 53 116 C 53 114.25 52.25 113.5 51 113 z M 67 113 C 67.5 114 68 115.25 68 116 L 69 116 C 69 114.25 68.25 113.5 67 113 z M 83 113 C 83.5 114 84 115.25 84 116 L 85 116 C 85 114.25 84.25 113.5 83 113 z M 99 113 C 99.5 114 100 115.25 100 116 L 101 116 C 101 114.25 100.25 113.5 99 113 z M 115 113 C 115.5 114 116 115.25 116 116 L 117 116 C 117 114.25 116.25 113.5 115 113 z M 13.5 119 C 14 121.25 14 122.75 14 124 L 15 124.00391 C 15 122.75191 15.25 120.75 13.5 119 z M 29.5 119 C 30 121.25 30 122.75 30 124 L 31 124.00391 C 31 122.75191 31.25 120.75 29.5 119 z M 45.5 119 C 46 121.25 46 122.75 46 124 L 47 124.00391 C 47 122.75191 47.25 120.75 45.5 119 z M 61.5 119 C 62 121.25 62 122.75 62 124 L 63 124.00391 C 63 122.75191 63.25 120.75 61.5 119 z M 77.5 119 C 78 121.25 78 122.75 78 124 L 79 124.00391 C 79 122.75191 79.25 120.75 77.5 119 z M 93.5 119 C 94 121.25 94 122.75 94 124 L 95 124.00391 C 95 122.75191 95.25 120.75 93.5 119 z M 109.5 119 C 110 121.25 110 122.75 110 124 L 111 124.00391 C 111 122.75191 111.25 120.75 109.5 119 z M 125.5 119 C 126 121.25 126 122.75 126 124 L 127 124.00391 C 127 122.75191 127.25 120.75 125.5 119 z M 2 119.5 C 0.5 120.25 0 122.5 0 124 L 1 124 C 1 122 1.5 121 2 119.5 z M 18 119.5 C 16.5 120.25 16 122.5 16 124 L 17 124 C 17 122 17.5 121 18 119.5 z M 34 119.5 C 32.5 120.25 32 122.5 32 124 L 33 124 C 33 122 33.5 121 34 119.5 z M 50 119.5 C 48.5 120.25 48 122.5 48 124 L 49 124 C 49 122 49.5 121 50 119.5 z M 66 119.5 C 64.5 120.25 64 122.5 64 124 L 65 124 C 65 122 65.5 121 66 119.5 z M 82 119.5 C 80.5 120.25 80 122.5 80 124 L 81 124 C 81 122 81.5 121 82 119.5 z M 98 119.5 C 96.5 120.25 96 122.5 96 124 L 97 124 C 97 122 97.5 121 98 119.5 z M 114 119.5 C 112.5 120.25 112 122.5 112 124 L 113 124 C 113 122 113.5 121 114 119.5 z M 4 120.75 C 2.5 121.5 2.25 122.25 2 124 L 3 124 C 3 123.25 3.5 121.75 4 120.75 z M 20 120.75 C 18.5 121.5 18.25 122.25 18 124 L 19 124 C 19 123.25 19.5 121.75 20 120.75 z M 36 120.75 C 34.5 121.5 34.25 122.25 34 124 L 35 124 C 35 123.25 35.5 121.75 36 120.75 z M 52 120.75 C 50.5 121.5 50.25 122.25 50 124 L 51 124 C 51 123.25 51.5 121.75 52 120.75 z M 68 120.75 C 66.5 121.5 66.25 122.25 66 124 L 67 124 C 67 123.25 67.5 121.75 68 120.75 z M 84 120.75 C 82.5 121.5 82.25 122.25 82 124 L 83 124 C 83 123.25 83.5 121.75 84 120.75 z M 100 120.75 C 98.5 121.5 98.25 122.25 98 124 L 99 124 C 99 123.25 99.5 121.75 100 120.75 z M 116 120.75 C 114.5 121.5 114.25 122.25 114 124 L 115 124 C 115 123.25 115.5 121.75 116 120.75 z M 11 121 C 11.5 122 12 123.25 12 124 L 13 124 C 13 122.25 12.25 121.5 11 121 z M 27 121 C 27.5 122 28 123.25 28 124 L 29 124 C 29 122.25 28.25 121.5 27 121 z M 43 121 C 43.5 122 44 123.25 44 124 L 45 124 C 45 122.25 44.25 121.5 43 121 z M 59 121 C 59.5 122 60 123.25 60 124 L 61 124 C 61 122.25 60.25 121.5 59 121 z M 75 121 C 75.5 122 76 123.25 76 124 L 77 124 C 77 122.25 76.25 121.5 75 121 z M 91 121 C 91.5 122 92 123.25 92 124 L 93 124 C 93 122.25 92.25 121.5 91 121 z M 107 121 C 107.5 122 108 123.25 108 124 L 109 124 C 109 122.25 108.25 121.5 107 121 z M 123 121 C 123.5 122 124 123.25 124 124 L 125 124 C 125 122.25 124.25 121.5 123 121 z M 5.5 127 C 5.5869587 127.39131 5.593002 127.65143 5.6523438 128 L 6.2675781 128 C 6.0656487 127.66227 5.8266876 127.32669 5.5 127 z M 21.5 127 C 21.586959 127.39131 21.593002 127.65143 21.652344 128 L 22.267578 128 C 22.065649 127.66227 21.826688 127.32669 21.5 127 z M 37.5 127 C 37.586959 127.39131 37.593002 127.65143 37.652344 128 L 38.267578 128 C 38.065649 127.66227 37.826688 127.32669 37.5 127 z M 53.5 127 C 53.586959 127.39131 53.593002 127.65143 53.652344 128 L 54.267578 128 C 54.065649 127.66227 53.826688 127.32669 53.5 127 z M 69.5 127 C 69.586959 127.39131 69.593002 127.65143 69.652344 128 L 70.267578 128 C 70.065649 127.66227 69.826688 127.32669 69.5 127 z M 85.5 127 C 85.586959 127.39131 85.593002 127.65143 85.652344 128 L 86.267578 128 C 86.065649 127.66227 85.826688 127.32669 85.5 127 z M 101.5 127 C 101.58696 127.39131 101.593 127.65143 101.65234 128 L 102.26758 128 C 102.06565 127.66227 101.82669 127.32669 101.5 127 z M 117.5 127 C 117.58696 127.39131 117.593 127.65143 117.65234 128 L 118.26758 128 C 118.06565 127.66227 117.82669 127.32669 117.5 127 z M 10 127.5 C 9.7504155 127.62479 9.5383136 127.80252 9.3417969 128 L 9.8339844 128 C 9.8936774 127.83027 9.9394176 127.68175 10 127.5 z M 26 127.5 C 25.750415 127.62479 25.538314 127.80252 25.341797 128 L 25.833984 128 C 25.893677 127.83027 25.939418 127.68175 26 127.5 z M 42 127.5 C 41.750415 127.62479 41.538314 127.80252 41.341797 128 L 41.833984 128 C 41.893677 127.83027 41.939418 127.68175 42 127.5 z M 58 127.5 C 57.750415 127.62479 57.538314 127.80252 57.341797 128 L 57.833984 128 C 57.893677 127.83027 57.939418 127.68175 58 127.5 z M 74 127.5 C 73.750415 127.62479 73.538314 127.80252 73.341797 128 L 73.833984 128 C 73.893677 127.83027 73.939418 127.68175 74 127.5 z M 90 127.5 C 89.750415 127.62479 89.538314 127.80252 89.341797 128 L 89.833984 128 C 89.893677 127.83027 89.939418 127.68175 90 127.5 z M 106 127.5 C 105.75042 127.62479 105.53831 127.80252 105.3418 128 L 105.83398 128 C 105.89368 127.83027 105.93942 127.68175 106 127.5 z M 122 127.5 C 121.75042 127.62479 121.53831 127.80252 121.3418 128 L 121.83398 128 C 121.89368 127.83027 121.93942 127.68175 122 127.5 z " />
  <rect
     width="128"
     height="128"
     rx="0"
     x="0"
     y="0"
     id="rect8566"
     style="fill:none;fill-opacity:1;stroke:none" />
  <desc
     id="desc589">Created with Snap</desc>
</svg>
