<?xml version="1.0" encoding="UTF-8" standalone="no"?>
<svg
   id="Svg"
   width="128"
   height="128"
   version="1.1"
   xmlns="http://www.w3.org/2000/svg"
   xmlns:svg="http://www.w3.org/2000/svg">
  <defs
     id="defs10" />
  <path
     id="path1961"
     d="M 0 0 L 0 2.0722656 A 1.25 1.375 0 0 0 0.75 0.875 A 1.25 1.375 0 0 0 0.63085938 0.29492188 C 0.99906048 0.091383153 1.4657745 -0.00012681352 1.9746094 0 L 0.59570312 0 C 0.56862707 0.02441539 0.53633122 0.041708776 0.50976562 0.06640625 A 1.25 1.375 0 0 0 0.44726562 0 L 0 0 z M 2.2167969 0 C 2.7779492 0.037594912 3.3870829 0.19354218 4 0.5 C 3.9202892 0.30072291 3.8308963 0.15314304 3.7421875 0 L 2.2167969 0 z M 21.755859 0 C 21.479913 0.28897328 21.220048 0.75183846 21 1.5 C 21.758568 1.5 22.517073 -0.22008062 23.384766 0.25585938 A 1.25 1.375 0 0 0 23.25 0.875 A 1.25 1.375 0 0 0 24.175781 2.2011719 L 24 5 L 25 5 L 24.824219 2.2011719 A 1.25 1.375 0 0 0 25.75 0.875 A 1.25 1.375 0 0 0 25.630859 0.29492188 C 25.99906 0.091383153 26.465775 -0.00012681352 26.974609 0 L 25.595703 0 C 25.568627 0.02441539 25.536331 0.041708776 25.509766 0.06640625 A 1.25 1.375 0 0 0 25.447266 0 L 23.548828 0 A 1.25 1.375 0 0 0 23.505859 0.044921875 C 23.481014 0.02516801 23.452961 0.018826646 23.427734 0 L 21.755859 0 z M 27.216797 0 C 27.777949 0.037594912 28.387083 0.19354218 29 0.5 C 28.920289 0.30072291 28.830896 0.15314304 28.742188 0 L 27.216797 0 z M 47.755859 0 C 47.479913 0.28897328 47.220048 0.75183846 47 1.5 C 47.758568 1.5 48.517073 -0.22008062 49.384766 0.25585938 A 1.25 1.375 0 0 0 49.25 0.875 A 1.25 1.375 0 0 0 50.175781 2.2011719 L 50 5 L 51 5 L 50.824219 2.2011719 A 1.25 1.375 0 0 0 51.75 0.875 A 1.25 1.375 0 0 0 51.630859 0.29492188 C 51.99906 0.091383153 52.465775 -0.00012681352 52.974609 0 L 51.595703 0 C 51.568627 0.02441539 51.536331 0.041708776 51.509766 0.06640625 A 1.25 1.375 0 0 0 51.447266 0 L 49.548828 0 A 1.25 1.375 0 0 0 49.505859 0.044921875 C 49.481014 0.02516801 49.452961 0.018826646 49.427734 0 L 47.755859 0 z M 53.216797 0 C 53.777949 0.037594912 54.387083 0.19354218 55 0.5 C 54.920289 0.30072291 54.830896 0.15314304 54.742188 0 L 53.216797 0 z M 72.755859 0 C 72.479913 0.28897328 72.220048 0.75183846 72 1.5 C 72.758568 1.5 73.517073 -0.22008062 74.384766 0.25585938 A 1.25 1.375 0 0 0 74.25 0.875 A 1.25 1.375 0 0 0 75.175781 2.2011719 L 75 5 L 76 5 L 75.824219 2.2011719 A 1.25 1.375 0 0 0 76.75 0.875 A 1.25 1.375 0 0 0 76.630859 0.29492188 C 76.99906 0.091383153 77.465775 -0.00012681352 77.974609 0 L 76.595703 0 C 76.568627 0.02441539 76.536331 0.041708776 76.509766 0.06640625 A 1.25 1.375 0 0 0 76.447266 0 L 74.548828 0 A 1.25 1.375 0 0 0 74.505859 0.044921875 C 74.481014 0.02516801 74.452961 0.018826646 74.427734 0 L 72.755859 0 z M 78.216797 0 C 78.777949 0.037594912 79.387083 0.19354218 80 0.5 C 79.920289 0.30072291 79.830896 0.15314304 79.742188 0 L 78.216797 0 z M 98.755859 0 C 98.479913 0.28897328 98.220048 0.75183846 98 1.5 C 98.758568 1.5 99.517068 -0.22008062 100.38477 0.25585938 A 1.25 1.375 0 0 0 100.25 0.875 A 1.25 1.375 0 0 0 101.17578 2.2011719 L 101 5 L 102 5 L 101.82422 2.2011719 A 1.25 1.375 0 0 0 102.75 0.875 A 1.25 1.375 0 0 0 102.63086 0.29492188 C 102.99906 0.091383153 103.46577 -0.00012681352 103.97461 0 L 102.5957 0 C 102.56863 0.02441539 102.53633 0.041708776 102.50977 0.06640625 A 1.25 1.375 0 0 0 102.44727 0 L 100.54883 0 A 1.25 1.375 0 0 0 100.50586 0.044921875 C 100.48101 0.02516801 100.45296 0.018826646 100.42773 0 L 98.755859 0 z M 104.2168 0 C 104.77795 0.037594912 105.38708 0.19354218 106 0.5 C 105.92029 0.30072291 105.8309 0.15314304 105.74219 0 L 104.2168 0 z M 124.75586 0 C 124.47991 0.28897328 124.22005 0.75183846 124 1.5 C 124.75857 1.5 125.51707 -0.22008062 126.38477 0.25585938 A 1.25 1.375 0 0 0 126.25 0.875 A 1.25 1.375 0 0 0 127.17578 2.2011719 L 127 5 L 128 5 L 127.82422 2.2011719 A 1.25 1.375 0 0 0 128 2.0722656 L 128 0 L 126.54883 0 A 1.25 1.375 0 0 0 126.50586 0.044921875 C 126.48101 0.02516801 126.45296 0.018826646 126.42773 0 L 124.75586 0 z M 2 4 A 1 0.5 0 0 0 1 4.5 A 1 0.5 0 0 0 2 5 A 1 0.5 0 0 0 3 4.5 A 1 0.5 0 0 0 2 4 z M 27 4 A 1 0.5 0 0 0 26 4.5 A 1 0.5 0 0 0 27 5 A 1 0.5 0 0 0 28 4.5 A 1 0.5 0 0 0 27 4 z M 53 4 A 1 0.5 0 0 0 52 4.5 A 1 0.5 0 0 0 53 5 A 1 0.5 0 0 0 54 4.5 A 1 0.5 0 0 0 53 4 z M 78 4 A 1 0.5 0 0 0 77 4.5 A 1 0.5 0 0 0 78 5 A 1 0.5 0 0 0 79 4.5 A 1 0.5 0 0 0 78 4 z M 104 4 A 1 0.5 0 0 0 103 4.5 A 1 0.5 0 0 0 104 5 A 1 0.5 0 0 0 105 4.5 A 1 0.5 0 0 0 104 4 z M 4.25 4.25 A 0.75 0.375 0 0 0 3.5 4.625 A 0.75 0.375 0 0 0 4.25 5 A 0.75 0.375 0 0 0 5 4.625 A 0.75 0.375 0 0 0 4.25 4.25 z M 29.25 4.25 A 0.75 0.375 0 0 0 28.5 4.625 A 0.75 0.375 0 0 0 29.25 5 A 0.75 0.375 0 0 0 30 4.625 A 0.75 0.375 0 0 0 29.25 4.25 z M 55.25 4.25 A 0.75 0.375 0 0 0 54.5 4.625 A 0.75 0.375 0 0 0 55.25 5 A 0.75 0.375 0 0 0 56 4.625 A 0.75 0.375 0 0 0 55.25 4.25 z M 80.25 4.25 A 0.75 0.375 0 0 0 79.5 4.625 A 0.75 0.375 0 0 0 80.25 5 A 0.75 0.375 0 0 0 81 4.625 A 0.75 0.375 0 0 0 80.25 4.25 z M 106.25 4.25 A 0.75 0.375 0 0 0 105.5 4.625 A 0.75 0.375 0 0 0 106.25 5 A 0.75 0.375 0 0 0 107 4.625 A 0.75 0.375 0 0 0 106.25 4.25 z M 10 7 C 10.404899 8.82205 11.126466 9.2045038 11.257812 11.527344 A 1.25 1.375 0 0 0 11.070312 11.585938 C 10.544078 10.557588 9.665182 9.5 8.25 9.5 C 8.25 10.81328 9.9399541 10.577713 10.783203 11.751953 A 1.25 1.375 0 0 0 10.505859 12.044922 C 9.6945174 11.399842 8.67102 11.21854 8 13.5 C 8.758568 13.5 9.5170726 11.779919 10.384766 12.255859 A 1.25 1.375 0 0 0 10.25 12.875 A 1.25 1.375 0 0 0 11.175781 14.201172 L 11 17 L 12 17 L 11.824219 14.201172 A 1.25 1.375 0 0 0 12.75 12.875 A 1.25 1.375 0 0 0 12.630859 12.294922 C 13.452343 11.840812 14.723257 11.86163 16 12.5 C 15.102872 10.25718 13.589171 11.062906 12.509766 12.066406 A 1.25 1.375 0 0 0 12.208984 11.744141 C 12.986547 10.066041 14.536093 9.32835 15.5 8.75 C 14.03043 7.11715 12.678832 9.629045 11.910156 11.578125 A 1.25 1.375 0 0 0 11.650391 11.511719 C 11.718301 9.2298988 12.120702 7 10 7 z M 36 7 C 36.404899 8.82205 37.126466 9.2045038 37.257812 11.527344 A 1.25 1.375 0 0 0 37.070312 11.585938 C 36.544078 10.557588 35.665182 9.5 34.25 9.5 C 34.25 10.81328 35.939954 10.577713 36.783203 11.751953 A 1.25 1.375 0 0 0 36.505859 12.044922 C 35.694517 11.399842 34.67102 11.21854 34 13.5 C 34.758568 13.5 35.517073 11.779919 36.384766 12.255859 A 1.25 1.375 0 0 0 36.25 12.875 A 1.25 1.375 0 0 0 37.175781 14.201172 L 37 17 L 38 17 L 37.824219 14.201172 A 1.25 1.375 0 0 0 38.75 12.875 A 1.25 1.375 0 0 0 38.630859 12.294922 C 39.452343 11.840812 40.723257 11.86163 42 12.5 C 41.102872 10.25718 39.589171 11.062906 38.509766 12.066406 A 1.25 1.375 0 0 0 38.208984 11.744141 C 38.986547 10.066041 40.536093 9.32835 41.5 8.75 C 40.03043 7.11715 38.678832 9.629045 37.910156 11.578125 A 1.25 1.375 0 0 0 37.650391 11.511719 C 37.718301 9.2298988 38.120702 7 36 7 z M 62 7 C 62.404899 8.82205 63.126466 9.2045038 63.257812 11.527344 A 1.25 1.375 0 0 0 63.070312 11.585938 C 62.544078 10.557588 61.665182 9.5 60.25 9.5 C 60.25 10.81328 61.939954 10.577713 62.783203 11.751953 A 1.25 1.375 0 0 0 62.505859 12.044922 C 61.694517 11.399842 60.67102 11.21854 60 13.5 C 60.758568 13.5 61.517073 11.779919 62.384766 12.255859 A 1.25 1.375 0 0 0 62.25 12.875 A 1.25 1.375 0 0 0 63.175781 14.201172 L 63 17 L 64 17 L 63.824219 14.201172 A 1.25 1.375 0 0 0 64.75 12.875 A 1.25 1.375 0 0 0 64.630859 12.294922 C 65.452343 11.840812 66.723257 11.86163 68 12.5 C 67.102872 10.25718 65.589171 11.062906 64.509766 12.066406 A 1.25 1.375 0 0 0 64.208984 11.744141 C 64.986547 10.066041 66.536093 9.32835 67.5 8.75 C 66.03043 7.11715 64.678832 9.629045 63.910156 11.578125 A 1.25 1.375 0 0 0 63.650391 11.511719 C 63.718301 9.2298988 64.120702 7 62 7 z M 87 7 C 87.404899 8.82205 88.126466 9.2045038 88.257812 11.527344 A 1.25 1.375 0 0 0 88.070312 11.585938 C 87.544078 10.557588 86.665182 9.5 85.25 9.5 C 85.25 10.81328 86.939954 10.577713 87.783203 11.751953 A 1.25 1.375 0 0 0 87.505859 12.044922 C 86.694517 11.399842 85.67102 11.21854 85 13.5 C 85.758568 13.5 86.517073 11.779919 87.384766 12.255859 A 1.25 1.375 0 0 0 87.25 12.875 A 1.25 1.375 0 0 0 88.175781 14.201172 L 88 17 L 89 17 L 88.824219 14.201172 A 1.25 1.375 0 0 0 89.75 12.875 A 1.25 1.375 0 0 0 89.630859 12.294922 C 90.452343 11.840812 91.723257 11.86163 93 12.5 C 92.102872 10.25718 90.589171 11.062906 89.509766 12.066406 A 1.25 1.375 0 0 0 89.208984 11.744141 C 89.986547 10.066041 91.536093 9.32835 92.5 8.75 C 91.03043 7.11715 89.678832 9.629045 88.910156 11.578125 A 1.25 1.375 0 0 0 88.650391 11.511719 C 88.718301 9.2298988 89.120702 7 87 7 z M 113 7 C 113.4049 8.82205 114.12647 9.2045038 114.25781 11.527344 A 1.25 1.375 0 0 0 114.07031 11.585938 C 113.54408 10.557588 112.66518 9.5 111.25 9.5 C 111.25 10.81328 112.93995 10.577713 113.7832 11.751953 A 1.25 1.375 0 0 0 113.50586 12.044922 C 112.69452 11.399842 111.67102 11.21854 111 13.5 C 111.75857 13.5 112.51707 11.779919 113.38477 12.255859 A 1.25 1.375 0 0 0 113.25 12.875 A 1.25 1.375 0 0 0 114.17578 14.201172 L 114 17 L 115 17 L 114.82422 14.201172 A 1.25 1.375 0 0 0 115.75 12.875 A 1.25 1.375 0 0 0 115.63086 12.294922 C 116.45234 11.840812 117.72326 11.86163 119 12.5 C 118.10287 10.25718 116.58917 11.062906 115.50977 12.066406 A 1.25 1.375 0 0 0 115.20898 11.744141 C 115.98655 10.066041 117.53609 9.32835 118.5 8.75 C 117.03043 7.11715 115.67883 9.629045 114.91016 11.578125 A 1.25 1.375 0 0 0 114.65039 11.511719 C 114.7183 9.2298987 115.1207 7 113 7 z M 14 16 A 1 0.5 0 0 0 13 16.5 A 1 0.5 0 0 0 14 17 A 1 0.5 0 0 0 15 16.5 A 1 0.5 0 0 0 14 16 z M 40 16 A 1 0.5 0 0 0 39 16.5 A 1 0.5 0 0 0 40 17 A 1 0.5 0 0 0 41 16.5 A 1 0.5 0 0 0 40 16 z M 66 16 A 1 0.5 0 0 0 65 16.5 A 1 0.5 0 0 0 66 17 A 1 0.5 0 0 0 67 16.5 A 1 0.5 0 0 0 66 16 z M 91 16 A 1 0.5 0 0 0 90 16.5 A 1 0.5 0 0 0 91 17 A 1 0.5 0 0 0 92 16.5 A 1 0.5 0 0 0 91 16 z M 117 16 A 1 0.5 0 0 0 116 16.5 A 1 0.5 0 0 0 117 17 A 1 0.5 0 0 0 118 16.5 A 1 0.5 0 0 0 117 16 z M 16.25 16.25 A 0.75 0.375 0 0 0 15.5 16.625 A 0.75 0.375 0 0 0 16.25 17 A 0.75 0.375 0 0 0 17 16.625 A 0.75 0.375 0 0 0 16.25 16.25 z M 42.25 16.25 A 0.75 0.375 0 0 0 41.5 16.625 A 0.75 0.375 0 0 0 42.25 17 A 0.75 0.375 0 0 0 43 16.625 A 0.75 0.375 0 0 0 42.25 16.25 z M 68.25 16.25 A 0.75 0.375 0 0 0 67.5 16.625 A 0.75 0.375 0 0 0 68.25 17 A 0.75 0.375 0 0 0 69 16.625 A 0.75 0.375 0 0 0 68.25 16.25 z M 93.25 16.25 A 0.75 0.375 0 0 0 92.5 16.625 A 0.75 0.375 0 0 0 93.25 17 A 0.75 0.375 0 0 0 94 16.625 A 0.75 0.375 0 0 0 93.25 16.25 z M 119.25 16.25 A 0.75 0.375 0 0 0 118.5 16.625 A 0.75 0.375 0 0 0 119.25 17 A 0.75 0.375 0 0 0 120 16.625 A 0.75 0.375 0 0 0 119.25 16.25 z M 23 20 C 23.404899 21.82205 24.126466 22.204504 24.257812 24.527344 A 1.25 1.375 0 0 0 24.070312 24.585938 C 23.544078 23.557588 22.665182 22.5 21.25 22.5 C 21.25 23.81328 22.939954 23.577713 23.783203 24.751953 A 1.25 1.375 0 0 0 23.505859 25.044922 C 22.694517 24.399842 21.67102 24.21854 21 26.5 C 21.758568 26.5 22.517073 24.779919 23.384766 25.255859 A 1.25 1.375 0 0 0 23.25 25.875 A 1.25 1.375 0 0 0 24.175781 27.201172 L 24 30 L 25 30 L 24.824219 27.201172 A 1.25 1.375 0 0 0 25.75 25.875 A 1.25 1.375 0 0 0 25.630859 25.294922 C 26.452343 24.840812 27.723257 24.86163 29 25.5 C 28.102872 23.25718 26.589171 24.062906 25.509766 25.066406 A 1.25 1.375 0 0 0 25.208984 24.744141 C 25.986547 23.066041 27.536093 22.32835 28.5 21.75 C 27.03043 20.11715 25.678832 22.629045 24.910156 24.578125 A 1.25 1.375 0 0 0 24.650391 24.511719 C 24.718301 22.229899 25.120702 20 23 20 z M 49 20 C 49.404899 21.82205 50.126466 22.204504 50.257812 24.527344 A 1.25 1.375 0 0 0 50.070312 24.585938 C 49.544078 23.557588 48.665182 22.5 47.25 22.5 C 47.25 23.81328 48.939954 23.577713 49.783203 24.751953 A 1.25 1.375 0 0 0 49.505859 25.044922 C 48.694517 24.399842 47.67102 24.21854 47 26.5 C 47.758568 26.5 48.517073 24.779919 49.384766 25.255859 A 1.25 1.375 0 0 0 49.25 25.875 A 1.25 1.375 0 0 0 50.175781 27.201172 L 50 30 L 51 30 L 50.824219 27.201172 A 1.25 1.375 0 0 0 51.75 25.875 A 1.25 1.375 0 0 0 51.630859 25.294922 C 52.452343 24.840812 53.723257 24.86163 55 25.5 C 54.102872 23.25718 52.589171 24.062906 51.509766 25.066406 A 1.25 1.375 0 0 0 51.208984 24.744141 C 51.986547 23.066041 53.536093 22.32835 54.5 21.75 C 53.03043 20.11715 51.678832 22.629045 50.910156 24.578125 A 1.25 1.375 0 0 0 50.650391 24.511719 C 50.718301 22.229899 51.120702 20 49 20 z M 74 20 C 74.404899 21.82205 75.126466 22.204504 75.257812 24.527344 A 1.25 1.375 0 0 0 75.070312 24.585938 C 74.544078 23.557588 73.665182 22.5 72.25 22.5 C 72.25 23.81328 73.939954 23.577713 74.783203 24.751953 A 1.25 1.375 0 0 0 74.505859 25.044922 C 73.694517 24.399842 72.67102 24.21854 72 26.5 C 72.758568 26.5 73.517073 24.779919 74.384766 25.255859 A 1.25 1.375 0 0 0 74.25 25.875 A 1.25 1.375 0 0 0 75.175781 27.201172 L 75 30 L 76 30 L 75.824219 27.201172 A 1.25 1.375 0 0 0 76.75 25.875 A 1.25 1.375 0 0 0 76.630859 25.294922 C 77.452343 24.840812 78.723257 24.86163 80 25.5 C 79.102872 23.25718 77.589171 24.062906 76.509766 25.066406 A 1.25 1.375 0 0 0 76.208984 24.744141 C 76.986547 23.066041 78.536093 22.32835 79.5 21.75 C 78.03043 20.11715 76.678832 22.629045 75.910156 24.578125 A 1.25 1.375 0 0 0 75.650391 24.511719 C 75.718301 22.229899 76.120702 20 74 20 z M 100 20 C 100.4049 21.82205 101.12647 22.204504 101.25781 24.527344 A 1.25 1.375 0 0 0 101.07031 24.585938 C 100.54408 23.557588 99.665182 22.5 98.25 22.5 C 98.25 23.81328 99.939957 23.577713 100.7832 24.751953 A 1.25 1.375 0 0 0 100.50586 25.044922 C 99.694516 24.399842 98.67102 24.21854 98 26.5 C 98.758568 26.5 99.517068 24.779919 100.38477 25.255859 A 1.25 1.375 0 0 0 100.25 25.875 A 1.25 1.375 0 0 0 101.17578 27.201172 L 101 30 L 102 30 L 101.82422 27.201172 A 1.25 1.375 0 0 0 102.75 25.875 A 1.25 1.375 0 0 0 102.63086 25.294922 C 103.45234 24.840812 104.72326 24.86163 106 25.5 C 105.10287 23.25718 103.58917 24.062906 102.50977 25.066406 A 1.25 1.375 0 0 0 102.20898 24.744141 C 102.98655 23.066041 104.53609 22.32835 105.5 21.75 C 104.03043 20.11715 102.67883 22.629045 101.91016 24.578125 A 1.25 1.375 0 0 0 101.65039 24.511719 C 101.7183 22.229899 102.1207 20 100 20 z M 126 20 C 126.4049 21.82205 127.12647 22.204504 127.25781 24.527344 A 1.25 1.375 0 0 0 127.07031 24.585938 C 126.54408 23.557588 125.66518 22.5 124.25 22.5 C 124.25 23.81328 125.93995 23.577713 126.7832 24.751953 A 1.25 1.375 0 0 0 126.50586 25.044922 C 125.69452 24.399842 124.67102 24.21854 124 26.5 C 124.75857 26.5 125.51707 24.779919 126.38477 25.255859 A 1.25 1.375 0 0 0 126.25 25.875 A 1.25 1.375 0 0 0 127.17578 27.201172 L 127 30 L 128 30 L 127.82422 27.201172 A 1.25 1.375 0 0 0 128 27.072266 L 128 24.380859 C 127.97336 24.446295 127.93555 24.513748 127.91016 24.578125 A 1.25 1.375 0 0 0 127.65039 24.511719 C 127.7183 22.229899 128.1207 20 126 20 z M 2.4277344 21.228516 C 1.437222 21.332693 0.5783629 22.960452 0 24.380859 L 0 27.072266 A 1.25 1.375 0 0 0 0.75 25.875 A 1.25 1.375 0 0 0 0.63085938 25.294922 C 1.4523434 24.840812 2.723257 24.86163 4 25.5 C 3.102872 23.25718 1.5891706 24.062906 0.50976562 25.066406 A 1.25 1.375 0 0 0 0.20898438 24.744141 C 0.98654738 23.066041 2.536093 22.32835 3.5 21.75 C 3.1326075 21.341787 2.7731155 21.19219 2.4277344 21.228516 z M 2 29 A 1 0.5 0 0 0 1 29.5 A 1 0.5 0 0 0 2 30 A 1 0.5 0 0 0 3 29.5 A 1 0.5 0 0 0 2 29 z M 27 29 A 1 0.5 0 0 0 26 29.5 A 1 0.5 0 0 0 27 30 A 1 0.5 0 0 0 28 29.5 A 1 0.5 0 0 0 27 29 z M 53 29 A 1 0.5 0 0 0 52 29.5 A 1 0.5 0 0 0 53 30 A 1 0.5 0 0 0 54 29.5 A 1 0.5 0 0 0 53 29 z M 78 29 A 1 0.5 0 0 0 77 29.5 A 1 0.5 0 0 0 78 30 A 1 0.5 0 0 0 79 29.5 A 1 0.5 0 0 0 78 29 z M 104 29 A 1 0.5 0 0 0 103 29.5 A 1 0.5 0 0 0 104 30 A 1 0.5 0 0 0 105 29.5 A 1 0.5 0 0 0 104 29 z M 4.25 29.25 A 0.75 0.375 0 0 0 3.5 29.625 A 0.75 0.375 0 0 0 4.25 30 A 0.75 0.375 0 0 0 5 29.625 A 0.75 0.375 0 0 0 4.25 29.25 z M 29.25 29.25 A 0.75 0.375 0 0 0 28.5 29.625 A 0.75 0.375 0 0 0 29.25 30 A 0.75 0.375 0 0 0 30 29.625 A 0.75 0.375 0 0 0 29.25 29.25 z M 55.25 29.25 A 0.75 0.375 0 0 0 54.5 29.625 A 0.75 0.375 0 0 0 55.25 30 A 0.75 0.375 0 0 0 56 29.625 A 0.75 0.375 0 0 0 55.25 29.25 z M 80.25 29.25 A 0.75 0.375 0 0 0 79.5 29.625 A 0.75 0.375 0 0 0 80.25 30 A 0.75 0.375 0 0 0 81 29.625 A 0.75 0.375 0 0 0 80.25 29.25 z M 106.25 29.25 A 0.75 0.375 0 0 0 105.5 29.625 A 0.75 0.375 0 0 0 106.25 30 A 0.75 0.375 0 0 0 107 29.625 A 0.75 0.375 0 0 0 106.25 29.25 z M 10 33 C 10.404899 34.82205 11.126466 35.204504 11.257812 37.527344 A 1.25 1.375 0 0 0 11.070312 37.585938 C 10.544078 36.557587 9.665182 35.5 8.25 35.5 C 8.25 36.81328 9.9399541 36.577713 10.783203 37.751953 A 1.25 1.375 0 0 0 10.505859 38.044922 C 9.6945174 37.399842 8.67102 37.21854 8 39.5 C 8.758568 39.5 9.5170726 37.779919 10.384766 38.255859 A 1.25 1.375 0 0 0 10.25 38.875 A 1.25 1.375 0 0 0 11.175781 40.201172 L 11 43 L 12 43 L 11.824219 40.201172 A 1.25 1.375 0 0 0 12.75 38.875 A 1.25 1.375 0 0 0 12.630859 38.294922 C 13.452343 37.840812 14.723257 37.86163 16 38.5 C 15.102872 36.25718 13.589171 37.062906 12.509766 38.066406 A 1.25 1.375 0 0 0 12.208984 37.744141 C 12.986547 36.066041 14.536093 35.32835 15.5 34.75 C 14.03043 33.11715 12.678832 35.629045 11.910156 37.578125 A 1.25 1.375 0 0 0 11.650391 37.511719 C 11.718301 35.229899 12.120702 33 10 33 z M 36 33 C 36.404899 34.82205 37.126466 35.204504 37.257812 37.527344 A 1.25 1.375 0 0 0 37.070312 37.585938 C 36.544078 36.557587 35.665182 35.5 34.25 35.5 C 34.25 36.81328 35.939954 36.577713 36.783203 37.751953 A 1.25 1.375 0 0 0 36.505859 38.044922 C 35.694517 37.399842 34.67102 37.21854 34 39.5 C 34.758568 39.5 35.517073 37.779919 36.384766 38.255859 A 1.25 1.375 0 0 0 36.25 38.875 A 1.25 1.375 0 0 0 37.175781 40.201172 L 37 43 L 38 43 L 37.824219 40.201172 A 1.25 1.375 0 0 0 38.75 38.875 A 1.25 1.375 0 0 0 38.630859 38.294922 C 39.452343 37.840812 40.723257 37.86163 42 38.5 C 41.102872 36.25718 39.589171 37.062906 38.509766 38.066406 A 1.25 1.375 0 0 0 38.208984 37.744141 C 38.986547 36.066041 40.536093 35.32835 41.5 34.75 C 40.03043 33.11715 38.678832 35.629045 37.910156 37.578125 A 1.25 1.375 0 0 0 37.650391 37.511719 C 37.718301 35.229899 38.120702 33 36 33 z M 62 33 C 62.404899 34.82205 63.126466 35.204504 63.257812 37.527344 A 1.25 1.375 0 0 0 63.070312 37.585938 C 62.544078 36.557587 61.665182 35.5 60.25 35.5 C 60.25 36.81328 61.939954 36.577713 62.783203 37.751953 A 1.25 1.375 0 0 0 62.505859 38.044922 C 61.694517 37.399842 60.67102 37.21854 60 39.5 C 60.758568 39.5 61.517073 37.779919 62.384766 38.255859 A 1.25 1.375 0 0 0 62.25 38.875 A 1.25 1.375 0 0 0 63.175781 40.201172 L 63 43 L 64 43 L 63.824219 40.201172 A 1.25 1.375 0 0 0 64.75 38.875 A 1.25 1.375 0 0 0 64.630859 38.294922 C 65.452343 37.840812 66.723257 37.86163 68 38.5 C 67.102872 36.25718 65.589171 37.062906 64.509766 38.066406 A 1.25 1.375 0 0 0 64.208984 37.744141 C 64.986547 36.066041 66.536093 35.32835 67.5 34.75 C 66.03043 33.11715 64.678832 35.629045 63.910156 37.578125 A 1.25 1.375 0 0 0 63.650391 37.511719 C 63.718301 35.229899 64.120702 33 62 33 z M 87 33 C 87.404899 34.82205 88.126466 35.204504 88.257812 37.527344 A 1.25 1.375 0 0 0 88.070312 37.585938 C 87.544078 36.557587 86.665182 35.5 85.25 35.5 C 85.25 36.81328 86.939954 36.577713 87.783203 37.751953 A 1.25 1.375 0 0 0 87.505859 38.044922 C 86.694517 37.399842 85.67102 37.21854 85 39.5 C 85.758568 39.5 86.517073 37.779919 87.384766 38.255859 A 1.25 1.375 0 0 0 87.25 38.875 A 1.25 1.375 0 0 0 88.175781 40.201172 L 88 43 L 89 43 L 88.824219 40.201172 A 1.25 1.375 0 0 0 89.75 38.875 A 1.25 1.375 0 0 0 89.630859 38.294922 C 90.452343 37.840812 91.723257 37.86163 93 38.5 C 92.102872 36.25718 90.589171 37.062906 89.509766 38.066406 A 1.25 1.375 0 0 0 89.208984 37.744141 C 89.986547 36.066041 91.536093 35.32835 92.5 34.75 C 91.03043 33.11715 89.678832 35.629045 88.910156 37.578125 A 1.25 1.375 0 0 0 88.650391 37.511719 C 88.718301 35.229899 89.120702 33 87 33 z M 113 33 C 113.4049 34.82205 114.12647 35.204504 114.25781 37.527344 A 1.25 1.375 0 0 0 114.07031 37.585938 C 113.54408 36.557587 112.66518 35.5 111.25 35.5 C 111.25 36.81328 112.93995 36.577713 113.7832 37.751953 A 1.25 1.375 0 0 0 113.50586 38.044922 C 112.69452 37.399842 111.67102 37.21854 111 39.5 C 111.75857 39.5 112.51707 37.779919 113.38477 38.255859 A 1.25 1.375 0 0 0 113.25 38.875 A 1.25 1.375 0 0 0 114.17578 40.201172 L 114 43 L 115 43 L 114.82422 40.201172 A 1.25 1.375 0 0 0 115.75 38.875 A 1.25 1.375 0 0 0 115.63086 38.294922 C 116.45234 37.840812 117.72326 37.86163 119 38.5 C 118.10287 36.25718 116.58917 37.062906 115.50977 38.066406 A 1.25 1.375 0 0 0 115.20898 37.744141 C 115.98655 36.066041 117.53609 35.32835 118.5 34.75 C 117.03043 33.11715 115.67883 35.629045 114.91016 37.578125 A 1.25 1.375 0 0 0 114.65039 37.511719 C 114.7183 35.229899 115.1207 33 113 33 z M 14 42 A 1 0.5 0 0 0 13 42.5 A 1 0.5 0 0 0 14 43 A 1 0.5 0 0 0 15 42.5 A 1 0.5 0 0 0 14 42 z M 40 42 A 1 0.5 0 0 0 39 42.5 A 1 0.5 0 0 0 40 43 A 1 0.5 0 0 0 41 42.5 A 1 0.5 0 0 0 40 42 z M 66 42 A 1 0.5 0 0 0 65 42.5 A 1 0.5 0 0 0 66 43 A 1 0.5 0 0 0 67 42.5 A 1 0.5 0 0 0 66 42 z M 91 42 A 1 0.5 0 0 0 90 42.5 A 1 0.5 0 0 0 91 43 A 1 0.5 0 0 0 92 42.5 A 1 0.5 0 0 0 91 42 z M 117 42 A 1 0.5 0 0 0 116 42.5 A 1 0.5 0 0 0 117 43 A 1 0.5 0 0 0 118 42.5 A 1 0.5 0 0 0 117 42 z M 16.25 42.25 A 0.75 0.375 0 0 0 15.5 42.625 A 0.75 0.375 0 0 0 16.25 43 A 0.75 0.375 0 0 0 17 42.625 A 0.75 0.375 0 0 0 16.25 42.25 z M 42.25 42.25 A 0.75 0.375 0 0 0 41.5 42.625 A 0.75 0.375 0 0 0 42.25 43 A 0.75 0.375 0 0 0 43 42.625 A 0.75 0.375 0 0 0 42.25 42.25 z M 68.25 42.25 A 0.75 0.375 0 0 0 67.5 42.625 A 0.75 0.375 0 0 0 68.25 43 A 0.75 0.375 0 0 0 69 42.625 A 0.75 0.375 0 0 0 68.25 42.25 z M 93.25 42.25 A 0.75 0.375 0 0 0 92.5 42.625 A 0.75 0.375 0 0 0 93.25 43 A 0.75 0.375 0 0 0 94 42.625 A 0.75 0.375 0 0 0 93.25 42.25 z M 119.25 42.25 A 0.75 0.375 0 0 0 118.5 42.625 A 0.75 0.375 0 0 0 119.25 43 A 0.75 0.375 0 0 0 120 42.625 A 0.75 0.375 0 0 0 119.25 42.25 z M 23 46 C 23.404899 47.82205 24.126466 48.204504 24.257812 50.527344 A 1.25 1.375 0 0 0 24.070312 50.585938 C 23.544078 49.557587 22.665182 48.5 21.25 48.5 C 21.25 49.81328 22.939954 49.577713 23.783203 50.751953 A 1.25 1.375 0 0 0 23.505859 51.044922 C 22.694517 50.399842 21.67102 50.21854 21 52.5 C 21.758568 52.5 22.517073 50.779919 23.384766 51.255859 A 1.25 1.375 0 0 0 23.25 51.875 A 1.25 1.375 0 0 0 24.175781 53.201172 L 24 56 L 25 56 L 24.824219 53.201172 A 1.25 1.375 0 0 0 25.75 51.875 A 1.25 1.375 0 0 0 25.630859 51.294922 C 26.452343 50.840812 27.723257 50.86163 29 51.5 C 28.102872 49.25718 26.589171 50.062906 25.509766 51.066406 A 1.25 1.375 0 0 0 25.208984 50.744141 C 25.986547 49.066041 27.536093 48.32835 28.5 47.75 C 27.03043 46.11715 25.678832 48.629045 24.910156 50.578125 A 1.25 1.375 0 0 0 24.650391 50.511719 C 24.718301 48.229899 25.120702 46 23 46 z M 49 46 C 49.404899 47.82205 50.126466 48.204504 50.257812 50.527344 A 1.25 1.375 0 0 0 50.070312 50.585938 C 49.544078 49.557587 48.665182 48.5 47.25 48.5 C 47.25 49.81328 48.939954 49.577713 49.783203 50.751953 A 1.25 1.375 0 0 0 49.505859 51.044922 C 48.694517 50.399842 47.67102 50.21854 47 52.5 C 47.758568 52.5 48.517073 50.779919 49.384766 51.255859 A 1.25 1.375 0 0 0 49.25 51.875 A 1.25 1.375 0 0 0 50.175781 53.201172 L 50 56 L 51 56 L 50.824219 53.201172 A 1.25 1.375 0 0 0 51.75 51.875 A 1.25 1.375 0 0 0 51.630859 51.294922 C 52.452343 50.840812 53.723257 50.86163 55 51.5 C 54.102872 49.25718 52.589171 50.062906 51.509766 51.066406 A 1.25 1.375 0 0 0 51.208984 50.744141 C 51.986547 49.066041 53.536093 48.32835 54.5 47.75 C 53.03043 46.11715 51.678832 48.629045 50.910156 50.578125 A 1.25 1.375 0 0 0 50.650391 50.511719 C 50.718301 48.229899 51.120702 46 49 46 z M 74 46 C 74.404899 47.82205 75.126466 48.204504 75.257812 50.527344 A 1.25 1.375 0 0 0 75.070312 50.585938 C 74.544078 49.557587 73.665182 48.5 72.25 48.5 C 72.25 49.81328 73.939954 49.577713 74.783203 50.751953 A 1.25 1.375 0 0 0 74.505859 51.044922 C 73.694517 50.399842 72.67102 50.21854 72 52.5 C 72.758568 52.5 73.517073 50.779919 74.384766 51.255859 A 1.25 1.375 0 0 0 74.25 51.875 A 1.25 1.375 0 0 0 75.175781 53.201172 L 75 56 L 76 56 L 75.824219 53.201172 A 1.25 1.375 0 0 0 76.75 51.875 A 1.25 1.375 0 0 0 76.630859 51.294922 C 77.452343 50.840812 78.723257 50.86163 80 51.5 C 79.102872 49.25718 77.589171 50.062906 76.509766 51.066406 A 1.25 1.375 0 0 0 76.208984 50.744141 C 76.986547 49.066041 78.536093 48.32835 79.5 47.75 C 78.03043 46.11715 76.678832 48.629045 75.910156 50.578125 A 1.25 1.375 0 0 0 75.650391 50.511719 C 75.718301 48.229899 76.120702 46 74 46 z M 100 46 C 100.4049 47.82205 101.12647 48.204504 101.25781 50.527344 A 1.25 1.375 0 0 0 101.07031 50.585938 C 100.54408 49.557587 99.665182 48.5 98.25 48.5 C 98.25 49.81328 99.939957 49.577713 100.7832 50.751953 A 1.25 1.375 0 0 0 100.50586 51.044922 C 99.694516 50.399842 98.67102 50.21854 98 52.5 C 98.758568 52.5 99.517068 50.779919 100.38477 51.255859 A 1.25 1.375 0 0 0 100.25 51.875 A 1.25 1.375 0 0 0 101.17578 53.201172 L 101 56 L 102 56 L 101.82422 53.201172 A 1.25 1.375 0 0 0 102.75 51.875 A 1.25 1.375 0 0 0 102.63086 51.294922 C 103.45234 50.840812 104.72326 50.86163 106 51.5 C 105.10287 49.25718 103.58917 50.062906 102.50977 51.066406 A 1.25 1.375 0 0 0 102.20898 50.744141 C 102.98655 49.066041 104.53609 48.32835 105.5 47.75 C 104.03043 46.11715 102.67883 48.629045 101.91016 50.578125 A 1.25 1.375 0 0 0 101.65039 50.511719 C 101.7183 48.229899 102.1207 46 100 46 z M 126 46 C 126.4049 47.82205 127.12647 48.204504 127.25781 50.527344 A 1.25 1.375 0 0 0 127.07031 50.585938 C 126.54408 49.557587 125.66518 48.5 124.25 48.5 C 124.25 49.81328 125.93995 49.577713 126.7832 50.751953 A 1.25 1.375 0 0 0 126.50586 51.044922 C 125.69452 50.399842 124.67102 50.21854 124 52.5 C 124.75857 52.5 125.51707 50.779919 126.38477 51.255859 A 1.25 1.375 0 0 0 126.25 51.875 A 1.25 1.375 0 0 0 127.17578 53.201172 L 127 56 L 128 56 L 127.82422 53.201172 A 1.25 1.375 0 0 0 128 53.072266 L 128 50.380859 C 127.97336 50.446295 127.93555 50.513748 127.91016 50.578125 A 1.25 1.375 0 0 0 127.65039 50.511719 C 127.7183 48.229899 128.1207 46 126 46 z M 2.4277344 47.228516 C 1.437222 47.332693 0.5783629 48.960452 0 50.380859 L 0 53.072266 A 1.25 1.375 0 0 0 0.75 51.875 A 1.25 1.375 0 0 0 0.63085938 51.294922 C 1.4523434 50.840812 2.723257 50.86163 4 51.5 C 3.102872 49.25718 1.5891706 50.062906 0.50976562 51.066406 A 1.25 1.375 0 0 0 0.20898438 50.744141 C 0.98654738 49.066041 2.536093 48.32835 3.5 47.75 C 3.1326075 47.341787 2.7731155 47.19219 2.4277344 47.228516 z M 2 55 A 1 0.5 0 0 0 1 55.5 A 1 0.5 0 0 0 2 56 A 1 0.5 0 0 0 3 55.5 A 1 0.5 0 0 0 2 55 z M 27 55 A 1 0.5 0 0 0 26 55.5 A 1 0.5 0 0 0 27 56 A 1 0.5 0 0 0 28 55.5 A 1 0.5 0 0 0 27 55 z M 53 55 A 1 0.5 0 0 0 52 55.5 A 1 0.5 0 0 0 53 56 A 1 0.5 0 0 0 54 55.5 A 1 0.5 0 0 0 53 55 z M 78 55 A 1 0.5 0 0 0 77 55.5 A 1 0.5 0 0 0 78 56 A 1 0.5 0 0 0 79 55.5 A 1 0.5 0 0 0 78 55 z M 104 55 A 1 0.5 0 0 0 103 55.5 A 1 0.5 0 0 0 104 56 A 1 0.5 0 0 0 105 55.5 A 1 0.5 0 0 0 104 55 z M 4.25 55.25 A 0.75 0.375 0 0 0 3.5 55.625 A 0.75 0.375 0 0 0 4.25 56 A 0.75 0.375 0 0 0 5 55.625 A 0.75 0.375 0 0 0 4.25 55.25 z M 29.25 55.25 A 0.75 0.375 0 0 0 28.5 55.625 A 0.75 0.375 0 0 0 29.25 56 A 0.75 0.375 0 0 0 30 55.625 A 0.75 0.375 0 0 0 29.25 55.25 z M 55.25 55.25 A 0.75 0.375 0 0 0 54.5 55.625 A 0.75 0.375 0 0 0 55.25 56 A 0.75 0.375 0 0 0 56 55.625 A 0.75 0.375 0 0 0 55.25 55.25 z M 80.25 55.25 A 0.75 0.375 0 0 0 79.5 55.625 A 0.75 0.375 0 0 0 80.25 56 A 0.75 0.375 0 0 0 81 55.625 A 0.75 0.375 0 0 0 80.25 55.25 z M 106.25 55.25 A 0.75 0.375 0 0 0 105.5 55.625 A 0.75 0.375 0 0 0 106.25 56 A 0.75 0.375 0 0 0 107 55.625 A 0.75 0.375 0 0 0 106.25 55.25 z M 10 59 C 10.404899 60.82205 11.126466 61.204504 11.257812 63.527344 A 1.25 1.375 0 0 0 11.070312 63.585938 C 10.544078 62.557587 9.665182 61.5 8.25 61.5 C 8.25 62.81328 9.9399541 62.577713 10.783203 63.751953 A 1.25 1.375 0 0 0 10.505859 64.044922 C 9.6945174 63.399842 8.67102 63.21854 8 65.5 C 8.758568 65.5 9.5170726 63.779919 10.384766 64.255859 A 1.25 1.375 0 0 0 10.25 64.875 A 1.25 1.375 0 0 0 11.175781 66.201172 L 11 69 L 12 69 L 11.824219 66.201172 A 1.25 1.375 0 0 0 12.75 64.875 A 1.25 1.375 0 0 0 12.630859 64.294922 C 13.452343 63.840812 14.723257 63.86163 16 64.5 C 15.102872 62.25718 13.589171 63.062906 12.509766 64.066406 A 1.25 1.375 0 0 0 12.208984 63.744141 C 12.986547 62.066041 14.536093 61.32835 15.5 60.75 C 14.03043 59.11715 12.678832 61.629045 11.910156 63.578125 A 1.25 1.375 0 0 0 11.650391 63.511719 C 11.718301 61.229899 12.120702 59 10 59 z M 36 59 C 36.404899 60.82205 37.126466 61.204504 37.257812 63.527344 A 1.25 1.375 0 0 0 37.070312 63.585938 C 36.544078 62.557587 35.665182 61.5 34.25 61.5 C 34.25 62.81328 35.939954 62.577713 36.783203 63.751953 A 1.25 1.375 0 0 0 36.505859 64.044922 C 35.694517 63.399842 34.67102 63.21854 34 65.5 C 34.758568 65.5 35.517073 63.779919 36.384766 64.255859 A 1.25 1.375 0 0 0 36.25 64.875 A 1.25 1.375 0 0 0 37.175781 66.201172 L 37 69 L 38 69 L 37.824219 66.201172 A 1.25 1.375 0 0 0 38.75 64.875 A 1.25 1.375 0 0 0 38.630859 64.294922 C 39.452343 63.840812 40.723257 63.86163 42 64.5 C 41.102872 62.25718 39.589171 63.062906 38.509766 64.066406 A 1.25 1.375 0 0 0 38.208984 63.744141 C 38.986547 62.066041 40.536093 61.32835 41.5 60.75 C 40.03043 59.11715 38.678832 61.629045 37.910156 63.578125 A 1.25 1.375 0 0 0 37.650391 63.511719 C 37.718301 61.229899 38.120702 59 36 59 z M 62 59 C 62.404899 60.82205 63.126466 61.204504 63.257812 63.527344 A 1.25 1.375 0 0 0 63.070312 63.585938 C 62.544078 62.557587 61.665182 61.5 60.25 61.5 C 60.25 62.81328 61.939954 62.577713 62.783203 63.751953 A 1.25 1.375 0 0 0 62.505859 64.044922 C 61.694517 63.399842 60.67102 63.21854 60 65.5 C 60.758568 65.5 61.517073 63.779919 62.384766 64.255859 A 1.25 1.375 0 0 0 62.25 64.875 A 1.25 1.375 0 0 0 63.175781 66.201172 L 63 69 L 64 69 L 63.824219 66.201172 A 1.25 1.375 0 0 0 64.75 64.875 A 1.25 1.375 0 0 0 64.630859 64.294922 C 65.452343 63.840812 66.723257 63.86163 68 64.5 C 67.102872 62.25718 65.589171 63.062906 64.509766 64.066406 A 1.25 1.375 0 0 0 64.208984 63.744141 C 64.986547 62.066041 66.536093 61.32835 67.5 60.75 C 66.03043 59.11715 64.678832 61.629045 63.910156 63.578125 A 1.25 1.375 0 0 0 63.650391 63.511719 C 63.718301 61.229899 64.120702 59 62 59 z M 87 59 C 87.404899 60.82205 88.126466 61.204504 88.257812 63.527344 A 1.25 1.375 0 0 0 88.070312 63.585938 C 87.544078 62.557587 86.665182 61.5 85.25 61.5 C 85.25 62.81328 86.939954 62.577713 87.783203 63.751953 A 1.25 1.375 0 0 0 87.505859 64.044922 C 86.694517 63.399842 85.67102 63.21854 85 65.5 C 85.758568 65.5 86.517073 63.779919 87.384766 64.255859 A 1.25 1.375 0 0 0 87.25 64.875 A 1.25 1.375 0 0 0 88.175781 66.201172 L 88 69 L 89 69 L 88.824219 66.201172 A 1.25 1.375 0 0 0 89.75 64.875 A 1.25 1.375 0 0 0 89.630859 64.294922 C 90.452343 63.840812 91.723257 63.86163 93 64.5 C 92.102872 62.25718 90.589171 63.062906 89.509766 64.066406 A 1.25 1.375 0 0 0 89.208984 63.744141 C 89.986547 62.066041 91.536093 61.32835 92.5 60.75 C 91.03043 59.11715 89.678832 61.629045 88.910156 63.578125 A 1.25 1.375 0 0 0 88.650391 63.511719 C 88.718301 61.229899 89.120702 59 87 59 z M 113 59 C 113.4049 60.82205 114.12647 61.204504 114.25781 63.527344 A 1.25 1.375 0 0 0 114.07031 63.585938 C 113.54408 62.557587 112.66518 61.5 111.25 61.5 C 111.25 62.81328 112.93995 62.577713 113.7832 63.751953 A 1.25 1.375 0 0 0 113.50586 64.044922 C 112.69452 63.399842 111.67102 63.21854 111 65.5 C 111.75857 65.5 112.51707 63.779919 113.38477 64.255859 A 1.25 1.375 0 0 0 113.25 64.875 A 1.25 1.375 0 0 0 114.17578 66.201172 L 114 69 L 115 69 L 114.82422 66.201172 A 1.25 1.375 0 0 0 115.75 64.875 A 1.25 1.375 0 0 0 115.63086 64.294922 C 116.45234 63.840812 117.72326 63.86163 119 64.5 C 118.10287 62.25718 116.58917 63.062906 115.50977 64.066406 A 1.25 1.375 0 0 0 115.20898 63.744141 C 115.98655 62.066041 117.53609 61.32835 118.5 60.75 C 117.03043 59.11715 115.67883 61.629045 114.91016 63.578125 A 1.25 1.375 0 0 0 114.65039 63.511719 C 114.7183 61.229899 115.1207 59 113 59 z M 14 68 A 1 0.5 0 0 0 13 68.5 A 1 0.5 0 0 0 14 69 A 1 0.5 0 0 0 15 68.5 A 1 0.5 0 0 0 14 68 z M 40 68 A 1 0.5 0 0 0 39 68.5 A 1 0.5 0 0 0 40 69 A 1 0.5 0 0 0 41 68.5 A 1 0.5 0 0 0 40 68 z M 66 68 A 1 0.5 0 0 0 65 68.5 A 1 0.5 0 0 0 66 69 A 1 0.5 0 0 0 67 68.5 A 1 0.5 0 0 0 66 68 z M 91 68 A 1 0.5 0 0 0 90 68.5 A 1 0.5 0 0 0 91 69 A 1 0.5 0 0 0 92 68.5 A 1 0.5 0 0 0 91 68 z M 117 68 A 1 0.5 0 0 0 116 68.5 A 1 0.5 0 0 0 117 69 A 1 0.5 0 0 0 118 68.5 A 1 0.5 0 0 0 117 68 z M 16.25 68.25 A 0.75 0.375 0 0 0 15.5 68.625 A 0.75 0.375 0 0 0 16.25 69 A 0.75 0.375 0 0 0 17 68.625 A 0.75 0.375 0 0 0 16.25 68.25 z M 42.25 68.25 A 0.75 0.375 0 0 0 41.5 68.625 A 0.75 0.375 0 0 0 42.25 69 A 0.75 0.375 0 0 0 43 68.625 A 0.75 0.375 0 0 0 42.25 68.25 z M 68.25 68.25 A 0.75 0.375 0 0 0 67.5 68.625 A 0.75 0.375 0 0 0 68.25 69 A 0.75 0.375 0 0 0 69 68.625 A 0.75 0.375 0 0 0 68.25 68.25 z M 93.25 68.25 A 0.75 0.375 0 0 0 92.5 68.625 A 0.75 0.375 0 0 0 93.25 69 A 0.75 0.375 0 0 0 94 68.625 A 0.75 0.375 0 0 0 93.25 68.25 z M 119.25 68.25 A 0.75 0.375 0 0 0 118.5 68.625 A 0.75 0.375 0 0 0 119.25 69 A 0.75 0.375 0 0 0 120 68.625 A 0.75 0.375 0 0 0 119.25 68.25 z M 23 71 C 23.404899 72.82205 24.126466 73.204504 24.257812 75.527344 A 1.25 1.375 0 0 0 24.070312 75.585938 C 23.544078 74.557587 22.665182 73.5 21.25 73.5 C 21.25 74.81328 22.939954 74.577713 23.783203 75.751953 A 1.25 1.375 0 0 0 23.505859 76.044922 C 22.694517 75.399842 21.67102 75.21854 21 77.5 C 21.758568 77.5 22.517073 75.779919 23.384766 76.255859 A 1.25 1.375 0 0 0 23.25 76.875 A 1.25 1.375 0 0 0 24.175781 78.201172 L 24 81 L 25 81 L 24.824219 78.201172 A 1.25 1.375 0 0 0 25.75 76.875 A 1.25 1.375 0 0 0 25.630859 76.294922 C 26.452343 75.840812 27.723257 75.86163 29 76.5 C 28.102872 74.25718 26.589171 75.062906 25.509766 76.066406 A 1.25 1.375 0 0 0 25.208984 75.744141 C 25.986547 74.066041 27.536093 73.32835 28.5 72.75 C 27.03043 71.11715 25.678832 73.629045 24.910156 75.578125 A 1.25 1.375 0 0 0 24.650391 75.511719 C 24.718301 73.229899 25.120702 71 23 71 z M 49 71 C 49.404899 72.82205 50.126466 73.204504 50.257812 75.527344 A 1.25 1.375 0 0 0 50.070312 75.585938 C 49.544078 74.557587 48.665182 73.5 47.25 73.5 C 47.25 74.81328 48.939954 74.577713 49.783203 75.751953 A 1.25 1.375 0 0 0 49.505859 76.044922 C 48.694517 75.399842 47.67102 75.21854 47 77.5 C 47.758568 77.5 48.517073 75.779919 49.384766 76.255859 A 1.25 1.375 0 0 0 49.25 76.875 A 1.25 1.375 0 0 0 50.175781 78.201172 L 50 81 L 51 81 L 50.824219 78.201172 A 1.25 1.375 0 0 0 51.75 76.875 A 1.25 1.375 0 0 0 51.630859 76.294922 C 52.452343 75.840812 53.723257 75.86163 55 76.5 C 54.102872 74.25718 52.589171 75.062906 51.509766 76.066406 A 1.25 1.375 0 0 0 51.208984 75.744141 C 51.986547 74.066041 53.536093 73.32835 54.5 72.75 C 53.03043 71.11715 51.678832 73.629045 50.910156 75.578125 A 1.25 1.375 0 0 0 50.650391 75.511719 C 50.718301 73.229899 51.120702 71 49 71 z M 74 71 C 74.404899 72.82205 75.126466 73.204504 75.257812 75.527344 A 1.25 1.375 0 0 0 75.070312 75.585938 C 74.544078 74.557587 73.665182 73.5 72.25 73.5 C 72.25 74.81328 73.939954 74.577713 74.783203 75.751953 A 1.25 1.375 0 0 0 74.505859 76.044922 C 73.694517 75.399842 72.67102 75.21854 72 77.5 C 72.758568 77.5 73.517073 75.779919 74.384766 76.255859 A 1.25 1.375 0 0 0 74.25 76.875 A 1.25 1.375 0 0 0 75.175781 78.201172 L 75 81 L 76 81 L 75.824219 78.201172 A 1.25 1.375 0 0 0 76.75 76.875 A 1.25 1.375 0 0 0 76.630859 76.294922 C 77.452343 75.840812 78.723257 75.86163 80 76.5 C 79.102872 74.25718 77.589171 75.062906 76.509766 76.066406 A 1.25 1.375 0 0 0 76.208984 75.744141 C 76.986547 74.066041 78.536093 73.32835 79.5 72.75 C 78.03043 71.11715 76.678832 73.629045 75.910156 75.578125 A 1.25 1.375 0 0 0 75.650391 75.511719 C 75.718301 73.229899 76.120702 71 74 71 z M 100 71 C 100.4049 72.82205 101.12647 73.204504 101.25781 75.527344 A 1.25 1.375 0 0 0 101.07031 75.585938 C 100.54408 74.557587 99.665182 73.5 98.25 73.5 C 98.25 74.81328 99.939957 74.577713 100.7832 75.751953 A 1.25 1.375 0 0 0 100.50586 76.044922 C 99.694516 75.399842 98.67102 75.21854 98 77.5 C 98.758568 77.5 99.517068 75.779919 100.38477 76.255859 A 1.25 1.375 0 0 0 100.25 76.875 A 1.25 1.375 0 0 0 101.17578 78.201172 L 101 81 L 102 81 L 101.82422 78.201172 A 1.25 1.375 0 0 0 102.75 76.875 A 1.25 1.375 0 0 0 102.63086 76.294922 C 103.45234 75.840812 104.72326 75.86163 106 76.5 C 105.10287 74.25718 103.58917 75.062906 102.50977 76.066406 A 1.25 1.375 0 0 0 102.20898 75.744141 C 102.98655 74.066041 104.53609 73.32835 105.5 72.75 C 104.03043 71.11715 102.67883 73.629045 101.91016 75.578125 A 1.25 1.375 0 0 0 101.65039 75.511719 C 101.7183 73.229899 102.1207 71 100 71 z M 126 71 C 126.4049 72.82205 127.12647 73.204504 127.25781 75.527344 A 1.25 1.375 0 0 0 127.07031 75.585938 C 126.54408 74.557587 125.66518 73.5 124.25 73.5 C 124.25 74.81328 125.93995 74.577713 126.7832 75.751953 A 1.25 1.375 0 0 0 126.50586 76.044922 C 125.69452 75.399842 124.67102 75.21854 124 77.5 C 124.75857 77.5 125.51707 75.779919 126.38477 76.255859 A 1.25 1.375 0 0 0 126.25 76.875 A 1.25 1.375 0 0 0 127.17578 78.201172 L 127 81 L 128 81 L 127.82422 78.201172 A 1.25 1.375 0 0 0 128 78.072266 L 128 75.380859 C 127.97336 75.446295 127.93555 75.513748 127.91016 75.578125 A 1.25 1.375 0 0 0 127.65039 75.511719 C 127.7183 73.229899 128.1207 71 126 71 z M 2.4277344 72.228516 C 1.437222 72.332693 0.5783629 73.960452 0 75.380859 L 0 78.072266 A 1.25 1.375 0 0 0 0.75 76.875 A 1.25 1.375 0 0 0 0.63085938 76.294922 C 1.4523434 75.840812 2.723257 75.86163 4 76.5 C 3.102872 74.25718 1.5891706 75.062906 0.50976562 76.066406 A 1.25 1.375 0 0 0 0.20898438 75.744141 C 0.98654738 74.066041 2.536093 73.32835 3.5 72.75 C 3.1326075 72.341787 2.7731155 72.19219 2.4277344 72.228516 z M 2 80 A 1 0.5 0 0 0 1 80.5 A 1 0.5 0 0 0 2 81 A 1 0.5 0 0 0 3 80.5 A 1 0.5 0 0 0 2 80 z M 27 80 A 1 0.5 0 0 0 26 80.5 A 1 0.5 0 0 0 27 81 A 1 0.5 0 0 0 28 80.5 A 1 0.5 0 0 0 27 80 z M 53 80 A 1 0.5 0 0 0 52 80.5 A 1 0.5 0 0 0 53 81 A 1 0.5 0 0 0 54 80.5 A 1 0.5 0 0 0 53 80 z M 78 80 A 1 0.5 0 0 0 77 80.5 A 1 0.5 0 0 0 78 81 A 1 0.5 0 0 0 79 80.5 A 1 0.5 0 0 0 78 80 z M 104 80 A 1 0.5 0 0 0 103 80.5 A 1 0.5 0 0 0 104 81 A 1 0.5 0 0 0 105 80.5 A 1 0.5 0 0 0 104 80 z M 4.25 80.25 A 0.75 0.375 0 0 0 3.5 80.625 A 0.75 0.375 0 0 0 4.25 81 A 0.75 0.375 0 0 0 5 80.625 A 0.75 0.375 0 0 0 4.25 80.25 z M 29.25 80.25 A 0.75 0.375 0 0 0 28.5 80.625 A 0.75 0.375 0 0 0 29.25 81 A 0.75 0.375 0 0 0 30 80.625 A 0.75 0.375 0 0 0 29.25 80.25 z M 55.25 80.25 A 0.75 0.375 0 0 0 54.5 80.625 A 0.75 0.375 0 0 0 55.25 81 A 0.75 0.375 0 0 0 56 80.625 A 0.75 0.375 0 0 0 55.25 80.25 z M 80.25 80.25 A 0.75 0.375 0 0 0 79.5 80.625 A 0.75 0.375 0 0 0 80.25 81 A 0.75 0.375 0 0 0 81 80.625 A 0.75 0.375 0 0 0 80.25 80.25 z M 106.25 80.25 A 0.75 0.375 0 0 0 105.5 80.625 A 0.75 0.375 0 0 0 106.25 81 A 0.75 0.375 0 0 0 107 80.625 A 0.75 0.375 0 0 0 106.25 80.25 z M 10 84 C 10.404899 85.82205 11.126466 86.204504 11.257812 88.527344 A 1.25 1.375 0 0 0 11.070312 88.585938 C 10.544078 87.557587 9.665182 86.5 8.25 86.5 C 8.25 87.81328 9.9399541 87.577713 10.783203 88.751953 A 1.25 1.375 0 0 0 10.505859 89.044922 C 9.6945174 88.399842 8.67102 88.21854 8 90.5 C 8.758568 90.5 9.5170726 88.779919 10.384766 89.255859 A 1.25 1.375 0 0 0 10.25 89.875 A 1.25 1.375 0 0 0 11.175781 91.201172 L 11 94 L 12 94 L 11.824219 91.201172 A 1.25 1.375 0 0 0 12.75 89.875 A 1.25 1.375 0 0 0 12.630859 89.294922 C 13.452343 88.840812 14.723257 88.86163 16 89.5 C 15.102872 87.25718 13.589171 88.062906 12.509766 89.066406 A 1.25 1.375 0 0 0 12.208984 88.744141 C 12.986547 87.066041 14.536093 86.32835 15.5 85.75 C 14.03043 84.11715 12.678832 86.629045 11.910156 88.578125 A 1.25 1.375 0 0 0 11.650391 88.511719 C 11.718301 86.229899 12.120702 84 10 84 z M 36 84 C 36.404899 85.82205 37.126466 86.204504 37.257812 88.527344 A 1.25 1.375 0 0 0 37.070312 88.585938 C 36.544078 87.557587 35.665182 86.5 34.25 86.5 C 34.25 87.81328 35.939954 87.577713 36.783203 88.751953 A 1.25 1.375 0 0 0 36.505859 89.044922 C 35.694517 88.399842 34.67102 88.21854 34 90.5 C 34.758568 90.5 35.517073 88.779919 36.384766 89.255859 A 1.25 1.375 0 0 0 36.25 89.875 A 1.25 1.375 0 0 0 37.175781 91.201172 L 37 94 L 38 94 L 37.824219 91.201172 A 1.25 1.375 0 0 0 38.75 89.875 A 1.25 1.375 0 0 0 38.630859 89.294922 C 39.452343 88.840812 40.723257 88.86163 42 89.5 C 41.102872 87.25718 39.589171 88.062906 38.509766 89.066406 A 1.25 1.375 0 0 0 38.208984 88.744141 C 38.986547 87.066041 40.536093 86.32835 41.5 85.75 C 40.03043 84.11715 38.678832 86.629045 37.910156 88.578125 A 1.25 1.375 0 0 0 37.650391 88.511719 C 37.718301 86.229899 38.120702 84 36 84 z M 62 84 C 62.404899 85.82205 63.126466 86.204504 63.257812 88.527344 A 1.25 1.375 0 0 0 63.070312 88.585938 C 62.544078 87.557587 61.665182 86.5 60.25 86.5 C 60.25 87.81328 61.939954 87.577713 62.783203 88.751953 A 1.25 1.375 0 0 0 62.505859 89.044922 C 61.694517 88.399842 60.67102 88.21854 60 90.5 C 60.758568 90.5 61.517073 88.779919 62.384766 89.255859 A 1.25 1.375 0 0 0 62.25 89.875 A 1.25 1.375 0 0 0 63.175781 91.201172 L 63 94 L 64 94 L 63.824219 91.201172 A 1.25 1.375 0 0 0 64.75 89.875 A 1.25 1.375 0 0 0 64.630859 89.294922 C 65.452343 88.840812 66.723257 88.86163 68 89.5 C 67.102872 87.25718 65.589171 88.062906 64.509766 89.066406 A 1.25 1.375 0 0 0 64.208984 88.744141 C 64.986547 87.066041 66.536093 86.32835 67.5 85.75 C 66.03043 84.11715 64.678832 86.629045 63.910156 88.578125 A 1.25 1.375 0 0 0 63.650391 88.511719 C 63.718301 86.229899 64.120702 84 62 84 z M 87 84 C 87.404899 85.82205 88.126466 86.204504 88.257812 88.527344 A 1.25 1.375 0 0 0 88.070312 88.585938 C 87.544078 87.557587 86.665182 86.5 85.25 86.5 C 85.25 87.81328 86.939954 87.577713 87.783203 88.751953 A 1.25 1.375 0 0 0 87.505859 89.044922 C 86.694517 88.399842 85.67102 88.21854 85 90.5 C 85.758568 90.5 86.517073 88.779919 87.384766 89.255859 A 1.25 1.375 0 0 0 87.25 89.875 A 1.25 1.375 0 0 0 88.175781 91.201172 L 88 94 L 89 94 L 88.824219 91.201172 A 1.25 1.375 0 0 0 89.75 89.875 A 1.25 1.375 0 0 0 89.630859 89.294922 C 90.452343 88.840812 91.723257 88.86163 93 89.5 C 92.102872 87.25718 90.589171 88.062906 89.509766 89.066406 A 1.25 1.375 0 0 0 89.208984 88.744141 C 89.986547 87.066041 91.536093 86.32835 92.5 85.75 C 91.03043 84.11715 89.678832 86.629045 88.910156 88.578125 A 1.25 1.375 0 0 0 88.650391 88.511719 C 88.718301 86.229899 89.120702 84 87 84 z M 113 84 C 113.4049 85.82205 114.12647 86.204504 114.25781 88.527344 A 1.25 1.375 0 0 0 114.07031 88.585938 C 113.54408 87.557587 112.66518 86.5 111.25 86.5 C 111.25 87.81328 112.93995 87.577713 113.7832 88.751953 A 1.25 1.375 0 0 0 113.50586 89.044922 C 112.69452 88.399842 111.67102 88.21854 111 90.5 C 111.75857 90.5 112.51707 88.779919 113.38477 89.255859 A 1.25 1.375 0 0 0 113.25 89.875 A 1.25 1.375 0 0 0 114.17578 91.201172 L 114 94 L 115 94 L 114.82422 91.201172 A 1.25 1.375 0 0 0 115.75 89.875 A 1.25 1.375 0 0 0 115.63086 89.294922 C 116.45234 88.840812 117.72326 88.86163 119 89.5 C 118.10287 87.25718 116.58917 88.062906 115.50977 89.066406 A 1.25 1.375 0 0 0 115.20898 88.744141 C 115.98655 87.066041 117.53609 86.32835 118.5 85.75 C 117.03043 84.11715 115.67883 86.629045 114.91016 88.578125 A 1.25 1.375 0 0 0 114.65039 88.511719 C 114.7183 86.229899 115.1207 84 113 84 z M 14 93 A 1 0.5 0 0 0 13 93.5 A 1 0.5 0 0 0 14 94 A 1 0.5 0 0 0 15 93.5 A 1 0.5 0 0 0 14 93 z M 40 93 A 1 0.5 0 0 0 39 93.5 A 1 0.5 0 0 0 40 94 A 1 0.5 0 0 0 41 93.5 A 1 0.5 0 0 0 40 93 z M 66 93 A 1 0.5 0 0 0 65 93.5 A 1 0.5 0 0 0 66 94 A 1 0.5 0 0 0 67 93.5 A 1 0.5 0 0 0 66 93 z M 91 93 A 1 0.5 0 0 0 90 93.5 A 1 0.5 0 0 0 91 94 A 1 0.5 0 0 0 92 93.5 A 1 0.5 0 0 0 91 93 z M 117 93 A 1 0.5 0 0 0 116 93.5 A 1 0.5 0 0 0 117 94 A 1 0.5 0 0 0 118 93.5 A 1 0.5 0 0 0 117 93 z M 16.25 93.25 A 0.75 0.375 0 0 0 15.5 93.625 A 0.75 0.375 0 0 0 16.25 94 A 0.75 0.375 0 0 0 17 93.625 A 0.75 0.375 0 0 0 16.25 93.25 z M 42.25 93.25 A 0.75 0.375 0 0 0 41.5 93.625 A 0.75 0.375 0 0 0 42.25 94 A 0.75 0.375 0 0 0 43 93.625 A 0.75 0.375 0 0 0 42.25 93.25 z M 68.25 93.25 A 0.75 0.375 0 0 0 67.5 93.625 A 0.75 0.375 0 0 0 68.25 94 A 0.75 0.375 0 0 0 69 93.625 A 0.75 0.375 0 0 0 68.25 93.25 z M 93.25 93.25 A 0.75 0.375 0 0 0 92.5 93.625 A 0.75 0.375 0 0 0 93.25 94 A 0.75 0.375 0 0 0 94 93.625 A 0.75 0.375 0 0 0 93.25 93.25 z M 119.25 93.25 A 0.75 0.375 0 0 0 118.5 93.625 A 0.75 0.375 0 0 0 119.25 94 A 0.75 0.375 0 0 0 120 93.625 A 0.75 0.375 0 0 0 119.25 93.25 z M 23 97 C 23.404899 98.82205 24.126466 99.204504 24.257812 101.52734 A 1.25 1.375 0 0 0 24.070312 101.58594 C 23.544078 100.55759 22.665182 99.5 21.25 99.5 C 21.25 100.81328 22.939954 100.57771 23.783203 101.75195 A 1.25 1.375 0 0 0 23.505859 102.04492 C 22.694517 101.39984 21.67102 101.21854 21 103.5 C 21.758568 103.5 22.517073 101.77992 23.384766 102.25586 A 1.25 1.375 0 0 0 23.25 102.875 A 1.25 1.375 0 0 0 24.175781 104.20117 L 24 107 L 25 107 L 24.824219 104.20117 A 1.25 1.375 0 0 0 25.75 102.875 A 1.25 1.375 0 0 0 25.630859 102.29492 C 26.452343 101.84081 27.723257 101.86163 29 102.5 C 28.102872 100.25718 26.589171 101.06291 25.509766 102.06641 A 1.25 1.375 0 0 0 25.208984 101.74414 C 25.986547 100.06604 27.536093 99.32835 28.5 98.75 C 27.03043 97.11715 25.678832 99.629045 24.910156 101.57812 A 1.25 1.375 0 0 0 24.650391 101.51172 C 24.718301 99.229899 25.120702 97 23 97 z M 49 97 C 49.404899 98.82205 50.126466 99.204504 50.257812 101.52734 A 1.25 1.375 0 0 0 50.070312 101.58594 C 49.544078 100.55759 48.665182 99.5 47.25 99.5 C 47.25 100.81328 48.939954 100.57771 49.783203 101.75195 A 1.25 1.375 0 0 0 49.505859 102.04492 C 48.694517 101.39984 47.67102 101.21854 47 103.5 C 47.758568 103.5 48.517073 101.77992 49.384766 102.25586 A 1.25 1.375 0 0 0 49.25 102.875 A 1.25 1.375 0 0 0 50.175781 104.20117 L 50 107 L 51 107 L 50.824219 104.20117 A 1.25 1.375 0 0 0 51.75 102.875 A 1.25 1.375 0 0 0 51.630859 102.29492 C 52.452343 101.84081 53.723257 101.86163 55 102.5 C 54.102872 100.25718 52.589171 101.06291 51.509766 102.06641 A 1.25 1.375 0 0 0 51.208984 101.74414 C 51.986547 100.06604 53.536093 99.32835 54.5 98.75 C 53.03043 97.11715 51.678832 99.629045 50.910156 101.57812 A 1.25 1.375 0 0 0 50.650391 101.51172 C 50.718301 99.229899 51.120702 97 49 97 z M 74 97 C 74.404899 98.82205 75.126466 99.204504 75.257812 101.52734 A 1.25 1.375 0 0 0 75.070312 101.58594 C 74.544078 100.55759 73.665182 99.5 72.25 99.5 C 72.25 100.81328 73.939954 100.57771 74.783203 101.75195 A 1.25 1.375 0 0 0 74.505859 102.04492 C 73.694517 101.39984 72.67102 101.21854 72 103.5 C 72.758568 103.5 73.517073 101.77992 74.384766 102.25586 A 1.25 1.375 0 0 0 74.25 102.875 A 1.25 1.375 0 0 0 75.175781 104.20117 L 75 107 L 76 107 L 75.824219 104.20117 A 1.25 1.375 0 0 0 76.75 102.875 A 1.25 1.375 0 0 0 76.630859 102.29492 C 77.452343 101.84081 78.723257 101.86163 80 102.5 C 79.102872 100.25718 77.589171 101.06291 76.509766 102.06641 A 1.25 1.375 0 0 0 76.208984 101.74414 C 76.986547 100.06604 78.536093 99.32835 79.5 98.75 C 78.03043 97.11715 76.678832 99.629045 75.910156 101.57812 A 1.25 1.375 0 0 0 75.650391 101.51172 C 75.718301 99.229899 76.120702 97 74 97 z M 100 97 C 100.4049 98.82205 101.12647 99.204504 101.25781 101.52734 A 1.25 1.375 0 0 0 101.07031 101.58594 C 100.54408 100.55759 99.665182 99.5 98.25 99.5 C 98.25 100.81328 99.939957 100.57771 100.7832 101.75195 A 1.25 1.375 0 0 0 100.50586 102.04492 C 99.694516 101.39984 98.67102 101.21854 98 103.5 C 98.758568 103.5 99.517068 101.77992 100.38477 102.25586 A 1.25 1.375 0 0 0 100.25 102.875 A 1.25 1.375 0 0 0 101.17578 104.20117 L 101 107 L 102 107 L 101.82422 104.20117 A 1.25 1.375 0 0 0 102.75 102.875 A 1.25 1.375 0 0 0 102.63086 102.29492 C 103.45234 101.84081 104.72326 101.86163 106 102.5 C 105.10287 100.25718 103.58917 101.06291 102.50977 102.06641 A 1.25 1.375 0 0 0 102.20898 101.74414 C 102.98655 100.06604 104.53609 99.32835 105.5 98.75 C 104.03043 97.11715 102.67883 99.629045 101.91016 101.57812 A 1.25 1.375 0 0 0 101.65039 101.51172 C 101.7183 99.229899 102.1207 97 100 97 z M 126 97 C 126.4049 98.82205 127.12647 99.204504 127.25781 101.52734 A 1.25 1.375 0 0 0 127.07031 101.58594 C 126.54408 100.55759 125.66518 99.5 124.25 99.5 C 124.25 100.81328 125.93995 100.57771 126.7832 101.75195 A 1.25 1.375 0 0 0 126.50586 102.04492 C 125.69452 101.39984 124.67102 101.21854 124 103.5 C 124.75857 103.5 125.51707 101.77992 126.38477 102.25586 A 1.25 1.375 0 0 0 126.25 102.875 A 1.25 1.375 0 0 0 127.17578 104.20117 L 127 107 L 128 107 L 127.82422 104.20117 A 1.25 1.375 0 0 0 128 104.07227 L 128 101.38086 C 127.97336 101.44629 127.93555 101.51375 127.91016 101.57812 A 1.25 1.375 0 0 0 127.65039 101.51172 C 127.7183 99.229899 128.1207 97 126 97 z M 2.4277344 98.228516 C 1.437222 98.332693 0.5783629 99.960452 0 101.38086 L 0 104.07227 A 1.25 1.375 0 0 0 0.75 102.875 A 1.25 1.375 0 0 0 0.63085938 102.29492 C 1.4523434 101.84081 2.723257 101.86163 4 102.5 C 3.102872 100.25718 1.5891706 101.06291 0.50976562 102.06641 A 1.25 1.375 0 0 0 0.20898438 101.74414 C 0.98654738 100.06604 2.536093 99.32835 3.5 98.75 C 3.1326075 98.341787 2.7731155 98.19219 2.4277344 98.228516 z M 2 106 A 1 0.5 0 0 0 1 106.5 A 1 0.5 0 0 0 2 107 A 1 0.5 0 0 0 3 106.5 A 1 0.5 0 0 0 2 106 z M 27 106 A 1 0.5 0 0 0 26 106.5 A 1 0.5 0 0 0 27 107 A 1 0.5 0 0 0 28 106.5 A 1 0.5 0 0 0 27 106 z M 53 106 A 1 0.5 0 0 0 52 106.5 A 1 0.5 0 0 0 53 107 A 1 0.5 0 0 0 54 106.5 A 1 0.5 0 0 0 53 106 z M 78 106 A 1 0.5 0 0 0 77 106.5 A 1 0.5 0 0 0 78 107 A 1 0.5 0 0 0 79 106.5 A 1 0.5 0 0 0 78 106 z M 104 106 A 1 0.5 0 0 0 103 106.5 A 1 0.5 0 0 0 104 107 A 1 0.5 0 0 0 105 106.5 A 1 0.5 0 0 0 104 106 z M 4.25 106.25 A 0.75 0.375 0 0 0 3.5 106.625 A 0.75 0.375 0 0 0 4.25 107 A 0.75 0.375 0 0 0 5 106.625 A 0.75 0.375 0 0 0 4.25 106.25 z M 29.25 106.25 A 0.75 0.375 0 0 0 28.5 106.625 A 0.75 0.375 0 0 0 29.25 107 A 0.75 0.375 0 0 0 30 106.625 A 0.75 0.375 0 0 0 29.25 106.25 z M 55.25 106.25 A 0.75 0.375 0 0 0 54.5 106.625 A 0.75 0.375 0 0 0 55.25 107 A 0.75 0.375 0 0 0 56 106.625 A 0.75 0.375 0 0 0 55.25 106.25 z M 80.25 106.25 A 0.75 0.375 0 0 0 79.5 106.625 A 0.75 0.375 0 0 0 80.25 107 A 0.75 0.375 0 0 0 81 106.625 A 0.75 0.375 0 0 0 80.25 106.25 z M 106.25 106.25 A 0.75 0.375 0 0 0 105.5 106.625 A 0.75 0.375 0 0 0 106.25 107 A 0.75 0.375 0 0 0 107 106.625 A 0.75 0.375 0 0 0 106.25 106.25 z M 10 110 C 10.404899 111.82205 11.126466 112.2045 11.257812 114.52734 A 1.25 1.375 0 0 0 11.070312 114.58594 C 10.544078 113.55759 9.665182 112.5 8.25 112.5 C 8.25 113.81328 9.9399541 113.57771 10.783203 114.75195 A 1.25 1.375 0 0 0 10.505859 115.04492 C 9.6945174 114.39984 8.67102 114.21854 8 116.5 C 8.758568 116.5 9.5170726 114.77992 10.384766 115.25586 A 1.25 1.375 0 0 0 10.25 115.875 A 1.25 1.375 0 0 0 11.175781 117.20117 L 11 120 L 12 120 L 11.824219 117.20117 A 1.25 1.375 0 0 0 12.75 115.875 A 1.25 1.375 0 0 0 12.630859 115.29492 C 13.452343 114.84081 14.723257 114.86163 16 115.5 C 15.102872 113.25718 13.589171 114.06291 12.509766 115.06641 A 1.25 1.375 0 0 0 12.208984 114.74414 C 12.986547 113.06604 14.536093 112.32835 15.5 111.75 C 14.03043 110.11715 12.678832 112.62904 11.910156 114.57812 A 1.25 1.375 0 0 0 11.650391 114.51172 C 11.718301 112.2299 12.120702 110 10 110 z M 36 110 C 36.404899 111.82205 37.126466 112.2045 37.257812 114.52734 A 1.25 1.375 0 0 0 37.070312 114.58594 C 36.544078 113.55759 35.665182 112.5 34.25 112.5 C 34.25 113.81328 35.939954 113.57771 36.783203 114.75195 A 1.25 1.375 0 0 0 36.505859 115.04492 C 35.694517 114.39984 34.67102 114.21854 34 116.5 C 34.758568 116.5 35.517073 114.77992 36.384766 115.25586 A 1.25 1.375 0 0 0 36.25 115.875 A 1.25 1.375 0 0 0 37.175781 117.20117 L 37 120 L 38 120 L 37.824219 117.20117 A 1.25 1.375 0 0 0 38.75 115.875 A 1.25 1.375 0 0 0 38.630859 115.29492 C 39.452343 114.84081 40.723257 114.86163 42 115.5 C 41.102872 113.25718 39.589171 114.06291 38.509766 115.06641 A 1.25 1.375 0 0 0 38.208984 114.74414 C 38.986547 113.06604 40.536093 112.32835 41.5 111.75 C 40.03043 110.11715 38.678832 112.62904 37.910156 114.57812 A 1.25 1.375 0 0 0 37.650391 114.51172 C 37.718301 112.2299 38.120702 110 36 110 z M 62 110 C 62.404899 111.82205 63.126466 112.2045 63.257812 114.52734 A 1.25 1.375 0 0 0 63.070312 114.58594 C 62.544078 113.55759 61.665182 112.5 60.25 112.5 C 60.25 113.81328 61.939954 113.57771 62.783203 114.75195 A 1.25 1.375 0 0 0 62.505859 115.04492 C 61.694517 114.39984 60.67102 114.21854 60 116.5 C 60.758568 116.5 61.517073 114.77992 62.384766 115.25586 A 1.25 1.375 0 0 0 62.25 115.875 A 1.25 1.375 0 0 0 63.175781 117.20117 L 63 120 L 64 120 L 63.824219 117.20117 A 1.25 1.375 0 0 0 64.75 115.875 A 1.25 1.375 0 0 0 64.630859 115.29492 C 65.452343 114.84081 66.723257 114.86163 68 115.5 C 67.102872 113.25718 65.589171 114.06291 64.509766 115.06641 A 1.25 1.375 0 0 0 64.208984 114.74414 C 64.986547 113.06604 66.536093 112.32835 67.5 111.75 C 66.03043 110.11715 64.678832 112.62904 63.910156 114.57812 A 1.25 1.375 0 0 0 63.650391 114.51172 C 63.718301 112.2299 64.120702 110 62 110 z M 87 110 C 87.404899 111.82205 88.126466 112.2045 88.257812 114.52734 A 1.25 1.375 0 0 0 88.070312 114.58594 C 87.544078 113.55759 86.665182 112.5 85.25 112.5 C 85.25 113.81328 86.939954 113.57771 87.783203 114.75195 A 1.25 1.375 0 0 0 87.505859 115.04492 C 86.694517 114.39984 85.67102 114.21854 85 116.5 C 85.758568 116.5 86.517073 114.77992 87.384766 115.25586 A 1.25 1.375 0 0 0 87.25 115.875 A 1.25 1.375 0 0 0 88.175781 117.20117 L 88 120 L 89 120 L 88.824219 117.20117 A 1.25 1.375 0 0 0 89.75 115.875 A 1.25 1.375 0 0 0 89.630859 115.29492 C 90.452343 114.84081 91.723257 114.86163 93 115.5 C 92.102872 113.25718 90.589171 114.06291 89.509766 115.06641 A 1.25 1.375 0 0 0 89.208984 114.74414 C 89.986547 113.06604 91.536093 112.32835 92.5 111.75 C 91.03043 110.11715 89.678832 112.62904 88.910156 114.57812 A 1.25 1.375 0 0 0 88.650391 114.51172 C 88.718301 112.2299 89.120702 110 87 110 z M 113 110 C 113.4049 111.82205 114.12647 112.2045 114.25781 114.52734 A 1.25 1.375 0 0 0 114.07031 114.58594 C 113.54408 113.55759 112.66518 112.5 111.25 112.5 C 111.25 113.81328 112.93995 113.57771 113.7832 114.75195 A 1.25 1.375 0 0 0 113.50586 115.04492 C 112.69452 114.39984 111.67102 114.21854 111 116.5 C 111.75857 116.5 112.51707 114.77992 113.38477 115.25586 A 1.25 1.375 0 0 0 113.25 115.875 A 1.25 1.375 0 0 0 114.17578 117.20117 L 114 120 L 115 120 L 114.82422 117.20117 A 1.25 1.375 0 0 0 115.75 115.875 A 1.25 1.375 0 0 0 115.63086 115.29492 C 116.45234 114.84081 117.72326 114.86163 119 115.5 C 118.10287 113.25718 116.58917 114.06291 115.50977 115.06641 A 1.25 1.375 0 0 0 115.20898 114.74414 C 115.98655 113.06604 117.53609 112.32835 118.5 111.75 C 117.03043 110.11715 115.67883 112.62904 114.91016 114.57812 A 1.25 1.375 0 0 0 114.65039 114.51172 C 114.71829 112.2299 115.1207 110 113 110 z M 14 119 A 1 0.5 0 0 0 13 119.5 A 1 0.5 0 0 0 14 120 A 1 0.5 0 0 0 15 119.5 A 1 0.5 0 0 0 14 119 z M 40 119 A 1 0.5 0 0 0 39 119.5 A 1 0.5 0 0 0 40 120 A 1 0.5 0 0 0 41 119.5 A 1 0.5 0 0 0 40 119 z M 66 119 A 1 0.5 0 0 0 65 119.5 A 1 0.5 0 0 0 66 120 A 1 0.5 0 0 0 67 119.5 A 1 0.5 0 0 0 66 119 z M 91 119 A 1 0.5 0 0 0 90 119.5 A 1 0.5 0 0 0 91 120 A 1 0.5 0 0 0 92 119.5 A 1 0.5 0 0 0 91 119 z M 117 119 A 1 0.5 0 0 0 116 119.5 A 1 0.5 0 0 0 117 120 A 1 0.5 0 0 0 118 119.5 A 1 0.5 0 0 0 117 119 z M 16.25 119.25 A 0.75 0.375 0 0 0 15.5 119.625 A 0.75 0.375 0 0 0 16.25 120 A 0.75 0.375 0 0 0 17 119.625 A 0.75 0.375 0 0 0 16.25 119.25 z M 42.25 119.25 A 0.75 0.375 0 0 0 41.5 119.625 A 0.75 0.375 0 0 0 42.25 120 A 0.75 0.375 0 0 0 43 119.625 A 0.75 0.375 0 0 0 42.25 119.25 z M 68.25 119.25 A 0.75 0.375 0 0 0 67.5 119.625 A 0.75 0.375 0 0 0 68.25 120 A 0.75 0.375 0 0 0 69 119.625 A 0.75 0.375 0 0 0 68.25 119.25 z M 93.25 119.25 A 0.75 0.375 0 0 0 92.5 119.625 A 0.75 0.375 0 0 0 93.25 120 A 0.75 0.375 0 0 0 94 119.625 A 0.75 0.375 0 0 0 93.25 119.25 z M 119.25 119.25 A 0.75 0.375 0 0 0 118.5 119.625 A 0.75 0.375 0 0 0 119.25 120 A 0.75 0.375 0 0 0 120 119.625 A 0.75 0.375 0 0 0 119.25 119.25 z M 23 123 C 23.404899 124.82205 24.126466 125.2045 24.257812 127.52734 A 1.25 1.375 0 0 0 24.070312 127.58594 C 23.544078 126.55759 22.665182 125.5 21.25 125.5 C 21.25 126.81328 22.939954 126.57771 23.783203 127.75195 A 1.25 1.375 0 0 0 23.548828 128 L 25.447266 128 A 1.25 1.375 0 0 0 25.208984 127.74414 C 25.986547 126.06604 27.536093 125.32835 28.5 124.75 C 27.03043 123.11715 25.678832 125.62904 24.910156 127.57812 A 1.25 1.375 0 0 0 24.650391 127.51172 C 24.718301 125.2299 25.120702 123 23 123 z M 49 123 C 49.404899 124.82205 50.126466 125.2045 50.257812 127.52734 A 1.25 1.375 0 0 0 50.070312 127.58594 C 49.544078 126.55759 48.665182 125.5 47.25 125.5 C 47.25 126.81328 48.939954 126.57771 49.783203 127.75195 A 1.25 1.375 0 0 0 49.548828 128 L 51.447266 128 A 1.25 1.375 0 0 0 51.208984 127.74414 C 51.986547 126.06604 53.536093 125.32835 54.5 124.75 C 53.03043 123.11715 51.678832 125.62904 50.910156 127.57812 A 1.25 1.375 0 0 0 50.650391 127.51172 C 50.718301 125.2299 51.120702 123 49 123 z M 74 123 C 74.404899 124.82205 75.126466 125.2045 75.257812 127.52734 A 1.25 1.375 0 0 0 75.070312 127.58594 C 74.544078 126.55759 73.665182 125.5 72.25 125.5 C 72.25 126.81328 73.939954 126.57771 74.783203 127.75195 A 1.25 1.375 0 0 0 74.548828 128 L 76.447266 128 A 1.25 1.375 0 0 0 76.208984 127.74414 C 76.986547 126.06604 78.536093 125.32835 79.5 124.75 C 78.03043 123.11715 76.678832 125.62904 75.910156 127.57812 A 1.25 1.375 0 0 0 75.650391 127.51172 C 75.718301 125.2299 76.120702 123 74 123 z M 100 123 C 100.4049 124.82205 101.12647 125.2045 101.25781 127.52734 A 1.25 1.375 0 0 0 101.07031 127.58594 C 100.54408 126.55759 99.665182 125.5 98.25 125.5 C 98.25 126.81328 99.939957 126.57771 100.7832 127.75195 A 1.25 1.375 0 0 0 100.54883 128 L 102.44727 128 A 1.25 1.375 0 0 0 102.20898 127.74414 C 102.98655 126.06604 104.53609 125.32835 105.5 124.75 C 104.03043 123.11715 102.67883 125.62904 101.91016 127.57812 A 1.25 1.375 0 0 0 101.65039 127.51172 C 101.71829 125.2299 102.1207 123 100 123 z M 126 123 C 126.30367 124.36654 126.78517 124.92278 127.0625 126.0957 C 127.15494 126.48668 127.22498 126.94663 127.25781 127.52734 A 1.25 1.375 0 0 0 127.07031 127.58594 C 126.93876 127.32885 126.78593 127.06993 126.60742 126.82617 C 126.42891 126.58241 126.22534 126.35467 125.99414 126.1582 C 125.53174 125.76526 124.95759 125.5 124.25 125.5 C 124.25 125.82832 124.35574 126.05929 124.52734 126.24023 C 125.04217 126.78306 126.15077 126.87127 126.7832 127.75195 A 1.25 1.375 0 0 0 126.54883 128 L 128 128 L 128 127.38086 C 127.97336 127.44629 127.93555 127.51375 127.91016 127.57812 A 1.25 1.375 0 0 0 127.65039 127.51172 C 127.69283 126.08558 127.86654 124.68001 127.47266 123.82617 C 127.3151 123.48464 127.06528 123.23047 126.68164 123.09961 C 126.48982 123.03418 126.26509 123 126 123 z M 2.4277344 124.22852 C 1.437222 124.33269 0.5783629 125.96045 0 127.38086 L 0 128 L 0.44726562 128 A 1.25 1.375 0 0 0 0.20898438 127.74414 C 0.98654738 126.06604 2.536093 125.32835 3.5 124.75 C 3.1326075 124.34179 2.7731155 124.19219 2.4277344 124.22852 z M 2.3222656 127.06641 C 1.7275619 127.11063 1.1186999 127.5284 0.59570312 128 L 1.9746094 128 C 2.0560321 128.00002 2.1329595 127.99438 2.2167969 128 L 3.7421875 128 C 3.3316971 127.29135 2.8366064 127.02816 2.3222656 127.06641 z M 27.322266 127.06641 C 26.727562 127.11063 26.1187 127.5284 25.595703 128 L 26.974609 128 C 27.056032 128.00002 27.13296 127.99438 27.216797 128 L 28.742188 128 C 28.331697 127.29135 27.836606 127.02816 27.322266 127.06641 z M 53.322266 127.06641 C 52.727562 127.11063 52.1187 127.5284 51.595703 128 L 52.974609 128 C 53.056032 128.00002 53.13296 127.99438 53.216797 128 L 54.742188 128 C 54.331697 127.29135 53.836606 127.02816 53.322266 127.06641 z M 78.322266 127.06641 C 77.727562 127.11063 77.1187 127.5284 76.595703 128 L 77.974609 128 C 78.056032 128.00002 78.13296 127.99438 78.216797 128 L 79.742188 128 C 79.331697 127.29135 78.836606 127.02816 78.322266 127.06641 z M 104.32227 127.06641 C 103.72756 127.11063 103.1187 127.5284 102.5957 128 L 103.97461 128 C 104.05603 128.00002 104.13296 127.99438 104.2168 128 L 105.74219 128 C 105.3317 127.29135 104.83661 127.02816 104.32227 127.06641 z M 22.201172 127.67578 C 22.049349 127.73058 21.900651 127.84837 21.755859 128 L 23.427734 128 C 23.041058 127.71143 22.615322 127.52631 22.201172 127.67578 z M 48.201172 127.67578 C 48.049349 127.73058 47.900651 127.84837 47.755859 128 L 49.427734 128 C 49.041058 127.71143 48.615322 127.52631 48.201172 127.67578 z M 73.201172 127.67578 C 73.049349 127.73058 72.900651 127.84837 72.755859 128 L 74.427734 128 C 74.041058 127.71143 73.615322 127.52631 73.201172 127.67578 z M 99.201172 127.67578 C 99.049349 127.73058 98.900651 127.84837 98.755859 128 L 100.42773 128 C 100.04106 127.71143 99.615322 127.52631 99.201172 127.67578 z M 125.20117 127.67578 C 125.04935 127.73058 124.90065 127.84837 124.75586 128 L 126.42773 128 C 126.24701 127.86513 126.06071 127.74292 125.86719 127.67969 C 125.64665 127.60762 125.42176 127.59617 125.20117 127.67578 z " style="fill:#000000" />
  <rect
     width="128"
     height="128"
     rx="0"
     x="0"
     y="0"
     id="rect8566"
     style="fill:none;fill-opacity:1;stroke:none" />
  <desc
     id="desc265">Created with Snap</desc>
</svg>
