<?xml version="1.0" encoding="UTF-8" standalone="no"?>
<!-- Created with Inkscape (http://www.inkscape.org/) -->

<svg
   xmlns="http://www.w3.org/2000/svg"
   version="1.1"
   width="14"
   height="14"
   viewBox="0 0 14 14">
  <rect
     width="14"
     height="14"
     x="0"
     y="0"
     id="canvas"
     style="fill:none;stroke:none;visibility:hidden" />
  <path
     d="m4.6152 0.039062-0.93555 0.023438c-3.8843 2.2232 3.1334 2.5875-1.1836 5.2246l0.85156-0.00977c4.0494-2.8144-3.0069-3.0204 1.2676-5.2383zm3.4629 0l-0.93555 0.023438c-3.8843 2.2232 3.1334 2.5875-1.1836 5.2246l0.85352-0.0097656c4.0494-2.8144-3.0089-3.0204 1.2656-5.2383zm3.4727 0l-0.93555 0.023438c-3.8843 2.2232 3.1334 2.5875-1.1836 5.2246l0.85352-0.00977c4.0494-2.8144-3.0089-3.0204 1.2656-5.2383zm-9.9414 6.5508c-0.0076064 2.4751 0.0058594 4.9416 0.0058594 7.4102h1.459v-1.7539h7.8535v1.7539h1.459c0.0019-2.5118 0.0041-5.2131 0.0039-7.4102zm1.4629 1.2227h7.8555v3.082h-7.8535v-1.4902h-0.00195zm1.5332 0.64648c-0.49394 2.211e-4 -0.89431 0.40059-0.89453 0.89453 2.211e-4 0.49394 0.40059 0.89431 0.89453 0.89453 0.49394-2.21e-4 0.89431-0.40059 0.89453-0.89453-2.212e-4 -0.49394-0.40059-0.89431-0.89453-0.89453zm2.3828 0.00586c-0.49394 2.206e-4 -0.89431 0.40059-0.89453 0.89453 2.213e-4 0.49394 0.40059 0.89431 0.89453 0.89453 0.49394-2.21e-4 0.89431-0.40059 0.89453-0.89453-2.212e-4 -0.49394-0.40059-0.89431-0.89453-0.89453zm2.4062 0.017578c-0.49394 2.207e-4 -0.89431 0.40059-0.89453 0.89453 2.213e-4 0.49394 0.40059 0.89431 0.89453 0.89453 0.49394-2.21e-4 0.89431-0.40059 0.89453-0.89453-2.21e-4 -0.49394-0.40059-0.89431-0.89453-0.89453z"
     id="bbq" style="fill:#000000" />
</svg>
