<?xml version="1.0" encoding="UTF-8" standalone="no"?>
<svg
   version="1.1"
   viewBox="0 0 14 14"
   id="svg34"
   xmlns="http://www.w3.org/2000/svg"
   xmlns:svg="http://www.w3.org/2000/svg"
   xmlns:rdf="http://www.w3.org/1999/02/22-rdf-syntax-ns#"
   xmlns:cc="http://creativecommons.org/ns#"
   xmlns:dc="http://purl.org/dc/elements/1.1/">
  <path
     id="path6"
     style="fill:#000000"
     d="M 6.84375 0 L 6.84375 0.00390625 L 6.8417969 0.00390625 C 6.5080636 0.0089554653 6.214521 0.24656418 6.1503906 0.58789062 L 5.8476562 2.1933594 C 4.6012267 2.235174 3.5074521 3.13349 3.2675781 4.4101562 L 8.6171875 5.4160156 C 8.840709 4.226424 8.2526179 3.0728707 7.2441406 2.5234375 L 7.4472656 1.4414062 L 14 1.4414062 L 14 0 L 6.84375 0 z M 3.0253906 6.0195312 A 0.85549003 0.85549003 0 0 0 2.1484375 6.7167969 A 0.85549003 0.85549003 0 0 0 2.8300781 7.7148438 A 0.85549003 0.85549003 0 0 0 3.8300781 7.0332031 A 0.85549003 0.85549003 0 0 0 3.1464844 6.0332031 A 0.85549003 0.85549003 0 0 0 3.0253906 6.0195312 z M 8.0019531 6.9179688 A 0.85549003 0.85549003 0 0 0 7.125 7.6152344 A 0.85549003 0.85549003 0 0 0 7.8085938 8.6132812 A 0.85549003 0.85549003 0 0 0 8.8066406 7.9296875 A 0.85549003 0.85549003 0 0 0 8.125 6.9316406 A 0.85549003 0.85549003 0 0 0 8.0019531 6.9179688 z M 5.3847656 6.9628906 A 0.85549003 0.85549003 0 0 0 4.5078125 7.6601562 A 0.85549003 0.85549003 0 0 0 5.1894531 8.6601562 A 0.85549003 0.85549003 0 0 0 6.1894531 7.9765625 A 0.85549003 0.85549003 0 0 0 5.5058594 6.9785156 A 0.85549003 0.85549003 0 0 0 5.3847656 6.9628906 z M 1.9472656 8.4648438 A 0.85549003 0.85549003 0 0 0 1.0703125 9.1621094 A 0.85549003 0.85549003 0 0 0 1.7519531 10.160156 A 0.85549003 0.85549003 0 0 0 2.7519531 9.4765625 A 0.85549003 0.85549003 0 0 0 2.0683594 8.4785156 A 0.85549003 0.85549003 0 0 0 1.9472656 8.4648438 z M 4.9199219 9.5722656 A 0.85549003 0.85549003 0 0 0 4.0429688 10.269531 A 0.85549003 0.85549003 0 0 0 4.7265625 11.267578 A 0.85549003 0.85549003 0 0 0 5.7246094 10.585938 A 0.85549003 0.85549003 0 0 0 5.0429688 9.5859375 A 0.85549003 0.85549003 0 0 0 4.9199219 9.5722656 z M 7.9628906 9.5859375 A 0.85549003 0.85549003 0 0 0 7.0859375 10.28125 A 0.85549003 0.85549003 0 0 0 7.7675781 11.28125 A 0.85549003 0.85549003 0 0 0 8.765625 10.597656 A 0.85549003 0.85549003 0 0 0 8.0839844 9.5996094 A 0.85549003 0.85549003 0 0 0 7.9628906 9.5859375 z M 0.89257812 10.923828 A 0.85549003 0.85549003 0 0 0 0.015625 11.621094 A 0.85549003 0.85549003 0 0 0 0.69726562 12.619141 A 0.85549003 0.85549003 0 0 0 1.6972656 11.9375 A 0.85549003 0.85549003 0 0 0 1.0136719 10.9375 A 0.85549003 0.85549003 0 0 0 0.89257812 10.923828 z M 4.3691406 12.185547 A 0.85549003 0.85549003 0 0 0 3.4921875 12.880859 A 0.85549003 0.85549003 0 0 0 4.1738281 13.880859 A 0.85549003 0.85549003 0 0 0 5.1738281 13.197266 A 0.85549003 0.85549003 0 0 0 4.4902344 12.199219 A 0.85549003 0.85549003 0 0 0 4.3691406 12.185547 z M 8.0253906 12.289062 A 0.85549003 0.85549003 0 0 0 7.1464844 12.986328 A 0.85549003 0.85549003 0 0 0 7.8300781 13.984375 A 0.85549003 0.85549003 0 0 0 8.828125 13.302734 A 0.85549003 0.85549003 0 0 0 8.1464844 12.302734 A 0.85549003 0.85549003 0 0 0 8.0253906 12.289062 z " />
</svg>
