<?xml version="1.0" encoding="UTF-8" standalone="no"?>
<svg
   width="14"
   height="14"
   viewBox="0 0 14 14"
   version="1.1"
   id="svg510"
   xmlns="http://www.w3.org/2000/svg"
   xmlns:svg="http://www.w3.org/2000/svg">
  <defs
     id="defs514" />
  <path
     id="rect2575-4-9-4"
     style="display:inline;fill:#000000;stroke-width:0.5;stroke-linecap:round;stroke-linejoin:round;stroke-dashoffset:1.2"
     d="M 2,0 C 0.892,0 0,0.892 0,2 v 8 c 0,1.108 0.892,2 2,2 H 4 V 11 H 2 C 1.446,11 1,10.554 1,10 V 2 C 1,1.446 1.446,1 2,1 H 4 C 4.554,1 5,1.446 5,2 V 5 H 6 V 2 C 6,0.892 5.108,0 4,0 Z M 3,2 C 2.44108,1.99976 1.98795,2.45114 1.98828,3.00781 1.98794,3.56449 2.44107,4.01586 3,4.01562 3.55893,4.01586 4.01206,3.56449 4.01172,3.00781 4.01205,2.45114 3.55892,1.99976 3,2 Z M 9,2 A 1,1 0 0 0 8,3 1,1 0 0 0 9,4 1,1 0 0 0 10,3 1,1 0 0 0 9,2 Z M 3.66797,4.67969 1.66406,5.34375 V 6.00781 H 2.2793 L 2.332,9.33594 H 1.66403 V 10 H 4.33591 V 9.33594 H 3.66794 Z M 8.375,4.74999 a 0.375,0.375 0 0 0 -0.0215,0.002 0.375,0.375 0 0 0 -0.0371,0.004 0.375,0.375 0 0 0 -0.043,0.0117 0.375,0.375 0 0 0 -0.0566,0.0195 0.375,0.375 0 0 0 -0.0586,0.0312 0.375,0.375 0 0 0 -0.006,0.004 0.375,0.375 0 0 0 -0.0625,0.0605 0.375,0.375 0 0 0 -0.008,0.008 0.375,0.375 0 0 0 -0.0195,0.0254 l -1.48047,1.8496 a 0.375,0.375 0 0 0 -0.008,0.0137 0.375,0.375 0 0 0 -0.0137,0.0215 0.375,0.375 0 0 0 -0.0332,0.0606 0.375,0.375 0 0 0 -0.0117,0.0391 0.375,0.375 0 0 0 -0.0117,0.0566 0.375,0.375 0 0 0 -0.002,0.008 l -0.25,2.625 A 0.375,0.375 0 0 0 6.58932,9.9986 0.375,0.375 0 0 0 6.99753,9.66071 L 7.23776,7.14899 8,6.19531 V 9 14 h 2 V 9.125 9 6.58594 l 0.66406,1.20508 a 0.375,0.375 0 0 0 0.0645,0.0898 0.375,0.375 0 0 0 0.002,0.004 0.375,0.375 0 0 0 0.0664,0.0547 0.375,0.375 0 0 0 0.0273,0.0156 0.375,0.375 0 0 0 0.0547,0.0234 0.375,0.375 0 0 0 0.0332,0.01 0.375,0.375 0 0 0 0.0195,0.006 l 2,0.375 a 0.375,0.375 0 0 0 0.4375,-0.30078 0.375,0.375 0 0 0 -0.30078,-0.4375 L 11.24221,7.28944 9.95705,4.9535 a 0.375,0.375 0 0 0 -0.004,-0.01 0.375,0.375 0 0 0 -0.004,-0.004 A 0.375,0.375 0 0 0 9.625,4.75 Z M 11,9 v 5 h 0.5 V 9.5 h 2 V 14 H 14 V 9 Z" />
</svg>
