<?xml version="1.0" encoding="UTF-8" standalone="no"?>
<svg
   version="1.1"
   width="14"
   height="18"
   viewBox="0 0 14 18"
   id="svg4"
   xmlns="http://www.w3.org/2000/svg"
   xmlns:svg="http://www.w3.org/2000/svg">
  <defs
     id="defs1" />
  <rect
     width="14"
     height="18"
     x="0"
     y="0"
     id="canvas"
     style="visibility:hidden;fill:none;stroke:none" />
  <path
     id="rect268-0-9-9-6"
     style="fill:#555"
     d="m 6.5,0 a 2.5,2.5000014 0 0 0 -2.3339844,1.6113281 0.25,0.25 0 0 0 -0.00195,0.00391 0.25,0.25 0 0 0 -0.015625,0.029297 L 0.28320312,10 H 0 v 1 H 1.359375 4 v 0.375 H 2 V 11.5 h 2 v 0.375 H 2.5 V 12 H 4 v 0.375 H 3 V 12.5 h 1 v 0.375 H 3 V 13 h 1 v 0.375 H 3 V 13.5 h 1 v 0.25 l 0.039063,0.125 H 3 V 14 h 1.0761719 l 0.1152343,0.375 H 3 V 14.5 h 1.2304688 l 0.1152343,0.375 H 3 V 15 H 4.3847656 L 4.5,15.375 H 3.75 V 15.5 h 0.7890625 l 0.1152344,0.375 H 4.25 V 16 H 4.6914062 L 5,17 V 11 10.25 H 8 V 10 H 5 4.4707031 4 3.7792969 L 5.875,4.921875 A 2.5,2.5000014 0 0 0 6.5,5 2.5,2.5000014 0 0 0 7.6464844,4.7226562 L 8.5,5.7382812 V 12 H 7 v 3 h 3 V 12 H 9 V 6.3339844 L 12.078125,10 H 12 11 9.5 v 0.25 H 11 V 11 17 l 0.308594,-1 H 11.75 V 15.875 H 11.345703 L 11.460938,15.5 H 12.25 V 15.375 H 11.5 L 11.615234,15 H 13 V 14.875 H 11.654297 L 11.769531,14.5 H 13 V 14.375 H 11.808594 L 11.923828,14 H 13 V 13.875 H 11.960938 L 12,13.75 V 13.5 h 1 V 13.375 H 12 V 13 h 1 V 12.875 H 12 V 12.5 h 1 V 12.375 H 12 V 12 h 1.5 V 11.875 H 12 V 11.5 h 2 V 11.375 H 12 V 11 h 2 V 10 H 13.613281 A 0.625,0.625 0 0 0 13.478516,9.7226562 L 9,4.390625 V 2.5 A 2.5,2.5000014 0 0 0 9,2.49023 0.5,0.5 0 0 0 9,2.48046 0.5,0.5 0 0 0 8.99805,2.464835 0.5,0.5 0 0 0 8.99219,2.398429 2.5,2.5000014 0 0 0 6.5,0 Z m 0,0.48046875 a 2,2 0 0 1 0.1796875,0.007813 L 6.4355469,1.984375 A 0.5,0.5 0 0 0 6.3476559,2.003906 L 5.4609375,0.77148438 A 2,2 0 0 1 6.5,0.48046875 Z m 0.4257812,0.046875 A 2,2 0 0 1 8.0117188,1.1699219 L 6.7734375,2.0605469 A 0.5,0.5 0 0 0 6.6835938,2.015625 Z M 5.2558594,0.9140625 6.1347656,2.1386719 a 0.5,0.5 0 0 0 -0.064453,0.083984 L 4.5644531,1.9765625 a 2,2 0 0 1 0.6914063,-1.0625 z M 8.1640625,1.3710938 A 2,2 0 0 1 8.5,2.4804688 2,2 0 0 1 8.4960938,2.6191406 L 6.9882812,2.3730469 a 0.5,0.5 0 0 0 -0.044922,-0.125 z M 4.5175781,2.2226562 6,2.4648438 a 0.5,0.5 0 0 0 0,0.015625 0.5,0.5 0 0 0 0.015625,0.125 L 4.7773438,3.4960938 A 2,2 0 0 1 4.5,2.4804688 2,2 0 0 1 4.5175781,2.2226562 Z M 6.9785156,2.625 8.4628906,2.8671875 A 2,2 0 0 1 7.7890625,4.0097656 L 6.9023438,2.7753906 A 0.5,0.5 0 0 0 6.9785156,2.625 Z M 6.1386719,2.8261719 A 0.5,0.5 0 0 0 6.28125,2.9296875 L 6.0371094,4.4257812 A 2,2 0 0 1 4.9179688,3.7050781 Z M 6.7089844,2.9335938 7.5878906,4.1582031 A 2,2 0 0 1 6.5,4.4804688 2,2 0 0 1 6.2832031,4.46875 L 6.5273438,2.9785156 a 0.5,0.5 0 0 0 0.1816406,-0.044922 z m -2.6523438,0.099609 a 2.5,2.5000014 0 0 0 0.71875,1.2773438 L 2.4257812,10 H 0.83398438 Z" />
  <rect
     style="fill:#ffffff"
     id="rect2"
     width="6"
     height="2"
     x="5"
     y="16" />
</svg>
