<?xml version="1.0" encoding="UTF-8" standalone="no"?>
<svg
   id="svg2"
   viewBox="0 0 14 14"
   height="14"
   width="14"
   version="1.1"
   xmlns="http://www.w3.org/2000/svg"
   xmlns:svg="http://www.w3.org/2000/svg"
   xmlns:rdf="http://www.w3.org/1999/02/22-rdf-syntax-ns#"
   xmlns:cc="http://creativecommons.org/ns#"
   xmlns:dc="http://purl.org/dc/elements/1.1/">
  <rect
     style="fill:none;stroke:none;visibility:hidden"
     id="canvas"
     y="0"
     x="0"
     height="14"
     width="14" />
  <path
     id="water"
     style="fill:#000000"
     d="M 4.8574219 0.79296875 C 4.6232951 0.79466594 4.4277344 1.0053627 4.4277344 1.3652344 C 4.4277344 1.6355601 4.4078303 1.6695806 4.2089844 1.7519531 C 3.8485983 1.90123 2.9546081 2.6132181 2.6347656 3.0058594 C 1.7814597 4.0533801 1.3105469 5.3192057 1.3105469 6.5605469 C 1.3105469 7.463519 1.5017814 7.9296875 1.8730469 7.9296875 C 1.9616162 7.9296875 2.331885 7.754905 2.6953125 7.5410156 C 3.6377118 6.986384 5.9318921 5.9375869 6.015625 6.0234375 C 6.756346 8.0520673 7.1017803 9.0691831 7.7695312 11.089844 C 7.5861642 11.009412 7.4261034 10.943607 7.34375 10.916016 C 6.8808554 10.760933 6.7529819 10.791554 5.6269531 11.322266 C 4.7282639 11.745824 4.6646583 11.768778 4.3828125 11.767578 C 4.1058619 11.766356 3.9874076 11.722081 3.1035156 11.294922 C 1.860201 10.694067 1.8172135 10.692722 0.6640625 11.253906 L 0.28320312 11.439453 L 0.27539062 12.384766 C 0.27042627 12.90418 0.26771125 13.331438 0.26953125 13.335938 C 0.27133431 13.340485 0.49377895 13.236134 0.76367188 13.103516 C 1.3934303 12.794068 1.6693552 12.702259 1.9121094 12.724609 C 2.1707011 12.748413 2.3933855 12.833728 3.0429688 13.154297 C 3.7041416 13.480588 3.9032707 13.568272 4.1210938 13.626953 C 4.4692122 13.720735 4.6510007 13.66961 5.5839844 13.220703 C 5.9565347 13.04145 6.3866411 12.852556 6.5410156 12.800781 C 7.0223068 12.639371 7.1928468 12.683096 8.4394531 13.277344 C 9.3274651 13.700653 9.4503109 13.728387 9.8613281 13.597656 C 10.001292 13.553139 10.4314 13.363705 10.818359 13.177734 C 11.558125 12.822204 11.847779 12.714844 12.0625 12.714844 C 12.263221 12.714844 12.613185 12.839543 13.150391 13.103516 C 13.420285 13.236136 13.647597 13.338731 13.654297 13.332031 C 13.670047 13.316304 13.689241 12.863355 13.707031 12.076172 L 13.720703 11.451172 L 13.265625 11.232422 C 12.430131 10.831501 12.162148 10.770112 11.773438 10.886719 C 11.6521 10.923118 11.236569 11.106051 10.849609 11.292969 C 10.06878 11.670139 9.8408133 11.755444 9.5761719 11.777344 C 9.4463058 11.788099 9.3170376 11.769879 9.1035156 11.691406 C 8.2920489 9.4741213 7.7772049 7.9772353 7.0371094 5.6757812 C 7.1180478 5.5448186 9.3193881 5.0170016 10.580078 4.8261719 C 11.24211 4.7259638 11.360532 4.688523 11.476562 4.5410156 C 11.661363 4.306081 11.64799 4.2118813 11.357422 3.7207031 C 10.659518 2.5409597 9.4156641 1.6362194 7.9921875 1.2734375 C 7.4168115 1.1267986 6.3490726 1.0915489 5.7832031 1.2011719 C 5.4891044 1.2581458 5.4715909 1.2525051 5.2871094 1.0292969 C 5.1522768 0.86616345 4.9978979 0.79195044 4.8574219 0.79296875 z " />
</svg>
