<?xml version="1.0" encoding="UTF-8" standalone="no"?>
<svg
   id="svg2"
   viewBox="0 0 14 14"
   height="14"
   width="14"
   version="1.1"
   xmlns="http://www.w3.org/2000/svg"
   xmlns:svg="http://www.w3.org/2000/svg"
   xmlns:rdf="http://www.w3.org/1999/02/22-rdf-syntax-ns#"
   xmlns:cc="http://creativecommons.org/ns#"
   xmlns:dc="http://purl.org/dc/elements/1.1/">
  <rect
     width="14"
     height="14"
     x="0"
     y="0"
     id="canvas"
     style="fill:none;stroke:none;visibility:hidden" />
   <path
   id="path4286"
   style="fill:#000000"
   d="M 9.8052978 0.016479492 A 1.2677165 1.2598426 0 0 0 8.5363769 1.2762451 A 1.2677165 1.2598426 0 0 0 9.8052978 2.5360107 A 1.2677165 1.2598426 0 0 0 11.072388 1.2762451 A 1.2677165 1.2598426 0 0 0 9.8052978 0.016479492 z M 8.873291 2.9278564 C 8.8515036 2.9284521 8.8298946 2.9319985 8.807373 2.9370117 L 5.3320312 3.7097168 C 5.1817684 3.7431648 5.0726948 3.885517 4.9603271 4.0228271 L 4.1894531 5.3521728 C 4.0667825 5.4661096 4.0044834 5.6091966 4.0045166 5.7806396 C 4.0044921 5.9405814 4.0560605 6.0766741 4.1583252 6.1907959 C 4.2605229 6.304881 4.3830579 6.362915 4.5263672 6.362915 C 4.6796142 6.362915 4.8128707 6.2929449 4.9255371 6.1560058 L 5.8209228 4.6563721 L 7.2766113 4.4091797 L 4.2572021 9.0966796 L 1.7962646 8.3917236 C 1.6018065 8.3917236 1.4239002 8.4303801 1.2908935 8.5675048 C 1.1579538 8.7045921 1.0235596 8.8268369 1.0235596 9.0435791 C 1.0235596 9.2491552 1.1085149 9.4263646 1.2414551 9.5690918 C 1.3744283 9.7118182 1.5055219 9.7885744 1.6845703 9.8345947 L 4.3652344 10.523071 C 4.4747447 10.551221 4.7183521 10.527381 4.8101806 10.504761 C 5.0455176 10.459131 5.1135946 10.349904 5.2056885 10.235596 L 6.4746093 8.1445312 L 8.069458 9.8565673 L 7.4267578 13.059082 C 7.4061518 13.127752 7.3956299 13.185567 7.3956299 13.231201 C 7.3956299 13.436777 7.4622414 13.613766 7.5952148 13.762207 C 7.7281889 13.910648 7.8852362 13.983765 8.069458 13.983765 C 8.4171633 13.983765 8.6336967 13.784697 8.7158203 13.38501 L 9.4976806 9.4976806 C 9.5897747 9.0864924 9.5488855 8.7835885 9.375 8.5894775 L 7.9779052 7.0294189 L 9.4976806 5.0610351 L 10.479126 6.1560058 C 10.58149 6.2699425 10.699513 6.328125 10.832519 6.328125 C 11.006371 6.328125 11.174308 6.2428491 11.337891 6.0717773 L 12.93457 4.2901611 C 13.016329 4.1758535 13.057185 4.0499031 13.057251 3.9129639 C 13.057167 3.7418921 13.003534 3.5988046 12.896118 3.4844971 C 12.788769 3.3702265 12.662164 3.314209 12.518921 3.314209 C 12.375611 3.314209 12.263765 3.3584025 12.182007 3.449707 L 10.861816 4.923706 L 9.2669677 3.1420898 C 9.159631 3.0219432 9.0258027 2.923687 8.873291 2.9278564 z " />
</svg>
