<?xml version="1.0" encoding="UTF-8" standalone="no"?>
<svg
   version="1.1"
   viewBox="0 0 14 14"
   id="svg161"
   xmlns="http://www.w3.org/2000/svg"
   xmlns:svg="http://www.w3.org/2000/svg"
   xmlns:rdf="http://www.w3.org/1999/02/22-rdf-syntax-ns#"
   xmlns:cc="http://creativecommons.org/ns#"
   xmlns:dc="http://purl.org/dc/elements/1.1/">
  <rect
     style="fill:none;stroke:none;visibility:hidden"
     id="canvas"
     y="0"
     x="0"
     height="14"
     width="14" />
  <path
     id="path141"
     style="fill:#000000"
     d="M 2.3320312 0.04296875 L 1.3671875 0.0703125 C -2.6306085 2.6704099 4.5934862 3.0954906 0.15039062 6.1796875 L 1.0273438 6.1679688 C 5.1949396 2.876472 -2.0672644 2.6368662 2.3320312 0.04296875 z M 5.3652344 0.04296875 L 4.4023438 0.0703125 C 0.40454775 2.6704099 7.6266893 3.0974437 3.1835938 6.1816406 L 4.0625 6.1699219 C 8.2300958 2.8784252 0.96593877 2.6368662 5.3652344 0.04296875 z M 10.208984 0.83203125 A 1.3921 1.3921 0 0 0 8.8164062 2.2246094 A 1.3921 1.3921 0 0 0 10.208984 3.6171875 A 1.3921 1.3921 0 0 0 11.601562 2.2246094 A 1.3921 1.3921 0 0 0 10.208984 0.83203125 z M 11.361328 4.0625 C 11.296169 4.0654438 11.228816 4.0782503 11.164062 4.1015625 C 11.011452 4.1565044 10.892045 4.2612727 10.816406 4.390625 C 10.79533 4.4165352 10.77751 4.4454744 10.761719 4.4765625 L 9.5566406 6.84375 L 7.0761719 7.6914062 C 6.8239664 7.7776756 6.6906515 8.0506781 6.7773438 8.3027344 C 6.864036 8.5547907 7.1364664 8.6878318 7.3886719 8.6015625 L 10.03125 7.6992188 C 10.163881 7.653851 10.264259 7.5557819 10.316406 7.4375 C 10.331322 7.4170445 10.345558 7.394449 10.357422 7.3710938 L 11.105469 5.8964844 L 12.40625 9.5195312 L 9.359375 9.5136719 C 9.1029736 9.5132109 8.8828866 9.6630169 8.7792969 9.8789062 L 6.3574219 12.804688 C 6.114117 13.098657 6.1366793 13.550236 6.4082031 13.818359 C 6.6797269 14.086483 7.0926327 14.065454 7.3359375 13.771484 L 9.7949219 10.800781 L 13.357422 10.808594 C 13.713721 10.809234 13.999772 10.522315 14 10.166016 C 14.000004 10.160141 14.000151 10.154273 14 10.148438 C 14.000238 10.073064 13.987973 9.9971016 13.960938 9.921875 L 12.011719 4.5 C 11.910851 4.2193362 11.643683 4.0497434 11.361328 4.0625 z M 0.83007812 10.095703 L 1.2089844 14 L 3.7539062 14 L 4.2011719 10.095703 L 0.83007812 10.095703 z M 10.591797 12.099609 L 10.591797 12.830078 L 14 12.830078 L 14 12.099609 L 10.591797 12.099609 z " />
</svg>
