<?xml version="1.0" encoding="UTF-8" standalone="no"?>
<svg
   version="1.1"
   width="14"
   height="12"
   viewBox="0 0 14 12"
   id="svg2"
   xmlns="http://www.w3.org/2000/svg"
   xmlns:svg="http://www.w3.org/2000/svg">
  <rect
     width="14"
     height="12"
     x="0"
     y="0"
     id="canvas"
     style="visibility:hidden;fill:none;stroke:none" />
  <path
     id="path4417-6-9"
     style="fill:#000000"
     d="M 1,0 0,2 H 0.46875 L 1.517578,0 Z m 4.00781,0 -1,2 H 4.47656 L 5.52344,0 Z m 4,0 -1,2 H 8.47656 L 9.52344,0 Z m 4,0 -1,2 h 0.46875 L 13.52344,0 Z M 2.5,2 1.5,4 H 1.96875 L 3.01758,2 Z m 7.98242,0 -1,2 H 9.95117 L 11,2 Z M 6,3.75 1.5,6 V 7 L 3,6.33398 V 11 H 4 V 5.88867 L 6,5 8,5.88867 V 11 H 9 V 6.33398 L 10.5,7 V 6 Z M 12,4 V 4.5 5 11 h 1 V 5 h 1 V 4 Z" />
</svg>
