<?xml version="1.0" encoding="UTF-8" standalone="no"?>
<!-- Created with Inkscape (http://www.inkscape.org/) -->

<svg
   version="1.1"
   width="14"
   height="14"
   viewBox="0 0 14 14"
   id="svg2"
   xmlns="http://www.w3.org/2000/svg"
   xmlns:svg="http://www.w3.org/2000/svg">
  <defs
     id="defs1" />
  <rect
     width="14"
     height="14"
     x="0"
     y="0"
     id="canvas"
     style="fill:none;stroke:none;visibility:hidden" />
  <path
     id="path46"
     style="fill:#000000"
     d="M 0.875 5 A 0.625 0.625 0 0 0 0.25 5.625 A 0.625 0.625 0 0 0 0.875 6.25 L 13.125 6.25 A 0.625 0.625 0 0 0 13.75 5.625 A 0.625 0.625 0 0 0 13.125 5 L 0.875 5 z M 2 7 L 2 10 L 3.5 10 L 3.5 7 L 2 7 z M 10.5 7 L 10.5 10 L 12 10 L 12 7 L 10.5 7 z " />
</svg>
