<?xml version="1.0" encoding="UTF-8" standalone="no"?>
<!-- Created with Inkscape (http://www.inkscape.org/) -->

<svg
   version="1.1"
   width="14"
   height="14"
   viewBox="0 0 14 14"
   id="svg2"
   xmlns="http://www.w3.org/2000/svg"
   xmlns:svg="http://www.w3.org/2000/svg">
  <defs
     id="defs1" />
  <rect
     width="14"
     height="14"
     x="0"
     y="0"
     id="canvas"
     style="fill:none;stroke:none;visibility:hidden" />
  <path
     id="path4"
     style="fill:#000000"
     d="M 1.25,3 V 3.25 H 2.5 V 4 H 1.25 V 4.25 H 2.5 V 5 H 1.25 V 5.25 H 2.5 V 5.5 H 3 V 5.25 h 8 V 5.5 h 0.5 V 5.25 h 1.25 V 5 H 11.5 V 4.25 h 1.25 V 4 H 11.5 V 3.25 h 1.25 V 3 Z M 3,3.25 h 8 V 4 H 3 Z m 0,1 h 8 V 5 H 3 Z M 1.125,6 C 0.64175084,6 0.25,6.3917508 0.25,6.875 0.25,7.3582492 0.64175084,7.75 1.125,7.75 H 2 V 11 H 3.5 V 7.75 h 7 V 11 H 12 V 7.75 h 0.875 C 13.358249,7.75 13.75,7.3582492 13.75,6.875 13.75,6.3917508 13.358249,6 12.875,6 Z" />
</svg>
