<?xml version="1.0" encoding="UTF-8" standalone="no"?>
<!-- Created with Inkscape (http://www.inkscape.org/) -->

<svg
   version="1.1"
   width="14"
   height="14"
   viewBox="0 0 14 14"
   id="svg2"
   xmlns="http://www.w3.org/2000/svg"
   xmlns:svg="http://www.w3.org/2000/svg">
  <defs
     id="defs1" />
  <rect
     width="14"
     height="14"
     x="0"
     y="0"
     id="canvas"
     style="fill:none;stroke:none;visibility:hidden" />
  <path
     id="path2-3-2-61"
     style="fill:#000000"
     d="M 2 3.75 L 2 4.5 L 3 4.5 L 3 3.75 L 2 3.75 z M 11 3.75 L 11 4.5 L 12 4.5 L 12 3.75 L 11 3.75 z M 1 5 A 0.75 0.75 0 0 0 1 6.5 L 13 6.5 A 0.75 0.75 0 0 0 13 5 L 1 5 z M 2 7 L 2 10 L 3.5 10 L 3.5 7 L 2 7 z M 10.5 7 L 10.5 10 L 12 10 L 12 7 L 10.5 7 z " />
</svg>
