<?xml version="1.0" encoding="UTF-8" standalone="no"?>
<!-- Created with Inkscape (http://www.inkscape.org/) -->

<svg
   version="1.1"
   width="14"
   height="14"
   viewBox="0 0 14 14"
   id="svg2"
   xmlns="http://www.w3.org/2000/svg"
   xmlns:svg="http://www.w3.org/2000/svg">
  <defs
     id="defs1" />
  <rect
     width="14"
     height="14"
     x="0"
     y="0"
     id="canvas"
     style="fill:none;stroke:none;visibility:hidden" />
  <path
     id="path2-3"
     style="fill:#000000"
     d="M 1.25 3 L 1.25 3.25 L 2.5 3.25 L 2.5 4 L 1.25 4 L 1.25 4.25 L 2.5 4.25 L 2.5 5 L 1.25 5 L 1.25 5.25 L 2.5 5.25 L 2.5 5.5 L 3 5.5 L 3 5.25 L 11 5.25 L 11 5.5 L 11.5 5.5 L 11.5 5.25 L 12.75 5.25 L 12.75 5 L 11.5 5 L 11.5 4.25 L 12.75 4.25 L 12.75 4 L 11.5 4 L 11.5 3.25 L 12.75 3.25 L 12.75 3 L 1.25 3 z M 3 3.25 L 11 3.25 L 11 4 L 3 4 L 3 3.25 z M 3 4.25 L 11 4.25 L 11 5 L 3 5 L 3 4.25 z M 1 6 A 0.75 0.75 0 0 0 1 7.5 L 13 7.5 A 0.75 0.75 0 0 0 13 6 L 1 6 z M 2 8 L 2 11 L 3.5 11 L 3.5 8 L 2 8 z M 10.5 8 L 10.5 11 L 12 11 L 12 8 L 10.5 8 z " />
</svg>
