<?xml version="1.0" encoding="UTF-8" standalone="no"?>
<!-- Created with Inkscape (http://www.inkscape.org/) -->

<svg
   version="1.1"
   width="14"
   height="14"
   viewBox="0 0 14 14"
   id="svg2"
   xmlns="http://www.w3.org/2000/svg"
   xmlns:svg="http://www.w3.org/2000/svg">
  <defs
     id="defs1" />
  <rect
     width="14"
     height="14"
     x="0"
     y="0"
     id="canvas"
     style="fill:none;stroke:none;visibility:hidden" />
  <path
     id="path4"
     style="fill:#000000"
     d="M 1.25,3 V 3.25 H 2.5 V 4 H 1.25 V 4.25 H 2.5 V 5 H 1.25 V 5.25 H 2.5 V 5.5 H 3 V 5.25 h 8 V 5.5 h 0.5 V 5.25 h 1.25 V 5 H 11.5 V 4.25 h 1.25 V 4 H 11.5 V 3.25 h 1.25 V 3 Z M 3,3.25 h 8 V 4 H 3 Z m 0,1 h 8 V 5 H 3 Z M 0.875,6 A 0.625,0.625 0 0 0 0.25,6.625 0.625,0.625 0 0 0 0.875,7.25 h 12.25 A 0.625,0.625 0 0 0 13.75,6.625 0.625,0.625 0 0 0 13.125,6 Z M 2,8 v 3 H 3.5 V 8 Z m 8.5,0 v 3 H 12 V 8 Z" />
</svg>
