<?xml version="1.0" encoding="UTF-8" standalone="no"?>
<!-- Created with Inkscape (http://www.inkscape.org/) -->

<svg
   version="1.1"
   width="14"
   height="14"
   viewBox="0 0 14 14"
   id="svg1"
   xmlns="http://www.w3.org/2000/svg"
   xmlns:svg="http://www.w3.org/2000/svg">
  <defs
     id="defs1" />
  <rect
     width="14"
     height="14"
     x="0"
     y="0"
     id="canvas"
     style="fill:none;stroke:none;visibility:hidden" />
  <path
     id="path117-3"
     style="fill:#000000"
     d="m 8.862305,0.9960935 h -2 c 0.1179,0.127885 0.24215,0.255354 0.29883,0.353518 l 2,3.464843 -1.73242,1 3.55859,0.181639 1.63672,-3.181639 -1.73047,1 -1.375,-2.380859 c -0.15293,-0.264883 -0.26187,-0.41024 -0.53125,-0.437502 z m -3.5293,0.181641 c -0.15989,0.06833 -0.25508,0.128047 -0.39839,0.259771 -0.0724,0.06655 -0.13701,0.175803 -0.1621,0.21876 l -0.16797,0.269532 -0.87481,1.515618 1.00781,0.304688 0.72461,0.695312 0.875,-1.515624 c 0.24542,-0.418871 0.65877,-0.581144 1.04101,-0.554688 l -0.50781,-0.871094 c -0.15401,-0.233253 -0.26196,-0.294984 -0.47851,-0.419922 -0.0641,-0.03698 -0.27764,-0.086784 -0.40454,-0.083994 -0.26645,0.0059 -0.50425,0.117508 -0.6543,0.181637 z m -1.30078,3.736328 -3.53515,0.125 1.73242,1 -1.125,1.947265 c -0.15293,0.264883 -0.21264,0.42886 -0.10157,0.675782 l 1.07422,1.8242185 c 0.0518,-0.166044 0.0781,-0.317851 0.13477,-0.416015 l 1.75,-3.0312505 1.73242,1 z m 8.17383,1.173828 -0.67969,0.824219 -1.05273,0.175781 0.82031,1.419922 c 0.23105,0.417826 0.16297,0.851587 -0.0488,1.166015 l 1.00781,-0.0039 c 0.27901,-0.01675 0.38701,-0.08008 0.60352,-0.205078 0.18905,-0.109148 0.36766,-0.624051 0.43164,-0.90625 0,-0.007 0.0158,-0.06439 0.0215,-0.105516 0.0322,-0.230411 -0.018,-0.455983 -0.14454,-0.677734 l -0.14648,-0.28125 z m -3.46875,1.908203 -2.25,3.0000005 2.25,3 v -2 h 2.25 c 0.30586,0 0.47842,-0.03034 0.63672,-0.25 l 1.04297,-1.8417975 c -0.1697,0.03816 -0.31634,0.0918 -0.42969,0.0918 h -3.5 z m -5.75,1.375 -0.5,0.8750005 c -0.125,0.25 -0.125,0.375 -0.125,0.625 0,0.234375 0.41087,0.692836 0.61328,0.867188 0.0358,0.03146 0.0984,0.08079 0.18163,0.125 0.0483,0.03214 0.10564,0.04434 0.1582,0.06641 0.0411,0.01337 0.0833,0.02479 0.12696,0.0332 0.0361,0.0069 0.16844,0.03093 0.54493,0.0332 h 1.75 l -0.375,-1 0.375,-1.0000005 h -1.75 c -0.48546,-0.0031 -0.83179,-0.28074 -1,-0.625 z" />
</svg>
