<?xml version="1.0" encoding="UTF-8" standalone="no"?>
<!-- Created with Inkscape (http://www.inkscape.org/) -->

<svg
   version="1.1"
   width="14"
   height="14"
   viewBox="0 0 14 14"
   id="svg1"
   xmlns="http://www.w3.org/2000/svg"
   xmlns:svg="http://www.w3.org/2000/svg">
  <defs
     id="defs1" />
  <rect
     width="14"
     height="14"
     x="0"
     y="0"
     id="canvas"
     style="fill:none;stroke:none;visibility:hidden" />
  <path
     id="rect5-1-0-6"
     style="fill:#000000"
     d="m 4.50001,0 c -0.2761,0 -0.5,0.2239 -0.5,0.5 V 2 h -2.5 c -0.2761,0 -0.5,0.2239 -0.5,0.5 0,0.2761 0.2239,0.5 0.5,0.5 h 11 c 0.2761,0 0.5,-0.2239 0.5,-0.5 0,-0.2761 -0.2239,-0.5 -0.5,-0.5 h -2.5 V 0.5 c 0,-0.2761 -0.2239,-0.5 -0.5,-0.5 z m 0.5,1 h 4 v 1 h -4 z M 2.04493,3.75 c -0.0256,0 -0.0509,0.0019 -0.0762,0.0059 C 1.69623,3.8001 1.51047,4.057519 1.55467,4.330119 L 1.99803,6.990275 H 1.00001 v 1 H 2.16407 L 2.9297,12.580119 C 2.9416,12.645049 2.9663,12.704825 3,12.757853 V 14 h 1 v -1.009766 h 6 V 14 h 1 v -1.242188 c 0.0337,-0.05303 0.0584,-0.1128 0.0703,-0.177734 l 0.72657,-4.589844 h 1.20314 v -1 h -1.04492 l 0.41992,-2.660156 c 0.004,-0.0286 0.006,-0.05694 0.006,-0.08594 C 12.37727,3.968041 12.15111,3.746 11.87501,3.75 Z M 7.00001,4.875 C 7.44626,4.8761 7.95656,5.068951 8.39454,5.498047 L 8.86524,6.3125 10.03321,5.638672 9.53907,7.478516 10.3379,8.859375 c 0.15508,0.595435 0.0673,1.135134 -0.1582,1.523437 -0.22431,0.386291 -0.64692,0.732147 -1.23828,0.896485 H 8.00001 V 12.625 L 6.65431,11.279297 H 5.0586 C 4.46686,11.115775 4.04347,10.771607 3.82032,10.382812 3.59852,9.996402 3.51065,9.459711 3.66212,8.867188 L 4.13478,8.044922 2.96681,7.371094 4.8086,6.876953 5.60548,5.496094 C 6.04272,5.066932 6.5525,4.8739 7.00001,4.875 Z M 6.64845,6.25 6.45899,6.578125 a 1.0909023,1.0909023 0 0 0 -0.002,0 L 5.92769,7.494141 6.4316,9.371094 5.24215,8.683594 5.0273,9.054688 4.8359,9.388672 5.18751,10 h 0.38281 1.05469 l 1.375,-1.375 V 10 H 8.4297 8.81251 L 9.16603,9.384766 8.97657,9.056641 8.44923,8.142578 6.57032,7.638672 7.75978,6.951172 7.54689,6.582031 7.35548,6.25 Z" />
</svg>
