<?xml version="1.0" encoding="UTF-8" standalone="no"?>
<!-- Created with Inkscape (http://www.inkscape.org/) -->

<svg
   version="1.1"
   width="14"
   height="14"
   viewBox="0 0 14 14"
   id="svg1"
   xmlns="http://www.w3.org/2000/svg"
   xmlns:svg="http://www.w3.org/2000/svg">
  <defs
     id="defs1" />
  <rect
     width="14"
     height="14"
     x="0"
     y="0"
     id="canvas"
     style="fill:none;stroke:none;visibility:hidden" />
  <path
     id="path117-9"
     style="fill:#000000"
     d="M 2,0 C 0.892,0 0,0.892002 0,2 v 10 c 0,1.107998 0.892,2 2,2 h 10 c 1.108,0 2,-0.892002 2,-2 V 2 C 14,0.892002 13.108,0 12,0 Z m 0,1 h 10 c 0.554,0 1,0.446002 1,1 v 10 c 0,0.553998 -0.446,1 -1,1 H 2 C 1.446,13 1,12.553998 1,12 V 2 C 1,1.446002 1.446,1 2,1 Z m 5.32617,0.710938 c -0.2456,0.0029 -0.49835,0.02719 -0.75195,0.05078 10e-4,0.0014 0.003,0.0025 0.004,0.0039 C 6.2032,1.789758 5.6954,1.880967 5.55088,1.939446 5.33523,2.026746 5.16228,2.180855 5.03526,2.402337 l -1,1.732422 0.83789,0.04883 0.46093,0.701172 0.875,-1.515625 C 6.38487,3.064674 7.29713,2.803205 7.66416,3.156245 l 0.68946,1.185547 -1.73243,1 3.44336,0.466797 1.31836,-3.216797 -1.73047,1 -0.6875,-1.189453 C 8.81202,2.137465 8.30074,1.812422 8.03135,1.785151 7.80984,1.725581 7.57188,1.708071 7.32627,1.710931 Z M 4.43555,4.941406 1.125,5.390625 v 0.09375 L 2.72266,6.408203 2.03516,7.597656 C 1.88223,7.86253 1.85767,8.467913 1.96876,8.714844 2.0871,9.158085 2.38133,9.572626 2.67579,9.988281 c 6.4e-4,-0.0021 9.5e-4,-0.0038 0.002,-0.0059 0.20843,0.312776 0.54113,0.706794 0.66407,0.802734 C 3.52523,10.928267 3.74468,11.000737 4,11 H 6 L 5.625,10.25 6,9.5 H 4.25 C 3.89844,9.5 3.21762,8.840087 3.33984,8.345703 l 0.68164,-1.1875 1.73243,1 z m 6.52929,0.923828 -0.46289,0.701172 -0.83593,0.04883 0.875,1.515625 c 0.17627,0.305321 -0.0567,1.229863 -0.54883,1.367188 L 8.625,9.5 v -2 L 6.5,10.25 8.5293,12.875 H 8.625 V 11 H 10 c 0.30585,0 0.84169,-0.28034 1,-0.5 0.32469,-0.324111 0.56032,-0.662641 0.75,-1 C 11.875,9.125 12,8.749997 12,8.125 12,7.875 12.003,7.720745 11.875,7.5 Z" />
</svg>
