<?xml version="1.0" encoding="UTF-8" standalone="no"?>
<svg
   viewBox="0 0 14 14"
   height="14"
   width="14"
   id="svg10"
   version="1.1"
   xmlns="http://www.w3.org/2000/svg"
   xmlns:svg="http://www.w3.org/2000/svg">
  <defs
     id="defs1" />
  <rect
     width="14"
     height="14"
     x="0"
     y="0"
     id="canvas"
     style="visibility:hidden;fill:none;stroke:none" />
  <path
     id="rect5-1-7-5"
     style="fill:#000000"
     d="m 4.50001,0 c -0.2761,0 -0.5,0.2239 -0.5,0.5 V 2 h -2.5 c -0.2761,0 -0.5,0.2239 -0.5,0.5 0,0.2761 0.2239,0.5 0.5,0.5 h 10 c 0.2761,0 0.5,-0.2239 0.5,-0.5 0,-0.2761 -0.2239,-0.5 -0.5,-0.5 h -2.5 V 0.5 c 0,-0.2761 -0.2239,-0.5 -0.5,-0.5 z m 0.5,1 h 3 v 1 h -3 z M 2.04493,3.75 c -0.0256,0 -0.0509,0.0019 -0.0762,0.0059 C 1.69623,3.8001 1.51047,4.057519 1.55467,4.330119 L 1.99803,6.990275 H 1.00001 v 1 H 2.16407 L 2.9297,12.580119 C 2.9416,12.645049 2.9663,12.704825 3,12.757853 V 14 H 4 V 12.990234 H 9 V 14 h 1 v -1.242188 c 0.0337,-0.05303 0.0584,-0.1128 0.0703,-0.177734 l 0.72657,-4.589844 h 1.20314 v -1 h -1.04492 l 0.41992,-2.660156 c 0.004,-0.0286 0.006,-0.05694 0.006,-0.08594 C 11.37727,3.968041 11.15111,3.746 10.87501,3.75 Z m 1.95508,1.240234 h 1 v 7 h -1 z m 2,0 h 1 v 7 h -1 z m 2,0 h 1 v 7 h -1 z" />
</svg>
