<?xml version="1.0" encoding="UTF-8" standalone="no"?>
<svg
   xmlns:dc="http://purl.org/dc/elements/1.1/"
   xmlns:cc="http://creativecommons.org/ns#"
   xmlns:rdf="http://www.w3.org/1999/02/22-rdf-syntax-ns#"
   xmlns:svg="http://www.w3.org/2000/svg"
   xmlns="http://www.w3.org/2000/svg"
   version="1.1"
   id="svg2"
   height="14"
   width="9">
  <defs
     id="defs4" />
  <metadata
     id="metadata7">
    <rdf:RDF>
      <cc:Work
         rdf:about="">
        <dc:format>image/svg+xml</dc:format>
        <dc:type
           rdf:resource="http://purl.org/dc/dcmitype/StillImage" />
        <dc:title></dc:title>
      </cc:Work>
    </rdf:RDF>
  </metadata>
  <g
     id="layer1">
    <rect
       y="0"
       x="0"
       height="14"
       width="9"
       id="rect4144"
       style="stroke:none;fill:none;visibility:hidden" />
    <path
       id="path4459"
       d="m 3,0.69921875 c -0.3,0 -0.5602986,0.0803802 -0.7578125,0.22851563 C 2.0446736,1.0758698 1.9202191,1.2818976 1.84375,1.4921875 1.6908119,1.9127673 1.6992187,2.375 1.6992188,2.75 c 0,0.275 0.032371,0.4871102 0.099609,0.6601562 0.067238,0.1730461 0.186282,0.3469104 0.4082031,0.3789063 C 2.4289524,3.8210584 2.6025888,3.6642654 2.6835938,3.5175781 2.7645987,3.3708908 2.8007812,3.1998535 2.8007812,3 l -0.00977,0.072266 C 2.8413888,2.8707728 2.9485912,2.6744198 3.0625,2.5488281 3.1764088,2.4232364 3.280038,2.3892719 3.3164062,2.3925781 3.3527745,2.3958843 3.4259768,2.412217 3.5234375,2.6542969 3.6208982,2.8963767 3.6992187,3.3352273 3.6992188,4 l 0,0.035156 C 3.4322099,3.8457256 3.047289,3.6992187 2.5,3.6992188 1.925,3.6992188 1.4454763,3.9314359 1.140625,4.3125 0.83577373,4.6935641 0.69921875,5.2 0.69921875,5.75 l 0,0.75 c 0,0.3 0.0750469,0.5531875 0.21679687,0.7421875 C 1.0577656,7.4311875 1.275,7.5507812 1.5,7.5507812 c 0.225,0 0.4422344,-0.1195937 0.5839844,-0.3085937 C 2.2257344,7.0531875 2.3007812,6.8 2.3007812,6.5 l 0,-0.75 c 0,-0.081698 0.014591,-0.1073872 0.021484,-0.1171875 0.00689,-0.0098 0.015878,-0.020161 0.064453,-0.037109 C 2.4838693,5.5618059 2.716508,5.5507813 3,5.5507812 c 0.2292378,0 0.4017839,0.051477 0.5097656,0.1445313 C 3.6177474,5.7883663 3.6992188,5.9350704 3.6992188,6.25 l 0,1.984375 C 3.2599109,8.5159542 2.9496929,8.967602 2.9492188,9.5 c 0,0.852488 0.6982932,1.550781 1.5507812,1.550781 0.852488,0 1.5507812,-0.698293 1.5507812,-1.550781 -4.741e-4,-0.532398 -0.3106921,-0.9840458 -0.75,-1.265625 l 0,-1.984375 c 0,-0.3148745 0.081396,-0.4615953 0.1894532,-0.5546875 C 5.5982914,5.6022203 5.7710029,5.5507812 6,5.5507812 c 0.283492,0 0.5161307,0.011025 0.6132812,0.044922 0.048575,0.016949 0.05756,0.027309 0.064453,0.037109 0.00689,0.0098 0.021484,0.035489 0.021484,0.1171875 l 0,0.75 c 0,0.3 0.075047,0.5531875 0.2167968,0.7421875 0.14175,0.189 0.3589844,0.3085937 0.5839844,0.3085937 0.225,0 0.4422344,-0.1195937 0.5839844,-0.3085937 C 8.2257344,7.0531875 8.3007812,6.8 8.3007812,6.5 l 0,-0.75 C 8.3007812,5.2 8.1642263,4.6935641 7.859375,4.3125 7.5545237,3.9314359 7.075,3.6992188 6.5,3.6992188 c -0.547289,0 -0.9322099,0.1465068 -1.1992188,0.3359374 l 0,-0.035156 c 0,-0.6647727 0.078321,-1.1036233 0.1757813,-1.3457031 0.097461,-0.2420799 0.170663,-0.2584126 0.2070313,-0.2617188 0.036368,-0.00331 0.1399974,0.030658 0.2539062,0.15625 0.1139088,0.1255917 0.2211112,0.3219447 0.2714844,0.5234375 L 6.1992188,3 c 0,0.1793081 0.040666,0.3402852 0.1210937,0.4765625 0.080427,0.1362773 0.2224015,0.2774529 0.4375,0.2714844 C 6.972911,3.7420783 7.1277196,3.5724817 7.1992188,3.4023438 7.2707179,3.2322058 7.3007813,3.025 7.3007812,2.75 7.3007812,2.375 7.3091881,1.9127673 7.15625,1.4921875 7.0797809,1.2818976 6.9553264,1.0758698 6.7578125,0.92773438 6.5602986,0.77959896 6.3,0.69921875 6,0.69921875 c -0.3613564,0 -0.6641642,0.0943985 -0.8925781,0.26171875 C 4.879008,1.1282578 4.7342787,1.3566353 4.6328125,1.5878906 4.5675402,1.7366551 4.5455939,1.8539671 4.5019531,2.0039062 4.4576811,1.8505498 4.4341702,1.7232335 4.3671875,1.5722656 4.2653414,1.3427213 4.1174317,1.1168435 3.8886719,0.953125 3.6599121,0.78940651 3.3598356,0.69921875 3,0.69921875 Z M 3,1.3007812 c 0.2651644,0 0.4221296,0.056939 0.5390625,0.140625 0.1169329,0.083686 0.2045889,0.2066205 0.2792969,0.375 0.060867,0.1371845 0.1172138,0.3517222 0.1640625,0.5292969 C 3.8321775,2.0624945 3.6369223,1.8190881 3.3710938,1.7949219 3.063712,1.7669781 2.8079662,1.9361386 2.6171875,2.1464844 2.4697037,2.3090947 2.3817148,2.5298611 2.3007812,2.75 c 0,-0.375 0.00841,-0.7877673 0.1054688,-1.0546875 C 2.4547809,1.5618524 2.5178264,1.4710052 2.6015625,1.4082031 2.6852986,1.345401 2.8,1.3007812 3,1.3007812 Z m 3,0 c 0.2,0 0.3147014,0.04462 0.3984375,0.1074219 C 6.4821736,1.4710052 6.5452191,1.5618524 6.59375,1.6953125 6.6908119,1.9622327 6.6992188,2.375 6.6992188,2.75 6.6182852,2.5298611 6.5302963,2.3090947 6.3828125,2.1464844 6.1920338,1.9361386 5.936288,1.7669781 5.6289062,1.7949219 5.3639688,1.8190071 5.1697874,2.0621202 5.0195312,2.34375 5.065427,2.1703937 5.121566,1.9650433 5.1816406,1.828125 5.2568538,1.6567041 5.3454553,1.5313375 5.4628906,1.4453125 5.580326,1.3592875 5.7363564,1.3007812 6,1.3007812 Z M 4.1347656,2.8339844 c 0.031693,0.1017492 0.046338,0.1807292 0.087891,0.28125 a 0.30003001,0.30003001 0 0 0 0.5527344,0.00391 C 4.8181258,3.0202794 4.832969,2.9371932 4.8652344,2.8359375 4.7844028,3.1597926 4.6992188,3.4728098 4.6992188,4 l 0,0.75 A 0.30003001,0.30003001 0 0 0 5.2128906,4.9628906 C 5.373246,4.8025353 5.4722123,4.6470805 5.6425781,4.5253906 5.812944,4.4037007 6.05,4.3007813 6.5,4.3007812 c 0.425,0 0.6954763,0.1427829 0.890625,0.3867188 C 7.5857737,4.9314359 7.6992187,5.3 7.6992188,5.75 l 0,0.75 c 0,0.2 -0.049953,0.3218125 -0.095703,0.3828125 -0.04575,0.061 -0.078516,0.066406 -0.1035156,0.066406 -0.025,0 -0.057766,-0.00541 -0.1035156,-0.066406 C 7.3507344,6.8218125 7.3007812,6.7 7.3007812,6.5 l 0,-0.75 c 0,-0.1683016 -0.040797,-0.3301128 -0.1328124,-0.4609375 C 7.075953,5.1582378 6.9410986,5.0748483 6.8105469,5.0292969 6.5494435,4.9381941 6.283492,4.9492188 6,4.9492188 c -0.3200619,0 -0.6476655,0.073561 -0.9023438,0.2929687 C 4.842978,5.4615953 4.6992188,5.8148745 4.6992188,6.25 l 0,2.1054688 A 0.30003001,0.30003001 0 0 0 4.8808594,8.6308594 C 5.22751,8.7821499 5.4488819,9.1217734 5.4492188,9.5 5.4492188,10.028224 5.0282239,10.449219 4.5,10.449219 3.9717761,10.449219 3.5507812,10.028224 3.5507812,9.5 3.5511181,9.1217734 3.77249,8.7821499 4.1191406,8.6308594 A 0.30003001,0.30003001 0 0 0 4.3007812,8.3554688 l 0,-2.1054688 C 4.3007812,5.8149296 4.156994,5.4616337 3.9023438,5.2421875 3.6476935,5.0227413 3.3202342,4.9492188 3,4.9492188 c -0.283492,0 -0.5494435,-0.011025 -0.8105469,0.080078 C 2.0589014,5.0748483 1.924047,5.1582378 1.8320312,5.2890625 1.7400155,5.4198872 1.6992187,5.5816984 1.6992188,5.75 l 0,0.75 c 0,0.2 -0.049953,0.3218125 -0.095703,0.3828125 -0.04575,0.061 -0.078516,0.066406 -0.1035156,0.066406 -0.025,0 -0.057766,-0.00541 -0.1035156,-0.066406 C 1.3507344,6.8218125 1.3007813,6.7 1.3007812,6.5 l 0,-0.75 c 0,-0.45 0.1134451,-0.8185641 0.3085938,-1.0625 C 1.8045237,4.4435641 2.075,4.3007812 2.5,4.3007812 c 0.45,0 0.687056,0.1029195 0.8574219,0.2246094 0.1703658,0.1216899 0.2693321,0.2771447 0.4296875,0.4375 A 0.30003001,0.30003001 0 0 0 4.3007812,4.75 l 0,-0.75 c 0,-0.5280572 -0.084923,-0.841915 -0.1660156,-1.1660156 z M 1.3417969,7.6992188 A 0.30003001,0.30003001 0 0 0 1.0703125,7.8710938 C 0.82736345,8.3797037 0.70060087,8.9363455 0.69921875,9.5 c 0,2.095129 1.70565255,3.800781 3.80078125,3.800781 2.0951287,0 3.8007812,-1.705652 3.8007812,-3.800781 C 8.2993991,8.9363455 8.1726366,8.3797037 7.9296875,7.8710938 A 0.30003001,0.30003001 0 0 0 7.6582031,7.6992188 l -1.1621093,0 A 0.30003001,0.30003001 0 0 0 6.2558594,8.1796875 C 6.5427211,8.5601027 6.6982275,9.0235503 6.6992188,9.5 6.6992188,10.71858 5.7185798,11.699219 4.5,11.699219 3.2814202,11.699219 2.3007812,10.71858 2.3007812,9.5 2.301277,9.0237466 2.4559396,8.5603181 2.7421875,8.1796875 A 0.30003001,0.30003001 0 0 0 2.5019531,7.6992188 l -1.1601562,0 z m 0.2324219,0.6015624 0.5273437,0 C 1.91136,8.6844452 1.6996692,9.0672323 1.6992188,9.5 c 0,1.542844 1.2579373,2.800781 2.8007812,2.800781 1.5428439,0 2.8007812,-1.257937 2.8007812,-2.800781 C 7.2998808,9.0672058 7.0890578,8.6842612 6.8984375,8.3007812 l 0.5273437,0 C 7.5831708,8.6837444 7.6982007,9.0848256 7.6992188,9.5 c 0,1.770865 -1.4283542,3.199219 -3.1992188,3.199219 -1.7708646,0 -3.1992188,-1.428354 -3.1992188,-3.199219 0.00102,-0.4151744 0.116048,-0.8162556 0.2734376,-1.1992188 z"
       style="fill:#ffffff;fill-opacity:1" />
    <path
       id="path4448"
       d="M 3,1 C 2,1 2,2 2,2.75 2,3.75 2.5,3.644177 2.5,3 2.75,2 4,1.25 4,4 L 4,4.75 C 3.75,4.5 3.5,4 2.5,4 1.5,4 1,4.75 1,5.75 L 1,6.5 c 0,1 1,1 1,0 L 2,5.75 c 0,-0.5 0.433016,-0.5 1,-0.5 0.549472,0 1,0.25 1,1 L 4,8.355469 A 1.25,1.25 0 0 0 3.25,9.5 1.25,1.25 0 0 0 4.5,10.75 1.25,1.25 0 0 0 5.75,9.5 1.25,1.25 0 0 0 5,8.355469 L 5,6.25 c 0,-0.75 0.450941,-1 1,-1 0.566984,0 1,0 1,0.5 L 7,6.5 c 0,1 1,1 1,0 L 8,5.75 C 8,4.75 7.5,4 6.5,4 5.5,4 5.25,4.5 5,4.75 L 5,4 C 5,1.25 6.25,2 6.5,3 6.5,3.527748 7,3.75 7,2.75 7,2 7,1 6,1 4.75,1 4.836565,2.22141 4.5,3 4.162433,2.183391 4.25,1 3,1 Z M 1.341797,8 A 3.5,3.5 0 0 0 1,9.5 3.5,3.5 0 0 0 4.5,13 3.5,3.5 0 0 0 8,9.5 3.5,3.5 0 0 0 7.658203,8 L 6.496094,8 A 2.5,2.5 0 0 1 7,9.5 2.5,2.5 0 0 1 4.5,12 2.5,2.5 0 0 1 2,9.5 2.5,2.5 0 0 1 2.501953,8 L 1.341797,8 Z"
       style="fill:#24a6cc;fill-opacity:1" />
  </g>
</svg>
