<?xml version="1.0" encoding="UTF-8" standalone="no"?>
<!-- Created with Inkscape (http://www.inkscape.org/) -->

<svg
   width="15"
   height="15"
   id="svg2"
   version="1.1"
   xmlns="http://www.w3.org/2000/svg"
   xmlns:svg="http://www.w3.org/2000/svg"
   xmlns:rdf="http://www.w3.org/1999/02/22-rdf-syntax-ns#"
   xmlns:cc="http://creativecommons.org/ns#"
   xmlns:dc="http://purl.org/dc/elements/1.1/">
  <defs
     id="defs4" />
  <metadata
     id="metadata7">
    <rdf:RDF>
      <cc:Work
         rdf:about="">
        <dc:format>image/svg+xml</dc:format>
        <dc:type
           rdf:resource="http://purl.org/dc/dcmitype/StillImage" />
      </cc:Work>
    </rdf:RDF>
  </metadata>
  <path
     id="path45265-8-9-8-3"
     style="fill:#000000"
     d="M 7.4999999,0 A 7.5,7.5 0 0 0 0,7.5 7.5,7.5 0 0 0 7.4999999,15 7.5,7.5 0 0 0 14.999999,7.5 7.5,7.5 0 0 0 7.4999999,0 Z m 0,1.25 a 6.25,6.25 0 0 1 6.2499991,6.25 6.25,6.25 0 0 1 -6.2499991,6.25 6.25,6.25 0 0 1 -6.25,-6.25 6.25,6.25 0 0 1 6.25,-6.25 z m 0,3.75 a 2.5,2.5 0 0 0 -2.5,2.5 2.5,2.5 0 0 0 2.5,2.5 A 2.5,2.5 0 0 0 9.999999,7.5 2.5,2.5 0 0 0 7.4999999,5 Z m 0,0.75 a 1.75,1.75 0 0 1 1.75,1.75 1.75,1.75 0 0 1 -1.75,1.75 1.75,1.75 0 0 1 -1.75,-1.75 1.75,1.75 0 0 1 1.75,-1.75 z" />
</svg>
