<?xml version="1.0" encoding="UTF-8" standalone="no"?>
<!-- Created with Inkscape (http://www.inkscape.org/) -->

<svg
   width="25"
   height="25"
   id="svg2"
   version="1.1"
   xmlns="http://www.w3.org/2000/svg"
   xmlns:svg="http://www.w3.org/2000/svg"
   xmlns:rdf="http://www.w3.org/1999/02/22-rdf-syntax-ns#"
   xmlns:cc="http://creativecommons.org/ns#"
   xmlns:dc="http://purl.org/dc/elements/1.1/">
  <defs
     id="defs4" />
  <metadata
     id="metadata7">
    <rdf:RDF>
      <cc:Work
         rdf:about="">
        <dc:format>image/svg+xml</dc:format>
        <dc:type
           rdf:resource="http://purl.org/dc/dcmitype/StillImage" />
      </cc:Work>
    </rdf:RDF>
  </metadata>
  <path
     id="rect22399"
     style="fill:#000000"
     d="M 14.193359 0.1484375 C 13.920678 0.1825275 13.409206 0.38832712 13.068359 0.62695312 C 12.625253 0.96784812 12.522933 1.3416485 12.693359 2.0234375 C 12.829698 2.6370475 12.761844 3.0465293 12.455078 3.2851562 C 12.080143 3.5237813 12.079077 3.660517 12.419922 3.796875 C 12.607279 3.8593362 12.429742 4.2534239 12.398438 4.6074219 C 12.18888 4.8343819 11.931841 5.2675557 11.916016 5.4960938 L 11.751953 7.8710938 C 11.727773 8.2202037 11.893788 8.9869674 12.021484 9.2226562 C 12.176267 9.5083402 12.260836 9.4643006 12.349609 9.4785156 C 12.451329 9.4948056 12.492184 9.5294164 12.521484 9.3789062 C 12.590374 9.0614764 12.353458 8.9330653 12.332031 7.4882812 C 12.299131 7.0110652 12.472655 6.192929 12.443359 5.734375 C 12.493649 5.5689621 12.548366 5.4112992 12.595703 5.2675781 C 12.798209 4.9973717 13.155194 3.849209 13.214844 2.7753906 C 13.3171 1.3436316 13.885714 0.65961513 14.226562 0.45507812 C 14.635582 0.21645112 14.636469 0.1484375 14.193359 0.1484375 z M 10.445312 0.1875 C 10.335705 0.1986485 10.232088 0.29623987 10.1875 0.47460938 C 10.14293 0.68270337 9.9792094 0.77148438 9.7265625 0.77148438 C 9.2658288 0.77148438 9.2210226 1.0542074 9.6074219 1.6933594 C 9.8600849 2.1244144 9.8605966 2.139458 9.5039062 2.421875 C 9.1472241 2.719155 9.1457826 2.7188022 9.3984375 3.2539062 C 9.532191 3.5511854 9.6075043 3.8343134 9.5332031 3.8789062 C 9.4736911 3.9235062 9.3988657 4.2202981 9.3691406 4.5175781 C 9.3245666 4.9932251 9.3703084 5.0974546 9.6972656 5.2460938 C 9.8689306 5.3319333 9.6438213 6.0736043 9.6347656 6.4394531 C 9.4947692 6.647337 9.5180283 7.1971606 9.5800781 7.4238281 C 9.7780721 8.1470991 9.7537481 8.17813 9.96875 8.4375 C 10.491912 8.998107 10.978516 9.0104566 10.978516 8.6367188 C 10.978516 8.5245967 10.787886 8.5761719 10.675781 8.5761719 C 10.232589 8.2624109 10.108658 7.8934739 10.070312 7.4511719 C 10.027723 7.1923979 10.062751 6.6930434 10.119141 6.5996094 C 10.138637 6.5671335 10.131723 6.5330691 10.105469 6.5 C 10.245951 6.2112719 10.485526 5.6409119 10.326172 5.1835938 C 10.073525 4.4849868 9.8956189 3.8305573 9.9550781 3.1914062 C 10.059105 1.9874224 10.290405 1.9607089 10.46875 1.8417969 C 10.676821 1.7080209 10.855214 0.7410705 10.736328 0.4140625 C 10.669448 0.250559 10.554921 0.1763515 10.445312 0.1875 z M 16.900391 0.875 C 16.766412 0.88231465 16.645148 0.92662265 16.599609 1.0175781 C 16.548669 1.1541941 16.315471 1.4075251 16.089844 1.5957031 C 15.846277 1.7694181 15.677474 2.0344215 15.691406 2.1640625 C 15.705346 2.2937035 15.591346 2.6016234 15.4375 2.8476562 C 15.283647 3.0936894 15.176367 3.4656943 15.197266 3.6601562 C 15.218166 3.8546172 14.672119 4.7085675 14.554688 4.8359375 C 14.373632 5.0323132 13.956127 6.090022 13.884766 6.6132812 C 13.633464 7.5029169 13.38723 8.8007812 13.742188 8.8007812 C 13.873519 8.8007812 13.814558 9.0076625 13.626953 9.2890625 C 13.565463 9.3875625 13.610943 9.4546594 13.564453 9.5996094 C 13.524763 9.8071494 14.062466 9.8961013 14.210938 9.6445312 C 14.286027 9.4944513 14.286759 9.1762919 14.230469 8.9511719 C 14.155379 8.7260519 13.969806 7.9147731 14.138672 7.3144531 C 14.268437 6.8544326 14.441264 6.553263 14.523438 6.3222656 C 14.923407 5.7759859 15.382722 4.9840114 15.474609 4.5625 C 15.536989 4.227946 15.883224 3.3396733 16.109375 3.0039062 C 16.510814 2.4689793 17.431529 1.3899282 17.398438 1.0820312 C 17.384281 0.95036443 17.123689 0.86280892 16.900391 0.875 z M 7.2832031 1.171875 C 7.2528459 1.174078 7.2204871 1.1815901 7.1855469 1.1933594 C 6.7808089 1.3461064 7.3981899 3.6340981 7.9023438 4.0332031 C 8.3871074 4.4169551 8.206498 3.8192497 7.8066406 2.5898438 C 7.7008322 2.1296577 7.7385612 1.1388302 7.2832031 1.171875 z M 5.0859375 2.5234375 C 4.9437105 2.5310466 4.8665057 2.6732982 4.8964844 2.90625 C 4.8606694 3.103782 4.9257807 3.190092 4.7851562 3.3125 C 4.451176 3.603218 4.5882323 3.7613683 5.3046875 3.9101562 C 5.7604058 4.0078264 5.8375683 4.0956632 5.7949219 4.4726562 C 5.794268 4.7204062 5.988132 5.0471019 6.0078125 5.1855469 C 6.0410585 5.4194399 6.1715579 5.7860894 6.5761719 6.1445312 C 6.934888 6.4502312 7.0599122 6.1913345 7.5800781 6.7890625 C 8.253231 7.5625905 8.7978526 8.5628194 9.1289062 8.5527344 C 9.5257043 8.5472344 9.531234 8.4805289 8.9667969 8.0449219 C 8.6058062 7.7721019 8.3177031 7.4062841 8.3007812 7.1738281 C 8.1001677 6.4320421 7.6694841 5.9215015 7.3164062 5.8671875 C 6.5369005 5.9159975 6.4294009 4.628972 6.2832031 4.28125 C 5.8613152 2.9883752 5.3574618 2.5089111 5.0859375 2.5234375 z M 20.099609 3.1113281 C 19.096854 3.122841 17.662945 3.559133 17.751953 3.96875 C 17.799423 4.187213 17.759573 4.3961083 17.623047 4.4257812 C 17.513829 4.4495213 17.146804 4.8704659 16.820312 5.3417969 C 16.513865 5.7938675 16.357988 6.2608379 16.378906 6.5761719 C 16.269756 6.7594727 16.151866 7.0359072 15.980469 7.3105469 C 15.677519 7.9478469 15.24212 8.4063106 15.335938 9.0253906 C 15.448503 9.7195006 15.308251 10.026112 14.632812 10.138672 C 14.463864 10.178372 14.923747 10.498646 15.015625 10.554688 C 15.265843 10.593187 15.444452 10.547672 15.710938 10.451172 C 16.040788 10.267575 16.321331 10.183436 16.570312 9.8457031 C 16.872052 9.4861071 16.732131 9.1429156 16.384766 9.3691406 C 16.210383 9.5143116 15.910165 10.496007 15.787109 9.2519531 C 15.766209 9.0407191 15.654996 8.9524537 15.861328 8.7460938 C 16.030186 8.5772537 16.162109 8.3703725 16.162109 8.2578125 C 16.162109 8.1452525 16.329952 7.78767 16.517578 7.46875 C 16.718893 7.1366225 16.851195 6.8437092 16.865234 6.6425781 C 16.938885 6.4637056 17.015887 6.2292679 17.130859 6.0019531 C 17.580841 5.0462151 18.501655 4.5207424 19.648438 4.2714844 C 20.167223 4.1587254 20.748622 3.9458799 20.976562 3.8105469 C 21.301851 3.5968559 21.285575 3.5142925 20.886719 3.2578125 C 20.720526 3.1509463 20.433861 3.1074905 20.099609 3.1113281 z M 20.474609 4.7636719 C 20.188522 4.7633362 19.571766 5.004572 19.494141 5.2109375 C 19.425841 5.3604015 19.301101 5.5001399 19.199219 5.4980469 C 19.109229 5.5125069 19.069591 5.6668935 19.126953 5.8515625 C 19.198773 6.1262355 19.337297 6.0756265 19.914062 5.5859375 C 20.275648 5.2508505 20.621708 4.9289187 20.619141 4.8554688 C 20.629628 4.7914625 20.569972 4.7637838 20.474609 4.7636719 z M 2.40625 5.1816406 C 2.1118756 5.3632556 2.2763386 5.6961936 2.6914062 6.3691406 C 2.9427684 6.8237346 3.2553671 7.2315339 3.2070312 7.4355469 C 3.1063315 7.8605739 3.3316825 8.2725784 3.7226562 8.3652344 C 3.8756462 8.4014944 4.0169631 8.5607676 4.0527344 8.7128906 C 4.0911694 9.0811116 3.5895381 9.1922917 3.3144531 8.9179688 C 3.1028918 8.5984957 1.8578816 8.658631 1.4355469 8.75 C -0.05869844 9.133129 0.45390017 9.5576925 1.0644531 9.2734375 C 2.3550611 8.8744055 4.0065252 9.3677449 4.0722656 9.5449219 C 4.1031216 9.6420119 4.3638207 9.756988 4.6738281 9.8125 C 4.979807 9.88501 5.4478348 10.031478 5.7207031 10.167969 C 5.7234636 10.16635 5.7257734 10.165652 5.7285156 10.164062 C 5.8233418 10.232788 5.9559931 10.309574 6.0410156 10.40625 C 6.3870763 10.799743 6.8387282 11.312894 7.375 11.523438 C 8.5605877 11.950306 7.4518835 10.992606 6.6757812 10.232422 C 6.5530722 10.112231 6.1815949 9.7994325 6.0859375 9.6953125 C 6.0717182 9.6860217 6.0583148 9.6790098 6.0449219 9.671875 C 5.8344872 9.5008669 5.4603004 9.6254772 5.1132812 9.484375 C 4.8873819 9.376973 4.8043232 9.1782234 4.7363281 9.1621094 C 4.6553587 9.1249694 4.6337888 8.995383 4.6660156 8.859375 C 4.6982413 8.723366 4.6066942 8.5751966 4.4707031 8.5429688 C 4.3347129 8.5107386 4.2318127 8.4150831 4.2519531 8.3300781 C 4.2720905 8.2450781 4.1514656 8.0718785 3.9765625 7.9765625 C 3.8016594 7.8812425 3.6978793 7.6420911 3.7421875 7.4550781 C 3.8871945 6.8430391 3.3398995 6.6358702 2.8359375 5.6914062 C 2.618094 5.5500013 2.4272772 5.1686676 2.40625 5.1816406 z M 22.314453 5.2265625 C 22.035671 5.2376574 21.734386 5.4256422 21.457031 5.6992188 C 21.225161 5.9307067 21.402215 6.3427211 21.046875 6.6425781 C 20.691524 6.9424371 20.269361 7.2082587 20.125 7.2304688 C 19.947339 7.2526788 19.847656 7.3321835 19.847656 7.4765625 C 19.847656 7.6986795 19.03637 8.2089844 18.669922 8.2089844 C 18.481146 8.2089844 18.448393 8.1635152 18.503906 7.9414062 C 18.548316 7.7526063 18.515317 7.6310871 18.404297 7.5644531 C 18.248829 7.4867131 18.247641 7.431443 18.380859 7.109375 C 18.558529 6.687353 18.503299 6.2089844 18.28125 6.2089844 C 18.19235 6.2089844 18.082147 6.2984885 18.048828 6.3984375 C 18.004428 6.5094945 17.915625 6.6423484 17.837891 6.7089844 C 17.66022 6.8644664 17.548997 7.520528 17.693359 7.609375 C 17.848816 7.698225 17.726798 8.1752513 17.449219 8.5195312 C 17.160506 8.8971304 17.182463 9.0976564 17.515625 9.0976562 C 17.682189 9.0976562 17.792969 9.0302582 17.792969 8.9414062 C 17.792969 8.8414564 17.993329 8.763173 18.4375 8.71875 C 20.025423 8.552163 20.069816 8.5306684 20.025391 8.1308594 C 20.003141 7.9420604 20.457896 7.6542969 20.791016 7.6542969 C 21.124154 7.6542969 21.278961 7.5536434 21.378906 7.2871094 C 21.467806 7.0427834 21.690297 7.0420478 22.023438 7.3085938 C 22.16779 7.4196507 22.357804 7.4870547 22.435547 7.4648438 C 22.624316 7.3982138 22.601581 7.1319296 22.390625 7.0097656 C 22.246263 6.9320256 22.280142 6.8645792 22.613281 6.6757812 C 22.924198 6.4869822 23.113414 6.1287723 23.035156 5.8164062 C 22.849549 5.3829782 22.593235 5.2154676 22.314453 5.2265625 z M 4.921875 5.4296875 C 4.7737234 5.4296875 4.6738281 5.5792219 4.6738281 5.8261719 C 4.6738281 6.0566589 4.7901852 6.336205 4.921875 6.484375 C 5.0535637 6.616082 5.1679688 6.8618717 5.1679688 7.0429688 C 5.1679688 7.2076028 5.2823728 7.3574219 5.4140625 7.3574219 C 5.5622131 7.3574219 5.6621094 7.2081646 5.6621094 6.9941406 C 5.6621094 6.7801176 5.5457523 6.5332126 5.4140625 6.4179688 C 5.2823728 6.3027257 5.1679687 6.0401959 5.1679688 5.8261719 C 5.1679688 5.5792219 5.0700256 5.4296875 4.921875 5.4296875 z M 6.9453125 8.3300781 C 6.9318848 8.3299248 6.9163568 8.3296958 6.9023438 8.3320312 C 6.5473403 8.4067812 6.5106759 8.48226 6.6601562 8.78125 C 6.7722615 8.968119 7.0338576 9.1367186 7.2207031 9.1367188 C 7.5009664 9.1367188 7.6542969 9.1890266 7.6542969 9.5253906 C 7.6542969 9.8056936 7.7704514 9.9746094 7.9199219 9.9746094 C 8.0507147 9.9746094 8.2188165 10.106364 8.3496094 10.255859 C 8.4804022 10.405354 8.6409572 10.575592 8.734375 10.519531 C 8.827763 10.463471 9.0522794 10.519851 9.2578125 10.613281 C 9.5380758 10.762776 9.6311916 10.743769 9.7246094 10.519531 C 9.8927674 10.10842 9.4643786 10.232422 9.109375 10.232422 C 8.6235787 10.232422 8.0241308 9.6253661 8.0195312 9.2988281 C 7.9717377 9.0262531 7.558195 8.540751 7.3339844 8.578125 C 7.2813975 8.5956469 7.1467281 8.3323775 6.9453125 8.3300781 z M 24.041016 8.3476562 C 23.993146 8.3482962 23.954171 8.3584814 23.933594 8.375 C 23.645984 8.500248 23.834285 8.6832471 23.40625 8.4550781 C 22.910265 8.1892361 22.878361 8.8664995 22.642578 8.9296875 C 22.482048 8.9950175 21.710769 8.9753144 21.474609 9.0683594 C 20.769797 9.3478414 20.655125 8.9354235 20.027344 9.3515625 C 19.710765 9.6211403 19.540577 9.7318562 19.412109 9.765625 C 19.308829 9.7045437 19.166255 9.6861622 19.003906 9.6972656 C 18.81538 9.6544177 18.558764 9.6908951 18.439453 9.7890625 C 18.411478 9.8120817 18.388534 9.8329665 18.369141 9.8515625 C 17.885597 10.033898 17.418602 10.339352 17.314453 10.574219 C 17.241163 10.83981 18.44895 10.246094 18.923828 10.246094 C 18.95087 10.246094 18.9774 10.246004 19.003906 10.246094 C 19.055396 10.250323 19.104207 10.25083 19.148438 10.246094 C 19.332889 10.242182 19.482775 10.220827 19.539062 10.123047 C 19.653277 10.123453 19.786884 10.15737 19.914062 10.222656 C 20.303556 10.426371 21.0141 10.291276 21.451172 9.9316406 C 21.563245 9.8394306 21.7955 9.872293 22.017578 10.007812 C 22.713233 10.427645 23.599668 10.09127 24.273438 9.125 C 24.612478 8.5198858 24.248449 8.3448836 24.041016 8.3476562 z M 10.412109 9.3222656 C 10.355219 9.3242656 10.294961 9.3495844 10.230469 9.3964844 C 10.005319 9.5465644 10.20012 9.722115 10.421875 9.984375 C 10.498065 10.069675 10.538182 10.172386 10.677734 10.128906 C 10.811506 10.087206 10.840868 9.9478094 10.894531 9.8183594 C 10.934831 9.7212594 10.815608 9.6875237 10.759766 9.5898438 C 10.617884 9.3576936 10.537373 9.3183356 10.412109 9.3222656 z M 24.572266 10.546875 C 24.424985 10.542889 24.283678 10.718197 24.306641 10.933594 C 24.348121 11.298603 24.002112 11.594942 23.681641 11.552734 C 23.55183 11.525514 23.433688 11.737186 23.267578 11.863281 C 22.869953 12.028947 22.394856 11.901053 22.070312 11.882812 C 21.873262 11.726884 21.714971 11.723361 21.417969 11.880859 C 21.157632 12.022122 20.915492 12.024612 20.705078 11.933594 C 20.333255 11.910684 20.215641 11.998589 20.115234 12.011719 C 19.936091 11.869965 19.462217 12.047809 19.349609 12.230469 C 19.183178 12.395699 18.951677 12.496931 18.728516 12.5625 C 18.655922 12.564494 18.582695 12.566989 18.505859 12.568359 C 17.486753 12.586559 16.426873 12.689826 15.941406 12.710938 C 15.83856 12.710938 15.650356 12.733587 15.607422 12.804688 C 15.522732 12.944807 15.436685 13.193962 15.533203 13.326172 C 15.870308 13.787702 16.092939 13.571874 16.330078 13.152344 C 16.461411 12.945984 16.589786 13.116747 16.683594 13.248047 C 16.777384 13.360607 17.985798 13.120277 18.210938 13.195312 C 18.630932 13.330296 19.54491 13.334801 19.837891 13.021484 C 20.185499 12.804264 20.651386 12.410268 21.162109 12.855469 C 21.368119 13.018486 21.395636 13.174344 21.648438 13.148438 C 21.885334 13.138937 21.894384 12.921669 22.050781 12.667969 C 22.51796 12.258028 22.978664 12.828283 23.339844 12.826172 C 23.668197 12.831772 23.780424 12.428819 23.962891 12.248047 C 24.210101 12.053303 24.82197 12.845646 24.855469 12.431641 C 24.863669 12.330277 24.996094 12.25 24.996094 12 C 25.026894 11.542517 24.832947 10.908791 24.761719 10.677734 C 24.706884 10.588078 24.639212 10.548687 24.572266 10.546875 z M 4.2753906 10.837891 C 4.0331983 10.832131 3.8057372 10.926163 3.6699219 11.056641 C 3.2764455 11.434577 3.0991819 11.59375 2.1171875 11.59375 C 1.2443138 11.59375 -1.4802974e-16 11.716277 0 12 C 0 12.109123 0.8301849 12.197266 1.8339844 12.197266 C 3.1869522 12.197266 3.4928657 12.189162 4.0429688 11.966797 C 4.3390249 11.767335 5.0500008 11.561987 4.8320312 11.064453 C 4.660423 10.906859 4.4637624 10.842371 4.2753906 10.837891 z M 19.691406 11.050781 C 19.160126 11.063781 17.779299 11.55722 16.589844 11.4375 C 16.004111 11.3786 15.753863 11.088376 15.492188 11.291016 C 15.302702 11.437756 15.433501 11.827372 15.638672 11.951172 C 16.006674 12.173182 16.527755 11.989525 17.568359 11.953125 C 18.831374 11.896825 19.904687 11.325441 19.916016 11.175781 C 19.923016 11.080081 19.840197 11.047151 19.691406 11.050781 z M 9.3867188 11.927734 C 9.3137387 11.937854 9.1791453 12.041791 9.0605469 12.056641 C 8.8114295 12.074441 8.5247347 12.145631 8.4179688 12.216797 C 8.3596967 12.255657 8.2016257 12.377741 7.9492188 12.486328 L 7.890625 12.509766 C 7.6893443 12.591936 7.4784645 12.639603 7.1289062 12.65625 C 6.7379524 12.66535 6.1228787 12.832819 5.609375 12.8125 C 5.1220328 12.79322 4.7286767 12.587168 4.5800781 12.585938 C 4.2965453 12.798612 4.7778267 12.956761 4.9316406 13.117188 C 5.2465394 13.402837 5.7704271 13.389166 6.2871094 13.285156 C 6.6769683 13.161096 7.2713062 13.117186 7.5371094 13.117188 C 7.6251074 13.117188 7.7381635 13.067898 7.8574219 12.998047 C 7.9571289 12.972397 8.3533752 12.769464 8.5253906 12.671875 C 8.7762378 12.504685 8.8281671 12.563177 9.1875 12.435547 C 9.3272417 12.385947 9.4426362 12.267371 9.4414062 12.119141 L 9.4414062 11.988281 C 9.4410944 11.936861 9.4198948 11.923134 9.3867188 11.927734 z M 1.6035156 13.345703 C 1.4947633 13.352088 1.450875 13.408467 1.5136719 13.478516 C 1.6975459 13.689778 1.7535946 13.814661 1.6582031 13.869141 C 1.5508961 13.930421 1.577532 13.978923 1.7597656 14.048828 C 1.9044937 14.108508 2.1006691 14.090788 2.2011719 14.017578 C 2.3016648 13.944368 2.3450917 13.973718 2.4609375 13.955078 C 2.5767443 13.936368 2.8736928 14.317568 3.1191406 14.439453 C 3.4719004 14.57439 3.9543869 14.384723 4.2148438 14.757812 C 4.5229754 15.214383 4.4588777 15.377023 4.0195312 15.216797 C 3.8373321 15.146897 3.6620735 15.199767 3.421875 15.416016 C 3.1629429 15.627142 2.9987624 15.672861 2.7910156 15.585938 C 2.6394455 15.514386 2.1710402 15.595169 1.859375 15.630859 C 1.5408877 15.654619 1.2484413 15.278103 1.1582031 15.203125 C 0.91982341 15.007193 0.64762797 15.1948 0.81445312 15.431641 C 0.89617242 15.57474 0.86055588 15.704088 0.6953125 15.830078 C 0.36488178 16.08212 0.46319953 16.199698 1.1035156 16.324219 C 1.6433639 16.411239 2.5184744 16.437348 2.6582031 16.183594 C 2.6973981 16.113774 3.2138292 15.937649 3.3398438 15.992188 C 3.5595169 16.072308 3.9807416 15.981862 4.7949219 15.580078 C 4.992502 15.483048 5.2640682 15.376382 5.3730469 15.345703 C 5.4677217 15.370622 5.5493739 15.386902 5.6210938 15.398438 C 5.7502427 15.530672 5.9737998 15.647595 6.1386719 15.654297 C 6.2136619 15.657297 6.5482356 15.767668 6.8535156 15.648438 C 7.1392882 15.547397 7.4785278 15.449315 7.5722656 15.453125 C 7.9487263 15.430925 8.9307236 14.851135 9.4589844 14.328125 C 9.6288021 14.167105 9.7853396 14.074249 9.7871094 13.912109 C 9.7286174 13.619439 9.5877005 13.487807 9.4492188 13.466797 C 9.2017011 13.550597 9.1584429 13.754347 9.1523438 13.904297 C 9.1473436 14.035507 8.9151482 14.298276 8.7441406 14.347656 C 8.5536256 14.415056 8.2388369 14.503004 8.0625 14.683594 C 7.6708013 15.080734 6.9597002 15.280418 6.65625 14.892578 C 6.5772216 14.786826 6.4507895 14.741659 6.3105469 14.740234 C 6.1502025 14.655091 5.9001298 14.61312 5.5 14.703125 C 4.9722252 14.737995 4.5063613 14.192152 4.1113281 13.943359 C 3.1986636 13.341828 3.0883691 13.322451 2.7109375 13.384766 C 2.5303862 13.411886 2.30764 13.374464 1.8222656 13.382812 C 1.7596643 13.361761 1.702418 13.349052 1.6542969 13.345703 C 1.6362514 13.344447 1.6190517 13.344791 1.6035156 13.345703 z M 20.324219 13.542969 C 19.995549 13.536338 19.569499 13.771275 20.064453 13.951172 L 20.621094 14.152344 C 21.445254 14.451894 21.739992 14.968381 22.414062 15.050781 C 23.305135 15.19388 23.371295 16.11552 23.960938 16.335938 C 24.450892 16.533299 25.011767 14.856697 24.5625 14.574219 C 24.339393 14.449086 23.967783 14.823785 23.853516 14.818359 C 23.742302 14.845149 23.584494 14.713515 23.490234 14.576172 C 23.292554 14.204845 22.479722 14.144827 22.228516 14.304688 C 22.035235 14.462616 21.451834 13.762512 20.455078 13.560547 C 20.415 13.548888 20.371172 13.543916 20.324219 13.542969 z M 15.800781 13.810547 C 15.584621 13.809909 15.389574 13.821046 15.238281 13.917969 C 15.09414 14.010269 15.036396 14.202017 15.029297 14.373047 C 15.020297 14.587057 15.202462 14.619515 15.478516 14.640625 C 15.659372 14.654425 15.9375 14.591897 15.9375 14.716797 C 15.9375 14.866637 15.964122 15.313991 16.152344 15.056641 C 16.394042 14.726241 16.828454 14.671583 17.220703 14.658203 C 17.297017 14.669764 17.395811 14.682563 17.501953 14.699219 C 17.78844 14.780304 18.092091 14.919691 18.279297 15.103516 C 18.488486 15.325956 18.615682 15.274546 18.824219 15.435547 C 18.829583 15.439855 18.834175 15.444966 18.839844 15.449219 C 18.864834 15.469427 18.890322 15.49235 18.917969 15.519531 C 18.92434 15.519531 18.931084 15.519569 18.9375 15.519531 C 18.946926 15.529628 18.954434 15.538042 18.964844 15.548828 C 18.981733 15.548828 18.997652 15.547695 19.013672 15.546875 C 19.076232 15.575004 19.146187 15.601017 19.228516 15.625 C 20.459369 15.967712 21.527542 16.850368 21.572266 17.275391 C 21.640746 17.802211 21.846513 18.467553 22.271484 18.892578 C 22.674082 19.272864 22.62017 19.826992 23.074219 19.175781 C 23.449244 18.637911 23.233024 18.667731 22.919922 18.130859 C 22.718618 17.750573 22.539063 17.213749 22.539062 16.945312 C 22.539062 16.27422 21.122878 15.934491 20.363281 15.460938 C 20.056242 15.286981 19.68219 15.069706 19.386719 14.945312 C 19.284702 14.848132 19.138877 14.777344 18.955078 14.777344 C 18.643718 14.777344 18.306693 14.461419 18.140625 14.417969 C 18.100916 14.400167 18.068069 14.385019 18.037109 14.371094 C 17.960855 14.106282 17.34227 13.917464 16.619141 13.830078 C 16.482819 13.822078 16.261527 13.8125 16.023438 13.8125 C 15.947585 13.812497 15.872835 13.810759 15.800781 13.810547 z M 14.822266 14.658203 C 14.816218 14.657955 14.810862 14.658805 14.804688 14.660156 C 14.798101 14.661598 14.78991 14.664576 14.783203 14.667969 C 14.488001 14.817309 14.236516 14.988926 14.101562 15.291016 C 13.994727 15.530156 14.183755 15.556024 14.339844 15.683594 C 14.412434 15.742994 14.442564 16.290096 14.423828 16.509766 C 14.356938 17.294656 14.428845 17.524556 14.560547 17.660156 C 14.860738 17.810236 15.056283 17.634254 15 17.052734 C 14.94371 16.583734 14.980816 16.415966 15.130859 16.509766 C 15.243435 16.584866 15.339844 16.809265 15.339844 17.015625 C 15.339844 17.203225 15.431555 17.373047 15.525391 17.373047 C 15.637966 17.373047 15.714844 17.539734 15.714844 17.746094 C 15.846447 18.211874 15.787229 18.937007 16.445312 18.873047 C 16.801786 18.873047 17.184307 18.208192 16.677734 17.476562 C 16.302493 16.913763 15.732712 16.772816 15.882812 16.472656 C 16.089196 16.078696 16.073144 15.634038 15.712891 15.580078 C 15.512397 15.533678 15.023436 15.411949 15.023438 14.980469 C 14.989344 14.83893 14.912982 14.661918 14.822266 14.658203 z M 10.539062 14.908203 C 10.403063 14.912631 10.38827 15.099516 10.371094 15.296875 C 10.376094 15.363775 10.386291 15.426841 10.400391 15.488281 C 10.321901 15.565681 10.240579 15.652724 10.162109 15.746094 C 9.8340628 16.115894 9.4735432 16.410762 9.3496094 16.388672 C 9.2453731 16.363672 8.9763639 16.583513 8.7578125 16.876953 C 8.5392711 17.170393 8.3150978 17.424017 8.2363281 17.435547 C 8.1575381 17.447047 8.0114036 17.689462 7.9335938 17.982422 C 7.931508 17.989427 7.9297288 17.995104 7.9277344 18.001953 C 7.6941927 18.504752 7.3258524 19.499142 7.1992188 19.826172 C 7.0093876 20.279973 6.7643978 20.672328 6.640625 20.691406 C 6.5344629 20.701426 6.3515429 20.997098 6.2402344 21.34375 C 6.128927 21.690402 6.0001363 22.000904 5.9296875 22.037109 C 5.8592365 22.073309 5.6625675 22.286982 5.6835938 22.587891 C 5.7080408 23.198758 6.6129253 23.74638 6.9160156 23.123047 C 7.0373497 22.88257 6.7731981 22.457888 6.8964844 22.394531 C 7.037381 22.322121 7.0678902 21.696903 7.1796875 21.394531 C 7.2914819 21.092159 7.4919495 20.789921 7.6152344 20.726562 C 7.7385192 20.663203 7.8089209 20.537291 7.7636719 20.449219 C 7.7184279 20.361149 7.8217008 20.173889 7.9882812 20.021484 C 8.1993381 19.836482 8.3619569 18.817739 8.3164062 18.193359 C 8.3421112 18.168697 8.3685592 18.143345 8.3964844 18.115234 C 8.5900691 17.926004 8.8660443 17.744789 9.0039062 17.724609 C 9.1614457 17.701509 9.3481212 17.258982 9.5527344 17.007812 C 9.7573476 16.756632 10.127764 16.756498 10.265625 16.736328 C 10.403477 16.716128 10.512455 16.619934 10.498047 16.521484 C 10.483647 16.422984 10.954126 16.440389 11.162109 16.349609 C 11.207699 16.330809 11.243308 16.301072 11.271484 16.263672 C 11.382449 16.199872 11.429276 16.028946 11.335938 15.728516 L 11.269531 15.525391 C 11.250431 15.463891 11.250698 15.428154 11.134766 15.308594 C 10.824466 15.011522 10.644842 14.904759 10.539062 14.908203 z M 16.962891 15.195312 C 16.830386 15.199931 16.696699 15.251054 16.599609 15.339844 C 16.573752 15.363488 16.54424 15.458762 16.525391 15.576172 C 16.497697 15.627841 16.491125 15.69325 16.505859 15.771484 C 16.501209 15.898838 16.51351 16.02273 16.556641 16.09375 C 16.665256 16.272572 16.94263 16.723522 17.007812 16.902344 C 17.116944 17.216016 17.759174 17.312204 18.113281 17.1875 C 18.135479 17.294216 18.078207 17.41917 17.953125 17.583984 C 17.864995 17.695992 18.53051 19.524315 18.6875 19.615234 C 18.73978 19.645544 18.85279 19.571206 18.933594 19.431641 C 19.095203 19.15251 19.72468 19.192226 20.078125 19.466797 C 20.197475 19.582502 20.45728 20.057889 20.644531 20.539062 C 20.831783 21.020225 21.061703 21.386789 21.171875 21.357422 C 21.355155 21.300622 21.701577 21.014809 21.714844 20.857422 C 21.726234 20.722305 21.428836 20.721513 21.291016 20.587891 C 21.129441 20.424445 21.084513 20.143202 21.185547 19.96875 C 21.29666 19.776854 21.176986 19.217503 20.898438 18.613281 C 20.436726 17.600437 20.436323 17.601449 19.773438 17.660156 C 19.210638 17.706936 19.096044 17.662272 19.025391 17.341797 C 18.991401 17.159085 18.80461 16.958161 18.634766 16.929688 C 18.464922 16.901197 18.187031 16.578365 18.011719 16.197266 C 17.810463 15.740209 17.67171 15.554468 17.414062 15.480469 C 17.330977 15.275711 17.14862 15.188841 16.962891 15.195312 z M 13.365234 15.412109 C 13.152958 15.411474 12.843704 15.5275 12.615234 15.53125 C 12.473652 15.52525 12.172767 15.492853 12.126953 15.626953 C 12.033063 15.901913 12.209894 15.929687 12.259766 15.929688 C 12.334856 15.929688 12.373452 16.229498 12.335938 16.585938 C 12.260847 17.167497 12.184666 17.242188 11.734375 17.242188 C 11.406043 17.242188 10.958587 17.433961 10.820312 17.582031 C 10.590126 17.66272 10.316336 17.860015 10.121094 18.046875 C 9.6364985 18.765378 9.3910253 19.710456 9.4589844 20.439453 C 9.5806285 21.311307 9.5406477 21.43321 8.9121094 22.082031 C 8.3444597 22.670024 8.2835887 22.833513 8.4863281 23.21875 C 8.6079722 23.482333 8.0590617 23.849976 8.0996094 24.052734 C 8.1401444 24.275766 8.9537917 24.495813 9.0957031 24.556641 C 9.2781642 24.617461 9.48344 24.530217 9.4023438 24.185547 C 9.3212747 23.84086 9.3255511 23.609285 9.609375 23.345703 C 9.8526521 23.12267 9.9453125 22.751585 9.9453125 22.548828 C 9.9453125 21.879732 9.9975652 21.909945 10.302734 21.658203 C 10.662438 21.361474 10.771206 21.11744 10.746094 20.855469 C 10.664914 20.551334 10.678016 20.43304 10.617188 20.128906 C 10.556387 19.824771 10.491421 19.410637 10.371094 19.041016 C 10.287963 18.843125 10.912365 18.26824 11.150391 17.933594 C 11.167883 17.928634 11.189007 17.914238 11.21875 17.888672 C 11.358889 17.768212 11.490535 17.617188 11.640625 17.617188 C 11.978351 17.617188 11.978351 17.544182 11.640625 18.857422 C 11.578886 19.104359 11.539993 19.320692 11.515625 19.496094 C 11.272662 19.781709 11.338458 20.935288 11.646484 21.267578 C 11.855624 21.525405 12.034673 21.694104 12.091797 21.806641 C 12.285134 22.187524 12.401012 22.631963 12.253906 22.753906 C 11.959898 23.101191 11.76985 23.33796 11.816406 23.515625 C 11.836286 23.71176 11.26416 24.335603 11.089844 24.4375 C 10.654053 24.692243 11.248211 25 12.498047 25 C 13.247949 25 13.540253 24.604025 13.058594 24.330078 C 12.907758 24.272058 12.964352 24.121428 13.138672 24.019531 C 13.356567 23.892159 13.345996 23.724325 13.166016 23.566406 C 12.951503 23.39943 12.975878 23.239091 13.224609 23.064453 C 13.494756 22.913816 13.212366 22.679824 13.304688 22.443359 C 13.407536 22.234509 13.22911 21.351305 12.695312 21.208984 C 12.004812 21.02788 12.365147 20.669431 12.412109 20.349609 C 12.423849 20.022146 12.312008 19.795316 12.330078 19.621094 C 12.338914 19.535888 12.340101 19.464668 12.337891 19.402344 C 12.350311 19.354128 12.36088 19.303 12.367188 19.248047 C 12.463376 18.878917 12.573803 18.478956 12.611328 17.634766 C 12.648818 16.903126 13.333511 16.809054 13.464844 16.677734 C 13.576069 16.566534 13.67197 16.11584 13.640625 15.875 L 13.603516 15.589844 C 13.585819 15.453876 13.4926 15.412491 13.365234 15.412109 z M 5.6660156 16.046875 C 5.4438137 16.046875 5.110134 16.190377 4.9355469 16.380859 C 4.7450889 16.555469 4.5078317 16.73022 4.3808594 16.746094 C 4.253888 16.761964 3.9685415 16.888885 3.7304688 17 C 3.270195 17.222231 3.1110245 17.792969 3.5078125 17.792969 C 3.6347839 17.792969 3.8415307 17.841052 3.984375 17.888672 C 4.1748331 17.952162 4.2382812 17.888495 4.2382812 17.650391 C 4.2382812 17.459908 4.3339646 17.316406 4.4609375 17.316406 C 4.5879098 17.316406 4.9999433 17.03086 5.3808594 16.681641 C 6.0315912 16.078444 6.0469317 16.062749 5.6660156 16.046875 z M 7.5332031 16.398438 C 6.9057124 16.382684 5.9339128 17.67127 5.3144531 18.646484 C 4.9121008 19.002026 3.8261689 19.123901 3.5957031 18.992188 C 3.4803962 18.909868 3.2349199 18.84375 3.0703125 18.84375 C 2.8892142 18.84375 2.6079798 18.728251 2.4433594 18.580078 C 2.1799649 18.316649 2.1475902 18.316649 2.0488281 18.580078 C 1.9007395 18.958757 2.2954932 19.386734 2.7070312 19.271484 C 2.9374972 19.205614 3.1528861 19.305772 3.3339844 19.552734 C 3.580902 19.865555 3.6618334 19.882278 3.9746094 19.701172 C 4.1557077 19.585917 4.353789 19.503343 4.3867188 19.552734 C 4.4197048 19.585664 4.3859264 20.012771 4.2871094 20.490234 C 4.0731085 21.609806 3.9683538 21.761162 4.2949219 21.804688 C 4.4670564 21.785097 4.6835938 21.499177 4.6835938 21.400391 C 4.6835938 21.285136 4.8311813 20.886183 5.078125 20.705078 C 5.3415195 20.507507 5.4779576 20.023758 5.6425781 19.710938 C 5.7906677 19.414582 6.1637836 19.139528 6.2460938 19.007812 C 6.5094892 18.546814 7.6760602 16.503084 7.59375 16.404297 C 7.5742518 16.401022 7.5534448 16.398945 7.5332031 16.398438 z M 13.746094 17.621094 C 13.5529 17.621487 13.362227 18.095006 13.439453 18.455078 C 13.505543 18.680122 13.277416 19.793317 13.484375 20.080078 C 13.550447 20.164414 13.62782 20.215244 13.710938 20.238281 C 13.711524 20.23955 13.712298 20.240929 13.712891 20.242188 C 14.007633 20.797085 14.318834 22.011218 14.353516 22.6875 C 14.405476 24.421554 14.418627 24.651579 14.748047 24.738281 C 14.956111 24.790301 15.697446 24.641984 15.992188 24.3125 C 16.512347 23.705581 16.087 23.536973 15.740234 23.242188 C 15.51483 23.068782 15.514632 22.98229 15.722656 22.6875 C 15.930707 22.392711 15.932244 22.271404 15.689453 21.837891 C 15.516071 21.560442 15.340835 21.333984 15.271484 21.333984 C 15.184774 21.333984 15.132813 21.143396 15.132812 20.917969 C 15.132812 20.692544 15.011691 20.416305 14.873047 20.294922 C 14.734235 20.173534 14.613281 19.825801 14.613281 19.513672 C 14.613281 19.432236 14.605244 19.34211 14.587891 19.25 C 14.588948 19.168957 14.58159 19.084634 14.564453 19 C 14.476963 18.522778 13.950853 17.805541 13.876953 17.703125 C 13.835384 17.645517 13.790677 17.621003 13.746094 17.621094 z M 16.085938 19.234375 C 15.853593 19.250865 15.644261 19.429151 15.5625 19.535156 C 15.414507 19.715786 15.454048 19.910674 15.666016 20.074219 C 15.870071 20.21431 16.106024 20.605278 16.208984 20.910156 C 16.399066 21.473008 16.398354 21.472655 16.599609 20.908203 C 16.769807 20.406541 16.809504 20.444636 17.173828 21.523438 C 17.364218 22.164569 17.727066 22.930036 17.947266 23.195312 C 18.33255 23.639969 18.356897 23.632823 18.613281 23.154297 C 18.79963 22.777817 18.759722 22.503395 18.460938 22.160156 C 18.224891 21.847979 18.120769 21.465946 18.181641 21.027344 C 18.311615 20.251866 17.602898 19.31401 17.173828 19.667969 C 17.033446 19.79378 16.643876 19.46001 16.322266 19.28125 C 16.243843 19.242422 16.163386 19.228878 16.085938 19.234375 z M 19.238281 20.365234 C 19.09759 20.369099 18.934005 20.534139 18.84375 20.832031 C 18.76554 21.070046 18.855776 21.291737 19.111328 21.472656 C 19.336815 21.63229 19.563991 21.95055 19.603516 22.181641 C 19.688816 22.603112 19.728183 22.609284 20.144531 22.339844 C 20.7487 21.932559 20.755297 21.892847 20.345703 21.738281 C 20.163454 21.676961 19.996665 21.468207 19.976562 21.273438 C 19.971463 21.089308 19.868212 20.948438 19.746094 20.929688 C 19.639007 20.921588 19.508662 20.784131 19.462891 20.59375 C 19.419592 20.434743 19.334544 20.36259 19.238281 20.365234 z " />
</svg>
