<?xml version="1.0" encoding="UTF-8" standalone="no"?>
<!-- Created with Inkscape (http://www.inkscape.org/) -->

<svg
   width="15"
   height="15"
   id="svg2"
   version="1.1"
   xmlns="http://www.w3.org/2000/svg"
   xmlns:svg="http://www.w3.org/2000/svg"
   xmlns:rdf="http://www.w3.org/1999/02/22-rdf-syntax-ns#"
   xmlns:cc="http://creativecommons.org/ns#"
   xmlns:dc="http://purl.org/dc/elements/1.1/">
  <defs
     id="defs4" />
  <metadata
     id="metadata7">
    <rdf:RDF>
      <cc:Work
         rdf:about="">
        <dc:format>image/svg+xml</dc:format>
        <dc:type
           rdf:resource="http://purl.org/dc/dcmitype/StillImage" />
      </cc:Work>
    </rdf:RDF>
  </metadata>
  <path
     id="path23548-5"
     style="fill:#000000"
     d="m 6.9703332,1.385003e-4 c -0.0336,6.75e-4 -0.0726,0.0028 -0.11523,0.0078 -0.18572,0.02208 -0.10819,0.223979 -0.10547,0.539063 l 0.0195,2.324219 c 0.006,0.654483 0.12527,1.220443 0.40039,1.537109 0.0671,0.07723 0.24557,0.07097 0.34766,0.06445 0.13209,-0.06939 -0.15335,-1.429114 -0.16406,-1.986328 -0.033,-0.47908 -0.0565,-1.279888 -0.0859,-1.740234 -0.0336,-0.622159 -0.0617,-0.750817 -0.29688,-0.7460939997 z m 2.3125,0.9199219997 c -0.29837,0.01347 -0.25532,0.352752 -0.35351,0.544922 -0.26426,0.885232 -0.56084,2.335937 -0.18555,2.335937 0.13135,0 0.0724,0.206883 -0.11523,0.488281 -0.0615,0.09846 -0.016,0.165594 -0.0625,0.310547 -0.0397,0.207537 0.49799,0.29645 0.64648,0.04492 0.0751,-0.150079 0.0758,-0.468241 0.0195,-0.693359 -0.0751,-0.225119 -0.26068,-1.036402 -0.0918,-1.636719 0.20642,-0.731637 0.5208,-1.064302 0.40821,-1.345703 -0.11132,-0.03749 -0.19678,-0.05193 -0.26563,-0.04883 z m -4.50976,0.43164 c -0.27967,0.0089 -0.26073,0.788668 -0.1836,1.070313 0.19884,0.726098 0.17276,0.757194 0.38868,1.017578 0.5254,0.562798 1.01562,0.57442 1.01562,0.199219 0,-0.11256 -0.19211,-0.06055 -0.30469,-0.06055 -0.4451,-0.314987 -0.56892,-0.684875 -0.60742,-1.128906 -0.0427,-0.259784 -0.007,-0.76167 0.0488,-0.855469 0.0563,-0.09379 -0.0947,-0.204667 -0.35742,-0.242188 z m 6.8300798,0.01172 c -0.19579,0.01677 -0.33391,0.487146 -0.6211,0.947266 -0.30299,0.637297 -0.73836,1.095767 -0.64453,1.714844 0.11258,0.694117 -0.0276,1.000721 -0.7031198,1.113281 -0.16897,0.03968 0.29092,0.359982 0.3828098,0.416016 0.25025,0.03855 0.31146,-0.115507 0.69531,-0.103516 0.71306,0 0.88156,-0.05685 0.99414,-0.394531 0.18765,-0.468998 -0.33615,-1.179886 -0.58008,-0.804688 -0.0938,0.15008 -0.18777,0.15008 -0.33789,0 -0.15011,-0.150079 -0.13214,-0.299499 0.0742,-0.505859 0.16888,-0.16884 0.30078,-0.37572 0.30078,-0.488282 0,-0.11256 0.16782,-0.470144 0.35547,-0.789062 0.37529,-0.619078 0.51554,-1.105469 0.084,-1.105469 z m -8.6796898,0.21875 c -0.0769,0.0038 -0.20212,0.09286 -0.30274,0.230469 -0.19138,0.261746 -0.0414,0.355149 0.4668,0.726562 0.33881,0.247612 0.56342,0.45072 0.58594,0.419922 0.0675,-0.09238 -0.52027,-1.230174 -0.70508,-1.365234 -0.0115,-0.0084 -0.0272,-0.0126 -0.0449,-0.01172 z m 10.4394498,1.296875 c -0.10313,0.01247 -0.24878,0.116288 -0.48242,0.3125 -0.35653,0.300157 -0.75014,0.976563 -0.5625,0.976563 0.0375,0 0.48331,-0.157693 0.83984,-0.382813 0.41282,-0.243878 0.51256,-0.499131 0.4375,-0.667968 -0.0616,-0.158288 -0.12091,-0.238566 -0.21289,-0.238282 -0.006,2e-5 -0.0127,-8.31e-4 -0.0195,0 z M 1.9215132,3.3321705 c -0.007,2.21e-4 -0.0144,7.15e-4 -0.0215,0.002 -0.35653,0.07504 -0.3923,0.151014 -0.24219,0.451172 0.11259,0.1876 0.37485,0.355469 0.5625,0.355469 0.28147,0 0.4336,0.05294 0.4336,0.390625 0,0.281399 0.11551,0.451172 0.26562,0.451172 0.13136,0 0.30225,0.133124 0.4336,0.283203 0.13135,0.15008 0.29289,0.319952 0.38671,0.263672 0.0938,-0.05628 0.31703,-3.9e-5 0.52344,0.09375 0.28147,0.15008 0.37687,0.131359 0.47071,-0.09375 0.16888,-0.412717 -0.26262,-0.287109 -0.61915,-0.287109 -0.48788,0 -1.09109,-0.609689 -1.0957,-0.9375 -0.048,-0.273641 -0.46233,-0.76213 -0.6875,-0.72461 -0.0528,0.01759 -0.18833,-0.245737 -0.39062,-0.248047 -0.007,-7.6e-5 -0.0127,-2.21e-4 -0.0195,0 z m 3.49218,0.990235 c -0.0569,0.0018 -0.11714,0.02732 -0.18164,0.07422 -0.22518,0.15008 -0.0304,0.325628 0.19141,0.587891 0.0762,0.08533 0.11628,0.188005 0.25586,0.144531 0.13379,-0.04168 0.16312,-0.181096 0.21679,-0.310547 0.0403,-0.09709 -0.0789,-0.130839 -0.13476,-0.228515 -0.1419,-0.232155 -0.22238,-0.271507 -0.34766,-0.267578 z m 8.7519598,0.376953 c -0.0289,-8.27e-4 -0.0594,3.59e-4 -0.0898,0.002 -0.62454,0.03162 -1.56684,0.535956 -1.7207,0.882812 -0.0736,0.266631 1.14028,-0.328125 1.61719,-0.328125 0.38153,0 0.72401,0.02248 0.625,-0.335937 -0.0709,-0.148482 -0.22928,-0.214914 -0.43164,-0.220703 z m -6.6660198,0.30078 a 2.5,2.5 0 0 0 -2.5,2.5 2.5,2.5 0 0 0 2.5,2.5000005 2.5,2.5 0 0 0 2.5,-2.5000005 2.5,2.5 0 0 0 -2.5,-2.5 z m -7.01366996,0.345703 c -0.0614,0.0018 -0.0977,0.02731 -0.0977,0.08594 0.21911,0.381086 1.23814996,0.956428 2.05468996,1.080078 1.4547,0.17802 0.20219,-0.458787 -1.32227,-0.97461 -0.24630996,-0.09127 -0.49972996,-0.195466 -0.63475996,-0.191406 z m 7.01366996,0.404297 a 1.75,1.75 0 0 1 1.75,1.75 1.75,1.75 0 0 1 -1.75,1.75 1.75,1.75 0 0 1 -1.75,-1.75 1.75,1.75 0 0 1 1.75,-1.75 z m 7.1933598,0.300781 c -0.53135,0.013 -1.91195,0.506429 -3.10156,0.386719 -0.58581,-0.0589 -0.83594,-0.349124 -1.09766,-0.146484 -0.18951,0.14674 -0.0587,0.536356 0.14648,0.660156 0.36805,0.222018 0.88895,0.03835 1.92969,0.002 1.26318,-0.0563 2.33633,-0.627694 2.34766,-0.777344 0.007,-0.0957 -0.0758,-0.12864 -0.22461,-0.125 z M 4.4078332,6.9278725 c -0.0667,-0.0092 -0.2163,0.112706 -0.3457,0.128906 -0.24915,0.0178 -0.5358,0.089 -0.64258,0.16016 -0.10678,0.0712 -0.54551,0.42144 -1.29297,0.45703 -0.76525,0.0178 -1.76929996,-0.0152 -1.94725996,0.10937 -0.28475,0.2135 -0.18383,0.19833 -0.0293,0.35938 0.31625,0.28677 0.61195,0.0673 1.13085996,-0.0371 0.39152,-0.12454 0.98892,0.0312 1.25586,0.0312 0.26696,0 0.75888,-0.30472 0.99023,-0.46484 0.25088,-0.1672 0.30273,-0.1087 0.66211,-0.23633 0.13976,-0.0496 0.25514,-0.16818 0.25391,-0.31641 v -0.128906 c -2.5e-4,-0.04114 -0.0129,-0.05942 -0.0352,-0.0625 z m 9.0996098,0.640626 c -1.01924,0.0182 -2.07697,0.12147 -2.5625,0.14258 -0.10286,0 -0.293,0.0227 -0.33593,0.0937 -0.0847,0.14012 -0.17075,0.38927 -0.0742,0.52148 0.33715,0.46153 0.5597,0.2457 0.79687,-0.17383 0.13135,-0.20636 0.2597,-0.0356 0.35352,0.0957 0.0938,0.11256 0.54044,0.25894 0.76562,0.33398 0.52541,0.16884 2.65694,-0.13231 2.54492,-0.73828 -0.0431,-0.23294 -0.69554,-0.28953 -1.48828,-0.27539 z m -9.0566398,0.89844 c -0.24755,0.0838 -0.29077,0.28755 -0.29687,0.4375 -0.005,0.13121 -0.23718,0.39398 -0.40821,0.44336 -0.19054,0.0674 -0.50528,0.15534 -0.68164,0.33593 -0.39175,0.3971405 -1.10471,0.5968305 -1.4082,0.20899 -0.23155,-0.30981 -0.85505996,-0.10991 -1.11327996,0.2363305 -0.13886,0.18211 0.31446,0.51396 0.59569996,0.52539 0.075,0.003 0.40953,0.11337 0.71485,-0.006 0.28581,-0.10104 0.62695,-0.19913 0.7207,-0.19532 0.37651,-0.0222 1.35839,-0.6019905 1.88672,-1.1250005 0.16984,-0.16101 0.3244,-0.25387 0.32617,-0.41601 -0.0585,-0.29267 -0.19744,-0.4243 -0.33594,-0.44531 z m 6.3515598,0.34375 c -0.21618,-6.4e-4 -0.41118,0.0105 -0.5625,0.10742 -0.14416,0.0923 -0.20188,0.28405 -0.20898,0.45508 -0.009,0.21401 0.17313,0.24647 0.44922,0.26757 0.18088,0.0138 0.45898,-0.0487 0.45898,0.0762 0,0.14984 0.0266,0.5971905 0.21485,0.3398405 0.24173,-0.3304005 0.67605,-0.3850605 1.06836,-0.3984405 0.36111,0.0547 0.8789,0.27572 0.8789,0.6503905 0.0148,0.20096 0.27514,0.36733 0.86524,0.24024 0.29185,0 0.63476,-0.33898 0.63476,-0.53516 0,-0.2179905 -0.11694,-0.5351505 -0.49218,-0.5351505 -0.31271,0 -0.75705,0.008 -0.92383,-0.0352 -0.058,-0.026 -0.0993,-0.0453 -0.14453,-0.0644 -0.0665,-0.2688 -0.6898,-0.46061 -1.41993,-0.54883 -0.13634,-0.008 -0.35758,-0.0176 -0.5957,-0.0176 -0.0759,0 -0.15059,-0.002 -0.22266,-0.002 z m -0.9765598,0.84961 c -0.0129,-7.3e-4 -0.0276,10e-4 -0.041,0.008 -0.29524,0.14934 -0.54667,0.32096 -0.68164,0.6230505 -0.10685,0.23914 0.0822,0.265 0.23828,0.39257 0.0726,0.0594 0.10272,0.60651 0.084,0.82618 -0.0669,0.78489 0.005,1.01479 0.13672,1.15039 0.30023,0.15008 0.4957398,-0.0259 0.4394498,-0.60743 -0.0563,-0.469 -0.0192,-0.63676 0.13086,-0.54296 0.11259,0.0751 0.20899,0.29949 0.20899,0.50585 0,0.18761 0.0917,0.35743 0.18554,0.35743 0.11259,0 0.18946,0.16668 0.18946,0.37304 0.13162,0.46578 0.0723,1.19092 0.73047,1.12696 0.35652,0 0.73906,-0.66486 0.23242,-1.39649 -0.37529,-0.5628 -0.94504,-0.70374 -0.79492,-1.0039 0.20641,-0.39396 0.19037,-0.83862 -0.16993,-0.89258 -0.20052,-0.0464 -0.68945,-0.16813 -0.68945,-0.5996105 -0.034,-0.14091 -0.1089798,-0.31525 -0.1992198,-0.32031 z m -4.28515,0.24804 c -0.13602,0.004 -0.15079,0.1913205 -0.16797,0.3886805 0.005,0.0669 0.0152,0.12996 0.0293,0.1914 -0.0785,0.0774 -0.15979,0.16444 -0.23828,0.25781 -0.32809,0.3698 -0.68855,0.66467 -0.8125,0.64258 -0.10425,-0.025 -0.37321,0.19484 -0.59179,0.48828 -0.21857,0.29344 -0.44271,0.54707 -0.52149,0.5586 -0.0788,0.0115 -0.22491,0.25391 -0.30273,0.54687 -0.17534,0.5888 -0.0281,0.627 0.46289,0.13281 0.19361,-0.18923 0.46954,-0.37044 0.60742,-0.39062 0.15756,-0.0231 0.34419,-0.46563 0.54883,-0.7168 0.20464,-0.25118 0.57501,-0.25131 0.71289,-0.27148 0.13787,-0.0202 0.24683,-0.1164 0.23242,-0.21485 -0.0144,-0.0985 0.45605,-0.0811 0.66406,-0.17187 0.0456,-0.0188 0.0812,-0.0485 0.10938,-0.0859 0.11098,-0.0638 0.1578,-0.23472 0.0645,-0.53515 l -0.0664,-0.20313 c -0.0191,-0.0615 -0.0188,-0.0972 -0.13476,-0.2168 -0.31034,-0.29707 -0.48991,-0.4038305 -0.5957,-0.4003905 z m 6.4609298,0.3144605 c -0.13307,0.005 -0.26578,0.0573 -0.36328,0.14648 -0.0654,0.0598 -0.15009,0.57634 -0.041,0.75586 0.10909,0.17952 0.38571,0.63298 0.45117,0.8125 0.15273,0.43883 1.34375,0.454 1.34375,0.0352 0,-0.17952 -0.45766,-0.47349 -0.63281,-0.72852 -0.0991,-0.14433 -0.22751,-0.48957 -0.29297,-0.70898 -0.0777,-0.22502 -0.27036,-0.31928 -0.46485,-0.3125 z m -3.6347598,0.18945 c -0.21231,-6.4e-4 -0.5215,0.11734 -0.75,0.12109 -0.1416,-0.006 -0.44246,-0.0403 -0.48828,0.0937 -0.0939,0.27496 0.0829,0.30274 0.13281,0.30274 0.0751,0 0.11369,0.29981 0.0762,0.65625 -0.0751,0.58156 -0.15121,0.65625 -0.60156,0.65625 -0.5254,0 -0.90026,0.45185 -0.5625,0.6582 0.11259,0.075 0.18945,0.0176 0.18945,-0.0762 0,-0.11256 0.12919,-0.20703 0.2793,-0.20703 0.33777,0 0.33777,-0.073 0,1.24023 -0.15011,0.60031 -0.17816,1.03161 -0.14063,1.08789 0.15011,0.15007 0.78542,0.015 0.86719,-0.69726 0.0962,-0.36913 0.20661,-0.76909 0.24414,-1.61328 0.0375,-0.73164 0.72217,-0.82572 0.85352,-0.95704 0.11124,-0.1112 0.20713,-0.56189 0.17578,-0.80273 l -0.0371,-0.28516 c -0.0177,-0.13596 -0.1109,-0.17735 -0.23828,-0.17773 z m 0.40625,2.24609 c -0.19402,3.9e-4 -0.38616,0.47641 -0.3086,0.83789 0.0663,0.22592 -0.13561,0.79806 0.0723,1.08594 0.40834,0.52102 1.23271,0.33018 1.05664,-0.53906 -0.0879,-0.47909 -0.61523,-1.19993 -0.68945,-1.30274 -0.0417,-0.0578 -0.0861,-0.0821 -0.13086,-0.082 z" />
</svg>
