<?xml version="1.0" encoding="UTF-8" standalone="no"?>
<!-- Created with Inkscape (http://www.inkscape.org/) -->

<svg
   width="35"
   height="35"
   id="svg2"
   version="1.1"
   xmlns="http://www.w3.org/2000/svg"
   xmlns:svg="http://www.w3.org/2000/svg"
   xmlns:rdf="http://www.w3.org/1999/02/22-rdf-syntax-ns#"
   xmlns:cc="http://creativecommons.org/ns#"
   xmlns:dc="http://purl.org/dc/elements/1.1/">
  <defs
     id="defs4" />
  <metadata
     id="metadata7">
    <rdf:RDF>
      <cc:Work
         rdf:about="">
        <dc:format>image/svg+xml</dc:format>
        <dc:type
           rdf:resource="http://purl.org/dc/dcmitype/StillImage" />
      </cc:Work>
    </rdf:RDF>
  </metadata>
  <path
     id="path4217-5-4-7-6-7-5-5-7"
     style="fill:#000000;fill-opacity:1;stroke-width:12.4444"
     d="M 21.033203 0.36132812 C 17.660093 4.6152582 18.098002 11.697762 17.732422 16.357422 C 19.774582 10.683462 22.581503 8.0575282 21.033203 0.36132812 z M 17.732422 16.357422 A 1.1666645 1.1666678 0 0 0 17.5 16.333984 A 1.1666645 1.1666678 0 0 0 16.824219 16.550781 A 1.1666645 1.1666678 0 0 0 16.392578 17.142578 C 12.092927 15.061382 5.4583598 13.561891 0.859375 12.132812 C 3.9212717 18.199354 10.955495 16.37717 16.390625 17.146484 A 1.1666645 1.1666678 0 0 0 16.333984 17.5 A 1.1666645 1.1666678 0 0 0 16.738281 18.382812 A 1.1666645 1.1666678 0 0 0 17.5 18.666016 A 1.1666645 1.1666678 0 0 0 18.640625 17.730469 A 1.1666645 1.1666678 0 0 0 18.666016 17.5 A 1.1666645 1.1666678 0 0 0 18.611328 17.142578 A 1.1666645 1.1666678 0 0 0 18.347656 16.697266 A 1.1666645 1.1666678 0 0 0 17.732422 16.357422 z M 18.347656 16.697266 C 23.157046 12.695956 30.026007 7.4023394 30.185547 5.4433594 C 23.819917 4.5558594 22.717666 10.904376 18.347656 16.697266 z M 18.611328 17.142578 C 24.616658 16.306588 30.719561 16.014557 33.832031 11.185547 C 30.066161 8.8287871 23.499638 15.633068 18.611328 17.142578 z M 18.640625 17.730469 C 23.200935 19.633349 29.992418 23.009702 34.648438 20.982422 C 32.244368 15.559982 23.317665 17.887239 18.640625 17.730469 z M 16.738281 18.382812 C 11.175911 23.045168 3.0325222 24.343085 6.1152344 30.78125 C 9.1752451 25.666446 12.95122 23.734948 16.738281 18.382812 z M 16.824219 16.550781 C 13.003559 12.601011 6.9139581 10.630838 7.8300781 2.8613281 C 1.7189181 12.462698 12.809279 13.751381 16.824219 16.550781 z M 12.580078 0.70898438 C 9.8399084 5.0879444 14.232242 11.182829 17.101562 16.261719 C 16.159132 11.295399 15.068448 5.5622544 12.580078 0.70898438 z M 16.367188 17.792969 C 11.228277 18.891849 4.00457 18.255913 0.5625 21.914062 C 7.57719 21.137992 10.748037 21.380959 16.367188 17.792969 z M 18.439453 18.193359 C 21.406813 22.883779 25.994771 29.568998 31.582031 27.892578 C 28.403691 23.117308 23.233623 20.610089 18.439453 18.193359 z M 17.927734 18.585938 C 18.666624 26.250518 16.916016 32.08342 23.916016 33.78125 C 25.666016 29.16676 20.416624 23.917188 17.927734 18.585938 z M 17.201172 18.626953 C 12.833232 27.415853 8.9099215 28.738206 13.019531 34.416016 C 16.916861 30.916016 17.134112 23.436793 17.201172 18.626953 z " />
</svg>
