<?xml version="1.0" encoding="UTF-8" standalone="no"?>
<!-- Created with Inkscape (http://www.inkscape.org/) -->

<svg
   width="41"
   height="41"
   id="svg2"
   version="1.1"
   xmlns="http://www.w3.org/2000/svg"
   xmlns:svg="http://www.w3.org/2000/svg"
   xmlns:rdf="http://www.w3.org/1999/02/22-rdf-syntax-ns#"
   xmlns:cc="http://creativecommons.org/ns#"
   xmlns:dc="http://purl.org/dc/elements/1.1/">
  <defs
     id="defs4" />
  <metadata
     id="metadata7">
    <rdf:RDF>
      <cc:Work
         rdf:about="">
        <dc:format>image/svg+xml</dc:format>
        <dc:type
           rdf:resource="http://purl.org/dc/dcmitype/StillImage" />
      </cc:Work>
    </rdf:RDF>
  </metadata>
  <path
     id="path244-0-7-5-0-3"
     style="fill:#000000"
     d="M 21.318359 0 C 20.893613 0 21.777153 0.78779198 21.242188 1.1875 C 20.70722 1.5872069 20.538879 2.2021786 20.818359 3.3203125 C 21.04194 4.3266334 20.9308 4.9973239 20.427734 5.3886719 C 19.81288 5.7800168 19.81214 6.0029355 20.371094 6.2265625 C 20.70647 6.3383775 20.326172 7.0979167 20.326172 7.7128906 C 20.326172 8.2719576 20.251775 8.734375 20.53125 8.734375 C 20.81073 8.734375 21.560083 6.5634241 21.671875 4.5507812 C 21.839565 2.2026975 22.775028 1.0834879 23.333984 0.74804688 C 24.004733 0.35669895 24.127999 0.38943761 23.416016 0.24414062 C 23.125381 0.18482063 22.853294 0.133027 22.292969 0.0625 C 21.981076 0.02324001 21.728283 0 21.318359 0 z M 17.349609 0.2421875 C 17.082117 0.23642605 16.805824 0.39572198 16.744141 0.65625 C 16.634478 1.119411 16.871788 1.7283839 16.458984 1.7636719 C 15.683737 1.8299419 15.326272 0.58789991 14.558594 0.90429688 C 13.855008 1.1942769 15.346427 2.0968179 15.757812 2.7773438 C 16.172153 3.4842737 16.172826 3.5075392 15.587891 3.9707031 C 15.00297 4.4582421 15.001689 4.4583666 15.416016 5.3359375 C 15.635359 5.8234744 15.758565 6.2881961 15.636719 6.3613281 C 15.539129 6.4344681 15.415933 6.9206641 15.367188 7.4082031 C 15.294087 8.188264 15.368123 8.3597476 15.904297 8.6035156 C 16.245525 8.7741545 15.630262 10.526851 15.849609 10.84375 C 16.075243 11.03474 16.258206 11.307207 16.552734 10.712891 C 16.778661 10.256998 17.205715 9.2753839 16.935547 8.5 C 16.521233 7.3542851 16.232571 6.2806288 16.330078 5.2324219 C 16.500672 3.2578881 16.879408 3.2165004 17.171875 3.0214844 C 17.513088 2.8020924 18.050429 1.1222315 17.855469 0.5859375 C 17.759501 0.35131023 17.557659 0.24666863 17.349609 0.2421875 z M 27.042969 1.1289062 C 26.928571 1.1327499 26.847828 1.168365 26.8125 1.2460938 C 26.671191 1.5570096 27.032355 2.1384977 26.386719 2.6191406 C 25.987295 2.9040336 25.711527 3.3362171 25.734375 3.5488281 C 25.757235 3.761439 25.570649 4.266428 25.318359 4.6699219 C 25.066055 5.0734159 24.889557 5.6830351 24.923828 6.0019531 C 24.958098 6.3208691 24.31953 7.8086911 24.126953 8.0175781 C 23.986674 8.1697371 24.048122 8.7037572 23.873047 9.2519531 C 23.557781 10.239166 23.482933 11.438271 23.792969 11.556641 C 24.337023 11.765484 25.28508 8.7304186 25.537109 7.5742188 C 25.639409 7.0255507 26.049058 5.4783924 26.419922 4.9277344 C 26.898448 4.2900445 27.47311 3.5391124 27.949219 2.8027344 C 28.121181 2.5367675 29.472731 2.5101328 29.675781 2.3398438 C 29.81427 2.2236987 29.124276 1.8931989 28.603516 1.6542969 C 28.024619 1.3887265 27.386163 1.1173753 27.042969 1.1289062 z M 12.328125 1.8007812 C 12.228482 1.8067466 12.094793 1.8444702 11.914062 1.9257812 C 9.4082168 3.0531672 11.553588 2.6899195 11.609375 3.2890625 C 11.725253 4.5335924 12.404806 6.1734064 12.962891 6.6152344 C 13.757849 7.2445903 13.460414 6.2642717 12.804688 4.2480469 C 12.722653 3.8912449 12.692839 3.3404851 12.617188 2.8613281 C 12.539981 2.372265 12.759912 1.7749315 12.328125 1.8007812 z M 8.8496094 3.8027344 C 8.7549604 3.7936703 8.5755234 3.8817569 8.2246094 4.1230469 C 7.7328214 4.4612039 7.5894501 4.5728885 7.6230469 4.8339844 C 7.5643109 5.1579364 8.0802194 5.2308916 7.8496094 5.4316406 C 7.3019181 5.9084185 7.5282146 6.1680974 8.703125 6.4121094 C 9.4504553 6.5722884 9.5757958 6.7176695 9.5058594 7.3359375 C 9.5047594 7.7422474 9.8212407 8.2788094 9.8535156 8.5058594 C 9.9080316 8.8894433 10.121631 9.488327 10.785156 10.076172 C 11.373413 10.57752 11.580575 10.154488 12.433594 11.134766 C 13.537492 12.403352 13.251935 13.392154 14.117188 13.390625 C 14.332387 13.330685 14.627748 12.995755 14.482422 12.800781 C 13.890436 12.353356 13.641029 12.146853 13.613281 11.765625 C 13.284295 10.549096 12.580964 9.7101688 12.001953 9.6210938 C 11.651587 9.6430337 11.531115 8.7244355 11.322266 8.4941406 C 11.117987 8.2688876 10.823246 8.7353024 10.708984 8.4140625 C 10.513852 7.8654595 10.416404 7.2825674 10.306641 7.0214844 C 9.9323618 5.8744335 9.5195483 5.1172318 9.1484375 4.6679688 C 8.8537461 4.3112182 9.0578372 3.8226752 8.8496094 3.8027344 z M 32.583984 4.0625 C 31.986701 4.0743148 33.073689 4.9789038 32.496094 5.125 C 30.95271 5.515392 29.331178 6.3337444 29.261719 6.5996094 C 29.192259 6.8654753 29.126235 7.2091495 28.902344 7.2578125 C 28.72324 7.2967425 28.123303 7.9887359 27.587891 8.7617188 C 26.84221 9.8618131 26.63053 11.016562 27.121094 11.332031 C 27.557153 11.612449 27.669308 10.686841 28.095703 9.84375 C 28.833626 8.2763397 30.342054 7.4126892 32.222656 7.0039062 C 33.073409 6.8189823 34.028547 6.4699929 34.402344 6.2480469 C 34.935784 5.8975939 34.552658 5.6466729 34.253906 5.34375 C 34.127928 5.21601 32.900336 4.0814531 32.646484 4.0644531 C 32.623599 4.0629206 32.603252 4.0621189 32.583984 4.0625 z M 5.0839844 7.6113281 C 4.7009995 7.64368 4.2640204 8.0402441 4.0761719 8.2597656 C 3.9339772 8.4259356 4.0445652 8.8267838 4.1875 9.2148438 C 4.324857 9.5877762 3.4097786 10.615986 3.7070312 10.960938 C 4.2631209 11.606267 5.3409837 11.860731 5.2617188 12.195312 C 5.0965815 12.892356 5.4662677 13.568747 6.1074219 13.720703 C 6.3583106 13.780173 6.5917294 14.041534 6.6503906 14.291016 C 6.7134166 14.894898 5.8886096 15.076843 5.4375 14.626953 C 5.2181143 14.295645 4.3087586 14.295358 3.5175781 14.158203 C 3.0575751 14.078463 2.6589273 13.753503 2.4042969 13.808594 C 2.0794621 13.891884 1.765304 14.516781 1.5488281 14.599609 C 0.99934093 14.809854 1.0136089 14.472588 0.7578125 15.095703 C 0.52508667 15.66262 1.4156593 16.456504 1.9472656 16.208984 C 2.4894683 16.041333 3.0430076 15.117188 3.5917969 15.070312 C 5.185186 14.934209 6.6014528 15.436213 6.6816406 15.652344 C 6.7322376 15.811572 7.1576357 16.000758 7.6660156 16.091797 C 8.1677879 16.210714 8.9353367 16.451936 9.3828125 16.675781 C 10.460301 16.822414 10.716573 16.311872 10.185547 15.931641 C 9.6545192 15.55141 8.9937311 15.801522 8.3867188 15.554688 C 8.0162668 15.378548 7.8829882 15.053771 7.7714844 15.027344 C 7.6387011 14.966434 7.6014493 14.750397 7.6542969 14.527344 C 7.7071434 14.304289 7.5569948 14.064573 7.3339844 14.011719 C 7.1109739 13.958859 6.9435357 13.799565 6.9765625 13.660156 C 7.0095904 13.520756 6.8102598 13.238349 6.5234375 13.082031 C 6.2366152 12.925706 6.0660117 12.531311 6.1386719 12.224609 C 6.3764674 11.220865 5.1294367 10.535019 4.8847656 9.9785156 C 4.6718935 9.4751102 6.1447598 8.7490379 5.5449219 7.84375 C 5.4209675 7.6566747 5.2580684 7.5966227 5.0839844 7.6113281 z M 36.357422 7.7890625 C 35.962356 7.7808846 36.151334 8.8835475 35.789062 9.2421875 C 35.144112 9.8806709 35.100292 10.402765 34.517578 10.894531 C 33.934839 11.3863 33.242595 11.82295 33.005859 11.859375 C 32.714513 11.895795 32.550781 12.022985 32.550781 12.259766 C 32.550781 12.624038 31.220077 13.462891 30.619141 13.462891 C 30.309567 13.462891 30.25662 13.389655 30.347656 13.025391 C 30.420496 12.715759 30.36565 12.51553 30.183594 12.40625 C 29.928644 12.278757 29.928014 12.188348 30.146484 11.660156 C 30.437845 10.96804 30.346556 10.183594 29.982422 10.183594 C 29.836636 10.183594 29.654246 10.330224 29.599609 10.494141 C 29.526789 10.676274 29.381381 10.894623 29.253906 11.003906 C 28.962545 11.258896 28.780838 12.332807 29.017578 12.478516 C 29.272511 12.62423 29.072404 13.408037 28.617188 13.972656 C 28.411886 14.200137 28.647897 14.609375 28.841797 14.609375 C 29.114944 14.609375 29.316406 14.694548 29.316406 14.548828 C 29.316406 14.38491 29.509887 14.373635 30.238281 14.300781 C 32.842309 14.027578 32.914647 13.98967 32.841797 13.333984 C 32.805307 13.024353 33.551373 12.550781 34.097656 12.550781 C 34.643968 12.550781 34.8986 12.388288 35.0625 11.951172 C 35.208285 11.550477 35.572828 11.549193 36.119141 11.986328 C 36.355864 12.168461 36.665479 12.278613 36.792969 12.242188 C 37.102531 12.132914 37.066657 11.696443 36.720703 11.496094 C 36.483963 11.368601 36.764568 11.213404 37.083984 10.949219 C 37.510523 10.569133 38.000882 10.775236 38.117188 10.480469 C 38.203418 10.261899 37.9539 9.6974972 37.740234 9.4023438 C 37.34935 8.8298548 36.723081 7.8541297 36.398438 7.7929688 C 36.384438 7.7903316 36.370166 7.7893263 36.357422 7.7890625 z M 33.580078 7.8125 C 33.110928 7.8119497 32.098001 8.208436 31.970703 8.546875 C 31.858696 8.7919959 31.653405 9.0210111 31.486328 9.0175781 C 31.338755 9.0412881 31.275075 9.2947988 31.369141 9.5976562 C 31.486921 10.04812 31.714322 9.9651998 32.660156 9.1621094 C 33.253119 8.6125675 33.820617 8.0833486 33.816406 7.9628906 C 33.833609 7.8579204 33.736461 7.8126834 33.580078 7.8125 z M 8.0722656 8.90625 C 7.8293135 8.90625 7.6679687 9.1496895 7.6679688 9.5546875 C 7.6679688 9.9326869 7.8563077 10.391767 8.0722656 10.634766 C 8.2882216 10.850766 8.4785156 11.255735 8.4785156 11.552734 C 8.4785156 11.822734 8.6668565 12.064453 8.8828125 12.064453 C 8.9508275 12.064453 9.6016383 12.7373 10.101562 13.371094 C 10.464258 13.830916 10.270992 14.610045 10.650391 14.349609 C 10.808294 14.241221 10.890764 13.604207 10.662109 13.197266 C 10.249984 12.463551 9.3985811 11.648694 9.2871094 11.470703 C 9.1008165 11.173245 9.0987704 10.714391 8.8828125 10.525391 C 8.6668565 10.336392 8.4785156 9.9056869 8.4785156 9.5546875 C 8.4785156 9.1496895 8.3152148 8.90625 8.0722656 8.90625 z M 19.351562 12.222656 C 19.262169 12.281089 19.531376 14.277814 19.515625 14.769531 C 19.51261 14.863651 19.50931 14.953837 19.507812 15.039062 C 19.442671 15.093819 19.498989 15.227503 19.521484 15.423828 L 19.716797 17.134766 C 19.814587 17.993726 20.453229 18.935719 20.548828 18.646484 C 20.628368 18.405817 20.243596 17.874581 20.115234 16.806641 C 20.053834 16.455901 19.975395 15.866487 19.917969 15.529297 C 19.874138 15.255252 19.844645 15.112535 19.791016 15.046875 C 19.791162 15.038336 19.790944 15.030175 19.791016 15.021484 C 19.796616 14.337861 19.537522 12.483017 19.367188 12.228516 C 19.360977 12.221611 19.355959 12.219782 19.351562 12.222656 z M 22.466797 12.353516 C 22.361798 12.379339 22.024483 14.48396 21.861328 14.972656 C 21.791617 15.181466 21.723364 15.376948 21.697266 15.525391 C 21.548915 15.579327 21.5664 15.789869 21.501953 15.916016 C 21.306055 16.572436 20.983527 17.6875 21.261719 17.6875 C 21.359109 17.6875 21.447722 18.000324 21.308594 18.208984 C 21.169503 18.431564 21.220495 18.806687 21.044922 19.054688 C 20.730493 19.539997 20.689194 19.602478 21.146484 19.892578 C 21.633262 20.237768 21.557455 20.422254 21.775391 20.865234 C 21.836791 20.990054 22.068415 21.255859 22.179688 21.255859 C 22.29099 21.255859 22.37938 20.958946 22.351562 20.847656 C 22.309863 20.694636 22.365553 20.695905 22.574219 20.890625 C 22.908047 21.196665 23.102375 21.196893 23.283203 20.876953 C 23.380593 20.723933 23.475377 20.849966 23.544922 20.947266 C 23.614522 21.030766 23.946362 21.137719 24.113281 21.193359 C 24.457172 21.303906 25.618602 21.43991 25.914062 21.005859 L 27.572266 21.126953 C 28.434459 21.189423 29.310887 20.754067 29.017578 20.671875 C 28.786209 20.601645 28.39743 20.744878 27.324219 20.673828 C 26.968196 20.669428 26.373224 20.636669 26.03125 20.630859 C 25.996061 20.629906 25.968574 20.629492 25.9375 20.628906 C 25.596116 20.126482 23.435048 20.544943 22.851562 20.570312 C 22.559452 20.570312 22.376953 20.468236 22.376953 20.384766 C 22.376953 20.315266 22.25604 20.181641 22.130859 20.181641 C 21.991748 20.181641 21.873238 20.010632 21.748047 19.732422 C 21.512892 19.591922 21.414404 19.360879 21.595703 19.167969 C 21.804349 18.987129 22.135439 18.859094 22.599609 18.777344 C 22.800546 18.777344 22.975297 18.594095 23.123047 18.296875 C 23.078147 18.135595 23.078273 18.237212 22.880859 17.982422 C 22.769556 17.871142 22.782457 17.760442 22.935547 17.607422 C 23.060739 17.482232 23.158203 17.329554 23.158203 17.246094 C 23.158203 17.162594 23.282784 16.896636 23.421875 16.660156 C 23.575167 16.407219 23.67605 16.184756 23.681641 16.035156 C 23.739447 15.986198 23.806064 15.915175 23.876953 15.828125 C 24.282504 15.330082 25.242448 13.765048 25.306641 13.445312 C 25.326781 13.233854 24.198963 15.061465 23.886719 15.427734 C 23.75358 15.583912 23.626493 15.727219 23.552734 15.847656 C 23.53216 15.843003 23.51043 15.839844 23.484375 15.839844 C 23.339245 15.852244 23.236323 16.201789 23.023438 16.542969 C 22.798822 17.015539 22.477329 17.357356 22.546875 17.816406 C 22.630265 18.331096 22.463703 18.566931 21.962891 18.650391 C 21.642951 18.692091 21.474462 18.804041 21.710938 18.275391 C 21.766638 18.164111 21.766409 17.926686 21.724609 17.759766 C 21.668909 17.592836 21.534888 16.990072 21.660156 16.544922 C 21.808385 16.019356 22.030808 15.773003 21.96875 15.568359 C 21.999287 15.500321 22.028777 15.420628 22.056641 15.330078 C 22.267527 14.644652 22.570608 12.683938 22.480469 12.365234 C 22.476468 12.356002 22.471961 12.352246 22.466797 12.353516 z M 39.357422 12.8125 C 39.342566 12.814524 39.327132 12.817816 39.310547 12.824219 C 38.965558 12.957404 39.086694 14.239431 38.384766 13.865234 C 37.571403 13.429253 37.521425 14.53895 37.134766 14.642578 C 36.871514 14.749719 35.607977 14.720456 35.220703 14.873047 C 34.064884 15.331397 34.052932 15.022613 33.023438 15.705078 C 32.582653 16.052343 32.648324 15.981377 32.146484 16.052734 C 31.835156 15.971194 31.63966 16.71451 31.4375 16.880859 C 31.106691 17.153081 31.052602 17.72582 31.802734 17.771484 C 32.278646 17.800464 32.954032 17.614055 33.365234 17.316406 C 33.964166 16.882881 34.46489 16.876909 35.181641 16.287109 C 35.36543 16.135885 35.74519 16.189855 36.109375 16.412109 C 36.9974 16.948073 37.949273 16.432012 38.929688 15.712891 C 39.208762 15.508194 39.98484 16.152585 40.091797 15.664062 C 40.293526 14.928185 40.063665 14.21549 39.835938 13.708984 C 39.620617 13.230081 39.580256 12.782133 39.357422 12.8125 z M 15.886719 13.339844 C 15.770335 13.359938 17.211255 15.168227 17.505859 15.669922 C 17.589966 15.813153 17.669551 15.949909 17.742188 16.0625 C 17.67056 16.243905 17.689074 16.587058 17.730469 16.738281 C 17.87788 17.276691 17.857518 17.301061 18.017578 17.494141 C 18.407052 17.911461 18.769531 17.920788 18.769531 17.642578 C 18.769531 17.559078 18.628377 17.597656 18.544922 17.597656 C 18.214974 17.364086 18.122298 17.089016 18.09375 16.759766 C 18.06215 16.567126 18.089859 16.196503 18.130859 16.126953 C 18.163724 16.0721 18.101641 16.006788 17.978516 15.96875 C 17.978516 15.96875 17.976562 15.966797 17.976562 15.966797 C 17.937947 15.884397 17.885826 15.794496 17.826172 15.697266 C 17.419674 15.034646 16.149149 13.453379 15.892578 13.341797 C 15.889935 13.341203 15.888566 13.339525 15.886719 13.339844 z M 27.318359 15.478516 C 27.177188 15.471927 25.766777 16.738012 25.367188 16.980469 C 25.22424 17.067206 25.086646 17.146443 24.984375 17.222656 C 24.903974 17.144787 24.790979 17.210604 24.537109 17.423828 C 24.272826 17.646398 23.516301 18.432082 23.597656 18.544922 C 23.774485 18.790182 24.003236 18.690211 24.742188 17.863281 C 24.955028 17.737505 25.053717 17.607549 25.076172 17.498047 C 25.150259 17.468086 25.235273 17.423769 25.326172 17.365234 C 25.881368 17.007682 27.223038 15.786338 27.328125 15.496094 C 27.330678 15.483664 27.327771 15.478955 27.318359 15.478516 z M 3.9511719 17.119141 C 3.1237888 17.143171 3.7465051 17.745177 5.1972656 18.058594 C 5.5384013 18.167211 6.1747744 18.438043 6.0136719 18.712891 C 5.6996834 19.248569 4.9370251 19.013672 3.4746094 19.013672 C 2.9992403 19.013672 2.455925 19.033228 1.9433594 19.080078 C 1.5391168 19.117028 0.88588143 17.339638 0.56640625 17.408203 C 0.07118753 17.514475 0.001953125 19.490777 0.001953125 19.679688 C 0.001953125 19.858649 1.3636409 20.003906 3.0097656 20.003906 C 5.22849 20.003906 5.3499098 20.960852 6.3984375 19.800781 C 7.5553551 19.053843 10.184909 21.057276 10.619141 20.603516 C 11.065901 20.136667 9.0443004 19.451594 8.8320312 19.244141 C 8.2068609 18.917747 7.4599104 18.624015 6.9570312 18.273438 C 6.4769545 17.938754 5.8552958 17.063832 3.9511719 17.119141 z M 13.001953 17.232422 C 12.966679 17.233338 12.937105 17.237141 12.914062 17.242188 C 12.677941 17.325537 15.048052 17.884164 15.552734 18.111328 C 15.574598 18.12117 15.595672 18.13089 15.617188 18.140625 C 15.635104 18.171425 15.660544 18.207074 15.695312 18.248047 C 15.809416 18.363357 16.02893 18.437327 16.164062 18.404297 C 16.366739 18.354797 16.485466 18.366155 16.544922 18.609375 C 16.594522 18.812065 16.708293 18.913139 16.816406 18.886719 C 16.910996 18.863619 17.056722 18.928742 17.177734 19.013672 C 17.298737 19.098672 17.444307 19.193769 17.501953 19.136719 C 17.559553 19.079619 17.731334 19.082081 17.896484 19.113281 C 18.125579 19.171881 18.190821 19.141521 18.21875 18.962891 C 18.26765 18.635881 17.979379 18.800531 17.722656 18.863281 C 17.371339 18.949181 16.830557 18.618132 16.769531 18.382812 C 16.686831 18.194163 16.302014 17.915762 16.146484 17.982422 C 16.144702 17.98354 16.142962 17.984188 16.140625 17.984375 C 16.140625 17.984375 16.138672 17.984375 16.138672 17.984375 C 16.118524 17.974121 16.098076 17.963267 16.076172 17.953125 C 16.021697 17.918533 15.944695 17.868112 15.863281 17.867188 C 15.139712 17.600872 13.499652 17.219491 13.001953 17.232422 z M 40.269531 17.28125 C 40.055782 17.289591 39.825626 17.578387 39.863281 17.931641 C 39.931321 18.530256 39.363429 19.014533 38.837891 18.945312 C 38.625015 18.900672 38.430605 19.250235 38.158203 19.457031 C 37.506139 19.728724 36.72753 19.516248 36.195312 19.486328 C 35.872171 19.230604 35.614005 19.224153 35.126953 19.482422 C 34.700027 19.714093 34.302087 19.721533 33.957031 19.572266 C 33.34728 19.534696 33.152937 19.677686 32.988281 19.699219 C 32.694506 19.466743 31.920994 19.757074 31.736328 20.056641 C 31.502578 20.386871 30.403189 20.860876 31.083984 21.248047 C 31.558457 21.648278 31.911431 21.693721 32.363281 21.457031 C 32.945705 21.150336 33.783052 20.278493 34.707031 21.083984 C 35.044866 21.351332 35.089341 21.606942 35.503906 21.564453 C 35.892391 21.548873 35.90759 21.191459 36.164062 20.775391 C 36.930186 20.103087 37.685047 21.038618 38.277344 21.035156 C 38.81581 21.044356 38.999601 20.382404 39.298828 20.085938 C 40.176615 19.546769 39.958841 23.527997 40.814453 21.939453 C 41.03633 21.527515 40.994141 20.089687 40.994141 19.679688 C 41.044651 18.929416 40.725719 17.889569 40.523438 17.464844 C 40.460225 17.332117 40.36669 17.277459 40.269531 17.28125 z M 28.402344 17.638672 C 28.168213 17.665798 26.612239 18.488614 26.177734 18.628906 C 25.964118 18.697881 25.763689 18.759239 25.644531 18.828125 C 25.271189 18.87085 24.282599 19.381818 23.378906 19.40625 C 22.445517 19.43145 21.909758 19.272552 21.941406 19.607422 C 22.026796 19.848932 22.154844 20.018539 24.146484 19.693359 C 24.839102 19.573119 25.426054 19.251352 25.673828 19.050781 C 25.774858 19.053929 25.91644 19.021513 26.078125 18.964844 C 26.705752 18.744857 28.277482 17.897252 28.429688 17.658203 C 28.436446 17.642336 28.426564 17.635866 28.402344 17.638672 z M 18.894531 18.035156 C 18.852319 18.03648 18.809534 18.055069 18.761719 18.089844 C 18.5948 18.201134 18.622254 18.285043 19.011719 18.632812 C 19.345557 18.952762 19.401521 19.050781 19.220703 19.050781 C 18.998148 19.050781 18.998148 19.064519 19.220703 19.287109 C 19.457168 19.523589 20.291016 19.648113 20.291016 19.439453 C 20.291016 19.383853 20.403888 19.328363 20.542969 19.314453 C 20.695969 19.314453 20.61223 19.230867 20.333984 19.091797 C 20.0836 18.966597 19.828125 18.954316 19.828125 18.884766 C 19.828125 18.829166 19.666445 18.730469 19.527344 18.730469 C 19.402162 18.730469 19.29097 18.479901 19.179688 18.285156 C 19.0745 18.113013 18.987398 18.032243 18.894531 18.035156 z M 19.457031 19.685547 C 18.960683 19.714447 18.532211 19.848697 18.021484 19.898438 L 18.021484 19.900391 C 17.837316 19.908391 17.625187 19.953366 17.544922 20.003906 C 17.464632 20.054406 17.134135 20.305826 16.582031 20.316406 C 16.017158 20.313406 15.278432 20.266869 15.144531 20.355469 C 15.119435 20.373277 15.097648 20.388483 15.080078 20.402344 C 15.022195 20.396082 14.957145 20.394934 14.888672 20.394531 C 14.205062 20.390531 12.353395 20.708004 12.099609 20.912109 C 11.952863 21.070666 14.120779 20.706927 14.636719 20.724609 C 14.877129 20.732851 15.102046 20.743545 15.244141 20.708984 C 15.431904 20.786169 15.636427 20.673334 15.949219 20.619141 C 16.24065 20.535141 16.678093 20.662369 16.875 20.667969 C 17.071927 20.673969 17.441195 20.45755 17.615234 20.34375 C 17.896156 20.16701 18.336523 20.104269 18.765625 20.261719 C 19.038317 20.375109 18.947169 20.598922 19.039062 20.601562 C 19.130952 20.604563 19.260671 20.68741 19.310547 20.78125 C 19.398337 20.92895 19.531428 20.900551 19.601562 20.744141 C 19.643963 20.639771 19.49346 20.41074 19.361328 20.28125 C 19.264738 20.20385 19.167929 20.05897 19.285156 20.03125 C 19.759995 19.96565 19.862864 19.736767 19.457031 19.685547 z M 20.269531 19.726562 C 20.058592 19.736322 19.884775 19.809058 19.794922 19.935547 C 19.262457 20.835057 20.376677 21.736709 21.015625 21.005859 C 21.548071 20.443669 21.392343 20.105319 20.806641 19.824219 C 20.620287 19.750434 20.433595 19.718972 20.269531 19.726562 z M 18.460938 20.839844 C 18.404846 20.842157 18.333926 20.864724 18.246094 20.908203 C 18.066676 20.981303 18.011462 21.177803 18.013672 21.289062 C 18.015672 21.386463 17.854791 21.590566 17.730469 21.634766 C 17.592488 21.693166 17.362646 21.772502 17.240234 21.914062 C 16.968152 22.225542 16.450908 22.406293 16.208984 22.132812 C 16.023796 21.913863 15.572032 22.089542 15.396484 22.357422 C 15.385083 22.374419 15.380367 22.39322 15.380859 22.412109 C 15.380859 22.412109 15.380859 22.414062 15.380859 22.414062 C 14.648804 22.660771 12.873023 23.594972 12.699219 23.873047 C 12.616039 24.073141 14.733043 22.967871 15.283203 22.802734 C 15.423799 22.760534 15.557512 22.722119 15.673828 22.681641 C 15.738233 22.707023 15.803948 22.7218 15.859375 22.720703 C 15.915075 22.719703 16.168096 22.785394 16.388672 22.683594 C 16.595628 22.595994 16.844516 22.507239 16.914062 22.505859 C 17.191654 22.472559 17.89227 22.000614 18.259766 21.589844 C 18.647197 21.175201 18.703999 20.829819 18.460938 20.839844 z M 21.300781 20.871094 C 21.282043 20.87284 21.267595 20.878239 21.255859 20.888672 C 21.221859 20.922672 21.114125 20.977137 21.121094 21.123047 C 21.142594 21.573367 21.446534 22.457523 21.806641 22.751953 C 21.860441 22.795953 21.883041 23.202354 21.869141 23.365234 C 21.819541 23.947244 21.874903 24.1182 21.972656 24.21875 C 22.195201 24.33003 22.340555 24.198768 22.298828 23.767578 C 22.257028 23.419808 22.285194 23.295684 22.396484 23.365234 C 22.479874 23.420834 22.548828 23.587214 22.548828 23.740234 C 22.548828 23.879344 22.617999 24.003906 22.6875 24.003906 C 22.77089 24.003906 22.826172 24.130183 22.826172 24.283203 C 22.923762 24.628583 22.881356 25.164608 23.369141 25.117188 C 23.428124 25.117188 23.487773 25.09105 23.541016 25.046875 L 24.576172 26.367188 C 25.109572 27.047498 26.021115 27.403262 25.884766 27.130859 C 25.781203 26.912356 25.413086 26.721182 24.744141 25.878906 C 24.508057 25.612363 24.133806 25.151613 23.908203 24.894531 C 23.831276 24.805065 23.769045 24.737424 23.716797 24.683594 C 23.734653 24.510211 23.692167 24.300382 23.541016 24.082031 C 23.262814 23.664711 23.08403 23.560471 23.195312 23.337891 C 23.348322 23.045771 23.091302 22.715781 22.824219 22.675781 C 22.675589 22.641381 22.271484 22.446903 22.271484 22.126953 C 22.271484 22.057453 22.145425 21.904011 21.978516 21.806641 C 21.825506 21.709241 21.856893 21.474333 21.884766 21.376953 C 21.947832 21.213067 21.481913 20.854218 21.300781 20.871094 z M 19.75 21.099609 C 19.716881 21.102342 19.683135 21.109739 19.648438 21.121094 C 19.569247 21.146994 19.576085 21.325589 19.478516 21.474609 C 19.367664 21.627959 19.1869 21.788771 19.054688 21.832031 C 18.911343 21.878952 18.847937 22.085122 18.865234 22.449219 C 18.769543 22.525488 18.708215 22.626979 18.603516 22.708984 C 18.487224 23.056584 18.209062 23.270286 18.117188 23.253906 C 18.039897 23.235406 17.841727 23.397644 17.679688 23.615234 C 17.517668 23.832824 17.351365 24.020747 17.292969 24.029297 C 17.239994 24.037447 17.145938 24.185826 17.085938 24.375 C 17.014102 24.411856 16.93536 24.467316 16.851562 24.537109 C 16.322454 24.977743 15.10397 26.486173 15.042969 26.845703 C 15.034469 27.092228 16.466029 25.33424 16.875 25.015625 C 17.060893 24.870807 17.23717 24.739857 17.326172 24.617188 C 17.352868 24.592229 17.379953 24.565567 17.410156 24.535156 C 17.553677 24.394836 17.759135 24.261054 17.861328 24.246094 C 17.97813 24.228994 18.115888 23.899141 18.267578 23.712891 C 18.419279 23.526641 18.694682 23.526679 18.796875 23.511719 C 18.899048 23.496719 18.977476 23.424552 18.966797 23.351562 C 18.955597 23.278562 19.306737 23.291899 19.460938 23.224609 C 19.478519 23.217376 19.493826 23.206539 19.507812 23.195312 C 19.608878 23.160931 19.658375 23.032813 19.582031 22.787109 L 19.578125 22.777344 C 19.572664 22.754542 19.565887 22.731541 19.558594 22.708984 L 19.503906 22.535156 C 19.416216 22.252736 19.610984 22.410482 19.800781 22.201172 C 19.97661 22.007272 19.896067 21.929728 19.972656 21.736328 C 20.154601 21.276629 19.981833 21.080478 19.75 21.099609 z M 20.890625 21.324219 C 20.038971 21.318219 20.262007 21.529826 20.351562 21.822266 C 20.398063 21.974146 20.615764 22.237164 20.53125 22.402344 C 20.21564 22.846674 20.432273 23.038525 20.322266 23.421875 C 20.266566 23.853115 20.19711 23.724609 19.863281 23.724609 C 19.473807 23.724609 19.2086 24.243474 19.458984 24.396484 C 19.542374 24.452084 19.599609 24.409344 19.599609 24.339844 C 19.599609 24.256344 19.695385 24.1875 19.806641 24.1875 C 20.057015 24.1875 20.057015 24.131769 19.806641 25.105469 C 19.73232 25.40271 19.699806 25.641143 19.693359 25.78125 C 19.643234 25.889435 19.584725 26.03514 19.511719 26.228516 C 19.301102 26.787614 18.726135 28.623812 18.826172 28.736328 C 19.043609 28.980878 19.245767 28.640263 19.794922 26.755859 C 19.983194 26.372656 20.051308 26.081975 20.044922 25.892578 C 20.183391 25.815161 20.315569 25.659108 20.345703 25.396484 C 20.417093 25.122774 20.696781 24.975589 20.724609 24.349609 C 20.752309 23.807089 21.062772 23.587604 21.160156 23.490234 C 21.243546 23.406734 21.246312 22.614186 21.232422 22.447266 C 21.223422 22.035996 21.107511 21.338179 20.890625 21.324219 z M 22.46875 21.330078 C 22.365843 21.330843 22.291457 21.351392 22.269531 21.398438 C 22.167267 21.644897 22.343747 21.850296 22.615234 21.941406 C 22.742726 21.984206 22.95432 21.990268 22.931641 22.080078 C 22.904441 22.187808 22.841357 22.512158 23.023438 22.361328 C 23.166673 22.242662 23.344564 22.214449 23.525391 22.222656 C 23.802995 22.317204 24.387326 22.563042 24.316406 22.84375 C 24.290506 22.9909 24.447341 23.158048 24.894531 23.173828 C 24.99689 23.199691 25.122441 23.168925 25.228516 23.115234 L 26.509766 23.929688 C 27.239146 24.393705 28.21727 24.426343 27.998047 24.214844 C 27.827678 24.043261 27.416953 23.985704 26.505859 23.414062 C 26.216974 23.253732 25.765721 22.979564 25.462891 22.806641 C 25.469205 22.659137 25.409539 22.484807 25.191406 22.429688 C 24.966681 22.372888 24.850213 22.196436 24.738281 22.134766 C 24.657121 22.070685 24.459014 21.956105 24.285156 21.923828 C 24.28473 21.923512 24.28363 21.924144 24.283203 21.923828 C 24.113965 21.798587 23.863216 21.672789 23.582031 21.564453 C 23.350259 21.491553 22.77747 21.327783 22.46875 21.330078 z M 0.4453125 21.566406 C 0.40345787 21.566965 0.3701026 21.576786 0.34570312 21.599609 C 0.16689578 21.767744 0.03522187 21.800799 0.140625 22.673828 C 0.33188754 24.258026 0.8962309 23.018802 1.5585938 22.974609 C 2.1631864 22.934269 2.7480153 22.984382 2.890625 23.039062 C 3.1279626 23.136942 3.4484669 23.108341 3.6132812 22.988281 C 3.7780786 22.868216 3.8490879 22.915333 4.0390625 22.884766 C 4.2289741 22.854086 4.7146798 23.481749 5.1171875 23.681641 C 5.6956768 23.902937 6.4888934 23.591259 6.9160156 24.203125 C 7.4213177 24.9519 7.3142321 25.219802 6.59375 24.957031 C 6.2949625 24.842395 6.0071807 24.928554 5.6132812 25.283203 C 5.1886589 25.629448 4.9207599 25.705055 4.5800781 25.5625 C 4.3315183 25.445158 2.5173855 26.187423 2.0253906 26.037109 C 1.3651636 25.835397 0.45779435 24.959027 0.79101562 26.126953 C 1.1067411 27.233566 1.0428614 27.62381 2.0234375 27.693359 C 2.9704918 27.760529 2.4891304 26.957894 3.125 26.65625 C 3.6964737 26.385155 4.2209483 26.797924 4.3613281 26.542969 C 4.4256041 26.428464 5.2718661 26.13712 5.4785156 26.226562 C 5.8387572 26.357959 6.5320175 26.209703 7.8671875 25.550781 C 8.1911983 25.391652 8.3427579 25.161045 8.8144531 25.166016 C 9.2942229 25.249116 9.6142747 25.046404 9.8496094 24.90625 C 10.271599 24.654941 11.431695 25.21094 11.591797 24.763672 C 11.949254 23.765066 11.241696 23.881241 11.074219 23.587891 C 10.906741 23.294539 10.501232 24.028079 9.0234375 24.113281 C 8.157942 24.170471 7.3939076 23.275208 6.7460938 22.867188 C 5.6666632 22.189854 5.0115258 22.194678 4.3925781 22.296875 C 4.0964924 22.341355 3.1611975 22.615212 2.3652344 22.628906 C 1.9930943 22.50375 0.84990726 21.561004 0.4453125 21.566406 z M 33.332031 22.210938 C 32.793049 22.200063 32.096532 22.583876 32.908203 22.878906 L 33.820312 23.210938 C 35.171849 23.702199 35.652411 24.550411 36.757812 24.685547 C 38.219079 24.920229 38.230317 27.08578 39.197266 27.447266 C 40.000741 27.770938 41.019953 24.363655 40.283203 23.900391 C 39.91733 23.695173 39.30848 24.309679 39.121094 24.300781 C 38.938717 24.344711 38.678013 24.129539 38.523438 23.904297 C 38.199263 23.295321 36.86703 23.198767 36.455078 23.460938 C 36.13812 23.71994 35.181451 22.571456 33.546875 22.240234 C 33.481151 22.221114 33.409029 22.212491 33.332031 22.210938 z M 21.386719 24.216797 C 21.242896 24.217093 21.100715 24.569855 21.158203 24.837891 C 21.207303 25.005421 21.056915 25.431072 21.210938 25.644531 C 21.319978 25.783706 21.469389 25.854123 21.609375 25.857422 C 21.614983 25.904731 21.623289 25.952947 21.632812 26.005859 C 21.75986 26.711653 22.390893 28.594108 22.617188 28.835938 C 22.783359 28.971787 22.051858 26.768501 21.96875 26.234375 C 21.941278 26.057822 21.916865 25.889967 21.884766 25.755859 C 21.989016 25.656903 22.043083 25.48585 21.994141 25.244141 C 21.929051 24.888891 21.539391 24.355537 21.484375 24.279297 C 21.45343 24.236414 21.419909 24.216729 21.386719 24.216797 z M 30.890625 24.238281 C 30.790181 24.240325 30.784458 24.311739 30.730469 24.453125 C 30.476131 24.909935 30.604734 25.355325 31.537109 25.626953 C 33.555578 26.189 35.305563 27.634993 35.378906 28.332031 C 35.491209 29.196016 35.828484 30.285381 36.525391 30.982422 C 37.185611 31.606091 37.112456 32.527683 37.841797 31.449219 C 38.948375 29.81294 38.690706 29.960905 37.589844 29.734375 C 37.181076 29.634465 36.964844 28.231251 36.964844 27.791016 C 36.964844 26.690425 34.642142 26.134048 33.396484 25.357422 C 32.828806 25.035777 32.122579 24.618251 31.617188 24.4375 C 31.185847 24.303518 30.991069 24.236237 30.890625 24.238281 z M 28.537109 26.03125 C 28.105212 26.039966 27.954956 26.608483 28.128906 26.884766 C 28.462374 27.414407 28.502602 27.441687 29.015625 27.632812 C 29.784569 27.919283 29.928676 28.200939 29.445312 28.837891 C 29.198017 29.110763 30.39099 32.020815 30.648438 32.169922 C 30.734178 32.219632 30.918271 32.098026 31.050781 31.869141 C 31.315802 31.411366 32.350075 31.475479 32.929688 31.925781 C 33.125408 32.115537 33.55035 32.896424 33.857422 33.685547 C 34.164495 34.474655 34.541985 35.075506 34.722656 35.027344 C 35.023216 34.934194 36.249727 33.834287 36.271484 33.576172 C 36.290164 33.35458 35.5014 33.641014 35.275391 33.421875 C 35.010424 33.153824 34.578455 33.034149 34.744141 32.748047 C 34.926355 32.433338 34.730226 31.516315 34.273438 30.525391 C 33.516278 28.864327 33.516747 28.864657 32.429688 28.960938 C 31.506756 29.037658 31.318988 28.966981 31.203125 28.441406 C 31.147385 28.141758 30.841026 27.812321 30.5625 27.765625 C 30.283973 27.718905 29.828508 27.187503 29.541016 26.5625 C 29.349513 26.188588 29.103095 26.072555 28.626953 26.037109 C 28.59568 26.032476 28.565903 26.030669 28.537109 26.03125 z M 9.2949219 26.316406 C 8.9305336 26.316406 8.3839606 26.55089 8.0976562 26.863281 C 7.7853246 27.149642 7.3957214 27.436857 7.1875 27.462891 C 6.9792796 27.488921 6.5095551 27.696677 6.1191406 27.878906 C 5.3643398 28.243365 5.1051678 29.181641 5.7558594 29.181641 C 5.9640778 29.181641 6.3009076 29.259797 6.5351562 29.337891 C 6.847487 29.442014 6.953125 29.337757 6.953125 28.947266 C 6.953125 28.634874 7.1081859 28.400391 7.3164062 28.400391 C 7.5246287 28.400391 8.2015096 27.932094 8.8261719 27.359375 C 9.8933034 26.370132 9.9195842 26.342439 9.2949219 26.316406 z M 12.357422 26.894531 C 11.328404 26.868696 9.7326453 28.980727 8.7167969 30.580078 C 8.0569809 31.163167 6.27833 31.362493 5.9003906 31.146484 C 5.7113 31.011479 5.3070488 30.904297 5.0371094 30.904297 C 4.7401268 30.904297 4.279727 30.715659 4.0097656 30.472656 C 3.5778268 30.040632 2.7752407 29.732039 2.6132812 30.164062 C 2.3704302 30.785096 3.7684814 31.794479 4.4433594 31.605469 C 4.8212998 31.497442 5.1717683 31.661384 5.46875 32.066406 C 5.8736686 32.579433 6.0085658 32.605608 6.5214844 32.308594 C 6.818466 32.119576 7.141311 31.985405 7.1953125 32.066406 C 7.2494085 32.120416 7.1972077 32.822429 7.0351562 33.605469 C 6.8936506 34.345863 6.0039889 34.275643 5.9550781 34.591797 C 5.8827031 35.059673 6.7253377 35.715215 7.0449219 35.757812 C 7.3272035 35.725682 7.6855469 35.257712 7.6855469 35.095703 C 7.6855469 34.906685 7.9251175 34.252091 8.3300781 33.955078 C 8.7620189 33.631062 8.9878521 32.839199 9.2578125 32.326172 C 9.5006627 31.840148 10.111114 31.389841 10.246094 31.173828 C 10.678035 30.417791 12.590058 27.066307 12.455078 26.904297 C 12.423103 26.898926 12.390616 26.895365 12.357422 26.894531 z M 13.757812 29.275391 C 13.247967 29.3088 12.080235 31.809025 11.806641 32.515625 C 11.495338 33.259859 11.095553 33.904259 10.892578 33.935547 C 10.718483 33.951977 10.418863 34.433444 10.236328 35.001953 C 10.053797 35.570462 9.842091 36.081249 9.7265625 36.140625 C 9.6110301 36.199995 9.4215868 36.396832 9.2734375 36.738281 C 9.1973525 36.913627 8.465209 37.03681 8.9550781 37.449219 C 9.5912616 37.984809 11.123112 38.987534 11.525391 38.160156 C 11.724367 37.765773 11.110323 36.830468 11.3125 36.726562 C 11.543556 36.60781 11.594008 35.583782 11.777344 35.087891 C 11.960675 34.592001 12.290014 34.094141 12.492188 33.990234 C 12.694363 33.886324 12.808578 33.681547 12.734375 33.537109 C 12.660185 33.392674 12.830341 33.085881 13.103516 32.835938 C 13.606951 32.394624 14.715017 29.552751 13.806641 29.279297 C 13.791615 29.275095 13.774259 29.274313 13.757812 29.275391 z M 16.660156 29.300781 C 16.33318 29.293011 15.958062 29.486937 15.779297 29.757812 C 14.984613 30.936158 15.404177 32.325929 15.515625 33.521484 C 15.715108 34.951325 15.647925 35.150779 14.617188 36.214844 C 13.686302 37.179153 13.58745 37.446336 13.919922 38.078125 C 14.119405 38.510401 12.845615 38.968258 12.912109 39.300781 C 12.978589 39.666554 14.685248 40.171726 14.917969 40.271484 C 16.400501 40.589637 15.785333 40.194162 15.652344 39.628906 C 15.519398 39.063619 15.294319 38.719383 15.759766 38.287109 C 16.158714 37.921335 16.3125 37.31299 16.3125 36.980469 C 16.3125 35.883152 16.397986 35.930434 16.898438 35.517578 C 17.488312 35.030943 17.666181 34.632758 17.625 34.203125 C 17.491873 33.704344 17.513815 33.512452 17.414062 33.013672 C 17.314352 32.51489 17.209042 31.832741 17.011719 31.226562 C 16.83952 30.816616 17.305984 30.081777 17.21875 29.740234 C 17.140359 29.433494 16.914471 29.306825 16.660156 29.300781 z M 22.947266 29.929688 C 22.858416 29.919024 22.815223 30.054051 22.744141 30.324219 C 22.317627 31.774581 22.260666 32.713812 22.488281 33.197266 C 22.971625 34.107297 23.484139 36.097929 23.541016 37.207031 C 23.626226 40.05088 23.647291 40.428122 24.1875 40.570312 C 24.528703 40.655622 26.45025 40.253245 26.933594 39.712891 C 27.786602 38.717544 26.385063 38.600637 25.816406 38.117188 C 25.446769 37.832802 25.445972 37.690487 25.787109 37.207031 C 26.12829 36.723577 26.12862 36.525414 25.730469 35.814453 C 25.446141 35.359437 25.162557 34.988281 25.048828 34.988281 C 24.906634 34.988281 24.820313 34.676341 24.820312 34.306641 C 24.820312 33.936944 24.621891 33.482271 24.394531 33.283203 C 24.166893 33.084126 23.966797 32.515797 23.966797 32.003906 C 23.966797 31.492011 23.740317 30.779858 23.427734 30.410156 C 23.171833 30.097334 23.036116 29.940351 22.947266 29.929688 z M 26.085938 30.791016 C 26.032417 30.787624 25.986777 30.805958 25.947266 30.855469 C 25.736539 31.119525 25.962763 32.128416 26.169922 32.763672 C 26.468317 33.330868 26.41514 33.791016 26.583984 34.291016 C 26.895699 35.214093 26.894571 35.214739 27.224609 34.289062 C 27.503714 33.466336 27.568565 33.529596 28.166016 35.298828 C 28.478236 36.350282 28.566628 38.096198 28.927734 38.53125 C 29.559558 39.260488 30.485807 38.61096 30.90625 37.826172 C 31.211842 37.208745 30.76537 36.906662 30.275391 36.34375 C 29.888301 35.831781 29.718535 35.203683 29.818359 34.484375 C 30.031503 33.212592 28.869646 31.677319 28.166016 32.257812 C 27.935806 32.464143 27.621155 31.742385 27.09375 31.449219 C 26.675783 31.242267 26.317859 30.805712 26.085938 30.791016 z M 19.923828 31.298828 C 19.601943 31.290156 19.122131 31.737497 18.921875 31.939453 C 18.484276 32.339121 18.584665 34.317197 19.103516 34.876953 C 19.446483 35.29979 19.736399 35.579111 19.830078 35.763672 C 20.147128 36.388319 20.338893 37.118373 20.097656 37.318359 C 19.615513 37.887907 19.304511 38.273082 19.380859 38.564453 C 19.413459 38.886114 18.137424 40.07703 17.851562 40.244141 C 17.136912 40.661919 18.448448 41 20.498047 41 C 22.547896 41 21.830886 40.601617 21.041016 40.152344 C 20.793661 40.057194 20.776638 39.559689 21.0625 39.392578 C 21.419825 39.183688 21.888903 38.907425 21.59375 38.648438 C 21.241971 38.374597 21.279608 38.112579 21.6875 37.826172 C 22.130513 37.579128 21.670867 37.196397 21.822266 36.808594 C 21.990927 36.46608 21.697634 35.01661 20.822266 34.783203 C 19.689919 34.486192 20.278457 33.897555 20.355469 33.373047 C 20.374719 32.836007 20.193027 32.465411 20.222656 32.179688 C 20.290617 31.524259 20.144066 31.304762 19.923828 31.298828 z M 31.552734 33.398438 C 31.322015 33.404776 31.052306 33.677473 30.904297 34.166016 C 30.77604 34.55636 30.924675 34.92009 31.34375 35.216797 C 31.713525 35.478597 31.860963 36.076089 31.925781 36.455078 C 32.065664 37.14629 32.103678 37.471972 33.039062 36.638672 C 34.344184 35.698338 33.904112 35.708566 33.232422 35.455078 C 32.933552 35.354513 32.794685 35.20614 32.761719 34.886719 C 32.753319 34.584746 32.583074 34.354971 32.382812 34.324219 C 32.207201 34.310939 31.994983 34.087616 31.919922 33.775391 C 31.848916 33.514618 31.710595 33.394101 31.552734 33.398438 z " />
</svg>
