<?xml version="1.0" encoding="UTF-8" standalone="no"?>
<!-- Created with Inkscape (http://www.inkscape.org/) -->

<svg
   width="49"
   height="49"
   id="svg2"
   version="1.1"
   xmlns="http://www.w3.org/2000/svg"
   xmlns:svg="http://www.w3.org/2000/svg"
   xmlns:rdf="http://www.w3.org/1999/02/22-rdf-syntax-ns#"
   xmlns:cc="http://creativecommons.org/ns#"
   xmlns:dc="http://purl.org/dc/elements/1.1/">
  <defs
     id="defs4" />
  <metadata
     id="metadata7">
    <rdf:RDF>
      <cc:Work
         rdf:about="">
        <dc:format>image/svg+xml</dc:format>
        <dc:type
           rdf:resource="http://purl.org/dc/dcmitype/StillImage" />
      </cc:Work>
    </rdf:RDF>
  </metadata>
  <path
     id="path4217-5-4-7-6-7-5-5-7-4-9"
     style="fill:#000000"
     d="M 29.445312 0.50195312 C 24.587833 6.4579216 25.338022 16.374402 24.826172 22.898438 C 27.685416 14.954272 31.884744 11.357073 29.445312 0.50195312 z M 24.826172 22.898438 A 1.6334579 1.6334629 0 0 0 24.5 22.865234 A 1.6334579 1.6334629 0 0 0 24.251953 22.884766 A 1.6334579 1.6334629 0 0 0 24.248047 22.884766 C 24.238858 22.886219 24.22986 22.889016 24.220703 22.890625 A 1.6334579 1.6334629 0 0 0 24.017578 22.939453 C 23.996282 22.946073 23.976088 22.955403 23.955078 22.962891 A 1.6334579 1.6334629 0 0 0 23.779297 23.035156 C 23.768555 23.040466 23.758679 23.047185 23.748047 23.052734 A 1.6334579 1.6334629 0 0 0 23.552734 23.169922 A 1.6334579 1.6334629 0 0 0 23.365234 23.328125 C 23.357275 23.335858 23.349591 23.343675 23.341797 23.351562 A 1.6334579 1.6334629 0 0 0 23.195312 23.521484 C 23.188912 23.53004 23.182013 23.538195 23.175781 23.546875 A 1.6334579 1.6334629 0 0 0 23.060547 23.732422 C 23.053973 23.744784 23.047276 23.756992 23.041016 23.769531 A 1.6334579 1.6334629 0 0 0 22.955078 23.980469 C 22.953032 23.986569 22.949242 23.991917 22.947266 23.998047 C 16.927255 21.084353 7.8385917 18.908298 1.2011719 16.984375 C 5.4881076 25.478088 15.335577 23.134107 22.945312 24.003906 C 22.94449 24.006468 22.944169 24.009154 22.943359 24.011719 A 1.6334579 1.6334629 0 0 0 22.886719 24.248047 A 1.6334579 1.6334629 0 0 0 22.867188 24.498047 A 1.6334579 1.6334629 0 0 0 22.900391 24.808594 C 22.905621 24.835641 22.911395 24.861993 22.917969 24.888672 A 1.6334579 1.6334629 0 0 0 23.007812 25.158203 A 1.6334579 1.6334629 0 0 0 23.013672 25.175781 C 23.017075 25.183258 23.021875 25.189841 23.025391 25.197266 A 1.6334579 1.6334629 0 0 0 23.169922 25.441406 C 23.185549 25.463471 23.202002 25.484544 23.21875 25.505859 A 1.6334579 1.6334629 0 0 0 23.429688 25.732422 A 1.6334579 1.6334629 0 0 1 23.431641 25.734375 C 16.440378 31.526338 4.2427458 34.080228 8.5585938 43.09375 C 12.8426 35.933027 18.131719 33.228559 23.433594 25.736328 C 23.450723 25.751048 23.47062 25.761442 23.488281 25.775391 A 1.6334579 1.6334629 0 0 0 23.644531 25.886719 C 23.673271 25.904377 23.702719 25.919739 23.732422 25.935547 A 1.6334579 1.6334629 0 0 0 23.886719 26.007812 C 23.91714 26.020132 23.947408 26.032503 23.978516 26.042969 A 1.6334579 1.6334629 0 0 0 24.154297 26.089844 C 24.180456 26.09551 24.205963 26.103041 24.232422 26.107422 A 1.6334579 1.6334629 0 0 0 24.5 26.130859 A 1.6334579 1.6334629 0 0 0 24.769531 26.107422 C 24.789516 26.104041 24.808373 26.097853 24.828125 26.09375 A 1.6334579 1.6334629 0 0 0 25.021484 26.042969 C 25.044551 26.035112 25.067229 26.026431 25.089844 26.017578 A 1.6334579 1.6334629 0 0 0 25.285156 25.925781 C 25.296103 25.919733 25.307563 25.914496 25.318359 25.908203 A 1.6334579 1.6334629 0 0 0 25.533203 25.759766 A 1.6334579 1.6334629 0 0 0 25.892578 25.345703 A 1.6334579 1.6334629 0 0 0 26.011719 25.109375 C 26.016326 25.097946 26.019079 25.085783 26.023438 25.074219 A 1.6334579 1.6334629 0 0 0 26.097656 24.820312 A 1.6334579 1.6334629 0 0 0 26.132812 24.498047 A 1.6334579 1.6334629 0 0 0 26.107422 24.212891 A 1.6334579 1.6334629 0 0 0 26.037109 23.947266 A 1.6334579 1.6334629 0 0 0 26.035156 23.943359 A 1.6334579 1.6334629 0 0 0 25.919922 23.693359 A 1.6334579 1.6334629 0 0 0 25.919922 23.691406 C 25.919474 23.690619 25.918418 23.69024 25.917969 23.689453 A 1.6334579 1.6334629 0 0 0 25.763672 23.464844 C 25.762789 23.463763 25.762604 23.462016 25.761719 23.460938 A 1.6334579 1.6334629 0 0 0 25.574219 23.267578 A 1.6334579 1.6334629 0 0 0 25.351562 23.105469 A 1.6334579 1.6334629 0 0 0 25.101562 22.980469 A 1.6334579 1.6334629 0 0 0 24.826172 22.898438 z M 26.097656 24.820312 C 32.482596 27.484554 41.988882 32.211462 48.507812 29.373047 C 45.141849 21.781036 32.646029 25.039808 26.097656 24.820312 z M 23.552734 23.169922 C 18.204664 17.641124 10.212971 15.224938 10.958984 4.0117188 C 10.959073 4.0103886 10.958896 4.0091429 10.958984 4.0078125 C 10.959073 4.0064821 10.958895 4.0052369 10.958984 4.0039062 C 2.4026941 17.446878 17.735278 19.407607 23.552734 23.169922 z M 17.611328 0.98828125 C 13.774788 7.1193055 19.760539 15.64273 23.941406 22.763672 C 22.689138 15.592707 21.095321 7.7833915 17.611328 0.98828125 z M 29.244141 1.2753906 C 27.42315 8.2566988 26.290254 14.657485 25.199219 20.804688 C 25.520478 14.600959 25.488705 6.6039816 29.244141 1.2753906 z M 29.296875 1.4882812 C 30.119228 6.2677154 29.768234 9.6731937 28.78125 12.683594 C 27.95523 15.203051 26.717549 17.708486 25.535156 20.539062 C 27.174129 14.768904 28.230267 8.5865684 29.296875 1.4882812 z M 17.576172 1.703125 C 17.35074 8.2066892 19.8694 13.564559 23.046875 20.736328 C 21.270023 17.701534 19.341472 14.521399 18.060547 11.410156 C 16.611159 7.8897158 16.111551 4.5551949 17.576172 1.703125 z M 17.695312 1.7988281 C 20.610539 7.7722565 22.072312 14.574592 23.271484 20.804688 C 20.754901 13.64959 18.584521 9.8763769 17.695312 1.7988281 z M 10.695312 5.1289062 C 10.440983 9.9374028 12.120408 13.202281 14.587891 15.763672 C 16.513496 17.762549 18.783699 19.448716 20.914062 21.240234 C 15.421656 17.642472 8.4414487 14.599633 10.621094 5.2675781 C 10.647267 5.2205999 10.668595 5.1761589 10.695312 5.1289062 z M 10.103516 6.2460938 C 7.8364907 14.130795 14.989313 18.214868 20.595703 21.416016 C 17.839262 20.096817 14.581315 18.81436 12.087891 16.955078 C 10.360995 15.667387 9.0990201 14.118925 8.7714844 12.078125 C 8.5200695 10.511636 8.9561711 8.5596178 10.103516 6.2460938 z M 41.849609 7.3164062 C 41.422124 7.2919516 40.774924 7.4401907 40.460938 7.4394531 C 32.925227 7.4217617 31.423589 15.769282 25.6875 23.373047 C 32.421167 17.770773 41.909481 10.9226 42.261719 7.6171875 C 42.28407 7.4074628 42.106101 7.331079 41.849609 7.3164062 z M 40.501953 7.7734375 C 40.809441 7.7776566 41.137248 7.8080471 41.462891 7.8359375 C 35.826532 9.5841506 32.292022 15.696832 26.816406 22.083984 C 29.309387 18.464585 31.150323 14.820791 33.125 12.134766 C 34.244778 10.611607 35.440056 9.393372 36.886719 8.6328125 C 37.610045 8.2525327 38.398858 7.9833879 39.279297 7.8476562 C 39.662877 7.7885513 40.071969 7.7674375 40.501953 7.7734375 z M 41.808594 7.859375 C 41.821352 7.8607075 41.832926 7.8599704 41.845703 7.8613281 C 41.706842 8.4315228 41.260609 9.2390254 40.335938 10.279297 C 39.309647 11.433868 37.879192 12.789852 36.246094 14.234375 C 33.500734 16.66272 30.230162 19.29615 27.242188 21.751953 C 32.817997 15.812798 35.911983 11.062805 41.808594 7.859375 z M 44.927734 14.96875 C 39.555483 14.88967 31.938351 22.181775 26.056641 23.998047 C 34.464769 22.827569 43.009386 22.417393 47.367188 15.65625 C 46.625729 15.192227 45.806832 14.981689 44.927734 14.96875 z M 45.083984 15.291016 C 45.709008 15.316248 46.382006 15.485061 46.927734 15.769531 C 41.102969 17.29646 33.985969 21.442968 27.568359 23.541016 C 27.566604 23.54159 27.564256 23.540442 27.5625 23.541016 C 30.708386 22.223663 34.07559 20.012673 37.380859 18.076172 C 39.279447 16.963825 41.059101 16.047371 42.732422 15.603516 C 43.561327 15.383646 44.324014 15.260339 45.083984 15.291016 z M 46.800781 15.957031 C 44.536197 18.969549 41.720542 20.578031 38.203125 21.609375 C 35.211358 22.486595 31.821709 22.974392 28.417969 23.425781 C 35.475076 21.603601 40.939535 19.081204 46.800781 15.957031 z M 1.7929688 17.412109 C 7.6056775 19.178876 15.273723 21.058694 20.996094 23.474609 C 14.187807 21.742323 6.3863935 20.805114 1.8320312 17.474609 C 1.8194583 17.453019 1.8054647 17.433859 1.7929688 17.412109 z M 2.0917969 17.894531 C 6.5414358 21.950306 14.017789 22.158108 21.369141 23.65625 C 17.933503 23.365416 14.256005 23.504661 10.869141 23.027344 C 7.3245874 22.527798 4.2153687 21.228656 2.0917969 17.894531 z M 37.005859 24.556641 C 37.500208 24.555241 37.957871 24.571614 38.449219 24.589844 C 40.613019 24.670254 42.576193 25.075898 44.279297 25.822266 C 45.823837 26.499145 47.158214 27.474886 47.994141 29.027344 C 42.973867 25.843099 34.254428 25.819754 27.544922 25.011719 C 30.322742 24.959314 33.66926 24.566284 37.005859 24.556641 z M 22.910156 24.908203 C 22.909375 24.908437 22.908984 24.909923 22.908203 24.910156 C 15.713529 26.446967 5.6031119 25.557316 0.78515625 30.677734 C 0.7865329 30.677582 0.78768606 30.677887 0.7890625 30.677734 C 0.79022592 30.67729 0.7918055 30.678179 0.79296875 30.677734 C 10.607934 29.592319 15.047797 29.929401 22.912109 24.908203 C 22.911504 24.908384 22.910762 24.908022 22.910156 24.908203 z M 27.929688 25.318359 C 34.601714 26.972329 41.593922 26.970312 48.095703 29.228516 C 44.62145 30.162502 41.394546 29.994283 37.552734 28.876953 C 34.241152 27.913824 30.816373 26.537346 27.929688 25.318359 z M 21.273438 25.375 C 13.004127 27.627049 6.7088814 27.731009 1.9140625 30.070312 C 4.2417678 28.162933 7.461673 27.229846 10.992188 26.695312 C 14.433268 26.174315 18.011501 25.913402 21.273438 25.375 z M 25.814453 25.46875 C 29.969078 32.035852 36.392071 41.396001 44.214844 39.048828 C 44.214548 39.048384 44.21514 39.04732 44.214844 39.046875 C 44.214201 39.046838 44.213533 39.046913 44.212891 39.046875 C 44.212595 39.04643 44.213187 39.045366 44.212891 39.044922 C 39.762669 32.361372 32.525608 28.851826 25.814453 25.46875 z M 20.994141 25.664062 C 14.585277 29.309841 9.9934351 29.451792 1.796875 30.306641 C 9.4074793 27.598095 13.469443 28.446082 20.994141 25.664062 z M 25.099609 26.017578 C 26.13414 36.748829 23.681665 44.915821 33.482422 47.292969 C 33.482643 47.292385 33.482201 47.291599 33.482422 47.291016 C 35.930633 40.830647 28.584018 33.481237 25.099609 26.017578 z M 24.082031 26.076172 C 17.966432 38.381596 12.472662 40.234038 18.226562 48.183594 C 23.68326 43.28321 23.988134 32.810476 24.082031 26.076172 z M 27.064453 26.425781 C 33.19818 29.537065 39.300456 33.085584 43.652344 38.767578 C 35.894199 34.868749 32.435665 30.653725 27.064453 26.425781 z M 26.900391 26.642578 C 32.307892 32.45303 38.203474 38.077299 43.326172 38.941406 C 39.861734 39.62731 36.902793 38.020871 34.056641 35.390625 C 31.374581 32.912017 28.852532 29.628858 26.900391 26.642578 z M 23.794922 27.134766 C 23.736997 30.329351 23.483075 34.18362 22.791016 37.84375 C 22.053685 41.743343 20.595478 45.276723 18.310547 47.705078 C 18.911479 44.492871 21.538393 35.481125 23.794922 27.134766 z M 21.646484 27.257812 C 14.737147 32.947004 8.3815479 36.000834 8.4921875 42.132812 C 7.8207539 40.341692 7.8929574 38.873315 8.3730469 37.607422 C 8.9310606 36.136137 9.9578737 35.030796 11.582031 33.845703 C 14.323028 31.84569 18.149559 29.778271 21.646484 27.257812 z M 25.417969 27.347656 C 27.448264 35.843431 29.071993 43.189179 32.957031 46.830078 C 31.024813 46.12007 29.536804 45.441357 28.517578 44.332031 C 27.391769 43.106708 26.687584 41.536931 26.322266 39.724609 C 25.656842 36.423472 25.768764 32.148532 25.417969 27.347656 z M 23.628906 27.388672 C 20.14159 37.424051 17.207117 41.771857 18.101562 47.484375 C 17.014064 45.647525 16.390903 44.370314 16.21875 43.083984 C 16.027805 41.657192 16.23929 40.197184 17.027344 38.771484 C 18.572843 35.97533 20.840703 32.721438 23.628906 27.388672 z M 25.589844 27.425781 C 27.306798 30.743073 29.452047 34.06019 31.179688 37.203125 C 33.083432 40.666346 34.098109 43.958447 33.298828 46.951172 C 30.564146 41.991482 28.241151 35.037937 25.589844 27.425781 z M 21.541016 27.673828 C 16.861939 33.445605 11.331113 37.046096 8.6464844 42.541016 C 8.6350823 42.514365 8.6282629 42.489401 8.6171875 42.462891 C 9.3594723 36.204628 15.160676 33.861808 21.541016 27.673828 z " />
</svg>
