<?xml version="1.0" encoding="UTF-8" standalone="no"?>
<!-- Created with Inkscape (http://www.inkscape.org/) -->

<svg
   width="10"
   height="10"
   id="svg2"
   version="1.1"
   xmlns="http://www.w3.org/2000/svg"
   xmlns:svg="http://www.w3.org/2000/svg"
   xmlns:rdf="http://www.w3.org/1999/02/22-rdf-syntax-ns#"
   xmlns:cc="http://creativecommons.org/ns#"
   xmlns:dc="http://purl.org/dc/elements/1.1/">
  <defs
     id="defs4" />
  <metadata
     id="metadata7">
    <rdf:RDF>
      <cc:Work
         rdf:about="">
        <dc:format>image/svg+xml</dc:format>
        <dc:type
           rdf:resource="http://purl.org/dc/dcmitype/StillImage" />
      </cc:Work>
    </rdf:RDF>
  </metadata>
  <g
     id="layer1">
    <path
       id="path4-0-1-4-1"
       style="fill:#000000"
       d="m 4.262327,9e-5 c -0.02975,8e-4 -0.06612,0.006 -0.10813,0.0158 -0.122033,0.0278 -0.05533,0.15876 -0.03146,0.36914 L 4.297712,1.93465 C 4.386032,2.71306 4.918531,3.41974 4.94256,3.14474 4.96628,2.92692 4.775312,2.60436 4.659456,1.63657 4.603936,1.31873 4.532378,0.78536 4.48055,0.47979 4.41938,0.0959 4.39122,-0.00338 4.262324,10e-5 Z M 6.175246,0.539 C 5.97562,0.548 6.005028,0.77704 5.939326,0.90617 5.762511,1.50102 5.562405,2.47553 5.813502,2.47553 c 0.08789,0 0.05084,0.1386 -0.07471,0.32769 -0.125548,0.2017 -0.214294,0.57999 -0.214294,0.94557 -0.283797,0.4398 -0.320373,0.4971 0.0924,0.76 0.439364,0.31282 0.371474,0.48096 0.568174,0.8824 0.05544,0.11311 0.265237,0.35335 0.365677,0.35335 0.100437,0 0.180423,-0.2683 0.155313,-0.36915 -0.03767,-0.13866 0.01221,-0.13898 0.200533,0.0375 0.301314,0.27734 0.475737,0.2781 0.638949,-0.0118 0.08789,-0.13867 0.173146,-0.0251 0.23592,0.0632 0.06277,0.0756 0.362468,0.17462 0.513126,0.22504 C 8.646125,5.80279 10.072094,5.59903 9.997147,5.19188 9.931297,4.8341 7.735764,5.09758 7.158242,5.12278 6.894591,5.12278 6.727689,5.03058 6.727689,4.95498 6.727689,4.89198 6.618524,4.7714 6.50553,4.7714 6.379982,4.7714 6.274474,4.6149 6.16148,4.36277 6.07245,4.15713 6.12769,3.98684 6.291236,3.81202 6.479559,3.64813 6.73093,3.57239 7.132684,3.585 7.609768,3.585 7.721864,3.5474 7.797193,3.32048 7.92274,3.00533 7.571136,2.5255 7.407924,2.77762 7.345154,2.87847 7.282272,2.87847 7.181835,2.77762 7.081397,2.67677 7.094845,2.57675 7.232945,2.43808 7.345938,2.32463 7.433478,2.18603 7.433478,2.1104 7.433478,2.0348 7.545815,1.79566 7.671364,1.58135 7.92246,1.16535 8.017136,0.83714 7.728374,0.83714 7.597377,0.84844 7.505698,1.16359 7.313549,1.47278 7.110823,1.90103 6.818255,2.21159 6.881029,2.62759 6.956369,3.09402 6.806109,3.30801 6.354141,3.38365 6.065379,3.42145 6.015058,3.34465 6.128051,3.04214 6.178271,2.94129 6.177521,2.72754 6.139851,2.57627 6.089631,2.42499 5.967876,1.88012 6.080881,1.47673 6.218984,0.98509 6.429484,0.76171 6.354154,0.57262 6.279674,0.54742 6.221315,0.53692 6.175249,0.53902 Z m -3.51914,0.39283 c -0.187115,0.006 -0.173498,0.52929 -0.121893,0.71855 0.13304,0.48792 0.115048,0.51002 0.259512,0.68499 0.351536,0.37819 0.680236,0.38636 0.680236,0.13424 0,-0.0756 -0.129137,-0.0414 -0.204463,-0.0414 C 2.971698,2.21655 2.888295,1.96855 2.862535,1.67018 2.833945,1.49561 2.858335,1.15876 2.895955,1.09573 2.933625,1.03273 2.831875,0.9571 2.656105,0.93189 Z m 6.385567,1.07783 c -0.06905,0.008 -0.165489,0.0769 -0.322424,0.20925 -0.238542,0.20169 -0.50302,0.65538 -0.377473,0.65538 0.02511,0 0.323735,-0.10535 0.562277,-0.25663 C 9.18026,2.45378 9.247208,2.28301 9.196987,2.16955 9.153037,2.0561 9.110727,2.00178 9.041673,2.00966 Z M 0.792337,2.54462 c -0.0175,10e-4 -0.03554,0.004 -0.05307,0.0118 -0.219797,0.10585 -0.23177,0.15965 -0.08651,0.33164 0.102988,0.1045 0.300732,0.17404 0.422691,0.1441 0.182936,-0.0449 0.290394,-0.0349 0.34405,0.18556 0.04471,0.18369 0.148184,0.27465 0.24575,0.25071 0.08537,-0.0209 0.217138,0.0395 0.326357,0.11646 0.109219,0.077 0.240897,0.16225 0.292932,0.11055 0.05203,-0.0517 0.206789,-0.05 0.355847,-0.0217 0.206784,0.0531 0.263795,0.0257 0.289001,-0.13621 C 2.973565,3.24119 2.714826,3.38986 2.483104,3.44673 2.166013,3.52453 1.677085,3.22372 1.621996,3.01047 1.547296,2.83951 1.200107,2.58881 1.059719,2.64922 1.030299,2.66782 0.914797,2.5371 0.792344,2.5446 Z m 2.793686,0.28229 c -0.0381,0.001 -0.07677,0.0178 -0.119926,0.0494 -0.150658,0.10085 -0.127411,0.17638 0.224124,0.49153 0.301317,0.28995 0.35195,0.37705 0.188737,0.37705 -0.200878,0 -0.200878,0.0135 0,0.21517 0.213432,0.2143 0.967271,0.32727 0.967271,0.13818 0,-0.0504 0.100539,-0.0999 0.226091,-0.11252 0.138101,0 0.06236,-0.0773 -0.188737,-0.20333 C 4.657595,3.66894 4.42747,3.65789 4.42747,3.59486 4.42747,3.54446 4.291542,3.41522 4.165993,3.41522 4.052999,3.41522 3.942042,3.22849 3.841603,3.052 3.746663,2.896 3.669843,2.82432 3.586023,2.82696 Z M 9.725841,3.53164 C 9.404747,3.55374 8.491224,4.03613 7.659575,4.05871 6.81712,4.08161 6.333449,3.93883 6.362016,4.2423 6.439076,4.46115 6.555945,4.61395 8.353573,4.3193 9.187104,4.17401 9.850965,3.70344 9.845768,3.60272 9.842968,3.54752 9.799938,3.52652 9.725841,3.53162 Z M 4.034272,4.32126 C 3.584247,4.34746 3.195833,4.46964 2.732779,4.51471 2.565806,4.52171 2.373031,4.56571 2.300259,4.61141 2.227489,4.65721 1.927935,4.88412 1.427355,4.8937 0.915213,4.8907 0.245297,4.849 0.123897,4.9292 c -0.194509,0.13796 -0.125813,0.12969 -0.02556,0.24083 0.206034,0.19868 0.405911,0.0563 0.754944,-0.004 0.264228,-0.0762 0.662912,0.0403 0.841448,0.0454 0.178536,0.005 0.510653,-0.191 0.66844,-0.29413 C 2.617872,4.75714 3.018071,4.69958 3.407115,4.8423 3.65435,4.94506 3.571513,5.14984 3.65483,5.15222 3.73816,5.15422 3.855348,5.22912 3.900581,5.3141 3.980171,5.44794 4.102405,5.42225 4.165991,5.2805 4.204421,5.1859 4.067571,4.97737 3.947765,4.86003 3.860245,4.78993 3.770611,4.66011 3.876995,4.63499 4.307519,4.57559 4.402231,4.36753 4.034276,4.32111 Z m 0.857175,0.0355 C 4.672274,4.35276 4.488091,4.42086 4.397981,4.54824 3.917397,5.36339 4.92224,6.18178 5.498941,5.51947 5.979526,5.01 5.840811,4.70032 5.312171,4.44559 5.167997,4.38829 5.022952,4.35949 4.891447,4.35679 Z M 3.086659,5.36747 c -0.05063,0.002 -0.115357,0.0218 -0.194634,0.0612 -0.161937,0.0663 -0.212352,0.24462 -0.210362,0.34545 0.0018,0.0882 -0.143354,0.27382 -0.25558,0.31387 -0.12453,0.0529 -0.3299,0.1244 -0.440384,0.25268 C 1.740122,6.62295 1.272177,6.78591 1.053815,6.53808 0.886658,6.33966 0.478954,6.50068 0.320496,6.74338 0.235116,6.87116 0.550969,7.0748 0.739255,7.07106 0.789465,7.07006 1.015929,7.12986 1.215026,7.03746 1.401821,6.95806 1.628036,6.87881 1.690798,6.87756 1.941349,6.84736 2.572117,6.41874 2.903822,6.04649 3.253507,5.67073 3.306044,5.35834 3.086659,5.36742 Z m 2.669828,0.0276 c -0.01691,0.002 -0.03069,0.006 -0.04129,0.0158 -0.125548,0.12606 0.06908,1.33652 0.499364,1.68977 0.0486,0.0399 0.06955,0.40709 0.05702,0.5547 -0.04476,0.52742 0.0027,0.68272 0.09043,0.77383 C 6.562888,8.53004 6.694574,8.41127 6.65691,8.02054 6.61924,7.70538 6.64494,7.59231 6.74538,7.65534 c 0.07534,0.0504 0.137621,0.20285 0.137621,0.34151 0,0.12607 0.06304,0.23886 0.125824,0.23886 0.07534,0 0.125824,0.11401 0.125824,0.25268 0.08806,0.313 0.04922,0.79904 0.489533,0.75606 0.238543,0 0.492325,-0.448 0.153349,-0.93965 C 7.526434,7.92662 7.146272,7.83139 7.246711,7.62968 7.384814,7.36496 7.373748,7.06781 7.132682,7.03156 6.998523,7.00046 6.631352,6.82404 6.631352,6.53409 6.631352,6.47109 6.518566,6.33215 6.367908,6.24391 6.229805,6.15571 6.260231,5.94327 6.285338,5.85502 6.342218,5.70651 5.919969,5.37978 5.756484,5.39507 Z m -1.44501,0.21714 c -0.01522,10e-4 -0.02956,0.005 -0.04521,0.01 C 4.194677,5.64571 4.201007,5.80696 4.112918,5.942 4.012892,6.08097 3.848875,6.22852 3.729549,6.26772 3.598291,6.31082 3.540536,6.50124 3.558507,6.84019 c 0.0032,0.045 0.01025,0.0889 0.01966,0.13029 0,0 -0.002,0.002 -0.002,0.002 C 3.524547,7.02378 3.470473,7.08061 3.418886,7.14225 3.199365,7.39074 2.959198,7.58942 2.876271,7.57457 2.806511,7.55777 2.627348,7.70506 2.481105,7.90225 2.334861,8.09943 2.183867,8.26958 2.131156,8.27733 2.078446,8.28533 1.980724,8.4496 1.928659,8.64647 1.811344,9.04211 1.908839,9.06734 2.237321,8.73527 2.366854,8.60812 2.552032,8.48629 2.644282,8.47273 2.749705,8.45733 2.873038,8.15986 3.009958,7.99107 3.146879,7.8223 3.397414,7.82103 3.489663,7.80748 c 0.09224,-0.0135 0.16299,-0.0779 0.153348,-0.14411 -0.0096,-0.0662 0.307105,-0.0554 0.446281,-0.11646 0.02988,-0.0123 0.05213,-0.0309 0.07077,-0.0553 0.07619,-0.0416 0.108441,-0.15693 0.04521,-0.36123 L 4.134502,6.90336 C 4.055302,6.64742 4.311328,6.3946 4.295714,6.34668 4.280104,6.29878 4.364914,6.19083 4.484449,6.11177 4.7086,5.96353 4.539829,5.59052 4.311442,5.61233 Z m 2.500752,0.19938 c -0.09287,6.9e-4 -0.161082,0.0186 -0.180871,0.0612 -0.09233,0.22335 0.06755,0.41094 0.312593,0.49351 0.115071,0.0388 0.305539,0.043 0.285071,0.12436 -0.02456,0.0976 -0.08174,0.39331 0.08257,0.25663 C 7.559932,6.54071 7.918807,6.62748 8.202189,6.69399 8.387534,6.80951 8.558874,6.99071 8.510851,7.18157 8.487471,7.31492 8.630184,7.46535 9.033807,7.47965 9.22313,7.52765 9.501012,7.36465 9.533171,7.23684 9.568911,7.09482 9.544611,6.86825 9.301183,6.80651 9.098339,6.75511 8.810444,6.68671 8.709417,6.63082 8.684267,6.61082 8.664037,6.59492 8.644547,6.57952 8.601187,6.40073 8.244343,6.19093 7.814895,6.02481 7.605706,5.95871 7.090882,5.80954 6.812235,5.81162 Z m -1.496125,0.0592 c -0.399162,-0.006 -0.531473,0.16822 -0.644849,0.74224 -0.0028,0.36214 0.101164,0.65341 0.151382,0.65341 0.05022,0 0.07623,0.20069 0.05111,0.44019 -0.05022,0.39081 -0.09975,0.4422 -0.401064,0.44219 -0.351535,0 -0.60346,0.30155 -0.377472,0.44022 0.07534,0.0504 0.125824,0.0137 0.125824,-0.0493 0,-0.0756 0.0883,-0.14015 0.188736,-0.14015 0.225987,0 0.225987,-0.0494 0,0.83304 C 4.309333,9.63603 4.288325,9.92522 4.313441,9.96303 4.413878,10.0639 4.840672,9.97383 4.895377,9.49519 4.959767,9.24714 5.033446,8.97871 5.058555,8.41143 5.083665,7.9198 5.540811,7.85614 5.628696,7.7679 5.704036,7.6923 5.708096,6.97558 5.695536,6.82431 5.687836,6.45161 5.594431,5.88744 5.39867,5.8748 5.36963,5.8728 5.34271,5.8708 5.3161,5.8708 Z m 0.517057,2.55639 c -0.129813,2.6e-4 -0.256353,0.32166 -0.204463,0.56456 0.0444,0.15182 -0.09186,0.53498 0.04718,0.72842 0.273207,0.35012 0.825564,0.22287 0.70776,-0.36124 -0.0588,-0.32193 -0.412353,-0.80541 -0.46201,-0.8745 -0.02793,-0.0389 -0.05851,-0.0574 -0.08847,-0.0573 z" />
  </g>
</svg>
