<?xml version="1.0" encoding="UTF-8" standalone="no"?>
<!-- Created with Inkscape (http://www.inkscape.org/) -->

<svg
   width="49"
   height="49"
   id="svg2"
   version="1.1"
   xmlns="http://www.w3.org/2000/svg"
   xmlns:svg="http://www.w3.org/2000/svg"
   xmlns:rdf="http://www.w3.org/1999/02/22-rdf-syntax-ns#"
   xmlns:cc="http://creativecommons.org/ns#"
   xmlns:dc="http://purl.org/dc/elements/1.1/">
  <defs
     id="defs4" />
  <metadata
     id="metadata7">
    <rdf:RDF>
      <cc:Work
         rdf:about="">
        <dc:format>image/svg+xml</dc:format>
        <dc:type
           rdf:resource="http://purl.org/dc/dcmitype/StillImage" />
      </cc:Work>
    </rdf:RDF>
  </metadata>
  <path
     id="path32-48-1-98-5-0-6"
     style="fill:#000000"
     d="M 24.5 0 C 24 0 23.449036 0.066751875 23.003906 0.23242188 C 22.346126 0.47717188 21.755556 0.51990125 21.697266 0.36328125 C 21.522456 -0.10654875 19.772827 0.65173622 19.748047 1.1601562 C 19.716447 1.4574063 19.639937 1.4479756 19.523438 1.1347656 C 19.352258 0.7705556 19.021365 0.60942688 18.109375 0.84179688 C 17.396975 1.0355669 16.252451 1.3849594 16.119141 1.5058594 C 15.738901 1.8256294 16.383686 3.18275 16.791016 3.03125 C 16.947616 2.97295 17.146111 2.3460331 17.087891 2.1894531 C 16.889761 1.6569731 18.451819 1.2775556 18.880859 1.7597656 C 19.430809 2.3752956 18.832381 3.7816831 18.050781 3.5019531 C 17.730271 3.4072531 17.303972 3.5008112 16.857422 3.7382812 C 16.56152 3.8800724 16.356365 3.9819678 16.253906 4.0644531 C 16.155195 4.1115107 16.075228 4.1737336 16.041016 4.25 C 15.952116 4.44817 15.751444 4.2785994 15.521484 3.8183594 C 15.339364 3.3399094 15.001917 3.0306756 14.810547 3.1035156 C 14.619167 3.1763156 14.431366 2.9730856 14.384766 2.6347656 C 14.313166 2.0868556 14.233959 2.0905275 14.011719 2.5859375 C 13.863539 2.9162075 13.622653 3.0071444 13.501953 2.8339844 C 13.348233 2.6460044 13.157582 2.7182219 13.039062 2.9824219 C 12.905703 3.2796719 12.637613 3.4365563 12.439453 3.3476562 C 12.241283 3.2587562 12.008064 3.5119887 11.958984 3.8867188 C 11.850104 4.3934387 11.726048 4.4970569 11.455078 4.2167969 C 11.235308 3.9991869 11.006869 3.9756481 10.917969 4.1738281 C 10.829069 4.3720081 10.33399 4.575055 9.9746094 4.796875 C 9.6579894 4.972445 9.235475 5.4998325 9.328125 5.6640625 C 9.417025 5.8216525 10.122615 5.6806531 10.421875 5.5332031 C 11.032995 5.2320731 11.227636 4.814115 11.541016 4.984375 C 11.700066 5.070775 12.429163 4.8121956 12.658203 4.4785156 C 13.175533 3.6790456 14.770927 3.4953938 15.029297 4.2460938 C 15.174987 4.6288437 14.939336 5.0264475 14.597656 4.9921875 C 13.806966 5.1809975 13.772969 6.1764344 15.074219 5.5214844 C 15.343069 5.3643644 15.527113 5.1310062 15.439453 4.9726562 C 15.399653 4.7961063 15.575807 4.7552919 15.873047 4.8886719 C 16.203337 5.0368319 16.313188 4.4115381 17.048828 4.2675781 C 17.226397 4.2328351 17.239048 4.1901901 17.185547 4.1464844 C 17.282785 4.1052252 17.383744 4.0662725 17.492188 4.0351562 C 17.899368 3.8836462 18.675933 4.1261481 18.882812 4.2988281 C 19.413812 4.6717881 19.555022 4.4431863 19.263672 3.6601562 C 19.077212 3.1589962 19.771901 2.6846069 20.150391 2.4355469 C 20.394711 2.2747769 20.468832 2.0835844 20.357422 1.8964844 C 20.212192 1.6525644 21.240546 0.97098747 21.697266 1.3359375 C 21.849496 1.4575875 22.709638 1.4031694 23.273438 1.1933594 C 24.776917 0.63393935 26.486611 0.79042872 26.894531 1.8867188 C 27.302431 2.9829988 28.164268 3.0103763 29.179688 2.0976562 C 29.857858 1.5243863 30.148586 2.2820413 31.066406 2.8320312 C 32.296716 3.5510013 32.465288 2.9834194 31.236328 1.6933594 C 30.631738 1.0268494 30.200204 0.9319981 29.933594 1.1738281 C 29.655324 1.3843381 29.343044 1.1199007 29.214844 0.77539062 C 28.997044 0.28588063 28.591814 0.22233 28.371094 0.875 C 28.106664 1.79354 27.801263 1.9352638 27.533203 1.2148438 C 27.181113 0.26860372 26 2.9605947e-16 24.5 0 z M 32.591797 1.5761719 C 32.466527 1.5821719 32.362858 1.6173737 32.298828 1.6835938 C 32.024318 1.8904638 32.319631 2.150865 33.082031 2.390625 C 33.730031 2.594415 33.598118 3.2379581 33.423828 3.3925781 C 33.166208 3.7206181 33.862126 3.64105 34.035156 4.15625 C 34.208246 4.67143 34.400194 4.8576744 34.496094 4.5527344 C 34.627934 4.1334444 34.881106 4.0877469 35.322266 4.5292969 C 36.009636 5.2172769 36.113919 5.095685 37.193359 5.265625 C 38.386199 5.453425 37.366486 6.5670938 38.384766 6.2460938 C 38.735496 6.0631838 38.836511 6.7465038 39.332031 6.9023438 C 40.094391 7.1421098 41.003411 7.1844794 40.925781 8.3808594 C 40.839081 9.7172824 40.096574 10.560716 40.058594 11.683594 C 40.009494 13.133932 38.449312 12.890672 38.013672 13.244141 C 37.691962 13.505171 39.478553 14.031638 39.783203 13.541016 C 40.175003 12.910033 40.69535 12.535883 40.84375 11.837891 C 41.11212 10.575623 41.468454 9.4241661 41.621094 8.9394531 C 41.906374 8.0335151 41.457904 6.4108294 40.402344 6.0371094 C 39.880694 5.8311594 39.083266 5.3141656 38.447266 5.0722656 C 37.468186 4.7224556 36.581638 4.57863 36.773438 3.96875 C 36.965247 3.35887 36.518994 2.8677944 35.339844 3.0839844 C 34.634304 3.2133444 33.809121 2.074345 33.425781 1.828125 C 33.149221 1.658675 32.830937 1.5652919 32.591797 1.5761719 z M 25.003906 3.1757812 C 23.756423 3.2110988 21.747146 3.9461091 21.457031 4.5878906 C 21.096831 5.3847506 21.401932 6.3519919 21.951172 6.2949219 C 22.286572 6.2284219 22.013494 5.6413456 21.996094 5.1972656 C 21.942494 4.7368156 22.434633 4.4668194 23.414062 4.0371094 C 25.111943 3.7278194 26.586404 3.6849019 26.396484 4.8574219 C 26.122174 6.0978819 26.644824 5.9679675 26.740234 5.3359375 C 26.894694 4.0542175 27.353296 3.686685 25.603516 3.234375 C 25.440477 3.1879422 25.234922 3.169241 25.003906 3.1757812 z M 29.800781 5 C 29.642334 5.0051799 29.540406 5.0379769 29.525391 5.0976562 C 29.408721 5.5612663 29.891809 5.8288194 30.505859 5.6933594 C 30.942549 5.5712694 31.229321 5.7008244 31.644531 6.2402344 C 31.943971 6.6635644 32.297933 6.8677231 32.414062 6.7519531 C 32.796582 6.3842531 31.713887 5.3877913 30.623047 5.1132812 C 30.300909 5.0322138 30.004499 4.9933401 29.800781 5 z M 17.839844 6.0820312 C 17.336261 6.0837626 17.007528 6.2317494 17.041016 6.4082031 C 17.101916 6.7290331 17.890746 6.73487 18.697266 6.78125 C 20.744006 7.057652 20.648438 6.7268906 18.617188 6.1816406 C 18.333681 6.1107938 18.068745 6.0812443 17.839844 6.0820312 z M 9.7089844 6.4335938 C 9.3221365 6.4054784 9.1645887 7.00599 9.1367188 8.0039062 C 9.1733187 8.7466962 8.6786469 9.0631431 8.5605469 8.8457031 C 8.4289469 8.6517031 7.9552512 8.2645425 7.8320312 7.7265625 C 7.7825312 7.5105285 8.3969625 6.6591381 8.0078125 6.5175781 C 7.7498525 6.4237781 6.7722481 7.6215922 6.7363281 7.9414062 C 6.7303281 8.1273262 6.7027625 8.5889056 6.2578125 8.7597656 C 5.6131425 9.0143156 5.3564944 8.9146773 5.3339844 9.8320312 C 5.3011844 10.612806 5.1286894 11.025401 4.6308594 11.40625 C 4.2417094 11.710243 3.8763269 12.29594 3.9355469 12.474609 C 4.0192469 12.674299 3.4663019 13.133779 3.2011719 13.337891 C 2.0899919 14.085402 1.97696 14.529946 2.1875 16.414062 C 2.2717 17.120507 2.1682313 17.672561 2.2695312 18.052734 C 2.3045376 18.184249 2.3029626 18.433245 2.2910156 18.580078 C 1.9545128 18.768634 1.4791216 18.982275 1.1445312 19.287109 C 0.62826128 19.757462 0.39256625 20.963447 0.19140625 21.644531 C -0.20264375 22.889433 0.01529878 23.141893 1.6367188 23.208984 C 2.3746087 23.272734 2.3742587 23.271637 1.5429688 23.53125 C 1.0858387 23.66404 0.36981375 23.644263 0.12109375 23.662109 C 0.03369375 23.655909 -1.8503717e-17 23.749997 0 24 C 0 24.5 0.187725 25.761097 0.171875 26.269531 C 0.210975 28.067492 0.92868688 27.921523 0.93554688 27.261719 C 0.94774687 26.09287 1.4915719 26.41554 1.7324219 26.384766 C 2.1753619 26.286326 1.9850344 26.689501 2.2089844 27.023438 C 2.7456844 27.768314 3.0206194 27.938187 2.7871094 27.238281 C 2.6942094 26.878318 2.6768238 26.701685 2.8710938 26.621094 C 3.0795137 26.506142 3.0315169 26.301245 2.6855469 26.359375 C 2.3053969 26.403335 2.503465 26.094683 2.734375 25.828125 C 3.932165 25.34281 4.1569362 26.905762 3.6914062 27.486328 C 2.7971362 28.337152 1.8271437 29.097734 0.96484375 28.820312 C 0.35570375 28.624337 0.8277244 29.789031 1.1152344 30.03125 C 1.8058944 30.59839 3.0060687 31.869253 2.0742188 33.052734 C 1.3875187 33.935297 2.41869 33.706274 2.6875 35.111328 C 2.92988 36.195424 3.4136656 37.031458 4.2910156 38.310547 C 4.5504756 38.688812 5.6595806 38.89974 5.8691406 39.128906 C 6.2362206 39.530334 6.03392 40.694327 6.53125 41.236328 C 7.6049 42.406417 8.9978869 43.17008 9.5292969 43.886719 C 9.9866269 44.503464 12.789134 46.061334 13.808594 46.546875 C 13.883151 46.582384 13.919265 46.573138 13.947266 46.552734 C 14.191359 46.663977 14.488826 46.684088 14.822266 46.578125 C 15.396976 46.386729 18.031458 47.49267 18.517578 48.107422 C 19.020688 48.75026 20.857208 48.48603 21.142578 48.013672 C 21.373598 47.631291 20.163389 47.130214 19.693359 46.824219 C 19.311179 46.534633 19.376724 45.749666 19.521484 45.558594 C 20.474274 44.756238 20.912987 46.401178 21.748047 47.039062 C 22.632677 47.689355 22.123562 47.674451 22.664062 48.167969 C 23.033953 48.463036 22.54469 48.973506 25 49 C 25.99994 49.01079 26.555882 48.368246 26.701172 47.939453 C 26.863362 47.460753 24.799577 47.778992 25.685547 46.646484 C 26.732517 45.322486 26.912574 46.607564 27.302734 47.005859 C 27.579324 47.288208 27.842841 47.038619 28.363281 47.539062 C 29.543341 48.673806 30.734313 48.357155 33.095703 46.722656 C 34.570483 45.624847 35.59815 45.266857 36.625 45.125 C 38.5347 44.845632 39.591449 44.191679 38.193359 44.15625 C 37.306169 44.14975 37.314614 44.09528 38.240234 43.535156 C 38.840134 43.206609 39.616896 42.849366 40.035156 42.748047 C 41.215426 42.54612 42.732461 41.188036 42.806641 40.306641 C 42.829041 39.890058 43.081711 39.004829 43.519531 38.775391 C 44.093821 38.430623 44.546462 38.434056 44.201172 37.783203 C 43.941312 37.293378 43.509852 36.590483 43.638672 36.287109 C 43.789132 35.932798 44.593544 35.981377 45.646484 35.384766 C 46.455104 34.92659 47.250418 33.551109 47.236328 32.814453 C 47.211628 32.203703 47.302229 31.150028 47.792969 30.291016 C 48.253809 29.480241 49 29 49 27 L 49 25 C 49 24 48.283191 24.171818 48.238281 23.958984 C 48.175681 23.662222 47.612694 23.487627 47.896484 22.777344 C 48.000914 22.515989 48.494901 21.927493 48.275391 21.439453 C 47.821001 20.65854 47.237745 19.098377 47.421875 18.779297 C 47.644085 18.47216 47.716438 17.645586 47.455078 17.144531 C 47.155668 16.631482 46.724601 14.262255 46.207031 13.150391 C 45.255241 11.652619 44.897636 11.362927 44.447266 11.367188 C 43.124936 11.379698 43.058559 10.309639 42.099609 10.539062 C 41.557769 10.668696 43.823351 12.51552 44.369141 12.367188 C 44.833851 12.240891 45.368656 13.223974 45.128906 13.986328 C 45.033006 14.291269 45.226212 14.642202 45.513672 15.193359 C 45.957892 16.045148 45.866401 16.222466 45.363281 16.357422 C 44.860081 16.4924 45.176725 17.218012 45.671875 17.376953 C 46.774295 17.731075 47.74631 22.419838 46.6875 22.248047 C 46.1161 22.107073 42.960036 20.63194 43.384766 21.580078 C 43.564426 21.981217 44.971494 21.991265 44.771484 22.490234 C 44.601064 22.915391 46.083263 22.852201 46.501953 23.015625 C 46.801213 23.132433 47.498318 24.080438 47.548828 24.630859 C 47.580028 24.970474 46.617353 24.930627 46.539062 25.326172 C 46.469662 25.676773 48.080568 25.801131 47.830078 27.419922 C 47.712058 28.182571 46.265226 29.541869 46.191406 30.125 C 46.110106 30.621586 46.196412 31.251578 45.888672 32.189453 C 45.581522 33.127328 44.729521 34.456118 44.212891 34.869141 C 43.898451 35.122187 43.114489 35.336349 42.693359 35.802734 C 42.331149 36.203856 42.3063 36.847565 42.28125 37.214844 C 42.32355 38.272479 41.409825 41.021595 40.671875 40.757812 C 40.163145 40.575966 40.318512 39.98983 39.357422 39.902344 C 38.613502 39.834624 37.895732 39.901214 37.945312 40.296875 C 38.014913 40.852071 39.278992 40.421754 39.544922 40.742188 C 39.750152 40.989497 40.018805 41.371714 39.859375 41.566406 C 39.733455 41.803041 38.988982 42.131691 38.664062 42.019531 C 38.204543 41.855999 37.221691 42.176439 37.244141 42.552734 C 37.270241 43.416771 34.772337 44.592449 34.154297 44.351562 C 33.527617 44.159807 33.238303 44.121167 32.939453 44.873047 C 32.820453 45.384318 32.305029 46.170496 31.693359 46.318359 C 31.221299 46.407499 30.300009 47.142655 29.667969 47.076172 C 29.228659 47.106812 28.177236 46.329498 29.478516 45.195312 C 29.798716 44.916227 31.396472 44.45043 30.982422 44.136719 C 29.528182 43.498042 28.476309 45.160103 28.042969 45.585938 C 27.875569 45.750431 27.570981 45.818132 27.113281 45.470703 C 26.765511 45.206712 26.347817 45.120852 25.992188 45.099609 C 25.453038 45.184219 24.375422 44.638134 24.794922 45.197266 C 25.009452 45.654201 24.681939 45.576476 24.537109 45.767578 C 24.392319 45.958666 24.242879 46.118196 24.480469 46.332031 C 24.820179 46.637794 24.168012 47.487604 23.695312 47.220703 C 22.196532 45.809014 20.259352 43.433414 18.388672 45.625 C 18.147342 45.943474 18.633873 47.357008 17.814453 46.365234 C 17.389883 45.850477 16.826322 45.701629 15.763672 45.648438 C 15.267931 45.612174 14.866683 45.531175 14.519531 45.449219 C 14.091351 44.873086 13.459719 42.36923 12.96875 41.703125 C 11.80105 40.401166 12.584492 42.647724 13.013672 43.833984 C 13.340522 44.672516 13.224298 45.513358 12.210938 44.728516 C 11.663187 44.342464 11.702941 43.149136 11.337891 43.238281 C 11.157351 43.282371 10.742964 43.700799 10.333984 43.125 C 9.9250539 42.549171 9.3465469 41.960158 8.8417969 41.634766 C 8.1510769 41.178388 7.583895 40.902692 7.046875 40.216797 C 6.651155 39.711375 7.0870325 38.66515 6.7890625 38.345703 C 6.3801125 37.907367 5.7641981 38.92862 4.8613281 37.662109 C 4.5057981 37.163383 4.1516225 36.756018 3.9765625 36.244141 C 3.6466625 35.201835 2.9962731 34.027591 3.0957031 33.787109 C 3.1951031 33.546659 3.12045 33.474296 3.40625 33.335938 C 3.90046 33.096711 3.3896075 32.883604 3.2421875 32.345703 C 3.0878175 31.782147 2.8640438 31.731988 2.9335938 31.255859 C 2.9874938 30.886623 2.8686963 30.460844 2.5664062 30.341797 C 1.8054963 30.042129 1.516605 29.587693 2.796875 29.3125 C 3.246555 29.27836 3.9734206 28.898437 3.3378906 28.798828 C 2.5312906 28.706668 3.6582687 28.195515 4.3867188 27.775391 C 4.9999988 27.348242 4.3111787 24.331226 2.2617188 25.511719 C 1.4765987 25.951342 0.97857375 25.852572 0.83984375 25.3125 C 0.55106375 24.284013 0.98486566 24.104798 2.2285156 24.015625 C 2.8250256 23.934315 3.0491938 23.345581 2.8710938 22.919922 C 2.7177838 22.597304 2.4801206 22.460451 1.7753906 22.583984 C 1.4027706 22.651654 0.84046437 22.525596 0.86523438 22.173828 C 0.89603438 21.904944 1.369185 21.809877 1.703125 21.585938 C 2.251435 21.329953 2.2324938 21.282426 1.7148438 21.269531 C 1.2458137 21.236511 0.8222619 21.052556 1.2011719 20.525391 C 1.4746619 20.155789 1.6485606 19.665736 1.9316406 19.662109 C 2.6155608 19.676593 3.5418343 19.286773 3.2597656 18.541016 C 3.25625 18.520215 3.2520836 18.498514 3.2441406 18.476562 C 3.0971406 18.070266 3.1662275 17.192204 3.0546875 16.113281 C 2.9431875 15.034359 2.9824619 14.570322 3.7324219 14.193359 C 4.4823319 13.816397 4.5906988 13.396761 4.6367188 13.095703 C 4.6827188 12.79465 4.9953869 12.324185 5.2792969 12.142578 C 5.5421569 11.985436 5.8851088 11.467502 5.9492188 10.798828 C 5.9838188 10.241514 6.0307256 9.6761421 6.4472656 9.7363281 C 6.7938356 9.7789181 6.9982169 9.4390398 6.9355469 9.2148438 C 6.9180469 8.9872437 7.1306462 8.8349581 7.2539062 8.6425781 C 7.3943962 8.3801981 7.7631175 8.7000166 7.8984375 8.9785156 C 8.3766975 9.8581596 9.2706494 9.8595481 9.4121094 9.0019531 C 9.4547094 8.6553731 9.6468137 8.48182 9.9023438 8.53125 C 10.504434 8.62325 10.714251 7.1427495 10.175781 6.6796875 C 9.9922086 6.521825 9.8379337 6.4429655 9.7089844 6.4335938 z M 13.800781 7.0449219 C 13.26853 7.0411476 12.779537 7.1674551 12.464844 7.3457031 C 11.850694 7.6935711 12.061106 10.604306 12.822266 10.875 C 13.938026 11.271803 12.326644 10.278332 12.677734 8.046875 C 12.795124 7.300815 14.522161 7.3152858 14.988281 7.8398438 C 15.922311 8.8909817 16.723563 8.8650619 15.789062 7.8574219 C 15.241862 7.2674049 14.485104 7.0497745 13.800781 7.0449219 z M 36.066406 7.1113281 C 35.969253 7.1147817 35.867191 7.1421341 35.759766 7.2011719 C 34.992986 7.6225749 34.263969 8.9749293 35.167969 9.2539062 C 35.586409 9.3717423 35.70859 9.2398013 35.625 8.6914062 C 35.5652 8.2534632 35.671312 7.9434111 35.919922 7.9707031 C 36.133032 7.9940931 36.275328 8.332302 36.236328 8.6875 C 36.193428 9.078218 36.660726 9.2737655 36.941406 9.6640625 C 37.451476 10.259038 37.431536 11.022846 36.816406 11.386719 C 36.126356 11.778292 35.629663 12.25205 36.126953 12.306641 C 36.304553 12.326141 36.936252 12.202922 37.294922 11.882812 C 38.047812 11.246508 38.144492 9.6522277 37.576172 9.5898438 C 37.398572 9.5703437 36.991553 9.013334 36.970703 8.40625 C 36.950116 7.8056299 36.591032 7.0926787 36.066406 7.1113281 z M 9.8554688 7.2910156 C 9.8876302 7.2953897 9.9205794 7.3115781 9.9511719 7.3378906 C 10.098032 7.4641806 10.114985 7.69013 10.009766 7.8125 C 9.8834651 7.95937 9.7501119 8.0166994 9.7011719 7.9746094 C 9.6276719 7.9115094 9.5896481 7.7080609 9.6425781 7.4980469 C 9.6664281 7.3589144 9.7589845 7.2778934 9.8554688 7.2910156 z M 10.263672 10.701172 C 9.601863 10.728097 8.8244809 11.570371 8.1679688 12.703125 C 7.6332088 13.630861 7.4869537 14.700723 7.8398438 14.720703 C 7.9481038 14.726828 8.5126381 13.173923 8.8300781 12.671875 C 9.1327181 12.171735 9.8876776 11.596688 10.173828 11.580078 C 10.439898 11.59775 10.772844 11.514604 10.933594 11.240234 C 11.174734 10.828685 11.037625 10.748332 10.328125 10.701172 C 10.307025 10.700327 10.285021 10.700303 10.263672 10.701172 z M 41.351562 14.998047 C 41.030361 15.010426 40.840559 15.202584 40.556641 15.255859 C 40.094281 15.342609 39.664676 15.940585 41.416016 15.550781 C 42.337166 15.345747 41.838452 16.118424 42.164062 16.136719 C 42.648502 16.179519 42.922211 16.668871 43.212891 17.140625 C 43.349561 17.547268 43.393922 17.908972 43.294922 18.28125 C 43.163652 18.660184 43.017166 18.966001 42.916016 18.964844 C 42.683356 18.962244 42.598785 19.111639 42.640625 19.205078 C 42.689325 19.399372 43.572259 19.651525 43.724609 19.509766 L 43.726562 19.509766 C 43.938963 19.36701 43.939707 18.972031 43.935547 18.443359 C 43.928547 17.610519 43.772527 17.139314 43.623047 16.783203 C 43.409707 16.2749 42.915771 15.689479 42.119141 15.238281 C 41.783073 15.047929 41.544283 14.99062 41.351562 14.998047 z M 6.2910156 15 C 6.2689339 15.00259 6.2369103 15.016146 6.1894531 15.039062 C 5.0321331 15.597902 4.7801881 17.424994 5.1738281 18.466797 C 5.5868781 19.431504 6.4822963 19.288315 6.7539062 18.208984 C 6.8606162 17.784961 6.7744788 17.476344 6.5429688 17.582031 C 6.3211188 17.649171 5.2702025 18.361649 5.4765625 17.099609 C 5.6264925 15.870709 6.5044719 14.974961 6.2910156 15 z M 27.685547 16.019531 C 27.197474 16.015886 27.075548 16.735355 26.878906 17.349609 C 26.757326 17.758695 26.472175 17.674474 26.515625 18.126953 C 26.556525 18.553127 26.298653 19.273972 26.189453 19.927734 C 26.055313 20.730828 25.025606 21.721708 25.472656 22.064453 C 25.819326 22.330234 26.293773 21.245581 26.720703 20.253906 C 26.867873 19.959804 27.130894 19.39848 27.121094 18.810547 C 27.092794 18.360118 27.7059 18.231917 27.75 17.25 C 27.76 17.034303 28.880441 16.59225 28.087891 16.148438 C 27.930661 16.060393 27.798179 16.020373 27.685547 16.019531 z M 19.791016 16.763672 C 19.377476 16.772972 19.144712 16.828447 18.982422 16.958984 C 18.820132 17.089521 19.102362 17.6223 19.263672 18.195312 C 19.425862 18.771484 19.683694 19.059678 20.121094 19.603516 C 21.175934 20.612171 21.972299 22.481392 22.824219 22.394531 C 23.415239 22.366341 22.341012 21.434642 22.039062 21.150391 C 21.738543 20.883676 21.565939 19.980567 21.199219 20.007812 C 20.869199 20.032332 20.317838 19.278579 19.986328 18.787109 C 19.845428 18.590905 19.714169 18.216464 19.730469 17.882812 C 19.754669 17.387255 20.204576 16.75436 19.791016 16.763672 z M 23.814453 16.953125 C 23.611086 16.967283 23.52717 17.306958 23.849609 18.060547 C 23.930309 18.418377 23.991263 18.806425 23.976562 18.914062 C 23.961893 19.021699 24.021375 19.257765 24.109375 19.466797 C 24.216975 19.722271 24.15925 20.430764 24.15625 20.644531 C 24.20598 20.736919 24.265397 21.073968 24.341797 20.791016 C 24.381897 20.637987 24.332816 20.368409 24.416016 19.880859 C 24.557786 19.315293 24.33306 18.755332 24.21875 18.060547 C 24.09165 17.539648 24.06283 17.049736 23.9375 16.978516 C 23.89357 16.959518 23.852114 16.950503 23.814453 16.953125 z M 16.011719 21.292969 C 15.818631 21.294138 15.770734 21.497149 15.882812 21.634766 C 16.097252 21.898037 16.623011 22.066488 17.525391 22.539062 C 18.626031 23.107677 19.794744 23.376272 19.871094 23.320312 C 19.919694 23.284412 19.862915 23.232276 19.734375 23.164062 C 19.276145 22.92051 17.881435 22.475346 16.921875 21.869141 C 16.449325 21.570641 16.363941 21.334555 16.050781 21.294922 C 16.036609 21.293128 16.024591 21.292891 16.011719 21.292969 z M 6.5996094 21.578125 C 6.4065969 21.577405 6.0369681 21.714131 5.6425781 21.908203 C 4.9981981 22.225295 4.553915 23.87747 5.859375 24.65625 C 6.466315 24.974083 6.1882356 25.907345 6.0722656 26.435547 C 5.8789656 27.315864 6.1182125 27.438256 6.6640625 26.701172 C 6.9636025 26.296648 7.1485369 25.193685 6.6230469 24.580078 C 5.9574469 23.802875 5.36043 23.350394 6.5 22.064453 C 6.80902 21.715747 6.7926219 21.578845 6.5996094 21.578125 z M 32.568359 22.179688 C 32.248303 22.181081 31.644056 22.622791 31.390625 22.609375 C 30.313245 22.552335 29.829828 22.546863 29.048828 22.601562 C 27.920468 22.680522 26.825994 22.81677 26.808594 23.341797 C 26.951444 24.003509 26.601069 22.768209 31.636719 23.166016 C 32.223009 23.213466 32.901628 23.324527 32.923828 23.03125 C 32.937828 22.843713 32.775391 23.100263 32.775391 22.433594 C 32.775391 22.246094 32.693599 22.179142 32.568359 22.179688 z M 24.119141 23.039062 C 23.698289 23.047615 23.348631 23.186828 23.171875 23.435547 C 22.166385 25.133667 24.269972 26.836754 25.476562 25.457031 C 26.482053 24.395704 26.190014 23.753312 25.083984 23.222656 C 24.782324 23.103248 24.480218 23.044661 24.205078 23.039062 C 24.176418 23.03845 24.147197 23.038492 24.119141 23.039062 z M 19.96875 23.921875 C 19.293145 23.923301 18.54835 23.969786 18.064453 24.005859 C 16.958403 24.088309 16.765553 24.222501 16.570312 24.380859 C 16.127322 24.740151 16.207681 24.976598 15.832031 25.064453 C 15.393791 25.133363 14.336752 26.088794 15.607422 25.873047 C 15.867682 25.847847 15.655474 25.753223 16.177734 25.722656 C 16.699974 25.692086 16.647781 25.265535 17.082031 24.925781 C 17.751661 24.420569 21.472957 24.499578 21.529297 24.259766 C 21.592044 23.992697 20.837384 23.920042 19.96875 23.921875 z M 29.029297 25.189453 C 28.927718 25.18917 28.83665 25.205767 28.761719 25.240234 C 28.521949 25.350533 28.603217 25.568673 28.992188 25.798828 C 29.381158 26.028984 30.023946 26.212998 30.478516 26.257812 C 30.906236 26.286752 31.495936 26.438682 31.791016 26.613281 C 32.059266 26.77201 32.486089 26.828513 32.699219 26.730469 C 32.938989 26.620173 32.858496 26.403613 32.509766 26.197266 C 32.161026 25.99092 31.570842 25.839242 31.169922 25.826172 C 30.769012 25.813102 30.153408 25.643845 29.804688 25.4375 C 29.528051 25.273811 29.252771 25.190077 29.029297 25.189453 z M 43.689453 25.333984 C 43.48563 25.325744 43.447188 25.717841 43.849609 26.820312 C 44.093679 27.854239 43.570989 29.257088 42.917969 29.705078 C 42.621189 29.882518 42.860981 30.139281 43.462891 29.894531 C 44.734381 29.422101 45.169784 28.305008 44.714844 26.677734 C 44.488151 26.015895 43.951512 25.344579 43.689453 25.333984 z M 20.472656 25.986328 C 19.984712 25.984721 18.4212 26.638371 18.496094 26.822266 C 18.526994 26.898196 18.501863 26.987608 18.414062 27.023438 C 18.343663 27.052108 18.108237 27.279157 17.898438 27.519531 C 17.606278 27.859847 17.552954 27.981026 17.746094 28.001953 C 17.917784 28.020553 18.034302 27.95205 18.201172 27.707031 C 18.489852 27.257472 18.9798 26.902549 19.71875 26.601562 C 20.05304 26.465404 20.429412 26.278513 20.576172 26.185547 C 20.785562 26.04492 20.773115 26.016174 20.515625 25.988281 C 20.502212 25.986828 20.488396 25.98638 20.472656 25.986328 z M 26.123047 26.033203 C 26.076594 26.034822 26.043645 26.049278 26.027344 26.078125 C 25.903054 26.298064 26.27476 26.491795 26.46875 26.9375 C 26.57626 27.184508 26.685547 27.550781 26.685547 27.550781 C 26.847017 28.006064 26.777102 27.879447 27.294922 29.072266 C 27.358522 29.218515 27.567299 29.965617 27.636719 30.333984 C 27.734319 30.85168 27.896973 31.017653 28.039062 31.123047 C 28.363743 31.363879 28.595142 31.670003 28.763672 31.285156 C 28.956992 30.843695 28.715307 30.537291 28.460938 30.367188 C 28.170057 30.17265 28.588763 29.895072 28.289062 29.148438 C 28.177212 28.869791 28.101965 28.431429 27.859375 28.03125 C 27.520815 27.789598 27.347448 27.01157 27.205078 26.828125 C 26.778215 26.27811 26.324344 26.026187 26.123047 26.033203 z M 22.804688 26.035156 C 22.595661 26.036872 22.331496 26.268203 22.3125 26.404297 C 22.2819 26.622816 22.217104 27.063201 21.958984 27.457031 C 21.666004 27.862284 21.586711 28.444707 21.400391 28.761719 C 20.848071 29.701425 20.599786 30.099795 19.941406 30.583984 C 19.609676 30.956731 19.057718 31.192426 18.898438 31.380859 C 18.106748 32.317494 19.303432 31.6391 19.701172 31.568359 C 19.971352 31.528769 20.131756 31.405812 20.103516 31.212891 C 20.075316 31.019864 20.447799 30.960548 20.880859 30.859375 C 21.241729 30.775065 21.733287 32.147898 21.929688 32.021484 C 22.147167 31.89646 21.774988 31.354726 21.617188 30.287109 C 21.459387 29.219493 22.385574 28.391714 22.339844 28.251953 C 22.294244 28.112231 22.374519 27.525496 22.724609 27.294922 C 23.413309 26.536819 23.104495 26.131084 22.890625 26.050781 C 22.863891 26.040744 22.834548 26.034911 22.804688 26.035156 z M 24.458984 27.037109 C 24.287794 27.055969 24.198404 27.763056 24.240234 28.087891 C 24.282134 28.412728 24.272416 28.796279 24.228516 29.058594 C 24.184616 29.320899 24.068088 29.625059 24.080078 29.78125 C 24.099578 30.034839 24.240854 30.139934 24.339844 29.925781 C 24.477674 29.689015 24.461234 29.503398 24.714844 29.505859 C 24.918974 29.507859 24.924185 29.29477 24.796875 29.273438 C 24.729475 29.262148 24.630864 28.972789 24.621094 28.779297 C 24.611094 28.584187 24.592125 28.098163 24.578125 27.710938 C 24.563425 27.30361 24.590974 27.022568 24.458984 27.037109 z M 6.4882812 29.169922 C 6.2984529 29.175507 6.0656616 29.253702 5.859375 29.396484 C 5.164505 29.877437 5.5493631 30.138754 6.5332031 29.8125 C 6.8900931 29.697368 6.9874119 29.47607 6.7949219 29.263672 C 6.7284431 29.196988 6.6181638 29.1661 6.4882812 29.169922 z M 44.197266 31.013672 C 44.023555 31.025856 43.718388 31.185084 43.349609 31.464844 C 41.916079 32.632951 41.670673 32.922099 42.189453 33.029297 C 42.795173 33.099347 44.222936 31.873344 44.347656 31.203125 C 44.373006 31.066987 44.31612 31.005335 44.197266 31.013672 z M 6.4628906 31.460938 C 6.2907406 31.438139 5.8149525 31.978354 5.3828125 33.068359 C 5.1541925 33.532568 4.9713756 34.45582 5.0410156 34.771484 C 5.2936056 36.313804 8.6360088 36.358496 8.9179688 35.414062 C 9.0982187 34.810302 8.2949156 35.723458 6.0722656 35.320312 C 5.3291556 35.185525 5.41097 33.859147 5.71875 33.228516 C 6.50282 32.069296 6.6350406 31.483736 6.4628906 31.460938 z M 39.564453 33.652344 C 39.491986 33.65451 39.417497 33.661646 39.339844 33.671875 C 38.042154 33.839112 37.937204 34.375645 38.996094 35.253906 C 39.523774 35.665305 39.694106 35.709772 39.447266 35.335938 C 39.204026 35.017533 39.149657 34.602638 39.279297 34.455078 C 39.434947 34.278002 39.644997 34.51503 39.873047 35.029297 C 40.111837 35.709896 40.256771 36.004819 39.650391 36.099609 C 39.154931 36.187249 39.092015 36.48782 39.328125 36.695312 C 39.505205 36.850929 39.118624 37.277564 38.677734 37.779297 C 38.236804 38.281022 37.747158 38.340078 37.673828 38.066406 C 37.604028 37.848184 37.431031 37.748683 37.275391 37.925781 C 37.145701 38.073343 37.082847 38.383901 37.123047 38.576172 C 37.541587 39.885506 40.49398 37.774136 40.875 35.912109 C 41.148347 34.485067 40.651466 33.619843 39.564453 33.652344 z M 9.5429688 36.574219 C 9.5255158 36.575999 9.4973231 36.597865 9.4550781 36.642578 C 8.6823381 37.460353 9.0467094 39.035918 9.6933594 39.765625 C 10.33186 40.426201 11.033756 39.778446 11.009766 39.109375 C 10.996066 38.726818 11.019891 38.372647 10.863281 38.53125 C 10.702711 38.655237 9.740005 39.647657 9.515625 38.550781 C 9.2643863 37.534937 9.6651394 36.561758 9.5429688 36.574219 z M 36.556641 39.732422 C 36.355629 39.72344 36.048085 39.929175 35.599609 40.517578 C 35.085619 41.180654 34.263344 42.186591 33.558594 42.121094 C 32.725704 42.043694 32.093747 42.391031 32.023438 42.833984 C 31.912948 43.530025 32.479101 43.37677 34.306641 42.59375 C 35.607311 41.809918 36.766931 41.392322 36.863281 40.630859 C 36.915591 40.217462 36.850427 39.745549 36.556641 39.732422 z M 15.248047 41.144531 C 15.212107 41.143944 15.177189 41.14966 15.142578 41.162109 C 14.588818 41.361247 15.869329 43.087892 16.787109 43.417969 C 19.111119 44.180395 19.352883 43.634382 19.658203 43.355469 C 21.087683 42.049611 20.616033 41.871482 19.070312 42.990234 C 18.631912 43.307541 17.987314 42.970729 17.802734 43.037109 C 17.402794 43.18094 15.87947 42.147029 15.625 41.439453 C 15.562112 41.264487 15.403787 41.147075 15.248047 41.144531 z M 30.617188 41.369141 C 30.505688 41.407511 30.109761 41.462472 29.712891 41.517578 C 29.316001 41.572688 28.972714 41.90076 28.964844 42.236328 C 28.939644 43.1189 29.187601 43.115127 30.056641 42.146484 C 30.485531 41.705727 30.741417 41.367453 30.617188 41.369141 z M 22.332031 42.251953 C 22.257478 42.247904 22.216622 42.270513 22.208984 42.3125 C 22.178384 42.480448 22.681373 42.972777 23.726562 43.449219 C 24.169573 43.695927 25.064923 43.918512 25.376953 43.865234 C 26.511083 43.867334 27.203649 42.564878 27.005859 42.357422 C 26.759549 42.099018 26.580455 42.408697 26.140625 42.962891 C 25.679075 43.544381 24.504304 43.459317 23.902344 43.126953 C 23.080344 42.507929 22.55569 42.264101 22.332031 42.251953 z " />
</svg>
