<?xml version="1.0" encoding="UTF-8" standalone="no"?>
<!-- Created with Inkscape (http://www.inkscape.org/) -->

<svg
   width="15"
   height="15"
   id="svg2"
   version="1.1"
   xmlns="http://www.w3.org/2000/svg"
   xmlns:svg="http://www.w3.org/2000/svg"
   xmlns:rdf="http://www.w3.org/1999/02/22-rdf-syntax-ns#"
   xmlns:cc="http://creativecommons.org/ns#"
   xmlns:dc="http://purl.org/dc/elements/1.1/">
  <defs
     id="defs4" />
  <metadata
     id="metadata7">
    <rdf:RDF>
      <cc:Work
         rdf:about="">
        <dc:format>image/svg+xml</dc:format>
        <dc:type
           rdf:resource="http://purl.org/dc/dcmitype/StillImage" />
      </cc:Work>
    </rdf:RDF>
  </metadata>
  <path
     id="path24708-9"
     style="fill:#000000"
     d="M 6.9607231,1.3548941e-4 C 6.9270849,8.1018552e-4 6.8880406,0.00293423 6.8453621,0.00793198 6.659431,0.03000204 6.486765,0.18495525 6.4894881,0.49989839 L 6.7593244,2.869925 C 6.7694359,4.0352381 7.2536255,4.0948842 7.3322448,3.6918198 7.4015234,3.3732933 7.3654825,3.9351092 7.3439581,2.4853322 7.3109206,2.0064669 7.2873939,1.2060204 7.2579605,0.7458816 7.2243223,0.1240027 7.1961903,-0.00459838 6.9607431,1.2349606e-4 Z M 9.4518308,0.61118827 C 9.1834362,0.61489927 8.9923292,0.78103377 8.9923292,1.2495728 8.7277589,2.1344063 8.5323471,3.4841353 8.7361785,3.7992054 8.8548532,3.9826488 8.6824174,4.5316695 8.6266842,4.8651323 8.4435062,5.9600602 8.7984491,5.596347 9.007967,4.7167611 9.0831523,4.5667497 9.230029,4.2494126 9.2250134,3.9495287 9.149828,3.7245111 8.9640471,2.9135933 9.133109,2.3135466 9.3397936,1.582239 10.106184,1.0310722 9.9934657,0.74979784 9.8022086,0.66507604 9.6128736,0.60896227 9.4518308,0.61118827 Z M 4.6104051,1.2261453 C 4.4269368,1.2421383 4.4821095,1.5832435 4.5771674,2.4209202 4.7762333,3.1466913 4.7501237,3.1777743 4.9662891,3.4380401 5.1704709,3.5678756 5.3684356,3.6800691 5.4140574,3.5239411 5.4603099,3.3657194 5.1084605,2.8920847 5.0699167,2.4482536 5.0271682,2.1885856 5.2382878,1.7488376 5.1187722,1.5931697 4.9879437,1.4989517 4.8256494,1.2807245 4.7374794,1.2495745 4.6858207,1.2313325 4.6443737,1.2231865 4.6103851,1.2261455 Z m 6.9884029,0.1366575 c -0.196012,0.016762 -0.334289,0.4869267 -0.621806,0.9468395 -0.303344,0.6370101 -0.739189,1.0952737 -0.645262,1.714072 0.02433,0.5167852 -0.100254,0.7611022 -0.07238,0.9292685 0.05486,0.3118945 0.206764,0.0054 0.297217,-0.064421 0.03794,-0.2122894 0.09451,-0.9377497 0.301122,-1.1440158 0.169072,-0.1687639 0.301122,-0.3755508 0.301122,-0.4880621 0,-0.1125094 0.16802,-0.4699324 0.355874,-0.7887068 0.73135,-0.7184624 0.516156,-1.1049713 0.0841,-1.1049713 z M 2.9092541,1.5814543 C 2.8322667,1.5852543 2.7069044,1.6742723 2.60617,1.8118195 2.4145725,2.0734467 2.564723,2.1668077 3.0735005,2.5380544 3.4126955,2.785553 3.6375608,2.9885715 3.6601064,2.9577874 3.7276831,2.8654494 3.1392451,1.7281672 2.9542251,1.593168 2.942712,1.584768 2.9269942,1.580574 2.9092741,1.581453 Z M 13.116151,2.5263417 c -0.104359,3.219e-4 -0.347205,0.074367 -0.412579,0.5544373 -0.09481,0.5278413 -1.344836,1.321115 -1.026555,1.423187 0.282931,0.090739 0.982485,-0.4680282 1.33941,-0.6930469 0.41329,-0.2437682 0.806446,-0.3934837 0.7313,-0.5622467 C 13.686057,3.0904566 13.208235,2.5260589 13.116151,2.5263417 Z M 1.9843742,2.9987849 c -0.7508523,0 -0.4996672,0.5004596 -0.3421884,0.7848026 0.1127179,0.1875155 0.3752759,0.3553089 0.5631392,0.3553089 0.2817899,0 0.4340928,0.052916 0.4340928,0.3904492 0,0.2812723 0.1156412,0.4509688 0.2659218,0.4509688 0.1315093,0 0.3025935,0.1330631 0.4340928,0.2830755 0.1314992,0.1500115 0.2932228,0.319808 0.3871494,0.2635533 0.093907,-0.056255 0.3173903,-3.89e-5 0.5240349,0.093708 C 4.5324066,5.7706627 4.627935,5.7519501 4.7218616,5.5269432 4.8909436,5.114412 4.4589432,5.2399635 4.102008,5.2399635 3.6135736,5.2399635 3.0096781,4.630551 3.0050628,4.3028856 2.9570083,4.0293678 2.5422074,3.5410987 2.3167815,3.5786018 2.1038899,3.4430778 2.1868941,3.0010939 1.9843742,2.9987849 Z M 5.402314,4.3204556 c -0.056965,0.0018 -0.1172731,0.027308 -0.1818464,0.074187 -0.2254359,0.1500125 -0.088,0.2164525 0.4379972,0.6852384 C 6.3865413,5.697092 5.9399944,6.4128076 6.8688287,6.3722679 7.1710118,6.3798679 7.0684954,5.8640348 6.550107,5.7904989 6.3624039,5.6636591 6.380144,5.3278163 6.1922708,5.3278163 6.0231988,5.3278163 5.9338975,4.9187636 5.7836069,4.6562438 5.6415456,4.4241933 5.5277364,4.3165308 5.402314,4.320458 Z m 8.671954,0.3787355 c -0.62525,0.031606 -2.196283,0.654802 -2.350318,1.0015019 -0.07368,0.2665099 1.769239,-0.4470647 2.246691,-0.4470647 0.381963,0 0.724832,0.02247 0.62571,-0.3357857 C 14.515259,4.748226 14.318926,4.6868256 14.074268,4.6991911 Z M 0.94999998,5.2790079 c -0.19290898,0.0053 -0.38808053,0.061632 -0.48101602,0.064421 -0.0614698,0.0018 -0.097811,0.027298 -0.097811,0.085901 C 0.59053193,5.8102453 1.61073,6.3853343 2.428198,6.5089217 3.8845512,6.6868645 2.1340641,5.9935808 1.2021963,5.3121947 1.1251088,5.2836877 1.0376395,5.2765807 0.94995994,5.2790097 Z M 14.69216,6.0481925 c -0.531954,0.012994 -2.030185,0.8190231 -3.206771,0.59934 -0.685998,-0.1280863 -1.194606,-5.167e-4 -1.5935988,0.027328 -0.5764543,0.040232 -0.8905709,0.054315 -0.899461,0.3221209 0.072983,0.337526 1.0017672,-0.2497725 3.5743678,-0.046849 1.264615,-0.056255 2.338985,-0.6274094 2.350328,-0.776994 0.007,-0.095677 -0.07589,-0.1285801 -0.224865,-0.1249437 z M 7.2950926,6.5987255 C 6.994111,6.6051255 6.7429959,6.7061491 6.6165824,6.8837541 5.8974761,8.096282 7.402014,9.3116376 8.2649435,8.3264633 8.9840398,7.5686357 8.7743818,7.1084409 7.9833739,6.7295266 7.767639,6.6442646 7.5524748,6.6027217 7.3557014,6.5987255 c -0.020523,-4.118e-4 -0.040546,-4.258e-4 -0.060569,0 z m -3.7112428,0.58177 c -0.075486,-6.807e-4 -0.1378565,0.0065 -0.177942,0.033185 C 3.2990065,7.2848185 2.8597779,7.6349368 2.1114685,7.6705058 1.3453488,7.6882878 0.37535768,7.2922251 0.19718543,7.4167141 c -0.2850736,0.2134109 -0.21922886,0.5613521 -0.0645733,0.7223306 0.3166094,0.2866379 0.61264544,0.06728 1.13214517,-0.037093 0.391965,-0.1244899 0.9900338,0.031236 1.2572872,0.031236 0.2672534,0 0.7597424,-0.3045758 0.9913554,-0.4646348 C 3.8699946,7.4312648 4.6126677,7.4102953 5.1598088,7.3483842 5.6474823,7.2931992 4.9113367,7.1939877 4.0276636,7.1941576 3.8717666,7.2052826 3.7096526,7.1816236 3.5837998,7.1804936 Z M 14.62177,7.414765 c -0.338074,0.0027 -0.82735,0.3893646 -1.233831,0.3611653 -1.134588,-0.078725 -2.269686,-0.2011884 -1.892768,0.2206036 0.418445,0.097606 0.61752,0.341948 1.001136,0.4997749 0.332127,0.106557 1.311959,0.3312058 1.941654,0.128848 C 14.805558,8.507024 15.036571,8.0636097 14.995234,7.8403543 14.934264,7.5173597 14.798851,7.4133496 14.62177,7.414765 Z m -4.323268,0.9761223 c -0.03003,0.0015 -0.04966,0.011955 -0.05867,0.033185 -0.05556,0.1303383 0.68785,0.8463887 0.877956,1.0639747 0.310463,0.2821899 0.447979,0.3123943 1.10086,0.1659403 0.36151,0.054715 0.879899,0.2755969 0.879899,0.6500987 0.01482,0.200869 0.138577,0.718564 0.729347,0.591531 0.292182,0 0.772357,-0.690226 0.772357,-0.88632 0,-0.2178846 -0.117073,-0.5349158 -0.492739,-0.5349158 -0.313065,0 -0.75791,0.0084 -0.92488,-0.035144 -0.05807,-0.025968 -0.09941,-0.04529 -0.144694,-0.064421 C 12.971366,9.1061333 12.357129,9.0061723 11.626179,8.917991 11.183086,8.7996703 10.50842,8.3803871 10.298502,8.3908844 Z M 6.5637925,8.5080225 C 6.4942135,8.5030225 6.4600848,8.5439965 6.4503838,8.6134441 6.434766,8.7249039 6.400427,8.9494307 6.2685373,9.1503113 6.1188574,9.3570242 5.951147,9.5469566 5.855959,9.7086538 5.5737887,10.187968 5.5744194,10.498324 5.2380676,10.745296 c -0.3284729,0.369636 -0.7753702,0.660466 -0.899461,0.638385 -0.1043685,-0.02497 -0.3736442,0.194752 -0.5924626,0.488061 -0.2188284,0.293308 -0.4432131,0.54682 -0.5220826,0.558342 -0.07889,0.01152 -0.2251656,0.253803 -0.303074,0.546629 -0.1755393,0.58854 0.2221822,0.905891 0.7137001,0.411924 0.19382,-0.18914 0.4168032,-0.40091 0.4927394,-0.542725 0.075185,-0.140363 0.209668,-0.592306 0.4145405,-0.84337 0.2048826,-0.251064 0.5756635,-0.251198 0.7137002,-0.271362 0.1380166,-0.02017 0.2471105,-0.116336 0.2326841,-0.214747 -0.014416,-0.09842 0.4565683,-0.08107 0.6648147,-0.171798 0.045652,-0.01876 0.081292,-0.04846 0.1095043,-0.0859 0.1111061,-0.06374 0.1580294,-0.234616 0.064473,-0.534915 L 6.221554,10.386081 C 6.1030395,10.005376 6.4873858,9.6276653 6.4640192,9.5563764 6.4406928,9.4850984 6.4806381,9.1859172 6.6595512,9.0683152 7.0113906,8.6816244 6.7245249,8.5747305 6.5969802,8.5138769 c -0.011413,-0.0026 -0.023326,-0.0051 -0.033238,-0.0059 z m 2.2134526,0.1073737 c -0.053861,0.0095 -0.068878,0.079164 -0.050858,0.2069378 l 0.054762,0.3826396 c 0.039645,0.2812144 0.2779856,0.8055364 0.6198436,1.4895644 0.041948,0.08391 0.092305,0.203715 0.1446943,0.417781 0.073684,0.300858 0.520161,0.06408 0.613988,0.109325 0.112707,0.07502 0.295255,0.482876 0.295255,0.689143 0,0.187514 0.05737,0.363483 0.06648,0.456826 0.02213,0.226192 0.02153,0.375502 0.02153,0.581769 0.131759,0.465576 0.240613,0.981481 0.899461,0.917555 0.356935,0 0.739899,-0.664548 0.232684,-1.395856 -0.375717,-0.562544 -1.10058,-0.951366 -0.950299,-1.251389 0.206645,-0.39378 0.087,-0.54541 -0.273751,-0.599339 -0.200748,-0.04637 -0.291761,0.235271 -0.6765483,-0.529059 C 9.695087,9.9335735 9.6402747,9.6782815 9.4850886,9.4509568 9.278444,9.319697 9.1704114,8.8478955 9.0627291,8.7637664 8.9243421,8.6556481 8.8311463,8.6059115 8.7772551,8.6153962 Z M 4.3229688,8.7754801 C 4.2769166,8.775706 4.2168884,8.8120941 4.1411224,8.9004238 4.1361167,9.0315757 3.9036729,9.2942294 3.7324485,9.3435832 3.541692,9.4109132 3.2265943,9.4988643 3.0500339,9.67937 2.6578387,10.07633 1.9440684,10.275928 1.6402335,9.8882599 1.4084204,9.5785834 0.74904186,9.3226756 0.52568833,10.124482 c -0.13901781,0.182031 0.31481736,0.51373 0.59637697,0.525154 0.075085,0.003 0.4099954,0.11318 0.7156624,-0.0059 0.2861348,-0.100991 0.6276625,-0.199032 0.721519,-0.195225 C 2.9361846,10.426271 3.7080008,10.018595 4.2369312,9.4958146 4.462267,9.2400818 4.4875456,8.7746275 4.3229288,8.7754361 Z M 11.997691,10.21819 c -0.133221,0.0046 -0.170263,0.03779 -0.267874,0.126896 -0.06547,0.05982 -0.150311,0.747876 -0.04105,0.927317 0.109214,0.179439 0.436986,0.601458 0.502521,0.780898 0.152903,0.43863 1.19863,0.332788 1.19863,-0.0859 0,-0.179439 -0.45817,-0.473281 -0.633529,-0.728187 -0.09921,-0.144266 -0.227778,-0.489352 -0.293303,-0.708666 -0.07779,-0.224922 -0.270667,-0.319131 -0.465378,-0.312359 z m -3.9165561,0.288933 c -0.019522,-7.22e-4 -0.054762,0.0039 -0.1173132,0.0039 -0.2502841,0 -0.1942605,0.426846 -0.2639796,0.675477 -0.011713,0.320161 -0.3339491,0.03808 -0.3715118,0.394354 -0.075185,0.581296 -0.1513818,0.655954 -0.6022436,0.655954 -0.5260071,0 -2.3359717,1.083575 -1.7089699,1.6516 0.1127179,0.07501 0.8541896,-0.337067 1.2768394,-0.907795 0.066976,-0.09047 0.1293168,-0.206937 0.2796074,-0.206937 0.3381438,0 0.039345,0.386678 -0.1270943,1.030785 -0.1502806,0.600048 0.00801,1.077999 0.044951,1.134255 0.1502906,0.15001 0.9838168,0.05799 1.0656697,-0.654002 0.096309,-0.368962 0.00901,-0.811689 0.046953,-1.655504 0.037543,-0.731308 0.5352676,-0.917096 0.6667769,-1.048356 0.1127079,-0.11251 0.086398,-0.551419 -0.043049,-0.765281 -0.1624143,-0.268285 -0.088,-0.30629 -0.1466564,-0.308454 z m -5.5512214,0.847274 c -0.2309722,-6.9e-4 -0.6442213,0.134199 -0.8857655,0.331881 -0.1173132,0.07343 -0.1791834,0.269906 -0.1368754,0.415829 0.058166,0.200644 0.1980949,0.200114 0.5553104,-0.002 0.5735811,-0.343662 0.6969911,-0.458544 0.6335391,-0.67743 -0.013415,-0.04617 -0.075786,-0.06806 -0.1662086,-0.06833 z m 6.5210723,0.968314 c -0.5804989,0.0089 -0.5965271,0.708684 -0.5670437,1.354859 0.066375,0.225821 0.06177,0.561475 0.2698363,0.849226 0.4088041,0.520784 1.3181866,0.408121 1.1419163,-0.460729 -0.088,-0.478872 -0.408724,-1.694801 -0.7195668,-1.735547 -0.04385,-0.0058 -0.086398,-0.0084 -0.1251421,-0.0078 z" />
</svg>
