<?xml version="1.0" encoding="UTF-8" standalone="no"?>
<!-- Created with Inkscape (http://www.inkscape.org/) -->

<svg
   width="9"
   height="9"
   id="svg2"
   version="1.1"
   xmlns="http://www.w3.org/2000/svg"
   xmlns:svg="http://www.w3.org/2000/svg"
   xmlns:rdf="http://www.w3.org/1999/02/22-rdf-syntax-ns#"
   xmlns:cc="http://creativecommons.org/ns#"
   xmlns:dc="http://purl.org/dc/elements/1.1/">
  <defs
     id="defs4" />
  <metadata
     id="metadata7">
    <rdf:RDF>
      <cc:Work
         rdf:about="">
        <dc:format>image/svg+xml</dc:format>
        <dc:type
           rdf:resource="http://purl.org/dc/dcmitype/StillImage" />
      </cc:Work>
    </rdf:RDF>
  </metadata>
  <g
     id="layer1">
    <path
       id="path4217-5-4-7-6-7-5-20-6"
       style="fill:#000000"
       d="M 5.625 0.14257812 C 4.70481 1.1924112 4.7661612 2.8215569 4.6132812 4.0136719 C 5.2337312 2.7416639 5.92521 2.1388012 5.625 0.14257812 z M 4.6132812 4.0136719 A 0.49999911 0.49999979 0 0 0 4.5 4 A 0.49999911 0.49999979 0 0 0 4.2792969 4.0527344 A 0.49999911 0.49999979 0 0 0 4.0429688 4.296875 A 0.49999911 0.49999979 0 0 0 4 4.5 A 0.49999911 0.49999979 0 0 0 4.5 5 A 0.49999911 0.49999979 0 0 0 4.5859375 4.9902344 C 4.6329093 6.9674221 4.0829158 8.2304324 5.8457031 8.7949219 C 6.3793281 7.6448688 5.128543 6.4019035 4.5878906 4.9902344 A 0.49999911 0.49999979 0 0 0 4.8808594 4.8222656 A 0.49999911 0.49999979 0 0 0 4.9960938 4.5410156 C 6.2232374 4.8692552 7.8747246 5.4749095 8.9902344 4.7988281 C 8.1918393 3.5011122 6.1937389 4.4165364 4.9960938 4.5390625 A 0.49999911 0.49999979 0 0 0 5 4.5 A 0.49999911 0.49999979 0 0 0 4.9121094 4.21875 A 0.49999911 0.49999979 0 0 0 4.6132812 4.0136719 z M 4.9121094 4.21875 C 6.3372894 3.586549 7.6626837 3.195477 8.0898438 1.78125 C 6.9919537 1.465555 6.0134494 3.499221 4.9121094 4.21875 z M 4.8808594 4.8222656 C 5.6835449 6.001963 6.7863767 7.5292201 8.2070312 7.0507812 C 7.349822 5.8515377 6.132826 5.4017366 4.8808594 4.8222656 z M 4.0429688 4.296875 C 2.8295637 3.5738212 1.3693338 3.2964064 1.0253906 1.640625 C -0.0067438728 4.6352942 2.8572933 3.8731115 4.0429688 4.296875 z M 4.2792969 4.0527344 C 3.9003265 2.8694315 3.636742 1.4878446 2.9023438 0.29492188 C 2.2882893 1.4713381 3.4420808 2.8092522 4.2792969 4.0527344 z M 4.0175781 4.6445312 C 2.8134481 4.8651022 1.0668107 4.954436 0.18164062 5.765625 C 2.2965507 5.918435 2.7792081 5.2938283 4.0175781 4.6445312 z M 4.2441406 4.9316406 C 2.8093806 7.0078456 1.6962712 7.126095 2.7382812 8.640625 C 3.8588213 7.893148 4.0502506 6.1532846 4.2441406 4.9316406 z " />
  </g>
</svg>
