<?xml version="1.0" encoding="UTF-8" standalone="no"?>
<!-- Created with Inkscape (http://www.inkscape.org/) -->

<svg
   width="10"
   height="10"
   id="svg2"
   version="1.1"
   xmlns="http://www.w3.org/2000/svg"
   xmlns:svg="http://www.w3.org/2000/svg"
   xmlns:rdf="http://www.w3.org/1999/02/22-rdf-syntax-ns#"
   xmlns:cc="http://creativecommons.org/ns#"
   xmlns:dc="http://purl.org/dc/elements/1.1/">
  <defs
     id="defs4" />
  <metadata
     id="metadata7">
    <rdf:RDF>
      <cc:Work
         rdf:about="">
        <dc:format>image/svg+xml</dc:format>
        <dc:type
           rdf:resource="http://purl.org/dc/dcmitype/StillImage" />
      </cc:Work>
    </rdf:RDF>
  </metadata>
  <g
     id="layer1">
    <path
       id="path4-1-6-3-3"
       style="fill:#000000"
       d="M 4.573,8.4e-4 C 3.736338,0.02444 2.388121,0.51451 2.193552,0.94312 1.951974,1.47529 2.156962,2.12096 2.52534,2.08285 2.75029,2.03845 2.56646,1.64827 2.55479,1.3517 2.51885,1.0442 2.850078,0.86257 3.506961,0.57559 4.645693,0.36903 5.632922,0.33992 5.50554,1.12297 5.32157,1.95141 5.673212,1.86568 5.737202,1.44358 5.792092,0.99003 5.902929,0.7077 5.821622,0.49739 5.982607,0.56559 6.182179,0.64243 6.355623,0.73785 6.635641,0.8919 7.071747,1.16404 7.258714,1.512 7.419823,1.85349 7.723317,2.17568 7.930143,2.22751 8.395499,2.34412 8.505165,3.10896 8.193216,4.12575 7.844471,5.20374 8.154746,5.25048 8.860719,4.28801 9.210899,3.9851 9.190034,4.76222 9.186617,5.3339 9.184617,6.62432 8.591466,6.09638 8.68599,6.53228 8.805816,7.18645 8.256269,7.72349 7.737744,8.27805 7.249237,8.60589 6.786443,8.79722 6.257461,8.80196 5.707935,8.76666 5.25036,8.6835 5.214981,8.54978 5.200891,8.49658 5.181101,8.45808 5.158051,8.42857 5.162951,8.41677 5.169121,8.40507 5.173761,8.39337 5.448658,7.43468 6.371378,7.73062 6.218205,6.76686 5.928004,6.28354 5.751394,6.03435 5.421129,6.36219 5.98172,7.28294 3.862783,9.00047 3.471631,8.93293 2.945211,8.82265 2.478416,8.69582 2.621548,8.12946 2.725644,7.71757 3.011219,7.35368 3.243895,7.41199 3.450722,7.46379 3.657021,7.37059 3.689552,7.24192 3.793648,6.83002 3.299501,6.73986 2.813946,7.13829 2.499308,7.38982 2.289133,7.69686 2.189635,8.01021 1.665973,7.99661 1.011092,7.21064 1.176604,6.55573 1.280699,6.14383 1.433813,5.71096 1.278691,5.6721 1.224621,5.6586 1.151634,5.7228 1.074515,5.84022 0.911503,5.89702 0.231476,6.34168 0.367749,5.51179 0.478704,4.60618 1.184327,3.97227 0.844816,4.13552 0.638392,4.23472 0.475825,4.3957 0.352042,4.58906 0.395472,4.2461 0.443242,3.82877 0.503212,3.62137 0.604272,3.24416 0.983683,2.73342 1.164824,2.66932 1.339464,2.63092 1.536846,2.51751 1.588884,2.31156 1.666954,2.00264 1.563774,1.97664 1.098074,2.07893 0.65823,2.1877 0.300117,2.88776 0.083078,3.76408 c -0.138381,0.56448 -0.09229,1.14377 0.053,1.31176 0,0 0,0.002 0,0.002 -0.130203,0.46027 -0.112765,0.97929 0.02748,1.34891 0.134183,0.31207 0.34584,0.45021 0.547744,0.42812 -0.118837,0.59972 -0.02481,0.86716 0.343567,1.2238 0.342512,0.29326 0.760096,0.43856 1.07193,0.41639 0.02715,0.47373 0.326985,0.9001 0.930575,1.09282 0.598717,0.19976 1.141473,-0.009 1.541144,-0.36948 0.01491,0.27293 0.07981,0.53044 0.190435,0.5982 0.266445,0.22813 0.887476,0.29748 1.486172,-0.11142 C 7.41574,9.62218 7.943139,9.01889 8.360087,8.69251 8.955203,8.22667 9.551226,7.36123 9.858039,6.14719 10.203204,4.7814 9.835069,4.04583 9.638156,4.09255 9.204886,4.18685 9.481618,3.45378 9.528214,3.24411 9.661745,2.91567 9.526414,2.74743 9.151272,2.28619 8.815704,1.87362 8.38433,1.5189 8.177505,1.46708 7.99653,1.42168 7.808735,1.18284 7.757373,0.95097 7.714763,0.49501 5.804632,-0.07511 5.548726,0.23742 5.416106,0.16972 5.23021,0.10605 4.973496,0.03997 4.86415,0.00897 4.727934,-0.00353 4.572997,8.7e-4 Z M 4.141086,2.15322 C 4.017685,2.16122 3.871657,2.21342 3.740587,2.30375 3.274551,2.62495 3.532291,2.79924 4.192131,2.58136 4.431488,2.50446 4.495961,2.35763 4.36686,2.21578 4.31884,2.16778 4.237066,2.14668 4.141086,2.15318 Z m 1.370343,0 c -0.106267,0.004 -0.17644,0.0247 -0.186507,0.0645 -0.07826,0.30962 0.247821,0.48732 0.659648,0.39685 0.292882,-0.0815 0.483267,0.005 0.761737,0.36558 C 6.947135,3.26286 7.184756,3.39957 7.262639,3.32226 7.519186,3.07669 6.792741,2.41083 6.061137,2.2275 5.845087,2.1734 5.648058,2.1488 5.511429,2.1532 Z M 2.827679,3.21475 C 2.723092,3.20095 2.434498,3.52889 2.171957,4.18831 2.033058,4.46914 1.921553,5.0276 1.963854,5.21856 2.117315,6.15161 4.148444,6.17895 4.319743,5.6076 4.42925,5.24234 3.942432,5.79479 2.592091,5.5509 2.140625,5.4694 2.18915,4.66561 2.376135,4.2841 2.852489,3.58281 2.932267,3.22854 2.827679,3.21475 Z M 7.17233,4.87841 C 7.048398,4.89171 7.035758,5.15957 7.296014,5.86956 7.459708,6.56006 7.107705,7.49795 6.66974,7.79713 6.470692,7.91564 6.63123,8.0857 7.034904,7.92224 7.887665,7.60674 8.180288,6.86052 7.87517,5.77377 7.718908,5.31948 7.342163,4.8602 7.17233,4.87841 Z" />
  </g>
</svg>
