<?xml version="1.0" encoding="UTF-8" standalone="no"?>
<!-- Created with Inkscape (http://www.inkscape.org/) -->

<svg
   width="15"
   height="15"
   id="svg2"
   version="1.1"
   xmlns="http://www.w3.org/2000/svg"
   xmlns:svg="http://www.w3.org/2000/svg"
   xmlns:rdf="http://www.w3.org/1999/02/22-rdf-syntax-ns#"
   xmlns:cc="http://creativecommons.org/ns#"
   xmlns:dc="http://purl.org/dc/elements/1.1/">
  <defs
     id="defs4" />
  <metadata
     id="metadata7">
    <rdf:RDF>
      <cc:Work
         rdf:about="">
        <dc:format>image/svg+xml</dc:format>
        <dc:type
           rdf:resource="http://purl.org/dc/dcmitype/StillImage" />
      </cc:Work>
    </rdf:RDF>
  </metadata>
  <path
     id="path24708-1-4"
     style="fill:#000000"
     d="m 6.9528163,1.2335108e-4 c -0.0336,6.7e-4 -0.072624,0.002812499 -0.1152343,0.007812499 -0.18572,0.0221 -0.3581888,0.1770975 -0.3554688,0.4921875 L 6.7516444,2.8712172 c 0.0101,1.16584 0.4917826,1.2255156 0.5703126,0.8222656 0.0692,-0.31867 0.035172,0.2433987 0.013672,-1.2070313 -0.033,-0.47908 -0.056538,-1.2798844 -0.085937,-1.7402344 -0.0336,-0.62216 -0.061665,-0.75081375 -0.296875,-0.74609374892 z M 9.4410976,0.4649671 c -0.2680933,0.003712 -0.4589844,0.16992811 -0.4589844,0.6386719 -0.26427,0.88524 -0.4594594,2.2355613 -0.2558594,2.5507813 0.11854,0.18352 -0.053665,0.7327962 -0.109375,1.0664062 -0.18297,1.09542 0.1715794,0.7315525 0.3808594,-0.1484375 0.0751,-0.15008 0.2218069,-0.4675581 0.2167969,-0.7675781 C 9.1394351,3.5796909 8.9538682,2.7684121 9.1227382,2.1680922 9.3291882,1.4364521 10.094703,0.88503897 9.9821132,0.60363897 9.7910694,0.51887398 9.6019535,0.46273989 9.4410976,0.4649671 Z M 4.6051601,1.0802015 c -0.183258,0.016 -0.1281503,0.3572578 -0.033203,1.1953125 0.1988399,0.7261 0.1727518,0.7571981 0.3886718,1.0175782 0.20395,0.1299 0.4016957,0.2421074 0.4472656,0.085937 0.0462,-0.15829 -0.30525,-0.6321418 -0.34375,-1.0761718 -0.0427,-0.25979 0.1681782,-0.6997388 0.048828,-0.8554688 -0.13065,-0.0943 -0.2927894,-0.31258 -0.3808594,-0.34375 -0.051562,-0.018245 -0.093017,-0.0264 -0.1269531,-0.023437 z m 6.9804689,0.1367188 c -0.19579,0.0168 -0.333904,0.4871456 -0.621094,0.9472656 -0.303,0.6373 -0.738351,1.0957638 -0.644531,1.7148437 0.0243,0.51701 -0.100136,0.7634007 -0.07227,0.9316407 0.0548,0.31204 0.206525,0.00359 0.296875,-0.066406 0.0379,-0.21238 0.09437,-0.9381812 0.300781,-1.1445312 0.16888,-0.16884 0.300781,-0.3757213 0.300781,-0.4882813 0,-0.11256 0.167829,-0.4701425 0.355469,-0.7890625 0.73052,-0.71878 0.515565,-1.1054687 0.08399,-1.1054687 z M 3.0621913,1.5509046 c -0.0769,0.004 -0.2040775,0.092869 -0.3046875,0.2304688 -0.19138,0.26175 -0.041373,0.3551425 0.4667969,0.7265625 0.33882,0.24761 0.5653706,0.4507219 0.5878906,0.4199219 0.0675,-0.0924 -0.5202681,-1.2301744 -0.7050781,-1.3652344 -0.0115,-0.008 -0.027222,-0.012619 -0.044922,-0.011719 z M 13.079769,2.3829359 c -0.112739,0.010117 -0.329406,0.1024438 -0.390625,0.5527344 -0.0947,0.52808 -1.34331,1.3236612 -1.02539,1.4257812 0.28261,0.0908 0.98137,-0.4701925 1.33789,-0.6953125 0.41282,-0.24388 0.805529,-0.39366 0.730469,-0.5625 -0.0616,-0.15828 -0.538879,-0.7209831 -0.630859,-0.7207031 -0.0065,2e-5 -0.01397,-6.745e-4 -0.02149,0 z M 1.9821132,2.853639 c -0.75,0 -0.4990969,0.5006863 -0.3417969,0.7851563 0.11259,0.1876 0.37485,0.3574219 0.5625,0.3574219 0.28147,0 0.4335938,0.050972 0.4335938,0.3886718 0,0.28139 0.115515,0.4511719 0.265625,0.4511719 0.13136,0 0.3022437,0.1331231 0.4335937,0.2832031 0.13135,0.15008 0.2928988,0.3199519 0.3867188,0.2636719 0.0938,-0.0563 0.3170175,-3e-5 0.5234375,0.09375 0.28147,0.15008 0.3768831,0.13135 0.4707031,-0.09375 0.16889,-0.41272 -0.2626106,-0.2871094 -0.6191406,-0.2871094 -0.48788,0 -1.0910932,-0.60969 -1.0957032,-0.9375 -0.048,-0.27364 -0.4623299,-0.7621293 -0.6875,-0.7246093 C 2.1014944,3.2981271 2.1844032,2.855959 1.9821132,2.853639 Z m 3.4121094,1.3222656 c -0.0569,0.002 -0.1151875,0.027319 -0.1796875,0.074219 -0.22518,0.15008 -0.08789,0.2185 0.4375,0.6875 0.727256,0.61749 0.2812084,1.3315756 1.2089843,1.2910156 0.30183,0.008 0.1994407,-0.5084612 -0.3183593,-0.5820312 -0.18749,-0.12689 -0.1697719,-0.4628907 -0.3574219,-0.4628906 -0.168876,0 -0.2580831,-0.4072819 -0.4082031,-0.6699219 -0.1419,-0.23216 -0.2575325,-0.3418206 -0.3828125,-0.3378907 z m 8.7089844,0.3789063 c -0.01488,1.963e-4 -0.02965,0.00118 -0.04492,0.00195 -0.62454,0.0316 -2.193796,0.65314 -2.347656,1 -0.0736,0.26663 1.76723,-0.4472656 2.24414,-0.4472656 0.38153,0 0.724,0.022443 0.625,-0.3359375 -0.07594,-0.1590937 -0.253335,-0.2216942 -0.476562,-0.21875 z M 0.94891006,5.134889 c -0.19268411,0.00534 -0.38763563,0.061703 -0.48046876,0.064453 -0.0614,0.002 -0.0976562,0.027238 -0.0976562,0.085937 0.21911,0.3810901 1.23814754,0.9564382 2.05468754,1.0800782 1.4547,0.17802 -0.2937994,-0.5155757 -1.2246094,-1.1972656 C 1.1238913,5.1395609 1.0364938,5.1324614 0.94891006,5.134889 Z M 14.675472,5.9044203 c -0.53135,0.013 -2.027875,0.8193893 -3.203125,0.5996093 -0.68522,-0.1281499 -1.193256,-5.562e-4 -1.5917963,0.027344 -0.5758,0.0403 -0.8895575,0.054346 -0.8984375,0.3222656 0.0729,0.33767 1.0006323,-0.249875 3.5703118,-0.046875 1.263181,-0.0563 2.336327,-0.6257306 2.347657,-0.7753906 0.007,-0.0957 -0.07583,-0.1305931 -0.22461,-0.1269531 z M 7.2848476,6.4552015 c -0.3006419,0.00611 -0.5495188,0.1074813 -0.6757813,0.2851563 -0.718286,1.21307 0.7845444,2.4289794 1.6464844,1.4433594 0.71829,-0.75817 0.50886,-1.2166232 -0.28125,-1.5957032 -0.21549,-0.0853 -0.4304031,-0.1288125 -0.6269531,-0.1328125 -0.020474,-4.375e-4 -0.042457,-4.073e-4 -0.0625,0 z M 3.5797694,7.0372328 c -0.075429,-6.873e-4 -0.1376918,0.00654 -0.1777343,0.033203 -0.10678,0.0712 -0.5455088,0.4214513 -1.2929688,0.4570313 -0.76525,0.0178 -1.73413937,-0.3784463 -1.91210937,-0.2539063 -0.28475,0.21351 -0.21898312,0.5616062 -0.0644531,0.7226563 0.31625,0.28677 0.61194944,0.067291 1.1308594,-0.037109 0.39152,-0.12454 0.9889094,0.03125 1.2558594,0.03125 0.26695,0 0.7588843,-0.3047138 0.9902344,-0.4648438 0.35619,-0.2374 1.0980112,-0.2583725 1.6445312,-0.3203125 0.48712,-0.0552 -0.2481894,-0.1544669 -1.1308594,-0.1542969 -0.1557187,0.011125 -0.317644,-0.012526 -0.4433594,-0.013672 z M 14.60516,7.2716078 c -0.33769,0.00271 -0.826407,0.3895468 -1.232422,0.3613281 -1.13331,-0.0788 -2.267125,-0.2012769 -1.890625,0.2207031 0.41797,0.0977 0.61682,0.3421 1,0.5 0.33174,0.1066 1.310473,0.3313563 1.939453,0.1289063 0.36718,-0.11819 0.597931,-0.5618063 0.556641,-0.7851563 C 14.917281,7.3742503 14.782045,7.270186 14.60516,7.2716078 Z m -4.318359,0.9765625 c -0.02996,0.0015 -0.04955,0.011962 -0.05859,0.033203 -0.0555,0.1304 0.687063,0.8467631 0.876953,1.0644531 0.31011,0.28231 0.447479,0.3144888 1.099609,0.1679688 0.36111,0.0547 0.878907,0.2737676 0.878906,0.6484367 0.0148,0.20096 0.138416,0.72084 0.728516,0.59375 0.29185,0 0.771484,-0.692482 0.771484,-0.8886711 0,-0.21798 -0.116947,-0.5351563 -0.492187,-0.5351563 -0.3127,0 -0.757048,0.00814 -0.923828,-0.035156 -0.058,-0.026 -0.0993,-0.045353 -0.144531,-0.064453 -0.0665,-0.26881 -0.680027,-0.3668582 -1.410157,-0.4550781 C 11.17038,8.6590971 10.496485,8.2376712 10.286801,8.2481703 Z M 6.556332,8.3653578 c -0.069515,-0.00503 -0.1035863,0.036029 -0.1132813,0.1054687 -0.0156,0.11151 -0.049941,0.3380925 -0.1816406,0.5390625 -0.14951,0.2068 -0.3170294,0.3948706 -0.4121094,0.5566406 -0.28185,0.4795294 -0.2812175,0.7900294 -0.6171875,1.0371094 -0.3281,0.36981 -0.7744875,0.660772 -0.8984375,0.638672 -0.10425,-0.025 -0.3732269,0.194841 -0.5917969,0.488281 -0.21858,0.29344 -0.4427043,0.547063 -0.5214844,0.558593 -0.0788,0.0115 -0.2249143,0.253916 -0.3027343,0.546876 -0.17534,0.5888 0.2219306,0.906299 0.7128906,0.412109 0.1936,-0.18923 0.4163275,-0.401089 0.4921875,-0.542969 0.0751,-0.14043 0.2094225,-0.59257 0.4140625,-0.84375 0.20465,-0.25117 0.5750206,-0.249361 0.7128906,-0.269531 0.13787,-0.0202 0.2468319,-0.118347 0.2324219,-0.216797 -0.0144,-0.0985 0.4560565,-0.08113 0.6640625,-0.171875 0.0456,-0.0188 0.081245,-0.04844 0.109375,-0.08594 0.11098,-0.0638 0.1578531,-0.232764 0.064453,-0.533204 L 6.2145351,10.244264 c -0.11838,-0.3808699 0.2655275,-0.7587581 0.2421875,-0.8300781 -0.0233,-0.0713 0.016653,-0.3706213 0.1953125,-0.4882813 0.35144,-0.38686 0.062947,-0.4937975 -0.064453,-0.5546874 -0.011363,-0.00264 -0.021319,-0.00514 -0.03125,-0.00586 z m 2.2324218,0.1074218 c -0.071654,-0.00592 -0.09251,0.063228 -0.072266,0.2070313 l 0.054687,0.3828125 c 0.0396,0.28134 0.2776706,0.8059045 0.6191406,1.4902336 0.0419,0.0839 0.092221,0.203799 0.1445313,0.417969 0.0735,0.30099 0.5195714,0.06415 0.6132814,0.109375 0.11259,0.0751 0.294922,0.483093 0.294922,0.689453 0,0.1876 0.05731,0.363651 0.06641,0.457031 0.0221,0.226301 0.02148,0.375672 0.02148,0.582032 0.13161,0.46578 0.240338,0.981928 0.898438,0.917968 0.35653,0 0.739062,-0.664844 0.232422,-1.396484 -0.37529,-0.56279 -1.099329,-0.951793 -0.949219,-1.251953 0.20641,-0.39396 0.08687,-0.545659 -0.273438,-0.599609 -0.20052,-0.0464 -0.291431,0.235373 -0.6757808,-0.5292968 C 9.6840632,9.7915521 9.6293107,9.5361472 9.4743007,9.3087172 9.2678907,9.1773971 9.1599857,8.7073303 9.0524257,8.6231703 8.9314701,8.5285215 8.8444849,8.4773805 8.7887538,8.4727796 Z M 4.3180507,8.6329359 c -0.046029,2.255e-4 -0.1059531,0.036632 -0.1816406,0.125 -0.005,0.13121 -0.2371731,0.3939794 -0.4082031,0.4433594 -0.19054,0.0674 -0.5052807,0.1573006 -0.6816407,0.3378906 -0.39175,0.39713 -1.1047131,0.5948711 -1.4082031,0.2070313 -0.23155,-0.3098201 -0.89018127,-0.5658419 -1.11328127,0.2363281 -0.13886,0.1821097 0.31446318,0.5139597 0.59570317,0.5253897 0.075,0.003 0.4095237,0.113331 0.7148437,-0.0059 0.28581,-0.10103 0.6269531,-0.199112 0.7207032,-0.195312 0.37651,-0.0222 1.1474512,-0.430115 1.6757812,-0.953125 0.2250781,-0.2558515 0.2503266,-0.7215086 0.085937,-0.7207031 z m 7.6660153,1.4453121 c -0.13307,0.005 -0.170068,0.03584 -0.267578,0.125 -0.0654,0.0598 -0.150136,0.748214 -0.04102,0.927734 0.10909,0.17952 0.436494,0.60173 0.501953,0.78125 0.152731,0.43883 1.197266,0.332953 1.197266,-0.08594 0,-0.17952 -0.457652,-0.471543 -0.632812,-0.726563 -0.0991,-0.14433 -0.227519,-0.491527 -0.292969,-0.710937 -0.0777,-0.22502 -0.270354,-0.317327 -0.464844,-0.310547 z m -3.912109,0.289063 c -0.019522,-7.22e-4 -0.05469,0.002 -0.1171876,0.002 -0.25,0 -0.1940318,0.427041 -0.2636718,0.675781 -0.0117,0.32031 -0.3335738,0.03813 -0.3710938,0.394531 -0.0751,0.58156 -0.1512125,0.65625 -0.6015625,0.65625 -0.52541,0 -2.3333212,1.084064 -1.7070312,1.652344 0.11259,0.075 0.8512715,-0.337213 1.2734375,-0.908203 0.0669,-0.0905 0.1291768,-0.207032 0.2792968,-0.207032 0.3377601,0 0.04128,0.386851 -0.125,1.03125 -0.1501099,0.600311 0.00772,1.078486 0.044922,1.134766 0.15012,0.15008 0.9826931,0.05991 1.0644531,-0.652344 0.0962,-0.36913 0.00938,-0.814013 0.046875,-1.658203 0.0375,-0.73164 0.5346557,-0.917508 0.6660157,-1.048828 0.11258,-0.11256 0.086331,-0.551665 -0.042969,-0.765625 -0.162225,-0.26841 -0.087918,-0.304476 -0.1464843,-0.30664 z m -5.5449219,0.845703 c -0.2307071,-6.93e-4 -0.6434957,0.134252 -0.8847657,0.332031 -0.11718,0.0735 -0.1789787,0.270025 -0.1367187,0.416016 0.0581,0.20073 0.1978775,0.200306 0.5546875,-0.002 0.57292,-0.34382 0.6961925,-0.458744 0.6328125,-0.677734 -0.013359,-0.04619 -0.075739,-0.06809 -0.1660156,-0.06836 z m 6.5136719,0.970703 c -0.5798445,0.009 -0.5958532,0.707053 -0.5664063,1.353515 0.0663,0.22592 0.061741,0.56173 0.2695313,0.84961 0.40834,0.52102 1.316685,0.408312 1.140625,-0.460938 -0.0879,-0.47908 -0.4102132,-1.695568 -0.7207032,-1.736328 -0.04381,-0.0058 -0.084391,-0.0065 -0.1230468,-0.0059 z" />
</svg>
