<?xml version="1.0" encoding="UTF-8" standalone="no"?>
<!-- Created with Inkscape (http://www.inkscape.org/) -->

<svg
   width="15"
   height="15"
   id="svg2"
   version="1.1"
   xmlns="http://www.w3.org/2000/svg"
   xmlns:svg="http://www.w3.org/2000/svg"
   xmlns:rdf="http://www.w3.org/1999/02/22-rdf-syntax-ns#"
   xmlns:cc="http://creativecommons.org/ns#"
   xmlns:dc="http://purl.org/dc/elements/1.1/">
  <defs
     id="defs4" />
  <metadata
     id="metadata7">
    <rdf:RDF>
      <cc:Work
         rdf:about="">
        <dc:format>image/svg+xml</dc:format>
        <dc:type
           rdf:resource="http://purl.org/dc/dcmitype/StillImage" />
      </cc:Work>
    </rdf:RDF>
  </metadata>
  <g
     id="layer1">
    <path
       id="path2681"
       style="fill:#000000"
       d="M 7.5,0 A 7.5,7.5 0 0 0 0,7.5 7.5,7.5 0 0 0 7.5,15 7.5,7.5 0 0 0 15,7.5 7.5,7.5 0 0 0 7.5,0 Z m 0,1.25 A 6.25,6.25 0 0 1 13.75,7.5 6.25,6.25 0 0 1 7.5,13.75 6.25,6.25 0 0 1 1.25,7.5 6.25,6.25 0 0 1 7.5,1.25 Z M 7.5,6 A 1.5,1.5 0 0 0 6,7.5 1.5,1.5 0 0 0 7.5,9 1.5,1.5 0 0 0 9,7.5 1.5,1.5 0 0 0 7.5,6 Z" />
  </g>
</svg>
