<?xml version="1.0" encoding="UTF-8" standalone="no"?>
<!-- Created with Inkscape (http://www.inkscape.org/) -->

<svg
   width="15"
   height="15"
   id="svg2"
   version="1.1"
   xmlns="http://www.w3.org/2000/svg"
   xmlns:svg="http://www.w3.org/2000/svg"
   xmlns:rdf="http://www.w3.org/1999/02/22-rdf-syntax-ns#"
   xmlns:cc="http://creativecommons.org/ns#"
   xmlns:dc="http://purl.org/dc/elements/1.1/">
  <defs
     id="defs4" />
  <metadata
     id="metadata7">
    <rdf:RDF>
      <cc:Work
         rdf:about="">
        <dc:format>image/svg+xml</dc:format>
        <dc:type
           rdf:resource="http://purl.org/dc/dcmitype/StillImage" />
      </cc:Work>
    </rdf:RDF>
  </metadata>
  <path
     id="path14618-2"
     style="fill:#000000"
     d="M 6.8694151,6.1926873e-4 C 6.2732929,0.01479855 5.4789166,0.1961184 4.7914618,0.4517685 4.4248212,0.58811461 4.090508,0.74441572 3.8305989,0.90682353 3.5706797,1.0692293 3.3896043,1.2432375 3.3286792,1.3775028 3.155993,1.7582585 3.1447239,2.1830781 3.2388862,2.4965873 3.2858822,2.6533424 3.3684658,2.8212079 3.4302808,2.9321123 3.4881758,3.0593569 3.6427538,3.2602877 3.7505651,3.2504552 3.7979611,3.2399858 3.9233412,3.2331661 3.9419598,3.1235086 3.9644578,3.0031657 3.8441678,2.8487655 3.7954815,2.6704065 3.7410855,2.4339254 3.6970895,2.2095298 3.6861203,1.967317 3.6544233,1.6957007 3.7952415,1.4649934 4.0532708,1.2720391 4.3112901,1.0790838 4.6891398,0.90106482 5.1898996,0.68222586 c 0.008,-0.0029 0.015299,-0.0049 0.023398,-0.0059 C 6.0831079,0.51851083 6.8962826,0.42466756 7.4904549,0.52789635 7.7875311,0.57951375 8.0367511,0.68072364 8.1993881,0.8638164 8.362035,1.0469092 8.4249,1.3054441 8.3732041,1.623544 c -6.099e-4,0.002 -8.699e-4,0.004 -0.002,0.0059 C 8.3030091,1.9380895 8.2840111,2.1584393 8.2950101,2.2973793 8.3301071,2.7280666 8.557269,2.5169673 8.6133445,2.1177014 8.6557415,1.7677421 8.7229257,1.4906721 8.7598228,1.2622756 8.7578228,0.65843406 8.4214199,0.42740573 8.3399265,0.36193003 h -0.004 C 8.0247315,0.20073817 7.6829589,0.13414853 7.4375586,0.05921131 l -0.002,-0.0019999 C 7.3146483,0.02290314 7.1594508,0.00310414 6.9863747,5.7427101e-4 c -0.037897,-5.62971577e-4 -0.077394,-9.449523e-4 -0.1171806,0 z M 9.1953984,0.20763982 c -0.084193,0.0092 -0.2548995,0.13512518 -0.2421705,0.24022287 0.034597,0.28246475 0.3172045,0.32981636 0.6562073,0.48435056 0.4306358,0.23697605 1.1108108,0.64880925 1.4158968,1.21673555 6.9e-4,0.0013 8.1e-4,0.0026 0.002,0.0039 0.11726,0.2486255 0.289287,0.496058 0.466762,0.6855124 0.177456,0.1894535 0.365911,0.3194139 0.486291,0.3495914 0.402668,0.1009299 0.944025,0.633268 1.017499,1.1620503 0.100082,0.9257253 0.0314,1.2196155 -0.041,1.3690719 -0.0217,0.1048327 -0.12338,0.2918893 -0.25193,0.4433366 -0.49069,0.5780969 0.07309,0.8239355 0.583933,0.199209 0.005,-0.0058 0.01,-0.01094 0.0156,-0.015629 0.201764,-0.2665626 0.229862,-0.3340172 0.540967,-0.2988129 0.210393,0.1013428 0.187515,0.3037246 0.214832,0.5058334 0.08599,0.4454425 -0.12198,0.9600976 -0.12499,1.3944656 -7.6e-4,0.4983649 -0.254189,1.0521269 -0.316384,1.3300029 -0.0519,0.2487474 -0.271998,1.2653056 -1.208883,2.1678596 -0.399348,0.384721 -1.271958,0.01 -1.351462,0.0742 -0.08629,0.119334 0.0501,0.407129 0.06839,0.486305 0.0179,0.627338 -0.305036,0.756442 -0.437465,0.910114 -0.563615,0.507204 -1.0225684,0.625218 -2.3826193,0.953072 -0.2706283,0.0652 -0.4933204,-0.20665 -0.5585452,-0.292955 C 7.506027,13.255409 7.5973497,12.969633 7.6506355,12.677678 7.7034315,11.973364 7.4397124,11.974144 7.2737157,12.164034 6.8818272,12.577063 6.447992,12.940325 6.0687324,13.197192 5.8791076,13.325625 5.7024518,13.42621 5.5511939,13.494047 c -0.1512378,0.0678 -0.273228,0.108134 -0.3905886,0.08789 -9.999e-4,2e-5 -0.003,2e-5 -0.004,0 -0.4018078,-0.08419 -0.7900666,-0.170541 -1.0663244,-0.365211 -0.138139,-0.09729 -0.2485001,-0.226449 -0.3046556,-0.39061 -0.056196,-0.164172 -0.37368,-0.461717 -0.3339632,-0.962842 0.1480281,-0.433748 0.1205503,-0.517614 -0.011699,-0.333963 -0.050996,0.0196 -0.1275197,0.0637 -0.2421605,0.146473 -0.2699084,0.19495 -0.8736399,0.659156 -1.1190602,0.38084 C 1.9675913,11.930566 1.8409314,11.783073 1.684244,11.459 1.3540105,11.014362 1.4564223,10.382284 1.592451,9.8438514 1.672345,9.5275174 1.8742384,9.6555809 1.9205446,9.4141831 1.9433426,9.2934792 2.0025376,9.1639957 1.9889396,8.8556213 1.8615998,8.127628 1.6552363,8.6143735 1.5671034,8.8751203 1.4875094,9.1105784 1.3879978,9.2641107 1.3112639,9.3868145 1.2338699,9.5105582 1.0397157,9.6042635 0.88746791,9.6172729 0.73521013,9.6302722 0.49231962,9.2359321 0.41875552,8.9571462 0.37435912,8.7889547 0.30768443,8.5953244 0.36016022,8.2716308 0.44735322,7.5601867 0.76406782,6.9622799 0.99095961,6.5764083 1.0374559,6.4973623 1.0490549,6.4749985 1.0846521,6.4143065 0.86921938,6.5544635 0.66387585,6.7087297 0.52024738,6.9338123 0.46215208,7.0252577 0.31894353,6.9748902 0.33276242,6.8674057 0.39855712,6.3472299 0.47003141,5.7160778 0.56712362,5.3791988 0.64911702,5.0728282 0.83462215,4.7313185 1.0377859,4.4456519 1.1393677,4.3028191 1.2459192,4.1734146 1.3463511,4.0726247 1.446813,3.9718298 1.5370858,3.8984405 1.6353979,3.8636503 c 0.004,-0.0015 0.008,-0.0028 0.011699,-0.0039 0.2399207,-0.052707 0.6894046,-0.174783 0.7557993,-0.4374777 0.028698,-0.1119544 -0.01,-0.1658517 -0.015599,-0.2089735 C 2.3654992,3.1138941 2.239639,3.1083064 2.2115313,3.096117 2.1974323,3.090017 2.1747343,3.085618 2.1412373,3.084398 c -0.012599,-4.62e-4 -0.025798,-3.09e-4 -0.040997,0 C 1.9934689,3.086598 1.8206627,3.108047 1.5905112,3.158614 1.2996145,3.2310902 1.0102278,3.5143299 0.75659811,3.9554486 0.50262849,4.3971153 0.28719578,4.9889525 0.12383888,5.6487232 0.02057717,6.0701989 -0.01363009,6.4991032 0.00470844,6.8478806 0.02300698,7.196655 0.10661027,7.4684713 0.18242418,7.5529171 c 0.0165987,0.018499 0.0271978,0.041598 0.0272978,0.066397 v 0.002 c -3.999e-5,0.009 -6.9994e-4,0.018299 -0.004,0.027299 -0.19164462,0.6776258 -0.16155703,1.4488169 0.0409967,1.9842699 0.19305451,0.446267 0.47122219,0.615629 0.72455186,0.58786 0.0675945,-0.006 0.12265016,0.0545 0.10937126,0.121094 -0.0891928,0.448997 -0.0944924,0.759732 -0.017599,1.021428 0.212243,0.40993 0.3519818,0.60434 0.5390168,0.81051 0.24956,0.440637 0.6657166,0.732073 0.8866488,0.654256 0.1363891,-0.048 0.3516518,-0.146542 0.5272977,-0.290995 6.6e-4,0.0143 5.1e-4,0.0284 0.002,0.043 0.037997,0.682066 0.6755758,1.521383 1.5623746,1.804599 h 0.002 c 0.87299,0.291355 1.6535374,-0.0139 2.2420102,-0.544903 0.063095,-0.0558 0.1624169,-0.0137 0.1679565,0.0703 0.010899,0.20186 0.040797,0.39901 0.085893,0.550752 0.045096,0.151742 0.1130609,0.250887 0.1562475,0.277326 0.004,0.003 0.008,0.008 0.011699,0.0117 0.3536616,0.302895 1.2597989,0.422599 2.1385084,-0.177721 0.014799,-0.01 0.031197,-0.0147 0.048796,-0.0156 1.7006937,-0.123694 2.4066277,-1.164681 2.7634587,-1.837797 1.053615,-0.449027 2.128049,-1.668956 2.589632,-3.4959133 C 15.045801,8.1968205 15.036462,7.41381 14.929151,6.9025818 14.795341,6.2110048 14.69154,5.9078611 14.601047,5.553034 14.44238,5.0814368 14.202639,5.1917262 14.206549,5.0022808 14.304639,4.7080347 14.278439,4.4789282 14.190949,4.2445071 14.069699,3.8269541 14.020063,3.7911419 13.735905,3.4418126 13.485316,3.1336171 13.197009,2.8439827 12.93519,2.6254478 12.673381,2.4069138 12.42874,2.2611342 12.30828,2.2309367 12.137974,2.1882488 11.986236,2.0641781 11.861056,1.908687 11.735886,1.7531948 11.636564,1.5642673 11.593497,1.3696522 c -9.9e-4,-0.0046 -0.002,-0.009 -0.002,-0.013669 -0.005,-0.052597 -0.0406,-0.1238338 -0.11718,-0.2031148 C 11.397727,1.0735921 11.284162,0.98915837 11.146213,0.90678653 10.870305,0.74203584 10.497285,0.58346385 10.113096,0.46344991 9.7289066,0.34343696 9.5279027,0.23267156 9.2108282,0.20760282 c -0.005,-4.6198e-4 -0.01,-6.1397e-4 -0.015599,0 z M 5.8499669,2.5844728 c -0.042297,-9.659e-4 -0.095092,0.012179 -0.1601472,0.033198 -0.1418186,0.045818 -0.047196,0.1892004 0.006,0.4316182 L 6.0903181,4.8363092 C 6.1975895,5.3229196 6.5095244,5.9920638 6.8090104,6.4885688 6.8484074,6.5623951 6.6289549,6.7060728 6.5512211,6.6799661 6.0769786,6.4747695 5.2233771,6.2215833 4.9536888,6.1917088 4.6321846,6.1698599 4.003795,5.8050833 3.7780031,5.771808 3.5008753,5.7245903 3.3081508,6.0848132 3.3463977,6.3010782 3.3776947,6.4780193 3.854607,6.603971 4.1178258,6.5725495 4.3571166,6.543981 4.7173677,6.642276 4.9126821,6.7795701 5.0615701,6.8842168 5.8428174,7.1151792 6.3422574,7.2092344 6.4389494,7.237933 6.4207514,7.3823057 6.3559564,7.4084443 5.862206,7.6759408 4.8438377,8.2049241 4.3483075,8.5021391 4.1633923,8.5983343 3.9737375,8.7484367 3.9225616,8.841972 3.8712656,8.9355673 3.655963,8.9096686 3.2722138,9.3673355 2.9688781,9.7622155 3.1264155,9.6420816 3.0437221,9.8028535 2.9655281,10.829541 3.3042712,10.430991 3.5261034,9.9044184 3.6714318,9.6723801 4.0974476,9.3893344 4.2057389,9.1817948 4.3849145,8.8544214 4.7994812,8.5761954 5.3404078,8.545107 c 0.3520618,-0.005 0.8410126,-0.2287485 0.9374248,-0.2695164 0.075794,-0.032098 0.2259819,-0.1012249 0.3827893,-0.068397 0.033997,0.004 0.1665167,0.063897 0.091793,0.1425728 C 6.3121702,8.7187282 5.6424939,9.5633056 5.6314148,10.000073 5.6465138,10.843781 5.9208016,10.813202 6.426271,9.7559459 6.5973673,9.4200428 6.9444994,8.88048 7.0922376,8.5138186 c 0.033997,-0.079196 0.3966382,-0.097795 0.435505,0.023399 0.1419787,0.415719 0.4014978,1.0514269 0.5702743,1.4569564 0.2956363,0.743252 0.4163766,1.256086 0.2948963,1.441337 -0.1474381,0.218879 -0.1306295,0.251927 0.091793,0.144522 0.1285796,-0.08319 0.3340032,-0.309334 0.4472241,-0.511694 0.1397688,-0.278456 0.1003819,-0.492105 -0.150378,-0.79293 C 8.5644198,10.000553 8.4998949,9.7800946 8.5960172,9.5859944 8.7263568,9.3753751 8.6927092,9.3061786 8.4886058,9.3203778 8.3694454,9.3356771 8.1484831,9.2093434 8.0862981,9.0098535 8.0080041,8.7585462 7.9813665,8.6477918 7.9144319,8.5137786 7.8598359,8.4164835 8.0936875,8.2983994 8.1956594,8.1817653 8.2547544,8.1193685 8.3346982,7.9940948 8.4163516,8.0528618 c 0.3279337,0.2995449 1.1069612,0.6668464 2.8298434,1.4139986 1.160137,0.4893053 0.944964,0.1478926 0.966723,0 0.0406,-0.276066 -0.322834,-0.090095 -1.62682,-0.8788656 C 9.8388175,8.1359876 9.1305143,7.6839804 8.6624219,7.5763259 8.5692289,7.5459274 8.5378019,7.3276984 8.6292249,7.3087594 h 0.002 C 8.8479975,7.2495624 9.0504013,7.1924852 9.2874223,7.1056496 9.5383921,7.0240537 9.851227,6.9346863 10.049081,6.8497985 10.254195,6.761793 10.390234,6.7063408 10.343978,6.504113 10.318278,6.4033911 9.9559186,6.5017131 9.7073086,6.6505906 9.3115003,6.8876376 8.841438,6.6876987 8.5023252,6.9240138 8.4339302,6.9830008 8.3167001,6.8964852 8.3792951,6.820503 8.6540131,6.5017881 9.0127243,6.0348387 9.015954,5.8205535 9.006954,5.5774198 9.106247,5.295276 9.2464055,5.1194179 9.3877842,4.9420028 9.4616083,4.7539783 9.7834725,4.6077247 c 9.999e-4,-3.74e-4 0.003,7.23e-4 0.004,0 0.2338815,-0.095105 0.3935095,-0.1245277 0.5019105,-0.2304573 0.0542,-0.052977 0.112791,-0.1953882 0.12695,-0.2285035 0.0141,-0.033058 0.008,-0.040058 0.008,-0.041018 v -0.002 c -0.0224,-0.038048 -0.0497,-0.055817 -0.08979,-0.068357 -0.0401,-0.012539 -0.09599,-0.016789 -0.165996,-0.0039 C 10.028598,4.0588684 9.7505195,4.1097359 9.5533553,4.2444171 9.159017,4.5137955 8.8167544,5.0075955 8.5632048,5.4982598 8.4623629,5.6934059 8.0950023,6.0472881 7.8659907,6.4278998 7.7084533,6.6526705 7.2091234,6.5792042 7.1277699,6.424 6.9362797,5.8964107 6.6465829,5.1687044 6.483286,4.4494907 6.3793944,4.0853691 6.2317562,3.4716681 6.1337041,3.1214327 6.0243029,2.7148793 5.9774866,2.5872477 5.8505268,2.5843499 Z" />
</svg>
