<?xml version="1.0" encoding="UTF-8" standalone="no"?>
<!-- Created with Inkscape (http://www.inkscape.org/) -->

<svg
   width="15"
   height="15"
   id="svg2"
   version="1.1"
   xmlns="http://www.w3.org/2000/svg"
   xmlns:svg="http://www.w3.org/2000/svg"
   xmlns:rdf="http://www.w3.org/1999/02/22-rdf-syntax-ns#"
   xmlns:cc="http://creativecommons.org/ns#"
   xmlns:dc="http://purl.org/dc/elements/1.1/">
  <defs
     id="defs4" />
  <metadata
     id="metadata7">
    <rdf:RDF>
      <cc:Work
         rdf:about="">
        <dc:format>image/svg+xml</dc:format>
        <dc:type
           rdf:resource="http://purl.org/dc/dcmitype/StillImage" />
      </cc:Work>
    </rdf:RDF>
  </metadata>
  <g
     id="layer1">
    <path
       id="path4-0-4-6"
       style="fill:#000000"
       d="m 6.970329,1.5998352e-4 c -0.03361,6.8e-4 -0.0731,0.002999996 -0.115713,0.007999996 -0.185719,0.0221 -0.106665,0.22413 -0.103947,0.53921 L 6.770289,2.87087 C 6.780349,4.03671 7.460563,5.16624 7.539098,4.763 7.608258,4.44433 7.374299,3.93699 7.352779,2.48656 7.319759,2.00748 7.297899,1.20575 7.268439,0.74540998 7.234869,0.12324998 7.205579,-0.00441002 6.97033,3.1998352e-4 Z M 9.282636,0.91975998 C 8.984274,0.93325998 9.027812,1.27268 8.929612,1.46485 8.665345,2.35008 8.368003,3.80011 8.743294,3.80011 c 0.131351,0 0.0739,0.20683 -0.113752,0.48823 C 8.441896,4.5885 8.31182,5.15212 8.31182,5.69616 7.887654,6.35065 7.832167,6.43629 8.449107,6.82752 c 0.656678,0.46552 0.55523,0.71435 0.849218,1.31174 0.08284,0.16833 0.39511,0.52549 0.545227,0.52549 0.150117,0 0.268957,-0.39894 0.231427,-0.54902 -0.05629,-0.20635 0.0186,-0.20577 0.30007,0.0569 0.45035,0.41272 0.713148,0.41188 0.957087,-0.0196 0.131352,-0.20635 0.259202,-0.0372 0.353026,0.0941 0.09381,0.11256 0.541671,0.26025 0.766844,0.33529 0.52541,0.16884 2.655754,-0.13324 2.543735,-0.7392 -0.09843,-0.53243 -3.380962,-0.13948 -4.244133,-0.10196 -0.394056,0 -0.643288,-0.13842 -0.643288,-0.25098 0,-0.0938 -0.162569,-0.2745 -0.33145,-0.2745 C 9.589224,7.21578 9.429944,6.9851 9.261062,6.6099 9.127997,6.30387 9.210782,6.05047 9.455225,5.79031 9.736694,5.54643 10.111918,5.43234 10.712384,5.45109 c 0.713054,0 0.881763,-0.0564 0.99435,-0.39411 0.187646,-0.46899 -0.336589,-1.18107 -0.580528,-0.80587 -0.09382,0.15008 -0.187218,0.15008 -0.337335,0 -0.150116,-0.15008 -0.131885,-0.29951 0.07453,-0.50587 0.168881,-0.16884 0.30007,-0.37567 0.30007,-0.48823 0,-0.11256 0.169302,-0.46931 0.356947,-0.78823 0.375292,-0.61907 0.513958,-1.10586 0.08237,-1.10586 -0.19579,0.0168 -0.332564,0.48692 -0.619753,0.94704 -0.302997,0.6373 -0.739071,1.09659 -0.645249,1.71566 C 10.450374,4.71974 10.224889,5.03854 9.549365,5.1511 9.117779,5.2074 9.04315,5.0955 9.212031,4.64522 9.287091,4.49515 9.287941,4.17623 9.231651,3.95112 9.156591,3.726 8.972553,2.9142 9.141431,2.31388 9.347842,1.58225 9.661957,1.25021 9.54937,0.96879998 c -0.111317,-0.0375 -0.197876,-0.0521 -0.266729,-0.049 z M 4.773735,1.35112 C 4.494072,1.36012 4.512248,2.14005 4.589378,2.4217 4.78822,3.14779 4.761786,3.17895 4.977705,3.43933 c 0.525408,0.5628 1.015924,0.5752 1.015924,0.2 0,-0.11256 -0.191408,-0.0608 -0.303993,-0.0608 C 5.244543,3.26354 5.120153,2.89316 5.08165,2.44913 5.03891,2.18935 5.07435,1.68804 5.13068,1.59424 5.18697,1.50044 5.03644,1.38863 4.773734,1.35111 Z M 2.924281,1.58249 c -0.07691,0.004 -0.203376,0.0918 -0.303993,0.22941 -0.191382,0.26175 -0.04144,0.35603 0.466777,0.72744 0.338813,0.24761 0.563893,0.4504 0.586411,0.4196 0.06755,-0.0924 -0.51928,-1.22962 -0.704087,-1.36468 -0.01155,-0.008 -0.02736,-0.0127 -0.04511,-0.0118 z m 10.459318,1.29606 c -0.104243,3.2e-4 -0.252862,0.10443 -0.502079,0.31372 -0.356527,0.30016 -0.750523,0.97646 -0.562877,0.97646 0.03753,0 0.482885,-0.15919 0.839412,-0.38431 C 13.570876,3.54054 13.670471,3.2866 13.595413,3.11777 13.533843,2.95948 13.475578,2.87827 13.383599,2.87855 Z M 1.941697,3.33149 c -0.01348,-1.6e-4 -0.02711,-3.9e-4 -0.04118,0.002 -0.356527,0.075 -0.393312,0.15081 -0.243195,0.45097 0.112587,0.1876 0.375232,0.35686 0.562877,0.35686 0.281468,0 0.433435,0.0525 0.433435,0.39019 0,0.2814 0.116614,0.45097 0.266729,0.45097 0.131352,0 0.302084,0.13227 0.433435,0.28235 0.131353,0.15008 0.292543,0.32098 0.386366,0.2647 0.09381,-0.0563 0.317241,3.3e-4 0.523652,0.0941 0.281469,0.15008 0.376876,0.131 0.470699,-0.0941 C 4.903397,5.11682 4.471288,5.2413 4.114761,5.2413 3.626883,5.2413 3.025003,4.63188 3.020387,4.30406 2.972347,4.03042 2.557164,3.54302 2.33199,3.58054 2.27922,3.59814 2.143987,3.33384 1.941702,3.33153 Z m 3.471404,0.99018 c -0.05694,0.002 -0.115932,0.0276 -0.180435,0.0745 -0.225175,0.15008 -0.188073,0.26236 0.337335,0.73136 0.450349,0.43148 0.526359,0.56274 0.282418,0.56274 -0.300232,0 -0.300232,0.0194 0,0.3196 0.318998,0.31892 1.443477,0.48728 1.443477,0.20588 0,-0.075 0.151648,-0.14986 0.339294,-0.16862 0.20641,0 0.09287,-0.1124 -0.282419,-0.3 C 7.015008,5.57829 6.670259,5.56054 6.670259,5.46674 6.670259,5.39174 6.465656,5.20008 6.27801,5.20008 6.109129,5.20008 5.94566,4.92155 5.795543,4.65891 5.653637,4.42676 5.538377,4.31773 5.413101,4.32166 Z m 8.662817,0.38039 c -0.62454,0.0316 -1.566145,0.53548 -1.720012,0.88234 -0.07363,0.26663 1.139151,-0.32941 1.616065,-0.32941 0.381532,0 0.724644,0.0231 0.625637,-0.33529 -0.08102,-0.16969 -0.277305,-0.23002 -0.52169,-0.21764 z M 0.48645404,5.34519 c -0.06138,0.002 -0.09807,0.0276 -0.09807,0.0863 C 0.60749304,5.81257 1.627226,6.38822 2.443768,6.51186 3.898469,6.68989 2.646352,6.05319 1.121889,5.53737 0.87557804,5.44607 0.62147804,5.34115 0.48644604,5.34521 Z M 14.69371,6.05106 c -0.531353,0.013 -1.91308,0.50598 -3.102688,0.38627 -1.25327,-0.12612 -1.942303,-0.42984 -1.957323,0.0235 0.07288,0.33767 0.21528,0.58594 2.935983,0.49214 1.263181,-0.0563 2.336273,-0.6268 2.347611,-0.77646 0.0072,-0.0957 -0.07481,-0.12912 -0.223583,-0.12548 z M 7.364539,6.60203 C 7.03696,6.59503 6.76179,6.69683 6.627111,6.88634 5.908825,8.09941 7.410651,9.31508 8.272595,8.32946 8.99088,7.57129 8.782247,7.11249 7.992137,6.7334 7.776652,6.6481 7.561086,6.60603 7.364539,6.60203 Z M 5.997551,6.71379 C 5.326324,6.77189 4.751693,6.97015 4.061803,7.05693 3.81265,7.07473 3.527258,7.14653 3.420476,7.21771 3.313697,7.28891 2.873514,7.63898 2.126054,7.67456 1.360798,7.69236 0.35846704,7.65786 0.18050004,7.78241 c -0.284747,0.2135 -0.183935,0.19972 -0.02942,0.36077 0.316246,0.28677 0.610774,0.0672 1.12967596,-0.0373 0.391528,-0.12454 0.990208,0.0314 1.257158,0.0314 0.266951,0 0.757112,-0.30456 0.988469,-0.4647 0.37373,-0.24909 0.969939,-0.35257 1.557228,-0.15686 0.37373,0.14234 0.257864,0.44902 0.382442,0.44902 0.124577,0 0.303412,0.10682 0.374598,0.23137 C 5.965228,8.39182 6.143917,8.34884 6.2329,8.13531 6.28629,7.99297 6.073647,7.68908 5.889682,7.51963 5.75596,7.41905 5.620032,7.2282 5.777891,7.1863 6.41857,7.07955 6.549248,6.76714 5.99755,6.71376 Z m 2.66141,1.43136 c -0.02528,0.002 -0.04693,0.0114 -0.06276,0.0255 -0.187646,0.1876 0.102153,1.98799 0.745272,2.51369 0.07264,0.0594 0.103061,0.60581 0.08433,0.82547 -0.06691,0.78489 0.0062,1.01537 0.137287,1.15097 0.300233,0.15008 0.495613,-0.0263 0.439318,-0.60784 -0.05629,-0.46899 -0.01871,-0.63692 0.131404,-0.54313 0.112588,0.075 0.207892,0.29952 0.207892,0.50588 0,0.1876 0.09249,0.35686 0.186319,0.35686 0.112587,0 0.188279,0.16814 0.188279,0.3745 0.131615,0.46579 0.07344,1.18943 0.731543,1.12548 0.356527,0 0.738068,-0.66443 0.231428,-1.39606 -0.375291,-0.5628 -0.944421,-0.70375 -0.794305,-1.00391 C 11.09138,11.0786 11.074639,10.63437 10.714341,10.58042 10.513824,10.53402 9.965145,10.27073 9.965145,9.83925 9.965145,9.74545 9.79611,9.5392 9.570935,9.40788 9.364526,9.27656 9.409847,8.96078 9.447377,8.82946 9.532407,8.60844 8.9033,8.12239 8.658957,8.14516 Z M 4.754123,8.3373 C 4.684603,8.3433 4.600671,8.367 4.499161,8.4099 4.251613,8.4937 4.160078,8.75405 4.153982,8.90401 4.148682,9.03522 3.917072,9.29777 3.746043,9.34714 3.555503,9.41454 3.239893,9.5038 3.06353,9.68439 2.67178,10.08153 1.958847,10.28007 1.655356,9.89223 1.423813,9.58242 0.80154904,9.78324 0.54333004,10.12948 c -0.138865,0.18211 0.314983,0.51406 0.59621796,0.52549 0.075,0.003 0.408573,0.11319 0.713893,-0.006 C 2.139251,10.54793 2.481434,10.44908 2.57518,10.45289 2.951686,10.43069 3.933569,9.85043 4.461897,9.32742 5.038731,8.78055 5.129532,8.3071 4.754123,8.33723 Z M 6.53101,8.46867 C 6.49753,8.4681 6.46414,8.47267 6.429025,8.48437 6.32202,8.51937 6.331225,8.75986 6.19956,8.96084 6.050058,9.16764 5.805221,9.38485 5.626876,9.44318 5.430697,9.50738 5.347017,9.7917 5.373875,10.29611 c 0.0048,0.0669 0.01342,0.13071 0.02746,0.19215 -0.07845,0.0774 -0.158833,0.16546 -0.237311,0.25882 -0.328097,0.36981 -0.688012,0.66326 -0.811955,0.64117 -0.104255,-0.025 -0.37372,0.19479 -0.592296,0.48823 -0.218577,0.29344 -0.442909,0.54729 -0.521691,0.55882 -0.0788,0.0115 -0.224214,0.25409 -0.302032,0.54705 -0.17534,0.5888 -0.0281,0.62752 0.462854,0.13333 0.193601,-0.18923 0.468148,-0.37002 0.606025,-0.39019 0.157565,-0.0231 0.344507,-0.46646 0.549149,-0.71764 0.204643,-0.25118 0.576015,-0.25041 0.713892,-0.27058 0.137867,-0.0202 0.245839,-0.11723 0.231427,-0.21569 -0.01441,-0.0985 0.45685,-0.0818 0.664862,-0.17254 0.04563,-0.0188 0.0817,-0.0488 0.10983,-0.0863 0.11098,-0.0638 0.158098,-0.2329 0.06472,-0.53333 L 6.232902,10.3902 C 6.114523,10.00932 6.497473,9.63212 6.474134,9.5608 6.450794,9.4895 6.577879,9.32944 6.756554,9.21179 7.080402,8.99854 6.854654,8.47413 6.531011,8.46866 Z m 4.495173,0.34313 c -0.523856,-3e-5 -1.140628,0.0423 -1.176747,0.23137 -0.05236,0.35605 0.246333,0.56859 0.631521,0.59803 0.180886,0.0138 0.458931,-0.0484 0.458931,0.0765 0,0.14984 0.0255,0.59656 0.213776,0.33921 0.241725,-0.3304 0.676575,-0.38464 1.068878,-0.39803 0.361109,0.0547 0.878638,0.27434 0.878638,0.64901 0.01479,0.20096 0.27481,0.36826 0.864909,0.24117 0.291852,0 0.635442,-0.3391 0.635442,-0.53528 0,-0.21798 -0.117031,-0.53529 -0.492272,-0.53529 -0.3127,0 -0.756973,0.008 -0.923747,-0.0353 -0.05796,-0.026 -0.09988,-0.0456 -0.145131,-0.0647 -0.06648,-0.2688 -0.689815,-0.46079 -1.419942,-0.54901 -0.136342,-0.008 -0.35614,-0.0176 -0.594256,-0.0176 z M 7.99802,8.8549 C 7.401431,8.8469 7.204504,9.10459 7.03505,9.95881 c -0.0042,0.53892 0.152448,0.97058 0.227505,0.97058 0.07506,0 0.112053,0.30041 0.07453,0.65685 -0.07506,0.58156 -0.149791,0.65685 -0.600141,0.65685 -0.525408,0 -0.900639,0.4505 -0.562877,0.65685 0.112588,0.075 0.188279,0.0173 0.188279,-0.0765 0,-0.11256 0.130343,-0.20588 0.280458,-0.20588 0.337763,0 0.337763,-0.074 0,1.2392 -0.150115,0.60032 -0.178739,1.03194 -0.141208,1.08822 0.150115,0.15008 0.785108,0.0162 0.866869,-0.69607 0.09623,-0.36912 0.207626,-0.7695 0.245155,-1.6137 C 7.65115,11.90357 8.33541,11.80968 8.466762,11.67836 8.579349,11.5658 8.585552,10.49762 8.56679,10.2725 8.55522,9.71787 8.416132,8.87958 8.123548,8.86076 c -0.04342,-0.003 -0.08575,-0.005 -0.12552,-0.006 z m 4.004863,1.36861 c -0.133073,0.005 -0.267289,0.0559 -0.364793,0.1451 -0.06545,0.0599 -0.150266,0.57733 -0.04118,0.75685 0.109089,0.17952 0.38563,0.63223 0.451087,0.81175 0.15273,0.43883 1.345413,0.45418 1.345413,0.0353 0,-0.17952 -0.458327,-0.47241 -0.633482,-0.72744 -0.09913,-0.14433 -0.226772,-0.49038 -0.292226,-0.70979 -0.07773,-0.22502 -0.270324,-0.31854 -0.464814,-0.31176 z m -3.23017,2.43526 c -0.194021,4e-4 -0.385471,0.47577 -0.307916,0.83724 0.06635,0.22593 -0.135243,0.79838 0.07257,1.08626 0.408338,0.52102 1.233179,0.33004 1.05711,-0.5392 -0.0879,-0.47909 -0.616141,-1.19913 -0.690357,-1.30195 -0.04174,-0.0578 -0.08663,-0.0824 -0.131403,-0.0823 z" />
  </g>
</svg>
