<?xml version="1.0" encoding="UTF-8" standalone="no"?>
<!-- Created with Inkscape (http://www.inkscape.org/) -->

<svg
   width="15"
   height="15"
   id="svg2"
   version="1.1"
   xmlns="http://www.w3.org/2000/svg"
   xmlns:svg="http://www.w3.org/2000/svg"
   xmlns:rdf="http://www.w3.org/1999/02/22-rdf-syntax-ns#"
   xmlns:cc="http://creativecommons.org/ns#"
   xmlns:dc="http://purl.org/dc/elements/1.1/">
  <defs
     id="defs4" />
  <metadata
     id="metadata7">
    <rdf:RDF>
      <cc:Work
         rdf:about="">
        <dc:format>image/svg+xml</dc:format>
        <dc:type
           rdf:resource="http://purl.org/dc/dcmitype/StillImage" />
      </cc:Work>
    </rdf:RDF>
  </metadata>
  <path
     id="path4-0-5"
     style="fill:#000000"
     d="M 6.953125 0.01171875 C 6.9196575 0.01239084 6.8803344 0.01448375 6.8378906 0.01953125 C 6.6529406 0.04153125 6.731665 0.24278062 6.734375 0.55664062 L 6.7539062 2.8710938 C 6.7639062 4.0323938 7.4413213 5.1575294 7.5195312 4.7558594 C 7.5884313 4.4384294 7.3554144 3.9330612 7.3339844 2.4882812 C 7.3010844 2.0110613 7.2793 1.2124662 7.25 0.75390625 C 7.216575 0.13417 7.1873974 0.0070141211 6.953125 0.01171875 z M 9.2558594 0.92773438 C 8.9587356 0.94115414 9.0020894 1.2792862 8.9042969 1.4707031 C 8.6411269 2.3524931 8.34501 3.796875 8.71875 3.796875 C 8.84956 3.796875 8.7922888 4.0028931 8.6054688 4.2832031 C 8.4185987 4.5821931 8.2890625 5.1436269 8.2890625 5.6855469 C 7.8666525 6.3374869 7.8113912 6.42279 8.4257812 6.8125 C 9.0797412 7.27621 8.9787144 7.5240706 9.2714844 8.1191406 C 9.3539844 8.2868106 9.6649631 8.6425781 9.8144531 8.6425781 C 9.9639431 8.6425781 10.082302 8.2452031 10.044922 8.0957031 C 9.9888219 7.8901531 10.06346 7.8906937 10.34375 8.1523438 C 10.79224 8.5634638 11.053945 8.5626325 11.296875 8.1328125 C 11.427685 7.9272625 11.555008 8.0977156 11.648438 8.2285156 C 11.741838 8.3406456 12.187869 8.4857969 12.412109 8.5605469 C 12.935339 8.7287269 15.056863 8.4278188 14.945312 7.8242188 C 14.847312 7.2938588 11.57835 7.6852863 10.71875 7.7226562 C 10.32632 7.7226562 10.078125 7.5847662 10.078125 7.4726562 C 10.078125 7.3792563 9.9162269 7.2011719 9.7480469 7.2011719 C 9.5611769 7.2011719 9.402555 6.9694431 9.234375 6.5957031 C 9.101855 6.2908631 9.1843144 6.0384469 9.4277344 5.7792969 C 9.7080344 5.5363669 10.081708 5.4227162 10.679688 5.4414062 C 11.389788 5.4414062 11.557802 5.3851581 11.669922 5.0488281 C 11.856792 4.5816581 11.334727 3.8723538 11.091797 4.2460938 C 10.998397 4.3955838 10.905359 4.3955838 10.755859 4.2460938 C 10.606369 4.0965938 10.624468 3.9477475 10.830078 3.7421875 C 10.998268 3.5740075 11.128906 3.3679794 11.128906 3.2558594 C 11.128906 3.1437394 11.297505 2.7883831 11.484375 2.4707031 C 11.858105 1.8540431 11.996166 1.3691406 11.566406 1.3691406 C 11.371426 1.3858406 11.235219 1.85417 10.949219 2.3125 C 10.647469 2.94732 10.213201 3.4048144 10.306641 4.0214844 C 10.418761 4.7128944 10.194204 5.0304581 9.5214844 5.1425781 C 9.0916844 5.1986781 9.0173669 5.0871119 9.1855469 4.6386719 C 9.2602469 4.4891719 9.2610781 4.1715056 9.2050781 3.9472656 C 9.1302781 3.7230256 8.9470244 2.9143862 9.1152344 2.3164062 C 9.3207944 1.5876263 9.6336044 1.2568625 9.5214844 0.9765625 C 9.4106288 0.93921813 9.3244264 0.92463751 9.2558594 0.92773438 z M 4.765625 1.3574219 C 4.487125 1.3664219 4.5052212 2.1432781 4.5820312 2.4238281 C 4.7800512 3.1470981 4.75372 3.17813 4.96875 3.4375 C 5.49198 3.9981 5.9804688 4.0104587 5.9804688 3.6367188 C 5.9804688 3.5245988 5.7898544 3.5761719 5.6777344 3.5761719 C 5.2344844 3.2624119 5.1106156 2.8934719 5.0722656 2.4511719 C 5.0296656 2.1924019 5.0646937 1.6930494 5.1210938 1.5996094 C 5.1771937 1.5062094 5.027275 1.3948019 4.765625 1.3574219 z M 2.9238281 1.5878906 C 2.847218 1.5917289 2.7212912 1.6792969 2.6210938 1.8164062 C 2.4305038 2.0771263 2.5797675 2.1710456 3.0859375 2.5410156 C 3.4233475 2.7876556 3.6474919 2.9896644 3.6699219 2.9589844 C 3.7372219 2.8669844 3.15279 1.7341394 2.96875 1.5996094 C 2.9572375 1.5912094 2.9415074 1.5870049 2.9238281 1.5878906 z M 13.339844 2.8789062 C 13.236032 2.8792209 13.088028 2.9829544 12.839844 3.1914062 C 12.484794 3.4903962 12.092437 4.1640625 12.279297 4.1640625 C 12.316697 4.1640625 12.760174 4.0055 13.115234 3.78125 C 13.526344 3.53833 13.625531 3.2853675 13.550781 3.1171875 C 13.489469 2.9595141 13.431443 2.8786286 13.339844 2.8789062 z M 1.9453125 3.3300781 C 1.931883 3.329925 1.9183119 3.3296956 1.9042969 3.3320312 C 1.5492469 3.4067312 1.5126094 3.48227 1.6621094 3.78125 C 1.7742294 3.96812 2.0357862 4.1367187 2.2226562 4.1367188 C 2.5029562 4.1367188 2.6542969 4.1889806 2.6542969 4.5253906 C 2.6542969 4.8056906 2.7704319 4.9746094 2.9199219 4.9746094 C 3.0507319 4.9746094 3.2207525 5.1063594 3.3515625 5.2558594 C 3.4823725 5.4053494 3.6428981 5.5755913 3.7363281 5.5195312 C 3.8297281 5.4634313 4.0522525 5.5198813 4.2578125 5.6132812 C 4.5381125 5.7627713 4.6331325 5.7437313 4.7265625 5.5195312 C 4.8947425 5.1084112 4.464425 5.2324219 4.109375 5.2324219 C 3.623515 5.2324219 3.0241313 4.6253681 3.0195312 4.2988281 C 2.9717312 4.0262581 2.5582244 3.540755 2.3339844 3.578125 C 2.2813906 3.5956562 2.1467545 3.3323755 1.9453125 3.3300781 z M 5.4023438 4.3164062 C 5.3456352 4.3181846 5.2868937 4.3439094 5.2226562 4.390625 C 4.9984163 4.540125 5.0353538 4.6519706 5.5585938 5.1191406 C 6.0070737 5.5489406 6.0827738 5.6796875 5.8398438 5.6796875 C 5.5408538 5.6796875 5.5408538 5.6990669 5.8398438 5.9980469 C 6.1575238 6.3157169 7.2773437 6.483425 7.2773438 6.203125 C 7.2773438 6.128325 7.4283744 6.0538462 7.6152344 6.0351562 C 7.8207944 6.0351562 7.7076844 5.9231981 7.3339844 5.7363281 C 6.9976244 5.5681481 6.6542969 5.5504612 6.6542969 5.4570312 C 6.6542969 5.3823313 6.4505419 5.1914063 6.2636719 5.1914062 C 6.0954919 5.1914062 5.9326931 4.9139638 5.7832031 4.6523438 C 5.6418806 4.4210962 5.5271026 4.312494 5.4023438 4.3164062 z M 14.029297 4.6953125 C 13.407343 4.7268049 12.469637 5.2287084 12.316406 5.5742188 C 12.243106 5.8398087 13.450841 5.2460938 13.925781 5.2460938 C 14.305741 5.2460938 14.647428 5.2691694 14.548828 4.9121094 C 14.468138 4.7430753 14.27267 4.6829894 14.029297 4.6953125 z M 0.49609375 5.3359375 C 0.43496954 5.3377761 0.3984375 5.3634781 0.3984375 5.421875 C 0.6166375 5.801475 1.6321425 6.3748869 2.4453125 6.4980469 C 3.8939925 6.6753769 2.6470563 6.0411637 1.1289062 5.5273438 C 0.88361312 5.4364288 0.630567 5.3318926 0.49609375 5.3359375 z M 14.644531 6.0390625 C 14.115377 6.052008 12.739375 6.5430781 11.554688 6.4238281 C 10.306608 6.2981981 9.6204288 5.9956856 9.6054688 6.4472656 C 9.6780687 6.7836256 9.8198569 7.03093 12.529297 6.9375 C 13.787247 6.8814 14.855897 6.3131325 14.867188 6.1640625 C 14.874406 6.0687072 14.792694 6.0354378 14.644531 6.0390625 z M 7.3457031 6.5878906 C 7.0194818 6.5812552 6.7454469 6.6823 6.6113281 6.8710938 C 5.8960181 8.0794538 7.39162 9.2903737 8.25 8.3085938 C 8.96531 7.5533738 8.7575431 7.09636 7.9707031 6.71875 C 7.7561094 6.63379 7.5414359 6.5918719 7.3457031 6.5878906 z M 5.984375 6.6992188 C 5.315925 6.7571188 4.7436706 6.9545856 4.0566406 7.0410156 C 3.8085206 7.0587156 3.5243087 7.1302619 3.4179688 7.2011719 C 3.3116388 7.2720719 2.8732662 7.6208 2.1289062 7.65625 C 1.3668162 7.67395 0.36863625 7.6395719 0.19140625 7.7636719 C -0.09216375 7.9763519 0.008229375 7.9626169 0.16210938 8.1230469 C 0.47704937 8.4086969 0.77035937 8.1900375 1.2871094 8.0859375 C 1.6770194 7.9618775 2.2732225 8.1171875 2.5390625 8.1171875 C 2.8049125 8.1171875 3.2930375 7.8138069 3.5234375 7.6542969 C 3.8956175 7.4061769 4.4893588 7.3030969 5.0742188 7.4980469 C 5.4463988 7.6398369 5.3310181 7.9453125 5.4550781 7.9453125 C 5.5791381 7.9453125 5.757235 8.0517213 5.828125 8.1757812 C 5.952185 8.3707313 6.13013 8.3278844 6.21875 8.1152344 C 6.27195 7.9734444 6.0601631 7.6707431 5.8769531 7.5019531 C 5.7437931 7.4017631 5.608415 7.2116619 5.765625 7.1699219 C 6.403645 7.0635819 6.533785 6.7523887 5.984375 6.6992188 z M 8.6347656 8.125 C 8.6095931 8.1273452 8.5880334 8.1363759 8.5722656 8.1503906 C 8.3854056 8.3372606 8.6739931 10.130647 9.3144531 10.654297 C 9.3867531 10.713397 9.4171275 11.257752 9.3984375 11.476562 C 9.3318375 12.258403 9.4044963 12.487977 9.5351562 12.623047 C 9.8341462 12.772547 10.028716 12.596858 9.9726562 12.017578 C 9.9165562 11.550408 9.9540156 11.383123 10.103516 11.476562 C 10.215646 11.551262 10.310547 11.774919 10.310547 11.980469 C 10.310547 12.167339 10.402624 12.335938 10.496094 12.335938 C 10.608214 12.335938 10.683594 12.503434 10.683594 12.708984 C 10.814664 13.172954 10.756719 13.893788 11.412109 13.830078 C 11.767159 13.830078 12.147118 13.168243 11.642578 12.439453 C 11.268838 11.878843 10.702072 11.738443 10.851562 11.439453 C 11.057123 11.047033 11.040451 10.604521 10.681641 10.550781 C 10.481951 10.504581 9.9355469 10.2423 9.9355469 9.8125 C 9.9355469 9.7191 9.7672088 9.5136125 9.5429688 9.3828125 C 9.3374187 9.2520025 9.3805987 8.9374506 9.4179688 8.8066406 C 9.5026125 8.5864853 8.8780998 8.1023294 8.6347656 8.125 z M 4.7871094 8.3164062 C 4.7117078 8.3149578 4.6134925 8.3374956 4.4921875 8.3886719 C 4.2456575 8.4721719 4.1545075 8.7314894 4.1484375 8.8808594 C 4.1434375 9.0115594 3.9125075 9.2730756 3.7421875 9.3222656 C 3.5524375 9.3893656 3.23813 9.4783231 3.0625 9.6582031 C 2.67237 10.053793 1.9623962 10.251564 1.6601562 9.8652344 C 1.4295762 9.5566244 0.80988438 9.7566724 0.55273438 10.101562 C 0.41444437 10.282963 0.86641437 10.61361 1.1464844 10.625 C 1.2211844 10.628 1.5533619 10.737251 1.8574219 10.619141 C 2.1420419 10.518491 2.4828119 10.420038 2.5761719 10.423828 C 2.9511219 10.401628 3.9289381 9.8237144 4.4550781 9.3027344 C 5.0082444 8.7781762 5.1138497 8.3226827 4.7871094 8.3164062 z M 6.515625 8.4472656 C 6.4822855 8.4467017 6.4490266 8.4514512 6.4140625 8.4628906 C 6.3075025 8.4977906 6.3166869 8.73731 6.1855469 8.9375 C 6.0366569 9.1435 5.7928444 9.3598688 5.6152344 9.4179688 C 5.4198744 9.4818688 5.3365313 9.765128 5.3632812 10.267578 C 5.3680354 10.334195 5.3766473 10.397782 5.390625 10.458984 C 5.3124978 10.536041 5.2324487 10.623795 5.1542969 10.716797 C 4.8275569 11.085167 4.4691331 11.377469 4.3457031 11.355469 C 4.2418831 11.330569 3.9735294 11.549497 3.7558594 11.841797 C 3.5381894 12.134097 3.3147881 12.386958 3.2363281 12.398438 C 3.1578281 12.409937 3.0130369 12.651539 2.9355469 12.943359 C 2.7609269 13.529869 2.9075844 13.568432 3.3964844 13.076172 C 3.5892844 12.887682 3.86269 12.7076 4 12.6875 C 4.15691 12.6645 4.343075 12.222856 4.546875 11.972656 C 4.750665 11.722456 5.1205125 11.723225 5.2578125 11.703125 C 5.3951125 11.683025 5.5026312 11.586351 5.4882812 11.488281 C 5.4739812 11.390181 5.9432406 11.406816 6.1503906 11.316406 C 6.1958256 11.297714 6.2317591 11.267777 6.2597656 11.230469 C 6.3702812 11.166944 6.4172103 10.998484 6.3242188 10.699219 L 6.21875 10.361328 C 6.10086 9.981938 6.4822344 9.6061962 6.4589844 9.5351562 C 6.4357844 9.4641563 6.5622944 9.30469 6.7402344 9.1875 C 7.0627416 8.975075 6.8379072 8.4527171 6.515625 8.4472656 z M 10.992188 8.7890625 C 10.470499 8.7890258 9.8562825 8.8311769 9.8203125 9.0195312 C 9.7681125 9.3742013 10.065629 9.5859044 10.449219 9.6152344 C 10.629359 9.6290344 10.90625 9.5671063 10.90625 9.6914062 C 10.90625 9.8406662 10.931621 10.285637 11.119141 10.029297 C 11.359863 9.7001865 11.792915 9.6461449 12.183594 9.6328125 C 12.543205 9.6873302 13.058594 9.9060854 13.058594 10.279297 C 13.073294 10.479477 13.332262 10.646131 13.919922 10.519531 C 14.210562 10.519531 14.552734 10.181748 14.552734 9.9863281 C 14.552734 9.7691981 14.43619 9.453125 14.0625 9.453125 C 13.7511 9.453125 13.308668 9.4615688 13.142578 9.4179688 C 13.084849 9.3921073 13.04311 9.3725878 12.998047 9.3535156 C 12.931838 9.085761 12.31109 8.8945149 11.583984 8.8066406 C 11.448206 8.7988594 11.229319 8.7890792 10.992188 8.7890625 z M 7.9765625 8.8320312 C 7.3824384 8.8236964 7.1863281 9.0807469 7.0175781 9.9316406 C 7.0135781 10.468461 7.1693906 10.898438 7.2441406 10.898438 C 7.3188406 10.898438 7.3557794 11.197684 7.3183594 11.552734 C 7.2436594 12.132024 7.1691831 12.207031 6.7207031 12.207031 C 6.1974631 12.207031 5.8237963 12.655778 6.1601562 12.861328 C 6.2722762 12.936128 6.3476563 12.878556 6.3476562 12.785156 C 6.3476562 12.673036 6.4774631 12.580078 6.6269531 12.580078 C 6.9633231 12.580078 6.9633231 12.506413 6.6269531 13.814453 C 6.4774631 14.412433 6.4489581 14.842367 6.4863281 14.898438 C 6.6358281 15.047928 7.2681794 14.914638 7.3496094 14.205078 C 7.4454094 13.837388 7.55637 13.438566 7.59375 12.597656 C 7.63115 11.868866 8.3125594 11.775341 8.4433594 11.644531 C 8.5554894 11.532411 8.5616587 10.468391 8.5429688 10.244141 C 8.5314688 9.6916705 8.3929325 8.8566406 8.1015625 8.8378906 C 8.0583213 8.8350719 8.0161708 8.8325869 7.9765625 8.8320312 z M 11.964844 10.195312 C 11.832322 10.19993 11.698664 10.251054 11.601562 10.339844 C 11.536362 10.399444 11.451937 10.91493 11.560547 11.09375 C 11.669177 11.27257 11.944576 11.723514 12.009766 11.902344 C 12.161866 12.339454 13.349609 12.35475 13.349609 11.9375 C 13.349609 11.75867 12.89318 11.466921 12.71875 11.212891 C 12.62005 11.069121 12.492914 10.724419 12.427734 10.505859 C 12.350327 10.281713 12.15853 10.188564 11.964844 10.195312 z M 8.7480469 12.621094 C 8.5548282 12.621489 8.36417 13.095003 8.4414062 13.455078 C 8.5075063 13.680118 8.3066819 14.250349 8.5136719 14.537109 C 8.9203219 15.056099 9.7417462 14.86586 9.5664062 14 C 9.4789062 13.52277 8.9528163 12.805545 8.8789062 12.703125 C 8.8373319 12.645518 8.7926358 12.621002 8.7480469 12.621094 z " />
</svg>
