<?xml version="1.0" encoding="UTF-8" standalone="no"?>
<!-- Created with Inkscape (http://www.inkscape.org/) -->

<svg
   width="35"
   height="35"
   id="svg2"
   version="1.1"
   xmlns="http://www.w3.org/2000/svg"
   xmlns:svg="http://www.w3.org/2000/svg"
   xmlns:rdf="http://www.w3.org/1999/02/22-rdf-syntax-ns#"
   xmlns:cc="http://creativecommons.org/ns#"
   xmlns:dc="http://purl.org/dc/elements/1.1/">
  <defs
     id="defs4" />
  <metadata
     id="metadata7">
    <rdf:RDF>
      <cc:Work
         rdf:about="">
        <dc:format>image/svg+xml</dc:format>
        <dc:type
           rdf:resource="http://purl.org/dc/dcmitype/StillImage" />
      </cc:Work>
    </rdf:RDF>
  </metadata>
  <path
     id="path8-74-0-7-8-0-3-4-9"
     style="fill:#000000"
     d="M 17.5 0 C 17 0 16.111693 0.18684288 15.720703 0.49804688 C 14.228763 1.4452449 13.325892 1.2434241 12.982422 1.0332031 C 12.590692 0.79343814 11.523771 0.82765277 10.644531 1.5429688 C 10.001771 2.0492253 9.5476181 2.4678405 9.5175781 2.7421875 C 9.5064781 3.1360905 9.1985594 3.3882714 8.2246094 3.5058594 C 6.9939394 3.6273844 6.6030894 3.6312591 5.9433594 5.2675781 C 5.5638494 6.1977721 5.3735725 6.8944595 5.4140625 7.3046875 C 5.4747625 7.9200255 5.0245456 8.1908106 4.3535156 7.9785156 C 3.1149956 7.5865966 2.2054406 9.1904325 2.0878906 10.458984 C 1.9540106 11.779151 3.4656175 15.521613 4.3984375 16.072266 L 4.4003906 16.072266 C 4.7466106 16.323735 4.8681181 16.332573 5.1738281 16.173828 C 5.4371381 15.990767 5.0368062 15.882772 4.8476562 15.658203 C 4.1343962 15.080081 3.5931075 14.626213 3.7734375 14.238281 C 3.9406675 13.978949 3.81087 13.407949 3.34375 13.089844 C 2.8812 12.773357 2.5404025 11.074172 2.6328125 10.53125 C 2.9091125 9.5683911 3.303825 8.7268355 3.953125 8.6484375 C 4.431295 8.5726475 5.1157419 8.8882264 5.3574219 9.0214844 C 5.8760819 9.3559474 6.0132262 9.9865036 5.0351562 10.054688 C 4.0485263 10.123468 3.9613656 11.014413 4.8535156 11.701172 C 5.4238056 12.051923 5.7374069 12.833175 5.9980469 13.085938 C 6.2763069 13.372732 6.6543788 13.521799 6.8242188 13.433594 C 7.0619888 13.310133 6.8355594 13.125152 6.3496094 12.6875 C 5.7943994 12.199514 5.5517219 12.043502 5.8574219 11.884766 C 6.0775519 11.727331 5.8936263 11.513269 5.3789062 11.435547 C 4.9497463 11.356507 4.7678256 11.049935 4.6972656 10.914062 C 4.4679856 10.472497 5.2554131 10.096746 6.7519531 10.570312 C 7.9904731 10.962215 8.2801013 11.253606 8.2382812 10.757812 C 8.1990813 10.433162 7.9733412 10.247692 7.7695312 10.353516 C 7.1241613 10.688625 7.6661712 9.1579526 8.3945312 8.6503906 C 8.9870013 8.2133706 9.0025088 8.1618942 8.3867188 8.2226562 C 7.9765087 8.2631562 7.5884281 8.5949246 7.4238281 9.0253906 C 7.3333281 9.3114296 7.3790406 9.6932939 7.2128906 9.8886719 C 6.9294206 10.222022 6.4197681 10.227866 6.3925781 9.8613281 C 6.4165781 9.2206761 6.0012356 8.8276445 5.9785156 8.3828125 C 5.9368156 7.5670715 5.9071431 6.8426566 6.1269531 6.7285156 C 6.3647131 6.6050536 6.7699981 5.7069071 6.8300781 5.1582031 C 6.9515681 4.1463611 7.4471044 4.5468348 8.8652344 4.3710938 C 9.3210144 4.2988538 10.003663 3.6671311 9.9082031 4.6269531 C 9.8934847 4.7749533 9.8962163 4.8673535 9.9101562 4.9179688 C 9.8690165 5.7701198 10.381865 7.2602383 10.871094 7.6289062 C 11.300144 7.9522202 12.188416 7.8403422 12.322266 7.3476562 C 12.411486 7.0192092 12.311619 6.9423248 11.792969 7.1054688 C 11.185819 7.2810578 10.961586 7.3250947 10.660156 6.4648438 C 10.477996 5.9714448 10.295697 5.0722419 10.404297 4.5605469 C 10.471348 4.2394394 10.540949 3.9074579 10.537109 3.6210938 C 10.556346 3.5158508 10.564796 3.4252299 10.548828 3.3789062 C 10.285108 2.7342512 11.198984 2.3649927 12.683594 1.9726562 C 13.809734 1.7329052 15.484872 1.2997548 16.507812 1.0273438 C 18.653492 0.58965077 18.756025 1.1429092 20.453125 2.4179688 C 21.082195 2.9332928 21.711396 2.1396637 22.447266 1.8164062 C 22.940766 1.5996203 23.567601 1.988751 23.988281 2.6328125 C 24.269181 3.0907175 24.624117 3.1496075 24.898438 3.1796875 C 25.258357 3.2084275 24.972582 3.5347691 24.789062 3.8457031 C 24.763825 3.8884573 24.743403 3.9315047 24.726562 3.9746094 C 24.608996 4.0832087 24.468808 4.2959792 24.259766 4.6425781 C 23.911106 5.2706841 23.535676 5.8558488 23.228516 5.8867188 C 22.983636 5.9360587 22.796584 6.0109735 22.771484 6.2578125 C 22.729184 6.6741295 22.284784 6.6387899 21.996094 6.6074219 C 21.666974 6.5631319 21.386485 6.8967892 21.265625 7.3789062 C 21.213025 7.6477632 20.533264 7.6676589 20.277344 7.3886719 C 19.723044 6.7909789 19.836747 5.872933 20.398438 5.9375 C 20.706958 5.94765 20.669176 5.972176 20.847656 5.78125 C 21.085626 5.526692 20.908551 5.4137012 20.425781 5.4570312 C 19.451131 5.5555912 19.369654 6.452546 19.833984 7.484375 C 20.045534 7.849882 20.406388 7.993928 20.861328 8.03125 C 21.373598 8.07327 21.45621 7.962615 21.625 7.484375 C 21.79242 6.965106 22.1665 7.1377505 22.65625 7.0390625 C 22.828252 7.0059339 23.074651 6.8773666 23.353516 6.6816406 C 23.252997 7.2377093 23.593615 7.6689802 23.871094 8.0683594 C 24.148264 8.4453854 24.653441 8.6981254 24.894531 8.4433594 C 25.219661 8.0997964 24.873162 8.0309652 24.388672 7.7226562 C 23.948232 7.4143482 23.702198 6.855292 24.142578 6.0625 C 24.171978 6.0202753 24.196974 5.9852036 24.224609 5.9453125 C 24.310727 5.8608331 24.396187 5.7737495 24.480469 5.6835938 C 24.9033 5.2312928 25.160366 4.9301954 25.292969 4.7089844 C 25.318203 4.6839525 25.343033 4.6556226 25.367188 4.6210938 C 26.063878 3.6251727 27.857836 5.1676253 28.316406 6.0507812 C 28.457516 6.3225182 28.215286 7.4570509 27.884766 8.2324219 C 27.795666 8.4533959 27.848731 8.7834335 27.681641 8.8046875 C 26.692031 8.9305505 27.799344 9.9238311 27.871094 9.5332031 C 27.905194 9.3473201 28.168334 8.6416935 28.333984 8.3203125 C 28.601304 7.8016764 28.8922 7.3523316 29.021484 6.8964844 C 29.301412 6.6614271 29.874638 6.6143793 29.841797 6.7910156 C 29.825797 7.0184386 30.151341 7.1759411 30.613281 7.4863281 C 31.070131 7.7629031 31.434303 8.2648247 31.314453 8.3867188 C 31.084993 8.6981148 31.543731 9.6197867 32.050781 9.5429688 C 32.287401 9.5071188 33.291442 10.2426 33.164062 9.765625 C 32.604523 8.347672 32.094301 8.713944 31.925781 8.0625 C 31.884881 7.792065 31.457696 7.0168422 31.066406 6.4882812 C 30.509186 5.7773863 30.11612 5.7088703 29.40625 5.8164062 C 29.306942 5.8314479 29.112692 5.8076333 28.966797 5.765625 C 28.8433 5.4015519 28.595335 4.945659 28.113281 4.6386719 C 27.438511 4.1696549 26.848183 3.6689822 26.689453 3.3632812 C 26.530713 3.0575722 25.889351 2.5575955 25.494141 2.4609375 C 25.098931 2.3642675 24.318896 2.1924082 24.160156 1.8867188 C 23.983766 1.5470477 23.513769 1.1439454 23.099609 0.92773438 C 22.461419 0.61224537 22.207058 0.70191539 21.804688 1.2558594 C 21.252727 2.1030929 20.560204 1.8194537 20.083984 0.90234375 C 19.925244 0.59663575 19.520855 0.34830488 18.921875 0.35742188 C 18.322875 0.36652187 17.885085 0.42373325 17.796875 0.25390625 C 17.769975 0.20215625 17.74997 2.7755576e-17 17.5 0 z M 11.724609 1.4550781 C 11.801526 1.4474845 11.863224 1.458218 11.880859 1.4921875 C 11.933859 1.5940745 11.872489 1.6790446 11.755859 1.8691406 C 11.604969 2.0768611 11.064742 2.3378147 10.976562 2.1679688 C 10.870762 1.9641902 11.266843 1.6390261 11.470703 1.5332031 C 11.555623 1.4891081 11.647693 1.4626717 11.724609 1.4550781 z M 16.529297 3.3085938 C 16.282733 3.3147069 16.060702 3.3790973 15.748047 3.4726562 C 15.101447 3.6661363 14.430344 3.8915551 14.277344 3.7519531 C 13.971334 3.4727421 11.871931 4.4627258 11.994141 4.8710938 C 12.044941 5.0412478 12.484499 5.0215843 12.974609 4.8007812 C 13.508919 4.6038062 14.187434 4.2157121 14.490234 4.2363281 C 15.657204 4.2949581 16.673485 4.3971092 16.421875 4.1757812 C 16.268875 4.0361772 16.402816 3.9296469 16.566406 3.7324219 C 16.706036 3.5794239 17.000906 3.6334911 17.347656 4.0488281 C 17.837216 4.5697381 18.238475 4.6708773 18.953125 4.4570312 C 19.793715 4.1684092 19.891836 3.5090959 19.041016 3.7636719 C 18.870876 3.8145919 18.367412 3.8348608 17.851562 3.6367188 C 17.205312 3.3884926 16.846308 3.300734 16.529297 3.3085938 z M 31.519531 9.9375 C 31.450203 9.9368269 31.380326 9.9395844 31.308594 9.9453125 C 30.976354 9.9718425 31.065599 10.400167 30.974609 10.521484 C 30.943619 10.55009 30.922455 10.578721 30.898438 10.607422 C 30.796543 10.680018 30.784687 10.845273 30.626953 11.025391 C 30.272863 11.40754 29.564724 12.038819 29.058594 12.173828 C 28.185444 12.422425 28.102144 12.198402 27.896484 11.603516 C 27.731514 11.087759 27.610611 11.04936 27.394531 11.310547 C 27.070411 11.702332 27.312052 12.777765 28.013672 12.78125 C 28.732882 13.012153 30.858653 12.157318 31.070312 11.498047 C 31.154934 11.234488 31.189066 11.154955 31.357422 11.076172 C 31.924133 10.907767 31.960557 11.45299 31.369141 12.128906 C 31.035511 12.523191 30.854313 12.916823 30.945312 13.007812 C 31.036213 13.098802 31.308141 12.917608 31.550781 12.583984 C 31.914731 12.09871 32.096874 12.066876 32.521484 12.339844 C 32.794444 12.521821 33.007936 12.88627 32.947266 13.128906 C 32.916966 13.371543 32.483666 14.416845 32.847656 15.023438 C 33.120216 15.628778 33.787444 16.796724 33.746094 17.535156 C 33.796494 18.628829 33.543298 20.028512 33.361328 20.453125 C 32.595728 21.999039 31.49706 22.446807 30.90625 22.296875 C 30.44697 22.214855 30.681641 22.57734 30.681641 23.001953 C 30.681641 23.517556 30.157484 24.242903 29.490234 24.910156 C 28.913974 25.516746 28.335937 26.049188 28.335938 26.382812 C 28.335938 26.837756 28.184263 26.990345 27.820312 26.929688 C 27.517022 26.869028 27.275391 26.565016 27.275391 26.261719 C 27.275391 25.928094 27.092136 25.625112 26.910156 25.564453 C 26.697846 25.473463 26.517578 25.62454 26.517578 25.867188 C 26.517578 26.140152 26.425064 26.535628 26.333984 26.808594 C 26.212674 27.142219 26.358287 27.471288 26.904297 27.683594 C 26.92185 27.689932 26.93939 27.693416 26.957031 27.699219 C 27.718275 28.122631 27.88381 28.506653 27.955078 29.015625 C 28.140938 30.076344 27.098479 30.903679 25.292969 31.599609 C 24.274799 31.989386 23.417739 31.792157 23.099609 31.462891 C 22.694569 31.064521 21.722169 31.908124 21.318359 31.621094 C 20.917089 31.335902 21.264691 29.882652 21.337891 29.623047 C 21.340268 29.61462 21.338569 29.600555 21.335938 29.585938 C 21.431964 29.270903 21.539924 29.043513 21.792969 29.125 C 22.144299 29.235976 22.385216 28.561798 22.503906 27.849609 C 22.671486 26.941924 23.282076 26.630205 23.847656 26.148438 C 24.284356 25.707756 24.024568 25.317529 23.585938 25.609375 C 22.591007 26.265719 22.191049 26.495082 21.974609 27.242188 C 21.834969 27.800778 21.674742 28.086965 21.632812 27.898438 C 21.625812 27.688976 21.325394 27.464642 20.990234 27.380859 C 20.209854 27.051784 20.537829 27.395815 20.699219 27.855469 C 20.844169 28.268281 20.311063 28.538579 20.095703 28.71875 C 19.683983 29.033672 19.781979 29.732571 19.886719 30.144531 C 20.010399 30.59603 19.540589 31.137088 18.568359 31.863281 C 18.177099 32.144375 17.05058 32.264591 16.6875 32.173828 C 16.31744 32.111008 15.480209 32.625431 14.886719 32.744141 C 14.167549 32.890786 14.005243 32.213374 11.720703 32.261719 C 11.183873 32.249279 11.145092 31.73051 10.669922 31.646484 C 9.9110917 31.512298 8.9310356 31.741769 8.6347656 31.248047 C 8.3624256 30.794217 7.0355481 30.074802 6.9238281 30.046875 C 6.7841881 30.011965 5.9224612 29.468543 5.8945312 29.105469 C 5.8870014 28.921802 6.0702319 28.698967 6.1386719 28.507812 C 6.3791651 28.724115 6.6139191 28.841977 6.765625 28.802734 C 6.969695 28.749944 7.6310031 29.164497 7.9394531 29.375 C 8.7451931 29.964875 10.387796 29.009841 10.441406 28.15625 C 10.485906 27.346434 10.206851 26.699998 11.144531 27.296875 C 11.466921 27.513531 11.993501 27.434692 11.394531 27.060547 C 11.067301 26.637195 10.754034 26.383747 10.583984 26.427734 C 10.082614 26.593682 9.8610737 27.527909 9.9648438 27.972656 C 10.040544 28.297116 9.5726981 28.485145 9.0175781 28.785156 C 8.8321481 28.88537 7.8789619 28.877896 7.8261719 28.673828 C 7.7317559 28.308926 5.1585612 27.30949 4.6640625 27.125 C 4.6471713 27.118699 4.6319652 27.113473 4.6152344 27.107422 C 4.5799864 27.094436 4.5504275 27.085027 4.5253906 27.078125 C 4.4881683 27.065387 4.4499854 27.050545 4.4140625 27.039062 C 3.5552525 26.794687 3.4130869 25.52364 3.8417969 25.138672 C 3.8655435 25.114926 3.8699239 25.084222 3.8671875 25.052734 C 3.9765372 24.935991 4.0806758 24.809663 4.1679688 24.677734 C 4.6875187 23.892492 5.7160325 23.714906 6.3203125 23.960938 C 6.7681225 24.178625 7.1377412 24.16788 7.5195312 23.818359 C 7.8072013 23.596586 7.4530163 23.532822 7.2539062 23.271484 C 7.1017363 23.071773 7.7735969 22.696254 7.8417969 22.365234 C 7.9964869 21.790179 7.9443156 21.756577 7.1972656 22.203125 C 6.7977556 22.465662 6.310425 22.858962 6.171875 23.068359 C 6.016005 23.303933 5.3983525 23.496984 4.7890625 23.507812 C 3.9707625 23.493253 4.0761606 23.593706 4.0253906 24.011719 C 4.0098772 24.211632 3.736601 24.505285 3.4589844 24.767578 C 3.4202168 24.760881 3.3788005 24.755362 3.3359375 24.753906 C 2.5651175 24.727726 3.2208562 22.975905 4.3164062 22.097656 C 4.5817263 21.867233 5.1005794 20.71934 5.5683594 18.966797 C 6.1548294 16.858136 6.10235 17.394298 6.4375 17.359375 C 6.84113 17.247364 7.3747294 17.007747 6.4121094 16.902344 C 5.7838494 16.850164 5.335105 16.999664 5.328125 17.621094 C 5.3124383 18.214549 4.5072263 21.053271 4.0234375 21.583984 C 3.9942229 21.591772 3.9639362 21.597861 3.9316406 21.599609 C 3.6845606 21.612989 3.8860969 21.097044 3.9042969 20.988281 C 3.9925969 20.374642 3.3968244 20.829046 2.0839844 20.349609 C 0.32211433 19.669969 0.1663262 18.323375 1.4101562 17.285156 C 1.8045762 16.944787 2.1827794 16.675184 1.7246094 16.673828 C 1.3051994 16.694208 1.0412656 16.124079 1.1972656 15.753906 C 1.8009456 14.321386 2.43169 14.316207 2.125 12.767578 C 1.94598 11.902402 1.707285 11.204095 1.734375 10.771484 C 1.815375 10.016926 1.7441694 9.8249877 1.4433594 10.603516 C 1.1424894 11.382043 1.3796281 11.637916 1.6113281 12.226562 C 1.8213181 12.854053 1.2621963 14.033568 0.87890625 14.992188 C 0.47848625 15.89023 0.17152625 17.117456 0.03515625 17.908203 C 0.00260625 18.121735 -9.2518585e-18 18.25 0 18.5 C 0 19 0.052550625 19.327054 0.15039062 19.669922 C 0.45567062 20.45601 0.93985182 21.205753 1.9511719 21.3125 C 2.5648019 21.40078 2.9897869 22.118283 2.6855469 22.662109 C 2.6742703 22.682267 2.66505 22.700874 2.6542969 22.720703 C 2.3396643 22.925506 2.1896793 23.985743 2.2285156 24.677734 C 2.3047156 26.03521 3.1752906 27.646868 3.9316406 27.835938 C 4.1550706 27.891787 4.414545 28.281945 4.484375 28.714844 C 4.554175 29.147742 5.1327744 29.915493 5.7402344 30.453125 C 6.3546844 30.962817 6.9059 31.48707 6.96875 31.591797 C 7.10839 31.864104 9.8589998 33.323683 10.25 33.302734 C 10.39663 33.309734 10.97632 33.36632 11.5 33.408203 C 12.04462 33.484973 12.111644 33.824297 12.771484 33.742188 C 12.932054 33.693377 13.618849 33.762312 13.912109 34.013672 C 14.345019 34.41863 14.830983 34.434324 15.626953 33.980469 C 16.143643 33.694188 16.962506 33.958901 17.353516 34.056641 C 17.998796 34.217949 18.838103 33.728705 19.5625 33.019531 C 19.625704 32.976631 19.698141 32.916434 19.785156 32.833984 C 20.198436 32.442397 20.382824 33.252764 20.615234 33.501953 C 20.914744 33.82309 21.418574 33.023024 22.027344 33.712891 C 22.480694 34.185784 23.355075 33.758665 24.265625 33.533203 C 25.176165 33.307741 26.742786 32.521797 27.634766 31.697266 C 28.759959 30.669665 29.145556 30.238443 29.123047 29.734375 C 29.50269 29.712042 30.110841 29.477432 30.814453 28.806641 C 31.838883 27.681472 32.846243 26.018749 32.757812 25.576172 C 32.517792 24.374893 31.994819 24.011858 31.349609 25.71875 L 30.990234 26.40625 C 30.686614 27.190154 30.218918 27.845418 29.523438 27.984375 C 29.17568 28.053859 29.077442 28.059324 28.972656 27.814453 C 29.010714 27.636747 29.012629 27.321634 29.099609 27.152344 C 29.129863 27.093448 29.145942 27.047324 29.154297 27.011719 C 29.22837 26.876761 29.269531 26.730937 29.269531 26.578125 C 29.269531 25.941205 30.234164 24.919002 30.871094 24.888672 C 31.053074 24.888672 31.374661 24.518029 31.556641 24.275391 C 31.859931 23.911436 31.969903 24.01929 31.876953 23.603516 C 31.825353 23.372515 31.981648 23.248034 32.267578 22.976562 C 32.527838 22.72947 32.589012 22.592128 32.763672 22.441406 C 32.952492 22.308539 33.271155 22.057449 33.453125 22.148438 C 33.635105 22.269754 33.313465 22.958535 32.828125 23.201172 C 32.551785 23.355836 32.315047 23.575028 33.185547 23.666016 C 33.852797 23.726676 34.065473 23.126157 34.289062 22.417969 C 34.407762 22.041978 34.433731 21.554581 34.275391 21.451172 C 33.961861 21.22809 34.250841 21.249141 34.494141 20.771484 C 35.000821 19.99914 35 18.5 35 17.5 C 35 16 34.848754 15.414428 34.402344 14.554688 C 34.068714 13.887436 33.966797 13.206561 33.966797 12.933594 C 33.966797 12.660628 33.758265 12.20427 33.515625 12.113281 C 33.272985 11.991962 33.314453 11.106726 33.314453 10.955078 C 33.314453 10.642304 32.559456 9.9475964 31.519531 9.9375 z M 30.511719 14.078125 C 30.296635 14.082376 30.063229 14.140814 29.814453 14.255859 C 28.625323 14.801707 28.684741 15.343846 29.957031 15.867188 C 30.583221 16.102913 30.759019 16.093986 30.412109 15.810547 C 30.085129 15.578958 29.910344 15.200956 29.990234 15.021484 C 30.086134 14.806109 30.357756 14.969482 30.728516 15.392578 C 31.159026 15.971278 31.384674 16.209518 30.833984 16.480469 C 30.387054 16.711587 30.415965 17.016705 30.703125 17.144531 C 30.918485 17.240401 30.675887 17.764795 30.404297 18.375 C 30.132657 18.985213 29.684663 19.184759 29.533203 18.945312 C 29.401663 18.757738 29.205255 18.714298 29.109375 18.929688 C 29.029475 19.10916 29.062603 19.424107 29.158203 19.595703 C 29.947433 20.721156 32.137656 17.826595 31.947266 15.935547 C 31.810828 14.732437 31.279875 14.062943 30.511719 14.078125 z M 3.2070312 16.636719 C 3.1962752 16.636844 3.1871131 16.643669 3.1816406 16.658203 C 3.1766406 16.775986 3.0838244 17.165088 2.9902344 17.554688 C 2.8966344 17.944297 3.0771887 18.38384 3.3867188 18.513672 C 4.1991588 18.85939 4.2856719 18.627545 3.7011719 17.464844 C 3.4791406 16.97467 3.2823238 16.635844 3.2070312 16.636719 z M 30.527344 20.552734 C 29.873227 20.552585 29.002642 20.741514 28.566406 21.074219 C 26.664266 22.611787 26.99407 23.111686 27.0625 23.519531 C 27.38289 25.42899 27.78765 25.128128 27.6875 23.222656 C 27.6591 22.68222 28.291448 22.323856 28.335938 22.132812 C 28.432237 21.718872 30.128968 21.001358 30.861328 21.171875 C 31.084188 21.223805 31.310989 21.109039 31.355469 20.917969 C 31.413853 20.667218 31.036101 20.55285 30.527344 20.552734 z M 5.7773438 25.554688 C 5.5325379 25.566392 5.3780338 25.683998 5.46875 25.892578 C 5.66085 26.334261 7.0242706 26.586661 7.5566406 26.267578 C 7.8545106 26.080076 8.1566731 26.036338 8.2207031 26.183594 C 8.2847031 26.330822 8.4612944 26.401014 8.5839844 26.347656 C 8.9520644 26.187562 8.707275 25.82615 8.140625 25.664062 C 7.869615 25.577672 7.4934537 25.654344 7.3398438 25.837891 C 7.1510137 26.007562 6.8184569 25.976485 6.5292969 25.78125 C 6.2797109 25.61624 5.9933489 25.54436 5.7773438 25.554688 z M 19.642578 27.042969 C 19.385061 27.048798 18.966372 27.155443 18.439453 27.378906 C 17.967813 27.575357 17.907989 27.811589 18.261719 27.96875 C 18.556499 28.08662 19.145894 27.929557 19.558594 27.615234 C 20.048663 27.241978 20.01895 27.034448 19.642578 27.042969 z M 24.708984 27.5625 C 24.495702 27.565231 24.078473 27.749915 23.806641 28.011719 C 23.323661 28.476875 22.791407 28.82712 23.154297 29.349609 C 23.299447 29.558601 23.330424 29.90109 23.896484 29.972656 C 25.382744 30.179623 26.099789 29.20384 26.011719 27.998047 C 26.019719 27.684219 25.484721 27.618819 25.525391 27.900391 C 25.727661 28.637692 24.795414 29.507371 23.896484 29.253906 C 23.316874 29.088484 23.460628 28.93844 24.142578 28.40625 C 24.931442 27.79062 24.950705 27.559405 24.708984 27.5625 z M 12.644531 29.037109 C 12.505304 29.030801 12.286902 29.134348 11.980469 29.347656 C 11.391039 29.731993 11.073649 29.724016 10.943359 29.376953 C 10.773519 29.079675 10.598873 29.144478 10.476562 29.65625 C 10.359322 30.212693 10.519477 30.421091 11.060547 30.404297 C 11.467637 30.402897 12.320772 30.349296 12.951172 30.322266 C 13.581572 30.295236 14.104288 30.506686 14.179688 30.769531 C 14.260188 31.077051 14.633594 31.301595 14.708984 31.564453 C 14.885374 32.313477 15.783313 32.124104 16.345703 31.109375 C 16.681093 30.482663 17.146433 30.203861 17.658203 30.326172 C 18.497973 30.546633 18.312996 29.918083 17.384766 29.501953 C 16.928206 29.297274 15.887598 29.857977 15.867188 30.349609 C 15.846687 30.843686 15.586551 31.19705 15.363281 31.222656 C 15.095311 31.253376 14.959198 30.860904 14.992188 30.359375 C 15.044187 29.629407 14.682584 29.754261 13.833984 29.851562 C 13.253374 29.918142 12.853735 29.47332 12.828125 29.25 C 12.812463 29.113219 12.752819 29.042016 12.644531 29.037109 z " />
</svg>
