<?xml version="1.0" encoding="UTF-8" standalone="no"?>
<!-- Created with Inkscape (http://www.inkscape.org/) -->

<svg
   width="15"
   height="15"
   id="svg2"
   version="1.1"
   xmlns="http://www.w3.org/2000/svg"
   xmlns:svg="http://www.w3.org/2000/svg"
   xmlns:rdf="http://www.w3.org/1999/02/22-rdf-syntax-ns#"
   xmlns:cc="http://creativecommons.org/ns#"
   xmlns:dc="http://purl.org/dc/elements/1.1/">
  <defs
     id="defs4" />
  <metadata
     id="metadata7">
    <rdf:RDF>
      <cc:Work
         rdf:about="">
        <dc:format>image/svg+xml</dc:format>
        <dc:type
           rdf:resource="http://purl.org/dc/dcmitype/StillImage" />
      </cc:Work>
    </rdf:RDF>
  </metadata>
  <path
     id="path4-1"
     style="fill:#000000"
     d="M 7.0371094 0.02734375 C 5.8054437 0.0091410423 3.6563288 0.77389667 3.3554688 1.4394531 C 2.9952688 2.2363091 3.3003694 3.2035504 3.8496094 3.1464844 C 4.1850094 3.0799844 3.6562919 2.733397 3.6074219 2 C 3.5766219 1.537472 4.3166563 0.99942175 5.3476562 0.71484375 C 7.0112663 0.25564975 8.4848419 0.53647042 8.2949219 1.7089844 C 8.0206119 2.9494504 8.5432619 2.8214911 8.6386719 2.1894531 C 8.70734 1.6196417 8.8346827 1.2302254 8.8027344 0.93359375 C 8.8087804 0.89058441 8.813525 0.84030724 8.8125 0.7734375 C 8.8085 0.5318205 9.4078756 0.91956392 9.6347656 1.0449219 C 10.052286 1.2755939 10.736855 1.6527981 11.015625 2.1738281 C 11.255845 2.6851571 11.709198 3.1626284 12.017578 3.2402344 C 12.711438 3.4148464 13.270127 4.7223085 12.623047 6.1640625 C 11.934005 7.6993233 12.261583 7.8681878 13.277344 6.4765625 C 13.882205 5.9660772 14.080769 7.2160908 14.078125 8.0878906 C 14.072125 10.020093 13.022274 9.2083402 13.152344 9.8632812 C 13.402584 11.12332 12.678621 11.755827 11.769531 12.529297 C 11.041151 13.020217 10.128276 13.43561 9.2910156 13.5 C 8.4267956 13.5665 7.5411069 13.587216 7.6855469 12.910156 C 7.6930394 12.875037 7.6999112 12.843682 7.703125 12.814453 C 7.7387635 12.741335 7.7700878 12.668705 7.7988281 12.595703 C 8.2087081 11.160193 9.3547431 10.96491 9.1582031 10.402344 C 8.9417331 9.7827455 8.5502106 10.360824 8.2441406 10.935547 C 7.7446906 11.87337 6.40131 13.720253 5.25 13.564453 C 4.45516 13.456883 3.7143144 13.017972 3.9277344 12.169922 C 4.0829444 11.553162 4.6393981 10.957618 4.9863281 11.044922 C 5.2947081 11.122522 5.5374275 11.063887 5.5859375 10.871094 C 5.7411475 10.254335 5.0032669 10.120196 4.2792969 10.716797 C 3.8045218 11.097952 3.4918068 11.564019 3.3457031 12.039062 C 2.4155884 12.121886 1.4952731 10.951796 1.7460938 9.9550781 C 1.7749569 9.8403839 1.8100097 9.7208047 1.8457031 9.6015625 C 1.8702236 9.5356954 1.8912944 9.4655786 1.9101562 9.390625 C 1.9109855 9.3873301 1.9113121 9.3841549 1.9121094 9.3808594 C 2.0444054 8.9437516 2.1515558 8.5601295 1.9902344 8.5195312 C 1.8938644 8.4952812 1.7581094 8.6340341 1.6191406 8.8808594 C 1.0094995 9.7186794 0.37423565 9.4913087 0.50390625 8.2421875 C 0.64495625 6.8834065 1.84996 5.9762631 1.34375 6.2207031 C 0.9894231 6.3917981 0.72130129 6.6811465 0.52929688 7.03125 C 0.5532057 6.5821049 0.59802016 5.9798134 0.7578125 5.4492188 C 0.9263825 4.8894727 1.3490506 3.9006675 1.6191406 3.8046875 C 1.8795306 3.7472395 2.399225 3.6897361 2.453125 3.4863281 C 2.575265 3.0252411 2.4150731 2.9855139 1.7207031 3.1386719 C 1.0648831 3.3015459 0.53064125 4.3518935 0.20703125 5.6640625 C -0.00051586538 6.5142864 0.067388019 7.3831843 0.28710938 7.6289062 C 0.28710938 7.6289062 0.28710938 7.6308594 0.28710938 7.6308594 C 0.092973665 8.3200528 0.12095688 9.0949797 0.33007812 9.6484375 C 0.53017052 10.115767 0.84345831 10.322192 1.1445312 10.289062 C 0.96658341 11.188826 1.1084385 11.590497 1.6582031 12.125 C 2.1837416 12.576883 2.8036237 12.795719 3.2539062 12.75 C 3.2947831 13.458891 3.7450261 14.096356 4.6445312 14.384766 C 5.5377708 14.684053 6.345383 14.368014 6.9414062 13.828125 C 6.9633422 14.23788 7.0592775 14.62291 7.2246094 14.724609 C 7.6218794 15.066209 8.5487362 15.170864 9.4414062 14.558594 C 11.142097 14.434404 11.927148 13.529726 12.548828 13.041016 C 13.436158 12.343476 14.32379 11.050261 14.78125 9.2324219 C 15.2959 7.1873479 14.748658 6.086285 14.455078 6.15625 C 13.805938 6.2980753 14.226543 5.1866762 14.292969 4.8789062 C 14.48842 4.3906564 14.287798 4.1392914 13.730469 3.4511719 C 13.230119 2.8333929 12.585734 2.3022144 12.277344 2.2246094 C 12.007514 2.1566994 11.726971 1.7983539 11.650391 1.4511719 C 11.587005 0.77004452 8.7535961 -0.07976844 8.3613281 0.38085938 C 8.3613281 0.38085938 8.359375 0.38085938 8.359375 0.38085938 C 8.1616342 0.27943462 7.8847175 0.18488009 7.5019531 0.0859375 C 7.3715219 0.04879075 7.2130616 0.029944137 7.0371094 0.02734375 z M 6.2890625 3.25 C 6.0992341 3.2555852 5.8664428 3.3337799 5.6601562 3.4765625 C 4.9652863 3.9575155 5.3501444 4.2188321 6.3339844 3.8925781 C 6.6908744 3.7774461 6.7881931 3.556148 6.5957031 3.34375 C 6.5292244 3.2770665 6.4189451 3.2461786 6.2890625 3.25 z M 8.3007812 3.25 C 8.1423344 3.2551733 8.0404056 3.2880023 8.0253906 3.3476562 C 7.9087206 3.8112643 8.3918094 4.0788134 9.0058594 3.9433594 C 9.4425494 3.8212704 9.7293209 3.9507304 10.144531 4.4902344 C 10.443971 4.9135644 10.797932 5.1177171 10.914062 5.0019531 C 11.296582 4.6342451 10.213887 3.6377952 9.1230469 3.3632812 C 8.8009087 3.2822149 8.5044986 3.2433486 8.3007812 3.25 z M 4.2851562 4.8417969 C 4.117709 4.8526203 3.7014877 5.3403448 3.3222656 6.296875 C 3.1151656 6.717381 2.9505919 7.5538988 3.0136719 7.8398438 C 3.2424819 9.2369617 4.9157694 9.3319426 4.9746094 8.9785156 C 5.0249094 8.6763236 4.512785 8.8598084 3.953125 8.3964844 C 3.426155 7.9602134 3.3481531 7.0146194 3.6269531 6.4433594 C 4.3594036 5.3604603 4.4634065 4.8302752 4.2851562 4.8417969 z M 10.845703 7.3261719 C 10.68274 7.3441434 10.68031 7.7435426 11.068359 8.8066406 C 11.312429 9.8405666 11.086201 11.100081 10.144531 11.650391 C 9.8477509 11.827831 9.9723084 12.135375 10.574219 11.890625 C 11.845709 11.418195 12.281112 10.301102 11.826172 8.6738281 C 11.593182 7.9936039 11.069022 7.3015443 10.845703 7.3261719 z " />
</svg>
