<?xml version="1.0" encoding="UTF-8" standalone="no"?>
<!-- Created with Inkscape (http://www.inkscape.org/) -->

<svg
   width="5"
   height="5"
   id="svg2"
   version="1.1"
   xmlns="http://www.w3.org/2000/svg"
   xmlns:svg="http://www.w3.org/2000/svg"
   xmlns:rdf="http://www.w3.org/1999/02/22-rdf-syntax-ns#"
   xmlns:cc="http://creativecommons.org/ns#"
   xmlns:dc="http://purl.org/dc/elements/1.1/">
  <defs
     id="defs4" />
  <metadata
     id="metadata7">
    <rdf:RDF>
      <cc:Work
         rdf:about="">
        <dc:format>image/svg+xml</dc:format>
        <dc:type
           rdf:resource="http://purl.org/dc/dcmitype/StillImage" />
      </cc:Work>
    </rdf:RDF>
  </metadata>
  <path
     id="path32-1-2-6-7-1-9"
     style="fill:#000000;stroke:none;stroke-width:0.0277252"
     d="M 1.9296875 0.0703125 C 1.789337 0.072641804 1.5826351 0.18038 1.5664062 0.30273438 C 1.5608062 0.40163437 1.697512 0.55750875 1.765625 0.60546875 C 1.867781 0.67746875 2.0017867 0.6784075 1.9179688 0.8046875 C 1.8481387 0.9098575 1.9028413 1.0144645 1.9570312 1.0527344 C 2.0047813 1.0863344 2.0579094 1.1271669 2.0683594 1.2167969 C 2.0787394 1.3063969 2.0809062 1.4560444 2.1289062 1.4589844 C 2.1768363 1.4619844 2.10459 1.6407456 2.15625 1.7285156 C 2.22119 1.8565356 2.3573086 1.9742425 2.4472656 1.9140625 C 2.6109466 1.8029325 2.4790394 1.4934438 2.3496094 1.4023438 C 2.1725274 1.2776938 2.1058899 0.8971575 2.1855469 0.7734375 C 2.2361069 0.6589275 2.262935 0.36187937 2.171875 0.31835938 C 2.148375 0.31135937 2.1319989 0.15012063 2.0136719 0.087890625 C 1.9914848 0.076228125 1.9620761 0.069774968 1.9296875 0.0703125 z M 3.6796875 0.328125 C 3.5948579 0.33983346 3.501822 0.48037625 3.421875 0.5390625 C 3.0947 0.8857425 2.7093594 1.5266025 2.8964844 1.6015625 C 2.9620344 1.6277625 2.8861128 1.7093081 2.7304688 1.7988281 C 2.6779687 1.8309281 2.6859794 1.8695913 2.6308594 1.9257812 C 2.5652194 2.0114813 2.6692521 2.1404606 2.7988281 2.0566406 C 2.8693981 2.0039406 3.0507586 1.8257606 3.0722656 1.7128906 C 3.0846356 1.5963306 3.2051 1.2469055 3.421875 1.0097656 C 3.686275 0.72083569 3.915925 0.633855 3.921875 0.484375 C 3.874685 0.445275 3.8101869 0.36503125 3.7167969 0.33203125 C 3.7051231 0.32790625 3.691806 0.32645236 3.6796875 0.328125 z M 0.37695312 1.3339844 C 0.22782512 1.3546844 0.13399313 1.6373656 0.15820312 1.7285156 C 0.21648312 1.8991656 0.40568863 1.9676863 0.61914062 2.0351562 C 0.78957963 2.0691562 0.81721763 2.2559769 0.91601562 2.3105469 C 1.0148357 2.3651469 1.4264779 2.23065 1.5449219 2.21875 C 1.6720789 2.20825 1.6669959 2.2335656 1.8261719 2.2597656 C 1.8880519 2.2699656 2.024661 2.2419938 2.046875 2.1835938 L 2.0878906 2.0742188 C 2.1125106 2.0093187 1.9999436 2.0097219 1.9316406 1.9824219 C 1.8357806 1.9380219 1.7298882 1.8490256 1.6757812 1.8535156 C 1.6216812 1.8575156 1.3757159 1.9013187 1.0917969 1.7617188 C 0.80491282 1.6118788 0.46835712 1.3242944 0.37695312 1.3339844 z M 4.6328125 1.3847656 C 4.6210017 1.3857962 4.608279 1.3903353 4.5957031 1.3964844 C 4.4839281 1.4510844 4.3212503 1.5424406 4.2539062 1.5566406 C 4.2284762 1.5586406 4.13955 1.6523719 4.125 1.6386719 C 4.04309 1.5670719 3.8714466 1.6949456 3.7128906 1.7910156 C 3.5820406 1.8703156 3.4786122 1.9128225 3.4101562 1.9453125 C 3.3011003 1.9970125 3.0294938 1.9806969 2.9804688 2.0605469 C 2.9455387 2.1175469 2.9546719 2.22099 2.9824219 2.28125 C 3.0172419 2.35675 3.100656 2.5741531 3.203125 2.5332031 C 3.270215 2.5063031 3.4113277 2.3922294 3.4492188 2.4433594 C 3.4763388 2.4949594 3.603813 2.4829281 3.625 2.3613281 C 3.65237 2.2050681 3.8231065 2.1102394 3.9609375 2.0371094 C 4.0997935 1.9929094 4.3086188 1.9748187 4.4648438 2.0117188 C 4.5582037 2.0230187 4.639919 2.1434938 4.828125 1.9960938 C 4.932444 1.9450938 4.894455 1.7219969 4.859375 1.6542969 C 4.8242578 1.5860563 4.7469838 1.3748034 4.6328125 1.3847656 z M 2.4257812 2.0683594 C 2.3026238 2.0658613 2.19907 2.1046562 2.1484375 2.1757812 C 1.8783805 2.6312112 2.4435091 3.08878 2.7675781 2.71875 C 3.0376221 2.43411 2.9572133 2.2614606 2.6601562 2.1191406 C 2.5791401 2.0871156 2.4996757 2.0698582 2.4257812 2.0683594 z M 1.8613281 2.3964844 C 1.8408592 2.3963462 1.8202919 2.3993556 1.8007812 2.40625 L 1.7070312 2.4472656 C 1.6066582 2.4870656 1.593117 2.5728756 1.59375 2.6347656 C 1.59475 2.6889656 1.5050759 2.8022119 1.4355469 2.8261719 C 1.3583469 2.8579719 1.2291333 2.9004456 1.1601562 2.9785156 C 1.0068572 3.1504456 0.6455725 3.1976362 0.4609375 2.8789062 C 0.3588775 2.7562062 0.22814025 3.0685769 0.12890625 3.2167969 C 0.07539625 3.2946969 0.36613388 3.5188381 0.48242188 3.5175781 C 0.51332187 3.5170981 0.6499905 3.5576531 0.7734375 3.5019531 C 0.8892365 3.4542531 1.0061659 3.3930181 1.0449219 3.3925781 C 1.1998069 3.3754781 1.5625273 3.10168 1.7695312 2.875 C 1.8362013 2.8051 2.0593136 2.7718781 2.0566406 2.7050781 C 2.0405206 2.473215 1.9500269 2.3970832 1.8613281 2.3964844 z M 4.0625 2.5195312 C 3.9593664 2.520375 3.8259925 2.5729062 3.7304688 2.7773438 C 3.6684688 2.9101137 4.0180151 2.8865838 4.0957031 2.9335938 C 4.1228931 2.9500938 4.2591755 3.11174 4.3359375 3.125 C 4.4126575 3.1383 4.6489781 3.3054781 4.7207031 3.3300781 C 4.8952281 3.3920781 5.0756062 2.7884363 4.9257812 2.6914062 C 4.8614812 2.6499062 4.7089752 2.7180781 4.5976562 2.7050781 C 4.5347162 2.6980781 4.2815909 2.6009944 4.2011719 2.5527344 C 4.1758369 2.5375469 4.1243802 2.519025 4.0625 2.5195312 z M 3.0078125 2.6894531 C 3.0037398 2.6897315 3.0006354 2.6898844 2.9980469 2.6914062 C 2.8745279 2.7640062 2.6646481 2.8493662 2.6894531 2.9414062 L 2.7421875 3.1386719 C 2.7694075 3.2396819 2.9223782 3.26617 2.9882812 3.3125 C 3.0190213 3.3341 3.0832313 3.5136425 3.0820312 3.6015625 C 3.0990912 3.7084625 3.09982 3.7739888 3.15625 3.8242188 C 3.21206 3.8580187 3.2850054 3.8565419 3.3027344 4.0136719 C 3.3221744 4.1859619 3.3831659 4.3067881 3.4355469 4.4550781 C 3.4998369 4.6372081 3.5734924 4.6144525 3.8339844 4.5703125 C 4.1515444 4.4616625 4.4571544 4.1245237 4.2089844 3.8398438 C 4.0433174 3.6265537 3.7124139 3.7448038 3.7636719 3.6210938 C 3.8346919 3.4584838 3.6001661 3.3003025 3.4550781 3.2890625 C 3.3738381 3.2763625 3.3145576 3.0455 3.2910156 2.875 C 3.2836094 2.8135937 3.0689032 2.6852781 3.0078125 2.6894531 z M 2.171875 2.9414062 C 2.080235 2.9444063 1.9335139 3.0956575 1.9511719 3.1484375 C 2.0068319 3.3148375 1.9540938 3.3741487 1.9335938 3.5117188 C 1.9032437 3.7400087 1.9035256 3.6102319 1.7753906 3.7324219 C 1.5986386 3.9010719 1.6320784 4.0224675 1.6464844 4.3046875 C 1.6588844 4.5474275 1.4297468 4.6056463 1.6054688 4.7851562 C 2.1034017 5.0605262 2.3398459 5.044985 2.3730469 4.765625 C 2.4113869 4.620795 2.3440156 4.3192712 2.3535156 4.0507812 C 2.3693956 3.7635213 2.5282111 3.6354044 2.5800781 3.5839844 C 2.6239681 3.5404844 2.6448025 3.3465631 2.6328125 3.2519531 L 2.609375 3.1484375 C 2.575995 2.9469675 2.315658 2.9394663 2.171875 2.9414062 z " />
</svg>
