<?xml version="1.0" encoding="UTF-8" standalone="no"?>
<!-- Created with Inkscape (http://www.inkscape.org/) -->

<svg
   width="41"
   height="41"
   id="svg2"
   version="1.1"
   xmlns="http://www.w3.org/2000/svg"
   xmlns:svg="http://www.w3.org/2000/svg"
   xmlns:rdf="http://www.w3.org/1999/02/22-rdf-syntax-ns#"
   xmlns:cc="http://creativecommons.org/ns#"
   xmlns:dc="http://purl.org/dc/elements/1.1/">
  <defs
     id="defs4" />
  <metadata
     id="metadata7">
    <rdf:RDF>
      <cc:Work
         rdf:about="">
        <dc:format>image/svg+xml</dc:format>
        <dc:type
           rdf:resource="http://purl.org/dc/dcmitype/StillImage" />
      </cc:Work>
    </rdf:RDF>
  </metadata>
  <path
     id="path244-0-7-5-0"
     style="fill:#000000"
     d="M 21.318359 0 C 20.893613 0 21.777152 0.78779206 21.242188 1.1875 C 20.70722 1.587207 20.538879 2.2021786 20.818359 3.3203125 C 21.04194 4.3266335 20.9308 4.997324 20.427734 5.3886719 C 19.81288 5.7800169 19.81214 6.0029355 20.371094 6.2265625 C 20.70647 6.3383775 20.326172 7.0979171 20.326172 7.7128906 C 20.326172 8.2719576 20.251775 8.734375 20.53125 8.734375 C 20.81073 8.734375 21.560083 6.5634242 21.671875 4.5507812 C 21.839565 2.2026974 22.775028 1.0834878 23.333984 0.74804688 C 24.004733 0.3566989 24.127999 0.38943761 23.416016 0.24414062 C 23.125381 0.18482063 22.853294 0.13302699 22.292969 0.0625 C 21.981075 0.02324 21.728283 0 21.318359 0 z M 17.349609 0.2421875 C 17.082117 0.23642605 16.805824 0.39572195 16.744141 0.65625 C 16.634482 1.1194109 16.871788 1.7283839 16.458984 1.7636719 C 15.683737 1.8299419 15.326272 0.58789988 14.558594 0.90429688 C 13.855008 1.1942768 15.346427 2.0968178 15.757812 2.7773438 C 16.172153 3.4842736 16.172826 3.5075391 15.587891 3.9707031 C 15.00297 4.4582421 15.001689 4.4583666 15.416016 5.3359375 C 15.635359 5.8234745 15.758565 6.2881961 15.636719 6.3613281 C 15.539129 6.4344681 15.415933 6.9206646 15.367188 7.4082031 C 15.294087 8.1882641 15.368123 8.3597476 15.904297 8.6035156 C 16.245525 8.7741546 15.630262 10.526851 15.849609 10.84375 C 16.075243 11.03474 16.258206 11.307207 16.552734 10.712891 C 16.778661 10.256998 17.205715 9.2753839 16.935547 8.5 C 16.521233 7.354285 16.232571 6.2806289 16.330078 5.2324219 C 16.500672 3.257888 16.879408 3.2165003 17.171875 3.0214844 C 17.513088 2.8020924 18.050429 1.1222314 17.855469 0.5859375 C 17.759501 0.3513102 17.557659 0.24666863 17.349609 0.2421875 z M 27.042969 1.1289062 C 26.928571 1.1327499 26.847829 1.168365 26.8125 1.2460938 C 26.671191 1.5570097 27.032355 2.1384976 26.386719 2.6191406 C 25.987295 2.9040336 25.711527 3.3362171 25.734375 3.5488281 C 25.757235 3.7614391 25.570649 4.2664279 25.318359 4.6699219 C 25.066055 5.0734159 24.889557 5.6830351 24.923828 6.0019531 C 24.958098 6.3208691 24.31953 7.8086911 24.126953 8.0175781 C 23.986674 8.1697371 24.048122 8.7037572 23.873047 9.2519531 C 23.557781 10.239166 23.482933 11.438271 23.792969 11.556641 C 24.337023 11.765484 25.28508 8.7304187 25.537109 7.5742188 C 25.639409 7.0255513 26.049058 5.4783923 26.419922 4.9277344 C 26.898448 4.2900444 27.47311 3.5391123 27.949219 2.8027344 C 28.121181 2.5367674 29.472731 2.5101328 29.675781 2.3398438 C 29.81427 2.2236988 29.124276 1.8931989 28.603516 1.6542969 C 28.024623 1.3887264 27.386163 1.1173753 27.042969 1.1289062 z M 12.328125 1.8007812 C 12.228482 1.8067466 12.094793 1.8444702 11.914062 1.9257812 C 9.4082177 3.0531673 11.553588 2.6899196 11.609375 3.2890625 C 11.725253 4.5335925 12.404806 6.1734064 12.962891 6.6152344 C 13.757849 7.2445899 13.460414 6.2642718 12.804688 4.2480469 C 12.722658 3.8912449 12.69284 3.340485 12.617188 2.8613281 C 12.539984 2.3722649 12.759913 1.7749315 12.328125 1.8007812 z M 8.8496094 3.8027344 C 8.7549604 3.7936703 8.5755234 3.8817569 8.2246094 4.1230469 C 7.7328214 4.4612039 7.5894501 4.5728884 7.6230469 4.8339844 C 7.5643109 5.1579363 8.0802194 5.2308916 7.8496094 5.4316406 C 7.3019181 5.9084186 7.5282146 6.1680974 8.703125 6.4121094 C 9.4504553 6.5722884 9.5757958 6.71767 9.5058594 7.3359375 C 9.5047594 7.7422475 9.8212407 8.2788094 9.8535156 8.5058594 C 9.9080316 8.8894434 10.121631 9.4883266 10.785156 10.076172 C 11.373413 10.577519 11.580575 10.154489 12.433594 11.134766 C 13.537492 12.403352 13.251935 13.392154 14.117188 13.390625 C 14.332387 13.330685 14.627748 12.995755 14.482422 12.800781 C 13.890436 12.353356 13.641029 12.146853 13.613281 11.765625 C 13.284295 10.549096 12.580964 9.7101687 12.001953 9.6210938 C 11.651587 9.6430338 11.531115 8.7244356 11.322266 8.4941406 C 11.117987 8.2688876 10.823246 8.7353025 10.708984 8.4140625 C 10.513852 7.8654595 10.416404 7.2825669 10.306641 7.0214844 C 9.9323626 5.8744334 9.5195483 5.1172317 9.1484375 4.6679688 C 8.8537461 4.3112181 9.0578372 3.8226752 8.8496094 3.8027344 z M 32.583984 4.0625 C 31.986701 4.0743148 33.073689 4.9789039 32.496094 5.125 C 30.95271 5.515392 29.331178 6.3337444 29.261719 6.5996094 C 29.192259 6.8654754 29.126235 7.2091495 28.902344 7.2578125 C 28.72324 7.2967425 28.123303 7.9887357 27.587891 8.7617188 C 26.84221 9.8618126 26.63053 11.016562 27.121094 11.332031 C 27.557153 11.612449 27.669308 10.68684 28.095703 9.84375 C 28.833626 8.2763401 30.342054 7.4126888 32.222656 7.0039062 C 33.073409 6.8189823 34.028547 6.4699929 34.402344 6.2480469 C 34.935784 5.8975939 34.552658 5.646673 34.253906 5.34375 C 34.127928 5.21601 32.900336 4.0814531 32.646484 4.0644531 C 32.623599 4.0629206 32.603252 4.0621189 32.583984 4.0625 z M 5.0839844 7.6113281 C 4.7009995 7.64368 4.2640204 8.0402441 4.0761719 8.2597656 C 3.9339772 8.4259356 4.0445652 8.8267838 4.1875 9.2148438 C 4.324857 9.5877756 3.4097786 10.615985 3.7070312 10.960938 C 4.2631209 11.606267 5.3409837 11.860731 5.2617188 12.195312 C 5.0965815 12.892356 5.4662677 13.568747 6.1074219 13.720703 C 6.3583106 13.780173 6.5917294 14.041534 6.6503906 14.291016 C 6.7134166 14.894898 5.8886096 15.076843 5.4375 14.626953 C 5.2181143 14.295645 4.3087586 14.295358 3.5175781 14.158203 C 3.0575751 14.078463 2.6589273 13.753503 2.4042969 13.808594 C 2.0794621 13.891884 1.765304 14.516781 1.5488281 14.599609 C 0.99934086 14.809854 1.0136089 14.472588 0.7578125 15.095703 C 0.52508667 15.662621 1.4156593 16.456504 1.9472656 16.208984 C 2.4894683 16.041333 3.0430076 15.117188 3.5917969 15.070312 C 5.185186 14.934209 6.6014528 15.436213 6.6816406 15.652344 C 6.7322376 15.811572 7.1576357 16.000758 7.6660156 16.091797 C 8.1677879 16.210714 8.9353367 16.451936 9.3828125 16.675781 C 10.460301 16.822414 10.716573 16.311872 10.185547 15.931641 C 9.6545201 15.55141 8.9937312 15.801523 8.3867188 15.554688 C 8.0162668 15.378549 7.8829882 15.053771 7.7714844 15.027344 C 7.6387011 14.966434 7.6014493 14.750397 7.6542969 14.527344 C 7.7071434 14.304289 7.5569948 14.064573 7.3339844 14.011719 C 7.1109739 13.958859 6.9435357 13.799565 6.9765625 13.660156 C 7.0095904 13.520756 6.8102598 13.238349 6.5234375 13.082031 C 6.2366152 12.925706 6.0660117 12.531311 6.1386719 12.224609 C 6.3764674 11.220865 5.1294367 10.535019 4.8847656 9.9785156 C 4.6718935 9.4751106 6.1447598 8.749038 5.5449219 7.84375 C 5.4209675 7.6566747 5.2580684 7.5966227 5.0839844 7.6113281 z M 36.357422 7.7890625 C 35.962356 7.7808846 36.151334 8.8835476 35.789062 9.2421875 C 35.144112 9.8806705 35.100292 10.402765 34.517578 10.894531 C 33.934839 11.3863 33.242595 11.82295 33.005859 11.859375 C 32.714513 11.895795 32.550781 12.022985 32.550781 12.259766 C 32.550781 12.624038 31.220077 13.462891 30.619141 13.462891 C 30.309567 13.462891 30.25662 13.389655 30.347656 13.025391 C 30.420496 12.715759 30.36565 12.51553 30.183594 12.40625 C 29.928644 12.278757 29.928014 12.188348 30.146484 11.660156 C 30.437845 10.96804 30.346556 10.183594 29.982422 10.183594 C 29.836636 10.183594 29.654246 10.330224 29.599609 10.494141 C 29.526789 10.676274 29.381381 10.894623 29.253906 11.003906 C 28.962545 11.258896 28.780838 12.332807 29.017578 12.478516 C 29.272511 12.62423 29.072404 13.408037 28.617188 13.972656 C 28.411886 14.200137 28.647897 14.609375 28.841797 14.609375 C 29.114944 14.609375 29.316406 14.694548 29.316406 14.548828 C 29.316406 14.38491 29.509887 14.373635 30.238281 14.300781 C 32.842309 14.027578 32.914647 13.98967 32.841797 13.333984 C 32.805307 13.024353 33.551373 12.550781 34.097656 12.550781 C 34.643968 12.550781 34.8986 12.388288 35.0625 11.951172 C 35.208285 11.550477 35.572828 11.549193 36.119141 11.986328 C 36.355864 12.168461 36.665479 12.278613 36.792969 12.242188 C 37.102531 12.132914 37.066657 11.696443 36.720703 11.496094 C 36.483963 11.368601 36.764568 11.213404 37.083984 10.949219 C 37.510523 10.569133 38.000882 10.775236 38.117188 10.480469 C 38.203418 10.261899 37.9539 9.6974968 37.740234 9.4023438 C 37.34935 8.8298549 36.723081 7.8541297 36.398438 7.7929688 C 36.384438 7.7903316 36.370166 7.7893263 36.357422 7.7890625 z M 33.580078 7.8125 C 33.110928 7.8119496 32.098001 8.208436 31.970703 8.546875 C 31.858696 8.791996 31.653405 9.0210111 31.486328 9.0175781 C 31.338755 9.0412881 31.275075 9.2947992 31.369141 9.5976562 C 31.486921 10.048121 31.714322 9.9651993 32.660156 9.1621094 C 33.253119 8.6125674 33.820617 8.0833486 33.816406 7.9628906 C 33.833609 7.8579204 33.736461 7.8126835 33.580078 7.8125 z M 8.0722656 8.90625 C 7.8293135 8.90625 7.6679688 9.1496896 7.6679688 9.5546875 C 7.6679688 9.9326865 7.8563077 10.391767 8.0722656 10.634766 C 8.2882216 10.850766 8.4785156 11.255735 8.4785156 11.552734 C 8.4785156 11.822734 8.6668565 12.064453 8.8828125 12.064453 C 8.9508275 12.064453 9.6016392 12.7373 10.101562 13.371094 C 10.464258 13.830916 10.270992 14.610045 10.650391 14.349609 C 10.808294 14.241221 10.890764 13.604207 10.662109 13.197266 C 10.249984 12.463551 9.3985811 11.648694 9.2871094 11.470703 C 9.1008165 11.173245 9.0987704 10.714391 8.8828125 10.525391 C 8.6668565 10.336392 8.4785156 9.9056865 8.4785156 9.5546875 C 8.4785156 9.1496896 8.3152148 8.90625 8.0722656 8.90625 z M 23.347656 11.875 C 22.966992 11.881344 23.09066 12.688105 22.878906 13.349609 C 22.757334 13.758695 22.472177 13.674475 22.515625 14.126953 C 22.556525 14.553127 22.298646 15.273972 22.189453 15.927734 C 22.055322 16.730829 21.025635 17.721708 21.472656 18.064453 C 21.819303 18.330234 22.293801 17.245582 22.720703 16.253906 C 22.867864 15.959805 23.128941 15.398479 23.119141 14.810547 C 23.090841 14.360118 23.506684 14.097151 23.550781 13.115234 C 23.560781 12.899537 24.095739 12.170826 23.542969 11.923828 C 23.465552 11.889234 23.402037 11.874094 23.347656 11.875 z M 39.357422 12.8125 C 39.342566 12.814524 39.327132 12.817816 39.310547 12.824219 C 38.965558 12.957404 39.086694 14.239431 38.384766 13.865234 C 37.571403 13.429253 37.521425 14.53895 37.134766 14.642578 C 36.871514 14.749719 35.607977 14.720456 35.220703 14.873047 C 34.064884 15.331397 34.052932 15.022612 33.023438 15.705078 C 32.582653 16.052343 32.648324 15.981377 32.146484 16.052734 C 31.835156 15.971194 31.63966 16.71451 31.4375 16.880859 C 31.106691 17.153081 31.052602 17.72582 31.802734 17.771484 C 32.278646 17.800464 32.954032 17.614055 33.365234 17.316406 C 33.964166 16.882881 34.46489 16.876909 35.181641 16.287109 C 35.36543 16.135885 35.74519 16.189855 36.109375 16.412109 C 36.9974 16.948073 37.949273 16.432012 38.929688 15.712891 C 39.208762 15.508194 39.98484 16.152586 40.091797 15.664062 C 40.293526 14.928185 40.063665 14.21549 39.835938 13.708984 C 39.620617 13.230081 39.580256 12.782133 39.357422 12.8125 z M 15.175781 13.054688 C 14.763852 13.092028 14.810718 13.138995 14.648438 13.269531 C 14.486159 13.400068 15.061223 13.960752 15.263672 14.195312 C 15.654756 14.648428 15.683723 15.059678 16.121094 15.603516 C 17.175866 16.612171 17.970402 18.479439 18.822266 18.392578 C 19.413248 18.364388 18.33904 17.434641 18.037109 17.150391 C 17.736609 16.883676 17.565915 15.980567 17.199219 16.007812 C 16.869221 16.032332 16.315864 15.276626 15.984375 14.785156 C 15.843484 14.588952 15.595624 14.254953 15.519531 13.929688 C 15.416556 13.489505 15.409889 13.033467 15.175781 13.054688 z M 3.9511719 17.119141 C 3.1237888 17.143171 3.7465051 17.745177 5.1972656 18.058594 C 5.5384013 18.167211 6.1747744 18.438043 6.0136719 18.712891 C 5.6996834 19.248569 4.9370251 19.013672 3.4746094 19.013672 C 2.9992403 19.013672 2.455925 19.033228 1.9433594 19.080078 C 1.5391168 19.117028 0.88588143 17.339638 0.56640625 17.408203 C 0.0711875 17.514475 0.001953125 19.490777 0.001953125 19.679688 C 0.001953125 19.858649 1.3636409 20.003906 3.0097656 20.003906 C 5.22849 20.003906 5.3499098 20.960852 6.3984375 19.800781 C 7.5553551 19.053843 10.184909 21.057276 10.619141 20.603516 C 11.065901 20.136667 9.0443003 19.451594 8.8320312 19.244141 C 8.2068609 18.917747 7.4599105 18.624015 6.9570312 18.273438 C 6.4769545 17.938754 5.8552958 17.063832 3.9511719 17.119141 z M 40.269531 17.28125 C 40.055782 17.289591 39.825626 17.578387 39.863281 17.931641 C 39.931321 18.530256 39.363429 19.014533 38.837891 18.945312 C 38.625015 18.900672 38.430605 19.250235 38.158203 19.457031 C 37.506139 19.728724 36.72753 19.516248 36.195312 19.486328 C 35.872171 19.230604 35.614005 19.224153 35.126953 19.482422 C 34.700027 19.714093 34.302087 19.721533 33.957031 19.572266 C 33.34728 19.534696 33.152937 19.677686 32.988281 19.699219 C 32.694506 19.466743 31.920994 19.757074 31.736328 20.056641 C 31.502578 20.386871 30.403189 20.860876 31.083984 21.248047 C 31.558457 21.648278 31.911431 21.693721 32.363281 21.457031 C 32.945705 21.150336 33.783052 20.278493 34.707031 21.083984 C 35.044866 21.351332 35.089341 21.606942 35.503906 21.564453 C 35.892391 21.548873 35.90759 21.191459 36.164062 20.775391 C 36.930186 20.103087 37.685047 21.038618 38.277344 21.035156 C 38.81581 21.044356 38.999601 20.382403 39.298828 20.085938 C 40.176615 19.546769 39.958841 23.527997 40.814453 21.939453 C 41.03633 21.527515 40.994141 20.089688 40.994141 19.679688 C 41.044651 18.929416 40.725719 17.889569 40.523438 17.464844 C 40.460225 17.332117 40.36669 17.277459 40.269531 17.28125 z M 28.539062 17.738281 C 28.235751 17.742721 27.595833 18.31797 27.333984 18.357422 C 26.510671 18.48147 25.827825 18.546862 25.046875 18.601562 C 23.918589 18.680522 22.825993 18.816771 22.808594 19.341797 C 22.951435 20.00351 23.899341 18.902526 27.220703 18.943359 C 27.357256 18.950359 27.976722 18.822602 28.146484 18.748047 C 28.415083 18.630087 28.669992 18.556654 28.683594 18.376953 C 28.697594 18.189416 28.703125 18.631513 28.703125 17.964844 C 28.703125 17.798177 28.640166 17.736801 28.539062 17.738281 z M 20.119141 19.039062 C 19.698317 19.047615 19.348619 19.186828 19.171875 19.435547 C 18.16645 21.133667 20.268098 22.836754 21.474609 21.457031 C 22.480034 20.395705 22.187989 19.753312 21.082031 19.222656 C 20.780391 19.103248 20.478247 19.044662 20.203125 19.039062 C 20.174467 19.03845 20.147196 19.038492 20.119141 19.039062 z M 15.96875 19.921875 C 15.293189 19.923301 14.548319 19.969786 14.064453 20.005859 C 12.958475 20.088309 12.763586 20.222501 12.568359 20.380859 C 12.125398 20.740151 12.207656 20.976598 11.832031 21.064453 C 11.393819 21.133363 10.593861 22.077559 11.726562 21.890625 C 11.986805 21.865425 11.899061 21.740646 12.175781 21.722656 C 12.697779 21.688716 12.64781 21.265535 13.082031 20.925781 C 13.751618 20.420569 17.471007 20.499578 17.527344 20.259766 C 17.590086 19.992697 16.837328 19.920042 15.96875 19.921875 z M 0.4453125 21.566406 C 0.40345787 21.566965 0.3701026 21.576786 0.34570312 21.599609 C 0.16689578 21.767744 0.03522187 21.800799 0.140625 22.673828 C 0.33188757 24.258026 0.89623086 23.018802 1.5585938 22.974609 C 2.1631864 22.934269 2.7480153 22.984382 2.890625 23.039062 C 3.1279626 23.136942 3.448467 23.108341 3.6132812 22.988281 C 3.7780786 22.868216 3.8490879 22.915333 4.0390625 22.884766 C 4.2289741 22.854086 4.7146798 23.481749 5.1171875 23.681641 C 5.6956768 23.902937 6.4888934 23.591259 6.9160156 24.203125 C 7.4213177 24.9519 7.3142321 25.219802 6.59375 24.957031 C 6.2949625 24.842395 6.0071806 24.928554 5.6132812 25.283203 C 5.1886589 25.629449 4.9207599 25.705056 4.5800781 25.5625 C 4.3315183 25.445158 2.5173855 26.187423 2.0253906 26.037109 C 1.3651636 25.835397 0.45779434 24.959026 0.79101562 26.126953 C 1.1067411 27.233566 1.0428614 27.62381 2.0234375 27.693359 C 2.9704918 27.760529 2.4891304 26.957894 3.125 26.65625 C 3.6964737 26.385155 4.2209483 26.797924 4.3613281 26.542969 C 4.4256041 26.428464 5.2718661 26.13712 5.4785156 26.226562 C 5.8387572 26.357959 6.5320175 26.209704 7.8671875 25.550781 C 8.1911983 25.391652 8.3427579 25.161045 8.8144531 25.166016 C 9.2942229 25.249116 9.6142747 25.046404 9.8496094 24.90625 C 10.271598 24.654941 11.431695 25.21094 11.591797 24.763672 C 11.949254 23.765066 11.241696 23.881241 11.074219 23.587891 C 10.906741 23.294539 10.501231 24.028079 9.0234375 24.113281 C 8.157942 24.170471 7.3939075 23.275208 6.7460938 22.867188 C 5.6666631 22.189854 5.0115258 22.194678 4.3925781 22.296875 C 4.0964924 22.341355 3.1611975 22.615212 2.3652344 22.628906 C 1.9930943 22.50375 0.84990727 21.561004 0.4453125 21.566406 z M 22.123047 22.033203 C 22.076597 22.034822 22.041691 22.049278 22.025391 22.078125 C 21.90111 22.298064 22.272819 22.491795 22.466797 22.9375 C 22.5743 23.184508 22.685547 23.550781 22.685547 23.550781 C 22.847007 24.006064 22.775178 23.879447 23.292969 25.072266 C 23.356569 25.218515 23.56535 25.965617 23.634766 26.333984 C 23.732356 26.85168 24.211646 27.312121 24.251953 27.484375 C 24.344933 27.88176 25.342717 28.552925 25.347656 28.132812 C 25.355056 27.503377 24.429499 26.773889 24.294922 26.4375 C 24.164939 26.112604 24.588758 25.895072 24.289062 25.148438 C 24.177219 24.869791 24.099996 24.431429 23.857422 24.03125 C 23.518884 23.789598 23.345485 23.01157 23.203125 22.828125 C 22.77629 22.27811 22.324331 22.026187 22.123047 22.033203 z M 18.802734 22.035156 C 18.593722 22.036872 18.329541 22.268203 18.310547 22.404297 C 18.279947 22.622816 18.215138 23.0632 17.957031 23.457031 C 17.66407 23.862283 17.584746 24.444706 17.398438 24.761719 C 16.846153 25.701425 16.59779 26.099796 15.939453 26.583984 C 15.607745 26.956731 15.504255 27.242115 15.367188 27.447266 C 15.04179 27.934297 15.301496 27.6391 15.699219 27.568359 C 15.969381 27.528769 16.129801 27.405812 16.101562 27.212891 C 16.073363 27.019864 16.447827 26.960548 16.880859 26.859375 C 17.241705 26.775065 17.731347 28.147898 17.927734 28.021484 C 18.1452 27.89646 17.773024 27.354726 17.615234 26.287109 C 17.457444 25.219493 18.383618 24.391714 18.337891 24.251953 C 18.292291 24.112231 18.372591 23.525496 18.722656 23.294922 C 19.411311 22.536819 19.102528 22.129131 18.888672 22.048828 C 18.86194 22.038791 18.832593 22.034911 18.802734 22.035156 z M 33.332031 22.210938 C 32.793049 22.200063 32.096532 22.583876 32.908203 22.878906 L 33.820312 23.210938 C 35.171849 23.702199 35.652411 24.550411 36.757812 24.685547 C 38.219079 24.920229 38.230317 27.08578 39.197266 27.447266 C 40.000741 27.770938 41.019953 24.363655 40.283203 23.900391 C 39.91733 23.695173 39.30848 24.309679 39.121094 24.300781 C 38.938717 24.344711 38.678013 24.129539 38.523438 23.904297 C 38.199263 23.295321 36.86703 23.198767 36.455078 23.460938 C 36.13812 23.71994 35.181451 22.571456 33.546875 22.240234 C 33.481151 22.221114 33.409029 22.212491 33.332031 22.210938 z M 30.890625 24.238281 C 30.790181 24.240325 30.784458 24.311739 30.730469 24.453125 C 30.476131 24.909935 30.604734 25.355324 31.537109 25.626953 C 33.555578 26.189 35.305563 27.634993 35.378906 28.332031 C 35.491209 29.196016 35.828484 30.285382 36.525391 30.982422 C 37.185611 31.606091 37.112456 32.527683 37.841797 31.449219 C 38.948375 29.812941 38.690706 29.960905 37.589844 29.734375 C 37.181076 29.634465 36.964844 28.231251 36.964844 27.791016 C 36.964844 26.690425 34.642142 26.134049 33.396484 25.357422 C 32.828806 25.035777 32.122579 24.618251 31.617188 24.4375 C 31.185847 24.303518 30.991069 24.236237 30.890625 24.238281 z M 28.537109 26.03125 C 28.105212 26.039966 27.954956 26.608483 28.128906 26.884766 C 28.462374 27.414407 28.502602 27.441686 29.015625 27.632812 C 29.784569 27.919283 29.928676 28.200939 29.445312 28.837891 C 29.198017 29.110763 30.39099 32.020815 30.648438 32.169922 C 30.734178 32.219632 30.918271 32.098026 31.050781 31.869141 C 31.315802 31.411366 32.350075 31.475479 32.929688 31.925781 C 33.125408 32.115537 33.55035 32.896424 33.857422 33.685547 C 34.164495 34.474655 34.541985 35.075506 34.722656 35.027344 C 35.023216 34.934194 36.249727 33.834287 36.271484 33.576172 C 36.290164 33.35458 35.5014 33.641014 35.275391 33.421875 C 35.010424 33.153824 34.578455 33.034149 34.744141 32.748047 C 34.926355 32.433338 34.730226 31.516314 34.273438 30.525391 C 33.516278 28.864327 33.516747 28.864657 32.429688 28.960938 C 31.506756 29.037658 31.318988 28.966981 31.203125 28.441406 C 31.147385 28.141758 30.841026 27.812321 30.5625 27.765625 C 30.283973 27.718905 29.828508 27.187503 29.541016 26.5625 C 29.349513 26.188588 29.103095 26.072555 28.626953 26.037109 C 28.59568 26.032476 28.565903 26.030669 28.537109 26.03125 z M 9.2949219 26.316406 C 8.9305336 26.316406 8.3839606 26.55089 8.0976562 26.863281 C 7.7853246 27.149642 7.3957214 27.436857 7.1875 27.462891 C 6.9792796 27.488921 6.5095551 27.696677 6.1191406 27.878906 C 5.3643398 28.243365 5.1051678 29.181641 5.7558594 29.181641 C 5.9640778 29.181641 6.3009076 29.259797 6.5351562 29.337891 C 6.847487 29.442014 6.953125 29.337757 6.953125 28.947266 C 6.953125 28.634874 7.1081858 28.400391 7.3164062 28.400391 C 7.5246287 28.400391 8.2015096 27.932094 8.8261719 27.359375 C 9.8933034 26.370132 9.9195842 26.342439 9.2949219 26.316406 z M 12.357422 26.894531 C 11.328404 26.868696 9.7326453 28.980727 8.7167969 30.580078 C 8.0569809 31.163166 6.27833 31.362493 5.9003906 31.146484 C 5.7113 31.011479 5.3070488 30.904297 5.0371094 30.904297 C 4.7401268 30.904297 4.279727 30.715659 4.0097656 30.472656 C 3.5778268 30.040632 2.7752407 29.732039 2.6132812 30.164062 C 2.3704302 30.785094 3.7684814 31.794479 4.4433594 31.605469 C 4.8212998 31.497442 5.1717683 31.661384 5.46875 32.066406 C 5.8736686 32.579433 6.0085658 32.605608 6.5214844 32.308594 C 6.818466 32.119576 7.141311 31.985405 7.1953125 32.066406 C 7.2494085 32.120416 7.1972078 32.822429 7.0351562 33.605469 C 6.8936506 34.345863 6.0039889 34.275643 5.9550781 34.591797 C 5.8827031 35.059673 6.7253377 35.715215 7.0449219 35.757812 C 7.3272035 35.725682 7.6855469 35.257712 7.6855469 35.095703 C 7.6855469 34.906685 7.9251175 34.252091 8.3300781 33.955078 C 8.7620189 33.631062 8.9878521 32.839199 9.2578125 32.326172 C 9.5006627 31.840148 10.111114 31.389841 10.246094 31.173828 C 10.678035 30.417792 12.590058 27.066307 12.455078 26.904297 C 12.423103 26.898926 12.390616 26.895365 12.357422 26.894531 z M 13.757812 29.275391 C 13.247967 29.3088 12.080235 31.809025 11.806641 32.515625 C 11.495338 33.259859 11.095553 33.904259 10.892578 33.935547 C 10.718483 33.951977 10.418863 34.433444 10.236328 35.001953 C 10.053797 35.570462 9.842091 36.081249 9.7265625 36.140625 C 9.6110301 36.199995 9.4215868 36.396832 9.2734375 36.738281 C 9.1973525 36.913627 8.465209 37.03681 8.9550781 37.449219 C 9.5912616 37.984809 11.123112 38.987534 11.525391 38.160156 C 11.724367 37.765773 11.110323 36.830468 11.3125 36.726562 C 11.543556 36.60781 11.594008 35.583782 11.777344 35.087891 C 11.960675 34.592001 12.290014 34.094141 12.492188 33.990234 C 12.694363 33.886324 12.808578 33.681547 12.734375 33.537109 C 12.660185 33.392674 12.830341 33.085882 13.103516 32.835938 C 13.606951 32.394624 14.715017 29.552751 13.806641 29.279297 C 13.791615 29.275095 13.774259 29.274313 13.757812 29.275391 z M 16.660156 29.300781 C 16.33318 29.293011 15.958062 29.486937 15.779297 29.757812 C 14.984613 30.936156 15.404177 32.325929 15.515625 33.521484 C 15.715108 34.951325 15.647925 35.150778 14.617188 36.214844 C 13.686302 37.179153 13.58745 37.446336 13.919922 38.078125 C 14.119405 38.510401 12.845615 38.968258 12.912109 39.300781 C 12.978589 39.666554 14.685248 40.171726 14.917969 40.271484 C 16.400501 40.589637 15.785333 40.194162 15.652344 39.628906 C 15.519398 39.063619 15.294319 38.719383 15.759766 38.287109 C 16.158714 37.921335 16.3125 37.31299 16.3125 36.980469 C 16.3125 35.883152 16.397986 35.930435 16.898438 35.517578 C 17.488312 35.030943 17.666181 34.632758 17.625 34.203125 C 17.491873 33.704344 17.513815 33.512452 17.414062 33.013672 C 17.314352 32.51489 17.209042 31.832741 17.011719 31.226562 C 16.83952 30.816616 17.305984 30.081777 17.21875 29.740234 C 17.140359 29.433494 16.914471 29.306825 16.660156 29.300781 z M 22.947266 29.929688 C 22.858416 29.919024 22.815223 30.054051 22.744141 30.324219 C 22.317627 31.77458 22.260666 32.713812 22.488281 33.197266 C 22.971625 34.107297 23.484139 36.097929 23.541016 37.207031 C 23.626226 40.05088 23.647291 40.428122 24.1875 40.570312 C 24.528703 40.655622 26.45025 40.253245 26.933594 39.712891 C 27.786602 38.717544 26.385063 38.600637 25.816406 38.117188 C 25.446769 37.832802 25.445972 37.690487 25.787109 37.207031 C 26.12829 36.723577 26.12862 36.525415 25.730469 35.814453 C 25.446141 35.359437 25.162557 34.988281 25.048828 34.988281 C 24.906634 34.988281 24.820313 34.676341 24.820312 34.306641 C 24.820312 33.936944 24.621891 33.482271 24.394531 33.283203 C 24.166893 33.084126 23.966797 32.515797 23.966797 32.003906 C 23.966797 31.492011 23.740317 30.779857 23.427734 30.410156 C 23.171833 30.097334 23.036116 29.940351 22.947266 29.929688 z M 26.085938 30.791016 C 26.032417 30.787624 25.986777 30.805959 25.947266 30.855469 C 25.736539 31.119525 25.962763 32.128416 26.169922 32.763672 C 26.468317 33.330868 26.41514 33.791016 26.583984 34.291016 C 26.895699 35.214093 26.894571 35.21474 27.224609 34.289062 C 27.503714 33.466336 27.568565 33.529596 28.166016 35.298828 C 28.478236 36.350283 28.566628 38.096198 28.927734 38.53125 C 29.559558 39.260488 30.485807 38.61096 30.90625 37.826172 C 31.211842 37.208745 30.76537 36.906662 30.275391 36.34375 C 29.888301 35.83178 29.718535 35.203683 29.818359 34.484375 C 30.031503 33.212592 28.869646 31.677319 28.166016 32.257812 C 27.935806 32.464143 27.621155 31.742385 27.09375 31.449219 C 26.675783 31.242267 26.317859 30.805712 26.085938 30.791016 z M 19.923828 31.298828 C 19.601943 31.290156 19.122131 31.737497 18.921875 31.939453 C 18.484276 32.339121 18.584665 34.317197 19.103516 34.876953 C 19.446483 35.29979 19.736399 35.579111 19.830078 35.763672 C 20.147128 36.38832 20.338893 37.118373 20.097656 37.318359 C 19.615513 37.887907 19.304511 38.273082 19.380859 38.564453 C 19.413459 38.886114 18.137424 40.07703 17.851562 40.244141 C 17.136912 40.661919 18.448448 41 20.498047 41 C 22.547896 41 21.830886 40.601617 21.041016 40.152344 C 20.793661 40.057194 20.776638 39.559689 21.0625 39.392578 C 21.419825 39.183688 21.888903 38.907425 21.59375 38.648438 C 21.241971 38.374597 21.279608 38.112579 21.6875 37.826172 C 22.130513 37.579128 21.670867 37.196397 21.822266 36.808594 C 21.990927 36.46608 21.697634 35.01661 20.822266 34.783203 C 19.689919 34.486192 20.278457 33.897555 20.355469 33.373047 C 20.374719 32.836007 20.193027 32.465411 20.222656 32.179688 C 20.290617 31.524259 20.144066 31.304762 19.923828 31.298828 z M 31.552734 33.398438 C 31.322015 33.404776 31.052306 33.677473 30.904297 34.166016 C 30.77604 34.55636 30.924675 34.92009 31.34375 35.216797 C 31.713525 35.478597 31.860963 36.076089 31.925781 36.455078 C 32.065664 37.14629 32.103678 37.471972 33.039062 36.638672 C 34.344184 35.698337 33.904112 35.708566 33.232422 35.455078 C 32.933552 35.354513 32.794685 35.20614 32.761719 34.886719 C 32.753319 34.584746 32.583074 34.354971 32.382812 34.324219 C 32.207201 34.310939 31.994983 34.087616 31.919922 33.775391 C 31.848916 33.514618 31.710595 33.394101 31.552734 33.398438 z " />
</svg>
