<?xml version="1.0" encoding="UTF-8" standalone="no"?>
<!-- Created with Inkscape (http://www.inkscape.org/) -->

<svg
   width="15"
   height="15"
   id="svg2"
   version="1.1"
   xmlns="http://www.w3.org/2000/svg"
   xmlns:svg="http://www.w3.org/2000/svg"
   xmlns:rdf="http://www.w3.org/1999/02/22-rdf-syntax-ns#"
   xmlns:cc="http://creativecommons.org/ns#"
   xmlns:dc="http://purl.org/dc/elements/1.1/">
  <defs
     id="defs4" />
  <metadata
     id="metadata7">
    <rdf:RDF>
      <cc:Work
         rdf:about="">
        <dc:format>image/svg+xml</dc:format>
        <dc:type
           rdf:resource="http://purl.org/dc/dcmitype/StillImage" />
      </cc:Work>
    </rdf:RDF>
  </metadata>
  <path
     id="path14618-6"
     style="fill:#000000"
     d="M 6.75 0 C 6.25 0 5.4707231 0.19550887 4.7832031 0.45117188 C 4.4165331 0.58752487 4.0821956 0.74383401 3.8222656 0.90625 C 3.5623256 1.068664 3.3812425 1.2426811 3.3203125 1.3769531 C 3.1476025 1.7577281 3.1363487 2.1825687 3.2304688 2.4960938 C 3.2774688 2.6528568 3.360065 2.8207306 3.421875 2.9316406 C 3.479775 3.0588916 3.6343775 3.259833 3.7421875 3.25 C 3.7895875 3.23953 3.9149737 3.2327129 3.9335938 3.1230469 C 3.9560937 3.0026979 3.8357694 2.8482899 3.7871094 2.6699219 C 3.7327094 2.4334289 3.6066831 2.2012094 3.5957031 1.9589844 C 3.5640031 1.6873544 3.7868719 1.4644484 4.0449219 1.2714844 C 4.3029619 1.0785194 4.6808406 0.90049061 5.1816406 0.68164062 C 5.1896406 0.67874062 5.1969781 0.67678125 5.2050781 0.67578125 C 6.0749581 0.51795825 6.8706238 0.349891 7.4648438 0.453125 C 7.7619438 0.504745 8.0287562 0.68017926 8.1914062 0.86328125 C 8.3540663 1.0463833 8.4169344 1.3049309 8.3652344 1.6230469 C 8.3646344 1.6250469 8.3643713 1.6270062 8.3632812 1.6289062 C 8.2950813 1.9375673 8.2761094 2.157928 8.2871094 2.296875 C 8.3222094 2.727584 8.5513319 2.5164735 8.6074219 2.1171875 C 8.6498219 1.7672105 8.7170063 1.4901267 8.7539062 1.2617188 C 8.7519062 0.65784672 8.4135312 0.42680712 8.3320312 0.36132812 L 8.328125 0.36132812 C 8.016905 0.20012812 7.6751075 0.13353475 7.4296875 0.05859375 L 7.4277344 0.056640625 C 7.3068144 0.022330625 7.25 -4.6259293e-18 6.75 0 z M 9.1875 0.20703125 C 9.1033 0.21623125 8.9325725 0.34216263 8.9453125 0.44726562 C 8.9799125 0.72974462 9.664866 0.78100489 10.003906 0.93554688 C 10.434566 1.1725349 10.795623 1.527254 11.007812 1.9375 C 11.220002 2.347746 11.308838 2.6484266 11.486328 2.8378906 C 11.663798 3.0273536 11.852266 3.157321 11.972656 3.1875 C 12.375356 3.288435 13.151129 3.7758785 13.224609 4.3046875 C 13.324699 5.2304595 13.021659 5.569286 12.949219 5.71875 C 12.927519 5.823588 12.825826 6.0106544 12.697266 6.1621094 C 12.206536 6.7402354 12.77038 6.9860861 13.28125 6.3613281 C 13.28625 6.3555281 13.291275 6.3503931 13.296875 6.3457031 C 13.498645 6.0791271 13.528724 6.011669 13.839844 6.046875 C 14.105554 6.109425 14.022011 7.3721993 13.988281 8.0039062 C 13.987521 8.5022943 13.773137 9.0990571 13.710938 9.3769531 C 13.659038 9.6257081 13.339294 10.542713 12.402344 11.445312 C 12.002954 11.830053 11.130301 11.455231 11.050781 11.519531 C 10.964381 11.638861 11.100841 11.926669 11.119141 12.005859 C 11.137041 12.633219 10.915643 12.826779 10.783203 12.980469 C 10.219553 13.487699 9.668 13.810092 8.34375 14.044922 C 8.06963 14.093522 7.8054544 13.662482 7.7402344 13.576172 C 7.4979044 13.255502 7.5892481 12.969694 7.6425781 12.677734 C 7.6953781 11.973374 7.431625 11.974162 7.265625 12.164062 C 6.873705 12.577113 6.5472587 13.012651 6.1679688 13.269531 C 5.9783288 13.397971 5.760645 13.52592 5.609375 13.59375 C 5.458125 13.66155 5.2264438 13.749496 4.9648438 13.697266 C 4.7032337 13.645066 4.3583112 13.411477 4.0820312 13.216797 C 3.9438813 13.119497 3.7241288 13.015742 3.6679688 12.851562 C 3.6117687 12.687392 3.4036294 12.364441 3.4433594 11.863281 C 3.5914019 11.429519 3.5658689 11.345648 3.4335938 11.529297 C 3.3826575 11.548686 3.304978 11.592341 3.1894531 11.675781 C 2.9195231 11.870751 2.3157525 12.334971 2.0703125 12.056641 C 1.9591425 11.930571 1.8344244 11.783074 1.6777344 11.458984 C 1.3474744 11.014314 1.4479344 10.382208 1.5839844 9.84375 C 1.6638844 9.5274011 1.8657994 9.6554765 1.9121094 9.4140625 C 1.9349094 9.2933555 1.9960219 9.1638568 1.9824219 8.8554688 C 1.8550819 8.1274407 1.6467437 8.614262 1.5585938 8.875 C 1.4789937 9.110468 1.3794744 9.2640127 1.3027344 9.3867188 C 1.2253344 9.5104707 1.0311663 9.6041705 0.87890625 9.6171875 C 0.72663625 9.6302075 0.48373625 9.2358313 0.41015625 8.9570312 C 0.36575625 8.7888343 0.2990825 8.5951954 0.3515625 8.2714844 C 0.4387625 7.5600014 0.75551188 6.9620629 0.98242188 6.5761719 C 1.0289219 6.4971219 1.0404719 6.4747575 1.0761719 6.4140625 C 0.86072185 6.5542265 0.65535875 6.7084998 0.51171875 6.9335938 C 0.45361875 7.0250537 0.31039875 6.9746775 0.32421875 6.8671875 C 0.39001875 6.3469855 0.46149375 5.7158022 0.55859375 5.3789062 C 0.64059375 5.0725203 0.82611684 4.7309925 1.0292969 4.4453125 C 1.1308869 4.3024725 1.2374506 4.1730606 1.3378906 4.0722656 C 1.4383606 3.9714656 1.5286331 3.8980732 1.6269531 3.8632812 C 1.6309531 3.8617812 1.6349719 3.860475 1.6386719 3.859375 C 1.8786119 3.806665 2.3300844 3.684583 2.3964844 3.421875 C 2.4251844 3.309915 2.3867594 3.2560146 2.3808594 3.2128906 C 2.3590594 3.1134806 2.231235 3.1078931 2.203125 3.0957031 C 2.189025 3.0896031 2.1663125 3.0852044 2.1328125 3.0839844 C 2.1202125 3.0835224 2.1069969 3.0836754 2.0917969 3.0839844 C 1.9850269 3.0861844 1.8122012 3.1076331 1.5820312 3.1582031 C 1.2911112 3.2306831 1.1559938 3.4123746 0.90234375 3.8535156 C 0.64835375 4.2952046 0.40360437 4.8753522 0.24023438 5.5351562 C 0.13696437 5.9566542 0 6.25 0 6.75 C 0 7 0.098008125 7.4682894 0.17382812 7.5527344 C 0.19042813 7.5712544 0.20107188 7.5943006 0.20117188 7.6191406 L 0.20117188 7.6210938 C 0.20113187 7.6304938 0.20045563 7.6394275 0.19726562 7.6484375 C 0.005605625 8.3260925 0.03569125 9.0973285 0.23828125 9.6328125 C 0.43135125 10.079099 0.70954063 10.24847 0.96289062 10.220703 C 1.0304906 10.214403 1.0855456 10.275233 1.0722656 10.341797 C 0.98306563 10.790814 0.9777875 11.101571 1.0546875 11.363281 C 1.2669375 11.773231 1.4067 11.967648 1.59375 12.173828 C 1.84334 12.614488 2.2595088 12.905945 2.4804688 12.828125 C 2.6170191 12.780047 2.8339986 12.681833 3.0097656 12.537109 C 3.0104211 12.551453 3.0083183 12.565544 3.0097656 12.580078 C 3.0477656 13.262188 3.6853956 14.101536 4.5722656 14.384766 L 4.5742188 14.384766 C 5.4472787 14.676136 6.2278863 14.370864 6.8164062 13.839844 C 6.8795063 13.784044 6.978835 13.826156 6.984375 13.910156 C 6.995275 14.112026 7.0252125 14.309188 7.0703125 14.460938 C 7.1154125 14.612687 7.1833825 14.711841 7.2265625 14.738281 C 7.2305625 14.741281 7.2345812 14.7463 7.2382812 14.75 C 7.3935413 14.88297 7.75 15 8 15 C 8.5 15 8.8839431 14.909076 9.3769531 14.572266 C 9.3917531 14.563266 9.4081813 14.557541 9.4257812 14.556641 C 11.126611 14.432941 11.832603 13.3919 12.189453 12.71875 C 13.243153 12.26969 14.317657 11.04971 14.779297 9.2226562 C 14.955677 8.5245953 15 8 15 7.5 C 15 7.25 14.956175 7.0657587 14.921875 6.9023438 C 14.788055 6.2107377 14.68425 5.9075794 14.59375 5.5527344 C 14.43507 5.0811134 14.197272 5.1914081 14.201172 5.0019531 C 14.299272 4.7076921 14.271094 4.4785736 14.183594 4.2441406 C 14.062334 3.8265666 14.012696 3.7907533 13.728516 3.4414062 C 13.477906 3.1331952 13.189574 2.843546 12.927734 2.625 C 12.665904 2.406455 12.421251 2.2606677 12.300781 2.2304688 C 12.130461 2.1877788 11.978706 2.0637021 11.853516 1.9082031 C 11.728336 1.7527031 11.629007 1.5637656 11.585938 1.3691406 C 11.584948 1.3645406 11.583984 1.3601387 11.583984 1.3554688 C 11.578984 1.3028688 11.543387 1.2316288 11.466797 1.1523438 C 11.390197 1.0730637 11.276632 0.988626 11.138672 0.90625 C 10.862742 0.74149101 10.489689 0.58291063 10.105469 0.46289062 C 9.7212486 0.34287163 9.520225 0.23210125 9.203125 0.20703125 C 9.198125 0.20656925 9.1931 0.20641725 9.1875 0.20703125 z M 5.8417969 2.5839844 C 5.7994969 2.5830184 5.7466906 2.5961675 5.6816406 2.6171875 C 5.5398106 2.6630075 5.6344 2.8063981 5.6875 3.0488281 L 6.0820312 4.8359375 C 6.1893113 5.3225725 6.5696406 6.1362825 6.8691406 6.6328125 C 6.9086406 6.7066425 6.6890681 6.8522809 6.6113281 6.8261719 C 6.1370481 6.6209659 5.2150225 6.2212822 4.9453125 6.1914062 C 4.6237725 6.1695563 3.9953312 5.8047614 3.7695312 5.7714844 C 3.4923812 5.7242644 3.2996406 6.0845053 3.3378906 6.3007812 C 3.3691906 6.4777312 3.846135 6.6036886 4.109375 6.5722656 C 4.348685 6.5436956 4.8176381 6.705954 5.0488281 6.765625 C 5.5816481 6.903153 6.0122388 7.1344586 6.5117188 7.2285156 C 6.6084188 7.2572256 6.5901906 7.4015954 6.5253906 7.4277344 C 6.0316006 7.6952474 4.8354138 8.2047251 4.3398438 8.5019531 C 4.1549138 8.5981531 3.9652525 8.7482529 3.9140625 8.8417969 C 3.8627625 8.9353669 3.6474419 8.9094965 3.2636719 9.3671875 C 2.9603119 9.7620805 3.1178563 9.6419534 3.0351562 9.8027344 C 2.9569563 10.829472 3.2957281 10.430894 3.5175781 9.9042969 C 3.6629181 9.672241 4.0889656 9.3891966 4.1972656 9.1816406 C 4.3764556 8.8542546 4.8305456 8.6397514 5.3222656 8.4746094 C 5.7129856 8.3774894 6.1184238 8.2517115 6.2148438 8.2109375 C 6.2906438 8.1788375 6.5521644 8.0374545 6.7089844 8.0703125 C 6.7429844 8.0742125 6.8774644 8.1341726 6.8027344 8.2128906 C 6.3803044 8.6971636 5.7200544 9.6081365 5.7089844 10.044922 C 5.7240844 10.888676 5.7796563 11.252628 6.2851562 10.195312 C 6.4562563 9.859391 6.9362344 8.8803489 7.0839844 8.5136719 C 7.2172844 8.0967989 7.4806613 8.2179324 7.5195312 8.5371094 C 7.6615313 8.9528414 7.9366887 9.5944421 8.1054688 10 C 8.4011287 10.743284 8.5062556 11.250287 8.3847656 11.435547 C 8.2373156 11.654437 8.2541225 11.687478 8.4765625 11.580078 C 8.6051525 11.496878 8.8105981 11.270729 8.9238281 11.068359 C 9.0636081 10.789886 9.0242175 10.576223 8.7734375 10.275391 C 8.5562875 10.000516 8.4917606 9.7800435 8.5878906 9.5859375 C 8.7182406 9.3753055 8.6845887 9.3061215 8.4804688 9.3203125 C 8.3612987 9.3356625 8.1813306 9.1409113 8.1191406 8.9414062 C 8.0408406 8.6900863 8.0318137 8.5226899 7.9648438 8.3886719 C 7.9102438 8.2913819 7.9020063 8.1849954 8.0039062 8.0683594 C 8.0630063 8.0059294 8.2503812 7.9392779 8.3320312 7.9980469 C 8.9696913 8.3063239 9.6112611 8.6291589 11.238281 9.4667969 C 12.398501 9.9561308 12.183318 9.6146989 12.205078 9.4667969 C 12.245678 9.1907119 11.882215 9.3766466 10.578125 8.5878906 C 9.830775 8.1358566 8.858755 7.6838329 8.390625 7.5761719 C 8.199965 7.5222019 8.171165 7.3475488 8.359375 7.3085938 C 8.576165 7.2494337 9.0422569 7.1923077 9.2792969 7.1054688 C 9.5302969 7.0238188 9.8431556 6.9345014 10.041016 6.8496094 C 10.246146 6.7615994 10.384141 6.7061442 10.337891 6.5039062 C 10.312191 6.4031792 9.9498119 6.4995305 9.7011719 6.6484375 C 9.3053319 6.8854965 8.6614156 6.7871075 8.3222656 7.0234375 C 8.2538656 7.0824275 8.1366188 6.9939537 8.1992188 6.9179688 C 8.4739587 6.5992368 8.8971606 6.0189835 8.9003906 5.8046875 C 8.8913906 5.5615405 9.0981113 5.2950076 9.2382812 5.1191406 C 9.3796712 4.9417166 9.4535006 4.7536829 9.7753906 4.6074219 C 9.7763906 4.6070479 9.7782969 4.6081449 9.7792969 4.6074219 C 10.013197 4.5123119 10.17284 4.4828881 10.28125 4.3769531 C 10.33545 4.3239731 10.394043 4.1815545 10.408203 4.1484375 C 10.422303 4.1153775 10.417969 4.1083819 10.417969 4.1074219 L 10.417969 4.1054688 C 10.395569 4.0674187 10.368225 4.0496494 10.328125 4.0371094 C 10.288025 4.0245694 10.232129 4.0203231 10.162109 4.0332031 C 10.022149 4.0585831 9.744055 4.1094526 9.546875 4.2441406 C 9.152505 4.5135326 8.8102106 5.0073579 8.5566406 5.4980469 C 8.4558006 5.6932029 8.088405 6.0471034 7.859375 6.4277344 C 7.606935 6.8388434 7.2981706 6.9243021 7.1191406 6.4238281 C 6.9276306 5.8962121 6.6398625 5.1684687 6.4765625 4.4492188 C 6.3726625 4.0850788 6.2250131 3.4713467 6.1269531 3.1210938 C 6.0175431 2.7145198 5.97072 2.5868824 5.84375 2.5839844 L 5.8417969 2.5839844 z " />
</svg>
