<?xml version="1.0" encoding="UTF-8" standalone="no"?>
<!-- Created with Inkscape (http://www.inkscape.org/) -->

<svg
   width="49"
   height="49"
   id="svg2"
   version="1.1"
   xmlns="http://www.w3.org/2000/svg"
   xmlns:svg="http://www.w3.org/2000/svg"
   xmlns:rdf="http://www.w3.org/1999/02/22-rdf-syntax-ns#"
   xmlns:cc="http://creativecommons.org/ns#"
   xmlns:dc="http://purl.org/dc/elements/1.1/">
  <defs
     id="defs4" />
  <metadata
     id="metadata7">
    <rdf:RDF>
      <cc:Work
         rdf:about="">
        <dc:format>image/svg+xml</dc:format>
        <dc:type
           rdf:resource="http://purl.org/dc/dcmitype/StillImage" />
      </cc:Work>
    </rdf:RDF>
  </metadata>
  <path
     id="path226-9-6-7-3-6-2-6-9-6"
     style="fill:#000000"
     d="M 23.496094 0 C 22.996196 0 23.073344 0.41506378 22.943359 0.80859375 C 22.763917 1.3517537 22.638644 1.8784295 22.597656 2.1933594 C 22.321164 5.2039592 23.443013 4.5388193 23.320312 3.2246094 C 23.363854 2.2062995 23.920194 1.5476637 24.070312 0.58984375 C 24.117784 0.28762378 23.995992 0 23.496094 0 z M 28.117188 0.33007812 C 28.078848 0.33081774 28.037972 0.33189688 27.994141 0.33398438 C 27.292837 0.36738437 26.898357 0.6222238 26.230469 1.0898438 C 25.362192 1.7578737 24.736977 2.7476295 25.109375 3.4433594 C 25.481773 4.1390894 25.946777 4.4418125 26.109375 4.0703125 C 26.876215 2.3182426 27.348524 1.2300137 27.894531 0.90234375 C 28.645924 0.46394066 28.692285 0.31898388 28.117188 0.33007812 z M 20.519531 0.375 C 20.292195 0.37889663 20.070664 0.57079065 19.978516 0.93945312 C 19.789828 2.150493 18.957951 0.82226562 18.462891 0.82226562 C 17.560084 0.82226562 18.97631 2.203365 19.287109 2.828125 C 19.782201 3.6728449 19.11229 4.0901944 18.925781 4.3964844 C 18.832041 4.4745844 18.659983 4.4755895 18.798828 4.7246094 C 19.027472 5.1347494 19.704661 4.7830087 20 4.4179688 C 20.490253 3.8120087 20.034714 3.314773 20.269531 3.1582031 C 20.67724 2.8960431 21.287643 1.4630856 21.054688 0.82226562 C 20.940016 0.54190565 20.75333 0.39457313 20.564453 0.37695312 C 20.549276 0.37554063 20.534687 0.37474022 20.519531 0.375 z M 30.263672 0.70507812 C 30.059657 0.69652262 29.841278 0.82075814 29.796875 0.97460938 C 29.826065 1.2468294 29.144835 2.5170125 28.980469 2.6953125 C 28.651716 3.0519225 27.778273 5.7706189 28.115234 5.9179688 C 28.396226 6.0984288 28.493129 5.1984313 28.814453 4.7695312 C 29.37853 4.0165913 30.132477 2.94124 30.269531 2.3125 C 30.900558 1.1002439 30.603697 0.7193373 30.263672 0.70507812 z M 16.478516 1.34375 C 16.436025 1.3468341 16.390702 1.3565713 16.341797 1.3730469 C 15.932831 1.5273969 16.614501 4.0993057 17.291016 5.7285156 C 17.551669 6.3562355 17.153084 6.9181874 17.705078 7.3164062 C 18.406945 7.8227522 17.768694 5.051068 17.208984 3.3300781 C 17.06088 2.6858938 17.115875 1.2974887 16.478516 1.34375 z M 33.148438 1.7226562 C 32.879382 1.734362 32.636015 1.819962 32.544922 2.0019531 C 32.445052 2.2696631 31.98507 2.7699119 31.542969 3.1386719 C 31.065698 3.4790918 30.736382 3.99595 30.763672 4.25 C 30.779122 4.39378 30.486935 4.5735638 30.679688 4.8085938 C 30.985533 5.1815238 31.713 5.1821669 32.054688 4.8417969 C 33.066392 3.833947 34.056444 2.6287356 34 2.1035156 C 33.97514 1.8712957 33.667688 1.7352962 33.265625 1.7226562 C 33.226535 1.7214063 33.186874 1.720984 33.148438 1.7226562 z M 14.330078 2.3027344 C 14.316604 2.3027769 14.303004 2.3036756 14.289062 2.3046875 C 14.229572 2.3086875 14.166121 2.3227031 14.097656 2.3457031 C 13.525574 2.5616231 13.568468 4.8191157 14.558594 6.2597656 C 14.760175 6.5530656 15.408861 6.1735325 15.560547 5.8515625 C 15.700173 5.5552026 15.436507 5.4612275 15.314453 5.0859375 C 15.110361 4.1982282 15.178972 2.3000523 14.330078 2.3027344 z M 36.046875 3.0292969 C 35.866548 3.0286746 35.711265 3.0723575 35.666016 3.171875 C 35.545351 3.4372649 35.216197 3.7932206 34.900391 4.0566406 C 34.559451 4.2998106 34.324244 4.6700825 34.34375 4.8515625 C 34.36325 5.0330325 33.938002 6.108715 33.722656 6.453125 C 33.522082 7.1754759 34.27221 6.7755275 34.628906 6.1796875 C 35.190821 5.4308676 36.778742 3.7689006 36.732422 3.3378906 C 36.712678 3.1535782 36.34742 3.030334 36.046875 3.0292969 z M 12.328125 3.3574219 C 12.120747 3.3574219 11.660156 3.6406381 11.660156 3.9863281 C 11.660156 4.3089781 12.143782 4.6246112 12.328125 4.8320312 C 12.512447 5.0164013 12.673828 5.3617244 12.673828 5.6152344 C 12.673828 5.8456943 12.835198 6.0527344 13.019531 6.0527344 C 13.226908 6.0527344 13.365234 5.8464749 13.365234 5.546875 C 13.365234 5.247275 13.203863 4.9015544 13.019531 4.7402344 C 12.835198 4.5789044 12.673828 4.2097562 12.673828 3.9101562 C 12.673828 3.5644663 12.535492 3.3574219 12.328125 3.3574219 z M 37.861328 4.1035156 C 37.786432 4.1026954 37.717857 4.1163394 37.660156 4.1484375 C 37.352419 4.3196675 37.250332 4.8898937 37.15625 5.0585938 C 37.06217 5.2272938 36.58033 5.7803676 36.771484 5.8046875 C 36.909469 5.8221875 37.701811 4.9968606 37.986328 4.9003906 C 38.149657 4.8309906 38.484405 4.7737519 38.554688 4.7949219 C 38.625087 4.8167219 38.673831 4.7013675 38.65625 4.5234375 C 38.615072 4.375847 38.185876 4.1070701 37.861328 4.1035156 z M 10.230469 4.6796875 C 9.8358106 4.7007875 9.550633 5.2485781 9.609375 5.7050781 C 9.539209 6.092178 10.127123 6.1058331 9.8515625 6.3457031 C 9.197129 6.9154131 9.1957188 7.0521771 10.599609 7.34375 C 11.49259 7.535147 11.453942 8.035135 11.554688 8.3125 C 11.872848 9.0972279 12.854084 8.5833077 12.644531 8.2773438 C 11.327828 6.3548728 10.625127 4.6585775 10.230469 4.6796875 z M 39.568359 6.0664062 C 39.528536 6.0663458 39.488188 6.0672481 39.447266 6.0683594 C 38.858156 6.0843594 36.94335 7.1839428 36.851562 7.6054688 C 36.766542 7.9959217 37.127569 7.9500954 37.939453 8.3183594 C 38.252877 8.4605263 38.521404 7.7346391 38.873047 7.6582031 C 39.889601 7.4372341 40.283819 7.5796581 40.730469 7.3144531 C 41.367852 6.8957012 41.724965 6.8971413 40.943359 6.3945312 C 40.638063 6.1982 40.165709 6.0673127 39.568359 6.0664062 z M 7.578125 6.8984375 C 7.4847718 6.9072601 7.3649379 7.0183432 7.1582031 7.2285156 C 6.5227298 7.8993196 6.5265869 7.952904 7.0761719 8.03125 C 7.3186514 8.05688 7.5835234 8.2683623 7.6621094 8.5039062 C 7.7191674 8.7304162 7.8866537 8.8776745 8.0429688 8.8671875 C 8.1777642 8.8476875 8.3732721 8.980088 8.4824219 9.203125 C 8.7222699 9.6582119 9.135753 9.4012353 9.1855469 8.7382812 C 9.2166904 8.4220822 9.0419755 8.1710291 8.6757812 8.0175781 C 8.3526622 7.8821791 7.9856939 7.5505376 7.8730469 7.2753906 C 7.7552153 7.0107336 7.6839253 6.8884385 7.578125 6.8984375 z M 42.392578 8.0527344 C 42.131668 8.0415258 41.876414 8.2765011 41.548828 8.5585938 C 41.180188 8.8595327 40.878995 8.9525699 40.613281 8.8261719 C 40.324378 8.6536439 40.23217 8.6995735 40.255859 8.9765625 C 40.279289 9.1381255 40.095429 9.403714 39.841797 9.53125 C 39.611239 9.6471839 38.064155 10.617558 38.568359 11.085938 C 38.861256 11.358023 40.082328 10.910306 40.935547 10.539062 C 41.938705 10.12131 42.819968 9.1651259 43.074219 9.3261719 C 43.374716 9.5217459 43.476864 9.2353509 43.326172 8.9355469 C 43.21039 8.7626509 42.903496 8.2682075 42.574219 8.1015625 C 42.512479 8.0703167 42.452788 8.055321 42.392578 8.0527344 z M 6.0859375 8.8574219 C 5.3360904 8.8574219 5.5015 9.4263192 5.7441406 9.6425781 C 6.2337787 10.078978 6.6010559 10.35565 7.0058594 10.839844 C 7.0901124 10.940615 7.3081299 10.972967 7.4394531 11.123047 C 7.5707763 11.273127 7.732371 11.444952 7.8261719 11.388672 C 7.9199529 11.332372 8.1432315 11.388642 8.3496094 11.482422 C 8.631022 11.632502 8.7265117 11.613772 8.8203125 11.388672 C 8.9891681 10.975952 8.8037258 10.732422 8.4472656 10.732422 C 7.9594851 10.732422 7.1100777 10.489919 7.1054688 10.162109 C 7.0574786 9.8884696 6.6430928 9.4019331 6.4179688 9.4394531 C 6.205362 9.3038631 6.2881862 8.8597419 6.0859375 8.8574219 z M 44.304688 10.619141 C 44.248234 10.620901 44.187425 10.624236 44.119141 10.626953 C 43.572872 10.648683 42.875491 11.45412 42.332031 11.990234 C 41.912885 12.408708 41.213983 12.241639 41.017578 12.976562 C 40.902475 13.407262 41.91925 13.684309 42.318359 13.882812 C 42.565678 14.005819 42.572476 13.745429 43.046875 14.125 C 43.329738 14.34263 43.699255 14.473211 43.851562 14.429688 C 44.221485 14.299105 44.177133 13.778462 43.763672 13.539062 C 43.41032 13.298063 44.083728 13.249708 44.324219 13.091797 C 44.933455 12.721819 45.307605 12.018373 45.154297 11.40625 C 44.836063 10.663056 44.699859 10.606818 44.304688 10.619141 z M 4.1972656 10.882812 C 4.1334313 10.885347 4.0816767 10.913017 4.0488281 10.972656 C 3.569166 11.84352 4.2609205 11.647352 5.2753906 12.818359 C 5.9045492 13.618542 6.5742289 14.465184 6.5449219 14.875 C 6.5305049 15.076656 6.6266129 15.408902 6.7285156 15.251953 C 7.0609108 14.739901 7.1140401 14.41399 7.0351562 13.808594 C 6.9467743 13.1303 6.2654748 12.605616 5.2792969 11.617188 C 4.9872319 11.324456 4.4738812 10.871831 4.1972656 10.882812 z M 46.224609 13.742188 C 46.166721 13.739002 46.15088 13.841543 46.130859 14.048828 C 46.109659 14.268308 45.894485 14.565111 45.652344 14.662109 C 45.407854 14.783493 44.80267 15.038425 44.318359 15.232422 C 43.808703 15.448304 42.651247 16.080108 42.685547 16.207031 C 42.783677 16.636563 43.143182 16.736346 43.552734 16.472656 C 43.962285 16.208969 45.714584 15.959229 46.037109 15.994141 C 46.359613 16.029061 46.71017 15.762121 46.90625 15.660156 C 47.224566 15.497482 47.232203 15.424234 46.974609 15.199219 C 46.825139 15.059817 46.751147 14.854688 46.832031 14.740234 C 46.913011 14.625767 46.804543 14.319175 46.572266 14.072266 C 46.383789 13.854732 46.282498 13.745373 46.224609 13.742188 z M 3.1601562 14.089844 C 2.9093096 14.09455 2.7135796 14.194442 2.7167969 14.394531 C 2.7250969 14.538976 2.5267797 14.750056 2.265625 14.857422 C 2.0223136 14.971248 1.8307088 15.165761 1.8632812 15.298828 C 1.9007733 15.47409 2.0387279 15.543006 2.2382812 15.494141 C 2.4199803 15.438791 2.7659172 15.484159 2.9980469 15.568359 C 3.4265885 15.723789 3.4276745 15.724919 3.1855469 15.333984 C 2.9661686 14.99171 3.0087026 14.985298 3.8300781 15.283203 C 4.3057191 15.475926 5.1241709 15.891818 5.3886719 15.886719 C 5.8397719 15.868459 5.6603313 15.584062 5.4960938 15.201172 C 5.3595255 14.909133 5.1750487 14.801488 4.8261719 14.816406 C 4.5259481 14.808606 4.2475602 14.687921 4.0136719 14.441406 C 3.7996622 14.202755 3.4444491 14.084511 3.1601562 14.089844 z M 4.7851562 16.96875 C 4.6319543 16.970054 4.4571242 17.01076 4.25 17.015625 C 3.6782236 17.029045 3.1404158 17.087155 2.8300781 17.154297 C -0.097893625 17.905094 0.90518352 18.738678 2.1015625 18.181641 C 2.9167132 17.929592 3.6142402 18.101626 4.3789062 18.058594 C 4.52752 18.050194 5.4192383 18.492183 5.5742188 18.462891 C 5.8747654 18.406081 5.3721069 17.398682 5.1855469 17.15625 C 5.0692501 17.005123 4.9383582 16.967446 4.7851562 16.96875 z M 47.28125 17.103516 C 47.18747 17.104816 47.108681 17.125833 47.068359 17.158203 C 46.504784 17.403645 46.873865 17.75963 46.035156 17.3125 C 45.063274 16.791544 45.003052 18.11836 44.541016 18.242188 C 44.442936 18.282097 44.119501 18.218996 44.125 18.482422 C 44.1422 19.30789 44.197929 19.365231 44.900391 19.798828 C 45.798138 20.352946 46.818985 19.942639 47.736328 18.626953 C 48.400673 17.441145 47.687737 17.098081 47.28125 17.103516 z M 0.66992188 19.980469 C 0.37116126 19.993593 0.28116721 20.294487 0.359375 20.646484 C 0.4322201 20.89534 0.92178632 20.889205 1.4453125 21.082031 C 2.1429532 21.225427 2.7082848 21.613331 3.2734375 21.246094 C 3.7610841 21.009942 4.0306969 21.075553 4.1835938 20.972656 C 4.466274 20.777752 4.405673 20.195692 4.3125 20.105469 C 4.0982997 20.139999 3.1108041 20.857684 2.8535156 20.669922 C 2.6429986 20.516304 2.4065291 20.426194 2.2988281 20.470703 C 2.1911271 20.515213 1.8009639 20.439059 1.4414062 20.320312 C 1.1040718 20.069409 0.84917825 19.972594 0.66992188 19.980469 z M 45.205078 21.033203 C 44.784721 21.042294 44.439453 21.112154 44.439453 21.228516 C 44.439453 21.494481 44.093006 21.421875 43.998047 21.421875 C 43.922067 21.421875 43.802489 21.448876 43.517578 21.714844 C 43.118709 22.094794 43.129846 22.670817 43.300781 22.841797 C 43.45274 22.993777 43.585111 22.956304 43.832031 22.652344 C 44.268881 22.082414 44.872185 22.068359 45.669922 22.068359 C 46.030798 22.068359 46.434524 21.760105 46.605469 21.703125 C 46.852389 21.608125 46.85292 21.550236 46.625 21.322266 C 46.411316 21.108538 45.745537 21.021515 45.205078 21.033203 z M 48.335938 21.134766 C 48.251064 21.133407 48.172241 21.140003 48.123047 21.138672 C 47.834446 21.130872 47.869061 21.618921 47.914062 22.041016 C 47.995443 22.756304 47.006888 23.192089 46.378906 23.109375 C 46.124568 23.056035 45.891919 23.473601 45.566406 23.720703 C 45.362477 23.805673 45.031281 23.677443 44.931641 23.871094 C 44.765055 24.194866 44.605369 24.256966 44.605469 24.621094 C 44.596469 24.748787 44.852927 25.071565 44.943359 25.162109 C 45.160015 25.379047 45.604165 25.011156 45.841797 25.009766 C 46.485216 25.020826 46.57215 24.82886 46.929688 24.474609 C 47.414108 24.092983 48.61405 25.643333 48.679688 24.832031 C 48.695887 24.633394 48.990234 24.5 48.990234 24 C 48.990234 23 48.842667 21.72232 48.703125 21.269531 C 48.635964 21.159722 48.477394 21.13703 48.335938 21.134766 z M 2.4121094 22.857422 C 1.3785119 22.869152 0.015625 23.109436 0.015625 23.525391 C 0.015625 23.739233 1.6424302 23.910156 3.609375 23.910156 C 3.7904191 23.910156 3.8381559 23.821668 3.90625 23.673828 C 4.0715603 23.314934 4.1073164 23.119661 3.2734375 22.923828 C 3.0649685 22.87487 2.7566419 22.853512 2.4121094 22.857422 z M 4.90625 24.960938 C 4.2987169 24.975808 1.8631579 25.454428 1.25 25.25 C 0.34843588 24.949417 -1.4802974e-16 25.25 0 25.5 C 0 25.75 0.13878797 25.908982 0.2734375 25.990234 C 0.69425767 26.244127 1.2885563 26.033797 2.4785156 25.992188 C 3.922807 25.927798 5.1511081 25.274669 5.1640625 25.103516 C 5.1720625 24.994073 5.0764016 24.956786 4.90625 24.960938 z M 45.080078 25.904297 C 44.975494 25.902986 44.841193 25.973065 44.685547 26.150391 L 44.451172 26.417969 C 44.188066 26.717675 44.058426 26.230619 43.748047 26.246094 C 43.505546 26.258184 43.306832 26.175015 43.113281 26.083984 C 42.599996 25.986014 42.6454 26.937472 42.785156 27.021484 C 42.924913 27.105494 43.134889 27.015938 43.375 27.023438 C 43.629378 27.043087 43.876886 27.087274 44.064453 27.083984 C 44.62048 27.074284 44.885483 26.910652 45.271484 27.068359 C 45.758055 27.155319 46.239356 27.38468 46.285156 27.501953 C 46.318246 27.603933 46.645471 27.71859 47.009766 27.751953 C 47.374072 27.785323 47.706883 27.845053 47.757812 27.90625 C 47.808703 27.96747 48.092342 27.965366 48.382812 27.878906 C 48.976481 27.721288 49.16396 26.711782 48.486328 26.550781 C 48.223932 26.484351 47.803165 26.908661 47.642578 26.917969 C 47.48363 26.927169 47.028016 27.049384 46.707031 27.005859 C 46.386047 26.962319 46.192638 26.646157 46.103516 26.539062 C 46.014336 26.431984 45.875283 26.389462 45.798828 26.453125 C 45.722348 26.516805 45.490589 26.106661 45.304688 25.976562 C 45.264897 25.947472 45.220541 25.932164 45.173828 25.927734 C 45.145751 25.912387 45.114939 25.904734 45.080078 25.904297 z M 4.9824219 26.560547 C 4.9756187 26.560271 4.968911 26.561891 4.9609375 26.564453 C 4.8907915 26.586983 4.7744209 26.713005 4.6601562 26.748047 C 4.4178366 26.808467 4.1476065 26.927144 4.0546875 27.015625 C 4.0039775 27.063935 3.8705631 27.212869 3.640625 27.363281 L 3.5859375 27.396484 C 3.401813 27.512074 3.2008284 27.595308 2.859375 27.671875 C 2.4758492 27.748135 1.8999261 28.019519 1.390625 28.087891 C 0.90727256 28.152781 0.48447272 28.016646 0.33789062 28.041016 C 0.095204125 28.299321 0.59627817 28.372349 0.77539062 28.503906 C 1.1347193 28.731091 1.6476331 28.62694 2.1386719 28.435547 C 2.501338 28.246233 3.0819314 28.100439 3.34375 28.054688 C 3.430432 28.039538 3.5332204 27.972152 3.6386719 27.882812 C 3.7324729 27.840383 4.1754802 27.860119 4.328125 27.734375 C 4.5464425 27.526502 4.781297 27.921912 5.1132812 27.734375 C 5.242394 27.661465 5.073599 26.889948 5.046875 26.744141 L 5.0234375 26.615234 C 5.0165375 26.577284 5.0028314 26.561373 4.9824219 26.560547 z M 44.933594 28.015625 C 44.837981 28.020195 44.745646 28.051683 44.662109 28.115234 C 44.200483 28.466421 44.598527 29.29654 45.048828 29.662109 C 46.196704 30.593952 45.901332 31.373665 46.970703 31.773438 C 47.930788 32.160195 48.9858 29.332852 48.105469 28.779297 C 47.668278 28.534079 46.940692 29.268445 46.716797 29.257812 C 46.498862 29.310302 46.188598 29.052344 46.003906 28.783203 C 45.831529 28.459406 45.347916 27.99582 44.933594 28.015625 z M 1.8789062 29.638672 C 1.580116 29.641814 1.3834353 29.921702 1.6132812 30.248047 C 1.7734086 30.528469 1.7027044 30.784354 1.3789062 31.03125 C 0.73142728 31.525161 0.92498738 31.755983 2.1796875 32 C 3.2375207 32.170527 4.4586237 32.106641 4.7324219 31.609375 C 4.8465696 31.466582 5.2043316 31.650403 5.2324219 31.326172 C 5.2672848 30.923719 5.1299076 30.864171 4.7988281 30.632812 C 4.4726816 30.404902 4.0436754 30.596515 3.6582031 30.640625 C 3.0341293 30.687185 2.4639293 29.947709 2.2871094 29.800781 C 2.1703332 29.704791 2.0500465 29.654905 1.9394531 29.642578 C 1.918717 29.640267 1.8988256 29.638462 1.8789062 29.638672 z M 43.769531 31.755859 C 43.707479 31.754923 43.640845 31.775796 43.572266 31.824219 C 42.882437 32.311295 42.926811 32.694931 42.863281 33.537109 C 42.793041 34.468204 43.538336 35.423048 44.263672 36.076172 C 45.090544 36.779013 45.041679 37.871811 45.863281 36.550781 C 46.541893 35.45967 46.122892 35.539948 45.455078 34.521484 C 45.022137 33.797962 44.379128 33.279222 44.351562 32.753906 C 44.333 32.400115 44.104615 31.760918 43.769531 31.755859 z M 45.847656 32.271484 C 45.781712 32.273599 45.724083 32.330023 45.667969 32.474609 C 45.575889 32.711756 45.651528 33.040841 45.828125 33.183594 C 45.985833 33.293651 46.550406 33.971402 46.914062 33.998047 C 47.126359 34.013627 47.4841 33.237119 47.498047 33.128906 C 47.554937 32.672817 46.983077 32.933947 46.664062 32.798828 C 46.244039 32.620894 46.016181 32.266081 45.847656 32.271484 z M 5.6230469 32.695312 C 5.3120203 32.695312 4.8459427 32.895463 4.6015625 33.162109 C 4.3349669 33.406537 3.9999994 33.649655 3.8222656 33.671875 C 3.6445419 33.694085 3.2453514 33.8718 2.9121094 34.027344 C 2.2678408 34.338436 2.0461658 35.138672 2.6015625 35.138672 C 2.7792963 35.138672 3.0676289 35.206774 3.2675781 35.273438 C 3.5341637 35.362318 3.6230469 35.272765 3.6230469 34.939453 C 3.6230469 34.672805 3.7558599 34.472656 3.9335938 34.472656 C 4.1113174 34.472656 4.6894651 34.072839 5.2226562 33.583984 C 6.1335206 32.739596 6.1562381 32.717534 5.6230469 32.695312 z M 7.9765625 33.064453 C 7.9248624 33.065979 7.8930154 33.101716 7.8789062 33.160156 C 7.8524413 33.269596 7.797245 33.490661 7.6464844 33.677734 C 7.4774329 33.868861 7.2921171 34.039749 7.1816406 34.191406 C 6.8541524 34.640957 6.8253228 34.95115 6.4667969 35.164062 C 6.1040579 35.499884 5.6309239 35.745097 5.5097656 35.710938 C 5.4084943 35.675827 5.1193126 35.868102 4.8730469 36.138672 C 4.6267721 36.409242 4.3783429 36.640789 4.2988281 36.644531 C 4.2192941 36.648231 4.0514898 36.874295 3.9453125 37.158203 C 3.7130759 37.72695 4.0762968 38.082288 4.6132812 37.638672 C 4.8244761 37.469357 5.0668492 37.280233 5.15625 37.146484 C 5.244752 37.014103 5.4221322 36.577538 5.6503906 36.347656 C 5.8786581 36.117785 6.2475631 36.154978 6.3867188 36.148438 C 6.5258774 36.141838 6.643349 36.056425 6.6386719 35.957031 C 6.6339719 35.857591 7.1005473 35.919511 7.3164062 35.849609 C 7.3636162 35.835379 7.403883 35.809941 7.4355469 35.775391 C 7.5522291 35.722791 7.6142293 35.558157 7.5507812 35.25 L 7.4785156 34.902344 C 7.3981016 34.511694 7.8170049 34.17483 7.8007812 34.101562 C 7.7845942 34.028323 7.8556186 33.732368 8.0449219 33.632812 C 8.4325569 33.282314 8.1559905 33.149273 8.0351562 33.076172 C 8.0130633 33.068692 7.9937959 33.063944 7.9765625 33.064453 z M 41.722656 36.080078 C 41.400186 36.083475 41.138512 36.2587 41.505859 36.414062 C 41.632377 36.379022 41.951864 36.519979 42.050781 36.667969 C 42.172783 36.829083 42.354543 37.103532 42.580078 37.216797 C 43.077235 37.469611 43.353611 38.286514 43.076172 38.693359 C 42.851242 39.007985 42.935698 39.513184 43.767578 39.482422 C 43.983188 39.559492 44.677931 38.458954 44.603516 38.1875 C 44.583616 38.11513 44.211997 37.932508 44.005859 37.677734 C 43.82292 37.436042 43.543746 37.449352 43.400391 37.160156 C 43.265045 36.808124 42.703427 36.485396 42.044922 36.140625 C 41.945078 36.096831 41.830146 36.078946 41.722656 36.080078 z M 40.378906 37.316406 C 39.846292 37.312264 39.599213 38.152799 39.46875 38.8125 C 39.3791 39.265855 40.139119 39.572602 40.5 40.308594 C 40.94546 41.217021 41.033908 42.284615 41.244141 42.208984 C 41.592573 42.067651 42.644763 41.061471 42.644531 40.751953 C 42.64458 40.486214 42.326415 40.27709 42.035156 40.039062 C 41.69255 39.746743 41.294587 39.458971 41.462891 39.101562 C 41.640446 38.724461 41.757165 37.860858 40.625 37.373047 C 40.536788 37.335039 40.454994 37.316998 40.378906 37.316406 z M 6.7617188 37.566406 C 6.4068562 37.566406 6.4397617 38.845056 6.1171875 38.554688 C 5.8591271 38.296574 5.5794513 38.625058 5.2480469 39.189453 C 4.9166435 39.753853 5.6991223 39.902068 6.328125 39.724609 C 6.9571277 39.547151 7.0167469 38.697829 7.2773438 38.953125 C 7.761179 39.566142 7.9222693 39.599042 8.5351562 39.244141 C 8.8900169 39.018282 9.2772721 38.856336 9.3417969 38.953125 C 9.4064439 39.017665 9.34207 39.857315 9.1484375 40.792969 C 8.729103 42.98693 8.5222971 43.27994 9.1621094 43.365234 C 9.4994096 43.326844 9.9257812 42.765851 9.9257812 42.572266 C 9.9257812 42.346411 10.21338 41.565837 10.697266 41.210938 C 10.989602 40.991642 10.761149 40.53483 10.755859 40.078125 C 10.745279 39.165064 10.294737 38.677254 9.3808594 38.173828 C 8.8039611 37.856033 8.0086557 37.978754 7.7929688 37.855469 C 7.5670238 37.694153 7.0842679 37.566406 6.7617188 37.566406 z M 37.714844 38.707031 C 37.572787 38.717164 37.474721 38.811458 37.494141 39.001953 C 37.509441 39.151993 37.481172 39.401286 37.445312 39.576172 C 37.397483 39.809364 37.476791 39.876109 37.742188 39.845703 C 37.954501 39.821373 38.125323 39.916304 38.140625 40.066406 C 38.155915 40.216458 38.52385 40.666703 38.958984 41.072266 C 39.709707 41.764253 39.729368 41.782251 39.701172 41.330078 C 39.674402 41.067478 39.475533 40.691762 39.242188 40.509766 C 39.024622 40.30699 38.800567 40.048416 38.767578 39.900391 C 38.734598 39.752377 38.558781 39.431215 38.40625 39.164062 C 38.226254 38.857947 37.922465 38.692221 37.714844 38.707031 z M 7.890625 40.115234 C 7.6269554 40.114857 7.0578643 40.386611 6.9863281 40.619141 C 6.9234011 40.787557 6.8087487 40.945718 6.7148438 40.943359 C 6.6319007 40.959649 6.595582 41.133712 6.6484375 41.341797 C 6.7146045 41.651299 6.8434254 41.59475 7.375 41.042969 C 7.708258 40.665392 8.0258061 40.301515 8.0234375 40.21875 C 8.0331105 40.146628 7.9785149 40.11536 7.890625 40.115234 z M 13.082031 40.808594 C 12.781668 40.800196 12.327359 41.580877 12.246094 41.833984 C 12.027988 42.513296 11.774764 43.124367 11.636719 43.195312 C 11.498663 43.266263 11.113098 43.68181 11.154297 44.271484 C 11.202207 45.468563 12.976409 46.541823 13.570312 45.320312 C 13.808067 44.849066 13.28966 44.016735 13.53125 43.892578 C 13.791204 43.758963 14.018512 42.31309 13.798828 41.701172 C 13.599268 41.145311 13.408638 40.875093 13.109375 40.8125 C 13.100023 40.810544 13.09172 40.808865 13.082031 40.808594 z M 36.9375 40.882812 C 36.909997 40.883288 36.882931 40.889756 36.857422 40.902344 C 36.653349 41.003044 36.810281 41.02852 36.558594 41.443359 C 36.306906 41.858199 36.345124 42.278275 36.845703 42.632812 C 37.287571 42.945639 37.731154 43.568629 37.808594 44.021484 C 37.975709 44.847418 38.057201 44.860037 38.873047 44.332031 C 40.0569 43.5339 40.419773 43.107582 39.617188 42.804688 C 39.260061 42.68452 38.580388 42.619962 38.541016 42.238281 C 38.530706 41.877454 38.327176 41.603153 38.087891 41.566406 C 37.878057 41.550536 37.497889 41.710971 37.408203 41.337891 C 37.356088 41.146532 37.130018 40.879484 36.9375 40.882812 z M 34.035156 41.572266 C 33.780076 41.564249 33.547659 41.6582 33.498047 41.998047 C 33.327067 43.169293 35.221237 45.207855 35.591797 45.654297 C 36.12264 46.346405 36.213086 46.079404 36.537109 45.414062 C 36.668088 45.045091 36.458923 44.601961 36.013672 43.753906 C 35.633259 43.250766 34.989392 41.906736 34.708984 41.763672 C 34.56878 41.692139 34.290237 41.580282 34.035156 41.572266 z M 15.496094 42.224609 C 15.473007 42.22429 15.448163 42.225455 15.419922 42.226562 C 15.298159 42.231363 15.172014 42.477134 15.171875 42.748047 C 15.182625 42.817267 15.22637 43.010458 15.21875 43.285156 L 15.216797 43.349609 C 15.206707 43.566806 14.909216 43.77932 14.777344 44.103516 C 14.621223 44.462102 14.513631 45.089455 14.279297 45.546875 C 14.056906 45.980993 13.70422 46.252395 13.640625 46.386719 C 13.714335 46.733428 14.547616 46.60336 14.757812 46.53125 C 15.14933 46.365613 14.871252 45.643442 14.994141 45.130859 C 15.045521 44.724929 15.255429 44.166977 15.367188 43.925781 C 15.404188 43.845931 15.657748 43.721573 15.644531 43.583984 C 15.663191 43.482723 15.645076 43.038922 15.628906 42.841797 C 15.633406 42.399213 15.842391 42.229393 15.496094 42.224609 z M 18.494141 42.949219 C 18.427781 42.954572 18.359605 42.981629 18.287109 43.03125 C 17.638274 43.475356 16.658709 45.130156 17.013672 45.804688 C 17.252032 46.321216 15.807266 46.745244 15.886719 47.142578 C 15.966149 47.579641 17.559817 48.011659 17.837891 48.130859 C 18.195424 48.250046 18.596407 48.077749 18.4375 47.402344 C 18.278643 46.726881 18.289556 46.27434 18.845703 45.757812 C 19.282461 45.357372 19.868757 43.950228 19.548828 43.691406 C 19.042365 43.281679 18.781701 42.926019 18.494141 42.949219 z M 24.613281 43.505859 C 24.210088 43.508459 24.338218 45.628475 23.974609 45.888672 C 23.610999 46.148868 22.947725 46.019107 23.017578 46.699219 C 23.056528 47.083574 22.939232 47.872584 22.597656 48.072266 C 21.743722 48.571474 22.246362 49 24.507812 49 C 25.995597 49 26.064899 48.44504 25.121094 47.908203 C 24.825522 47.794507 25.028673 46.972575 25.423828 46.953125 C 26.183595 46.915725 26.166971 46.498919 25.814453 46.189453 C 25.394096 45.862241 25.440307 45.549257 25.927734 45.207031 C 26.099934 45.111001 25.552568 44.50064 25.28125 44.470703 C 25.009938 44.440763 25.016473 43.503249 24.613281 43.505859 z M 32.988281 44.222656 C 32.801662 44.235503 32.568847 44.421865 32.388672 44.767578 C 32.219417 45.074721 32.287239 45.403614 32.591797 45.71875 C 32.860591 45.996821 33.087565 46.492166 33.082031 46.820312 C 33.090131 47.422216 33.144571 47.442371 33.787109 47.179688 C 34.723744 46.776083 34.744038 46.721184 34.220703 46.402344 C 33.985906 46.270729 33.809189 45.939158 33.832031 45.666016 C 33.872881 45.411424 33.766622 45.192226 33.603516 45.134766 C 33.45831 45.095856 33.31634 44.873371 33.302734 44.599609 C 33.28157 44.334265 33.152945 44.211321 32.988281 44.222656 z M 29.951172 44.554688 C 29.897277 44.554197 29.839866 44.559284 29.78125 44.568359 C 29.312323 44.640969 29.066342 44.535615 28.953125 45.021484 C 28.566193 46.681993 28.876049 48.200906 29.507812 48.367188 C 29.915512 48.469113 30.775972 48.299963 31.353516 47.654297 C 32.372761 46.464953 31.613112 46.56205 30.933594 45.984375 C 30.491934 45.644559 30.024178 45.55815 30.431641 44.980469 C 30.572916 44.780278 30.328439 44.558118 29.951172 44.554688 z M 21.640625 44.669922 C 21.347439 44.689777 20.938721 44.977337 20.847656 45.103516 C 20.616779 45.42342 20.292406 46.127756 19.839844 47.234375 C 19.617037 47.779333 19.809747 48.121201 19.929688 48.429688 C 20.016537 48.65307 20.688288 48.724087 20.865234 48.5625 C 21.182569 48.27266 21.301869 47.703532 21.5625 46.695312 C 21.699995 46.14159 22.062132 45.085601 21.90625 44.794922 C 21.85293 44.695494 21.75535 44.662152 21.640625 44.669922 z M 27.316406 44.892578 C 27.164177 44.897044 27.035349 44.99686 27.007812 45.148438 C 26.942643 45.467954 26.971959 44.905426 27.011719 46.355469 C 27.050739 46.834095 27.082 47.633807 27.117188 48.09375 C 27.158607 48.715438 27.188742 48.84362 27.423828 48.835938 C 27.457408 48.834837 27.498489 48.831772 27.541016 48.826172 C 27.726405 48.801732 28.125827 48.63925 28.119141 48.324219 L 27.904297 45.871094 C 27.888816 45.142582 27.570121 44.885135 27.316406 44.892578 z " />
</svg>
