<?xml version="1.0" encoding="UTF-8" standalone="no"?>
<!-- Created with Inkscape (http://www.inkscape.org/) -->

<svg
   width="15"
   height="15"
   id="svg2"
   version="1.1"
   xmlns="http://www.w3.org/2000/svg"
   xmlns:svg="http://www.w3.org/2000/svg"
   xmlns:rdf="http://www.w3.org/1999/02/22-rdf-syntax-ns#"
   xmlns:cc="http://creativecommons.org/ns#"
   xmlns:dc="http://purl.org/dc/elements/1.1/">
  <defs
     id="defs4" />
  <metadata
     id="metadata7">
    <rdf:RDF>
      <cc:Work
         rdf:about="">
        <dc:format>image/svg+xml</dc:format>
        <dc:type
           rdf:resource="http://purl.org/dc/dcmitype/StillImage" />
      </cc:Work>
    </rdf:RDF>
  </metadata>
  <path
     id="path54593-7"
     style="fill:#000000"
     d="M 7.5,0 C 3.3578644,0 0,3.3578644 0,7.5 0,11.642136 3.3578644,15 7.5,15 11.642136,15 15,11.642136 15,7.5 15,3.3578644 11.642136,0 7.5,0 Z M 6.82227,0.582031 6.90817,1.546875 C 7.1045523,1.5214936 7.3020707,1.5058495 7.5,1.5 7.7521206,1.50107 8.0039232,1.51803 8.25391,1.55078 l 0.10742,-0.947265 0.0137,0.002 c 0.00587,5.9242e-4 0.011742,0.001259 0.0176,0.002 l 0.15625,0.02148 c 0.00587,5.9242e-4 0.011742,0.001259 0.0176,0.002 l 0.15429,0.02539 c 0.00588,0.001224 0.01175,0.002525 0.0176,0.0039 l 0.15234,0.0293 c 0.00588,0.001224 0.01175,0.002525 0.0176,0.0039 l 0.15235,0.0332 c 0.00588,0.001224 0.01175,0.002525 0.0176,0.0039 l 0.1504,0.03711 c 0.00521,0.00124 0.010415,0.00254 0.0156,0.0039 l 0.15039,0.03906 c 0.00522,0.001905 0.010424,0.003871 0.0156,0.0059 l 0.14843,0.04297 c 0.00522,0.001905 0.010424,0.003871 0.0156,0.0059 l 0.14648,0.04687 c 0.00522,0.001905 0.010424,0.003871 0.0156,0.0059 l 0.13672,0.04883 -0.31641,0.898437 c 0.4192778,0.1528482 0.820194,0.3519967 1.19531,0.59375 l 0.52344,-0.794922 0.10352,0.06836 c 0.0046,0.00321 0.0092,0.00648 0.0137,0.0098 l 0.125,0.08594 c 0.0046,0.00321 0.0092,0.00648 0.0137,0.0098 l 0.12109,0.08789 c 0.0046,0.00321 0.0092,0.00648 0.0137,0.0098 l 0.11914,0.0918 c 0.0039,0.00322 0.0078,0.00649 0.0117,0.0098 l 0.11718,0.0957 c 0.0046,0.00321 0.0092,0.00648 0.0137,0.0098 l 0.11524,0.09766 c 0.0039,0.00322 0.0078,0.00649 0.0117,0.0098 l 0.11133,0.09961 c 0.0046,0.00385 0.0092,0.00775 0.0137,0.01172 l 0.10937,0.101563 c 0.0039,0.00386 0.0078,0.00777 0.0117,0.01172 l 0.10742,0.105469 c 0.0039,0.00386 0.0078,0.00777 0.0117,0.01172 l 0.0527,0.05273 -0.68164,0.664063 c 0.313682,0.3221639 0.590154,0.6785683 0.82421,1.0625 l 0.8086,-0.50586 0.0156,0.02344 c 0.0027,0.00453 0.0054,0.00908 0.008,0.01367 l 0.0781,0.130859 c 0.0027,0.00453 0.0054,0.00908 0.008,0.01367 l 0.0742,0.132813 c 0.0027,0.00453 0.0054,0.00908 0.008,0.01367 l 0.0703,0.134766 c 0.0027,0.00518 0.0054,0.010387 0.008,0.01563 l 0.0664,0.134766 c 0.0027,0.00518 0.0054,0.010387 0.008,0.01563 l 0.0644,0.136718 c 0.0034,0.00517 0.0067,0.010376 0.01,0.01563 l 0.0605,0.140625 c 0.0021,0.00519 0.0041,0.010396 0.006,0.01563 l 0.0586,0.140625 c 0.0021,0.00519 0.0041,0.010396 0.006,0.01563 l 0.0547,0.142578 c 0.0021,0.00583 0.0041,0.011694 0.006,0.01758 l 0.0508,0.144531 c 0.0021,0.00519 0.0041,0.010396 0.006,0.01563 l 0.002,0.0059 -0.90625,0.292969 c 0.14373,0.4248192 0.239378,0.864414 0.28515,1.310547 l 0.94727,-0.08398 0.0137,0.152343 v 0.002 0.002 0.002 0.002 0.002 0.002 0.002 0.002 0.002 l 0.0117,0.160157 c -4e-6,0.0013 -4e-6,0.0026 0,0.0039 v 0.002 0.002 0.002 0.002 0.002 0.002 0.002 0.002 l 0.006,0.160156 v 0.002 0.002 0.002 0.002 0.002 0.002 0.002 0.002 0.002 l 0.002,0.160157 v 0.0176 l -0.002,0.160156 v 0.002 0.002 0.002 0.002 0.002 0.002 0.002 0.002 0.002 l -0.006,0.160156 v 0.002 0.002 0.002 0.002 0.002 0.002 0.002 0.002 0.002 l -0.0117,0.160157 v 0.002 c -4e-6,0.0013 -4e-6,0.0026 0,0.0039 v 0.002 0.002 0.002 0.002 0.002 0.002 0.002 l -0.0156,0.158203 v 0.002 0.002 0.002 0.002 0.002 0.002 0.002 0.002 0.002 l -0.0195,0.15625 c -5.93e-4,0.00587 -0.0013,0.011729 -0.002,0.01758 l -0.006,0.04102 -0.94922,-0.132813 C 13.379077,8.7494478 13.267707,9.1844464 13.109,9.602999 l 0.90235,0.34375 -0.0371,0.09961 c -0.0019,0.0052 -0.0039,0.01044 -0.006,0.01563 l -0.0586,0.140625 c -0.0019,0.0052 -0.0039,0.01044 -0.006,0.01563 l -0.0605,0.140625 c -0.0026,0.0052 -0.0053,0.01045 -0.008,0.01563 l -0.0664,0.136718 c -0.0026,0.0052 -0.0053,0.01045 -0.008,0.01563 l -0.0664,0.134765 c -0.0026,0.0052 -0.0053,0.01045 -0.008,0.01563 l -0.0703,0.134766 c -0.0026,0.0046 -0.0053,0.0091 -0.008,0.01367 l -0.0742,0.132812 c -0.0026,0.0046 -0.0053,0.0091 -0.008,0.01367 l -0.0781,0.130859 c -0.0026,0.0046 -0.0053,0.0091 -0.008,0.01367 l -0.0801,0.128907 c -0.0033,0.0046 -0.0066,0.0092 -0.01,0.01367 l -0.0449,0.06836 -0.80664,-0.53125 c -0.244912,0.375876 -0.531208,0.723098 -0.85352,1.035156 l 0.66992,0.685547 -0.0137,0.01367 c -0.0039,0.004 -0.0078,0.0079 -0.0117,0.01172 l -0.10937,0.101563 c -0.0045,0.004 -0.0091,0.0079 -0.0137,0.01172 l -0.11133,0.09766 c -0.0039,0.0033 -0.0078,0.0066 -0.0117,0.0098 l -0.11524,0.09766 c -0.0045,0.0033 -0.0091,0.0066 -0.0137,0.0098 l -0.11718,0.0957 c -0.0039,0.0033 -0.0078,0.0066 -0.0117,0.0098 l -0.11914,0.0918 c -0.0045,0.0033 -0.0091,0.0066 -0.0137,0.0098 l -0.12109,0.08789 c -0.0045,0.0033 -0.0091,0.0066 -0.0137,0.0098 l -0.125,0.08594 c -0.0045,0.0033 -0.0091,0.0066 -0.0137,0.0098 l -0.125,0.08203 c -0.0045,0.0033 -0.0091,0.0066 -0.0137,0.0098 l -0.1289,0.08008 c -0.0045,0.0027 -0.0091,0.0053 -0.0137,0.0078 l -0.0254,0.01563 -0.49415,-0.833985 c -0.380405,0.235219 -0.7859172,0.427167 -1.20898,0.572266 l 0.29297,0.90625 -0.0879,0.02734 c -0.00518,0.002 -0.010377,0.004 -0.0156,0.0059 l -0.14843,0.04297 c -0.00518,0.002 -0.010377,0.004 -0.0156,0.0059 l -0.15039,0.03906 c -0.00518,0.0014 -0.010385,0.0027 -0.0156,0.0039 l -0.1504,0.03711 c -0.00585,0.0014 -0.011717,0.0027 -0.0176,0.0039 l -0.15235,0.0332 c -0.00585,0.0014 -0.011717,0.0027 -0.0176,0.0039 l -0.15234,0.0293 c -0.00585,0.0014 -0.011717,0.0027 -0.0176,0.0039 l -0.15429,0.02539 c -0.00586,7.41e-4 -0.011725,0.0014 -0.0176,0.002 l -0.15625,0.02148 c -0.00586,7.41e-4 -0.011725,0.0014 -0.0176,0.002 l -0.15625,0.01953 c -0.00587,7.4e-5 -0.011734,7.4e-5 -0.0176,0 l -0.0605,0.0059 -0.0859,-0.962891 C 7.8704374,13.482471 7.6853721,13.495531 7.5,13.5 7.2378482,13.496301 6.9762208,13.475422 6.7168,13.4375 l -0.13282,0.953125 -0.13281,-0.01953 c -0.00587,-5.92e-4 -0.011742,-0.0013 -0.0176,-0.002 l -0.15429,-0.02539 c -0.00588,-0.0012 -0.01175,-0.0025 -0.0176,-0.0039 l -0.15234,-0.0293 c -0.00588,-0.0012 -0.01175,-0.0025 -0.0176,-0.0039 l -0.15235,-0.0332 c -0.00588,-0.0012 -0.01175,-0.0025 -0.0176,-0.0039 l -0.1504,-0.03711 c -0.00521,-0.0012 -0.010415,-0.0025 -0.0156,-0.0039 L 5.6054,14.189435 c -0.00522,-0.0019 -0.010424,-0.0039 -0.0156,-0.0059 l -0.14843,-0.04297 c -0.00522,-0.0019 -0.010424,-0.0039 -0.0156,-0.0059 l -0.14648,-0.04687 c -0.00522,-0.0019 -0.010424,-0.0039 -0.0156,-0.0059 l -0.14453,-0.05078 c -0.00589,-0.0019 -0.01176,-0.0039 -0.0176,-0.0059 l -0.0254,-0.0098 0.34375,-0.902344 C 5.000117,12.95651 4.5991809,12.753421 4.2246,12.507602 l -0.53125,0.806641 -0.0723,-0.04687 c -0.00461,-0.0032 -0.00917,-0.0065 -0.0137,-0.0098 l -0.125,-0.08594 c -0.00461,-0.0032 -0.00917,-0.0065 -0.0137,-0.0098 l -0.12109,-0.08789 c -0.00461,-0.0032 -0.00917,-0.0065 -0.0137,-0.0098 l -0.11914,-0.0918 c -0.00394,-0.0032 -0.00784,-0.0065 -0.0117,-0.0098 l -0.11718,-0.0957 c -0.00461,-0.0032 -0.00917,-0.0065 -0.0137,-0.0098 L 2.9569,12.759383 c -0.00394,-0.0032 -0.00784,-0.0065 -0.0117,-0.0098 l -0.11133,-0.09961 c -0.00462,-0.0038 -0.00918,-0.0078 -0.0137,-0.01172 L 2.7108,12.53669 C 2.70685,12.53279 2.70295,12.52889 2.6991,12.52497 L 2.59168,12.419501 c -0.00395,-0.0039 -0.00785,-0.0078 -0.0117,-0.01172 l -0.0781,-0.08008 0.68555,-0.667969 C 2.8804563,11.335938 2.6105576,10.978913 2.38274,10.595279 l -0.83398,0.492188 -0.0723,-0.121094 c -0.00272,-0.0045 -0.00539,-0.0091 -0.008,-0.01367 L 1.39426,10.81989 c -0.00272,-0.0045 -0.00538,-0.0091 -0.008,-0.01367 l -0.0703,-0.134766 c -0.00273,-0.0052 -0.0054,-0.01039 -0.008,-0.01563 l -0.0664,-0.134766 c -0.0034,-0.0052 -0.00674,-0.01038 -0.01,-0.01563 L 1.16716,10.36871 c -0.0034,-0.0052 -0.00674,-0.01038 -0.01,-0.01563 l -0.0605,-0.140625 c -0.00206,-0.0052 -0.00406,-0.0104 -0.006,-0.01563 L 1.03206,10.0562 C 1.03,10.051 1.028,10.0458 1.02606,10.04057 L 0.97136,9.897992 C 0.969282,9.892162 0.967282,9.886298 0.96536,9.880412 L 0.91456,9.735881 C 0.912498,9.730691 0.910498,9.725485 0.90856,9.720251 L 0.89486,9.679231 1.80307,9.384309 C 1.6671567,8.9579382 1.5793707,8.5177002 1.54135,8.071809 L 0.57846,8.157749 0.56676,8.042515 c -7.358e-5,-0.00586 -7.358e-5,-0.01172 0,-0.01758 L 0.55506,7.864778 c -7.358e-5,-0.00586 -7.358e-5,-0.01172 0,-0.01758 l -0.006,-0.160156 c -7.358e-5,-0.00586 -7.358e-5,-0.01172 0,-0.01758 l -0.002,-0.160156 c -9.081e-5,-0.00651 -9.081e-5,-0.01302 0,-0.01953 l 0.002,-0.160156 c -7.358e-5,-0.00586 -7.358e-5,-0.01172 0,-0.01758 l 0.006,-0.160156 c -7.358e-5,-0.00586 -7.358e-5,-0.01172 0,-0.01758 l 0.0117,-0.160157 c -7.358e-5,-0.00586 -7.358e-5,-0.01172 0,-0.01758 l 0.0156,-0.158203 c -7.358e-5,-0.00586 -7.358e-5,-0.01172 0,-0.01758 l 0.0195,-0.15625 c 5.9258e-4,-0.00587 0.001259,-0.011729 0.002,-0.01758 v -0.0059 L 1.55698,6.73582 C 1.6143707,6.292367 1.7211538,5.8567192 1.87534,5.436992 L 0.973,5.093242 1.0238,4.958476 C 1.02574,4.953246 1.02774,4.948032 1.0298,4.942846 L 1.0884,4.802221 C 1.09034,4.796991 1.09234,4.791777 1.0944,4.786591 L 1.155,4.645966 C 1.1576,4.640726 1.16027,4.635512 1.163,4.630336 L 1.2275,4.493618 c 0.00326,-0.00525 0.0066,-0.010464 0.01,-0.01563 L 1.3039,4.343222 C 1.3065,4.337982 1.30917,4.332768 1.3119,4.327592 L 1.3822,4.192826 c 0.00328,-0.0046 0.00661,-0.00915 0.01,-0.01367 L 1.4664,4.046343 c 0.00262,-0.00459 0.00528,-0.00914 0.008,-0.01367 L 1.5525,3.901814 c 0.00262,-0.00459 0.00528,-0.00914 0.008,-0.01367 L 1.6406,3.759238 c 0.00328,-0.0046 0.00661,-0.00915 0.01,-0.01367 L 1.674,3.708458 2.48259,4.241662 C 2.7239676,3.8635578 3.0069862,3.5137153 3.32634,3.198693 l -0.66797,-0.685547 0.041,-0.03906 c 0.00385,-0.00395 0.00775,-0.00786 0.0117,-0.01172 L 2.82044,2.360803 c 0.00452,-0.00397 0.00908,-0.00787 0.0137,-0.01172 l 0.11133,-0.09961 c 0.00386,-0.00331 0.00776,-0.00658 0.0117,-0.0098 l 0.11524,-0.09766 c 0.00453,-0.00332 0.00909,-0.00659 0.0137,-0.0098 l 0.11718,-0.0957 c 0.00386,-0.00331 0.00776,-0.00658 0.0117,-0.0098 l 0.11914,-0.0918 c 0.00453,-0.00332 0.00909,-0.00659 0.0137,-0.0098 l 0.12109,-0.08789 c 0.00453,-0.00332 0.00909,-0.00659 0.0137,-0.0098 l 0.125,-0.08594 c 0.00453,-0.00332 0.00909,-0.00659 0.0137,-0.0098 l 0.125,-0.08203 c 0.00453,-0.00332 0.00909,-0.00659 0.0137,-0.0098 L 3.88111,1.565633 4.39478,2.387899 C 4.7731603,2.1517182 5.176697,1.9584668 5.59791,1.811727 L 5.30298,0.903524 5.42603,0.864464 c 0.00518,-0.002029 0.010377,-0.003995 0.0156,-0.0059 l 0.14843,-0.04297 c 0.00518,-0.002029 0.010377,-0.003995 0.0156,-0.0059 l 0.15039,-0.03906 c 0.00518,-0.00136 0.010385,-0.00266 0.0156,-0.0039 l 0.1504,-0.03711 C 5.9279,0.728249 5.933767,0.726948 5.93965,0.725724 L 6.092,0.692524 C 6.09785,0.691149 6.103717,0.689848 6.1096,0.688624 l 0.15234,-0.0293 c 0.00585,-0.001375 0.011717,-0.002676 0.0176,-0.0039 l 0.15429,-0.02539 c 0.00586,-7.4086e-4 0.011725,-0.001408 0.0176,-0.002 l 0.15625,-0.02148 c 0.00586,-7.4086e-4 0.011725,-0.001408 0.0176,-0.002 l 0.15625,-0.01953 c 0.00587,-7.375e-5 0.011734,-7.375e-5 0.0176,0 z M 7.5,6 C 6.6715729,6 6,6.6715729 6,7.5 6,8.3284271 6.6715729,9 7.5,9 8.3284271,9 9,8.3284271 9,7.5 9,6.6715729 8.3284271,6 7.5,6 Z" />
</svg>
