<?xml version="1.0" encoding="UTF-8" standalone="no"?>
<!-- Created with Inkscape (http://www.inkscape.org/) -->

<svg
   width="9"
   height="9"
   id="svg2"
   version="1.1"
   xmlns="http://www.w3.org/2000/svg"
   xmlns:svg="http://www.w3.org/2000/svg"
   xmlns:rdf="http://www.w3.org/1999/02/22-rdf-syntax-ns#"
   xmlns:cc="http://creativecommons.org/ns#"
   xmlns:dc="http://purl.org/dc/elements/1.1/">
  <defs
     id="defs4" />
  <metadata
     id="metadata7">
    <rdf:RDF>
      <cc:Work
         rdf:about="">
        <dc:format>image/svg+xml</dc:format>
        <dc:type
           rdf:resource="http://purl.org/dc/dcmitype/StillImage" />
      </cc:Work>
    </rdf:RDF>
  </metadata>
  <g
     id="layer1">
    <path
       id="path4-1-6-2"
       style="fill:#000000"
       d="M 4.2538802,2.3176527e-4 C 3.4499117,-0.014303 1.7964851,0.65806477 1.6021169,1.0997546 1.377439,1.6103424 1.8186321,2.0419367 2.1678524,2.0023771 2.3809242,1.9580093 2.0920599,1.6793774 2.0784232,1.39608 2.0416935,1.1025454 2.4646108,0.83371909 3.0854711,0.55389219 4.1642378,0.34679935 4.8501993,0.28217389 4.7360189,1.0315218 4.5685257,1.8247194 4.9433025,1.7356398 5.0004176,1.331746 5.0336684,1.0324771 5.1202269,0.81647377 5.1637226,0.64746859 5.2929445,0.6527448 5.5417628,0.62741611 5.764452,0.75079255 6.0147312,0.88945532 6.406096,1.133566 6.5732009,1.4467671 6.7172031,1.7541349 6.9871336,2.0454049 7.1719862,2.0920545 7.587927,2.1970167 8.1724459,2.9009328 7.420832,3.9947747 6.6706193,5.1296924 7.2883316,4.9957875 8.1109904,3.7978744 8.2901079,3.8094502 8.2768576,4.3711284 8.2742954,4.8018712 8.2723047,5.9633546 7.7407183,5.4876083 7.8252065,5.8799494 7.9323098,6.4687622 7.4410358,6.9521132 6.9775754,7.4512533 6.5409505,7.7463499 6.1283791,7.9168168 5.6555819,7.9210849 5.1644202,7.8892439 4.7559777,7.8153027 4.7243544,7.6949419 4.6515918,7.4180404 4.446062,7.367145 4.3491416,7.4473544 4.2833118,7.4846811 4.2377442,7.6186009 4.2111099,7.7885184 4.0722895,7.9036864 3.9192943,8.1331569 3.8436734,8.197915 3.4293451,8.5252689 2.6774165,8.040615 2.5955562,7.3420808 2.5487731,6.9429173 2.5537936,6.3672378 2.4050335,6.3848722 2.3387759,6.3927381 2.2827204,6.5626423 2.2533931,6.7981679 2.070699,6.9565541 1.4013569,7.5920215 1.2366246,6.7845214 1.0127929,5.876991 1.4534241,5.0154786 1.189966,5.295097 0.99163839,5.5055691 0.88946136,5.7789325 0.85946767,6.0729508 0.70833714,5.6618919 0.48994337,5.0989114 0.46481374,4.8252653 0.41456678,4.383382 0.62870981,3.6875957 0.81086496,3.5463879 0.99690215,3.4351671 1.1821398,2.8954522 1.1510839,2.6554623 1.10448,2.2954632 1.0775591,2.2243784 0.58146022,2.5209462 0.11827851,2.8139826 -0.0963448,4.1275264 0.04099819,5.1469343 0.13611236,5.8393703 0.59059218,6.4925334 0.87307642,6.5700754 0.93617874,7.0187512 1.1299275,7.4548023 1.3766004,7.733932 1.7187908,8.0889406 2.0855283,7.9602947 2.2747783,7.6754465 2.3689763,8.3125118 2.534255,8.5288231 2.9979866,8.7301306 3.4167611,8.8821241 3.8978007,8.6348607 4.1936129,8.3577745 4.2116044,8.5875586 4.2602528,8.7841405 4.3433092,8.8354041 4.5814547,9.0407432 5.1360269,9.1020749 5.671135,8.7340296 6.6906165,8.6593784 7.162873,8.1154287 7.5355346,7.8216596 8.0674475,7.4023575 8.5988528,6.6256704 8.873081,5.5329366 9.18159,4.3036091 8.8527294,3.6407951 8.676726,3.6828531 8.3668459,3.7507445 8.4621453,3.3479491 8.5348062,3.0843539 c 0.00257,-0.00672 0.00349,-0.012926 0.00583,-0.019495 0.014259,-0.040048 0.024863,-0.077834 0.031105,-0.1130716 0.012523,-0.048478 0.017252,-0.080363 0.00777,-0.081879 C 8.5818627,2.6651136 8.4480519,2.5052447 8.2645751,2.1466406 7.9646462,1.7752835 7.5784773,1.4544273 7.3936148,1.4077769 7.231865,1.3669527 7.0643091,1.1524918 7.0184018,0.94379389 6.9820204,0.55188008 5.5217719,0.19017065 5.1792757,0.40767904 5.1385652,0.25746864 4.9592492,0.14877389 4.4735644,0.02752488 V 0.0294744 C 4.4111502,0.01225446 4.3370494,0.00173536 4.2538802,2.3176527e-4 Z M 3.60066,2.0257711 C 3.4903578,2.0332842 3.3600926,2.0809272 3.2429441,2.1622368 2.826406,2.4513453 3.0556098,2.607891 3.6453745,2.4117738 3.8593123,2.3425618 3.9182321,2.209983 3.8028472,2.0823069 3.7599522,2.0391398 3.6864506,2.0199248 3.60066,2.0257711 Z M 5.2142696,2.224621 c -0.094981,0.0031 -0.1562521,0.02265 -0.1652492,0.058486 -0.069975,0.278681 0.220982,0.4401344 0.5890648,0.3587096 0.2617758,-0.073394 0.4334863,0.0051 0.6823819,0.3294669 C 6.4999745,3.2257529 6.7116036,3.3488922 6.7812207,3.2793053 7.0105172,3.0582701 6.3619802,2.4578687 5.7080731,2.2928538 5.5149681,2.2441248 5.3363877,2.220633 5.2142696,2.224621 Z M 2.6791527,3.8719557 C 2.5909449,3.8614392 2.346505,4.1099681 2.125082,4.6127689 2.0079353,4.8268996 1.9163819,5.2547604 1.9520564,5.4003703 2.0814861,6.1118165 3.7925207,6.1323465 3.9369906,5.6966956 4.0293622,5.4181912 3.6177874,5.8397655 2.4789097,5.6538061 2.0981457,5.5916316 2.140409,4.9777493 2.2981077,4.6868499 2.6998643,4.1521219 2.7673611,3.8824717 2.6791527,3.8719557 Z m 3.1105729,0.5361148 c -0.071186,-0.0024 -0.1188799,0.04737 -0.1205347,0.1598596 -0.00199,0.1431525 0.332825,0.4637836 0.4471448,0.8402383 C 6.2818182,6.1746714 5.3470251,6.6921438 4.8604419,6.7689253 4.6458374,6.7892478 4.718356,6.9955589 5.1248407,7.0184624 5.9723897,7.0916671 6.6143608,5.9687289 6.536263,5.4919973 6.4368621,4.8852111 6.003283,4.4152723 5.7897256,4.4080705 Z" />
  </g>
</svg>
