<?xml version="1.0" encoding="UTF-8" standalone="no"?>
<!-- Created with Inkscape (http://www.inkscape.org/) -->

<svg
   width="15"
   height="15"
   id="svg2"
   version="1.1"
   xmlns="http://www.w3.org/2000/svg"
   xmlns:svg="http://www.w3.org/2000/svg"
   xmlns:rdf="http://www.w3.org/1999/02/22-rdf-syntax-ns#"
   xmlns:cc="http://creativecommons.org/ns#"
   xmlns:dc="http://purl.org/dc/elements/1.1/">
  <defs
     id="defs4" />
  <metadata
     id="metadata7">
    <rdf:RDF>
      <cc:Work
         rdf:about="">
        <dc:format>image/svg+xml</dc:format>
        <dc:type
           rdf:resource="http://purl.org/dc/dcmitype/StillImage" />
      </cc:Work>
    </rdf:RDF>
  </metadata>
  <path
     id="path4-1-4-9-5"
     style="fill:#000000"
     d="M 6.9956855,-3.3914201e-4 C 5.7566755,-0.01857914 3.5952055,0.74695386 3.2925655,1.4137229 c -0.36235,0.79831 -0.0565,1.768108 0.49609,1.710938 0.3374,-0.06662 0.0644,-0.652768 0.0469,-1.097656 -0.0539,-0.461284 0.44051,-0.733572 1.42578,-1.16406304 1.70799,-0.309856 3.19106,-0.352386 3,0.82226604 -0.27594,1.242728 0.24972,1.113659 0.3457,0.480469 0.0822,-0.679238 0.2497,-1.102653 0.12891,-1.41796904 0.24122,0.10212 0.53723,0.21456304 0.79687,0.35742204 0.42,0.231097 1.0769895,0.638177 1.3574195,1.160156 0.24166,0.512263 0.69564,0.996473 1.00586,1.074219 0.69799,0.174931 0.86047,1.324331 0.39258,2.849609 -0.52266,1.615727 -0.0551,1.684207 1.00196,0.244141 0.52774,-0.46005 0.49731,0.711426 0.49218,1.570316 -0.003,1.93573 -0.89764,1.14104 -0.75586,1.79492 0.17973,0.9813201 -0.64413,1.7892201 -1.42187,2.6210901 -0.73272,0.49181 -1.42533,0.7761 -2.2187495,0.7832 -0.82424,-0.0531 -1.50944,-0.17635 -1.5625,-0.37695 -0.0208,-0.0788 -0.0519,-0.13576 -0.0859,-0.17969 0.008,-0.0183 0.0162,-0.0364 0.0234,-0.0547 0.16524,-0.57635 0.50675,-0.7355 0.8125,-1.00196 0.45717,-0.39843 0.73188,-0.62101 0.61133,-1.0039 -0.43528,-0.7250401 -0.61865,-0.0628 -0.83008,0.15234 -1.19803,2.11474 -2.5598,2.76342 -3.14649,2.66211 -0.78958,-0.16543 -1.49008,-0.35353 -1.27539,-1.20312 0.15613,-0.61789 0.58656,-1.16559 0.93555,-1.07813 0.31022,0.0777 0.61918,-0.0628 0.66797,-0.25586 0.15614,-0.61788 -0.58616,-0.75199 -1.31445,-0.1543 -0.47247,0.37774 -0.78652,0.83799 -0.93555,1.3086 -0.78576,-0.0185 -1.76798,-1.20038 -1.51953,-2.1836001 0.15614,-0.61789 0.385,-1.26786 0.15234,-1.32617 -0.0811,-0.0203 -0.19096,0.0738 -0.30664,0.25 -0.24674,0.087 -1.26264002,0.75447 -1.05859002,-0.48828 0.16642,-1.358498 1.22407002,-2.309332 0.71484002,-2.064452 -0.31054002,0.14934 -0.55437002,0.390401 -0.74023002,0.681641 0.0652,-0.51468 0.13654,-1.143728 0.22656,-1.455078 0.15158,-0.565854 0.72050002,-1.33158 0.99219002,-1.427735 0.26195,-0.05755 0.55865,-0.230119 0.63672,-0.539062 0.1171,-0.463411 -0.0378,-0.501095 -0.73633,-0.347656 -0.65972998,0.163171 -1.19790002,1.21473 -1.52344002,2.529296 -0.20879,0.85177 -0.13905,1.722576 0.082,1.968746 v 0.002 c -0.19529,0.69045 -0.16737,1.46701 0.043,2.02148 0.20128,0.4681801 0.51549,0.6757701 0.81836002,0.6425801 -0.17901002,0.9014 -0.0354,1.30241 0.51758,1.83789 0.51315,0.43942 1.13792,0.65568 1.60547,0.62305 0.0397,0.71173 0.49192,1.35311 1.39843,1.64258 0.89856,0.29983 1.71098,-0.0177 2.31055,-0.5586 0.0221,0.4105 0.11884,0.79655 0.28516,0.89844 0.39964,0.34222 1.33248,0.44737 2.23047,-0.16602 1.7108195,-0.12442 2.4996095,-1.03188 3.1249995,-1.52148 0.89262,-0.69881 1.7859,-1.9933 2.24609,-3.8144501 0.51772,-2.04881 -0.0328,-3.152125 -0.32813,-3.082035 -0.653,0.14209 -0.23088,-0.970967 -0.16406,-1.279297 0.19661,-0.489139 -0.004,-0.742265 -0.56445,-1.43164 -0.50332,-0.618905 -1.15267,-1.15077 -1.46289,-1.228516 -0.27145,-0.06803 -0.55383,-0.425623 -0.63086,-0.773438 -0.0637,-0.68237104 -2.9139795,-1.53373004 -3.3085995,-1.07226504 h -0.002 c -0.19892,-0.101608 -0.47629,-0.197753 -0.86133,-0.296875 -0.13121,-0.03721 -0.29175,-0.05599 -0.46875,-0.058590002 z M 6.2437355,3.2281769 c -0.19096,0.0056 -0.42529,0.08353 -0.63281,0.226562 -0.69901,0.48183 -0.31197,0.744818 0.67773,0.417969 0.35901,-0.115343 0.45731,-0.337995 0.26367,-0.550781 -0.0669,-0.0668 -0.17794,-0.09758 -0.30859,-0.09375 z m 2.02344,0 c -0.15939,0.0052 -0.26225,0.03789 -0.27735,0.09766 -0.11736,0.464453 0.36863,0.733358 0.98633,0.597656 0.4393,-0.122312 0.72881,0.0064 1.1464895,0.546875 0.30122,0.424103 0.65661,0.629645 0.77343,0.513672 0.3848,-0.368379 -0.70344,-1.367563 -1.8007795,-1.642578 -0.32406,-0.08121 -0.62319,-0.119944 -0.82812,-0.113281 z m -4.02344,1.595703 c -0.15687,-0.02069 -0.59059,0.467851 -0.98437,1.457031 -0.20834,0.42128 -0.374,1.25845 -0.31055,1.54492 0.0494,1.05003 1.28564,1.6339 1.46875,1.44141 0.22806,-0.23974 -0.0648,-0.39329 -0.59766,-0.77539 -0.55921,-0.40098 -0.53436,-1.49216 -0.2539,-2.064456 0.71449,-1.052 0.8346,-1.582826 0.67773,-1.603515 z m 3.25586,0.175781 a 2.5,2.5 0 0 0 -2.5,2.5 2.5,2.5 0 0 0 2.5,2.4999996 2.5,2.5 0 0 0 2.4999995,-2.4999996 2.5,2.5 0 0 0 -2.4999995,-2.5 z m 0,0.75 a 1.75,1.75 0 0 1 1.75,1.75 1.75,1.75 0 0 1 -1.75,1.75 1.75,1.75 0 0 1 -1.75,-1.75 1.75,1.75 0 0 1 1.75,-1.75 z m 3.2617195,1.56836 c -0.18588,0.0199 -0.20873,0.42129 0.18164,1.48633 0.24552,1.03581 -0.2806,2.4418201 -0.9375,2.8906201 -0.2985595,0.17776 -0.056599,0.43465 0.54883,0.18946 1.27907,-0.4733 1.71742,-1.59242 1.25976,-3.2226601 -0.23437,-0.68146 -0.79799,-1.37106 -1.05273,-1.34375 z" />
</svg>
