<?xml version="1.0" encoding="UTF-8" standalone="no"?>
<!-- Created with Inkscape (http://www.inkscape.org/) -->

<svg
   width="15"
   height="15"
   id="svg2"
   version="1.1"
   xmlns="http://www.w3.org/2000/svg"
   xmlns:svg="http://www.w3.org/2000/svg"
   xmlns:rdf="http://www.w3.org/1999/02/22-rdf-syntax-ns#"
   xmlns:cc="http://creativecommons.org/ns#"
   xmlns:dc="http://purl.org/dc/elements/1.1/">
  <defs
     id="defs4" />
  <metadata
     id="metadata7">
    <rdf:RDF>
      <cc:Work
         rdf:about="">
        <dc:format>image/svg+xml</dc:format>
        <dc:type
           rdf:resource="http://purl.org/dc/dcmitype/StillImage" />
      </cc:Work>
    </rdf:RDF>
  </metadata>
  <rect
     y="0"
     x="0"
     height="15"
     width="15"
     id="rect4155"
     style="fill:none" />
  <path
     id="path4217"
     style="fill:#000000"
     d="M 8.26166,0.06249999 C 7.01166,2.024906 7.51244,5.024838 7.56244,7.027344 8.26244,4.774838 9.26166,3.274906 8.26166,0.06249999 Z M 7.56244,7.027344 a 0.49999905,0.50000048 0 0 1 -0.002,0 0.49999905,0.50000048 0 0 0 -0.0488,-0.002 0.49999905,0.50000048 0 0 0 -0.35352,0.146484 0.49999905,0.50000048 0 0 0 -0.14648,0.353516 0.49999905,0.50000048 0 0 0 0.002,0.0332 0.49999905,0.50000048 0 0 0 0.125,0.300781 0.49999905,0.50000048 0 0 0 0.24414,0.148438 0.49999905,0.50000048 0 0 0 0.12891,0.01758 0.49999905,0.50000048 0 0 0 0.18359,-0.03516 0.49999905,0.50000048 0 0 0 0.31641,-0.464844 0.49999905,0.50000048 0 0 0 -0.0371,-0.189453 0.49999905,0.50000048 0 0 1 0,-0.002 0.49999905,0.50000048 0 0 0 -0.12891,-0.181641 0.49999905,0.50000048 0 0 0 -0.2832,-0.125 z m 0.2832,0.125 c 1.91517,-1.87649 4.66602,-4.376407 4.66602,-5.21875 -2.75,-0.157657 -3.00085,2.59226 -4.66602,5.21875 z M 7.97455,7.335938 C 10.512,6.775807 13.10877,6.443719 14.27533,4.275391 12.58676,3.395769 10.012,6.525807 7.97455,7.335938 Z m -0.2793,0.654297 c 0.31667,3.284824 -0.43359,5.78603 2.56641,6.513672 0.75,-1.977642 -1.49974,-4.228848 -2.56641,-6.513672 z m -0.3125,0.01758 c -1.87198,3.766667 -3.87072,4.517578 -1.79101,6.767578 1.67029,-1.5 1.76227,-4.706225 1.79101,-6.767578 z M 7.13861,7.859377 c -2.62732,1.666668 -6.37662,1.666016 -5.21679,4.666016 1.59017,-2 3.58947,-2.499348 5.21679,-4.666016 z M 7.01361,7.558596 C 5.0125,7.275261 1.76255,7.025391 0.02925,8.025391 c 3.2333,1 4.73325,0.24987 6.98436,-0.466797 z M 7.15814,7.171877 C 5.26169,5.775431 2.51223,5.025959 2.20893,2.222659 0.01224,7.025959 5.26169,6.275431 7.15814,7.171877 Z M 4.76166,0.55078398 C 3.76166,2.525908 5.87159,4.957009 7.29291,7.013674 6.87084,4.995789 6.01166,2.525908 4.76166,0.55078398 Z M 12.03314,7.185549 c -1.40356,0.0012 -2.96052,0.370833 -4.02539,0.40625 2.00446,0.683333 5.00446,1.933594 6.9375,0.933594 C 14.3907,7.470705 13.27158,7.184519 12.03314,7.185549 Z M 7.92377,7.808596 c 1.33802,1.966667 3.39832,4.764692 5.76758,3.966797 -1.42961,-2 -3.67956,-3.00013 -5.76758,-3.966797 z" />
</svg>
