<?xml version="1.0" encoding="UTF-8" standalone="no"?>
<!-- Created with Inkscape (http://www.inkscape.org/) -->

<svg
   width="10"
   height="10"
   id="svg2"
   version="1.1"
   xmlns="http://www.w3.org/2000/svg"
   xmlns:svg="http://www.w3.org/2000/svg"
   xmlns:rdf="http://www.w3.org/1999/02/22-rdf-syntax-ns#"
   xmlns:cc="http://creativecommons.org/ns#"
   xmlns:dc="http://purl.org/dc/elements/1.1/">
  <defs
     id="defs4" />
  <metadata
     id="metadata7">
    <rdf:RDF>
      <cc:Work
         rdf:about="">
        <dc:format>image/svg+xml</dc:format>
        <dc:type
           rdf:resource="http://purl.org/dc/dcmitype/StillImage" />
      </cc:Work>
    </rdf:RDF>
  </metadata>
  <rect
     y="0"
     x="0"
     height="10"
     width="10"
     id="rect4155"
     style="fill:none" />
  <path
     id="path4217"
     style="fill:#000000"
     d="M 5.50001,0.02538994 C 4.66666,1.3336599 4.99987,3.3329599 5.03321,4.6679699 5.49987,3.1662999 6.16667,2.1669899 5.50001,0.02538994 Z M 5.03321,4.6679699 a 0.33333275,0.33333364 0 0 0 -0.0332,-0.002 0.33333275,0.33333364 0 0 0 -0.23634,0.0977 0.33333275,0.33333364 0 0 0 -0.0977,0.23632 0.33333275,0.33333364 0 0 0 0.002,0.0215 0.33333275,0.33333364 0 0 0 0.084,0.20118 0.33333275,0.33333364 0 0 0 0.16211,0.0996 0.33333275,0.33333364 0 0 0 0.0859,0.0117 0.33333275,0.33333364 0 0 0 0.27539,-0.14453 0.33333275,0.33333364 0 0 0 0.0547,-0.14454 0.33333275,0.33333364 0 0 0 0.004,-0.0449 0.33333275,0.33333364 0 0 0 -0.0254,-0.12695 0.33333275,0.33333364 0 0 0 -0.0859,-0.12109 0.33333275,0.33333364 0 0 0 -0.18946,-0.084 z m 0.18945,0.084 c 1.2768,-1.251 3.11133,-2.91891 3.11133,-3.48047 -1.83332,-0.10511 -2.00121,1.72947 -3.11133,3.48047 z m 0.0859,0.12109 c 1.69161,-0.37342 3.42347,-0.59351 4.20118,-2.03906 -1.12573,-0.58642 -2.8429,1.49897 -4.20118,2.03906 z m 0.0215,0.17188 c 1.33629,0.45555 3.33631,1.28776 4.625,0.62109 -0.7887,-1.5 -3.28871,-0.66554 -4.625,-0.62109 z m -0.0547,0.14453 c 0.89202,1.31111 2.26425,3.17646 3.84375,2.64453 -0.95307,-1.33334 -2.45174,-2.00009 -3.84375,-2.64453 z m -0.36133,0.13281 c -1.24799,2.51111 -2.57984,3.01172 -1.19337,4.51172 1.11352,-1 1.17421,-3.13748 1.19337,-4.51172 z m -0.16212,-0.0996 c -1.75155,1.11111 -4.25173,1.11133 -3.47851,3.11133 1.06013,-1.33333 2.39362,-1.66688 3.47851,-3.11133 z m -0.084,-0.20117 c -1.33406,-0.18889 -3.50072,-0.35417 -4.65625,0.3125 2.15553,0.66666 3.15551,0.16528 4.65625,-0.3125 z m 0.0957,-0.25781 c -1.26424,-0.93096 -3.09655,-1.42996 -3.29877,-3.29883 -1.46446000438,3.2022 2.03453,2.7012 3.29883,3.29883 z M 3.16596,0.34962994 C 2.49931,1.6663799 3.90787,3.2871199 4.85541,4.6582299 4.57403,3.3129699 3.99929,1.6663799 3.16596,0.34962994 Z M 5.12299,5.3105699 c 0.21112,2.18988 -0.28907,3.85671 1.71093,4.3418 0.5,-1.31843 -0.99981,-2.81858 -1.71093,-4.3418 z" />
</svg>
