<?xml version="1.0" encoding="UTF-8" standalone="no"?>
<!-- Created with Inkscape (http://www.inkscape.org/) -->

<svg
   width="41"
   height="41"
   id="svg2"
   version="1.1"
   xmlns="http://www.w3.org/2000/svg"
   xmlns:svg="http://www.w3.org/2000/svg"
   xmlns:rdf="http://www.w3.org/1999/02/22-rdf-syntax-ns#"
   xmlns:cc="http://creativecommons.org/ns#"
   xmlns:dc="http://purl.org/dc/elements/1.1/">
  <defs
     id="defs4" />
  <metadata
     id="metadata7">
    <rdf:RDF>
      <cc:Work
         rdf:about="">
        <dc:format>image/svg+xml</dc:format>
        <dc:type
           rdf:resource="http://purl.org/dc/dcmitype/StillImage" />
      </cc:Work>
    </rdf:RDF>
  </metadata>
  <path
     id="path368-8-0-9-6-7-8-65"
     style="fill:#000000"
     d="M 20.5 0 C 20 0 20.26876 0.55113563 20.160156 1.0722656 C 20.010229 1.7915456 19.905341 2.4872469 19.871094 2.9042969 C 19.640081 6.8910569 20.731424 7.1368344 20.628906 5.3964844 C 20.665286 4.0480044 20.976136 2.04962 21.101562 0.78125 C 21.141233 0.38105 20.917671 0 20.5 0 z M 17.994141 0.1484375 C 17.772764 0.15219006 17.558482 0.33657813 17.46875 0.68945312 C 17.285008 1.8485931 16.474269 0.57617187 15.992188 0.57617188 C 15.113048 0.57617188 16.492272 1.8981038 16.794922 2.4960938 C 17.277036 3.3046238 16.623027 3.7048869 16.441406 3.9980469 C 16.350126 4.0727469 16.634323 5.0917581 16.769531 5.3300781 C 16.992182 5.7226381 17.323732 5.9978875 17.611328 5.6484375 C 18.088729 5.0684375 17.513034 3.49238 17.751953 2.8125 C 18.002758 2.1057 18.742474 1.191475 18.515625 0.578125 C 18.403951 0.309775 18.222988 0.16726063 18.039062 0.15039062 C 18.024283 0.14904063 18.008899 0.14818733 17.994141 0.1484375 z M 24.634766 0.47265625 C 24.602732 0.47349221 24.567873 0.47615625 24.53125 0.47851562 C 23.9453 0.51631562 23.616625 0.80352125 23.058594 1.3320312 C 22.333135 2.0870713 22.262798 3.2932856 22.345703 4.3847656 C 22.370083 5.3717556 22.715288 6.6467806 22.941406 5.7753906 C 23.523431 3.5324406 23.99302 1.4914238 24.449219 1.1210938 C 25.077018 0.6255875 25.115276 0.46011678 24.634766 0.47265625 z M 13.855469 1.125 C 13.813385 1.127759 13.76914 1.1356544 13.720703 1.1503906 C 13.315653 1.2884406 14.222538 3.6288175 14.892578 5.0859375 C 15.150736 5.6473575 15.095865 6.5012619 15.642578 6.8574219 C 16.337726 7.3102919 15.134427 4.4396106 14.580078 2.9003906 C 14.433391 2.3242594 14.486722 1.083615 13.855469 1.125 z M 27.449219 1.2832031 C 27.187912 1.2745494 26.906482 1.3991038 26.849609 1.5546875 C 26.886989 1.8299775 26.015213 3.1146119 25.804688 3.2949219 C 25.383613 3.6555419 24.265678 6.4056775 24.697266 6.5546875 C 25.057165 6.7371875 25.180237 5.8263081 25.591797 5.3925781 C 26.314278 4.6311681 27.279536 3.5440131 27.455078 2.9082031 C 28.263311 1.6823031 27.88473 1.2976261 27.449219 1.2832031 z M 11.617188 2.0820312 C 11.558748 2.0860313 11.496945 2.0986406 11.429688 2.1191406 C 10.867667 2.3122306 11.492141 5.2449531 12.464844 6.5332031 C 12.662879 6.7954831 13.132231 6.9031544 13.28125 6.6152344 C 13.418417 6.3502344 12.744905 4.9059025 12.625 4.5703125 C 12.421314 3.7638925 12.493777 2.0241213 11.617188 2.0820312 z M 30.367188 2.6386719 C 30.200149 2.6380821 30.053634 2.6808044 30.011719 2.7753906 C 29.89994 3.0276206 29.595269 3.3648844 29.302734 3.6152344 C 28.986916 3.8463644 28.76904 4.1986038 28.787109 4.3710938 C 28.805159 4.5435637 27.888931 5.7722694 27.689453 6.0996094 C 27.503657 6.7861594 28.722322 6.1991525 29.052734 5.6328125 C 29.573245 4.9211025 31.044861 3.3413006 31.001953 2.9316406 C 30.983659 2.7564594 30.645585 2.6396549 30.367188 2.6386719 z M 8.7421875 3.6914062 C 8.4577415 3.7631062 8.3530794 4.4160281 8.4277344 4.8925781 C 8.5023844 5.3691381 9.2444316 5.3131475 9.0878906 5.6171875 C 8.7161366 6.3393475 8.4294126 6.4918706 9.5097656 6.6503906 C 10.19806 6.7579306 10.940962 8.1192619 11.066406 8.4199219 C 12.412553 9.5121319 13.380693 9.1012188 12.824219 8.5742188 C 12.185688 7.9694987 11.658301 7.8727656 11.294922 7.3535156 C 10.134873 5.6958656 8.9587835 3.6367962 8.7421875 3.6914062 z M 33.341797 4.59375 C 33.270838 4.5964002 33.183473 4.6041869 33.078125 4.6191406 C 32.726974 4.6689406 32.225708 4.9284644 31.640625 5.4277344 C 31.376398 5.4277344 30.885766 6.7994525 30.359375 7.6015625 C 29.836956 8.3976125 29.278266 8.8495687 29.294922 9.0742188 C 29.325892 9.4919687 30.067349 8.8500575 30.900391 8.5859375 C 31.222137 8.4844875 31.266702 7.625815 31.5625 7.296875 C 32.417617 6.346015 32.811241 6.1820181 33.140625 5.6113281 C 33.542215 4.8667206 33.838509 4.5751988 33.341797 4.59375 z M 6.2597656 5.9199219 C 6.1573067 5.9145944 6.0266666 6.02692 5.7910156 6.25 C 5.1119266 6.91751 5.115821 6.9708681 5.703125 7.0488281 C 5.962246 7.0743281 6.2460981 7.2851412 6.3300781 7.5195312 C 6.3910581 7.7449212 6.5692841 7.8893263 6.7363281 7.8789062 C 6.8803711 7.8596063 7.2205326 7.98084 7.5878906 8.15625 C 8.2581616 8.40819 9.1870224 9.6929131 9.2402344 9.0332031 C 9.2735244 8.7185331 7.8034354 7.1878662 7.4121094 7.0351562 C 7.0668114 6.9004462 6.6750665 6.570675 6.5546875 6.296875 C 6.436176 6.049005 6.3622245 5.9252494 6.2597656 5.9199219 z M 35.722656 7.0234375 C 35.506055 7.0448045 35.28797 7.2457819 35.015625 7.4824219 C 34.683611 7.7558919 34.413142 7.8394794 34.173828 7.7246094 C 33.913627 7.5678394 33.830227 7.6115313 33.851562 7.8632812 C 33.872653 8.0101013 33.706948 8.2512875 33.478516 8.3671875 C 33.270865 8.4724975 30.768545 10.711099 31.222656 11.136719 C 31.486452 11.383969 33.696393 9.6205531 34.464844 9.2832031 C 35.368335 8.9036031 36.161634 8.0333375 36.390625 8.1796875 C 36.661267 8.3573975 36.752909 8.0966388 36.617188 7.8242188 C 36.512907 7.6671188 36.236016 7.2197894 35.939453 7.0683594 C 35.865313 7.0305019 35.794857 7.0163152 35.722656 7.0234375 z M 4.7011719 8.1523438 C 3.7673635 8.1544881 3.9732437 8.7246625 4.3105469 8.96875 C 5.0365859 9.49413 5.5869514 9.8347238 6.1777344 10.402344 C 6.3006904 10.520554 6.635927 10.577346 6.828125 10.753906 C 7.020314 10.930486 7.2583891 11.134414 7.4082031 11.083984 C 7.5579931 11.033584 7.8999626 11.118097 8.2128906 11.242188 C 8.6378966 11.435337 9.0891871 11.723044 9.2519531 11.490234 C 9.5455191 11.063154 8.9767411 10.482729 8.4238281 10.443359 C 7.6672101 10.389459 6.3667786 10.034227 6.3847656 9.6796875 C 6.3313056 9.3788675 5.7251249 8.8066156 5.3730469 8.8222656 C 5.0536539 8.6524156 5.2158837 8.1830531 4.9023438 8.1582031 C 4.8296484 8.1530281 4.7634258 8.1522008 4.7011719 8.1523438 z M 37.503906 9.4550781 C 37.436234 9.4512681 37.417935 9.5735406 37.394531 9.8222656 C 37.369751 10.085586 37.11705 10.442224 36.833984 10.558594 C 36.548169 10.704214 35.839607 11.009468 35.273438 11.242188 C 34.677642 11.501197 32.520449 12.738365 32.560547 12.890625 C 32.675262 13.405945 33.900134 13.046829 34.378906 12.730469 C 34.857679 12.414129 37.050711 12.383961 37.427734 12.425781 C 37.804756 12.467581 38.07156 11.878179 38.300781 11.755859 C 38.672897 11.560699 38.680034 11.473095 38.378906 11.203125 C 38.204173 11.035845 38.118337 10.789654 38.212891 10.652344 C 38.307571 10.515084 38.179741 10.145819 37.908203 9.8496094 C 37.687871 9.5886244 37.571578 9.4588881 37.503906 9.4550781 z M 2.8808594 10.423828 C 2.7669047 10.430107 2.6807659 10.466499 2.6425781 10.544922 C 2.2243501 11.403772 2.9635158 11.125186 4.2304688 12.035156 C 5.0255968 12.666426 5.870917 13.333804 5.890625 13.708984 C 5.900325 13.893604 6.048221 14.180498 6.140625 14.023438 C 6.442054 13.511017 7.1696614 13.794012 7.0058594 13.257812 C 6.8223364 12.657052 5.2946193 12.211566 4.0820312 10.947266 C 3.8122405 10.665963 3.2227235 10.404992 2.8808594 10.423828 z M 19.369141 12.222656 C 19.279742 12.281086 19.550909 14.277814 19.535156 14.769531 C 19.532097 14.865048 19.526848 14.956672 19.525391 15.042969 C 19.464057 15.098968 19.518805 15.229983 19.541016 15.423828 L 19.734375 17.134766 C 19.832175 17.993726 20.472754 18.935724 20.568359 18.646484 C 20.647909 18.405814 20.263136 17.874581 20.134766 16.806641 C 20.073366 16.455901 19.99493 15.866487 19.9375 15.529297 C 19.893664 15.255252 19.864179 15.112535 19.810547 15.046875 C 19.810693 15.038336 19.810475 15.030175 19.810547 15.021484 C 19.816147 14.337854 19.557065 12.483016 19.386719 12.228516 C 19.380508 12.221611 19.373537 12.219783 19.369141 12.222656 z M 22.484375 12.353516 C 22.379374 12.379339 22.044025 14.485914 21.880859 14.974609 C 21.811144 15.183422 21.742898 15.376949 21.716797 15.525391 C 21.568437 15.579327 21.585935 15.789869 21.521484 15.916016 C 21.325574 16.572436 21.00304 17.6875 21.28125 17.6875 C 21.37865 17.6875 21.467265 18.000324 21.328125 18.208984 C 21.189025 18.431564 21.23808 18.806688 21.0625 19.054688 C 20.74805 19.539997 20.708696 19.602478 21.166016 19.892578 C 21.652826 20.237768 21.576972 20.422254 21.794922 20.865234 C 21.856322 20.990054 22.087939 21.255859 22.199219 21.255859 C 22.310529 21.255859 22.398914 20.958946 22.371094 20.847656 C 22.329394 20.694636 22.38507 20.695905 22.59375 20.890625 C 22.9276 21.196665 23.121894 21.196893 23.302734 20.876953 C 23.400134 20.723933 23.494903 20.849966 23.564453 20.947266 C 23.634053 21.030766 23.965882 21.137719 24.132812 21.193359 C 24.476725 21.303906 25.638114 21.43991 25.933594 21.005859 L 27.591797 21.126953 C 28.454046 21.189453 29.330437 20.754065 29.037109 20.671875 C 28.805725 20.601675 28.417031 20.744628 27.34375 20.673828 C 26.987704 20.669828 26.392777 20.638713 26.050781 20.632812 C 26.015595 20.631859 25.988104 20.631446 25.957031 20.630859 C 25.618671 20.12627 23.455156 20.54492 22.871094 20.570312 C 22.578964 20.570312 22.396484 20.468236 22.396484 20.384766 C 22.396484 20.315266 22.275581 20.181641 22.150391 20.181641 C 22.011271 20.181641 21.892778 20.010632 21.767578 19.732422 C 21.532408 19.591922 21.433924 19.360879 21.615234 19.167969 C 21.823894 18.987129 22.154941 18.859094 22.619141 18.777344 C 22.820091 18.777344 22.994818 18.594095 23.142578 18.296875 C 23.097678 18.135595 23.095867 18.237212 22.898438 17.982422 C 22.787128 17.871142 22.801978 17.760442 22.955078 17.607422 C 23.080278 17.482232 23.177734 17.329554 23.177734 17.246094 C 23.177734 17.162594 23.302306 16.898589 23.441406 16.662109 C 23.594708 16.409172 23.695581 16.184756 23.701172 16.035156 C 23.758981 15.986201 23.825591 15.91518 23.896484 15.828125 C 24.302062 15.330075 25.261975 13.765043 25.326172 13.445312 C 25.346312 13.233852 24.218514 15.061464 23.90625 15.427734 C 23.773103 15.583912 23.646029 15.727218 23.572266 15.847656 C 23.55169 15.843003 23.529963 15.839844 23.503906 15.839844 C 23.358766 15.852244 23.255869 16.201789 23.042969 16.542969 C 22.818339 17.015539 22.496856 17.357356 22.566406 17.816406 C 22.649806 18.331096 22.481309 18.566931 21.980469 18.650391 C 21.660509 18.692091 21.493979 18.804041 21.730469 18.275391 C 21.786169 18.164111 21.785941 17.926686 21.744141 17.759766 C 21.688441 17.592836 21.552454 16.990072 21.677734 16.544922 C 21.825472 16.02113 22.048217 15.774555 21.988281 15.570312 C 22.019078 15.501947 22.048088 15.421339 22.076172 15.330078 C 22.287071 14.644648 22.590145 12.683934 22.5 12.365234 C 22.496 12.356002 22.489539 12.352246 22.484375 12.353516 z M 15.904297 13.339844 C 15.787906 13.359947 17.230766 15.168225 17.525391 15.669922 C 17.609171 15.81259 17.689308 15.948195 17.761719 16.060547 C 17.689232 16.241452 17.706509 16.586546 17.748047 16.738281 L 17.748047 16.740234 C 17.895467 17.278644 17.877039 17.301061 18.037109 17.494141 C 18.426609 17.911461 18.789063 17.920788 18.789062 17.642578 C 18.789062 17.559078 18.647913 17.597656 18.564453 17.597656 C 18.234483 17.364086 18.141831 17.089016 18.113281 16.759766 C 18.081681 16.567126 18.109391 16.196503 18.150391 16.126953 C 18.183362 16.071922 18.120023 16.006746 17.996094 15.96875 C 17.996094 15.96875 17.994141 15.966797 17.994141 15.966797 C 17.955523 15.884397 17.905359 15.794496 17.845703 15.697266 C 17.439178 15.034636 16.168697 13.453377 15.912109 13.341797 C 15.909466 13.341203 15.906144 13.339525 15.904297 13.339844 z M 39.099609 13.351562 C 39.076958 13.352041 39.05436 13.353722 39.03125 13.357422 C 38.291739 13.475812 38.415852 14.862085 37.367188 14.515625 C 36.152012 14.111945 35.774966 14.261482 35.197266 14.357422 C 34.638316 14.340222 32.979742 14.928903 33.082031 15.408203 C 33.215606 16.034083 35.049444 15.455066 35.927734 15.791016 C 37.050218 16.220416 38.739732 16.210946 39.886719 15.191406 C 40.273508 14.827088 39.801787 13.336721 39.099609 13.351562 z M 2.1796875 13.615234 C 1.9104579 13.620327 1.6996722 13.730408 1.703125 13.947266 C 1.712025 14.103826 1.5009961 14.332849 1.2207031 14.449219 C 0.95956112 14.572599 0.7541035 14.781561 0.7890625 14.925781 C 0.8293025 15.115731 0.97527613 15.191642 1.1894531 15.138672 C 1.3844681 15.078572 1.7567194 15.12805 2.0058594 15.21875 C 2.4658074 15.38722 2.4669032 15.386621 2.2070312 14.962891 C 1.9715752 14.591911 2.0168675 14.587256 2.8984375 14.910156 C 3.4089355 15.119036 4.2864285 15.56802 4.5703125 15.5625 C 5.0544715 15.5426 4.8618229 15.235312 4.6855469 14.820312 C 4.5389689 14.503782 4.343195 14.388147 3.96875 14.404297 C 3.646525 14.395297 3.3467311 14.263244 3.0957031 13.996094 C 2.8660097 13.737433 2.4848144 13.609463 2.1796875 13.615234 z M 27.337891 15.478516 C 27.196708 15.471929 25.786335 16.738012 25.386719 16.980469 C 25.243762 17.067205 25.106183 17.146442 25.003906 17.222656 C 24.923499 17.144787 24.810527 17.210604 24.556641 17.423828 C 24.292341 17.646398 23.535827 18.434035 23.617188 18.546875 C 23.794027 18.792135 24.022719 18.690211 24.761719 17.863281 C 24.974573 17.737505 25.073246 17.607549 25.095703 17.498047 C 25.169794 17.468094 25.254798 17.423789 25.345703 17.365234 C 25.900935 17.007684 27.242562 15.786344 27.347656 15.496094 C 27.350209 15.483664 27.347303 15.478955 27.337891 15.478516 z M 0.76171875 16.792969 C 0.3726336 16.808261 0.25361625 17.160025 0.35546875 17.570312 C 0.45032875 17.860363 1.0877253 17.853385 1.7695312 18.078125 C 2.6780902 18.245265 3.4143746 18.695618 4.1503906 18.267578 C 4.7854676 17.992338 5.8887696 18.069159 6.0878906 17.949219 C 6.4560346 17.722049 6.0627462 16.991909 5.9414062 16.886719 C 5.4172262 16.698039 3.9385906 17.816486 3.6035156 17.597656 C 3.3293506 17.418586 3.0230755 17.313344 2.8828125 17.365234 C 2.7425485 17.417134 2.233889 17.3258 1.765625 17.1875 C 1.3263046 16.895045 0.99516984 16.783793 0.76171875 16.792969 z M 37.550781 17.085938 C 36.826224 17.089957 36.097656 17.187383 36.097656 17.3125 C 36.097656 17.53503 35.652562 17.474609 35.53125 17.474609 C 35.43419 17.474609 35.283896 17.498143 34.919922 17.720703 C 34.410368 18.038613 33.639053 18.73193 33.857422 18.875 C 34.051549 19.00216 35.030262 19.150834 35.345703 18.896484 C 35.903777 18.419604 36.537532 18.970703 37.556641 18.970703 C 38.01766 18.970703 38.6449 18.149242 38.863281 18.101562 C 39.17872 18.022063 39.177888 17.466131 38.886719 17.275391 C 38.6744 17.136296 38.114326 17.082812 37.550781 17.085938 z M 13.021484 17.232422 C 12.986207 17.233338 12.956637 17.237141 12.933594 17.242188 C 12.697457 17.325488 15.067551 17.884168 15.572266 18.111328 C 15.593583 18.120923 15.613779 18.13113 15.634766 18.140625 C 15.652685 18.171541 15.679893 18.206861 15.714844 18.248047 C 15.828954 18.363357 16.046501 18.437327 16.181641 18.404297 C 16.384331 18.354797 16.504993 18.366155 16.564453 18.609375 C 16.614053 18.812065 16.727817 18.913139 16.835938 18.886719 C 16.930537 18.863619 17.076246 18.928742 17.197266 19.013672 C 17.318276 19.098672 17.463834 19.193769 17.521484 19.136719 C 17.579084 19.079619 17.750856 19.082081 17.916016 19.113281 C 18.145126 19.171881 18.210351 19.141521 18.238281 18.962891 C 18.287181 18.635881 17.998927 18.800531 17.742188 18.863281 C 17.390847 18.949181 16.850093 18.618133 16.789062 18.382812 C 16.706363 18.194163 16.321556 17.915762 16.166016 17.982422 C 16.164133 17.983603 16.160703 17.984229 16.158203 17.984375 C 16.158203 17.984375 16.15625 17.984375 16.15625 17.984375 C 16.13393 17.973028 16.112351 17.960427 16.087891 17.949219 C 16.033933 17.914785 15.960489 17.86807 15.882812 17.867188 C 15.159196 17.600866 13.519216 17.21949 13.021484 17.232422 z M 28.421875 17.638672 C 28.187726 17.665794 26.631798 18.488619 26.197266 18.628906 C 25.983635 18.697882 25.783228 18.759238 25.664062 18.828125 C 25.290696 18.87085 24.302189 19.381818 23.398438 19.40625 C 22.464987 19.43145 21.929288 19.272552 21.960938 19.607422 L 21.960938 19.609375 C 22.046337 19.850885 22.174246 20.018539 24.166016 19.693359 C 24.858678 19.573119 25.44557 19.251352 25.693359 19.050781 C 25.794396 19.053931 25.93596 19.021526 26.097656 18.964844 C 26.725324 18.744854 28.297003 17.897243 28.449219 17.658203 C 28.455977 17.642335 28.446097 17.635866 28.421875 17.638672 z M 18.914062 18.035156 C 18.871847 18.03648 18.829069 18.055069 18.78125 18.089844 C 18.61432 18.201134 18.64176 18.285043 19.03125 18.632812 C 19.36511 18.952762 19.421064 19.050781 19.240234 19.050781 C 19.017664 19.050781 19.017664 19.064519 19.240234 19.287109 C 19.476714 19.523589 20.310547 19.648113 20.310547 19.439453 C 20.310547 19.383853 20.421457 19.328363 20.560547 19.314453 C 20.713557 19.314453 20.631776 19.230867 20.353516 19.091797 C 20.103116 18.966597 19.847656 18.954316 19.847656 18.884766 C 19.847656 18.829166 19.685985 18.730469 19.546875 18.730469 C 19.421685 18.730469 19.308556 18.479896 19.197266 18.285156 C 19.092071 18.113013 19.006936 18.032243 18.914062 18.035156 z M 40.158203 18.6875 C 39.898799 18.6825 39.658233 19.414795 39.736328 19.890625 C 39.814418 20.366455 38.791752 20.414913 38.015625 20.345703 C 37.701285 20.301103 36.910116 20.650332 36.507812 20.857422 C 36.255775 20.928522 35.701271 20.27541 35.578125 20.4375 C 35.372241 20.7084 34.542852 21.603523 34.542969 21.908203 C 34.531859 22.015033 35.853078 22.137131 35.964844 22.212891 C 36.23261 22.394411 36.780529 22.087097 37.074219 22.085938 C 37.869425 22.094938 37.978041 21.935072 38.419922 21.638672 C 39.018622 21.319352 39.854966 22.503917 40.607422 22.085938 C 41.026155 21.732238 41 21 41 20.5 C 41 19.75 40.783788 19.335911 40.611328 18.957031 C 40.478506 18.810031 40.417608 18.69264 40.158203 18.6875 z M 19.476562 19.685547 C 18.980183 19.714447 18.551776 19.848697 18.041016 19.898438 L 18.041016 19.900391 C 17.856836 19.908391 17.644723 19.953366 17.564453 20.003906 C 17.484153 20.054406 17.151749 20.305826 16.599609 20.316406 C 16.034699 20.313406 15.296019 20.266869 15.162109 20.355469 C 15.137047 20.373252 15.117166 20.388497 15.099609 20.402344 C 15.041225 20.395946 14.977424 20.394937 14.908203 20.394531 C 14.224549 20.390531 12.37099 20.707999 12.117188 20.912109 C 11.970432 21.070659 14.140276 20.706929 14.65625 20.724609 C 14.89634 20.732869 15.119584 20.743377 15.261719 20.708984 C 15.449494 20.786169 15.655938 20.673334 15.96875 20.619141 C 16.2602 20.535141 16.697611 20.662369 16.894531 20.667969 C 17.091471 20.673969 17.458763 20.45755 17.632812 20.34375 C 17.913753 20.16701 18.356026 20.104269 18.785156 20.261719 C 19.057866 20.375109 18.966694 20.598923 19.058594 20.601562 C 19.150494 20.604563 19.280198 20.68741 19.330078 20.78125 C 19.417878 20.92895 19.550954 20.900551 19.621094 20.744141 C 19.663494 20.639771 19.512999 20.41074 19.380859 20.28125 C 19.284259 20.20385 19.185494 20.05897 19.302734 20.03125 C 19.777604 19.96565 19.882423 19.736767 19.476562 19.685547 z M 20.289062 19.726562 C 20.07811 19.736322 19.904313 19.809057 19.814453 19.935547 C 19.281953 20.835057 20.396166 21.738663 21.035156 21.007812 C 21.567636 20.445622 21.411912 20.105319 20.826172 19.824219 C 20.639806 19.750434 20.453137 19.718972 20.289062 19.726562 z M 6.9453125 19.878906 L 6.9453125 19.880859 C 6.0854865 19.895759 2.6373183 20.377125 1.7695312 20.171875 C 0.49357225 19.870065 1.4802974e-16 20 0 20.5 C 0 21 0.19614575 20.832492 0.38671875 20.914062 C 0.98229375 21.168982 1.8256496 20.959216 3.5097656 20.916016 C 5.5538326 20.851316 7.2902598 20.195278 7.3085938 20.023438 C 7.3199438 19.913557 7.1861105 19.874746 6.9453125 19.878906 z M 18.480469 20.839844 C 18.424374 20.842157 18.35151 20.864724 18.263672 20.908203 C 18.084242 20.981303 18.02904 21.177803 18.03125 21.289062 C 18.03325 21.386463 17.87433 21.590566 17.75 21.634766 C 17.61201 21.693166 17.382186 21.772502 17.259766 21.914062 C 16.987666 22.225542 16.468502 22.406293 16.226562 22.132812 C 16.041363 21.913863 15.591576 22.091495 15.416016 22.359375 C 15.404604 22.376384 15.397937 22.395158 15.398438 22.414062 C 14.666195 22.660887 12.892547 23.595002 12.71875 23.873047 C 12.63556 24.073137 14.752538 22.967874 15.302734 22.802734 C 15.44334 22.760536 15.577036 22.722119 15.693359 22.681641 C 15.757769 22.707023 15.823476 22.7218 15.878906 22.720703 C 15.934606 22.719703 16.187613 22.785394 16.408203 22.683594 C 16.615173 22.595994 16.864044 22.507239 16.933594 22.505859 C 17.211204 22.472559 17.909824 22.000614 18.277344 21.589844 C 18.664801 21.175201 18.723545 20.829819 18.480469 20.839844 z M 21.320312 20.871094 C 21.301573 20.87284 21.285174 20.878239 21.273438 20.888672 C 21.239438 20.922672 21.133655 20.977137 21.140625 21.123047 C 21.162125 21.573367 21.466042 22.457523 21.826172 22.751953 C 21.879972 22.795953 21.902572 23.202354 21.888672 23.365234 C 21.839072 23.947244 21.892474 24.1182 21.990234 24.21875 C 22.212794 24.33003 22.360089 24.198768 22.318359 23.767578 C 22.276559 23.419808 22.302763 23.295684 22.414062 23.365234 C 22.497463 23.420834 22.568359 23.587214 22.568359 23.740234 C 22.568359 23.879344 22.637521 24.003906 22.707031 24.003906 C 22.790431 24.003906 22.845703 24.130183 22.845703 24.283203 C 22.943303 24.628583 22.900852 25.164607 23.388672 25.117188 C 23.447659 25.117188 23.507301 25.09105 23.560547 25.046875 L 24.595703 26.367188 C 25.129138 27.047497 26.040655 27.403269 25.904297 27.130859 C 25.800727 26.912359 25.43266 26.721186 24.763672 25.878906 C 24.527572 25.612366 24.153352 25.151621 23.927734 24.894531 C 23.850355 24.804547 23.788768 24.735587 23.736328 24.681641 C 23.753628 24.508648 23.709164 24.299528 23.558594 24.082031 C 23.280374 23.664711 23.103554 23.560471 23.214844 23.337891 C 23.367864 23.045771 23.11085 22.715781 22.84375 22.675781 C 22.69511 22.641381 22.289063 22.446903 22.289062 22.126953 C 22.289062 22.057453 22.164967 21.904011 21.998047 21.806641 C 21.845027 21.709241 21.876427 21.474333 21.904297 21.376953 C 21.967372 21.213067 21.501457 20.854218 21.320312 20.871094 z M 19.769531 21.099609 C 19.73641 21.102342 19.702669 21.109739 19.667969 21.121094 C 19.588769 21.146994 19.595627 21.325589 19.498047 21.474609 C 19.387187 21.627959 19.206439 21.788771 19.074219 21.832031 C 18.930865 21.878952 18.867466 22.085122 18.884766 22.449219 C 18.789069 22.525488 18.727753 22.626979 18.623047 22.708984 C 18.506747 23.056584 18.228599 23.270286 18.136719 23.253906 C 18.059419 23.235406 17.859316 23.397644 17.697266 23.615234 C 17.535236 23.832824 17.368947 24.020747 17.310547 24.029297 C 17.257572 24.037447 17.165474 24.185826 17.105469 24.375 C 17.033628 24.411859 16.954897 24.467315 16.871094 24.537109 C 16.341951 24.977749 15.123505 26.486173 15.0625 26.845703 C 15.054 27.092223 16.485533 25.334245 16.894531 25.015625 C 17.081602 24.869903 17.259202 24.738569 17.347656 24.615234 C 17.37366 24.590861 17.400381 24.564661 17.429688 24.535156 C 17.573217 24.394836 17.776706 24.261054 17.878906 24.246094 C 17.995716 24.228994 18.133456 23.899141 18.285156 23.712891 C 18.436866 23.526641 18.714206 23.526679 18.816406 23.511719 C 18.918586 23.496719 18.997008 23.424553 18.986328 23.351562 C 18.975128 23.278562 19.326259 23.291899 19.480469 23.224609 C 19.498052 23.217376 19.513356 23.206539 19.527344 23.195312 C 19.628416 23.160931 19.675958 23.032813 19.599609 22.787109 L 19.597656 22.777344 C 19.588658 22.739776 19.576331 22.702522 19.5625 22.666016 L 19.521484 22.535156 C 19.433784 22.252736 19.630503 22.410482 19.820312 22.201172 C 19.996153 22.007272 19.915598 21.929728 19.992188 21.736328 C 20.174144 21.276629 20.001381 21.080478 19.769531 21.099609 z M 20.908203 21.324219 C 20.056493 21.318219 20.281534 21.529826 20.371094 21.822266 C 20.417594 21.974146 20.633348 22.237164 20.548828 22.402344 C 20.233198 22.846674 20.451807 23.038525 20.341797 23.421875 C 20.286097 23.853115 20.216662 23.726562 19.882812 23.726562 C 19.493312 23.726562 19.228116 24.243474 19.478516 24.396484 C 19.561916 24.452084 19.617188 24.409344 19.617188 24.339844 C 19.617188 24.256344 19.714912 24.1875 19.826172 24.1875 C 20.076562 24.1875 20.076562 24.131769 19.826172 25.105469 C 19.751846 25.40271 19.719338 25.641143 19.712891 25.78125 C 19.662762 25.889435 19.604261 26.035141 19.53125 26.228516 C 19.320619 26.787616 18.74566 28.625771 18.845703 28.738281 C 19.063154 28.982831 19.263309 28.640239 19.8125 26.755859 C 20.000148 26.373952 20.068357 26.083982 20.0625 25.894531 C 20.201828 25.817571 20.334929 25.660579 20.365234 25.396484 C 20.436634 25.122774 20.716311 24.975589 20.744141 24.349609 C 20.771841 23.807089 21.080344 23.587604 21.177734 23.490234 C 21.261134 23.406734 21.265853 22.614186 21.251953 22.447266 C 21.242953 22.035996 21.125103 21.338179 20.908203 21.324219 z M 22.488281 21.330078 C 22.385368 21.330843 22.31099 21.351392 22.289062 21.398438 C 22.186792 21.644897 22.363266 21.850296 22.634766 21.941406 C 22.762266 21.984206 22.973852 21.990268 22.951172 22.080078 C 22.923972 22.187808 22.860869 22.514111 23.042969 22.363281 C 23.186594 22.2443 23.363582 22.21422 23.544922 22.222656 C 23.822544 22.317204 24.406862 22.563042 24.335938 22.84375 C 24.310037 22.9909 24.466843 23.158048 24.914062 23.173828 C 25.016427 23.199691 25.141966 23.168925 25.248047 23.115234 L 26.529297 23.929688 C 27.258724 24.393708 28.236815 24.426344 28.017578 24.214844 C 27.847198 24.043264 27.436544 23.985712 26.525391 23.414062 C 26.236486 23.253735 25.785272 22.979565 25.482422 22.806641 C 25.488736 22.659137 25.429084 22.484807 25.210938 22.429688 C 24.986197 22.372888 24.869753 22.196436 24.757812 22.134766 C 24.67635 22.070453 24.47706 21.955619 24.302734 21.923828 C 24.302095 21.923712 24.30142 21.923942 24.300781 21.923828 C 24.131544 21.798988 23.88186 21.67244 23.601562 21.564453 C 23.369775 21.491553 22.797022 21.327783 22.488281 21.330078 z M 1.4277344 22.726562 C 1.3888801 22.727641 1.3511374 22.731428 1.3144531 22.736328 L 1.3144531 22.734375 C 0.87424712 22.793075 0.61333175 23.109251 0.99609375 23.337891 C 1.2555938 23.532231 1.2090051 23.767203 0.83007812 24.064453 C 0.072408125 24.658993 0.36735825 24.803512 2.0507812 24.669922 C 3.4637633 24.527452 5.0476833 24.140531 5.3164062 23.644531 C 5.4399882 23.492461 5.9393358 23.552041 5.9179688 23.269531 C 5.8914188 22.918791 5.7026296 22.905178 5.2285156 22.798828 C 4.7614606 22.693978 4.2340323 22.972734 3.7382812 23.115234 C 2.9310602 23.324114 2.054274 22.852001 1.796875 22.775391 C 1.669516 22.738041 1.5442972 22.723328 1.4277344 22.726562 z M 37.496094 22.998047 C 37.408713 22.996448 37.29606 23.076334 37.166016 23.271484 L 36.970703 23.564453 C 36.750873 23.893513 36.64214 23.356067 36.382812 23.373047 C 36.1802 23.386847 36.013276 23.297226 35.851562 23.197266 C 35.422705 23.089616 33.903 24.552876 34.728516 24.628906 C 35.554033 24.704906 37.067117 24.582397 37.431641 24.716797 C 37.796165 24.851217 38.463685 24.625006 38.501953 24.753906 C 38.529603 24.865776 38.803047 24.992647 39.107422 25.029297 C 39.411805 25.066097 39.691823 25.130086 39.734375 25.197266 C 39.776895 25.264366 40.013166 25.262969 40.255859 25.167969 C 40.751879 24.994909 40.907969 23.885764 40.341797 23.708984 C 40.12256 23.636084 39.770892 24.103061 39.636719 24.113281 C 39.503916 24.122281 39.123656 24.256814 38.855469 24.208984 C 38.587281 24.161184 38.426025 23.812893 38.351562 23.695312 C 38.277053 23.577713 38.161534 23.533506 38.097656 23.603516 C 38.033756 23.673416 37.838918 23.222928 37.683594 23.080078 C 37.650354 23.048078 37.613248 23.030291 37.574219 23.025391 C 37.550761 23.008516 37.525221 22.99858 37.496094 22.998047 z M 21.40625 24.216797 C 21.262418 24.217093 21.120242 24.569855 21.177734 24.837891 C 21.226834 25.005421 21.076439 25.431071 21.230469 25.644531 C 21.339516 25.783706 21.488911 25.854123 21.628906 25.857422 C 21.634515 25.904731 21.64282 25.952948 21.652344 26.005859 C 21.7794 26.711649 22.410409 28.594108 22.636719 28.835938 C 22.802902 28.971788 22.071394 26.768505 21.988281 26.234375 C 21.960809 26.057823 21.936399 25.889965 21.904297 25.755859 C 22.008554 25.656903 22.062617 25.485851 22.013672 25.244141 C 21.948572 24.888891 21.556973 24.355537 21.501953 24.279297 C 21.471006 24.236414 21.439442 24.216729 21.40625 24.216797 z M 6.9238281 24.984375 C 6.3969941 24.984375 5.6053523 25.222886 5.1914062 25.541016 C 4.7398312 25.832676 4.176057 26.123881 3.875 26.150391 C 3.573962 26.176891 2.8964973 26.388599 2.3320312 26.574219 C 1.2407283 26.945369 0.8639215 27.900391 1.8046875 27.900391 C 2.1057445 27.900391 2.5949068 27.981047 2.9335938 28.060547 C 3.3851508 28.166677 3.5371094 28.059769 3.5371094 27.662109 C 3.5371094 27.343939 3.761445 27.105469 4.0625 27.105469 C 4.363539 27.105469 5.3429407 26.628192 6.2460938 26.044922 C 7.7889717 25.037462 7.8269791 25.010875 6.9238281 24.984375 z M 35.875 25.705078 C 35.766252 25.708856 35.661419 25.734574 35.566406 25.787109 C 35.041363 26.077439 35.575806 26.655473 36.007812 27.064453 C 36.726366 27.744793 37.22317 28.064061 38.439453 28.394531 C 39.531435 28.714261 40.483694 26.793538 39.482422 26.335938 C 38.985173 26.133218 38.668715 26.377841 38.414062 26.369141 C 38.166187 26.412641 37.303816 26.560371 37.09375 26.337891 C 36.897691 26.070221 36.346243 25.688708 35.875 25.705078 z M 33.148438 26.582031 C 33.071693 26.58613 33.030316 26.625109 33.042969 26.710938 C 33.061489 26.836468 33.311033 27.535311 33.267578 27.681641 C 33.209698 27.876751 33.303877 27.9317 33.625 27.90625 C 33.881894 27.88585 34.088908 27.964234 34.107422 28.089844 C 34.125912 28.215394 34.539907 28.803228 35.066406 29.142578 C 35.974761 29.721578 36.03021 29.526078 35.996094 29.148438 C 35.963694 28.928718 35.721795 28.615171 35.439453 28.462891 L 35.439453 28.460938 C 35.176206 28.291268 34.907104 28.075022 34.867188 27.951172 C 34.827278 27.827312 34.614245 27.557514 34.429688 27.333984 C 34.143121 26.996969 33.422524 26.567393 33.148438 26.582031 z M 7.3105469 27.505859 C 7.1568549 27.510859 6.7500968 27.564243 6.6054688 27.720703 C 6.4432897 27.880643 6.2641891 28.023501 6.1582031 28.150391 C 5.8440281 28.526541 5.8166072 28.784741 5.4726562 28.962891 C 5.1246633 29.243881 4.6728756 29.450465 4.5566406 29.421875 C 4.4594806 29.392475 4.1815675 29.552907 3.9453125 29.779297 C 3.7090475 30.005687 3.4708132 30.198032 3.3945312 30.201172 C 3.3182313 30.205172 3.1565485 30.395263 3.0546875 30.632812 C 2.8318915 31.108712 3.1801565 31.404393 3.6953125 31.033203 C 3.8979215 30.891533 4.1310289 30.732994 4.2167969 30.621094 C 4.3016969 30.510274 4.4704741 30.145475 4.6894531 29.953125 C 4.9084401 29.760795 5.2629854 29.792579 5.3964844 29.787109 C 5.5299874 29.781109 5.6431609 29.710143 5.6386719 29.626953 C 5.6340719 29.543753 6.0819785 29.595509 6.2890625 29.537109 C 6.3343525 29.525309 6.3719757 29.503509 6.4023438 29.474609 C 6.5142857 29.430609 6.5745299 29.293006 6.5136719 29.035156 L 6.4453125 28.744141 C 6.3681725 28.417261 7.1250451 28.975339 7.4550781 28.693359 C 7.7205881 28.466499 8.0858351 28.285019 8.4550781 28.099609 C 8.8782061 27.887119 8.1499729 27.477759 7.3105469 27.505859 z M 31.017578 28.5625 C 30.899578 28.557431 30.815663 28.604929 30.783203 28.732422 C 30.528068 29.734512 32.272149 30.077603 32.896484 30.939453 C 33.600724 31.911613 34.10097 33.109204 34.480469 33.396484 C 35.296627 33.979704 35.249589 34.887196 36.060547 33.791016 C 36.730365 32.885606 36.315412 32.950579 35.65625 32.105469 C 35.228918 31.505089 34.595567 31.076545 34.568359 30.640625 C 34.546649 30.292695 33.697683 28.991636 33.140625 29.322266 C 32.688016 29.590911 31.528911 28.584464 31.017578 28.5625 z M 37.107422 29.232422 C 37.040217 29.235102 36.967922 29.310852 36.871094 29.498047 C 36.712231 29.805117 36.266627 30.338143 36.400391 30.501953 C 36.534156 30.665753 37.34512 31.435893 37.705078 31.470703 C 37.915217 31.491103 38.492946 30.48388 38.537109 30.34375 C 38.721193 29.75315 38.069914 30.091296 37.785156 29.916016 C 37.410253 29.685225 37.279169 29.225573 37.107422 29.232422 z M 8.5742188 30.558594 C 7.9808025 30.565703 6.7197729 31.675479 6.5566406 31.580078 C 6.3680706 31.442318 5.9645045 31.333984 5.6953125 31.333984 C 5.3991485 31.333984 5.4274181 32.423751 5.1582031 32.175781 C 4.9428311 31.955351 4.7082256 32.23683 4.4316406 32.71875 C 4.1550586 33.20076 4.9379376 33.647644 5.4628906 33.496094 C 5.9878456 33.344554 5.9094631 32.299568 6.1269531 32.517578 C 6.5307541 33.041078 6.769745 32.617583 7.28125 32.314453 C 7.577408 32.121573 8.3368267 31.332934 8.6367188 31.708984 C 8.9853117 32.158254 8.0750522 33.701514 7.3164062 34.027344 C 6.4612622 34.445504 7.1651878 36.212322 7.6992188 36.285156 C 7.9807227 36.252406 8.3359375 35.774699 8.3359375 35.609375 C 8.3359375 35.416503 8.5766268 34.748402 8.9804688 34.445312 C 9.2244468 34.258043 9.0337369 33.868546 9.0292969 33.478516 C 9.0252969 33.124666 9.9514636 32.39809 10.041016 31.96875 C 10.148806 31.45199 9.150961 30.82857 8.734375 30.59375 C 8.6892375 30.568307 8.6356066 30.557858 8.5742188 30.558594 z M 29.912109 30.572266 C 29.496105 30.538147 30.421067 32.415478 30.992188 32.542969 C 31.513288 32.659289 31.591781 33.701834 31.666016 33.865234 C 31.760796 34.045284 32.216993 33.802972 32.419922 33.951172 C 32.866777 34.280822 33.013292 35.141435 32.681641 35.505859 C 32.415044 35.786087 32.422422 36.304928 33.238281 36.402344 C 33.436956 36.512786 34.279849 35.519472 34.248047 35.236328 C 34.239547 35.160758 33.90495 34.921526 33.742188 34.634766 C 33.600085 34.364666 33.324884 34.333024 33.228516 34.021484 C 33.149396 33.648304 30.676326 31.095007 30.085938 30.648438 C 30.012343 30.59997 29.955144 30.575795 29.912109 30.572266 z M 28.425781 31.822266 C 28.0051 31.838677 28.276409 33.323852 28.091797 33.953125 C 27.969307 34.370655 29.362718 35.898381 29.638672 36.619141 C 29.979305 37.508788 29.972263 38.517936 30.175781 38.464844 C 30.514442 38.361852 31.913431 37.475809 31.939453 37.185547 C 31.962033 36.936348 31.352503 36.743999 31.099609 36.496094 C 30.803176 36.192922 30.454481 35.889243 30.642578 35.568359 C 30.841018 35.22979 29.600202 32.420648 28.580078 31.867188 C 28.520466 31.834847 28.4693 31.820568 28.425781 31.822266 z M 12.564453 32 C 12.063291 31.970358 11.525904 33.381609 11.279297 33.802734 C 11.01625 34.251924 10.732345 35.243984 10.626953 35.294922 C 10.521549 35.345902 10.145656 35.70587 9.9472656 36.302734 C 9.5241636 37.509181 10.131486 38.844321 10.929688 37.707031 C 11.242548 37.26953 11.260861 36.358679 11.445312 36.269531 C 11.643764 36.173641 12.748509 34.621763 12.853516 33.976562 C 12.948906 33.390473 13.299608 32.325844 12.664062 32.027344 C 12.631061 32.011844 12.597864 32.001976 12.564453 32 z M 15.6875 33.453125 C 15.320388 33.469957 14.977988 33.967185 14.746094 34.171875 C 14.227234 34.629845 13.118486 36.894255 13.402344 37.589844 C 13.592954 38.122495 12.438415 38.560967 12.501953 38.970703 C 12.565473 39.42141 13.84013 39.867318 14.0625 39.990234 C 14.348412 40.113093 14.668091 39.934818 14.541016 39.238281 C 14.413979 38.541741 14.633385 38.075621 15.078125 37.542969 C 15.427393 37.130029 16.316389 33.89191 16.060547 33.625 C 15.935929 33.494995 15.809871 33.447514 15.6875 33.453125 z M 24.480469 33.986328 C 24.450743 33.988838 24.419946 33.992395 24.388672 34 C 23.247929 34.27742 24.74965 35.637083 24.740234 36.277344 C 24.729944 36.974579 24.897315 40.218428 25.152344 40.412109 C 25.316925 40.530826 25.663341 40.332184 25.896484 39.580078 C 26.307933 38.194729 26.002825 38.307635 25.728516 37.634766 C 25.550227 37.238941 25.360906 37.13773 25.525391 36.464844 C 25.588534 36.20668 25.401968 33.908509 24.480469 33.986328 z M 20.302734 34.123047 C 19.371781 34.091238 20.236553 37.43373 19.9375 37.705078 C 19.633698 37.980719 19.220933 37.841933 19.279297 38.5625 C 19.311837 38.969679 19.213123 39.806039 18.927734 40.017578 C 18.214259 40.546434 18.5 41 20.5 41 C 21.75 41 22.062002 40.28552 21.273438 39.716797 C 21.026483 39.596366 20.741116 38.880136 21.070312 38.847656 C 21.341569 38.820896 21.618753 38.351286 21.324219 38.023438 C 20.973004 37.6768 21.303682 37.344973 21.710938 36.982422 C 21.854813 36.880684 21.398565 35.182114 21.171875 35.150391 C 20.945188 35.118641 20.68453 34.124193 20.347656 34.126953 C 20.331962 34.124723 20.317511 34.123552 20.302734 34.123047 z M 26.287109 34.126953 C 26.220813 34.135228 26.165641 34.183684 26.126953 34.279297 C 25.972496 34.640317 26.888087 37.449897 27.166016 37.820312 C 27.411309 38.147154 27.620284 38.731482 27.615234 39.117188 C 27.622634 39.824664 27.673402 39.845866 28.259766 39.537109 C 29.114514 39.062709 29.131879 38.99976 28.654297 38.625 C 28.440027 38.470317 28.277982 38.080815 28.298828 37.759766 C 28.336108 37.46052 28.240639 37.200362 28.091797 37.132812 C 27.959288 37.087072 27.828823 36.827633 27.816406 36.505859 C 27.780356 35.923678 26.751182 34.06903 26.287109 34.126953 z M 17.826172 34.648438 C 17.569298 34.639353 17.044398 35.548788 16.955078 35.75 C 16.762177 36.184526 16.491404 37.141463 16.113281 38.644531 C 15.927122 39.384713 16.08728 39.850523 16.1875 40.269531 C 16.26007 40.572943 16.820909 40.668716 16.96875 40.449219 C 17.233887 40.05554 17.754895 39.283487 17.972656 37.914062 C 18.087535 37.161977 18.065777 35.154591 17.935547 34.759766 C 17.910797 34.684741 17.873741 34.65012 17.826172 34.648438 z M 23.3125 36.113281 C 23.147088 36.111044 22.98579 36.309788 22.957031 36.541016 C 22.937764 36.678993 22.926776 36.645461 22.923828 36.623047 C 22.927509 36.661661 22.94304 36.872403 22.958984 37.720703 C 22.991584 38.304797 23.017465 39.282448 23.046875 39.84375 C 23.081485 40.602438 23.106321 40.757426 23.302734 40.748047 L 23.302734 40.75 C 23.330794 40.7487 23.364851 40.743088 23.400391 40.736328 C 23.555286 40.706428 23.890352 40.509453 23.884766 40.125 L 23.703125 37.130859 C 23.692128 36.375156 23.499967 36.115817 23.3125 36.113281 z " />
</svg>
