<?xml version="1.0" encoding="UTF-8" standalone="no"?>
<!-- Created with Inkscape (http://www.inkscape.org/) -->

<svg
   width="41"
   height="41"
   id="svg2"
   version="1.1"
   xmlns="http://www.w3.org/2000/svg"
   xmlns:svg="http://www.w3.org/2000/svg"
   xmlns:rdf="http://www.w3.org/1999/02/22-rdf-syntax-ns#"
   xmlns:cc="http://creativecommons.org/ns#"
   xmlns:dc="http://purl.org/dc/elements/1.1/">
  <defs
     id="defs4" />
  <metadata
     id="metadata7">
    <rdf:RDF>
      <cc:Work
         rdf:about="">
        <dc:format>image/svg+xml</dc:format>
        <dc:type
           rdf:resource="http://purl.org/dc/dcmitype/StillImage" />
      </cc:Work>
    </rdf:RDF>
  </metadata>
  <path
     id="path1384"
     style="fill:#000000"
     d="M 20.5 0 C 20 0 20.268766 0.55113561 20.160156 1.0722656 C 20.010236 1.7915457 19.905334 2.4872468 19.871094 2.9042969 C 19.640074 6.8910572 20.731426 7.1368345 20.628906 5.3964844 C 20.665306 4.0480043 20.976132 2.0496201 21.101562 0.78125 C 21.141263 0.38104997 20.91767 0 20.5 0 z M 17.994141 0.1484375 C 17.772768 0.1521905 17.556534 0.3365781 17.466797 0.68945312 C 17.283057 1.8485932 16.474267 0.57617188 15.992188 0.57617188 C 15.113046 0.57617188 16.492272 1.8981037 16.794922 2.4960938 C 17.277032 3.3046238 16.623026 3.7048869 16.441406 3.9980469 C 16.350106 4.0727469 16.634321 5.0917581 16.769531 5.3300781 C 16.992181 5.7226382 17.323728 5.9978875 17.611328 5.6484375 C 18.088728 5.0684375 17.513098 3.49238 17.751953 2.8125 C 18.002763 2.1056999 18.742475 1.191475 18.515625 0.578125 C 18.403955 0.30977498 18.222983 0.16726064 18.039062 0.15039062 C 18.024283 0.14904063 18.008901 0.1481875 17.994141 0.1484375 z M 24.632812 0.47265625 C 24.600783 0.47349221 24.567872 0.47615662 24.53125 0.47851562 C 23.9453 0.51631563 23.616624 0.80352126 23.058594 1.3320312 C 22.333134 2.0870713 22.262803 3.2932855 22.345703 4.3847656 C 22.370103 5.3717557 22.715286 6.6467807 22.941406 5.7753906 C 23.523436 3.5324405 23.991066 1.4914238 24.447266 1.1210938 C 25.075063 0.62558741 25.113304 0.46011641 24.632812 0.47265625 z M 13.855469 1.125 C 13.813389 1.12776 13.769139 1.1356536 13.720703 1.1503906 C 13.315653 1.2884406 14.222538 3.6288174 14.892578 5.0859375 C 15.150738 5.6473575 15.095868 6.5012618 15.642578 6.8574219 C 16.337728 7.3102919 15.134428 4.4396107 14.580078 2.9003906 C 14.433397 2.3242589 14.486697 1.083615 13.855469 1.125 z M 27.447266 1.2832031 C 27.185959 1.2745531 26.904529 1.3991037 26.847656 1.5546875 C 26.885056 1.8299775 26.015217 3.1146119 25.804688 3.2949219 C 25.383616 3.6555419 24.265676 6.4056775 24.697266 6.5546875 C 25.057166 6.7371875 25.180237 5.8263082 25.591797 5.3925781 C 26.314277 4.6311681 27.279528 3.5440132 27.455078 2.9082031 C 28.263309 1.682303 27.882764 1.2976261 27.447266 1.2832031 z M 11.617188 2.0820312 C 11.558787 2.0860313 11.496947 2.0986406 11.429688 2.1191406 C 10.867667 2.3122306 11.492138 5.244953 12.464844 6.5332031 C 12.662874 6.7954831 13.13223 6.9031547 13.28125 6.6152344 C 13.41842 6.3502351 12.7449 4.9059025 12.625 4.5703125 C 12.42131 3.7638924 12.493767 2.0241212 11.617188 2.0820312 z M 30.365234 2.6386719 C 30.1982 2.6380821 30.053633 2.6808049 30.011719 2.7753906 C 29.899939 3.0276206 29.595274 3.3648844 29.302734 3.6152344 C 28.986924 3.8463644 28.769049 4.1986036 28.787109 4.3710938 C 28.805109 4.5435637 27.888933 5.7722694 27.689453 6.0996094 C 27.503663 6.7861594 28.722324 6.1991524 29.052734 5.6328125 C 29.573254 4.9211024 31.044863 3.3413007 31.001953 2.9316406 C 30.983643 2.7564594 30.643625 2.6396549 30.365234 2.6386719 z M 8.7421875 3.6914062 C 8.4577375 3.7631062 8.3511213 4.4160281 8.4257812 4.8925781 C 8.5003813 5.3691382 9.2424775 5.3131475 9.0859375 5.6171875 C 8.7141775 6.3393476 8.4294156 6.4918706 9.5097656 6.6503906 C 10.198056 6.7579306 10.940966 8.1192619 11.066406 8.4199219 C 12.412556 9.512132 13.380699 9.1012187 12.824219 8.5742188 C 12.185689 7.9694986 11.658302 7.8727657 11.294922 7.3535156 C 10.134872 5.6958655 8.9587875 3.6367962 8.7421875 3.6914062 z M 33.341797 4.59375 C 33.270847 4.5964 33.183468 4.6041866 33.078125 4.6191406 C 32.726975 4.6689406 32.225705 4.9284643 31.640625 5.4277344 C 31.376405 5.4277344 30.885765 6.7994524 30.359375 7.6015625 C 29.836955 8.3976126 29.278262 8.8495687 29.294922 9.0742188 C 29.325922 9.4919687 30.067351 8.8500575 30.900391 8.5859375 C 31.222141 8.4844875 31.264747 7.625815 31.560547 7.296875 C 32.415667 6.3460149 32.811245 6.1820182 33.140625 5.6113281 C 33.542215 4.8667206 33.838482 4.5751992 33.341797 4.59375 z M 6.2597656 5.9199219 C 6.1573056 5.9145919 6.0266656 6.02692 5.7910156 6.25 C 5.1119256 6.91751 5.1139022 6.9708681 5.7011719 7.0488281 C 5.9602919 7.0743281 6.244145 7.2851412 6.328125 7.5195312 C 6.389125 7.7449214 6.567325 7.8893264 6.734375 7.8789062 C 6.878415 7.8596062 7.2205306 7.98084 7.5878906 8.15625 C 8.2581606 8.40819 9.1870244 9.6929132 9.2402344 9.0332031 C 9.2735344 8.7185331 7.8034394 7.1878663 7.4121094 7.0351562 C 7.0668097 6.9004463 6.6750675 6.570675 6.5546875 6.296875 C 6.4361775 6.049005 6.3622256 5.9252494 6.2597656 5.9199219 z M 35.775391 7.0214844 C 35.757291 7.0205645 35.738753 7.021657 35.720703 7.0234375 C 35.504104 7.0448045 35.287973 7.2457819 35.015625 7.4824219 C 34.683615 7.7558919 34.413138 7.8394794 34.173828 7.7246094 C 33.913628 7.5678394 33.830233 7.6115312 33.851562 7.8632812 C 33.872662 8.0101013 33.706946 8.2512875 33.478516 8.3671875 C 33.270866 8.4724975 30.768536 10.711099 31.222656 11.136719 C 31.486446 11.383969 33.694441 9.6205531 34.462891 9.2832031 C 35.366381 8.9036031 36.161635 8.0333375 36.390625 8.1796875 C 36.661265 8.3573975 36.752907 8.0966385 36.617188 7.8242188 C 36.512906 7.6671186 36.236023 7.2197894 35.939453 7.0683594 C 35.883848 7.0399659 35.829691 7.0242441 35.775391 7.0214844 z M 4.6992188 8.1523438 C 3.7654136 8.154488 3.9732456 8.7246625 4.3105469 8.96875 C 5.0365869 9.49413 5.5869544 9.8347235 6.1777344 10.402344 C 6.3006944 10.520554 6.635925 10.577346 6.828125 10.753906 C 7.020315 10.930486 7.25643 11.134414 7.40625 11.083984 C 7.55604 11.033584 7.8980075 11.118093 8.2109375 11.242188 C 8.6359475 11.435337 9.0891931 11.723044 9.2519531 11.490234 C 9.5455231 11.063154 8.974785 10.482729 8.421875 10.443359 C 7.665255 10.389459 6.3667756 10.034228 6.3847656 9.6796875 C 6.3312656 9.3788675 5.7251269 8.8066156 5.3730469 8.8222656 C 5.0536569 8.6524156 5.2158838 8.1830531 4.9023438 8.1582031 C 4.8296487 8.1530331 4.7614724 8.1522031 4.6992188 8.1523438 z M 37.503906 9.4550781 C 37.436236 9.4512681 37.415986 9.5735406 37.392578 9.8222656 C 37.367778 10.085586 37.117054 10.442224 36.833984 10.558594 C 36.548174 10.704214 35.839607 11.009467 35.273438 11.242188 C 34.677647 11.501197 32.518504 12.738365 32.558594 12.890625 C 32.673314 13.405945 33.900136 13.046829 34.378906 12.730469 C 34.857676 12.414129 37.050704 12.383961 37.427734 12.425781 C 37.804754 12.467581 38.071561 11.878179 38.300781 11.755859 C 38.672901 11.560699 38.679981 11.473095 38.378906 11.203125 C 38.204176 11.035845 38.118341 10.789654 38.212891 10.652344 C 38.307591 10.515084 38.179741 10.145819 37.908203 9.8496094 C 37.687873 9.5886244 37.571578 9.4588881 37.503906 9.4550781 z M 2.8808594 10.423828 C 2.7669047 10.430128 2.6807659 10.466498 2.6425781 10.544922 C 2.2243501 11.403772 2.9635117 11.125186 4.2304688 12.035156 C 5.0255887 12.666426 5.870915 13.333804 5.890625 13.708984 C 5.900625 13.893604 6.048215 14.180497 6.140625 14.023438 C 6.442045 13.511017 7.1696594 13.794014 7.0058594 13.257812 C 6.8223394 12.657052 5.2946214 12.211566 4.0820312 10.947266 C 3.8122427 10.665963 3.2227234 10.404992 2.8808594 10.423828 z M 39.099609 13.351562 C 39.076959 13.352042 39.05436 13.353722 39.03125 13.357422 C 38.29174 13.475812 38.413894 14.862085 37.365234 14.515625 C 36.150054 14.111945 35.774966 14.261482 35.197266 14.357422 C 34.638316 14.340222 32.979741 14.928903 33.082031 15.408203 C 33.215611 16.034083 35.049444 15.455063 35.927734 15.791016 C 37.050224 16.220416 38.739729 16.210946 39.886719 15.191406 C 40.273502 14.827088 39.801789 13.336722 39.099609 13.351562 z M 2.1796875 13.615234 C 1.9104579 13.620334 1.6996722 13.730408 1.703125 13.947266 C 1.712025 14.103826 1.499043 14.332849 1.21875 14.449219 C 0.95760801 14.572599 0.75215036 14.781561 0.78710938 14.925781 C 0.82734938 15.115731 0.97527615 15.191642 1.1894531 15.138672 C 1.3844681 15.078572 1.7567194 15.12805 2.0058594 15.21875 C 2.4658074 15.38722 2.4649501 15.386621 2.2050781 14.962891 C 1.9696221 14.591911 2.0149144 14.587261 2.8964844 14.910156 C 3.4069824 15.119036 4.2864325 15.56802 4.5703125 15.5625 C 5.0544725 15.5426 4.8618269 15.235314 4.6855469 14.820312 C 4.5389669 14.503785 4.343194 14.388147 3.96875 14.404297 C 3.646525 14.395297 3.3467311 14.263244 3.0957031 13.996094 C 2.8660097 13.737433 2.4848144 13.609463 2.1796875 13.615234 z M 0.75976562 16.792969 C 0.37068049 16.808259 0.25361625 17.160026 0.35546875 17.570312 C 0.45032875 17.860363 1.0877253 17.853385 1.7695312 18.078125 C 2.6780904 18.245265 3.4143746 18.695618 4.1503906 18.267578 C 4.7854606 17.992338 5.8887706 18.069159 6.0878906 17.949219 C 6.4560406 17.722049 6.0627167 16.991909 5.9414062 16.886719 C 5.4172262 16.698039 3.9385906 17.816486 3.6035156 17.597656 C 3.3293506 17.418586 3.0230755 17.313344 2.8828125 17.365234 C 2.7425485 17.417134 2.2319359 17.3258 1.7636719 17.1875 C 1.3243515 16.895045 0.99321671 16.783793 0.75976562 16.792969 z M 37.550781 17.085938 C 36.826223 17.089938 36.095703 17.187383 36.095703 17.3125 C 36.095703 17.53503 35.65256 17.474609 35.53125 17.474609 C 35.43415 17.474609 35.281939 17.498139 34.917969 17.720703 C 34.408409 18.038613 33.639052 18.73193 33.857422 18.875 C 34.051552 19.00216 35.030263 19.150838 35.345703 18.896484 C 35.903783 18.419604 36.537531 18.970703 37.556641 18.970703 C 38.017661 18.970703 38.644901 18.149244 38.863281 18.101562 C 39.178721 18.022063 39.177857 17.466131 38.886719 17.275391 C 38.6744 17.136296 38.114326 17.082812 37.550781 17.085938 z M 40.158203 18.6875 C 39.898803 18.6825 39.658228 19.414795 39.736328 19.890625 C 39.814428 20.366455 38.789802 20.414913 38.013672 20.345703 C 37.699332 20.301103 36.910123 20.650332 36.507812 20.857422 C 36.255783 20.928522 35.701265 20.27541 35.578125 20.4375 C 35.372235 20.7084 34.540896 21.603523 34.541016 21.908203 C 34.529916 22.015033 35.853074 22.137131 35.964844 22.212891 C 36.232614 22.394411 36.780529 22.087097 37.074219 22.085938 C 37.869419 22.094938 37.978042 21.935072 38.419922 21.638672 C 39.018622 21.319352 39.854962 22.503918 40.607422 22.085938 C 41.026152 21.732237 41 21 41 20.5 C 41 19.75 40.783788 19.335911 40.611328 18.957031 C 40.478508 18.810031 40.417613 18.69264 40.158203 18.6875 z M 6.9433594 19.878906 L 6.9433594 19.880859 C 6.0835394 19.895759 2.6353651 20.377125 1.7675781 20.171875 C 0.49161915 19.870018 0 20 0 20.5 C 0 21 0.19614575 20.832492 0.38671875 20.914062 C 0.98229375 21.168983 1.8236965 20.959166 3.5078125 20.916016 C 5.5518725 20.851316 7.2902636 20.195278 7.3085938 20.023438 C 7.3199938 19.913556 7.1841594 19.874746 6.9433594 19.878906 z M 1.4277344 22.726562 C 1.3888804 22.727663 1.3491844 22.731428 1.3125 22.736328 L 1.3125 22.734375 C 0.87229401 22.793075 0.61333175 23.109251 0.99609375 23.337891 C 1.2555937 23.532231 1.2090051 23.767203 0.83007812 24.064453 C 0.072408125 24.658993 0.36540516 24.803512 2.0488281 24.669922 C 3.4618101 24.527452 5.0476763 24.140531 5.3164062 23.644531 C 5.4399863 23.492461 5.9393388 23.552041 5.9179688 23.269531 C 5.8913687 22.918791 5.7026356 22.905178 5.2285156 22.798828 C 4.7614656 22.693978 4.2340314 22.972734 3.7382812 23.115234 C 2.9310602 23.324114 2.054274 22.852001 1.796875 22.775391 C 1.669516 22.738041 1.5442972 22.723332 1.4277344 22.726562 z M 37.496094 22.998047 C 37.408714 22.996447 37.296058 23.076337 37.166016 23.271484 L 36.970703 23.564453 C 36.750873 23.893513 36.642143 23.356067 36.382812 23.373047 C 36.180203 23.386847 36.013284 23.297227 35.851562 23.197266 C 35.422713 23.089616 33.902996 24.552876 34.728516 24.628906 C 35.554036 24.704906 37.067111 24.582397 37.431641 24.716797 C 37.796161 24.851217 38.463683 24.625006 38.501953 24.753906 C 38.529553 24.865776 38.803052 24.992647 39.107422 25.029297 C 39.411802 25.066097 39.689862 25.130086 39.732422 25.197266 C 39.774922 25.264366 40.011216 25.262969 40.253906 25.167969 C 40.749926 24.994909 40.907978 23.885764 40.341797 23.708984 C 40.122557 23.636084 39.768946 24.103061 39.634766 24.113281 C 39.501966 24.122281 39.123649 24.256817 38.855469 24.208984 C 38.587279 24.161184 38.426023 23.812894 38.351562 23.695312 C 38.277062 23.577713 38.159583 23.53351 38.095703 23.603516 C 38.031803 23.673416 37.838924 23.222928 37.683594 23.080078 C 37.650394 23.048078 37.613294 23.030291 37.574219 23.025391 C 37.550769 23.008521 37.525224 22.998577 37.496094 22.998047 z M 6.921875 24.984375 C 6.395045 24.984375 5.6053564 25.222886 5.1914062 25.541016 C 4.7398362 25.832676 4.176054 26.123881 3.875 26.150391 C 3.573962 26.176891 2.8964973 26.388599 2.3320312 26.574219 C 1.2407283 26.945369 0.86392151 27.900391 1.8046875 27.900391 C 2.1057445 27.900391 2.5949066 27.981051 2.9335938 28.060547 C 3.3851508 28.166677 3.5351563 28.059769 3.5351562 27.662109 C 3.5351562 27.343939 3.761447 27.105469 4.0625 27.105469 C 4.36354 27.105469 5.3429337 26.628192 6.2460938 26.044922 C 7.7889637 25.037462 7.825025 25.010875 6.921875 24.984375 z M 35.875 25.705078 C 35.766252 25.708878 35.66142 25.734579 35.566406 25.787109 C 35.041366 26.077439 35.575406 26.655473 36.007812 27.064453 C 36.726363 27.744793 37.223163 28.064061 38.439453 28.394531 C 39.531433 28.714261 40.483692 26.793537 39.482422 26.335938 C 38.985172 26.133216 38.668713 26.377841 38.414062 26.369141 C 38.166193 26.412641 37.301857 26.560371 37.091797 26.337891 C 36.895732 26.070221 36.346243 25.688708 35.875 25.705078 z M 33.148438 26.582031 C 33.071697 26.586131 33.030316 26.62511 33.042969 26.710938 C 33.061469 26.836468 33.311038 27.535311 33.267578 27.681641 C 33.209678 27.876751 33.303868 27.9317 33.625 27.90625 C 33.8819 27.88585 34.088902 27.96423 34.107422 28.089844 C 34.125922 28.215394 34.539906 28.803228 35.066406 29.142578 C 35.974756 29.721578 36.030204 29.526038 35.996094 29.148438 C 35.963694 28.928717 35.721793 28.615171 35.439453 28.462891 L 35.439453 28.460938 C 35.176203 28.291266 34.907097 28.075022 34.867188 27.951172 C 34.827287 27.827312 34.614238 27.557514 34.429688 27.333984 C 34.143116 26.996969 33.422522 26.567393 33.148438 26.582031 z M 7.3105469 27.505859 C 7.1568469 27.510859 6.7500987 27.564239 6.6054688 27.720703 C 6.4432887 27.880643 6.2641831 28.023501 6.1582031 28.150391 C 5.8440231 28.526541 5.8166063 28.784741 5.4726562 28.962891 C 5.1246662 29.243881 4.6709275 29.450465 4.5546875 29.421875 C 4.4574875 29.392475 4.1796104 29.552907 3.9433594 29.779297 C 3.7070944 30.005687 3.4688601 30.198032 3.3925781 30.201172 C 3.3162781 30.205172 3.1545954 30.395263 3.0527344 30.632812 C 2.8299384 31.108714 3.1801565 31.404393 3.6953125 31.033203 C 3.8979215 30.891533 4.1310269 30.732994 4.2167969 30.621094 C 4.3016969 30.510274 4.4704731 30.145475 4.6894531 29.953125 C 4.9084331 29.760795 5.2629844 29.792579 5.3964844 29.787109 C 5.5299944 29.781109 5.6431619 29.710139 5.6386719 29.626953 C 5.6336719 29.543753 6.0819825 29.595509 6.2890625 29.537109 C 6.3343625 29.525309 6.3719935 29.503509 6.4023438 29.474609 C 6.5142837 29.430609 6.5745319 29.293006 6.5136719 29.035156 L 6.4453125 28.744141 C 6.3682125 28.417261 7.1250481 28.975337 7.4550781 28.693359 C 7.7205881 28.466499 8.0858281 28.285019 8.4550781 28.099609 C 8.8781981 27.887119 8.1499669 27.477759 7.3105469 27.505859 z M 30.974609 28.5625 C 30.879053 28.569924 30.811606 28.620866 30.783203 28.732422 C 30.528063 29.734512 32.272144 30.077603 32.896484 30.939453 C 33.600724 31.911613 34.100969 33.109204 34.480469 33.396484 C 35.296629 33.979704 35.247634 34.887196 36.058594 33.791016 C 36.728414 32.885606 36.31541 32.950579 35.65625 32.105469 C 35.22892 31.505089 34.595569 31.076545 34.568359 30.640625 C 34.546659 30.292695 33.697685 28.991636 33.140625 29.322266 C 32.688014 29.590911 31.52891 28.584464 31.017578 28.5625 C 31.002828 28.561863 30.98826 28.561439 30.974609 28.5625 z M 37.107422 29.232422 C 37.040212 29.235122 36.965967 29.310852 36.869141 29.498047 C 36.710271 29.805117 36.266631 30.338143 36.400391 30.501953 C 36.534161 30.665753 37.345118 31.435893 37.705078 31.470703 C 37.915218 31.491103 38.492939 30.48388 38.537109 30.34375 C 38.721189 29.75315 38.069906 30.091296 37.785156 29.916016 C 37.410249 29.685225 37.279167 29.225573 37.107422 29.232422 z M 8.5742188 30.558594 C 7.9808075 30.565694 6.7197747 31.675479 6.5566406 31.580078 C 6.3680706 31.442318 5.9645025 31.333984 5.6953125 31.333984 C 5.3991525 31.333984 5.42546 32.423751 5.15625 32.175781 C 4.94087 31.955351 4.7082306 32.236831 4.4316406 32.71875 C 4.1550606 33.20076 4.9379406 33.647644 5.4628906 33.496094 C 5.9878506 33.344554 5.9075 32.299568 6.125 32.517578 C 6.5288 33.041078 6.76974 32.617583 7.28125 32.314453 C 7.57741 32.121573 8.3368287 31.332934 8.6367188 31.708984 C 8.9853187 32.158254 8.0750464 33.701514 7.3164062 34.027344 C 6.4612562 34.445504 7.1651887 36.212322 7.6992188 36.285156 C 7.9807287 36.252406 8.3359375 35.774699 8.3359375 35.609375 C 8.3359375 35.416503 8.5746756 34.748404 8.9785156 34.445312 C 9.2224956 34.258043 9.0317438 33.868546 9.0273438 33.478516 C 9.0233438 33.124666 9.9514653 32.39809 10.041016 31.96875 C 10.148806 31.45199 9.150965 30.82857 8.734375 30.59375 C 8.689238 30.56831 8.6356059 30.557864 8.5742188 30.558594 z M 29.912109 30.572266 C 29.4961 30.538146 30.42106 32.415477 30.992188 32.542969 C 31.513288 32.659289 31.591786 33.701834 31.666016 33.865234 C 31.760816 34.045284 32.216992 33.802972 32.419922 33.951172 C 32.866772 34.280822 33.013291 35.141435 32.681641 35.505859 C 32.415041 35.786087 32.422421 36.304928 33.238281 36.402344 C 33.436961 36.512786 34.279857 35.519472 34.248047 35.236328 C 34.240047 35.160758 33.904947 34.921526 33.742188 34.634766 C 33.600087 34.364666 33.324886 34.333024 33.228516 34.021484 C 33.149416 33.648304 30.676317 31.095007 30.085938 30.648438 C 30.012338 30.599968 29.955145 30.575796 29.912109 30.572266 z M 28.425781 31.822266 C 28.005102 31.838676 28.276409 33.325805 28.091797 33.955078 C 27.969307 34.372608 29.362722 35.898381 29.638672 36.619141 C 29.979312 37.508788 29.970308 38.517936 30.173828 38.464844 C 30.512488 38.361852 31.913433 37.475809 31.939453 37.185547 C 31.962053 36.936348 31.352499 36.743999 31.099609 36.496094 C 30.803179 36.192922 30.454478 35.889243 30.642578 35.568359 C 30.841018 35.22979 29.598245 32.420648 28.578125 31.867188 C 28.518515 31.834847 28.4693 31.820566 28.425781 31.822266 z M 12.5625 32 C 12.061332 31.97036 11.525906 33.381609 11.279297 33.802734 C 11.016247 34.251924 10.732353 35.243984 10.626953 35.294922 C 10.521553 35.345902 10.145656 35.70587 9.9472656 36.302734 C 9.5241656 37.509181 10.131487 38.844321 10.929688 37.707031 C 11.242548 37.26953 11.260862 36.358679 11.445312 36.269531 C 11.643764 36.173641 12.748506 34.621764 12.853516 33.976562 C 12.948916 33.390473 13.297649 32.325844 12.662109 32.027344 C 12.629109 32.011844 12.59591 32.00197 12.5625 32 z M 15.6875 33.453125 C 15.320388 33.469955 14.977986 33.967185 14.746094 34.171875 C 14.227234 34.629845 13.118484 36.894255 13.402344 37.589844 C 13.592954 38.122495 12.438413 38.560967 12.501953 38.970703 C 12.565453 39.42141 13.84013 39.867318 14.0625 39.990234 C 14.34841 40.113093 14.668096 39.934814 14.541016 39.238281 C 14.413986 38.541741 14.633416 38.075621 15.078125 37.542969 C 15.427395 37.130029 16.314434 33.89191 16.058594 33.625 C 15.933976 33.494995 15.809871 33.447514 15.6875 33.453125 z M 24.480469 33.986328 C 24.450739 33.988828 24.419952 33.99243 24.388672 34 C 23.247932 34.27742 24.749654 35.637083 24.740234 36.277344 C 24.729934 36.974579 24.897314 40.218428 25.152344 40.412109 C 25.316924 40.530826 25.663344 40.332179 25.896484 39.580078 C 26.307934 38.194729 26.002826 38.307635 25.728516 37.634766 C 25.550226 37.238941 25.358957 37.13773 25.523438 36.464844 C 25.586597 36.20668 25.401972 33.908508 24.480469 33.986328 z M 20.259766 34.123047 C 19.397885 34.193984 20.231881 37.43797 19.9375 37.705078 C 19.6337 37.980719 19.220937 37.841933 19.279297 38.5625 C 19.311797 38.969679 19.213087 39.806039 18.927734 40.017578 C 18.214264 40.546434 18.5 41 20.5 41 C 21.75 41 22.060044 40.28552 21.271484 39.716797 C 21.024524 39.596366 20.739159 38.880136 21.068359 38.847656 C 21.339619 38.820896 21.618749 38.351286 21.324219 38.023438 C 20.972999 37.6768 21.303688 37.344973 21.710938 36.982422 C 21.854817 36.880684 21.398565 35.182114 21.171875 35.150391 C 20.945185 35.118641 20.684526 34.124193 20.347656 34.126953 C 20.331966 34.124753 20.317504 34.123547 20.302734 34.123047 C 20.288188 34.12255 20.273446 34.121921 20.259766 34.123047 z M 26.287109 34.126953 C 26.220809 34.135253 26.165642 34.183683 26.126953 34.279297 C 25.972503 34.640317 26.888086 37.449897 27.166016 37.820312 C 27.411306 38.147155 27.620284 38.731482 27.615234 39.117188 C 27.622234 39.824664 27.671454 39.845866 28.257812 39.537109 C 29.112564 39.062709 29.131877 38.99976 28.654297 38.625 C 28.440027 38.470317 28.277988 38.080815 28.298828 37.759766 C 28.336128 37.46052 28.238738 37.200363 28.089844 37.132812 C 27.957334 37.087072 27.828816 36.827633 27.816406 36.505859 C 27.780356 35.923678 26.751187 34.06903 26.287109 34.126953 z M 17.824219 34.648438 C 17.567344 34.639338 17.044398 35.548788 16.955078 35.75 C 16.762178 36.184526 16.491411 37.141463 16.113281 38.644531 C 15.927121 39.384713 16.0873 39.850523 16.1875 40.269531 C 16.2601 40.572943 16.82091 40.668716 16.96875 40.449219 C 17.23389 40.05554 17.754896 39.283488 17.972656 37.914062 C 18.087536 37.161977 18.065747 35.154588 17.935547 34.759766 C 17.910797 34.684746 17.871787 34.65012 17.824219 34.648438 z M 23.3125 36.113281 C 23.147089 36.111081 22.985794 36.309788 22.957031 36.541016 C 22.937211 36.683118 22.926468 36.64333 22.923828 36.621094 C 22.927328 36.657044 22.941031 36.865264 22.957031 37.720703 C 22.989631 38.304797 23.017475 39.282448 23.046875 39.84375 C 23.081475 40.602438 23.106285 40.757426 23.302734 40.748047 L 23.302734 40.75 C 23.330834 40.7487 23.364791 40.743098 23.400391 40.736328 C 23.555281 40.706428 23.890356 40.509453 23.884766 40.125 L 23.703125 37.130859 C 23.692125 36.375156 23.499966 36.115817 23.3125 36.113281 z " />
</svg>
