<?xml version="1.0" encoding="UTF-8" standalone="no"?>
<!-- Created with Inkscape (http://www.inkscape.org/) -->

<svg
   width="9"
   height="9"
   id="svg2"
   version="1.1"
   xmlns="http://www.w3.org/2000/svg"
   xmlns:svg="http://www.w3.org/2000/svg"
   xmlns:rdf="http://www.w3.org/1999/02/22-rdf-syntax-ns#"
   xmlns:cc="http://creativecommons.org/ns#"
   xmlns:dc="http://purl.org/dc/elements/1.1/">
  <defs
     id="defs4" />
  <metadata
     id="metadata7">
    <rdf:RDF>
      <cc:Work
         rdf:about="">
        <dc:format>image/svg+xml</dc:format>
        <dc:type
           rdf:resource="http://purl.org/dc/dcmitype/StillImage" />
      </cc:Work>
    </rdf:RDF>
  </metadata>
  <g
     id="layer1">
    <path
       id="path32-1-2"
       style="fill:#000000"
       d="M 3.5078125 0.140625 C 3.3324614 0.14276873 3.2465131 0.63882556 3.2597656 0.83007812 C 3.2950656 1.3390412 3.2740825 1.3548336 3.3828125 1.5566406 C 3.6568325 2.0006566 3.9812 2.0754659 4.03125 1.8261719 C 4.04625 1.7513819 3.9107375 1.7591606 3.8359375 1.7441406 C 3.5822075 1.4754876 3.5503544 1.2142275 3.5839844 0.9140625 C 3.5899844 0.7357655 3.6806187 0.4063865 3.7304688 0.3515625 C 3.7803688 0.2967425 3.6948706 0.20254412 3.5253906 0.14257812 C 3.5195472 0.14159563 3.513469 0.14055585 3.5078125 0.140625 z M 5.6445312 0.18945312 C 5.4699285 0.19924294 5.4600062 0.41999594 5.3769531 0.53710938 C 5.1009531 1.1317754 4.7442625 2.1198661 5.0078125 2.1582031 C 5.1001125 2.1716231 5.0374631 2.3098412 4.8769531 2.4882812 C 4.8236531 2.5511413 4.8502344 2.6041229 4.8027344 2.7011719 C 4.7536344 2.8428609 5.1219631 2.9602961 5.2519531 2.7988281 C 5.3200531 2.7011081 5.3525875 2.476349 5.3359375 2.3125 C 5.3062375 2.146736 5.2595231 1.5586179 5.4394531 1.1542969 C 5.6591331 0.66158783 5.9136112 0.46107013 5.8632812 0.25195312 C 5.7890812 0.21426312 5.7303206 0.19430313 5.6816406 0.18945312 C 5.6684581 0.18813875 5.6561714 0.18880047 5.6445312 0.18945312 z M 1.6289062 1.171875 C 1.3829262 1.193405 1.3511144 1.2428992 1.4277344 1.4570312 C 1.4882344 1.5923932 1.6510837 1.7269475 1.7773438 1.7421875 C 1.9667138 1.7650475 2.0664825 1.8118675 2.0390625 2.0390625 C 2.0161625 2.2283895 2.0787175 2.3530464 2.1796875 2.3652344 C 2.2680875 2.3758944 2.3730388 2.4782048 2.4492188 2.5898438 C 2.5254188 2.7014837 2.61981 2.8290731 2.6875 2.7988281 C 2.7552 2.7685781 2.9019431 2.8244319 3.0332031 2.9042969 C 3.2103831 3.0281299 3.3678088 3.3899298 3.4492188 3.2460938 C 3.5963488 2.9821287 3.2027706 2.6656728 2.9628906 2.6367188 C 2.6346406 2.5970987 2.2792044 2.1369406 2.3027344 1.9160156 C 2.2926344 1.7280086 2.0529775 1.3660889 1.8984375 1.3730469 C 1.8615375 1.3806469 1.79216 1.1918101 1.65625 1.1738281 C 1.65125 1.1731701 1.6466781 1.1742281 1.6425781 1.1738281 C 1.6375781 1.1733791 1.6335062 1.171537 1.6289062 1.171875 z M 7.5078125 1.2539062 C 7.3742144 1.2670194 7.1989281 1.5423178 6.9355469 1.7871094 C 6.6111469 2.1662544 6.2298375 2.3979756 6.1796875 2.8378906 C 6.1285875 3.3324936 5.7757344 3.3747966 5.3027344 3.4785156 C 4.8113944 3.5862566 5.1308944 4.2905306 5.5527344 3.9628906 C 5.6941444 3.8530696 5.912065 3.8018614 6.171875 3.8808594 C 6.323145 3.9406294 6.3913037 3.8822988 6.7460938 3.5742188 C 6.9607237 3.2886817 6.9115712 2.9275489 6.6757812 3.1386719 C 6.5839812 3.2238019 6.5201125 3.2063219 6.4453125 3.0761719 C 6.3706125 2.9460349 6.4108538 2.8469246 6.5898438 2.7441406 C 6.7362737 2.6600406 6.8640056 2.5436349 6.8847656 2.4667969 C 6.9055656 2.3899569 7.0865075 2.1772266 7.2734375 1.9941406 C 7.6438275 1.6407696 7.8297763 1.3354794 7.5351562 1.2558594 C 7.5266094 1.2543181 7.516719 1.253032 7.5078125 1.2539062 z M 3.90625 2.3632812 C 3.8812416 2.3635684 3.8546438 2.3719205 3.8242188 2.3867188 C 3.6926788 2.4441588 3.7278006 2.4858641 3.9316406 2.7988281 C 4.1899406 3.1953741 3.9156469 3.0457112 3.9980469 3.2851562 C 4.2467669 4.0076703 4.5906025 3.521657 4.4765625 3.078125 C 4.4835625 3.038945 4.3929019 2.9197887 4.2949219 2.9023438 C 4.2067219 2.8866438 4.1477 2.7272669 4.09375 2.5761719 C 4.036525 2.4295416 3.9812753 2.3624198 3.90625 2.3632812 z M 8.5605469 2.8300781 C 8.480318 2.830713 8.3602444 2.8675212 8.1816406 2.9335938 C 7.8460006 3.0582388 6.9254125 3.8162569 6.9765625 3.9511719 C 7.0235625 4.0752259 7.8545919 3.4195415 8.1699219 3.3515625 C 8.5305119 3.2855225 8.7188575 3.2310253 8.7109375 3.0820312 C 8.7099375 2.9448422 8.6888469 2.8679169 8.6230469 2.8417969 C 8.6180469 2.8400969 8.613275 2.8370375 8.609375 2.8359375 C 8.5949562 2.8321706 8.5790612 2.8299316 8.5605469 2.8300781 z M 0.328125 3.2871094 C 0.32217303 3.2876901 0.31547719 3.2897983 0.31054688 3.2910156 C 0.054326875 3.3631956 0.12896938 3.3791741 0.19335938 3.5332031 C 0.33667938 3.8185461 0.6020075 3.745422 0.9921875 3.8125 C 1.2989275 3.83117 1.6750881 4.099898 1.8613281 4.171875 C 2.0475881 4.243855 2.4731544 4.1646444 2.6777344 4.1152344 C 2.8978544 4.0662344 2.917975 4.1211362 3.203125 4.1289062 C 3.314005 4.1320062 3.5182088 4.1881581 3.5429688 4.0800781 L 3.5898438 3.8808594 C 3.6173437 3.7608814 3.3430169 3.8614881 3.2167969 3.8300781 C 3.0381769 3.7753181 2.8182894 3.7486712 2.7246094 3.7695312 C 2.6309094 3.7904213 2.2303087 3.9149962 1.6992188 3.7382812 C 1.1773531 3.5504203 0.51263616 3.2691072 0.328125 3.2871094 z M 4.2949219 3.8066406 C 4.105777 3.8153906 3.9497075 3.8807305 3.8691406 3.9941406 C 3.3917106 4.8006576 4.3899606 5.6103701 4.9628906 4.9550781 C 5.4403306 4.4510061 5.3025237 4.1446131 4.7773438 3.8925781 C 4.6102406 3.8264198 4.4420345 3.7998351 4.2949219 3.8066406 z M 5.640625 4.3417969 C 5.5962491 4.3420911 5.5595544 4.3496736 5.5332031 4.3691406 C 5.4328031 4.4433006 5.2859325 4.6076259 5.2890625 4.7324219 C 5.2930625 4.8885789 5.7687731 4.9296766 5.9707031 4.9316406 C 6.1029831 4.9328406 6.2048775 4.9325555 6.2109375 5.0234375 C 6.2189375 5.1324695 6.2720144 5.5479605 6.3964844 5.3515625 C 6.5563544 5.0994115 6.9554144 4.888149 7.2402344 4.859375 C 7.5056444 4.881655 7.8919663 5.0183836 7.9101562 5.2910156 C 7.9307562 5.4365226 8.1295044 5.5449411 8.5527344 5.4238281 C 8.7651044 5.4096681 8.9978013 5.1466583 8.9882812 5.0039062 C 8.9774813 4.8452832 8.8765156 4.6185118 8.6035156 4.6367188 C 8.3759756 4.6518888 8.1351688 4.6033981 8.0117188 4.5800781 C 7.9682188 4.5639781 7.7788319 4.4836009 7.7636719 4.4511719 C 7.6782719 4.2681749 7.1898656 4.524227 6.8535156 4.578125 C 6.5759456 4.622605 6.4804569 4.4669494 6.3417969 4.4746094 C 6.1622669 4.4845219 5.8329208 4.3405218 5.640625 4.3417969 z M 3.2578125 4.4511719 C 3.1602482 4.4539169 3.0662187 4.4938946 3.0214844 4.4921875 C 2.8486544 4.5732975 2.8339469 4.7246434 2.8417969 4.8339844 C 2.8497969 4.9296344 2.7021413 5.1395981 2.5820312 5.1894531 C 2.4492613 5.2539731 2.2264912 5.3427433 2.1132812 5.4882812 C 1.8614513 5.8086412 1.361435 6.0125044 1.109375 5.7558594 C 0.91592496 5.5499514 0.4793725 5.7470823 0.3203125 6.0195312 C 0.2344125 6.1630933 0.58984187 6.3663055 0.79492188 6.3515625 C 0.84952187 6.3475625 1.1026031 6.4006525 1.3144531 6.2890625 C 1.5136131 6.1923025 1.7539056 6.0928096 1.8222656 6.0878906 C 2.0937256 6.0409206 2.7570063 5.5401005 3.0976562 5.1171875 C 3.2077463 4.9863935 3.5627912 4.9049404 3.5507812 4.7871094 C 3.5136 4.504596 3.3832523 4.4476426 3.2578125 4.4511719 z M 5.2929688 5.0253906 C 5.2900263 5.025634 5.2875356 5.0281155 5.2851562 5.0292969 C 5.0581262 5.1420159 4.7006275 5.2657345 4.8046875 5.3984375 L 4.8925781 5.5097656 C 5.0067581 5.6553716 5.1494356 5.9704269 5.2597656 6.0605469 C 5.3110656 6.1025169 5.3316594 6.4893473 5.3183594 6.6445312 C 5.2711594 7.1990112 5.3235156 7.3612363 5.4160156 7.4570312 C 5.6281156 7.5630533 5.7663225 7.4381527 5.7265625 7.0273438 C 5.6867625 6.6960228 5.7123594 6.5782663 5.8183594 6.6445312 C 5.8978594 6.6975812 5.9667969 6.8561731 5.9667969 7.0019531 C 5.9667969 7.1344831 6.0313762 7.2539063 6.0976562 7.2539062 C 6.1771563 7.2539062 6.2304688 7.3717991 6.2304688 7.5175781 C 6.3234687 7.8466241 6.2831069 8.357683 6.7480469 8.3125 C 6.9998969 8.3125 7.2700194 7.8430269 6.9121094 7.3261719 C 6.6469794 6.9285859 6.2435494 6.8292345 6.3496094 6.6171875 C 6.4954294 6.3388775 6.4850088 6.0244481 6.2304688 5.9863281 C 6.0888187 5.9535581 5.7621175 5.866668 5.7421875 5.5625 C 5.7354063 5.449381 5.3841859 5.0178457 5.2929688 5.0253906 z M 3.8144531 5.1523438 C 3.658618 5.1606595 3.5066975 5.5675433 3.4628906 5.6523438 C 3.3701906 5.8318547 3.4891375 5.8679309 3.5234375 5.8730469 C 3.5750375 5.8807469 3.5702125 6.0907302 3.5078125 6.3320312 C 3.3966825 6.7243303 3.3370838 6.7687152 3.0273438 6.7226562 C 2.6659838 6.6689263 2.3610656 6.9407215 2.5722656 7.1171875 C 2.6420656 7.1802875 2.7013475 7.1484744 2.7109375 7.0839844 C 2.7224375 7.0065644 2.8206381 6.9553601 2.9238281 6.9707031 C 3.1561481 7.0052531 3.163505 6.9555457 2.796875 7.8242188 C 2.632225 8.2217438 2.5698037 8.5140966 2.5898438 8.5566406 C 2.6777437 8.6752026 3.1287225 8.6475856 3.2578125 8.1660156 C 3.3617425 7.9219766 3.4776938 7.6588022 3.5898438 7.0820312 C 3.6905037 6.5826602 4.1716006 6.5886018 4.2753906 6.5117188 C 4.3632906 6.4466187 4.4754356 6.1454105 4.4785156 5.9765625 L 4.4804688 5.7773438 C 4.4955688 5.2684178 4.0821381 5.1875569 3.8300781 5.1542969 C 3.8250475 5.1537141 3.8194801 5.1520755 3.8144531 5.1523438 z M 6.9785156 5.34375 C 6.8696179 5.3468761 6.7463241 5.3834209 6.609375 5.4765625 C 6.411725 5.6109875 6.9783931 5.8629995 7.0644531 5.9921875 C 7.0946531 6.0374975 7.3136681 6.3366017 7.4238281 6.4179688 C 7.5339381 6.4993087 7.81254 6.703811 7.90625 6.796875 C 8.13256 7.026312 8.5869312 6.7170604 8.4257812 6.4589844 C 8.3566812 6.3483564 8.07023 6.2899015 7.90625 6.1796875 C 7.81355 6.1173675 7.5815675 5.7640614 7.4921875 5.6308594 C 7.4382094 5.5504571 7.2568097 5.3357611 6.9785156 5.34375 z M 4.5566406 7.2421875 C 4.4251606 7.2424935 4.2950962 7.6162116 4.3476562 7.9003906 C 4.3925563 8.0780016 4.2555844 8.5295404 4.3964844 8.7558594 C 4.6732144 9.1654634 5.2326013 9.0153942 5.1132812 8.3320312 C 5.0536813 7.9553902 4.6948312 7.3874656 4.6445312 7.3066406 C 4.6162313 7.2612106 4.5870406 7.2421375 4.5566406 7.2421875 z " />
  </g>
</svg>
