<?xml version="1.0" encoding="UTF-8" standalone="no"?>
<!-- Created with Inkscape (http://www.inkscape.org/) -->

<svg
   width="15"
   height="15"
   id="svg2"
   version="1.1"
   xmlns="http://www.w3.org/2000/svg"
   xmlns:svg="http://www.w3.org/2000/svg"
   xmlns:rdf="http://www.w3.org/1999/02/22-rdf-syntax-ns#"
   xmlns:cc="http://creativecommons.org/ns#"
   xmlns:dc="http://purl.org/dc/elements/1.1/">
  <defs
     id="defs4" />
  <metadata
     id="metadata7">
    <rdf:RDF>
      <cc:Work
         rdf:about="">
        <dc:format>image/svg+xml</dc:format>
        <dc:type
           rdf:resource="http://purl.org/dc/dcmitype/StillImage" />
      </cc:Work>
    </rdf:RDF>
  </metadata>
  <path
     id="path4-1-4"
     style="fill:#000000"
     d="M 6.9964218,3.1951193e-4 C 5.7574148,-0.01792049 3.5954898,0.7482347 3.2928468,1.4150049 c -0.362347,0.7983092 -0.05545,1.7673145 0.497085,1.7101444 0.337403,-0.06662 0.06268,-0.6528141 0.04519,-1.0977022 -0.05391,-0.4612842 0.441151,-0.7337372 1.426416,-1.16422837 1.707995,-0.30985608 3.191252,-0.35284409 3.000191,0.82180827 -0.275938,1.2427283 0.249818,1.1145363 0.345798,0.4813461 0.08219,-0.6792382 0.250464,-1.1032813 0.129674,-1.4185974 0.241223,0.10212003 0.536092,0.21521306 0.795729,0.3580721 0.420001,0.2310971 1.0772142,0.6383362 1.3576492,1.1603153 0.241647,0.5122632 0.695738,0.9964753 1.005958,1.0742213 0.697994,0.174931 0.860846,1.3236593 0.392952,2.8489377 -0.522654,1.6157344 -0.05502,1.6846604 1.002029,0.2445871 0.527746,-0.4600492 0.496323,0.7103691 0.49119,1.5692624 -0.003,1.9357334 -0.896245,1.1423612 -0.754468,1.7962394 0.179727,0.981318 -0.644749,1.788136 -1.422487,2.620003 -0.732719,0.491811 -1.424791,0.77752 -2.2182152,0.784633 -0.82424,-0.05308 -1.510886,-0.177048 -1.563951,-0.377643 -0.02085,-0.07882 -0.05051,-0.136078 -0.08448,-0.180014 0.0076,-0.01829 0.01637,-0.03653 0.02358,-0.05479 0.412322,-1.438123 1.795663,-0.99622 1.565915,-2.441945 -0.435274,-0.7250411 -0.701171,-1.0964192 -1.196539,-0.6046151 0.840836,1.3812121 -2.336872,3.9559881 -2.923565,3.8546731 -0.789582,-0.165434 -1.489815,-0.353765 -1.27513,-1.203363 0.156134,-0.617883 0.586234,-1.165599 0.935226,-1.078135 0.310219,0.07774 0.619228,-0.06129 0.668019,-0.254369 0.156135,-0.617883 -0.586137,-0.752268 -1.314425,-0.154578 -0.472465,0.377742 -0.786198,0.838416 -0.935226,1.309024 -0.785762,-0.0185 -1.767212,-1.200443 -1.518761,-2.183663 0.156135,-0.6178871 0.383949,-1.2683243 0.151287,-1.3266353 -0.0811,-0.02033 -0.190831,0.07426 -0.306503,0.250457 C 1.3662428,8.8454608 0.34993275,9.5120329 0.55397875,8.2692786 0.72040375,6.9107773 1.7783838,5.960088 1.2691518,6.2049731 0.95860675,6.3543111 0.71429775,6.5946572 0.52843675,6.8859013 c 0.06517,-0.5146822 0.13789,-1.1424683 0.227912,-1.4538194 0.15158,-0.5658541 0.72051005,-1.3322263 0.99220505,-1.4283813 0.261942,-0.05755 0.55852,-0.2291461 0.636582,-0.5380892 0.1171,-0.4634111 -0.03829,-0.5017281 -0.736786,-0.3482901 -0.65972505,0.1631711 -1.19715005,1.2154343 -1.52268905,2.5299967 -0.208788,0.8517742 -0.140478,1.7222574 0.08056,1.9684265 0,0 0,0.002 0,0.002 -0.195292,0.6904511 -0.16714,1.4667913 0.04323,2.0212595 0.201284,0.46818 0.516439,0.674982 0.81930705,0.641792 -0.17900805,0.901401 -0.0363,1.303804 0.516731,1.839286 0.513155,0.439423 1.137659,0.654857 1.60521,0.622227 0.0397,0.711739 0.492398,1.352198 1.398911,1.641661 0.898561,0.299836 1.710986,-0.01677 2.310558,-0.557656 0.02207,0.410503 0.118576,0.796235 0.284891,0.898119 0.399644,0.342222 1.332015,0.447068 2.230004,-0.166318 1.7108202,-0.124416 2.5005512,-1.030749 3.1259352,-1.520346 0.892621,-0.698812 1.785531,-1.994382 2.245722,-3.8155401 C 15.304436,7.1734253 14.75397,6.0703531 14.458605,6.1404461 13.805601,6.2825301 14.228708,5.1691038 14.29553,4.8607718 14.492143,4.3716326 14.29033,4.1198086 13.729679,3.4304334 13.226356,2.8115283 12.578116,2.2793801 12.267896,2.2016341 11.996451,2.1336041 11.714245,1.774602 11.637208,1.4267869 11.573458,0.7444157 8.7231648,-0.10694451 8.3285498,0.35452061 c 0,0 -0.002,0 -0.002,0 C 8.1276308,0.25291258 7.8490648,0.15818456 7.4640188,0.05906253 7.3328108,0.02185252 7.1734068,0.00297252 6.9964068,3.7251195e-4 Z M 6.2439188,3.2288544 c -0.19096,0.0056 -0.425138,0.08394 -0.632654,0.226975 -0.699013,0.4818301 -0.311859,0.7436242 0.677843,0.4167751 0.359012,-0.115343 0.456917,-0.3370441 0.263277,-0.5498301 -0.06688,-0.0668 -0.177811,-0.09775 -0.308466,-0.09392 z m 2.023704,0 c -0.159391,0.0052 -0.26193,0.03807 -0.277032,0.09784 -0.117364,0.4644531 0.368607,0.7324912 0.986311,0.5967891 0.439296,-0.122312 0.727776,0.0074 1.1454562,0.5478722 0.301221,0.4241031 0.657297,0.6286281 0.774115,0.5126531 0.384797,-0.3683791 -0.704345,-1.3666463 -1.8016862,-1.6416614 -0.324054,-0.08121 -0.622233,-0.12015 -0.827164,-0.113487 z m -4.023831,1.5947004 c -0.156872,-0.02069 -0.59056,0.4685451 -0.984346,1.4577313 -0.208338,0.4212741 -0.373882,1.2593173 -0.310432,1.5457834 0.230176,1.3996664 3.273742,1.4421284 3.530676,0.5850492 0.164252,-0.5479162 -0.566128,0.279766 -2.59152,-0.0861 -0.677157,-0.12232 -0.602679,-1.3256863 -0.322222,-1.8979884 0.714489,-1.0519993 0.834715,-1.5837934 0.677844,-1.6044824 z m 6.5171122,2.4947756 c -0.185886,0.01993 -0.207638,0.4220461 0.182723,1.4870834 0.245526,1.0358112 -0.280283,2.4412252 -0.937191,2.8900262 -0.2985532,0.177767 -0.0573,0.434988 0.548168,0.189798 1.279065,-0.473298 1.717063,-1.592421 1.259412,-3.2226633 C 11.579639,7.9811095 11.015638,7.2910204 10.760904,7.3183304 Z" />
</svg>
