<?xml version="1.0" encoding="UTF-8" standalone="no"?>
<!-- Created with Inkscape (http://www.inkscape.org/) -->

<svg
   width="25"
   height="25"
   id="svg2"
   version="1.1"
   xmlns="http://www.w3.org/2000/svg"
   xmlns:svg="http://www.w3.org/2000/svg"
   xmlns:rdf="http://www.w3.org/1999/02/22-rdf-syntax-ns#"
   xmlns:cc="http://creativecommons.org/ns#"
   xmlns:dc="http://purl.org/dc/elements/1.1/">
  <defs
     id="defs4" />
  <metadata
     id="metadata7">
    <rdf:RDF>
      <cc:Work
         rdf:about="">
        <dc:format>image/svg+xml</dc:format>
        <dc:type
           rdf:resource="http://purl.org/dc/dcmitype/StillImage" />
      </cc:Work>
    </rdf:RDF>
  </metadata>
  <path
     id="path24698-5-7"
     style="fill:#000000"
     d="M 14.193359 0.1484375 C 13.920678 0.1825275 13.409207 0.38832712 13.068359 0.62695312 C 12.625254 0.96784812 12.522933 1.3416485 12.693359 2.0234375 C 12.829698 2.6370475 12.761844 3.0465292 12.455078 3.2851562 C 12.080143 3.5237812 12.079077 3.660517 12.419922 3.796875 C 12.607279 3.8593362 12.429743 4.2534239 12.398438 4.6074219 C 12.188881 4.8343819 11.931841 5.2675558 11.916016 5.4960938 L 11.751953 7.8710938 C 11.671723 9.0296617 12.232347 8.901677 12.310547 8.5 C 12.379437 8.18257 12.353451 8.9330649 12.332031 7.4882812 C 12.299131 7.0110652 12.472655 6.192929 12.443359 5.734375 C 12.493649 5.5689621 12.548366 5.4112992 12.595703 5.2675781 C 12.798209 4.9973717 13.155194 3.849209 13.214844 2.7753906 C 13.3171 1.3436316 13.885712 0.65961512 14.226562 0.45507812 C 14.635582 0.21645112 14.636469 0.1484375 14.193359 0.1484375 z M 10.445312 0.1875 C 10.335704 0.1986485 10.232088 0.29623988 10.1875 0.47460938 C 10.14293 0.68270337 9.9792094 0.77148438 9.7265625 0.77148438 C 9.2658289 0.77148438 9.2210225 1.0542074 9.6074219 1.6933594 C 9.8600848 2.1244144 9.8605966 2.139458 9.5039062 2.421875 C 9.1472241 2.719155 9.1457827 2.7188022 9.3984375 3.2539062 C 9.532191 3.5511853 9.6075044 3.8343133 9.5332031 3.8789062 C 9.4736911 3.9235062 9.3988657 4.2202981 9.3691406 4.5175781 C 9.3245666 4.9932251 9.3703084 5.0974547 9.6972656 5.2460938 C 9.8689306 5.3319333 9.6438213 6.0736043 9.6347656 6.4394531 C 9.4947692 6.647337 9.5180284 7.1971606 9.5800781 7.4238281 C 9.7780721 8.1470987 9.7537482 8.17813 9.96875 8.4375 C 10.197577 8.760309 10.244741 8.3659605 10.070312 7.4511719 C 10.027722 7.1923979 10.052985 6.5973402 10.109375 6.5039062 C 10.117368 6.4905925 10.122825 6.4792234 10.123047 6.46875 C 10.264671 6.171147 10.479864 5.6246633 10.326172 5.1835938 C 10.073525 4.4849868 9.8956189 3.8305573 9.9550781 3.1914062 C 10.059106 1.9874223 10.290405 1.9607089 10.46875 1.8417969 C 10.676821 1.7080209 10.855214 0.7410705 10.736328 0.4140625 C 10.669448 0.250559 10.554921 0.1763515 10.445312 0.1875 z M 16.900391 0.875 C 16.766412 0.88231465 16.645148 0.92662262 16.599609 1.0175781 C 16.548669 1.1541941 16.315471 1.4075251 16.089844 1.5957031 C 15.846276 1.7694181 15.677474 2.0344215 15.691406 2.1640625 C 15.705346 2.2937035 15.591346 2.6016233 15.4375 2.8476562 C 15.283647 3.0936893 15.176366 3.4656943 15.197266 3.6601562 C 15.218166 3.8546172 14.67212 4.7085675 14.554688 4.8359375 C 14.473877 4.9235865 14.345788 5.1851513 14.222656 5.4921875 C 14.041894 5.554904 13.921875 5.7351612 13.921875 6.1035156 C 13.65764 6.9887556 13.462443 8.3390769 13.666016 8.6542969 C 13.78454 8.8378169 13.6143 9.3870931 13.558594 9.7207031 C 13.375648 10.816123 13.730201 10.452256 13.939453 9.5722656 C 14.014543 9.4221856 14.159306 9.1047075 14.154297 8.8046875 C 14.079207 8.5795675 13.893654 7.7682883 14.0625 7.1679688 C 14.244289 6.5236407 14.860344 6.0202432 14.927734 5.7167969 C 15.189109 5.289207 15.413418 4.8431996 15.474609 4.5625 C 15.536989 4.227946 15.883224 3.3396733 16.109375 3.0039062 C 16.510813 2.4689792 17.431529 1.3899282 17.398438 1.0820312 C 17.384281 0.95036437 17.123689 0.86280891 16.900391 0.875 z M 7.2832031 1.171875 C 7.2528459 1.174078 7.2204871 1.1815901 7.1855469 1.1933594 C 6.7808089 1.3461064 7.3981899 3.6340981 7.9023438 4.0332031 C 8.3871072 4.4169551 8.2064979 3.8192498 7.8066406 2.5898438 C 7.7008323 2.1296578 7.7385611 1.1388302 7.2832031 1.171875 z M 5.0859375 2.5234375 C 4.9437105 2.5310466 4.8665058 2.6732982 4.8964844 2.90625 C 4.8606694 3.103782 4.9257808 3.190092 4.7851562 3.3125 C 4.451176 3.603218 4.5882324 3.7613682 5.3046875 3.9101562 C 5.7604057 4.0078262 5.8375683 4.0956632 5.7949219 4.4726562 C 5.794268 4.7204062 5.9881321 5.0471019 6.0078125 5.1855469 C 6.0410585 5.4194399 6.1715579 5.7860893 6.5761719 6.1445312 C 6.9348879 6.4502312 7.0599123 6.1913345 7.5800781 6.7890625 C 8.2532309 7.5625905 8.7978526 8.5628194 9.1289062 8.5527344 C 9.5257043 8.5472344 9.5312339 8.4805289 8.9667969 8.0449219 C 8.6058062 7.7721019 8.3177031 7.4062841 8.3007812 7.1738281 C 8.1001676 6.4320421 7.6694841 5.9215015 7.3164062 5.8671875 C 6.5369005 5.9159975 6.4294009 4.628972 6.2832031 4.28125 C 5.8613152 2.9883752 5.3574617 2.5089111 5.0859375 2.5234375 z M 20.099609 3.1113281 C 19.096854 3.122841 17.662945 3.559133 17.751953 3.96875 C 17.799423 4.187213 17.759573 4.3961083 17.623047 4.4257812 C 17.513829 4.4495213 17.146804 4.8704659 16.820312 5.3417969 C 16.596023 5.6726669 16.451826 6.011431 16.398438 6.2929688 C 16.259066 6.4465652 16.126336 6.8082764 15.904297 7.1640625 C 15.601336 7.8013621 15.165958 8.2598262 15.259766 8.8789062 C 15.284066 9.3959163 15.159633 9.6423069 15.1875 9.8105469 C 15.24229 10.122587 15.39599 9.8141406 15.486328 9.7441406 C 15.524218 9.5317606 15.578776 8.8059594 15.785156 8.5996094 C 15.954014 8.4307694 16.085938 8.2238881 16.085938 8.1113281 C 16.085938 7.9987681 16.253791 7.6411856 16.441406 7.3222656 C 16.803015 6.9664222 16.933278 6.6922939 16.919922 6.5058594 C 16.978767 6.3516837 17.043479 6.1747143 17.130859 6.0019531 C 17.580841 5.0462151 18.501656 4.5207424 19.648438 4.2714844 C 20.167223 4.1587254 20.748622 3.9458799 20.976562 3.8105469 C 21.301851 3.5968559 21.285576 3.5142925 20.886719 3.2578125 C 20.720526 3.1509463 20.433861 3.1074905 20.099609 3.1113281 z M 20.474609 4.7636719 C 20.188522 4.7633362 19.571766 5.004572 19.494141 5.2109375 C 19.425841 5.3604015 19.301102 5.5001399 19.199219 5.4980469 C 19.109229 5.5125069 19.069591 5.6668935 19.126953 5.8515625 C 19.198773 6.1262355 19.337298 6.0756265 19.914062 5.5859375 C 20.275648 5.2508505 20.621709 4.9289187 20.619141 4.8554688 C 20.629628 4.7914625 20.569972 4.7637838 20.474609 4.7636719 z M 2.40625 5.1816406 C 2.1118756 5.3632556 2.2763386 5.6961936 2.6914062 6.3691406 C 2.9427682 6.8237346 3.2553669 7.2315339 3.2070312 7.4355469 C 3.1063314 7.8605735 3.3316824 8.2725784 3.7226562 8.3652344 C 3.8756462 8.4014944 4.0169631 8.5607676 4.0527344 8.7128906 C 4.0911694 9.0811116 3.589538 9.1922918 3.3144531 8.9179688 C 3.1028918 8.5984957 1.8578815 8.658631 1.4355469 8.75 C -0.058698345 9.133129 0.45390017 9.5576925 1.0644531 9.2734375 C 2.355061 8.8744055 4.0065253 9.3677449 4.0722656 9.5449219 C 4.1031216 9.6420119 4.3638207 9.756988 4.6738281 9.8125 C 4.979807 9.88501 5.4478349 10.031478 5.7207031 10.167969 C 5.7234636 10.16635 5.7257734 10.165651 5.7285156 10.164062 C 5.8233418 10.232787 5.9559931 10.309574 6.0410156 10.40625 C 6.3870763 10.799743 6.8387283 11.312894 7.375 11.523438 C 8.5605876 11.950307 7.4518836 10.992606 6.6757812 10.232422 C 6.5530723 10.112231 6.1815949 9.7994325 6.0859375 9.6953125 C 6.0717182 9.6860217 6.0583148 9.6790098 6.0449219 9.671875 C 5.8344872 9.5008669 5.4603002 9.6254772 5.1132812 9.484375 C 4.8873818 9.376973 4.8043232 9.1782234 4.7363281 9.1621094 C 4.6553587 9.1249694 4.6337888 8.995383 4.6660156 8.859375 C 4.6982414 8.723366 4.6066943 8.5751967 4.4707031 8.5429688 C 4.3347129 8.5107387 4.2318127 8.4150831 4.2519531 8.3300781 C 4.2720904 8.2450781 4.1514655 8.0718785 3.9765625 7.9765625 C 3.8016594 7.8812425 3.6978793 7.6420911 3.7421875 7.4550781 C 3.8871945 6.8430391 3.3398994 6.6358703 2.8359375 5.6914062 C 2.618094 5.5500013 2.4272773 5.1686676 2.40625 5.1816406 z M 22.316406 5.2265625 C 22.037624 5.2376625 21.734387 5.4256418 21.457031 5.6992188 C 21.225162 5.9307067 21.402217 6.3427211 21.046875 6.6425781 C 20.691525 6.9424371 20.269361 7.2082588 20.125 7.2304688 C 19.947338 7.2526788 19.847656 7.3321835 19.847656 7.4765625 C 19.847656 7.6986801 19.03637 8.2089844 18.669922 8.2089844 C 18.481146 8.2089844 18.448393 8.1635142 18.503906 7.9414062 C 18.548316 7.7526063 18.515317 7.6310871 18.404297 7.5644531 C 18.24883 7.4867131 18.249592 7.431443 18.382812 7.109375 C 18.560484 6.687353 18.503296 6.2089844 18.28125 6.2089844 C 18.19235 6.2089844 18.082146 6.2984835 18.048828 6.3984375 C 18.004428 6.5094945 17.915625 6.6423484 17.837891 6.7089844 C 17.660221 6.8644664 17.548998 7.520528 17.693359 7.609375 C 17.810729 7.676455 17.866494 7.9683704 17.767578 8.2558594 C 17.43397 8.5769764 17.102873 9.1640635 17.277344 9.1640625 C 17.314744 9.1640625 17.758268 9.005493 18.113281 8.78125 C 18.164661 8.75088 18.210098 8.7223625 18.248047 8.6953125 C 18.313487 8.6838625 18.391694 8.6649794 18.484375 8.6308594 C 19.669656 8.4449664 20.069815 8.5306644 20.025391 8.1308594 C 20.003141 7.9420604 20.459849 7.6542969 20.792969 7.6542969 C 21.126108 7.6542969 21.280914 7.5536434 21.380859 7.2871094 C 21.469759 7.0427834 21.692252 7.0420428 22.025391 7.3085938 C 22.169744 7.4196507 22.355851 7.4870548 22.433594 7.4648438 C 22.622363 7.3982138 22.599626 7.1319296 22.388672 7.0097656 C 22.24431 6.9320256 22.278189 6.8645793 22.611328 6.6757812 C 22.922245 6.4869822 23.113414 6.1287723 23.035156 5.8164062 C 22.84955 5.3829782 22.595188 5.2154685 22.316406 5.2265625 z M 4.921875 5.4296875 C 4.7737234 5.4296875 4.6738281 5.5792219 4.6738281 5.8261719 C 4.6738281 6.0566589 4.7901853 6.336205 4.921875 6.484375 C 5.0535637 6.616082 5.1679688 6.8618718 5.1679688 7.0429688 C 5.1679688 7.2076028 5.2823727 7.3574219 5.4140625 7.3574219 C 5.5622131 7.3574219 5.6621094 7.2081646 5.6621094 6.9941406 C 5.6621094 6.7801176 5.5457522 6.5332127 5.4140625 6.4179688 C 5.2823727 6.3027257 5.1679687 6.0401959 5.1679688 5.8261719 C 5.1679688 5.5792219 5.0700256 5.4296875 4.921875 5.4296875 z M 6.9238281 7.8535156 C 6.1739264 7.8535156 6.4227987 8.3542019 6.5800781 8.6386719 C 6.6926533 8.8262719 6.9569058 8.9960937 7.1445312 8.9960938 C 7.4259645 8.9960938 7.5761719 9.0470656 7.5761719 9.3847656 C 7.5761719 9.6661556 7.6936597 9.8359375 7.84375 9.8359375 C 7.9750928 9.8359375 8.1460109 9.9690604 8.2773438 10.119141 C 8.4086765 10.269221 8.5702548 10.439093 8.6640625 10.382812 C 8.7578505 10.326512 8.981107 10.382783 9.1875 10.476562 C 9.4689331 10.626643 9.5643954 10.607913 9.6582031 10.382812 C 9.827071 9.9700923 9.3935927 10.095703 9.0371094 10.095703 C 8.5492933 10.095703 7.9479688 9.4860131 7.9433594 9.1582031 C 7.8953654 8.8845631 7.4809999 8.3960738 7.2558594 8.4335938 C 7.0432372 8.2980037 7.1260916 7.8558356 6.9238281 7.8535156 z M 24.041016 8.3476562 C 23.993146 8.3482961 23.954171 8.3584814 23.933594 8.375 C 23.645984 8.500248 23.834285 8.6832471 23.40625 8.4550781 C 22.910265 8.1892361 22.878361 8.8664995 22.642578 8.9296875 C 22.482048 8.9950175 21.710768 8.9753144 21.474609 9.0683594 C 20.769796 9.3478414 20.655125 8.9354235 20.027344 9.3515625 C 19.710765 9.6211403 19.540577 9.7318562 19.412109 9.765625 C 19.308829 9.7045438 19.166255 9.6861622 19.003906 9.6972656 C 18.81538 9.6544177 18.558763 9.6908951 18.439453 9.7890625 C 18.411478 9.8120817 18.388534 9.8329665 18.369141 9.8515625 C 17.885597 10.033898 17.418602 10.339352 17.314453 10.574219 C 17.241163 10.83981 18.44895 10.246094 18.923828 10.246094 C 18.95087 10.246094 18.9774 10.246004 19.003906 10.246094 C 19.055396 10.250323 19.104207 10.25083 19.148438 10.246094 C 19.332889 10.242182 19.482774 10.220827 19.539062 10.123047 C 19.653277 10.123453 19.786885 10.15737 19.914062 10.222656 C 20.303556 10.426371 21.0141 10.291277 21.451172 9.9316406 C 21.563245 9.8394306 21.7955 9.8722925 22.017578 10.007812 C 22.713232 10.427644 23.599669 10.091272 24.273438 9.125 C 24.612478 8.5198858 24.248449 8.3448836 24.041016 8.3476562 z M 10.335938 9.1757812 C 10.279048 9.1777813 10.220742 9.2031 10.15625 9.25 C 9.9310998 9.40008 10.068427 9.4685 10.59375 9.9375 C 11.320911 10.55499 10.87508 11.269076 11.802734 11.228516 C 12.104525 11.236516 12.002107 10.720054 11.484375 10.646484 C 11.29691 10.519594 11.314578 10.183594 11.126953 10.183594 C 10.958099 10.183594 10.868851 9.7763119 10.71875 9.5136719 C 10.576869 9.2815119 10.461201 9.1718513 10.335938 9.1757812 z M 24.572266 10.546875 C 24.424985 10.542889 24.283678 10.718197 24.306641 10.933594 C 24.348121 11.298603 24.002112 11.594942 23.681641 11.552734 C 23.55183 11.525514 23.433688 11.737186 23.267578 11.863281 C 22.869953 12.028947 22.394856 11.901053 22.070312 11.882812 C 21.873262 11.726883 21.714971 11.723361 21.417969 11.880859 C 21.157632 12.022122 20.915491 12.024612 20.705078 11.933594 C 20.333254 11.910684 20.215641 11.998589 20.115234 12.011719 C 19.936092 11.869965 19.462217 12.047809 19.349609 12.230469 C 19.330782 12.24916 19.311409 12.266109 19.291016 12.283203 C 19.028191 12.366601 18.721172 12.53198 18.429688 12.511719 C 16.855466 12.3537 16.963676 13.182499 17.308594 13.251953 C 17.726509 13.349653 17.724292 13.140931 18.107422 13.298828 C 18.414806 13.397615 18.871791 13.34163 19.4375 13.171875 C 19.532177 13.169167 19.627663 13.138856 19.732422 13.083984 C 20.087582 12.896975 20.59867 12.364316 21.162109 12.855469 C 21.368119 13.018486 21.395637 13.174346 21.648438 13.148438 C 21.885334 13.138938 21.894385 12.921669 22.050781 12.667969 C 22.51796 12.258028 22.978664 12.828283 23.339844 12.826172 C 23.668197 12.831772 23.780424 12.428819 23.962891 12.248047 C 24.210101 12.053303 24.82197 12.845646 24.855469 12.431641 C 24.863668 12.330277 24.996094 12.25 24.996094 12 C 25.02689 11.542517 24.832947 10.908791 24.761719 10.677734 C 24.706884 10.588078 24.639212 10.548687 24.572266 10.546875 z M 4.2753906 10.837891 C 4.0331983 10.832131 3.8057372 10.926163 3.6699219 11.056641 C 3.2764455 11.434577 3.0991818 11.59375 2.1171875 11.59375 C 1.2443139 11.59375 0 11.716277 0 12 C 0 12.109123 0.83018492 12.197266 1.8339844 12.197266 C 3.1869521 12.197266 3.4928659 12.189162 4.0429688 11.966797 C 4.3390249 11.767335 5.0500008 11.561987 4.8320312 11.064453 C 4.6604229 10.906859 4.4637624 10.842371 4.2753906 10.837891 z M 19.615234 10.904297 C 19.083954 10.917297 17.587205 11.723686 16.412109 11.503906 C 15.726979 11.375756 15.218801 11.50335 14.820312 11.53125 C 14.244587 11.57155 13.930754 11.585596 13.921875 11.853516 C 13.994765 12.191186 14.922844 11.603641 17.492188 11.806641 C 18.755201 11.750341 19.828516 11.18091 19.839844 11.03125 C 19.846844 10.93555 19.763995 10.900657 19.615234 10.904297 z M 12.234375 11.443359 C 11.933773 11.44947 11.68484 11.550841 11.558594 11.728516 C 10.840403 12.941586 12.341298 14.157495 13.203125 13.171875 C 13.921321 12.413705 13.711881 11.955252 12.921875 11.576172 C 12.706413 11.490872 12.491446 11.447359 12.294922 11.443359 C 12.274451 11.442922 12.254415 11.442952 12.234375 11.443359 z M 8.5136719 12.027344 C 8.4377269 12.026028 8.3770588 12.035606 8.34375 12.070312 C 7.7535234 12.685306 7.2759949 12.601211 7.0820312 12.634766 C 5.1059423 13.122848 4.7463061 12.494599 4.5683594 12.619141 C 4.2836467 12.832651 4.8181465 13.047934 4.9726562 13.208984 C 5.2888649 13.495754 5.731158 13.354401 6.25 13.25 C 6.6414687 13.12546 7.1823037 13.125 7.4492188 13.125 C 7.7161338 13.125 8.2061803 12.75388 8.4375 12.59375 C 8.7936433 12.35635 9.549255 12.267018 10.095703 12.205078 C 10.582759 12.149878 9.8473981 12.050611 8.9648438 12.050781 C 8.8091454 12.061906 8.6402469 12.029537 8.5136719 12.027344 z M 15.228516 13.248047 C 15.198565 13.249547 15.177009 13.260009 15.167969 13.28125 C 15.112479 13.41165 15.85701 14.128013 16.046875 14.345703 C 16.311089 14.586262 16.450138 14.643121 16.888672 14.564453 C 16.924039 14.59839 16.985025 14.621094 17.074219 14.621094 C 17.303847 14.635228 17.623903 14.717313 17.898438 14.849609 C 18.040557 14.94483 18.16532 15.045442 18.248047 15.134766 C 18.579734 15.350677 18.615181 15.485974 18.876953 15.480469 C 18.890305 15.492399 18.903895 15.505694 18.917969 15.519531 C 18.930073 15.519531 18.942825 15.519673 18.955078 15.519531 C 19.029701 15.558203 19.119943 15.593372 19.228516 15.625 C 20.45937 15.967712 21.527542 16.850368 21.572266 17.275391 C 21.640746 17.802211 21.846513 18.467553 22.271484 18.892578 C 22.674083 19.272864 22.62017 19.826992 23.074219 19.175781 C 23.449244 18.637911 23.233024 18.667731 22.919922 18.130859 C 22.718618 17.750573 22.539063 17.213749 22.539062 16.945312 C 22.539062 16.27422 21.122877 15.934491 20.363281 15.460938 C 20.056242 15.286981 19.682189 15.069705 19.386719 14.945312 C 19.284702 14.848131 19.138877 14.777344 18.955078 14.777344 C 18.775668 14.777344 18.586506 14.671556 18.427734 14.574219 C 18.300676 14.448908 18.190801 14.318525 18.107422 14.296875 C 17.521365 13.963565 17.022984 13.844422 16.552734 13.777344 C 16.1102 13.658974 15.438173 13.237548 15.228516 13.248047 z M 1.6542969 13.345703 C 1.5099334 13.335655 1.4419041 13.398461 1.5136719 13.478516 C 1.6975458 13.689778 1.7535946 13.814661 1.6582031 13.869141 C 1.5508961 13.930421 1.577532 13.978923 1.7597656 14.048828 C 1.9044936 14.108508 2.100669 14.090788 2.2011719 14.017578 C 2.3016647 13.944368 2.3450917 13.973718 2.4609375 13.955078 C 2.5767443 13.936368 2.8736927 14.317568 3.1191406 14.439453 C 3.4719003 14.57439 3.9543869 14.384723 4.2148438 14.757812 C 4.5229754 15.214382 4.4588776 15.377023 4.0195312 15.216797 C 3.8373321 15.146897 3.6620736 15.199767 3.421875 15.416016 C 3.162943 15.627142 2.9987624 15.672862 2.7910156 15.585938 C 2.6394455 15.514387 2.1710402 15.595169 1.859375 15.630859 C 1.5408878 15.654619 1.2484413 15.278103 1.1582031 15.203125 C 0.91982338 15.007193 0.64762799 15.1948 0.81445312 15.431641 C 0.89617242 15.57474 0.86055586 15.704088 0.6953125 15.830078 C 0.3648818 16.08212 0.46319953 16.199698 1.1035156 16.324219 C 1.6433639 16.411239 2.5184744 16.437348 2.6582031 16.183594 C 2.6973981 16.113774 3.2138293 15.937649 3.3398438 15.992188 C 3.5595169 16.072308 3.9807416 15.981862 4.7949219 15.580078 C 4.992502 15.483048 5.2640682 15.376382 5.3730469 15.345703 C 5.5587977 15.394593 5.6966834 15.414217 5.7988281 15.416016 C 5.8913781 15.462355 5.9881418 15.492754 6.0703125 15.496094 C 6.1453025 15.499094 6.4798762 15.609424 6.7851562 15.490234 C 7.0709288 15.389204 7.4121217 15.291122 7.5058594 15.294922 C 7.8823201 15.272722 8.6533798 14.864807 9.1816406 14.341797 C 9.4697028 14.014307 9.4299386 13.342124 9.0839844 13.746094 C 9.0789844 13.877304 8.848742 14.140073 8.6777344 14.189453 C 8.4872194 14.256853 8.1704775 14.344801 7.9941406 14.525391 C 7.602442 14.922521 6.8893878 15.122215 6.5859375 14.734375 C 6.3883571 14.469973 5.8809003 14.245167 5.5976562 14.683594 C 5.5658234 14.689395 5.5339623 14.695486 5.5 14.703125 C 4.9722252 14.737995 4.5063613 14.192152 4.1113281 13.943359 C 3.1986637 13.341828 3.088369 13.322451 2.7109375 13.384766 C 2.5303862 13.411886 2.30764 13.374462 1.8222656 13.382812 C 1.7596643 13.36176 1.702418 13.349052 1.6542969 13.345703 z M 11.498047 13.365234 C 11.42854 13.360204 11.392507 13.401263 11.382812 13.470703 C 11.367213 13.582213 11.334811 13.808796 11.203125 14.009766 C 11.053634 14.216566 10.88413 14.404636 10.789062 14.566406 C 10.50725 15.045936 10.509754 15.356436 10.173828 15.603516 C 9.8457711 15.973326 9.3993244 16.264287 9.2753906 16.242188 C 9.1711543 16.217188 8.9021351 16.437029 8.6835938 16.730469 C 8.4650423 17.023909 8.240879 17.277532 8.1621094 17.289062 C 8.0833194 17.300563 7.9371848 17.542978 7.859375 17.835938 C 7.8146658 17.986093 7.8082414 18.118728 7.8300781 18.224609 C 7.6016075 18.757023 7.3090846 19.542445 7.1992188 19.826172 C 7.0093875 20.279973 6.7643978 20.672328 6.640625 20.691406 C 6.5344629 20.701426 6.3515428 20.997098 6.2402344 21.34375 C 6.128927 21.690402 6.0001363 22.000904 5.9296875 22.037109 C 5.8592365 22.073309 5.6625676 22.286982 5.6835938 22.587891 C 5.7080408 23.198758 6.6129253 23.74638 6.9160156 23.123047 C 7.0373497 22.88257 6.7731981 22.457888 6.8964844 22.394531 C 7.0373809 22.322121 7.0678902 21.696903 7.1796875 21.394531 C 7.2914819 21.092159 7.4919495 20.78992 7.6152344 20.726562 C 7.7385192 20.663203 7.808921 20.537291 7.7636719 20.449219 C 7.7184279 20.361149 7.8217007 20.173889 7.9882812 20.021484 C 8.1741437 19.858566 8.3225329 19.052448 8.3242188 18.435547 C 8.4023464 18.395907 8.4856944 18.335199 8.5722656 18.248047 C 8.7658402 18.058817 8.988603 17.846958 9.0644531 17.705078 C 9.1395431 17.564648 9.2719493 17.112508 9.4765625 16.861328 C 9.6811857 16.610158 10.053555 16.611967 10.191406 16.591797 C 10.329258 16.571597 10.436283 16.47345 10.421875 16.375 C 10.407475 16.2765 10.879912 16.293875 11.087891 16.203125 C 11.133481 16.184325 11.16914 16.154687 11.197266 16.117188 C 11.308231 16.053387 11.355108 15.884424 11.261719 15.583984 L 11.15625 15.244141 C 11.037886 14.863271 11.419821 14.485382 11.396484 14.414062 C 11.373184 14.342762 11.415115 14.043441 11.59375 13.925781 C 11.945144 13.538921 11.656677 13.431984 11.529297 13.371094 C 11.517936 13.368456 11.507976 13.365953 11.498047 13.365234 z M 13.730469 13.472656 C 13.658824 13.466741 13.637962 13.535884 13.658203 13.679688 L 13.710938 14.0625 C 13.750538 14.34384 13.990606 14.868404 14.332031 15.552734 C 14.373921 15.636634 14.422308 15.756533 14.474609 15.970703 C 14.548099 16.271693 14.996146 16.034858 15.089844 16.080078 C 15.202419 16.155178 15.382812 16.563171 15.382812 16.769531 C 15.382812 16.957131 15.442072 17.133182 15.451172 17.226562 C 15.473272 17.452862 15.472656 17.602234 15.472656 17.808594 C 15.604249 18.274374 15.71308 18.790522 16.371094 18.726562 C 16.727577 18.726562 17.108137 18.061718 16.601562 17.330078 C 16.226322 16.767288 15.504206 16.378285 15.654297 16.078125 C 15.86068 15.684165 15.73917 15.532466 15.378906 15.478516 C 15.178412 15.432116 15.087425 15.713889 14.703125 14.949219 C 14.623835 14.791429 14.571006 14.536024 14.416016 14.308594 C 14.209633 14.177274 14.099734 13.707207 13.992188 13.623047 C 13.871248 13.528398 13.786192 13.477257 13.730469 13.472656 z M 20.324219 13.542969 C 19.995549 13.536338 19.5695 13.771275 20.064453 13.951172 L 20.621094 14.152344 C 21.445254 14.451894 21.739993 14.968381 22.414062 15.050781 C 23.305135 15.19388 23.371295 16.11552 23.960938 16.335938 C 24.450892 16.533299 25.011767 14.856697 24.5625 14.574219 C 24.339393 14.449086 23.967783 14.823785 23.853516 14.818359 C 23.742303 14.845149 23.584494 14.713515 23.490234 14.576172 C 23.292554 14.204845 22.479722 14.144828 22.228516 14.304688 C 22.035235 14.462616 21.451835 13.762512 20.455078 13.560547 C 20.415 13.548888 20.371171 13.543916 20.324219 13.542969 z M 16.962891 15.195312 C 16.830386 15.19993 16.696698 15.251054 16.599609 15.339844 C 16.573752 15.363488 16.54424 15.458762 16.525391 15.576172 C 16.497697 15.627841 16.491125 15.69325 16.505859 15.771484 C 16.501208 15.898838 16.513513 16.02273 16.556641 16.09375 C 16.665257 16.272572 16.942632 16.723522 17.007812 16.902344 C 17.116944 17.216016 17.759174 17.312204 18.113281 17.1875 C 18.135479 17.294216 18.078207 17.41917 17.953125 17.583984 C 17.864995 17.695992 18.530511 19.524315 18.6875 19.615234 C 18.73978 19.645544 18.852789 19.571206 18.933594 19.431641 C 19.095203 19.15251 19.724679 19.192226 20.078125 19.466797 C 20.197474 19.582502 20.457279 20.057889 20.644531 20.539062 C 20.831782 21.020225 21.061703 21.386789 21.171875 21.357422 C 21.355155 21.300622 21.701577 21.014809 21.714844 20.857422 C 21.726234 20.722305 21.428836 20.721513 21.291016 20.587891 C 21.12944 20.424445 21.084512 20.143202 21.185547 19.96875 C 21.296659 19.776854 21.176987 19.217503 20.898438 18.613281 C 20.436726 17.600437 20.436322 17.601449 19.773438 17.660156 C 19.210636 17.706936 19.096044 17.662272 19.025391 17.341797 C 18.991401 17.159085 18.80461 16.958161 18.634766 16.929688 C 18.464921 16.901197 18.187031 16.578365 18.011719 16.197266 C 17.810463 15.740209 17.67171 15.554468 17.414062 15.480469 C 17.330977 15.275711 17.14862 15.18884 16.962891 15.195312 z M 13.011719 15.367188 C 12.992199 15.366466 12.958973 15.369141 12.896484 15.369141 C 12.646517 15.369141 12.702442 15.796182 12.632812 16.044922 C 12.621113 16.365232 12.297281 16.083053 12.259766 16.439453 C 12.184676 17.021013 12.110447 17.095703 11.660156 17.095703 C 11.42293 17.095703 10.942126 17.367108 10.544922 17.716797 C 10.392441 17.811071 10.242107 17.931057 10.121094 18.046875 C 9.6364992 18.765378 9.3910253 19.710456 9.4589844 20.439453 C 9.5806285 21.311307 9.5406476 21.43321 8.9121094 22.082031 C 8.3444598 22.670024 8.2835886 22.833513 8.4863281 23.21875 C 8.6079721 23.482333 8.0590617 23.849976 8.0996094 24.052734 C 8.1401444 24.275766 8.9537917 24.495813 9.0957031 24.556641 C 9.2781641 24.617461 9.48344 24.530217 9.4023438 24.185547 C 9.3212748 23.84086 9.3255512 23.609285 9.609375 23.345703 C 9.8526521 23.12267 9.9453125 22.751585 9.9453125 22.548828 C 9.9453125 21.879732 9.9975652 21.909945 10.302734 21.658203 C 10.662438 21.361474 10.771206 21.11744 10.746094 20.855469 C 10.664914 20.551334 10.678018 20.43304 10.617188 20.128906 C 10.556387 19.824771 10.491421 19.410637 10.371094 19.041016 C 10.326704 18.935345 10.488678 18.721059 10.681641 18.494141 C 10.868067 18.294921 11.063419 18.060528 11.226562 17.839844 C 11.293453 17.749344 11.355759 17.632813 11.505859 17.632812 C 11.843575 17.632812 11.57251 18.201303 11.40625 18.845703 C 11.276255 19.365642 11.35801 19.658241 11.40625 19.763672 C 11.309851 20.216289 11.400725 21.002461 11.646484 21.267578 C 11.855624 21.525405 12.034672 21.694104 12.091797 21.806641 C 12.285133 22.187524 12.401012 22.631963 12.253906 22.753906 C 11.959898 23.101191 11.769851 23.33796 11.816406 23.515625 C 11.836286 23.71176 11.26416 24.335603 11.089844 24.4375 C 10.654053 24.692243 11.248211 25 12.498047 25 C 13.247949 25 13.540253 24.604025 13.058594 24.330078 C 12.907758 24.272058 12.964352 24.121428 13.138672 24.019531 C 13.356567 23.892159 13.345996 23.724325 13.166016 23.566406 C 12.951503 23.39943 12.975878 23.239091 13.224609 23.064453 C 13.494756 22.913816 13.212368 22.679824 13.304688 22.443359 C 13.407537 22.234509 13.229108 21.351305 12.695312 21.208984 C 12.004812 21.02788 12.365147 20.669431 12.412109 20.349609 C 12.423849 20.022146 12.312008 19.795316 12.330078 19.621094 C 12.344948 19.477697 12.342938 19.370209 12.328125 19.289062 C 12.414309 18.883425 12.502739 18.218156 12.535156 17.488281 C 12.572646 16.756641 13.069829 16.570773 13.201172 16.439453 C 13.313737 16.326893 13.289446 15.887788 13.160156 15.673828 C 12.997953 15.405418 13.070277 15.369352 13.011719 15.367188 z M 5.6660156 16.046875 C 5.4438138 16.046875 5.110134 16.190377 4.9355469 16.380859 C 4.7450889 16.555469 4.5078318 16.73022 4.3808594 16.746094 C 4.2538881 16.761964 3.9685415 16.888885 3.7304688 17 C 3.270195 17.222231 3.1110245 17.792969 3.5078125 17.792969 C 3.6347839 17.792969 3.8415307 17.841052 3.984375 17.888672 C 4.1748331 17.952162 4.2382812 17.888495 4.2382812 17.650391 C 4.2382812 17.459908 4.3339646 17.316406 4.4609375 17.316406 C 4.5879099 17.316406 4.9999433 17.03086 5.3808594 16.681641 C 6.0315911 16.078444 6.0469317 16.062749 5.6660156 16.046875 z M 7.5332031 16.398438 C 6.9057124 16.382685 5.9339128 17.67127 5.3144531 18.646484 C 4.9121008 19.002026 3.8261689 19.1239 3.5957031 18.992188 C 3.4803962 18.909868 3.23492 18.84375 3.0703125 18.84375 C 2.8892143 18.84375 2.6079798 18.728251 2.4433594 18.580078 C 2.1799649 18.316649 2.1475901 18.316649 2.0488281 18.580078 C 1.9007395 18.958757 2.2954932 19.386734 2.7070312 19.271484 C 2.9374971 19.205614 3.1528861 19.305772 3.3339844 19.552734 C 3.5809021 19.865555 3.6618334 19.882278 3.9746094 19.701172 C 4.1557076 19.585917 4.3537891 19.503343 4.3867188 19.552734 C 4.4197048 19.585664 4.3859264 20.012771 4.2871094 20.490234 C 4.0731084 21.609806 3.9683538 21.761162 4.2949219 21.804688 C 4.4670563 21.785097 4.6835938 21.499177 4.6835938 21.400391 C 4.6835938 21.285136 4.8311814 20.886183 5.078125 20.705078 C 5.3415205 20.507507 5.4779577 20.023758 5.6425781 19.710938 C 5.7906677 19.414582 6.1637836 19.139527 6.2460938 19.007812 C 6.5094892 18.546814 7.6760602 16.503084 7.59375 16.404297 C 7.5742518 16.401022 7.5534448 16.398946 7.5332031 16.398438 z M 13.746094 17.621094 C 13.5529 17.621487 13.362227 18.095006 13.439453 18.455078 C 13.505543 18.680122 13.277416 19.793317 13.484375 20.080078 C 13.550447 20.164414 13.62782 20.215244 13.710938 20.238281 C 13.711524 20.23955 13.712298 20.240929 13.712891 20.242188 C 14.007632 20.797085 14.318834 22.011218 14.353516 22.6875 C 14.405476 24.421554 14.418628 24.651579 14.748047 24.738281 C 14.956112 24.790301 15.697446 24.641984 15.992188 24.3125 C 16.512348 23.705581 16.087 23.536974 15.740234 23.242188 C 15.51483 23.068782 15.514632 22.98229 15.722656 22.6875 C 15.930706 22.392711 15.932243 22.271404 15.689453 21.837891 C 15.516071 21.560442 15.340834 21.333984 15.271484 21.333984 C 15.184774 21.333984 15.132812 21.143396 15.132812 20.917969 C 15.132812 20.692544 15.011691 20.416305 14.873047 20.294922 C 14.734235 20.173534 14.613281 19.825801 14.613281 19.513672 C 14.613281 19.432236 14.605244 19.34211 14.587891 19.25 C 14.588948 19.168957 14.58159 19.084634 14.564453 19 C 14.476963 18.522778 13.950854 17.805541 13.876953 17.703125 C 13.835384 17.645517 13.790677 17.621003 13.746094 17.621094 z M 16.085938 19.234375 C 15.853593 19.250865 15.64426 19.429151 15.5625 19.535156 C 15.414507 19.715786 15.454048 19.910674 15.666016 20.074219 C 15.87007 20.21431 16.106023 20.605278 16.208984 20.910156 C 16.399066 21.473008 16.398354 21.472655 16.599609 20.908203 C 16.769806 20.406541 16.809505 20.444637 17.173828 21.523438 C 17.364218 22.164569 17.727066 22.930037 17.947266 23.195312 C 18.33255 23.639969 18.356896 23.632823 18.613281 23.154297 C 18.799629 22.777817 18.759722 22.503395 18.460938 22.160156 C 18.224891 21.847979 18.120769 21.465946 18.181641 21.027344 C 18.311615 20.251866 17.602898 19.31401 17.173828 19.667969 C 17.033447 19.79378 16.643876 19.46001 16.322266 19.28125 C 16.243843 19.242422 16.163386 19.228878 16.085938 19.234375 z M 19.238281 20.365234 C 19.09759 20.369099 18.934005 20.534139 18.84375 20.832031 C 18.76554 21.070046 18.855777 21.291737 19.111328 21.472656 C 19.336816 21.63229 19.563991 21.95055 19.603516 22.181641 C 19.688816 22.603112 19.728184 22.609284 20.144531 22.339844 C 20.748701 21.932559 20.755296 21.892847 20.345703 21.738281 C 20.163454 21.676961 19.996666 21.468206 19.976562 21.273438 C 19.971463 21.089308 19.868212 20.948438 19.746094 20.929688 C 19.639007 20.921588 19.508662 20.784131 19.462891 20.59375 C 19.419592 20.434743 19.334544 20.36259 19.238281 20.365234 z " />
</svg>
