<?xml version="1.0" encoding="UTF-8" standalone="no"?>
<!-- Created with Inkscape (http://www.inkscape.org/) -->

<svg
   width="5"
   height="5"
   id="svg2"
   version="1.1"
   xmlns="http://www.w3.org/2000/svg"
   xmlns:svg="http://www.w3.org/2000/svg"
   xmlns:rdf="http://www.w3.org/1999/02/22-rdf-syntax-ns#"
   xmlns:cc="http://creativecommons.org/ns#"
   xmlns:dc="http://purl.org/dc/elements/1.1/">
  <defs
     id="defs4" />
  <metadata
     id="metadata7">
    <rdf:RDF>
      <cc:Work
         rdf:about="">
        <dc:format>image/svg+xml</dc:format>
        <dc:type
           rdf:resource="http://purl.org/dc/dcmitype/StillImage" />
      </cc:Work>
    </rdf:RDF>
  </metadata>
  <path
     id="path4-1-6-2-0-5-3"
     style="fill:#000000;stroke:none;stroke-width:0.0140734"
     d="M 2.3613281 0 C 1.8994758 0.017003164 1.0379987 0.3727925 0.93359375 0.609375 C 0.80860375 0.892645 1.08698 1.1957681 1.28125 1.1738281 C 1.3998 1.1491281 1.3103344 0.97163312 1.3027344 0.81445312 C 1.2823344 0.65161313 1.4534281 0.58102125 1.7988281 0.42578125 C 2.3333781 0.25550125 2.6924363 0.29329438 2.6289062 0.70898438 C 2.5357063 1.1490243 2.81198 1.0092162 2.84375 0.78515625 C 2.8574735 0.6621946 2.8857167 0.56017993 2.9082031 0.47460938 C 2.9854342 0.46494693 3.0890291 0.44039551 3.1757812 0.48828125 C 3.3150213 0.56518125 3.5086025 0.70125 3.6015625 0.875 C 3.6816625 1.04552 3.8542113 1.2006725 3.9570312 1.2265625 C 4.1884313 1.2847625 4.5021244 1.6040875 4.0839844 2.2109375 C 3.7001537 2.7899651 3.9902769 2.7761465 4.3964844 2.2539062 C 4.3972259 2.2534034 4.397707 2.2524274 4.3984375 2.2519531 C 4.5340602 2.1639012 4.4805202 2.5666151 4.4941406 2.6601562 C 4.4991406 3.2051063 4.1190156 2.9913244 4.1660156 3.2089844 C 4.2257156 3.5356444 4.0764125 3.7614319 3.7890625 4.0136719 C 3.5461625 4.1773819 3.4055881 4.3003644 3.1425781 4.3027344 C 2.8693281 4.2850344 2.6171894 4.238635 2.5996094 4.171875 C 2.5591094 4.018255 2.4582169 4.0004319 2.4042969 4.0449219 C 2.4017454 4.0465347 2.3992649 4.0487642 2.3964844 4.0507812 C 2.3937583 4.0530495 2.3912576 4.0556329 2.3886719 4.0585938 C 2.3867678 4.0601271 2.384815 4.0607973 2.3828125 4.0625 C 2.3415487 4.0975869 2.2782237 4.1684825 2.1835938 4.2890625 C 1.9531037 4.4706825 1.5553156 4.3638425 1.5097656 3.9765625 C 1.4837656 3.7551125 1.4147913 3.5331987 1.3320312 3.5429688 C 1.317225 3.5446854 1.301538 3.5607172 1.2890625 3.5878906 C 1.2087085 3.6547912 0.85306748 4.0397542 0.7578125 3.5742188 C 0.6332925 3.0707487 0.80273 2.78238 0.65625 2.9375 C 0.57343384 3.0251425 0.52038658 3.132764 0.4921875 3.25 C 0.44708065 3.0435535 0.39410446 2.813924 0.3828125 2.6914062 C 0.3549125 2.4462662 0.34983188 2.0724406 0.45117188 1.9941406 C 0.55459187 1.9324406 0.73409687 1.648765 0.71679688 1.515625 C 0.69086688 1.315855 0.60019875 1.2612413 0.32421875 1.4257812 C 0.06653875 1.5883412 -0.0528625 2.3172825 0.0234375 2.8828125 C 0.075905184 3.2637517 0.32500437 3.6219931 0.48242188 3.6699219 C 0.52108868 3.9098007 0.62528236 4.1414626 0.7578125 4.2910156 C 0.94818124 4.4879637 1.1525307 4.4158475 1.2578125 4.2578125 C 1.3102493 4.6104657 1.4043803 4.7302189 1.6621094 4.8417969 C 1.894331 4.9258521 2.1595249 4.789836 2.3242188 4.6367188 C 2.3372452 4.7669815 2.3652875 4.8738842 2.4082031 4.9003906 C 2.5406931 5.0143206 2.8507475 5.0498931 3.1484375 4.8457031 C 3.7156075 4.8043031 3.9782369 4.5028238 4.1855469 4.3398438 C 4.4814669 4.1072337 4.7771375 3.6745794 4.9296875 3.0683594 C 5.1013175 2.3863694 4.9181725 2.0196487 4.8203125 2.0429688 C 4.6116849 2.0885666 4.7280312 1.7706103 4.7519531 1.6757812 C 4.8060386 1.5027044 4.7248457 1.4158057 4.5976562 1.1679688 C 4.4307862 0.96194879 4.2083188 0.80714 4.1054688 0.78125 C 4.0154688 0.75865 3.9063894 0.600155 3.8808594 0.484375 C 3.8619188 0.28045046 3.15869 0.11999891 2.9160156 0.20507812 C 2.8724207 0.13100283 2.762672 0.073241034 2.53125 0.015625 C 2.484955 0.0028875 2.427307 -0.0024290234 2.3613281 0 z M 1.9960938 1.1230469 C 1.934738 1.1272164 1.8620462 1.1541063 1.796875 1.1992188 C 1.565155 1.3596088 1.6933844 1.4466906 2.0214844 1.3378906 C 2.1404944 1.2994906 2.173545 1.2251369 2.109375 1.1542969 C 2.0854875 1.1303219 2.0438149 1.1198039 1.9960938 1.1230469 z M 2.8945312 1.234375 C 2.8530137 1.2357469 2.8200155 1.2452301 2.8066406 1.2578125 C 2.8050889 1.2598606 2.8034957 1.2652731 2.8027344 1.2675781 C 2.7654423 1.4211378 2.9248891 1.5098576 3.1289062 1.4648438 C 3.2745363 1.4241438 3.3713156 1.4678875 3.5097656 1.6484375 C 3.6096656 1.7896175 3.726905 1.8569594 3.765625 1.8183594 C 3.893205 1.6957294 3.5317487 1.3630344 3.1679688 1.2714844 C 3.0605425 1.2444281 2.962469 1.2321301 2.8945312 1.234375 z M 1.4902344 2.1542969 C 1.4253885 2.1625215 1.2912813 2.2971109 1.1757812 2.5585938 C 1.1105813 2.6773937 1.058295 2.9133606 1.078125 2.9941406 C 1.150125 3.3888306 2.1032338 3.4018463 2.1835938 3.1601562 C 2.2349938 3.0056462 2.0417831 3.2047625 1.4082031 3.1015625 C 1.1963731 3.0670625 1.2228069 2.7746712 1.3105469 2.6132812 C 1.5480156 2.2980853 1.5637264 2.1449757 1.4902344 2.1542969 z M 3.21875 2.4453125 C 3.1759416 2.4436942 3.1474044 2.4707956 3.1464844 2.5332031 C 3.1458644 2.6126031 3.3309313 2.79115 3.3945312 3 C 3.4866312 3.42524 2.9582 3.6488162 2.6875 3.6914062 C 2.5681 3.7026063 2.6176 3.8798681 2.84375 3.8925781 C 3.31525 3.9331781 3.7074925 3.3152413 3.6640625 3.0507812 C 3.6087875 2.7141513 3.3471753 2.4501673 3.21875 2.4453125 z " />
</svg>
