<?xml version="1.0" encoding="UTF-8" standalone="no"?>
<!-- Created with Inkscape (http://www.inkscape.org/) -->

<svg
   width="25"
   height="25"
   id="svg2"
   version="1.1"
   xmlns="http://www.w3.org/2000/svg"
   xmlns:svg="http://www.w3.org/2000/svg"
   xmlns:rdf="http://www.w3.org/1999/02/22-rdf-syntax-ns#"
   xmlns:cc="http://creativecommons.org/ns#"
   xmlns:dc="http://purl.org/dc/elements/1.1/">
  <defs
     id="defs4" />
  <metadata
     id="metadata7">
    <rdf:RDF>
      <cc:Work
         rdf:about="">
        <dc:format>image/svg+xml</dc:format>
        <dc:type
           rdf:resource="http://purl.org/dc/dcmitype/StillImage" />
      </cc:Work>
    </rdf:RDF>
  </metadata>
  <path
     id="path4707-7-60"
     style="fill:#000000"
     d="M 12 0 C 10.671787 0.037230425 9.9319535 0.21240838 9.5898438 0.40039062 C 8.6700754 0.43899078 7.8327782 1.1748516 7.75 1.9160156 C 7.6690028 2.6408976 6.8238344 3.000071 6.0996094 2.953125 C 5.4082334 2.903415 4.5166935 3.1274409 4.1660156 3.2792969 C 3.1936293 3.9145629 3.8054113 5.8433819 3.0117188 6.4667969 C 2.3175527 6.7727939 1.9735402 6.829956 1.7792969 6.703125 C 1.6578311 6.46477 0.63395419 6.4849913 1.3496094 7.1445312 C 1.8637716 7.5172622 1.8546795 7.5859499 1.2441406 8.0761719 C 0.65396111 8.5312848 -1.4802974e-16 10.5 0 12.25 C 0 13.5 0.26431074 14.398849 0.55664062 15.164062 C 0.8491605 15.966135 1.0659588 16.829963 1.03125 17.140625 C 0.9965512 17.451283 1.2019829 17.789239 1.4648438 17.923828 C 1.7238448 18.092931 1.9411543 18.327407 1.921875 18.5 C 1.879476 18.8797 2.5347825 20.314753 2.9121094 20.357422 C 3.0836335 20.376822 3.7240375 20.038084 4.0292969 19.792969 C 4.3345664 19.547855 4.1060767 19.116055 3.5722656 19.230469 C 2.7447442 19.486431 2.8668056 19.061425 3.6796875 18.314453 C 4.1071327 17.908386 4.3628112 17.482378 4.2714844 17.367188 C 4.1800875 17.251994 3.848089 17.424769 3.53125 17.773438 C 3.0579464 18.279181 2.8967264 18.171618 2.4511719 17.806641 C 2.1655618 17.564616 1.8829753 17.059402 1.9824219 16.791016 C 2.0475196 16.518744 1.5591479 15.854103 1.2246094 15.117188 C 0.69235785 13.97342 0.28533585 13.065994 0.70703125 11.15625 C 0.97918184 9.963631 1.36265 8.9666911 1.7050781 8.5644531 C 3.6172819 6.3182293 3.9249853 7.0220307 4.2402344 3.953125 C 4.3005324 3.365761 6.5609397 3.9573181 7.4003906 3.2832031 C 8.1292554 2.6665422 8.5650134 2.1336051 8.6074219 1.7539062 C 8.6652199 1.2361343 9.486729 1.0504366 9.890625 1.1660156 C 10.225943 1.2738416 10.28269 2.4067701 10.244141 2.7519531 C 10.201741 3.131653 10.231603 3.4994879 10.429688 3.5917969 C 10.65825 3.7225059 10.883223 3.573026 10.914062 3.296875 C 10.948762 2.9862181 10.47174 2.674015 10.609375 2.375 C 10.756626 2.0763746 10.940182 1.2679916 10.675781 0.81445312 C 12.103308 0.43643089 13.074275 0.83783101 13.902344 0.85546875 C 14.752114 0.87354875 15.54381 1.0730809 14.914062 1.3730469 C 14.686711 1.4813429 14.498047 1.8980922 14.498047 2.3320312 C 14.534247 2.9467793 14.769398 3.2015754 14.914062 2.6953125 C 15.131025 1.8997565 15.365357 1.1086826 16.486328 1.9765625 C 17.173375 2.5189865 17.324838 2.8019601 17.794922 2.5488281 C 18.771258 2.0425651 19.529406 2.7081655 20.740234 3.8027344 C 21.535757 4.5259673 22.083984 5.6685709 22.083984 6.1386719 C 22.120184 6.6087729 22.496877 7.8031635 22.822266 8.4902344 C 23.220032 9.3219524 23.522373 10.352387 23.630859 12.992188 C 23.648559 13.86301 23.808249 14.429568 22.539062 15.646484 C 22.059199 16.1066 23.127274 16.540895 22.0625 18.226562 C 21.633905 18.905078 21.099941 19.660042 20.666016 19.804688 C 19.436558 20.166304 18.699271 20.513755 18.626953 21.634766 C 18.594153 22.278308 17.344134 22.518814 16.837891 22.193359 C 16.657088 22.084874 15.923828 21.46208 15.923828 22.279297 C 15.923828 23.183338 14.661309 23.317998 13.328125 23.568359 C 12.539042 23.741153 11.50272 22.97952 9.2246094 22.943359 C 7.9711728 22.895609 6.1485413 22.475908 6.0039062 22.078125 C 5.8317122 21.685493 5.92357 21.316677 6.2246094 21.302734 C 6.6219457 21.284334 7.6998381 21.062789 8.1699219 20.701172 C 8.8931268 20.122586 8.9652368 19.977684 8.4589844 19.796875 C 8.1335456 19.652229 7.62623 19.760542 7.3007812 20.013672 C 7.0115013 20.266804 6.5511125 20.569364 6.1171875 20.533203 C 5.6832625 20.460883 5.2628968 20.785873 5.0097656 21.111328 C 4.6481681 21.545268 4.0442507 21.137009 3.6464844 20.775391 C 3.2125595 20.413775 3.3153182 21.134878 4.0761719 21.880859 C 4.8715144 22.613723 6.4652357 23.905418 7.2246094 23.724609 C 10.422378 24.203879 10.500052 25 12 25 C 12.999965 25 14.275163 24.828125 14.564453 24.828125 C 14.853733 24.828125 16.499824 24.349611 16.777344 24.21875 C 18.05888 23.614477 18.834782 23.620984 19.921875 22.898438 C 20.801284 22.313931 20.02453 21.648958 21.150391 21.169922 C 21.657203 20.954282 22.399057 20.417713 22.869141 19.513672 C 23.303066 18.609632 23.80414 17.855447 24.09375 17.044922 C 24.492836 15.993939 25.015029 14.136036 25 13.5 C 25.015 12.886036 24.838955 12.709504 24.730469 12.058594 C 24.658169 11.371523 24.477617 10.684714 24.369141 10.503906 C 24.260654 10.323098 24.368976 9.8538609 24.585938 9.4199219 C 24.947536 8.769012 24.87561 8.5153117 24.080078 7.6835938 C 23.573835 7.1411688 23.261191 6.2592751 23.140625 5.7675781 C 22.864065 4.6396772 19.235648 0.99574849 17.572266 1.4296875 C 16.776743 1.6104965 16.196263 1.1029718 16.232422 0.56054688 C 16.232422 0.37973888 15.509477 0.26947389 14.605469 0.34179688 C 13.448339 0.41411687 13.001115 0.048316997 12 0 z M 6.59375 4.6152344 C 6.4375829 4.6149114 6.2180529 4.7127529 5.9941406 4.9042969 C 5.7725583 5.0826419 5.6270048 5.4366197 5.6953125 5.6660156 C 5.7326112 5.9171196 5.5235307 6.179074 5.2011719 6.3125 C 4.6138022 6.562288 4.287339 7.1835605 4.7089844 7.2578125 C 5.183318 7.3413425 6.1481122 6.3427072 6.1757812 5.7226562 C 6.1837813 5.3707784 6.3125685 5.0951879 6.4707031 5.1230469 C 6.6288176 5.1508869 6.7834314 5.0419252 6.8066406 4.9101562 C 6.8414396 4.7125043 6.7499171 4.6155574 6.59375 4.6152344 z M 17.660156 5 C 17.408922 4.997435 17.205966 5.0645329 17.037109 5.1757812 C 16.417731 5.5838623 16.375098 5.9079619 17.787109 5.6855469 C 18.719277 5.538715 18.607995 6.2863925 18.933594 6.3046875 C 19.418017 6.3474875 19.689799 6.8368399 19.980469 7.3085938 C 20.117134 7.7152367 20.161493 8.0769408 20.0625 8.4492188 C 19.931234 8.8281527 19.786693 9.1339695 19.685547 9.1328125 C 19.452895 9.1302125 19.368318 9.2796079 19.410156 9.3730469 C 19.458856 9.5673408 20.341796 9.8194934 20.494141 9.6777344 C 20.706533 9.5349784 20.707285 9.1400001 20.703125 8.6113281 C 20.696126 7.7784882 20.542053 7.3072829 20.392578 6.9511719 C 20.179246 6.442869 19.685275 5.8574479 18.888672 5.40625 C 18.384588 5.1207211 17.983171 5.0032978 17.660156 5 z M 10.410156 5.4082031 C 10.348056 5.4056031 10.27391 5.424105 10.177734 5.453125 C 9.9682018 5.516305 10.101175 5.7284935 10.171875 6.0859375 L 10.701172 8.7207031 C 10.863956 9.533407 11.558154 10.731107 11.931641 11.501953 C 11.971341 11.583853 11.768727 11.64522 11.699219 11.605469 C 11.211206 11.326365 9.5026606 10.530635 9.0292969 10.433594 C 8.5562033 10.357274 6.5799086 9.330107 6.25 9.25 C 5.845974 9.142263 5.7189997 9.833404 6 10 L 6.6328125 10.375 C 6.8627145 10.511301 7.3441049 10.895379 7.7382812 10.884766 C 8.0966089 10.875066 8.4794294 10.770046 8.75 11 C 8.9649226 11.182684 10.566248 11.816295 11.412109 12.072266 C 11.418109 12.074066 11.414203 12.089584 11.408203 12.089844 C 8.5628922 12.210258 7.539393 12.808839 6.9765625 12.931641 C 6.7705896 12.963661 6.543251 13.046878 6.4648438 13.119141 C 6.3863468 13.191421 6.1896499 13.099171 5.6796875 13.410156 C 5.2660019 13.687335 5.4559374 13.624101 5.3261719 13.75 C 4.9238158 14.697843 5.3713827 14.428017 5.75 14 C 5.9618927 13.82659 6.4560259 13.695241 6.625 13.533203 C 6.8994505 13.28029 9.4794615 12.596728 10.001953 12.740234 C 10.294573 12.834374 11.135065 12.713167 11.421875 12.742188 C 11.479675 12.747988 11.530074 12.865466 11.486328 12.902344 C 11.366142 13.003658 11.149954 13.060169 10.957031 13.228516 C 9.4999619 14.500011 8.1983531 15.707919 8 16.25 C 7.624173 17.433316 8.8761072 16.095503 10.078125 14.859375 C 10.549599 14.398292 11.272763 13.499978 11.662109 13.162109 C 11.747609 13.087919 11.925368 13.268478 11.917969 13.378906 C 11.876769 13.994705 11.615601 15.233648 11.521484 15.994141 C 11.35356 17.195289 11.128998 17.958321 10.830078 18.111328 C 10.471621 18.28916 10.46817 18.347737 10.841797 18.373047 C 11.073619 18.359857 11.515456 18.216876 11.816406 18.035156 C 12.209422 17.773062 12.317698 17.46144 12.212891 16.876953 C 12.132891 16.351895 12.213897 16.011788 12.486328 15.828125 C 12.816066 15.648354 12.822517 15.532828 12.542969 15.398438 C 12.374465 15.329228 12.178417 14.995082 12.246094 14.685547 C 12.36496 14.141968 12.242091 13.735146 12.384766 13.537109 C 12.488553 13.392609 12.781931 13.267924 12.916016 13.414062 C 13.314452 13.848304 14.018404 14.974532 15.832031 17.236328 C 17.060169 18.601839 16.986966 18.01769 17.107422 17.835938 C 17.332234 17.496641 16.74019 17.514096 15.507812 15.664062 C 14.757138 14.537121 13.711218 13.571897 13.294922 13.070312 C 13.193015 12.947529 13.413717 12.734211 13.533203 12.730469 C 14.097803 12.712789 15.207369 12.821039 16.068359 13.191406 C 17.092793 13.632061 17.593007 14.074108 17.726562 13.695312 C 17.755163 13.390747 17.700875 13.144248 15.378906 12.498047 C 14.709959 12.319148 14.042479 12.486647 13.632812 12.384766 C 13.474749 12.345456 13.306557 12.064794 13.445312 11.947266 C 13.967384 11.505065 15.13802 11.141493 15.253906 10.814453 C 15.359232 10.459376 15.640014 10.099518 15.927734 9.9140625 C 16.217994 9.7269835 16.413798 9.4937431 16.949219 9.4394531 C 16.951219 9.4394061 16.954078 9.4418063 16.955078 9.4414062 C 17.338705 9.4180862 17.583104 9.4534756 17.791016 9.3535156 C 17.894973 9.3034456 18.049388 9.1268165 18.085938 9.0859375 C 18.122338 9.0450675 18.116788 9.03269 18.117188 9.03125 L 18.119141 9.0292969 C 18.105441 8.9635869 18.075138 8.9223186 18.023438 8.8847656 C 17.971637 8.8472256 17.892162 8.8148581 17.785156 8.7988281 C 17.570933 8.7673481 17.146773 8.7045644 16.796875 8.8027344 C 16.096969 8.9993394 15.360388 9.5445921 14.755859 10.128906 C 14.466179 10.408925 13.466279 11.208849 12.978516 11.625 C 12.891516 11.67388 12.727092 11.616293 12.744141 11.533203 C 12.789441 11.343515 12.959857 11.122677 13.064453 10.822266 C 13.173569 10.650279 13.389033 10.286742 13.419922 9.9238281 C 13.356922 9.6427441 13.231832 8.6396778 13.509766 7.9355469 C 13.849135 7.0774519 14.84155 6.5060168 14.740234 6.1523438 C 14.152874 5.8166737 13.56304 5.7271315 13.470703 6.6328125 C 13.042608 7.6692594 12.640604 9.2759337 12.847656 9.6816406 C 12.968182 9.9178626 12.694285 10.559065 12.585938 10.955078 C 12.525337 11.176716 12.543032 11.365959 12.472656 11.474609 C 12.439456 11.525939 12.316321 11.512694 12.294922 11.458984 C 11.998596 10.715423 11.539895 9.3789115 11.289062 8.1660156 C 11.146857 7.6284367 10.946625 6.7220661 10.8125 6.2050781 C 10.663395 5.6050482 10.596479 5.4160611 10.410156 5.4082031 z M 4.1953125 10.023438 C 4.0453454 10.033373 3.6736455 10.482794 3.3339844 11.363281 C 3.1484709 11.750367 3.0001426 12.519985 3.0566406 12.783203 C 3.1006391 13.748005 4.2021901 14.284287 4.3652344 14.107422 C 4.5683074 13.88714 4.3064948 13.747569 3.8320312 13.396484 C 3.3341085 13.02805 3.3557473 12.023894 3.6054688 11.498047 C 4.2416568 10.531436 4.3486596 10.042447 4.2089844 10.023438 C 4.2046195 10.022843 4.2001501 10.023117 4.1953125 10.023438 z M 20.650391 10.945312 C 20.577926 10.947479 20.503432 10.952661 20.425781 10.962891 C 19.58709 11.013641 19.023178 11.666662 20.082031 12.544922 C 20.609693 12.956322 20.522223 12.815226 20.275391 12.441406 C 20.03216 12.122996 20.235634 11.895607 20.365234 11.748047 C 20.520879 11.570967 20.969224 11.669315 21.197266 12.183594 C 21.436048 12.864194 21.34464 13.295835 20.738281 13.390625 C 20.242838 13.478225 20.17796 13.778838 20.414062 13.986328 C 20.591136 14.141948 20.38811 14.672098 19.947266 15.173828 C 19.506351 15.675548 18.833093 15.633045 18.759766 15.359375 C 18.689966 15.141145 18.516962 15.039697 18.361328 15.216797 C 18.231642 15.364357 18.168785 15.674917 18.208984 15.867188 C 18.627509 17.176517 21.581884 15.065145 21.962891 13.203125 C 22.236228 11.776091 21.737366 10.912813 20.650391 10.945312 z M 20.21875 16.935547 C 20.06069 16.948926 19.841744 17.142811 19.550781 17.648438 C 19.216173 18.219102 18.577242 19.21602 18.019531 19.236328 C 17.360404 19.260338 16.998301 19.468763 16.988281 19.822266 C 16.972481 20.377752 17.400467 20.202061 18.75 19.404297 C 19.687488 18.659372 20.552721 18.214581 20.550781 17.609375 C 20.549594 17.280807 20.44976 16.915993 20.21875 16.935547 z M 6.7910156 17.880859 C 6.608855 17.881867 6.2836439 18.021844 5.7851562 18.296875 C 5.2351152 18.571907 4.8821341 18.806412 5 18.845703 C 5.1178659 18.845703 5.5094573 18.925325 5.9023438 19.003906 C 6.2952401 19.082486 6.7278371 18.886587 6.8457031 18.572266 C 7.022502 18.10815 7.0252222 17.879564 6.7910156 17.880859 z M 14.427734 18.888672 C 14.191941 18.885655 13.994022 18.997199 13.888672 19.273438 C 13.743877 19.683333 13.865317 19.813406 14.417969 19.765625 C 14.858854 19.734405 15.162519 19.861109 15.119141 20.107422 C 15.081941 20.318562 14.896819 20.655746 14.544922 20.59375 C 14.157835 20.52555 13.770976 20.760899 13.363281 21.015625 C 12.736442 21.485959 11.975463 21.416765 11.652344 20.779297 C 11.306436 20.065261 10.866084 19.538558 10.779297 20.03125 C 10.748697 20.207259 10.830855 20.845898 11.126953 21.224609 C 11.712973 22.017253 13.52973 22.274003 13.628906 21.710938 C 13.659506 21.534928 14.084267 21.163002 14.691406 21.181641 C 15.403311 21.203551 16.228842 20.706711 15.896484 19.996094 C 15.641651 19.451223 14.94648 18.895309 14.427734 18.888672 z " />
</svg>
