<?xml version="1.0" encoding="UTF-8" standalone="no"?>
<!-- Created with Inkscape (http://www.inkscape.org/) -->

<svg
   width="5"
   height="5"
   id="svg2"
   version="1.1"
   xmlns="http://www.w3.org/2000/svg"
   xmlns:svg="http://www.w3.org/2000/svg"
   xmlns:rdf="http://www.w3.org/1999/02/22-rdf-syntax-ns#"
   xmlns:cc="http://creativecommons.org/ns#"
   xmlns:dc="http://purl.org/dc/elements/1.1/">
  <defs
     id="defs4" />
  <metadata
     id="metadata7">
    <rdf:RDF>
      <cc:Work
         rdf:about="">
        <dc:format>image/svg+xml</dc:format>
        <dc:type
           rdf:resource="http://purl.org/dc/dcmitype/StillImage" />
      </cc:Work>
    </rdf:RDF>
  </metadata>
  <g
     id="layer1">
    <path
       id="path10896"
       style="fill:#000000"
       d="M 2.5,0 A 2.5,2.5 0 0 0 0,2.5 2.5,2.5 0 0 0 2.5,5 2.5,2.5 0 0 0 5,2.5 2.5,2.5 0 0 0 2.5,0 Z m 0,1 A 1.5,1.5 0 0 1 4,2.5 1.5,1.5 0 0 1 2.5,4 1.5,1.5 0 0 1 1,2.5 1.5,1.5 0 0 1 2.5,1 Z" />
  </g>
</svg>
