<?xml version="1.0" encoding="UTF-8" standalone="no"?>
<!-- Created with Inkscape (http://www.inkscape.org/) -->

<svg
   width="25"
   height="25"
   id="svg2"
   version="1.1"
   xmlns="http://www.w3.org/2000/svg"
   xmlns:svg="http://www.w3.org/2000/svg"
   xmlns:rdf="http://www.w3.org/1999/02/22-rdf-syntax-ns#"
   xmlns:cc="http://creativecommons.org/ns#"
   xmlns:dc="http://purl.org/dc/elements/1.1/">
  <defs
     id="defs4" />
  <metadata
     id="metadata7">
    <rdf:RDF>
      <cc:Work
         rdf:about="">
        <dc:format>image/svg+xml</dc:format>
        <dc:type
           rdf:resource="http://purl.org/dc/dcmitype/StillImage" />
      </cc:Work>
    </rdf:RDF>
  </metadata>
  <path
     id="path8-6-6-2-7-9-4"
     style="fill:#000000"
     d="M 12 0 C 10.671787 0.037230425 9.9319534 0.21240839 9.5898438 0.40039062 C 8.6700752 0.43899078 7.8327782 1.1748516 7.75 1.9160156 C 7.6690028 2.6408975 6.8238343 3.000071 6.0996094 2.953125 C 5.4082333 2.9034151 4.5166934 3.1274409 4.1660156 3.2792969 C 3.1936292 3.9145628 3.8054113 5.843382 3.0117188 6.4667969 C 2.3175528 6.7727939 1.9735402 6.829956 1.7792969 6.703125 C 1.6578311 6.46477 0.6339541 6.4849914 1.3496094 7.1445312 C 1.8637716 7.5172622 1.8546794 7.58595 1.2441406 8.0761719 C 0.65396101 8.5312849 -2.9605947e-16 10.5 0 12.25 C 0 13.499999 0.26431076 14.398849 0.55664062 15.164062 C 0.8491605 15.966135 1.0659588 16.829963 1.03125 17.140625 C 0.9965512 17.451283 1.201983 17.789239 1.4648438 17.923828 C 1.7238449 18.092931 1.9411544 18.327407 1.921875 18.5 C 1.879476 18.879701 2.5347825 20.314753 2.9121094 20.357422 C 3.0836334 20.376822 3.7240375 20.038084 4.0292969 19.792969 C 4.3345663 19.547855 4.1060768 19.116055 3.5722656 19.230469 C 2.7447443 19.486431 2.8668057 19.061426 3.6796875 18.314453 C 4.1071327 17.908386 4.3628112 17.482378 4.2714844 17.367188 C 4.1800876 17.251994 3.848089 17.424769 3.53125 17.773438 C 3.0579464 18.279181 2.8967264 18.171618 2.4511719 17.806641 C 2.1655618 17.564616 1.8829754 17.059402 1.9824219 16.791016 C 2.0475197 16.518744 1.5591478 15.854103 1.2246094 15.117188 C 0.69235776 13.97342 0.28533586 13.065993 0.70703125 11.15625 C 0.97918182 9.9636307 1.3626499 8.9666911 1.7050781 8.5644531 C 3.6172818 6.3182293 3.9249853 7.0220307 4.2402344 3.953125 C 4.3005323 3.3657611 6.5609397 3.957318 7.4003906 3.2832031 C 8.1292554 2.6665422 8.5650133 2.1336051 8.6074219 1.7539062 C 8.6652199 1.2361343 9.486729 1.0504366 9.890625 1.1660156 C 10.225944 1.2738415 10.28269 2.4067701 10.244141 2.7519531 C 10.201741 3.131653 10.231603 3.4994879 10.429688 3.5917969 C 10.65825 3.7225059 10.883223 3.573026 10.914062 3.296875 C 10.948763 2.986218 10.47174 2.674015 10.609375 2.375 C 10.756626 2.0763747 10.940182 1.2679916 10.675781 0.81445312 C 12.103307 0.4364309 13.074276 0.83783101 13.902344 0.85546875 C 14.752115 0.87354875 15.54381 1.073081 14.914062 1.3730469 C 14.686711 1.4813429 14.498047 1.8980924 14.498047 2.3320312 C 14.534247 2.9467792 14.769397 3.2015754 14.914062 2.6953125 C 15.131025 1.8997566 15.365357 1.1086826 16.486328 1.9765625 C 17.173374 2.5189864 17.324839 2.8019601 17.794922 2.5488281 C 18.771259 2.0425652 19.529406 2.7081656 20.740234 3.8027344 C 21.535757 4.5259674 22.083984 5.6685709 22.083984 6.1386719 C 22.120184 6.6087728 22.496878 7.8031635 22.822266 8.4902344 C 23.220032 9.3219524 23.522373 10.352388 23.630859 12.992188 C 23.648559 13.86301 23.808249 14.429568 22.539062 15.646484 C 22.059199 16.1066 23.127273 16.540895 22.0625 18.226562 C 21.633904 18.905078 21.099941 19.660041 20.666016 19.804688 C 19.436559 20.166304 18.69927 20.513756 18.626953 21.634766 C 18.594153 22.278308 17.344133 22.518814 16.837891 22.193359 C 16.657087 22.084874 15.923828 21.46208 15.923828 22.279297 C 15.923828 23.183338 14.661309 23.317998 13.328125 23.568359 C 12.539043 23.741153 11.50272 22.97952 9.2246094 22.943359 C 7.9711732 22.895609 6.1485413 22.475908 6.0039062 22.078125 C 5.8317122 21.685493 5.92357 21.316677 6.2246094 21.302734 C 6.6219456 21.284334 7.6998382 21.062788 8.1699219 20.701172 C 8.8931265 20.122586 8.9652365 19.977684 8.4589844 19.796875 C 8.1335457 19.652229 7.6262299 19.760542 7.3007812 20.013672 C 7.0115013 20.266804 6.5511125 20.569364 6.1171875 20.533203 C 5.6832626 20.460883 5.2628968 20.785874 5.0097656 21.111328 C 4.6481681 21.545268 4.0442506 21.137008 3.6464844 20.775391 C 3.2125594 20.413775 3.3153183 21.134878 4.0761719 21.880859 C 4.8715144 22.613723 6.4652357 23.905418 7.2246094 23.724609 C 10.422378 24.203879 10.500052 25 12 25 C 12.999966 25 14.275163 24.828125 14.564453 24.828125 C 14.853733 24.828125 16.499823 24.349611 16.777344 24.21875 C 18.058879 23.614477 18.834782 23.620984 19.921875 22.898438 C 20.801284 22.313931 20.02453 21.648958 21.150391 21.169922 C 21.657204 20.954282 22.399057 20.417713 22.869141 19.513672 C 23.303066 18.609631 23.80414 17.855447 24.09375 17.044922 C 24.492836 15.993939 25.015029 14.136036 25 13.5 C 25.015 12.886036 24.838955 12.709503 24.730469 12.058594 C 24.658169 11.371523 24.477617 10.684714 24.369141 10.503906 C 24.260654 10.323098 24.368976 9.8538608 24.585938 9.4199219 C 24.947536 8.7690123 24.87561 8.5153117 24.080078 7.6835938 C 23.573835 7.1411688 23.261191 6.259275 23.140625 5.7675781 C 22.864065 4.6396772 19.235649 0.99574858 17.572266 1.4296875 C 16.776744 1.6104965 16.196263 1.1029718 16.232422 0.56054688 C 16.232422 0.3797389 15.509478 0.26947389 14.605469 0.34179688 C 13.448339 0.41411687 13.001116 0.048316988 12 0 z M 12.71875 3.0332031 C 12.591113 3.0397072 12.469044 3.0993532 12.367188 3.2324219 C 11.963281 3.7600978 11.870259 4.9227318 12.583984 4.8398438 C 12.910893 4.7936238 12.76706 4.6641956 12.541016 4.3085938 C 12.365383 4.0225028 12.518094 3.6626327 12.699219 3.6054688 C 12.854504 3.5564788 13.111712 3.7470365 13.193359 4.0058594 C 13.283159 4.2905714 13.62877 4.3966962 13.943359 4.5820312 C 14.48004 4.8393951 14.825905 5.4474039 14.509766 5.8886719 C 14.15005 6.3721208 13.82321 6.7822878 14.185547 6.6679688 C 14.314953 6.6271387 14.715912 6.3479359 14.867188 6.015625 C 15.195635 5.3428371 14.775394 4.2052895 14.361328 4.3359375 C 14.231923 4.3767675 13.778488 4.1147927 13.578125 3.6992188 C 13.409304 3.3489618 13.044933 3.0165815 12.71875 3.0332031 z M 17.660156 5 C 17.408922 4.997435 17.205965 5.0645329 17.037109 5.1757812 C 16.41773 5.5838621 16.375098 5.9079619 17.787109 5.6855469 C 18.719276 5.5387149 18.607995 6.2863925 18.933594 6.3046875 C 19.418017 6.3474875 19.689799 6.8368399 19.980469 7.3085938 C 20.117134 7.7152367 20.161493 8.0769408 20.0625 8.4492188 C 19.931234 8.8281532 19.786693 9.1339695 19.685547 9.1328125 C 19.452895 9.1302125 19.368318 9.2796079 19.410156 9.3730469 C 19.458856 9.5673409 20.341796 9.8194934 20.494141 9.6777344 C 20.706534 9.5349785 20.707285 9.1399996 20.703125 8.6113281 C 20.696125 7.7784877 20.542053 7.3072828 20.392578 6.9511719 C 20.179246 6.4428689 19.685274 5.8574479 18.888672 5.40625 C 18.384588 5.1207211 17.983171 5.0032978 17.660156 5 z M 8.8652344 5.0214844 C 8.7517165 5.0235278 8.6280916 5.0284863 8.4960938 5.0351562 C 7.6643425 5.0776562 7.2009704 5.2514927 6.8515625 5.4160156 C 6.3528298 5.6508346 5.7878994 6.1711922 5.3710938 6.9863281 C 4.9021701 7.90333 5.3504817 8.096652 5.4550781 8.546875 C 5.5614444 9.00512 6.0383126 9.4870392 5.5742188 7.7539062 C 5.3301172 6.8423374 6.2612252 7.2284346 6.265625 6.9023438 C 6.2877242 6.4165177 6.5781853 6.0683375 7.0371094 5.7578125 C 7.4375355 5.6039405 7.9929937 5.448212 8.3691406 5.53125 C 8.7533173 5.646248 9.0641968 5.687853 9.0605469 6.03125 C 9.0585469 6.2638989 9.21918 6.3405979 9.3105469 6.2949219 C 9.5025802 6.2379919 9.7184274 5.3453918 9.5703125 5.1992188 C 9.456534 5.0446565 9.205788 5.015354 8.8652344 5.0214844 z M 8.0625 7.6542969 C 7.9063328 7.6539739 7.6868029 7.7518154 7.4628906 7.9433594 C 7.2413083 8.1217044 7.0957548 8.4756816 7.1640625 8.7050781 C 7.2013612 8.9561816 7.0664894 9.3646209 6.7441406 9.4980469 C 6.156771 9.7478348 5.756089 10.224576 6.1777344 10.298828 C 6.652068 10.382358 7.6168622 9.3837225 7.6445312 8.7636719 C 7.6525313 8.4117935 7.7813186 8.1342504 7.9394531 8.1621094 C 8.0975676 8.1899494 8.2521814 8.0829409 8.2753906 7.9511719 C 8.3101896 7.7535199 8.2186672 7.6546199 8.0625 7.6542969 z M 4.5566406 10.332031 C 4.4236189 10.34227 4.2385215 10.497893 4.0917969 10.755859 C 3.9075433 11.079816 3.7401101 11.468716 3.5664062 11.904297 C 3.1842195 12.675773 2.8796778 14.20977 2.9960938 14.734375 C 3.4183391 17.297584 7.5992074 17.441024 7.8125 16.349609 C 7.9702846 15.542217 7.2489316 16.516698 4.4980469 15.871094 C 3.2691495 15.582686 3.614404 13.217978 4.1289062 12.169922 C 4.8758569 10.823363 4.8105912 10.312485 4.5566406 10.332031 z M 20.650391 10.945312 C 20.577926 10.947479 20.503432 10.952661 20.425781 10.962891 C 19.58709 11.013641 19.023178 11.666663 20.082031 12.544922 C 20.609693 12.956322 20.522222 12.815225 20.275391 12.441406 C 20.032159 12.122996 20.235634 11.895607 20.365234 11.748047 C 20.520879 11.570967 20.969223 11.669315 21.197266 12.183594 C 21.436047 12.864193 21.34464 13.295835 20.738281 13.390625 C 20.242839 13.478225 20.17796 13.778838 20.414062 13.986328 C 20.591137 14.141948 20.38811 14.672098 19.947266 15.173828 C 19.506351 15.675548 18.833093 15.633045 18.759766 15.359375 C 18.689966 15.141145 18.516962 15.039697 18.361328 15.216797 C 18.231642 15.364357 18.168786 15.674917 18.208984 15.867188 C 18.62751 17.176517 21.581884 15.065145 21.962891 13.203125 C 22.236228 11.776092 21.737366 10.912813 20.650391 10.945312 z M 5.671875 12.160156 C 5.6046522 12.159235 5.500848 12.244178 5.3535156 12.40625 C 4.9606292 12.759861 4.9996814 13.703125 5.3925781 13.703125 C 5.5497327 13.703125 5.7068052 13.350161 5.7460938 12.917969 C 5.7952169 12.402285 5.7839131 12.161691 5.671875 12.160156 z M 17.470703 16.742188 C 17.371789 16.732337 17.172585 16.834942 16.832031 17.126953 C 16.355847 17.447817 15.522078 17.48247 15.150391 17.265625 C 14.994866 17.161853 14.917306 17.327107 15.173828 17.560547 C 15.6928 18.062582 16.326502 18.159302 17.060547 17.621094 C 17.414329 17.329669 17.688314 16.763859 17.470703 16.742188 z M 20.21875 16.935547 C 20.060691 16.948926 19.841744 17.142811 19.550781 17.648438 C 19.216172 18.219102 18.577241 19.21602 18.019531 19.236328 C 17.360404 19.260338 16.998301 19.468763 16.988281 19.822266 C 16.972481 20.377752 17.400467 20.202061 18.75 19.404297 C 19.687488 18.659371 20.552721 18.214581 20.550781 17.609375 C 20.549594 17.280807 20.44976 16.915993 20.21875 16.935547 z M 8.4492188 17.34375 C 8.4307588 17.343767 8.4104062 17.343787 8.390625 17.345703 C 7.9159514 17.391672 8.0968125 17.614405 8.4746094 18.216797 C 8.848586 18.779615 9.6906426 19.06046 11.035156 18.923828 C 12.100199 18.813049 13.096963 18.110078 12.90625 17.8125 C 12.847732 17.721211 11.258816 18.173717 10.666016 18.210938 C 10.083437 18.259032 9.1734212 17.98378 8.9921875 17.761719 C 8.8593577 17.549942 8.7261182 17.343489 8.4492188 17.34375 z M 6.7910156 17.880859 C 6.608855 17.881867 6.2836438 18.021844 5.7851562 18.296875 C 5.2351152 18.571907 4.8821341 18.806412 5 18.845703 C 5.1178659 18.845703 5.5094573 18.925325 5.9023438 19.003906 C 6.2952401 19.082486 6.7278372 18.886588 6.8457031 18.572266 C 7.022502 18.10815 7.0252222 17.879564 6.7910156 17.880859 z M 14.427734 18.888672 C 14.191941 18.885655 13.994021 18.997199 13.888672 19.273438 C 13.743877 19.683333 13.865318 19.813406 14.417969 19.765625 C 14.858854 19.734405 15.16252 19.861109 15.119141 20.107422 C 15.081941 20.318562 14.89682 20.655746 14.544922 20.59375 C 14.157835 20.52555 13.770977 20.7609 13.363281 21.015625 C 12.736443 21.485959 11.975463 21.416764 11.652344 20.779297 C 11.306436 20.065261 10.866084 19.538558 10.779297 20.03125 C 10.748697 20.207259 10.830856 20.845898 11.126953 21.224609 C 11.712973 22.017253 13.529729 22.274004 13.628906 21.710938 C 13.659506 21.534928 14.084267 21.163002 14.691406 21.181641 C 15.403311 21.203551 16.228843 20.706711 15.896484 19.996094 C 15.641651 19.451223 14.94648 18.895309 14.427734 18.888672 z " />
</svg>
