<?xml version="1.0" encoding="UTF-8" standalone="no"?>
<!-- Created with Inkscape (http://www.inkscape.org/) -->

<svg
   width="25"
   height="25"
   id="svg2"
   version="1.1"
   xmlns="http://www.w3.org/2000/svg"
   xmlns:svg="http://www.w3.org/2000/svg"
   xmlns:rdf="http://www.w3.org/1999/02/22-rdf-syntax-ns#"
   xmlns:cc="http://creativecommons.org/ns#"
   xmlns:dc="http://purl.org/dc/elements/1.1/">
  <defs
     id="defs4" />
  <metadata
     id="metadata7">
    <rdf:RDF>
      <cc:Work
         rdf:about="">
        <dc:format>image/svg+xml</dc:format>
        <dc:type
           rdf:resource="http://purl.org/dc/dcmitype/StillImage" />
      </cc:Work>
    </rdf:RDF>
  </metadata>
  <path
     id="path4-0-17-7"
     style="fill:#000000"
     d="M 14.193359 0.1484375 C 13.920678 0.1825275 13.409207 0.38832712 13.068359 0.62695312 C 12.625254 0.96784812 12.522933 1.3416485 12.693359 2.0234375 C 12.829698 2.6370475 12.761844 3.0465292 12.455078 3.2851562 C 12.080143 3.5237812 12.079077 3.660517 12.419922 3.796875 C 12.607279 3.8593362 12.429743 4.2534239 12.398438 4.6074219 C 12.188881 4.8343819 11.931841 5.2675558 11.916016 5.4960938 L 11.751953 7.8710938 C 11.671723 9.0296618 12.439378 10.157537 12.517578 9.7558594 C 12.586468 9.4384294 12.353458 8.9330652 12.332031 7.4882812 C 12.299131 7.0110652 12.472655 6.192929 12.443359 5.734375 C 12.493649 5.5689621 12.548366 5.4112992 12.595703 5.2675781 C 12.798209 4.9973717 13.155194 3.849209 13.214844 2.7753906 C 13.3171 1.3436316 13.885712 0.65961513 14.226562 0.45507812 C 14.635582 0.21645112 14.636469 0.1484375 14.193359 0.1484375 z M 10.445312 0.1875 C 10.335704 0.1986485 10.232088 0.29623988 10.1875 0.47460938 C 10.14293 0.68270338 9.9792094 0.77148437 9.7265625 0.77148438 C 9.2658289 0.77148438 9.2210225 1.0542074 9.6074219 1.6933594 C 9.8600848 2.1244144 9.8605966 2.139458 9.5039062 2.421875 C 9.1472241 2.719155 9.1457827 2.7188022 9.3984375 3.2539062 C 9.532191 3.5511853 9.6075044 3.8343133 9.5332031 3.8789062 C 9.4736911 3.9235062 9.3988657 4.2202981 9.3691406 4.5175781 C 9.3245666 4.9932251 9.3703084 5.0974548 9.6972656 5.2460938 C 9.8689306 5.3319333 9.6438213 6.0736043 9.6347656 6.4394531 C 9.4947692 6.647337 9.5180284 7.1971606 9.5800781 7.4238281 C 9.7780721 8.1470991 9.7537482 8.17813 9.96875 8.4375 C 10.491911 8.998107 10.978516 9.0104568 10.978516 8.6367188 C 10.978516 8.5245968 10.787886 8.5761719 10.675781 8.5761719 C 10.232589 8.2624109 10.108657 7.8934739 10.070312 7.4511719 C 10.027722 7.1923979 10.062751 6.6930434 10.119141 6.5996094 C 10.138637 6.5671335 10.131723 6.5330691 10.105469 6.5 C 10.245951 6.2112719 10.485526 5.6409119 10.326172 5.1835938 C 10.073525 4.4849868 9.8956189 3.8305573 9.9550781 3.1914062 C 10.059106 1.9874223 10.290405 1.9607089 10.46875 1.8417969 C 10.676821 1.7080209 10.855214 0.7410705 10.736328 0.4140625 C 10.669448 0.250559 10.554921 0.1763515 10.445312 0.1875 z M 16.900391 0.875 C 16.766412 0.88231465 16.645148 0.92662264 16.599609 1.0175781 C 16.548669 1.1541941 16.315471 1.4075251 16.089844 1.5957031 C 15.846276 1.7694181 15.677474 2.0344215 15.691406 2.1640625 C 15.705346 2.2937035 15.591346 2.6016232 15.4375 2.8476562 C 15.283647 3.0936893 15.176366 3.4656942 15.197266 3.6601562 C 15.218166 3.8546172 14.67212 4.7085675 14.554688 4.8359375 C 14.391647 5.0127751 14.037047 5.8886044 13.916016 6.4433594 C 13.912103 6.4526512 13.906801 6.4619781 13.902344 6.4707031 C 13.639209 7.3524901 13.343106 8.796875 13.716797 8.796875 C 13.84759 8.796875 13.790311 9.0028991 13.603516 9.2832031 C 13.416671 9.5821931 13.287109 10.143627 13.287109 10.685547 C 12.864754 11.337488 12.809518 11.422791 13.423828 11.8125 C 14.077702 12.276209 13.976799 12.52407 14.269531 13.119141 C 14.352021 13.286815 14.66303 13.642578 14.8125 13.642578 C 14.96197 13.642578 15.080344 13.245199 15.042969 13.095703 C 14.986879 12.890148 15.061547 12.890729 15.341797 13.152344 C 15.790229 13.563456 16.052023 13.562614 16.294922 13.132812 C 16.425714 12.927257 16.553066 13.095753 16.646484 13.226562 C 16.739874 13.338684 17.517977 13.308059 17.742188 13.382812 C 18.096388 13.496678 18.905445 13.380735 19.441406 13.171875 C 19.534826 13.168468 19.629096 13.138105 19.732422 13.083984 C 20.087582 12.896975 20.59867 12.364316 21.162109 12.855469 C 21.368119 13.018486 21.395637 13.174345 21.648438 13.148438 C 21.885334 13.138938 21.894385 12.921669 22.050781 12.667969 C 22.51796 12.258028 22.978664 12.828283 23.339844 12.826172 C 23.668197 12.831772 23.780424 12.428819 23.962891 12.248047 C 24.210101 12.053303 24.82197 12.845646 24.855469 12.431641 C 24.863669 12.330277 24.996094 12.25 24.996094 12 C 25.026894 11.542517 24.832947 10.908791 24.761719 10.677734 C 24.586247 10.390833 24.273241 10.62029 24.306641 10.933594 C 24.348121 11.298603 24.002112 11.594942 23.681641 11.552734 C 23.55183 11.525514 23.433688 11.737186 23.267578 11.863281 C 22.869953 12.028947 22.394856 11.901052 22.070312 11.882812 C 21.873262 11.726883 21.714971 11.723361 21.417969 11.880859 C 21.157632 12.022122 20.915491 12.024612 20.705078 11.933594 C 20.333254 11.910684 20.215641 11.998589 20.115234 12.011719 C 19.936092 11.869965 19.462217 12.047809 19.349609 12.230469 C 19.183178 12.395699 18.951677 12.496931 18.728516 12.5625 C 17.666181 12.56669 16.221105 12.700642 15.714844 12.722656 C 15.322466 12.722656 15.076172 12.584775 15.076172 12.472656 C 15.076172 12.379226 14.914252 12.201172 14.746094 12.201172 C 14.559249 12.201172 14.40058 11.969441 14.232422 11.595703 C 14.099919 11.290862 14.182397 11.038447 14.425781 10.779297 C 14.706045 10.536367 15.079833 10.422719 15.677734 10.441406 C 16.387741 10.441406 16.555863 10.385193 16.667969 10.048828 C 16.854814 9.5816556 16.332742 8.8723558 16.089844 9.2460938 C 15.996454 9.3955887 15.903386 9.3955888 15.753906 9.2460938 C 15.604435 9.0965988 15.622542 8.9477435 15.828125 8.7421875 C 15.996293 8.5740055 16.126953 8.3679804 16.126953 8.2558594 C 16.126953 8.1437384 16.295577 7.7883801 16.482422 7.4707031 C 16.645907 7.2009109 16.764869 6.95561 16.810547 6.765625 C 16.902531 6.5834939 16.987574 6.2852466 17.130859 6.0019531 C 17.580841 5.0462151 18.501656 4.5207424 19.648438 4.2714844 C 20.167223 4.1587254 20.748622 3.9458799 20.976562 3.8105469 C 21.301851 3.5968559 21.285576 3.5142925 20.886719 3.2578125 C 20.22195 2.8303475 17.633275 3.422594 17.751953 3.96875 C 17.799423 4.187213 17.759573 4.3961083 17.623047 4.4257812 C 17.513829 4.4495213 17.146804 4.8704659 16.820312 5.3417969 C 16.52869 5.7719957 16.37348 6.2156282 16.376953 6.5292969 C 16.259037 6.7083206 16.135104 7.0114394 15.947266 7.3125 C 15.645556 7.947316 15.21126 8.4048174 15.304688 9.0214844 C 15.416794 9.7128994 15.192163 10.030456 14.519531 10.142578 C 14.089788 10.198638 14.015436 10.087158 14.183594 9.6386719 C 14.258284 9.4891769 14.259115 9.1715076 14.203125 8.9472656 C 14.128335 8.7230226 13.945095 7.9143862 14.113281 7.3164062 C 14.230164 6.9019599 14.38024 6.6173176 14.46875 6.3964844 C 14.880203 5.8501431 15.378556 5.003125 15.474609 4.5625 C 15.536989 4.227946 15.883224 3.3396732 16.109375 3.0039062 C 16.510813 2.4689792 17.431529 1.3899283 17.398438 1.0820312 C 17.384281 0.9503644 17.123689 0.86280892 16.900391 0.875 z M 7.2832031 1.171875 C 7.2528459 1.174078 7.2204871 1.1815901 7.1855469 1.1933594 C 6.7808089 1.3461064 7.3981899 3.6340981 7.9023438 4.0332031 C 8.3871072 4.4169551 8.2064979 3.8192498 7.8066406 2.5898438 C 7.7008323 2.1296578 7.7385611 1.1388302 7.2832031 1.171875 z M 5.0859375 2.5234375 C 4.9437105 2.5310466 4.8665058 2.6732982 4.8964844 2.90625 C 4.8606694 3.103782 4.9257808 3.190092 4.7851562 3.3125 C 4.451176 3.603218 4.5882324 3.7613682 5.3046875 3.9101562 C 5.760406 4.0078262 5.8375683 4.0956632 5.7949219 4.4726562 C 5.794268 4.7204062 5.9881321 5.0471019 6.0078125 5.1855469 C 6.0410585 5.4194399 6.1715579 5.7860892 6.5761719 6.1445312 C 6.9348879 6.4502312 7.0599123 6.1913345 7.5800781 6.7890625 C 8.2532309 7.5625905 8.7978526 8.5628194 9.1289062 8.5527344 C 9.5257043 8.5472344 9.5312339 8.4805289 8.9667969 8.0449219 C 8.6058062 7.7721019 8.3177031 7.4062841 8.3007812 7.1738281 C 8.1001676 6.4320421 7.669484 5.9215015 7.3164062 5.8671875 C 6.5369005 5.9159975 6.4294009 4.628972 6.2832031 4.28125 C 5.861315 2.9883752 5.3574618 2.5089111 5.0859375 2.5234375 z M 20.474609 4.7636719 C 20.188522 4.7633362 19.571766 5.004572 19.494141 5.2109375 C 19.425841 5.3604015 19.301102 5.5001399 19.199219 5.4980469 C 19.109229 5.5125069 19.069591 5.6668935 19.126953 5.8515625 C 19.198773 6.1262355 19.337298 6.0756265 19.914062 5.5859375 C 20.275648 5.2508505 20.621709 4.9289187 20.619141 4.8554688 C 20.629628 4.7914625 20.569972 4.7637838 20.474609 4.7636719 z M 2.40625 5.1816406 C 2.1118756 5.3632556 2.2763387 5.6961936 2.6914062 6.3691406 C 2.9427682 6.8237346 3.2553669 7.2315339 3.2070312 7.4355469 C 3.1063314 7.8605739 3.3316824 8.2725784 3.7226562 8.3652344 C 3.8756462 8.4014944 4.0169631 8.5607676 4.0527344 8.7128906 C 4.0911694 9.0811116 3.589538 9.1922917 3.3144531 8.9179688 C 3.1028918 8.5984957 1.8578812 8.658631 1.4355469 8.75 C -0.058698345 9.133129 0.45390018 9.5576925 1.0644531 9.2734375 C 2.3550607 8.8744055 4.0065253 9.3677449 4.0722656 9.5449219 C 4.1031216 9.6420119 4.3638207 9.756988 4.6738281 9.8125 C 4.979807 9.88501 5.4478346 10.031478 5.7207031 10.167969 C 5.7234636 10.16635 5.7257734 10.165651 5.7285156 10.164062 C 5.8233419 10.232787 5.9559931 10.309574 6.0410156 10.40625 C 6.3870763 10.799743 6.8387283 11.312894 7.375 11.523438 C 8.5605876 11.950307 7.4518835 10.992606 6.6757812 10.232422 C 6.5530723 10.112231 6.1815949 9.7994325 6.0859375 9.6953125 C 6.0717182 9.6860217 6.0583148 9.6790098 6.0449219 9.671875 C 5.8344872 9.5008669 5.4603002 9.6254772 5.1132812 9.484375 C 4.8873818 9.376973 4.8043232 9.1782234 4.7363281 9.1621094 C 4.6553587 9.1249694 4.6337888 8.995383 4.6660156 8.859375 C 4.6982414 8.723366 4.6066943 8.5751967 4.4707031 8.5429688 C 4.3347129 8.5107387 4.2318127 8.4150831 4.2519531 8.3300781 C 4.2720904 8.2450781 4.1514655 8.0718785 3.9765625 7.9765625 C 3.8016594 7.8812425 3.6978793 7.6420911 3.7421875 7.4550781 C 3.8871945 6.8430391 3.3398994 6.6358703 2.8359375 5.6914062 C 2.618094 5.5500012 2.4272773 5.1686676 2.40625 5.1816406 z M 22.314453 5.2265625 C 22.035671 5.2376574 21.734386 5.4256422 21.457031 5.6992188 C 21.225162 5.9307067 21.402215 6.3427211 21.046875 6.6425781 C 20.691524 6.9424371 20.269361 7.2082587 20.125 7.2304688 C 19.947338 7.2526788 19.847656 7.3321835 19.847656 7.4765625 C 19.847656 7.6986795 19.03637 8.2089844 18.669922 8.2089844 C 18.481146 8.2089844 18.448393 8.1635153 18.503906 7.9414062 C 18.548316 7.7526063 18.515317 7.6310871 18.404297 7.5644531 C 18.24883 7.4867131 18.247642 7.431443 18.380859 7.109375 C 18.55853 6.687353 18.503299 6.2089844 18.28125 6.2089844 C 18.19235 6.2089844 18.082146 6.2984885 18.048828 6.3984375 C 18.004428 6.5094945 17.915625 6.6423484 17.837891 6.7089844 C 17.660221 6.8644664 17.548997 7.520528 17.693359 7.609375 C 17.848817 7.698225 17.726808 8.1752513 17.449219 8.5195312 C 17.160506 8.8971303 17.182463 9.0976562 17.515625 9.0976562 C 17.682189 9.0976562 17.792969 9.0302582 17.792969 8.9414062 C 17.792969 8.8414563 17.993328 8.763173 18.4375 8.71875 C 20.025423 8.552163 20.069815 8.5306684 20.025391 8.1308594 C 20.003141 7.9420604 20.457896 7.6542969 20.791016 7.6542969 C 21.124155 7.6542969 21.278961 7.5536434 21.378906 7.2871094 C 21.467806 7.0427834 21.690299 7.0420478 22.023438 7.3085938 C 22.16779 7.4196507 22.357804 7.4870547 22.435547 7.4648438 C 22.624316 7.3982138 22.601581 7.1319296 22.390625 7.0097656 C 22.246263 6.9320256 22.280142 6.8645792 22.613281 6.6757812 C 22.924198 6.4869822 23.113414 6.1287722 23.035156 5.8164062 C 22.849549 5.3829782 22.593235 5.2154676 22.314453 5.2265625 z M 4.921875 5.4296875 C 4.7737234 5.4296875 4.6738281 5.5792219 4.6738281 5.8261719 C 4.6738281 6.0566589 4.7901853 6.336205 4.921875 6.484375 C 5.0535637 6.616082 5.1679688 6.8618717 5.1679688 7.0429688 C 5.1679688 7.2076028 5.2823727 7.3574219 5.4140625 7.3574219 C 5.5622131 7.3574219 5.6621094 7.2081646 5.6621094 6.9941406 C 5.6621094 6.7801176 5.5457522 6.5332128 5.4140625 6.4179688 C 5.2823727 6.3027257 5.1679688 6.0401959 5.1679688 5.8261719 C 5.1679688 5.5792219 5.0700256 5.4296875 4.921875 5.4296875 z M 6.9453125 8.3300781 C 6.9318848 8.3299248 6.9163569 8.3296958 6.9023438 8.3320312 C 6.5473403 8.4067812 6.5106759 8.48226 6.6601562 8.78125 C 6.7722615 8.968119 7.0338576 9.1367188 7.2207031 9.1367188 C 7.5009664 9.1367188 7.6542969 9.1890266 7.6542969 9.5253906 C 7.6542969 9.8056936 7.7704515 9.9746094 7.9199219 9.9746094 C 8.0507148 9.9746094 8.2188165 10.106364 8.3496094 10.255859 C 8.4804023 10.405354 8.6409572 10.575592 8.734375 10.519531 C 8.827763 10.463471 9.0522795 10.519851 9.2578125 10.613281 C 9.5380758 10.762776 9.6311917 10.743769 9.7246094 10.519531 C 9.8927674 10.10842 9.4643785 10.232422 9.109375 10.232422 C 8.6235787 10.232422 8.0241307 9.6253661 8.0195312 9.2988281 C 7.9717373 9.0262531 7.558195 8.540751 7.3339844 8.578125 C 7.2813972 8.5956469 7.1467282 8.3323775 6.9453125 8.3300781 z M 24.041016 8.3476562 C 23.993146 8.3482961 23.954171 8.3584814 23.933594 8.375 C 23.645984 8.500248 23.834285 8.6832471 23.40625 8.4550781 C 22.910265 8.1892361 22.878361 8.8664995 22.642578 8.9296875 C 22.482048 8.9950175 21.710768 8.9753144 21.474609 9.0683594 C 20.769796 9.3478414 20.655125 8.9354235 20.027344 9.3515625 C 19.710765 9.6211403 19.540577 9.7318562 19.412109 9.765625 C 19.308829 9.7045438 19.166255 9.6861621 19.003906 9.6972656 C 18.81538 9.6544177 18.558763 9.6908951 18.439453 9.7890625 C 18.411478 9.8120817 18.388534 9.8329665 18.369141 9.8515625 C 17.885597 10.033899 17.418602 10.339352 17.314453 10.574219 C 17.241163 10.83981 18.44895 10.246094 18.923828 10.246094 C 18.95087 10.246094 18.9774 10.246004 19.003906 10.246094 C 19.055396 10.250323 19.104207 10.25083 19.148438 10.246094 C 19.332889 10.242182 19.482774 10.220827 19.539062 10.123047 C 19.653277 10.123453 19.786885 10.15737 19.914062 10.222656 C 20.303556 10.426371 21.0141 10.291277 21.451172 9.9316406 C 21.563245 9.8394306 21.7955 9.8722925 22.017578 10.007812 C 22.713232 10.427644 23.599669 10.091273 24.273438 9.125 C 24.612478 8.5198862 24.248449 8.3448836 24.041016 8.3476562 z M 10.400391 9.3164062 C 10.34369 9.3181854 10.284932 9.3439078 10.220703 9.390625 C 9.9964921 9.540121 10.03347 9.6519681 10.556641 10.119141 C 11.005063 10.54894 11.080789 10.679688 10.837891 10.679688 C 10.53894 10.679688 10.53894 10.69906 10.837891 10.998047 C 11.155529 11.315724 12.275391 11.483428 12.275391 11.203125 C 12.275391 11.128375 12.426446 11.053843 12.613281 11.035156 C 12.818814 11.035156 12.705684 10.923197 12.332031 10.736328 C 11.995715 10.568146 11.654297 10.550466 11.654297 10.457031 C 11.654297 10.382281 11.450518 10.191406 11.263672 10.191406 C 11.095514 10.191406 10.930721 9.9139597 10.78125 9.6523438 C 10.639946 9.4210935 10.525133 9.312492 10.400391 9.3164062 z M 4.2753906 10.837891 C 4.0331983 10.832131 3.8057372 10.926163 3.6699219 11.056641 C 3.2764455 11.434577 3.0991818 11.59375 2.1171875 11.59375 C 1.2443142 11.59375 -2.9605947e-16 11.716277 0 12 C 0 12.109123 0.83018521 12.197266 1.8339844 12.197266 C 3.1869521 12.197266 3.4928659 12.189162 4.0429688 11.966797 C 4.3390249 11.767335 5.0500008 11.561987 4.8320312 11.064453 C 4.6604229 10.906859 4.4637624 10.842371 4.2753906 10.837891 z M 19.642578 11.039062 C 19.113492 11.052007 17.737266 11.543077 16.552734 11.423828 C 15.304817 11.298198 14.618474 10.99566 14.603516 11.447266 C 14.676106 11.78363 14.818259 12.030935 17.527344 11.9375 C 18.785129 11.88144 19.853945 11.313132 19.865234 11.164062 C 19.872451 11.068707 19.790722 11.035438 19.642578 11.039062 z M 12.34375 11.587891 C 12.017571 11.581254 11.743476 11.6823 11.609375 11.871094 C 10.894158 13.079446 12.391732 14.290375 13.25 13.308594 C 13.965216 12.553376 13.755486 12.096359 12.96875 11.71875 C 12.754184 11.633789 12.539457 11.591873 12.34375 11.587891 z M 10.982422 11.699219 C 10.314059 11.757089 9.7201431 11.782705 9.0332031 11.869141 C 8.7851156 11.886871 8.4696074 12.0209 8.3632812 12.091797 C 8.2569651 12.162697 7.8731688 12.620805 7.1289062 12.65625 C 6.7379524 12.66535 6.120926 12.832819 5.6074219 12.8125 C 5.1200798 12.79322 4.7286766 12.58717 4.5800781 12.585938 C 4.2965452 12.798614 4.7778268 12.956762 4.9316406 13.117188 C 5.2465393 13.402838 5.7704271 13.389166 6.2871094 13.285156 C 6.6769683 13.161096 7.2732573 13.117188 7.5390625 13.117188 C 7.8048776 13.117188 8.2911145 12.682944 8.5214844 12.523438 C 8.8936156 12.275317 9.4874824 12.189815 10.072266 12.384766 C 10.444397 12.526551 10.331034 12.945313 10.455078 12.945312 C 10.579122 12.945312 10.755292 13.05172 10.826172 13.175781 C 10.950216 13.370734 11.130142 13.327915 11.21875 13.115234 C 11.27194 12.973449 11.058186 12.670743 10.875 12.501953 C 10.741857 12.401767 10.606482 12.211662 10.763672 12.169922 C 11.401608 12.063584 11.53176 11.752387 10.982422 11.699219 z M 13.632812 13.125 C 13.607643 13.127346 13.586078 13.136375 13.570312 13.150391 C 13.383477 13.33726 13.672124 15.130643 14.3125 15.654297 C 14.38479 15.713437 14.415171 16.257751 14.396484 16.476562 C 14.329894 17.258395 14.402561 17.487975 14.533203 17.623047 C 14.832154 17.772542 15.026756 17.596863 14.970703 17.017578 C 14.914613 16.550406 14.952079 16.383129 15.101562 16.476562 C 15.213677 16.551313 15.308594 16.774913 15.308594 16.980469 C 15.308594 17.167338 15.400686 17.335938 15.494141 17.335938 C 15.606247 17.335938 15.681641 17.503428 15.681641 17.708984 C 15.812694 18.172957 15.754852 18.893783 16.410156 18.830078 C 16.76516 18.830078 17.143146 18.168242 16.638672 17.439453 C 16.264981 16.878847 15.700139 16.738444 15.849609 16.439453 C 16.055142 16.047029 16.03845 15.604526 15.679688 15.550781 C 15.480025 15.504581 14.933594 15.242299 14.933594 14.8125 C 14.933594 14.71907 14.765227 14.513621 14.541016 14.382812 C 14.335493 14.252004 14.380604 13.93745 14.417969 13.806641 C 14.502603 13.586486 13.876115 13.102326 13.632812 13.125 z M 9.7460938 13.316406 C 9.6768719 13.321965 9.5913087 13.346025 9.4902344 13.388672 C 9.2437367 13.472162 9.1525536 13.731488 9.1464844 13.880859 C 9.1414844 14.011559 8.9105321 14.273082 8.7402344 14.322266 C 8.5505093 14.389366 8.238107 14.478319 8.0625 14.658203 C 7.6724211 15.053796 6.9623567 15.251567 6.6601562 14.865234 C 6.5704635 14.745173 6.4210736 14.702187 6.2578125 14.714844 C 6.0968922 14.647614 5.8584362 14.622499 5.5 14.703125 C 4.9722252 14.737995 4.5063613 14.192152 4.1113281 13.943359 C 3.1986637 13.341828 3.088369 13.322451 2.7109375 13.384766 C 2.5303862 13.411886 2.30764 13.374463 1.8222656 13.382812 C 1.5718607 13.298602 1.4179815 13.371776 1.5136719 13.478516 C 1.6975458 13.689778 1.7535946 13.814661 1.6582031 13.869141 C 1.5508961 13.930421 1.577532 13.978923 1.7597656 14.048828 C 1.9044933 14.108508 2.100669 14.090788 2.2011719 14.017578 C 2.3016647 13.944368 2.3450917 13.973718 2.4609375 13.955078 C 2.5767443 13.936368 2.8736927 14.317568 3.1191406 14.439453 C 3.4719003 14.57439 3.9543869 14.384722 4.2148438 14.757812 C 4.5229754 15.214382 4.4588776 15.377023 4.0195312 15.216797 C 3.8373321 15.146897 3.6620736 15.199767 3.421875 15.416016 C 3.162943 15.627142 2.9987624 15.672861 2.7910156 15.585938 C 2.6394455 15.514387 2.1710402 15.595169 1.859375 15.630859 C 1.5408881 15.654619 1.2484413 15.278103 1.1582031 15.203125 C 0.91982338 15.007193 0.64762799 15.1948 0.81445312 15.431641 C 0.89617242 15.57474 0.86055586 15.704088 0.6953125 15.830078 C 0.3648818 16.08212 0.46319953 16.199698 1.1035156 16.324219 C 1.6433639 16.411239 2.5184744 16.437348 2.6582031 16.183594 C 2.6973981 16.113774 3.2138292 15.93765 3.3398438 15.992188 C 3.5595169 16.072308 3.9807416 15.981862 4.7949219 15.580078 C 4.992502 15.483048 5.2640682 15.376382 5.3730469 15.345703 C 5.4887482 15.376156 5.5841717 15.395389 5.6660156 15.40625 C 5.7973314 15.522748 5.9951698 15.618928 6.1445312 15.625 C 6.2192213 15.628 6.5514486 15.73775 6.8554688 15.619141 C 7.1400514 15.518498 7.480871 15.420033 7.5742188 15.423828 C 7.9491197 15.401668 8.927054 14.823714 9.453125 14.302734 C 10.027492 13.758002 10.119892 13.286389 9.7460938 13.316406 z M 11.515625 13.447266 C 11.48229 13.446702 11.447069 13.451451 11.412109 13.462891 C 11.305563 13.497761 11.314714 13.737311 11.183594 13.9375 C 11.034724 14.143501 10.790868 14.359864 10.613281 14.417969 C 10.417947 14.481879 10.334582 14.76513 10.361328 15.267578 C 10.366082 15.334195 10.374696 15.397782 10.388672 15.458984 C 10.310555 15.53604 10.230485 15.623794 10.152344 15.716797 C 9.8256471 16.085159 9.4691169 16.377474 9.3457031 16.355469 C 9.2418967 16.330589 8.9735009 16.549498 8.7558594 16.841797 C 8.538218 17.134095 8.3147778 17.386954 8.2363281 17.398438 C 8.1578381 17.409917 8.0130268 17.65154 7.9355469 17.943359 C 7.9232623 17.984626 7.9134004 18.022745 7.9042969 18.058594 C 7.6700671 18.575355 7.3216262 19.510056 7.1992188 19.826172 C 7.0093875 20.279973 6.7643978 20.672328 6.640625 20.691406 C 6.5344629 20.701426 6.3515428 20.997098 6.2402344 21.34375 C 6.128927 21.690402 6.0001363 22.000904 5.9296875 22.037109 C 5.8592365 22.073309 5.6625676 22.286982 5.6835938 22.587891 C 5.7080408 23.198758 6.6129253 23.74638 6.9160156 23.123047 C 7.0373497 22.88257 6.7731981 22.457888 6.8964844 22.394531 C 7.0373809 22.322121 7.0678902 21.696903 7.1796875 21.394531 C 7.2914819 21.092159 7.4919495 20.789921 7.6152344 20.726562 C 7.7385192 20.663203 7.808921 20.537291 7.7636719 20.449219 C 7.7184279 20.361149 7.8217007 20.173889 7.9882812 20.021484 C 8.2038359 19.83254 8.3681657 18.77826 8.3125 18.158203 C 8.338686 18.133105 8.3660158 18.104887 8.3945312 18.076172 C 8.5873061 17.887684 8.862708 17.707594 9 17.6875 C 9.1568894 17.66453 9.3411486 17.222856 9.5449219 16.972656 C 9.7486852 16.722456 10.120531 16.723219 10.257812 16.703125 C 10.395095 16.683025 10.500676 16.586352 10.486328 16.488281 C 10.472028 16.390211 10.941314 16.406819 11.148438 16.316406 C 11.19338 16.297914 11.229934 16.26916 11.257812 16.232422 C 11.369479 16.169624 11.415695 15.999933 11.322266 15.699219 L 11.216797 15.361328 C 11.098922 14.981933 11.482231 14.606199 11.458984 14.535156 C 11.435784 14.464116 11.560364 14.304696 11.738281 14.1875 C 12.060746 13.97508 11.837863 13.452717 11.515625 13.447266 z M 20.324219 13.542969 C 19.995549 13.536338 19.5695 13.771275 20.064453 13.951172 L 20.621094 14.152344 C 21.445254 14.451894 21.739993 14.968381 22.414062 15.050781 C 23.305135 15.19388 23.371295 16.11552 23.960938 16.335938 C 24.450892 16.533299 25.011767 14.856697 24.5625 14.574219 C 24.339393 14.449086 23.967783 14.823785 23.853516 14.818359 C 23.742303 14.845149 23.584494 14.713515 23.490234 14.576172 C 23.292554 14.204845 22.479722 14.144828 22.228516 14.304688 C 22.035235 14.462616 21.451835 13.762512 20.455078 13.560547 C 20.415 13.548888 20.371171 13.543916 20.324219 13.542969 z M 15.990234 13.789062 C 15.468614 13.789033 14.854325 13.831195 14.818359 14.019531 C 14.766169 14.374194 15.063726 14.585905 15.447266 14.615234 C 15.627382 14.629004 15.904297 14.567026 15.904297 14.691406 C 15.904297 14.840663 15.929695 15.285639 16.117188 15.029297 C 16.359073 14.698548 16.79537 14.645818 17.1875 14.632812 C 17.538691 14.680249 18.020062 14.848964 18.279297 15.103516 C 18.488485 15.325956 18.615681 15.274546 18.824219 15.435547 C 18.829583 15.439855 18.834176 15.444966 18.839844 15.449219 C 18.864834 15.469427 18.890321 15.49235 18.917969 15.519531 C 18.930073 15.519531 18.942825 15.519673 18.955078 15.519531 C 19.029701 15.558203 19.119943 15.593372 19.228516 15.625 C 20.45937 15.967712 21.527542 16.850368 21.572266 17.275391 C 21.640746 17.802211 21.846513 18.467553 22.271484 18.892578 C 22.674083 19.272864 22.62017 19.826992 23.074219 19.175781 C 23.449244 18.637911 23.233024 18.667731 22.919922 18.130859 C 22.718618 17.750573 22.539063 17.213749 22.539062 16.945312 C 22.539062 16.27422 21.122877 15.934491 20.363281 15.460938 C 20.056242 15.286981 19.682189 15.069705 19.386719 14.945312 C 19.284702 14.848131 19.138877 14.777344 18.955078 14.777344 C 18.643719 14.777344 18.306693 14.461419 18.140625 14.417969 C 18.083599 14.392403 18.040539 14.372382 17.996094 14.353516 C 17.929998 14.085717 17.307161 13.894528 16.580078 13.806641 C 16.444318 13.798856 16.227334 13.789076 15.990234 13.789062 z M 12.880859 13.830078 C 12.455201 13.837347 12.596697 14.017376 12.455078 14.509766 C 11.893493 15.212575 12.132312 15.497389 12.242188 15.898438 C 12.316878 15.898438 12.353821 16.197683 12.316406 16.552734 C 12.241716 17.132028 12.151353 17.08896 11.71875 17.207031 C 11.119006 17.370721 10.887954 17.480346 10.845703 17.572266 C 10.610527 17.646555 10.323632 17.853033 10.121094 18.046875 C 9.636499 18.765378 9.3910253 19.710456 9.4589844 20.439453 C 9.5806285 21.311307 9.5406476 21.43321 8.9121094 22.082031 C 8.3444598 22.670024 8.2835886 22.833513 8.4863281 23.21875 C 8.6079721 23.482333 8.0590617 23.849976 8.0996094 24.052734 C 8.1401444 24.275766 8.9537917 24.495813 9.0957031 24.556641 C 9.2781641 24.617461 9.4834401 24.530217 9.4023438 24.185547 C 9.3212748 23.84086 9.3255512 23.609285 9.609375 23.345703 C 9.8526521 23.12267 9.9453125 22.751585 9.9453125 22.548828 C 9.9453125 21.879732 9.9975651 21.909945 10.302734 21.658203 C 10.662438 21.361474 10.771206 21.11744 10.746094 20.855469 C 10.664914 20.551334 10.678017 20.43304 10.617188 20.128906 C 10.556387 19.824771 10.491421 19.410637 10.371094 19.041016 C 10.284869 18.835758 10.960431 18.224078 11.175781 17.896484 C 11.174664 17.923194 11.153672 17.955026 11.130859 17.984375 C 11.173535 17.942607 11.235551 17.883332 11.345703 17.785156 C 11.429403 17.710556 11.47553 17.580078 11.625 17.580078 C 11.961326 17.580078 11.961326 17.506368 11.625 18.814453 C 11.552882 19.102975 11.510527 19.349906 11.488281 19.537109 C 11.280168 19.877534 11.351358 20.949205 11.646484 21.267578 C 11.855624 21.525405 12.034672 21.694104 12.091797 21.806641 C 12.285133 22.187524 12.401012 22.631963 12.253906 22.753906 C 11.959898 23.101191 11.769851 23.33796 11.816406 23.515625 C 11.836286 23.71176 11.26416 24.335603 11.089844 24.4375 C 10.654053 24.692243 11.248211 25 12.498047 25 C 13.247949 25 13.540253 24.604025 13.058594 24.330078 C 12.907758 24.272058 12.964352 24.121428 13.138672 24.019531 C 13.356567 23.892159 13.345996 23.724325 13.166016 23.566406 C 12.951503 23.39943 12.975878 23.239091 13.224609 23.064453 C 13.494756 22.913816 13.212368 22.679824 13.304688 22.443359 C 13.407537 22.234509 13.229109 21.351305 12.695312 21.208984 C 12.004812 21.02788 12.365147 20.669431 12.412109 20.349609 C 12.423849 20.022146 12.312008 19.795316 12.330078 19.621094 C 12.343899 19.487809 12.342142 19.385761 12.330078 19.306641 C 12.336864 19.273731 12.343547 19.240884 12.347656 19.205078 C 12.443446 18.837387 12.554422 18.438566 12.591797 17.597656 C 12.629197 16.868867 13.310623 16.775339 13.441406 16.644531 C 13.553521 16.53241 13.419071 15.468383 13.400391 15.244141 C 13.388891 14.691669 13.390911 13.85664 13.099609 13.837891 C 13.013138 13.832256 12.941668 13.82904 12.880859 13.830078 z M 11.130859 17.984375 C 11.025257 18.087731 11.079932 18.049895 11.130859 17.984375 z M 16.962891 15.195312 C 16.830386 15.19993 16.696698 15.251054 16.599609 15.339844 C 16.573752 15.363488 16.54424 15.458762 16.525391 15.576172 C 16.497697 15.627841 16.491125 15.69325 16.505859 15.771484 C 16.501208 15.898838 16.513513 16.02273 16.556641 16.09375 C 16.665257 16.272572 16.942632 16.723522 17.007812 16.902344 C 17.116944 17.216016 17.759174 17.312204 18.113281 17.1875 C 18.135479 17.294216 18.078207 17.41917 17.953125 17.583984 C 17.864995 17.695992 18.530511 19.524315 18.6875 19.615234 C 18.73978 19.645544 18.852789 19.571206 18.933594 19.431641 C 19.095203 19.15251 19.724679 19.192226 20.078125 19.466797 C 20.197474 19.582502 20.457279 20.057889 20.644531 20.539062 C 20.831782 21.020225 21.061703 21.386789 21.171875 21.357422 C 21.355155 21.300622 21.701577 21.014809 21.714844 20.857422 C 21.726234 20.722305 21.428836 20.721513 21.291016 20.587891 C 21.12944 20.424445 21.084512 20.143202 21.185547 19.96875 C 21.296659 19.776854 21.176987 19.217503 20.898438 18.613281 C 20.436726 17.600437 20.436322 17.601449 19.773438 17.660156 C 19.210636 17.706936 19.096044 17.662272 19.025391 17.341797 C 18.991401 17.159085 18.80461 16.958161 18.634766 16.929688 C 18.464921 16.901197 18.187031 16.578365 18.011719 16.197266 C 17.810463 15.740209 17.67171 15.554468 17.414062 15.480469 C 17.330977 15.275711 17.14862 15.18884 16.962891 15.195312 z M 5.6660156 16.046875 C 5.4438135 16.046875 5.110134 16.190377 4.9355469 16.380859 C 4.7450889 16.555469 4.5078318 16.73022 4.3808594 16.746094 C 4.2538881 16.761964 3.9685415 16.888885 3.7304688 17 C 3.270195 17.222231 3.1110245 17.792969 3.5078125 17.792969 C 3.6347839 17.792969 3.8415307 17.841052 3.984375 17.888672 C 4.1748331 17.952162 4.2382812 17.888495 4.2382812 17.650391 C 4.2382812 17.459908 4.3339646 17.316406 4.4609375 17.316406 C 4.5879099 17.316406 4.9999433 17.03086 5.3808594 16.681641 C 6.0315914 16.078444 6.0469317 16.062749 5.6660156 16.046875 z M 7.5332031 16.398438 C 6.9057124 16.382685 5.933913 17.67127 5.3144531 18.646484 C 4.9121008 19.002026 3.8261689 19.123901 3.5957031 18.992188 C 3.4803962 18.909868 3.23492 18.84375 3.0703125 18.84375 C 2.8892143 18.84375 2.6079798 18.728251 2.4433594 18.580078 C 2.1799649 18.316649 2.1475901 18.316649 2.0488281 18.580078 C 1.9007395 18.958757 2.2954932 19.386734 2.7070312 19.271484 C 2.9374971 19.205614 3.1528861 19.305772 3.3339844 19.552734 C 3.5809021 19.865555 3.6618334 19.882278 3.9746094 19.701172 C 4.1557076 19.585917 4.3537891 19.503343 4.3867188 19.552734 C 4.4197048 19.585664 4.3859264 20.012771 4.2871094 20.490234 C 4.0731084 21.609806 3.9683538 21.761162 4.2949219 21.804688 C 4.4670563 21.785097 4.6835937 21.499177 4.6835938 21.400391 C 4.6835938 21.285136 4.8311814 20.886183 5.078125 20.705078 C 5.3415196 20.507507 5.4779577 20.023759 5.6425781 19.710938 C 5.790668 19.414581 6.1637835 19.139527 6.2460938 19.007812 C 6.5094892 18.546814 7.6760602 16.503084 7.59375 16.404297 C 7.5742518 16.401022 7.5534448 16.398946 7.5332031 16.398438 z M 13.746094 17.621094 C 13.5529 17.621487 13.362227 18.095006 13.439453 18.455078 C 13.505543 18.680122 13.277416 19.793317 13.484375 20.080078 C 13.550447 20.164414 13.62782 20.215244 13.710938 20.238281 C 13.711524 20.23955 13.712298 20.240929 13.712891 20.242188 C 14.007632 20.797085 14.318834 22.011218 14.353516 22.6875 C 14.405476 24.421554 14.418628 24.651579 14.748047 24.738281 C 14.956112 24.790301 15.697446 24.641984 15.992188 24.3125 C 16.512348 23.705581 16.087 23.536974 15.740234 23.242188 C 15.51483 23.068782 15.514632 22.98229 15.722656 22.6875 C 15.930706 22.392711 15.932243 22.271404 15.689453 21.837891 C 15.516071 21.560442 15.340834 21.333984 15.271484 21.333984 C 15.184774 21.333984 15.132812 21.143396 15.132812 20.917969 C 15.132812 20.692544 15.011691 20.416305 14.873047 20.294922 C 14.734235 20.173534 14.613281 19.825801 14.613281 19.513672 C 14.613281 19.432236 14.605244 19.34211 14.587891 19.25 C 14.588948 19.168957 14.58159 19.084634 14.564453 19 C 14.476963 18.522778 13.950854 17.805541 13.876953 17.703125 C 13.835384 17.645517 13.790677 17.621003 13.746094 17.621094 z M 16.085938 19.234375 C 15.853593 19.250865 15.64426 19.429151 15.5625 19.535156 C 15.414507 19.715786 15.454048 19.910674 15.666016 20.074219 C 15.87007 20.21431 16.106023 20.605278 16.208984 20.910156 C 16.399066 21.473008 16.398354 21.472655 16.599609 20.908203 C 16.769806 20.406541 16.809505 20.444637 17.173828 21.523438 C 17.364218 22.164569 17.727066 22.930036 17.947266 23.195312 C 18.33255 23.639969 18.356896 23.632823 18.613281 23.154297 C 18.799629 22.777817 18.759722 22.503395 18.460938 22.160156 C 18.224891 21.847979 18.120769 21.465946 18.181641 21.027344 C 18.311615 20.251866 17.602898 19.31401 17.173828 19.667969 C 17.033447 19.79378 16.643876 19.46001 16.322266 19.28125 C 16.243843 19.242422 16.163386 19.228878 16.085938 19.234375 z M 19.238281 20.365234 C 19.09759 20.369099 18.934005 20.534139 18.84375 20.832031 C 18.76554 21.070046 18.855777 21.291737 19.111328 21.472656 C 19.336816 21.63229 19.563991 21.95055 19.603516 22.181641 C 19.688816 22.603112 19.728184 22.609284 20.144531 22.339844 C 20.748701 21.932559 20.755296 21.892847 20.345703 21.738281 C 20.163454 21.676961 19.996666 21.468207 19.976562 21.273438 C 19.971463 21.089308 19.868212 20.948438 19.746094 20.929688 C 19.639007 20.921588 19.508662 20.784131 19.462891 20.59375 C 19.419592 20.434743 19.334544 20.36259 19.238281 20.365234 z " />
</svg>
