<?xml version="1.0" encoding="UTF-8" standalone="no"?>
<svg
   version="1.1"
   id="svg2"
   viewBox="0 1 14 14"
   height="14"
   width="14"
   xmlns="http://www.w3.org/2000/svg"
   xmlns:svg="http://www.w3.org/2000/svg"
   xmlns:rdf="http://www.w3.org/1999/02/22-rdf-syntax-ns#"
   xmlns:cc="http://creativecommons.org/ns#"
   xmlns:dc="http://purl.org/dc/elements/1.1/">
  <rect
     width="14"
     height="14"
     x="0"
     y="0"
     id="canvas"
     style="fill:none;stroke:none;visibility:hidden" />
  <path
     id="body"
     style="fill-rule:evenodd"
     d="M 3.5 2 A 1.5 1.5 0 0 0 2 3.5 L 2 6 L 1.5 6 A 1.5 1.5 0 0 0 0 7.5 L 0 10.5 A 1.5 1.5 0 0 0 1 11.902344 L 1 14 L 3 14 L 3 12 L 11 12 L 11 14 L 13 14 L 13 11.902344 A 1.5 1.5 0 0 0 14 10.5 L 14 7.5 A 1.5 1.5 0 0 0 12.5 6 L 12 6 L 12 3.5 A 1.5 1.5 0 0 0 10.5 2 L 3.5 2 z M 4.5 3.5 L 9.5 3.5 A 1 1 0 0 1 10.5 4.5 L 10.5 6 L 3.5 6 L 3.5 4.5 A 1 1 0 0 1 4.5 3.5 z M 2.5 7.5996094 A 0.89999998 0.89999998 0 0 1 3.4003906 8.5 A 0.89999998 0.89999998 0 0 1 2.5 9.4003906 A 0.89999998 0.89999998 0 0 1 1.5996094 8.5 A 0.89999998 0.89999998 0 0 1 2.5 7.5996094 z M 11.5 7.5996094 A 0.89999998 0.89999998 0 0 1 12.400391 8.5 A 0.89999998 0.89999998 0 0 1 11.5 9.4003906 A 0.89999998 0.89999998 0 0 1 10.599609 8.5 A 0.89999998 0.89999998 0 0 1 11.5 7.5996094 z " style="fill:#000000" />
</svg>
