<?xml version="1.0" encoding="UTF-8" standalone="no"?>
<svg
   xmlns:dc="http://purl.org/dc/elements/1.1/"
   xmlns:cc="http://creativecommons.org/ns#"
   xmlns:rdf="http://www.w3.org/1999/02/22-rdf-syntax-ns#"
   xmlns:svg="http://www.w3.org/2000/svg"
   xmlns="http://www.w3.org/2000/svg"
   id="svg2"
   viewBox="0 0 14 14"
   height="14"
   width="14"
   version="1.1">
  <rect
     style="fill:none;stroke:none;visibility:hidden"
     id="canvas"
     y="0"
     x="0"
     height="14"
     width="14" />
  <path
     id="rect4255"
     d="M 9.5,1 C 8,1 5.889044,1.743674 6,3.5 5.5,3.75 5.000793,4.312893 5,5 5,5.828427 5.671573,6.5 6.5,6.5 7.25,6.5 7.995744,5.897651 8,5 9.66676,5.06307 12.910352,4.685426 13,3 13,1.895431 11.432997,1 9.5,1 Z M 5,7 1,12 7,12 13,12 8,7 C 7,9 6,9 5,7 Z"
     style="fill:#000000" />
</svg>
