<?xml version="1.0" encoding="UTF-8" standalone="no"?>
<svg
   xmlns:dc="http://purl.org/dc/elements/1.1/"
   xmlns:cc="http://creativecommons.org/ns#"
   xmlns:rdf="http://www.w3.org/1999/02/22-rdf-syntax-ns#"
   xmlns:svg="http://www.w3.org/2000/svg"
   xmlns="http://www.w3.org/2000/svg"
   version="1.1"
   width="16"
   height="16"
   viewBox="0 0 16 16"
   id="svg4">
  <rect
     width="16"
     height="16"
     x="0"
     y="0"
     id="canvas"
     style="fill:none;stroke:none;visibility:hidden" />
  <path
     style="fill:#000000"
     d="m 9.5044216,0.99973732 a 2,2 0 0 0 -2.0000004,1.99999998 2,2 0 0 0 0.269531,1 h 0.296875 a 1.75,1.75 0 0 0 1.4335944,0.75 1.75,1.75 0 0 0 1.4355474,-0.75 h 0.292969 a 2,2 0 0 0 0.271484,-1 2,2 0 0 0 -2.0000004,-1.99999998 z m 0,0.49999998 a 1.5,1.5 0 0 1 1.5000004,1.5 1.5,1.5 0 0 1 -1.5000004,1.5 1.5,1.5 0 0 1 -1.5000004,-1.5 1.5,1.5 0 0 1 1.5000004,-1.5 z m 0,0.238281 a 1.25,1.25 0 0 0 -1.2500004,1.25 1.25,1.25 0 0 0 1.2500004,1.25 1.25,1.25 0 0 0 1.2500004,-1.25 1.25,1.25 0 0 0 -1.2500004,-1.25 z m -1.0136724,3.238281 a 1.0001,1.0001 0 0 0 -0.537109,0.167969 1.0001,1.0001 0 0 0 -0.04297,0.0293 1.0001,1.0001 0 0 0 -0.222656,0.21875 l -3.212891,0.603516 a 0.50005,0.50005 0 0 0 -0.259765,0.09375 0.50085473,0.50085473 0 0 0 -0.0293,0.02344 0.50005,0.50005 0 0 0 -0.01758,0.01563 0.50085473,0.50085473 0 0 0 -0.01953,0.01758 0.50085473,0.50085473 0 0 0 -0.0332,0.03711 l -1.964844,1.96289 a 0.50005,0.50005 0 0 0 0.673828,0.738281 1.5,2 60 0 0 -0.392578,1.021485 1.5,2 60 0 0 2.009766,-0.148438 1.5,2 60 0 0 1.132812,-1.666015 1.5,2 60 0 0 -2.007812,0.15039 1.5,2 60 0 0 -0.300781,0.203125 l 1.482422,-1.482422 2.558593,-0.478515 -0.759765,2.472656 a 1.0001,1.0001 0 0 0 0.207032,0.978503 v 1.6347647 l -0.376953,0.753906 -2.181641,2.423829 a 0.75026268,0.75026268 0 1 0 1.115235,1.003906 l 2.076171,-2.308594 1.335938,1.335938 a 0.750075,0.750075 0 1 0 1.0605474,-1.060547 l -1.5000004,-1.5 a 0.750075,0.750075 0 0 0 -0.029297,-0.02734 v -0.265625 l 0.865234,-1.730469 A 1.0001,1.0001 0 0 0 9.7094996,9.5427093 l 0.7460944,-2.43164 1.43164,0.65625 -0.857421,2.5742187 a 0.50005,0.50005 0 1 0 0.947265,0.316406 L 12.96536,7.6950493 a 0.50036297,0.50036297 0 0 0 0.01172,-0.03711 0.50005,0.50005 0 0 0 0.0039,-0.0098 0.50036297,0.50036297 0 0 0 0.01563,-0.07227 0.50005,0.50005 0 0 0 0.0039,-0.02734 0.50036297,0.50036297 0 0 0 0.0039,-0.03711 0.50005,0.50005 0 0 0 -0.357422,-0.496093 l -1.867187,-0.855469 a 1.0001,1.0001 0 0 0 -0.728516,-1.138672 1.0001,1.0001 0 0 0 -0.3105474,-0.04492 1.0001,1.0001 0 0 0 -0.160156,0.01758 l -0.3476564,0.0059 a 1.0002308,1.0002308 0 0 0 -0.105469,0.0098 1.0002308,1.0002308 0 0 0 -0.101563,-0.0098 l -0.330078,-0.0059 a 1.0001,1.0001 0 0 0 -0.205078,-0.01758 z"
     id="path4285-6-6-7" />
</svg>
