<?xml version="1.0" encoding="UTF-8" standalone="no"?>
<svg
   xmlns:dc="http://purl.org/dc/elements/1.1/"
   xmlns:cc="http://creativecommons.org/ns#"
   xmlns:rdf="http://www.w3.org/1999/02/22-rdf-syntax-ns#"
   xmlns:svg="http://www.w3.org/2000/svg"
   xmlns="http://www.w3.org/2000/svg"
   version="1.1"
   width="16"
   height="16"
   viewBox="0 0 16 16"
   id="svg4">
  <rect
     width="16"
     height="16"
     x="0"
     y="0"
     id="canvas"
     style="fill:none;stroke:none;visibility:hidden" />
  <path
     id="path4313-2-2-4-0"
     d="m 6.5325826,1.7406264 a 1.25,1.25 0 0 0 -1.25,1.25 1.25,1.25 0 0 0 1.25,1.25 1.25,1.25 0 0 0 1.25,-1.25 1.25,1.25 0 0 0 -1.25,-1.25 z m -0.00781,3.242188 a 0.750075,0.750075 0 0 0 -0.4433624,0.146484 l -0.3144531,0.15625 a 0.750075,0.750075 0 0 0 -0.1328125,0.06836 0.750075,0.750075 0 0 0 -0.2617188,0.248047 l -2.5527343,2.785156 a 0.750075,0.750075 0 0 0 -0.21875,0.269532 0.750075,0.750075 0 0 0 -0.00781,0.01563 0.750075,0.750075 0 0 0 -0.00195,0.0059 0.750075,0.750075 0 0 0 0.1113281,0.839844 L 4.2298533,12.762157 1.5775096,13.51997 a 0.750075,0.750075 0 1 0 0.4101562,1.441406 L 5.304072,14.014111 A 0.750075,0.750075 0 0 0 6.0130564,13.055126 0.750075,0.750075 0 0 0 5.929072,12.852001 l -1.40625,-2.9843746 2.9375,1.1132806 -0.421875,3.160157 a 0.75077772,0.75077772 0 1 0 1.4882807,0.199218 l 0.476563,-3.578125 a 0.750075,0.750075 0 0 0 0,-0.002 0.750075,0.750075 0 0 0 -0.123047,-0.736328 0.750075,0.750075 0 0 0 -0.02539,-0.03125 0.750075,0.750075 0 0 0 -0.02344,-0.02539 0.750075,0.750075 0 0 0 -0.0293,-0.02734 0.750075,0.750075 0 0 0 -0.002,0 0.750075,0.750075 0 0 0 -0.365234,-0.19336 l -2.8925315,-1.095707 1.5917969,-1.910156 2.2871096,2.097656 a 0.50005,0.50005 0 0 0 0.0098,0.0098 l 0.01367,0.01172 a 0.50005,0.50005 0 0 0 0.06445,0.05078 0.50043495,0.50043495 0 0 0 0.01563,0.0098 0.50005,0.50005 0 0 0 0.02734,0.01367 0.50043495,0.50043495 0 0 0 0.0625,0.02734 l 1.7207033,0.738281 a 0.50005,0.50005 0 1 0 0.394505,-0.917968 L 10.059931,8.0668614 7.4876654,5.7074864 A 0.750075,0.750075 0 0 0 7.2337592,5.3793614 L 7.1321967,5.2777984 a 0.750075,0.750075 0 0 0 -0.3144532,-0.236328 0.750075,0.750075 0 0 0 -0.046875,-0.01758 0.750075,0.750075 0 0 0 -0.023437,-0.0078 0.750075,0.750075 0 0 0 -0.2226563,-0.0332 z m 8.0078104,4.757812 a 0.75,0.75 0 0 0 -0.75,0.7499996 0.75,0.75 0 0 0 0.75,0.75 0.75,0.75 0 0 0 0.75,-0.75 0.75,0.75 0 0 0 -0.75,-0.7499996 z"
     style="fill:#000000" />
</svg>
