<?xml version="1.0" encoding="UTF-8" standalone="no"?>
<svg
   xmlns:dc="http://purl.org/dc/elements/1.1/"
   xmlns:cc="http://creativecommons.org/ns#"
   xmlns:rdf="http://www.w3.org/1999/02/22-rdf-syntax-ns#"
   xmlns:svg="http://www.w3.org/2000/svg"
   xmlns="http://www.w3.org/2000/svg"
   version="1.1"
   width="16"
   height="16"
   viewBox="0 0 16 16"
   id="svg4">
  <rect
     width="16"
     height="16"
     x="0"
     y="0"
     id="canvas"
     style="fill:none;stroke:none;visibility:hidden" />
  <path
     id="path4313-2-1"
     d="m 6.5268877,0.7393478 a 1.25,1.25 0 0 0 -1.25,1.25 1.25,1.25 0 0 0 1.25,1.25 1.25,1.25 0 0 0 1.25,-1.25 1.25,1.25 0 0 0 -1.25,-1.25 z m 7.4999983,1.5 c -0.963537,0 -1.75,0.786463 -1.75,1.75 0,0.335112 0.09905,0.645472 0.263672,0.912109 a 0.250025,0.250025 0 0 0 -0.0098,0.03906 l -0.242153,1.207031 -0.533204,0.888672 a 0.50005,0.50005 0 0 0 -0.0078,-0.0039 L 7.9136057,4.3252888 a 0.750075,0.750075 0 0 0 -0.013672,-0.01953 0.750075,0.750075 0 0 0 -0.6367188,-0.326172 0.750075,0.750075 0 0 0 -0.099609,0.0098 H 6.1440746 a 0.750075,0.750075 0 0 0 -0.095703,-0.0098 0.750075,0.750075 0 0 0 -0.3769532,0.09375 0.750075,0.750075 0 0 0 -0.027344,0.01563 0.750075,0.750075 0 0 0 -0.027344,0.01563 0.750075,0.750075 0 0 0 -0.015625,0.0098 0.750075,0.750075 0 0 0 -0.039063,0.0293 0.750075,0.750075 0 0 0 -0.2851547,0.464792 l -1.4335938,4.0625 a 0.750075,0.750075 0 0 0 -0.056641,0.18164 0.750075,0.750075 0 0 0 0,0.300781 l 0.1953125,2.5332042 -2.9101561,0.832031 a 0.750075,0.750075 0 1 0 0.410156,1.441406 l 3.5000001,-1 a 0.750075,0.750075 0 0 0 0.019531,-0.0059 0.75018822,0.75018822 0 0 0 0.050781,-0.01758 0.750075,0.750075 0 0 0 0.019531,-0.0078 0.75018822,0.75018822 0 0 0 0.048828,-0.02344 0.750075,0.750075 0 0 0 0.019531,-0.0098 0.75018822,0.75018822 0 0 0 0.017578,-0.01172 0.750075,0.750075 0 0 0 0.1054687,-0.07227 0.75018822,0.75018822 0 0 0 0.00586,-0.0039 0.750075,0.750075 0 0 0 0.25,-0.689453 L 5.3432928,9.8252198 7.7886054,11.680688 5.8843085,14.852563 a 0.750075,0.750075 0 1 0 1.2851562,0.773438 l 2.1875005,-3.646485 a 0.750075,0.750075 0 0 0 0.175781,-0.533203 0.750075,0.750075 0 0 0 0,-0.002 0.750075,0.750075 0 0 0 -0.0078,-0.07227 0.750075,0.750075 0 0 0 0,-0.002 0.750075,0.750075 0 0 0 -0.002,-0.0059 0.750075,0.750075 0 0 0 -0.392578,-0.548828 L 6.429236,8.7645338 7.0972047,7.1434398 8.1030641,8.7547678 a 0.50018686,0.50018686 0 0 0 0.00977,0.01367 0.50028184,0.50028184 0 0 0 0.015625,0.02344 0.50018686,0.50018686 0 0 0 0.00391,0.0039 0.50028184,0.50028184 0 0 0 0.029297,0.03516 0.50018686,0.50018686 0 0 0 0.0019,0.002 0.50028184,0.50028184 0 0 0 0.0332,0.0332 0.50018686,0.50018686 0 0 0 0.0039,0.002 0.50028184,0.50028184 0 0 0 0.03516,0.02734 0.50018686,0.50018686 0 0 0 0.03516,0.02148 0.50028184,0.50028184 0 0 0 0.0078,0.0059 0.50018686,0.50018686 0 0 0 0.0039,0.002 0.50028184,0.50028184 0 0 0 0.04102,0.02148 0.50018686,0.50018686 0 0 0 0.0293,0.01172 0.50028184,0.50028184 0 0 0 0.01563,0.0059 0.50018686,0.50018686 0 0 0 0.002,0 0.50018686,0.50018686 0 0 0 0.0039,0.002 0.50028184,0.50028184 0 0 0 0.04297,0.01172 0.50018686,0.50018686 0 0 0 0.0039,0 0.50028184,0.50028184 0 0 0 0.04492,0.0078 0.50018686,0.50018686 0 0 0 0.05273,0.0039 0.50018686,0.50018686 0 0 0 0.0019,0 0.50028184,0.50028184 0 0 0 0.123047,-0.01367 0.50018686,0.50018686 0 0 0 0.02148,-0.0059 0.50028184,0.50028184 0 0 0 0.0039,-0.002 0.50018686,0.50018686 0 0 0 0.04687,-0.01563 l 2.9511699,-0.982422 a 0.50018678,0.50018678 0 0 0 0.04687,-0.01758 0.50005,0.50005 0 0 0 0.31836,-0.404297 l 0.675781,-1.125 1.164063,-0.699219 c 0.05169,0.0047 0.101415,0.015688 0.154282,0.015688 0.963537,0 1.75,-0.786463 1.75,-1.75 0,-0.963537 -0.786463,-1.75 -1.75,-1.75 z m 0,0.5 c 0.04503,0 0.0871,0.0091 0.13086,0.01367 l -0.13086,0.130861 -0.130859,-0.130859 c 0.04376,-0.00458 0.08583,-0.013672 0.130859,-0.013672 z m -0.3125,0.042969 0.207031,0.207031 -0.394531,0.394531 -0.322265,-0.322265 c 0.14521,-0.12853 0.31551,-0.229426 0.509765,-0.279297 z m 0.625,0 c 0.194256,0.04987 0.364555,0.150767 0.509766,0.279297 l -0.322266,0.322265 -0.394531,-0.394531 z m -0.3125,0.3125 0.394531,0.394531 -0.394531,0.394531 -0.394531,-0.394531 z m -0.927734,0.072265 0.322265,0.322266 -0.394531,0.394531 -0.207031,-0.207031 c 0.04987,-0.194256 0.150767,-0.364555 0.279297,-0.509766 z m 1.855469,0 c 0.128529,0.145211 0.229426,0.31551 0.279296,0.509766 l -0.207031,0.207031 -0.394531,-0.394531 z m -1.427735,0.427735 0.394531,0.394531 -0.394531,0.394531 -0.394531,-0.394531 z m 1,0 0.394531,0.394531 -0.394531,0.394531 -0.394531,-0.394531 z m -1.736328,0.263672 0.130859,0.130859 -0.130859,0.130859 c -0.0046,-0.04376 -0.01367,-0.085831 -0.01367,-0.130859 0,-0.04503 0.0091,-0.0871 0.01367,-0.130859 z m 2.472656,0 c 0.0046,0.04376 0.01367,0.085831 0.01367,0.130859 0,0.04503 -0.0091,0.0871 -0.01367,0.130859 l -0.130859,-0.130859 z m -2.236328,0.236328 0.394531,0.394531 -0.322265,0.322266 c -0.12853,-0.145211 -0.229426,-0.31551 -0.279297,-0.509766 z m 1,0 0.394531,0.394531 -0.394531,0.394531 -0.394531,-0.394531 z m 1,0 0.207031,0.207031 c -0.04987,0.194256 -0.150767,0.364555 -0.279296,0.509766 l -0.322266,-0.322266 z m -1.5,0.5 0.394531,0.394531 -0.207031,0.207031 c -0.194255,-0.04987 -0.364555,-0.150767 -0.509765,-0.279297 z m 1,0 0.322266,0.322265 c -0.145211,0.12853 -0.31551,0.229426 -0.509766,0.279297 l -0.207031,-0.207031 z m -0.5,0.5 0.13086,0.130859 c -0.04376,0.00458 -0.08583,0.013672 -0.13086,0.013672 -0.04503,0 -0.0871,-0.0091 -0.130859,-0.01367 z m -1.068359,0.269531 c 0.08198,0.06396 0.169082,0.119197 0.261719,0.167969 l -0.335938,0.201172 z m -5.1699205,0.09961 2.6406235,1.863282 -1.6874988,0.5625 -1.175781,-1.882813 z m 6.7382795,3.27539 a 0.75,0.75 0 0 0 -0.75,0.75 0.75,0.75 0 0 0 0.75,0.7500002 0.75,0.75 0 0 0 0.75,-0.7500002 0.75,0.75 0 0 0 -0.75,-0.75 z"
     style="fill:#000000" />
</svg>
