<?xml version="1.0" encoding="UTF-8" standalone="no"?>
<svg
   xmlns:dc="http://purl.org/dc/elements/1.1/"
   xmlns:cc="http://creativecommons.org/ns#"
   xmlns:rdf="http://www.w3.org/1999/02/22-rdf-syntax-ns#"
   xmlns:svg="http://www.w3.org/2000/svg"
   xmlns="http://www.w3.org/2000/svg"
   version="1.1"
   width="16"
   height="16"
   viewBox="0 0 16 16"
   id="svg4">
  <rect
     width="16"
     height="16"
     x="0"
     y="0"
     id="canvas"
     style="fill:none;stroke:none;visibility:hidden" />
  <path
     id="path4313-2-2-5"
     d="m 6.5212293,0.74940224 a 1.25,1.25 0 0 0 -1.25,1.25000006 1.25,1.25 0 0 0 1.25,1.25 1.25,1.25 0 0 0 1.25,-1.25 1.25,1.25 0 0 0 -1.25,-1.25000006 z M 6.2575573,3.9896363 a 0.750075,0.750075 0 0 0 -0.398437,0.125 0.750075,0.750075 0 0 0 -0.01367,0.0098 0.750075,0.750075 0 0 0 -0.0078,0.0059 0.750075,0.750075 0 0 0 -0.30664,0.447266 l -1.654297,4.019531 a 0.750075,0.750075 0 0 0 -0.107422,0.324219 0.750075,0.750075 0 0 0 -0.002,0.0098 0.750075,0.750075 0 0 0 0,0.0078 0.750075,0.750075 0 0 0 0.173828,0.568359 l 1.701172,3.1894537 -1.486328,2.123046 a 0.75042965,0.75042965 0 1 0 1.230468,0.859376 l 1.732422,-2.47461 a 0.75057437,0.75057437 0 0 0 0.01758,-0.02539 0.750075,0.750075 0 0 0 -0.0059,-0.88086 l -1.095703,-2.054687 2.794922,1.710937 0.449218,3.150391 A 0.750075,0.750075 0 1 0 10.763349,14.89403 l -0.47461,-3.322265 a 0.750075,0.750075 0 0 0 -0.208984,-0.582032 0.750075,0.750075 0 0 0 -0.2636738,-0.1875 l -3.4003919,-2.0839837 0.90625,-2.568359 1.833985,1.693359 a 0.50005,0.50005 0 0 0 0.01953,0.01953 l 0.0059,0.0039 a 0.50005,0.50005 0 0 0 0.0625,0.04883 0.50032087,0.50032087 0 0 0 0.01758,0.01172 l 2.9589877,1.972657 a 0.50005,0.50005 0 0 0 0.002,0.002 0.50005,0.50005 0 0 0 0.710937,-0.691406 0.50005,0.50005 0 0 0 -0.01758,-0.02344 0.50005,0.50005 0 0 0 -0.01367,-0.01563 0.50005,0.50005 0 0 0 -0.07422,-0.06641 L 7.7263233,4.4663283 a 0.750075,0.750075 0 0 0 -0.06055,-0.117188 0.750075,0.750075 0 0 0 -0.0039,-0.0039 0.750075,0.750075 0 0 0 -0.03906,-0.05664 0.750075,0.750075 0 0 0 -0.580078,-0.298828 0.750075,0.750075 0 0 0 -0.132834,0.00963 h -0.519531 a 0.750075,0.750075 0 0 0 -0.132813,-0.0098 z m 7.2636747,0.134766 a 1.375,1.375 0 0 0 -1.375,1.375 1.375,1.375 0 0 0 1.375,1.375 1.375,1.375 0 0 0 1.375,-1.375 1.375,1.375 0 0 0 -1.375,-1.375 z"
     style="fill:#000000" />
</svg>
