<?xml version="1.0" encoding="UTF-8" standalone="no"?>
<svg
   xmlns:dc="http://purl.org/dc/elements/1.1/"
   xmlns:cc="http://creativecommons.org/ns#"
   xmlns:rdf="http://www.w3.org/1999/02/22-rdf-syntax-ns#"
   xmlns:svg="http://www.w3.org/2000/svg"
   xmlns="http://www.w3.org/2000/svg"
   xmlns:sodipodi="http://sodipodi.sourceforge.net/DTD/sodipodi-0.dtd"
   xmlns:inkscape="http://www.inkscape.org/namespaces/inkscape"
   version="1.1"
   width="16"
   height="16"
   viewBox="0 0 16 16"
   id="svg4"
   sodipodi:docname="american_football.svg"
   inkscape:version="0.92.4 (5da689c313, 2019-01-14)">
  <sodipodi:namedview
     pagecolor="#ffffff"
     bordercolor="#666666"
     borderopacity="1"
     objecttolerance="10"
     gridtolerance="10"
     guidetolerance="10"
     inkscape:pageopacity="0"
     inkscape:pageshadow="2"
     inkscape:window-width="1558"
     inkscape:window-height="993"
     id="namedview1401"
     showgrid="true"
     inkscape:snap-bbox="true"
     inkscape:snap-nodes="false"
     inkscape:snap-bbox-edge-midpoints="true"
     inkscape:zoom="29.5"
     inkscape:cx="8"
     inkscape:cy="8"
     inkscape:window-x="0"
     inkscape:window-y="0"
     inkscape:window-maximized="0"
     inkscape:current-layer="svg4">
    <inkscape:grid
       type="xygrid"
       id="grid1403" />
  </sodipodi:namedview>
  <metadata
     id="metadata10">
    <rdf:RDF>
      <cc:Work
         rdf:about="">
        <dc:format>image/svg+xml</dc:format>
        <dc:type
           rdf:resource="http://purl.org/dc/dcmitype/StillImage" />
        <dc:title></dc:title>
      </cc:Work>
    </rdf:RDF>
  </metadata>
  <defs
     id="defs8" />
  <rect
     width="16"
     height="16"
     x="0"
     y="0"
     id="canvas"
     style="fill:none;stroke:none;visibility:hidden" />
  <path
     inkscape:connector-curvature="0"
     style="color:#000000;font-style:normal;font-variant:normal;font-weight:normal;font-stretch:normal;font-size:medium;line-height:normal;font-family:sans-serif;font-variant-ligatures:normal;font-variant-position:normal;font-variant-caps:normal;font-variant-numeric:normal;font-variant-alternates:normal;font-feature-settings:normal;text-indent:0;text-align:start;text-decoration:none;text-decoration-line:none;text-decoration-style:solid;text-decoration-color:#000000;letter-spacing:normal;word-spacing:normal;text-transform:none;writing-mode:lr-tb;direction:ltr;text-orientation:mixed;dominant-baseline:auto;baseline-shift:baseline;text-anchor:start;white-space:normal;shape-padding:0;clip-rule:nonzero;display:inline;overflow:visible;visibility:visible;opacity:1;isolation:auto;mix-blend-mode:normal;color-interpolation:sRGB;color-interpolation-filters:linearRGB;solid-color:#000000;solid-opacity:1;vector-effect:none;fill:#000000;fill-opacity:1;fill-rule:evenodd;stroke:none;stroke-width:1.5;stroke-linecap:round;stroke-linejoin:miter;stroke-miterlimit:4;stroke-dasharray:none;stroke-dashoffset:0;stroke-opacity:1;color-rendering:auto;image-rendering:auto;shape-rendering:auto;text-rendering:auto;enable-background:accumulate"
     d="m 9.5044216,0.99973732 a 2,2 0 0 0 -2.0000004,1.99999998 2,2 0 0 0 0.269531,1 h 0.296875 a 1.75,1.75 0 0 0 1.4335944,0.75 1.75,1.75 0 0 0 1.4355474,-0.75 h 0.292969 a 2,2 0 0 0 0.271484,-1 2,2 0 0 0 -2.0000004,-1.99999998 z m 0,0.49999998 a 1.5,1.5 0 0 1 1.5000004,1.5 1.5,1.5 0 0 1 -1.5000004,1.5 1.5,1.5 0 0 1 -1.5000004,-1.5 1.5,1.5 0 0 1 1.5000004,-1.5 z m 0,0.238281 a 1.25,1.25 0 0 0 -1.2500004,1.25 1.25,1.25 0 0 0 1.2500004,1.25 1.25,1.25 0 0 0 1.2500004,-1.25 1.25,1.25 0 0 0 -1.2500004,-1.25 z m -1.0136724,3.238281 a 1.0001,1.0001 0 0 0 -0.537109,0.167969 1.0001,1.0001 0 0 0 -0.04297,0.0293 1.0001,1.0001 0 0 0 -0.222656,0.21875 l -3.212891,0.603516 a 0.50005,0.50005 0 0 0 -0.259765,0.09375 0.50085473,0.50085473 0 0 0 -0.0293,0.02344 0.50005,0.50005 0 0 0 -0.01758,0.01563 0.50085473,0.50085473 0 0 0 -0.01953,0.01758 0.50085473,0.50085473 0 0 0 -0.0332,0.03711 l -1.964844,1.96289 a 0.50005,0.50005 0 0 0 0.673828,0.738281 1.5,2 60 0 0 -0.392578,1.021485 1.5,2 60 0 0 2.009766,-0.148438 1.5,2 60 0 0 1.132812,-1.666015 1.5,2 60 0 0 -2.007812,0.15039 1.5,2 60 0 0 -0.300781,0.203125 l 1.482422,-1.482422 2.558593,-0.478515 -0.759765,2.472656 a 1.0001,1.0001 0 0 0 0.207032,0.978503 v 1.6347647 l -0.376953,0.753906 -2.181641,2.423829 a 0.75026268,0.75026268 0 1 0 1.115235,1.003906 l 2.076171,-2.308594 1.335938,1.335938 a 0.750075,0.750075 0 1 0 1.0605474,-1.060547 l -1.5000004,-1.5 a 0.750075,0.750075 0 0 0 -0.029297,-0.02734 v -0.265625 l 0.865234,-1.730469 A 1.0001,1.0001 0 0 0 9.7094996,9.5427093 l 0.7460944,-2.43164 1.43164,0.65625 -0.857421,2.5742187 a 0.50005,0.50005 0 1 0 0.947265,0.316406 L 12.96536,7.6950493 a 0.50036297,0.50036297 0 0 0 0.01172,-0.03711 0.50005,0.50005 0 0 0 0.0039,-0.0098 0.50036297,0.50036297 0 0 0 0.01563,-0.07227 0.50005,0.50005 0 0 0 0.0039,-0.02734 0.50036297,0.50036297 0 0 0 0.0039,-0.03711 0.50005,0.50005 0 0 0 -0.357422,-0.496093 l -1.867187,-0.855469 a 1.0001,1.0001 0 0 0 -0.728516,-1.138672 1.0001,1.0001 0 0 0 -0.3105474,-0.04492 1.0001,1.0001 0 0 0 -0.160156,0.01758 l -0.3476564,0.0059 a 1.0002308,1.0002308 0 0 0 -0.105469,0.0098 1.0002308,1.0002308 0 0 0 -0.101563,-0.0098 l -0.330078,-0.0059 a 1.0001,1.0001 0 0 0 -0.205078,-0.01758 z"
     id="path4285-6-6-7" />
</svg>
