<?xml version="1.0" encoding="UTF-8" standalone="no"?>
<svg
   xmlns:dc="http://purl.org/dc/elements/1.1/"
   xmlns:cc="http://creativecommons.org/ns#"
   xmlns:rdf="http://www.w3.org/1999/02/22-rdf-syntax-ns#"
   xmlns:svg="http://www.w3.org/2000/svg"
   xmlns="http://www.w3.org/2000/svg"
   version="1.1"
   width="16"
   height="16"
   viewBox="0 0 16 16"
   id="svg4">
  <metadata
     id="metadata10">
    <rdf:RDF>
      <cc:Work
         rdf:about="">
        <dc:format>image/svg+xml</dc:format>
        <dc:type
           rdf:resource="http://purl.org/dc/dcmitype/StillImage" />
        <dc:title></dc:title>
      </cc:Work>
    </rdf:RDF>
  </metadata>
  <defs
     id="defs8" />
  <rect
     width="16"
     height="16"
     x="0"
     y="0"
     id="canvas"
     style="fill:none;stroke:none;visibility:hidden" />
  <path
     id="circle4355-7-9"
     d="m 5.7295132,0.28986831 a 0.42504251,0.42504251 0 0 0 -0.3417969,0.201172 l -1.75,2.74999999 a 0.42587551,0.42587551 0 0 0 0.00391,0.460938 l -0.8046874,1.263672 -0.091797,-0.04297 a 0.60006002,0.60006002 0 0 0 -0.2304688,-0.05664 0.60006002,0.60006002 0 0 0 -0.3261719,1.119141 l -0.089844,0.140625 a 0.1755641,0.1755641 0 0 0 0.296875,0.1875 l 0.1132813,-0.177734 2.4902343,1.130859 a 0.60006694,0.60006694 0 0 0 0.00195,0 0.60006694,0.60006694 0 0 0 0.054688,0.02148 0.6004994,0.6004994 0 0 0 0.056641,0.01758 0.60006694,0.60006694 0 0 0 0.00195,0 0.6004994,0.6004994 0 0 0 0.056641,0.0098 0.60006694,0.60006694 0 0 0 0.00195,0 0.6004994,0.6004994 0 0 0 0.058594,0.0039 0.60006694,0.60006694 0 0 0 0.00195,0 0.6004994,0.6004994 0 0 0 0.1191407,-0.0078 0.6004994,0.6004994 0 0 0 0.058594,-0.01367 0.6004994,0.6004994 0 0 0 0.056641,-0.01953 0.6004994,0.6004994 0 0 0 0.023437,-0.01172 0.60006694,0.60006694 0 0 0 0.029297,-0.01172 0.6004994,0.6004994 0 0 0 0.00195,-0.002 0.60006694,0.60006694 0 0 0 0.017578,-0.0098 0.6004994,0.6004994 0 0 0 0.00391,-0.002 l 1.7851563,-1.021484 0.6015625,2.556641 -2.1953126,2.6347657 a 0.750075,0.750075 0 0 0 -0.2070312,0.339844 0.75021631,0.75021631 0 0 0 0,0.002 0.750075,0.750075 0 0 0 -0.023437,0.103516 l -0.5,3.25 a 0.75078284,0.75078284 0 1 0 1.484375,0.226562 l 0.46875,-3.044922 2.1855469,-2.6230477 1.3749996,5.7304697 A 0.750075,0.750075 0 1 0 11.9756,15.043734 L 10.483412,8.8288893 a 0.75041701,0.75041701 0 0 0 -0.002,-0.01172 l -0.0039,-0.01953 -0.9726552,-4.134766 a 0.750075,0.750075 0 0 0 -0.2460937,-0.5 0.750075,0.750075 0 0 0 -0.5488211,-0.203083 0.750075,0.750075 0 0 0 -0.083984,0.00977 H 7.8701382 a 0.750075,0.750075 0 0 0 -0.1601562,-0.0098 0.750075,0.750075 0 0 0 -0.5488282,0.279297 0.750075,0.750075 0 0 0 -0.015625,0.01953 0.750075,0.750075 0 0 0 -0.015625,0.01953 0.750075,0.750075 0 0 0 -0.087891,0.722656 v 0.002 L 5.2158414,6.0457383 3.1611539,5.1121443 3.9384976,3.8914413 a 0.42587551,0.42587551 0 0 0 0.4179688,-0.193359 l 1.75,-2.74999999 a 0.42504251,0.42504251 0 0 0 -0.3769531,-0.658204 z m 2.7675781,0.429688 a 1.25,1.25 0 0 0 -1.25,1.24999999 1.25,1.25 0 0 0 1.25,1.25 1.25,1.25 0 0 0 1.25,-1.25 1.25,1.25 0 0 0 -1.25,-1.24999999 z M 13.49709,6.7195563 a 0.75,0.75 0 0 0 -0.749999,0.75 0.75,0.75 0 0 0 0.749999,0.75 0.75,0.75 0 0 0 0.75,-0.75 0.75,0.75 0 0 0 -0.75,-0.75 z"
     style="opacity:1;fill:#000000;fill-opacity:1;stroke:none;stroke-width:7;stroke-linecap:round;stroke-miterlimit:4;stroke-dasharray:none;stroke-opacity:1" />
</svg>
