<?xml version="1.0" encoding="UTF-8" standalone="no"?>
<svg
   xmlns:dc="http://purl.org/dc/elements/1.1/"
   xmlns:cc="http://creativecommons.org/ns#"
   xmlns:rdf="http://www.w3.org/1999/02/22-rdf-syntax-ns#"
   xmlns:svg="http://www.w3.org/2000/svg"
   xmlns="http://www.w3.org/2000/svg"
   version="1.1"
   width="16"
   height="16"
   viewBox="0 0 16 16"
   id="svg4">
  <metadata
     id="metadata10">
    <rdf:RDF>
      <cc:Work
         rdf:about="">
        <dc:format>image/svg+xml</dc:format>
        <dc:type
           rdf:resource="http://purl.org/dc/dcmitype/StillImage" />
        <dc:title></dc:title>
      </cc:Work>
    </rdf:RDF>
  </metadata>
  <defs
     id="defs8" />
  <rect
     width="16"
     height="16"
     x="0"
     y="0"
     id="canvas"
     style="fill:none;stroke:none;visibility:hidden" />
  <path
     id="path4285-6-5"
     d="m 2.5068658,0.09718881 a 1.375,1.375 0 0 0 -1.318359,0.98242199 0.50005,0.50005 0 0 0 -0.181641,0.392578 v 2.912109 a 0.50005,0.50005 0 0 0 0.08203,0.367188 0.50005,0.50005 0 0 0 0.002,0.0039 0.50005,0.50005 0 0 0 0.01172,0.01563 0.50005,0.50005 0 0 0 0.251953,0.183594 l 3.5488284,1.77539 0.5976562,2.789063 -0.2304687,3.0019532 -1.1835938,2.365234 a 0.750075,0.750075 0 1 0 1.3398438,0.671876 l 1.2324219,-2.464844 a 0.75018822,0.75018822 0 0 0 0.017578,-0.03516 0.750075,0.750075 0 0 0 0.015625,-0.03125 0.75018822,0.75018822 0 0 0 0.015625,-0.03711 0.750075,0.750075 0 0 0 0.011719,-0.0332 0.75018822,0.75018822 0 0 0 0.00195,-0.0098 0.750075,0.750075 0 0 0 0.039062,-0.25 l 0.171875,-2.232421 0.5820314,2.136718 -0.494141,2.47461 a 0.75075737,0.75075737 0 1 0 1.472656,0.292968 l 0.5,-2.5 a 0.750075,0.750075 0 0 0 0.01172,-0.236328 0.750075,0.750075 0 0 0 -0.02539,-0.357422 L 8.243237,9.5756688 v -0.002 l -0.552734,-2.763671 1.533203,0.138671 1.867187,2.800782 a 0.50005,0.50005 0 1 0 0.832032,-0.554688 L 9.936597,6.2162478 a 0.5000688,0.5000688 0 0 0 -0.01367,-0.02148 0.50005,0.50005 0 0 0 -0.08203,-0.0957 0.5000688,0.5000688 0 0 0 -0.002,0 0.5000688,0.5000688 0 0 0 -0.01563,-0.01563 0.50005,0.50005 0 0 0 -0.322266,-0.117187 0.50005,0.50005 0 0 0 -0.02539,0 L 7.506866,5.7885948 a 0.750075,0.750075 0 0 0 -0.21875,-0.355468 0.750075,0.750075 0 0 0 -0.0332,-0.0293 0.750075,0.750075 0 0 0 -0.01758,-0.01563 0.750075,0.750075 0 0 0 -0.2480481,-0.136719 L 6.5928035,5.0522588 a 0.750075,0.750075 0 0 0 -0.3613281,-0.08398 0.750075,0.750075 0 0 0 -0.099609,0.0098 0.750075,0.750075 0 0 0 -0.1210938,-0.0098 0.750075,0.750075 0 0 0 -0.3398437,0.08398 L 5.282257,5.2475718 A 0.750075,0.750075 0 0 0 4.9931945,5.4155398 0.750075,0.750075 0 0 0 4.8467102,5.5835088 L 2.0068658,4.1635948 v -1.412109 a 1.375,1.375 0 0 0 0.5,0.0957 1.375,1.375 0 0 0 1.375,-1.375 1.375,1.375 0 0 0 -1.375,-1.37499999 z m 12.5000002,0.875 V 1.9721888 h -1 -0.25 -3.75 l 1,4 h 2 l 0.875,-3.5 h 1.125 v 6.5 h 0.5 V 0.97218881 Z M 6.5068658,1.7221888 a 1.25,1.25 0 0 0 -1.25,1.25 1.25,1.25 0 0 0 1.25,1.25 1.25,1.25 0 0 0 1.2500002,-1.25 1.25,1.25 0 0 0 -1.2500002,-1.25 z m 4.0000002,0.75 h 0.683593 l 0.02149,0.150391 h -0.667974 z m 0.886718,0 h 1.226563 l -0.02149,0.150391 h -1.183593 z m 1.429688,0 h 0.683594 l -0.03711,0.150391 h -0.66797 z m -2.228516,0.349609 h 0.646485 l 0.04297,0.300782 h -0.615236 z m 0.84961,0 h 1.125 l -0.04297,0.300782 h -1.039063 z m 1.328125,0 h 0.646484 l -0.07422,0.300782 h -0.615234 z m -2.052735,0.5 h 0.591797 l 0.04297,0.300782 h -0.560548 z m 0.794922,0 h 0.984375 l -0.04297,0.300782 h -0.898437 z m 1.1875,0 h 0.591797 l -0.07422,0.300782 h -0.560547 z m -1.857422,0.5 h 0.539063 l 0.04297,0.300782 h -0.507814 z m 0.742188,0 h 0.839843 l -0.04297,0.300782 H 11.62991 Z m 1.042968,0 h 0.539063 l -0.07422,0.300782 h -0.507812 z m -1.660156,0.5 h 0.486328 l 0.04297,0.300782 h -0.455078 z m 0.689453,0 h 0.695313 l -0.04297,0.300782 h -0.609375 z m 0.898438,0 h 0.486328 l -0.07422,0.300782 h -0.455078 z m -1.462891,0.5 h 0.431641 l 0.04297,0.300782 h -0.400391 z m 0.634766,0 h 0.554687 l -0.04297,0.300782 h -0.46875 z m 0.757812,0 h 0.431641 l -0.07422,0.300782 h -0.40039 z m -1.267578,0.5 h 0.378906 l 0.02149,0.150391 h -0.363281 z m 0.582031,0 h 0.410157 l -0.02149,0.150391 h -0.367187 z m 0.613282,0 h 0.378906 l -0.03711,0.150391 h -0.363282 z"
     style="color:#000000;font-style:normal;font-variant:normal;font-weight:normal;font-stretch:normal;font-size:medium;line-height:normal;font-family:sans-serif;font-variant-ligatures:normal;font-variant-position:normal;font-variant-caps:normal;font-variant-numeric:normal;font-variant-alternates:normal;font-feature-settings:normal;text-indent:0;text-align:start;text-decoration:none;text-decoration-line:none;text-decoration-style:solid;text-decoration-color:#000000;letter-spacing:normal;word-spacing:normal;text-transform:none;writing-mode:lr-tb;direction:ltr;text-orientation:mixed;dominant-baseline:auto;baseline-shift:baseline;text-anchor:start;white-space:normal;shape-padding:0;clip-rule:nonzero;display:inline;overflow:visible;visibility:visible;opacity:1;isolation:auto;mix-blend-mode:normal;color-interpolation:sRGB;color-interpolation-filters:linearRGB;solid-color:#000000;solid-opacity:1;vector-effect:none;fill:#000000;fill-opacity:1;fill-rule:evenodd;stroke:none;stroke-width:1.5;stroke-linecap:round;stroke-linejoin:miter;stroke-miterlimit:4;stroke-dasharray:none;stroke-dashoffset:0;stroke-opacity:1;color-rendering:auto;image-rendering:auto;shape-rendering:auto;text-rendering:auto;enable-background:accumulate" />
</svg>
