<?xml version="1.0" encoding="UTF-8" standalone="no"?>
<svg
   xmlns:dc="http://purl.org/dc/elements/1.1/"
   xmlns:cc="http://creativecommons.org/ns#"
   xmlns:rdf="http://www.w3.org/1999/02/22-rdf-syntax-ns#"
   xmlns:svg="http://www.w3.org/2000/svg"
   xmlns="http://www.w3.org/2000/svg"
   version="1.1"
   id="svg2"
   height="8"
   width="7">
  <defs
     id="defs4" />
  <metadata
     id="metadata7">
    <rdf:RDF>
      <cc:Work
         rdf:about="">
        <dc:format>image/svg+xml</dc:format>
        <dc:type
           rdf:resource="http://purl.org/dc/dcmitype/StillImage" />
        <dc:title></dc:title>
      </cc:Work>
    </rdf:RDF>
  </metadata>
  <g
     id="layer1">
    <rect
       y="0"
       x="0"
       height="8"
       width="7"
       id="rect4144"
       style="stroke:none;fill:none;visibility:hidden" />
    <path
       id="path4474"
       d="M 3,0.75 A 0.250025,0.250025 0 0 0 2.75,1 l 0,2.9414062 C 2.6264018,4.1109479 2.5001203,4.286741 2.5,4.5 c 0,0.5493236 0.4506764,1 1,1 0.5493236,0 1,-0.4506764 1,-1 C 4.4998797,4.286741 4.3735982,4.1109479 4.25,3.9414062 L 4.25,1 A 0.250025,0.250025 0 0 0 4,0.75 l -1,0 z m 0.25,0.5 0.5,0 0,2.6914062 a 0.250025,0.250025 0 0 0 0.083984,0.1855469 C 3.9400616,4.2218314 3.9999197,4.3576825 4,4.5 4,4.7791035 3.7791035,5 3.5,5 3.2208965,5 3,4.7791035 3,4.5 3.0000803,4.3576825 3.0599384,4.2218314 3.1660156,4.1269531 A 0.250025,0.250025 0 0 0 3.25,3.9414062 L 3.25,1.25 Z m -2.0390625,2 A 0.250025,0.250025 0 0 0 0.98242188,3.4003906 C 0.83015819,3.747164 0.7507719,4.1212713 0.75,4.5 0.75,6.0158219 1.9841781,7.25 3.5,7.25 5.0158219,7.25 6.25,6.0158219 6.25,4.5 6.2492281,4.1212713 6.1698418,3.747164 6.0175781,3.4003906 A 0.250025,0.250025 0 0 0 5.7890625,3.25 l -1.1738281,0 A 0.250025,0.250025 0 0 0 4.4296875,3.6679688 C 4.6355601,3.8968491 4.7493587,4.1921537 4.75,4.5 4.75,5.1933171 4.1933171,5.75 3.5,5.75 2.8066829,5.75 2.25,5.1933171 2.25,4.5 2.2506413,4.1921537 2.3644399,3.8968491 2.5703125,3.6679688 A 0.250025,0.250025 0 0 0 2.3847656,3.25 l -1.1738281,0 z m 0.1972656,0.5 0.6308594,0 C 1.9154523,3.9929248 1.7505765,4.2232761 1.75,4.5 1.75,5.4635372 2.5364628,6.25 3.5,6.25 4.4635372,6.25 5.25,5.4635372 5.25,4.5 5.2494235,4.2232761 5.0845477,3.9929248 4.9609375,3.75 l 0.6308594,0 C 5.6788121,3.9922226 5.7494739,4.2418548 5.75,4.5 5.75,5.7456018 4.7456018,6.75 3.5,6.75 2.2543982,6.75 1.25,5.7456018 1.25,4.5 1.2505261,4.2418548 1.3211879,3.9922226 1.4082031,3.75 Z"
       style="fill:#ffffff;fill-opacity:1" />
    <path
       id="path4465"
       d="M 3,1 3,3.941406 A 0.75,0.75 0 0 0 2.75,4.5 0.75,0.75 0 0 0 3.5,5.25 0.75,0.75 0 0 0 4.25,4.5 0.75,0.75 0 0 0 4,3.941406 L 4,1 3,1 Z M 1.2109375,3.5 A 2.5,2.5 0 0 0 1,4.5 2.5,2.5 0 0 0 3.5,7 2.5,2.5 0 0 0 6,4.5 2.5,2.5 0 0 0 5.7890625,3.5 l -1.1738281,0 A 1.5,1.5 0 0 1 5,4.5 1.5,1.5 0 0 1 3.5,6 1.5,1.5 0 0 1 2,4.5 1.5,1.5 0 0 1 2.3847656,3.5 l -1.1738281,0 z"
       style="fill:#24a6cc;fill-opacity:1" />
  </g>
</svg>
