<?xml version="1.0" encoding="UTF-8" standalone="no"?>
<svg
   xmlns:dc="http://purl.org/dc/elements/1.1/"
   xmlns:cc="http://creativecommons.org/ns#"
   xmlns:rdf="http://www.w3.org/1999/02/22-rdf-syntax-ns#"
   xmlns:svg="http://www.w3.org/2000/svg"
   xmlns="http://www.w3.org/2000/svg"
   version="1.1"
   width="16"
   height="16"
   viewBox="0 0 16 16"
   id="svg4">
  <metadata
     id="metadata10">
    <rdf:RDF>
      <cc:Work
         rdf:about="">
        <dc:format>image/svg+xml</dc:format>
        <dc:type
           rdf:resource="http://purl.org/dc/dcmitype/StillImage" />
        <dc:title></dc:title>
      </cc:Work>
    </rdf:RDF>
  </metadata>
  <defs
     id="defs8" />
  <rect
     width="16"
     height="16"
     x="0"
     y="0"
     id="canvas"
     style="fill:none;stroke:none;visibility:hidden" />
  <path
     id="path4285-4"
     d="m 4.5052459,0.0972337 a 1.375,1.375 0 0 0 -1.318359,0.982422 0.50005,0.50005 0 0 0 -0.181641,0.3925779 v 2.912109 a 0.50005,0.50005 0 0 0 0.08203,0.367188 0.50005,0.50005 0 0 0 0.002,0.0039 0.50005,0.50005 0 0 0 0.01172,0.01563 0.50005,0.50005 0 0 0 0.251953,0.183594 L 6.9017773,6.7280916 7.460371,9.3335606 5.8372771,11.972234 H 3.7552459 a 0.750075,0.750075 0 1 0 0,1.5 h 2.25 a 0.750075,0.750075 0 0 0 0.060547,-0.002 0.750075,0.750075 0 0 0 0.828125,-0.355469 l 1.7617187,-2.863281 -0.3730468,2.240234 -1.1972657,2.394531 a 0.750075,0.750075 0 1 0 1.3398438,0.671875 L 9.661496,13.085468 a 0.75039159,0.75039159 0 0 0 0.044922,-0.0957 0.750075,0.750075 0 0 0 0.050781,-0.21875 L 10.24548,9.8452366 a 0.750075,0.750075 0 0 0 0.0019,-0.01367 0.75075737,0.75075737 0 0 0 0,-0.0059 0.750075,0.750075 0 0 0 -0.02734,-0.351563 l -0.5937497,-2.972656 1.8632807,-0.507813 2.857422,0.953125 a 0.50028197,0.50028197 0 0 0 0.316407,-0.949218 l -2.93945,-0.978433 a 0.50005,0.50005 0 0 0 -0.207031,-0.04883 0.50005,0.50005 0 0 0 -0.05078,0 0.50005,0.50005 0 0 0 -0.166016,0.03906 l -1.9121093,0.523438 a 0.750075,0.750075 0 0 0 -0.21875,-0.195313 0.750075,0.750075 0 0 0 -0.011719,-0.0078 0.750075,0.750075 0 0 0 -0.011719,-0.0059 0.750075,0.750075 0 0 0 -0.2675781,-0.09961 L 8.3333717,5.0425126 a 0.750075,0.750075 0 0 0 -0.3105469,-0.07422 0.750075,0.750075 0 0 0 -0.4609375,0.138672 l -0.28125,0.140625 A 0.750075,0.750075 0 0 0 6.9915748,5.4155576 0.750075,0.750075 0 0 0 6.8450905,5.5835266 L 4.0052459,4.1636396 v -1.412109 a 1.375,1.375 0 0 0 0.5,0.0957 1.375,1.375 0 0 0 1.375,-1.375 1.375,1.375 0 0 0 -1.375,-1.3749999 z m 4,1.6249999 a 1.25,1.25 0 0 0 -1.25,1.25 1.25,1.25 0 0 0 1.25,1.25 1.25,1.25 0 0 0 1.25,-1.25 1.25,1.25 0 0 0 -1.25,-1.25 z"
     style="color:#000000;font-style:normal;font-variant:normal;font-weight:normal;font-stretch:normal;font-size:medium;line-height:normal;font-family:sans-serif;font-variant-ligatures:normal;font-variant-position:normal;font-variant-caps:normal;font-variant-numeric:normal;font-variant-alternates:normal;font-feature-settings:normal;text-indent:0;text-align:start;text-decoration:none;text-decoration-line:none;text-decoration-style:solid;text-decoration-color:#000000;letter-spacing:normal;word-spacing:normal;text-transform:none;writing-mode:lr-tb;direction:ltr;text-orientation:mixed;dominant-baseline:auto;baseline-shift:baseline;text-anchor:start;white-space:normal;shape-padding:0;clip-rule:nonzero;display:inline;overflow:visible;visibility:visible;opacity:1;isolation:auto;mix-blend-mode:normal;color-interpolation:sRGB;color-interpolation-filters:linearRGB;solid-color:#000000;solid-opacity:1;vector-effect:none;fill:#000000;fill-opacity:1;fill-rule:evenodd;stroke:none;stroke-width:1.5;stroke-linecap:round;stroke-linejoin:miter;stroke-miterlimit:4;stroke-dasharray:none;stroke-dashoffset:0;stroke-opacity:1;color-rendering:auto;image-rendering:auto;shape-rendering:auto;text-rendering:auto;enable-background:accumulate" />
</svg>
