<?xml version="1.0" encoding="UTF-8" standalone="no"?>
<svg
   xmlns:dc="http://purl.org/dc/elements/1.1/"
   xmlns:cc="http://creativecommons.org/ns#"
   xmlns:rdf="http://www.w3.org/1999/02/22-rdf-syntax-ns#"
   xmlns:svg="http://www.w3.org/2000/svg"
   xmlns="http://www.w3.org/2000/svg"
   version="1.1"
   height="128"
   width="128"
   id="Svg">
  <metadata
     id="metadata122">
    <rdf:RDF>
      <cc:Work
         rdf:about="">
        <dc:format>image/svg+xml</dc:format>
        <dc:type
           rdf:resource="http://purl.org/dc/dcmitype/StillImage" />
      </cc:Work>
    </rdf:RDF>
  </metadata>
  <defs
     id="defs3" />
  <path
     id="path4612"
     d="M 7.7910156 1.9980469 C 6.067681 2.9379104 4.6395474 4.3580693 3.6660156 6.0605469 L 3.6660156 6.3417969 L 5.0722656 7.5605469 C 5.4236606 6.8306623 5.8845179 6.1582065 6.4160156 5.5605469 L 9.3535156 8.6230469 L 4.9160156 12.935547 C 4.8072283 13.040536 4.8159115 13.19727 4.9160156 13.310547 C 5.1086418 13.528559 5.2917533 13.742895 5.5097656 13.935547 C 5.6230569 14.035654 5.8110263 14.013067 5.9160156 13.904297 L 10.197266 9.4667969 L 14.478516 13.904297 C 14.58352 14.012997 14.740267 14.035622 14.853516 13.935547 C 15.071585 13.742864 15.285819 13.52863 15.478516 13.310547 C 15.57859 13.197298 15.587219 13.04055 15.478516 12.935547 L 11.009766 8.6230469 L 13.728516 5.8105469 L 14.416016 6.4667969 L 16.666016 7.2480469 L 15.822266 5.0917969 L 15.103516 4.3730469 L 15.322266 4.1855469 L 14.666016 3.5292969 L 14.447266 3.7167969 L 12.822266 2.0917969 L 11.416016 3.4667969 L 13.041016 5.0917969 L 10.197266 7.8105469 L 7.1347656 4.8730469 C 7.7308298 4.3426081 8.4064765 3.8800001 9.1347656 3.5292969 L 7.7910156 1.9980469 z M 50.458984 1.9980469 C 48.735649 2.9379104 47.307516 4.3580693 46.333984 6.0605469 L 46.333984 6.3417969 L 47.740234 7.5605469 C 48.091629 6.8306623 48.552486 6.1582065 49.083984 5.5605469 L 52.021484 8.6230469 L 47.583984 12.935547 C 47.475197 13.040536 47.48388 13.19727 47.583984 13.310547 C 47.77661 13.528559 47.959722 13.742895 48.177734 13.935547 C 48.291025 14.035654 48.478995 14.013067 48.583984 13.904297 L 52.865234 9.4667969 L 57.146484 13.904297 C 57.251488 14.012997 57.408235 14.035622 57.521484 13.935547 C 57.739553 13.742864 57.953787 13.52863 58.146484 13.310547 C 58.246558 13.197298 58.255187 13.04055 58.146484 12.935547 L 53.677734 8.6230469 L 56.396484 5.8105469 L 57.083984 6.4667969 L 59.333984 7.2480469 L 58.490234 5.0917969 L 57.771484 4.3730469 L 57.990234 4.1855469 L 57.333984 3.5292969 L 57.115234 3.7167969 L 55.490234 2.0917969 L 54.083984 3.4667969 L 55.708984 5.0917969 L 52.865234 7.8105469 L 49.802734 4.8730469 C 50.398798 4.3426081 51.074445 3.8800001 51.802734 3.5292969 L 50.458984 1.9980469 z M 93.125 1.9980469 C 91.401665 2.9379104 89.973532 4.3580693 89 6.0605469 L 89 6.3417969 L 90.40625 7.5605469 C 90.757645 6.8306623 91.218502 6.1582065 91.75 5.5605469 L 94.6875 8.6230469 L 90.25 12.935547 C 90.141213 13.040536 90.149896 13.19727 90.25 13.310547 C 90.442626 13.528559 90.625738 13.742895 90.84375 13.935547 C 90.957041 14.035654 91.145011 14.013067 91.25 13.904297 L 95.53125 9.4667969 L 99.8125 13.904297 C 99.917504 14.012997 100.07425 14.035622 100.1875 13.935547 C 100.40557 13.742864 100.6198 13.52863 100.8125 13.310547 C 100.91257 13.197298 100.9212 13.04055 100.8125 12.935547 L 96.34375 8.6230469 L 99.0625 5.8105469 L 99.75 6.4667969 L 102 7.2480469 L 101.15625 5.0917969 L 100.4375 4.3730469 L 100.65625 4.1855469 L 100 3.5292969 L 99.78125 3.7167969 L 98.15625 2.0917969 L 96.75 3.4667969 L 98.375 5.0917969 L 95.53125 7.8105469 L 92.46875 4.8730469 C 93.064814 4.3426081 93.740461 3.8800001 94.46875 3.5292969 L 93.125 1.9980469 z M 29.125 17.998047 C 27.401665 18.93791 25.973532 20.358069 25 22.060547 L 25 22.341797 L 26.40625 23.560547 C 26.757645 22.830662 27.218502 22.158206 27.75 21.560547 L 30.6875 24.623047 L 26.25 28.935547 C 26.141213 29.040536 26.149896 29.19727 26.25 29.310547 C 26.442626 29.528559 26.625738 29.742895 26.84375 29.935547 C 26.957041 30.035654 27.145011 30.013067 27.25 29.904297 L 31.53125 25.466797 L 35.8125 29.904297 C 35.917504 30.012997 36.074251 30.035622 36.1875 29.935547 C 36.405569 29.742864 36.619803 29.52863 36.8125 29.310547 C 36.912574 29.197298 36.921203 29.04055 36.8125 28.935547 L 32.34375 24.623047 L 35.0625 21.810547 L 35.75 22.466797 L 38 23.248047 L 37.15625 21.091797 L 36.4375 20.373047 L 36.65625 20.185547 L 36 19.529297 L 35.78125 19.716797 L 34.15625 18.091797 L 32.75 19.466797 L 34.375 21.091797 L 31.53125 23.810547 L 28.46875 20.873047 C 29.064814 20.342608 29.740461 19.88 30.46875 19.529297 L 29.125 17.998047 z M 71.791016 17.998047 C 70.067681 18.93791 68.639548 20.358069 67.666016 22.060547 L 67.666016 22.341797 L 69.072266 23.560547 C 69.423661 22.830662 69.884518 22.158206 70.416016 21.560547 L 73.353516 24.623047 L 68.916016 28.935547 C 68.807229 29.040536 68.815912 29.19727 68.916016 29.310547 C 69.108642 29.528559 69.291754 29.742895 69.509766 29.935547 C 69.623057 30.035654 69.811027 30.013067 69.916016 29.904297 L 74.197266 25.466797 L 78.478516 29.904297 C 78.58352 30.012997 78.740267 30.035622 78.853516 29.935547 C 79.071585 29.742864 79.285819 29.52863 79.478516 29.310547 C 79.57859 29.197298 79.587219 29.04055 79.478516 28.935547 L 75.009766 24.623047 L 77.728516 21.810547 L 78.416016 22.466797 L 80.666016 23.248047 L 79.822266 21.091797 L 79.103516 20.373047 L 79.322266 20.185547 L 78.666016 19.529297 L 78.447266 19.716797 L 76.822266 18.091797 L 75.416016 19.466797 L 77.041016 21.091797 L 74.197266 23.810547 L 71.134766 20.873047 C 71.73083 20.342608 72.406477 19.88 73.134766 19.529297 L 71.791016 17.998047 z M 114.45898 17.998047 C 112.73565 18.93791 111.30751 20.358069 110.33398 22.060547 L 110.33398 22.341797 L 111.74023 23.560547 C 112.09163 22.830662 112.55248 22.158206 113.08398 21.560547 L 116.02148 24.623047 L 111.58398 28.935547 C 111.47519 29.040536 111.48388 29.19727 111.58398 29.310547 C 111.77661 29.528559 111.95972 29.742895 112.17773 29.935547 C 112.29102 30.035654 112.47899 30.013067 112.58398 29.904297 L 116.86523 25.466797 L 121.14648 29.904297 C 121.25148 30.012997 121.40823 30.035622 121.52148 29.935547 C 121.73955 29.742864 121.95378 29.52863 122.14648 29.310547 C 122.24655 29.197298 122.25518 29.04055 122.14648 28.935547 L 117.67773 24.623047 L 120.39648 21.810547 L 121.08398 22.466797 L 123.33398 23.248047 L 122.49023 21.091797 L 121.77148 20.373047 L 121.99023 20.185547 L 121.33398 19.529297 L 121.11523 19.716797 L 119.49023 18.091797 L 118.08398 19.466797 L 119.70898 21.091797 L 116.86523 23.810547 L 113.80273 20.873047 C 114.39879 20.342608 115.07444 19.88 115.80273 19.529297 L 114.45898 17.998047 z M 7.7910156 33.998047 C 6.067681 34.93791 4.6395474 36.358069 3.6660156 38.060547 L 3.6660156 38.341797 L 5.0722656 39.560547 C 5.4236606 38.830662 5.8845179 38.158207 6.4160156 37.560547 L 9.3535156 40.623047 L 4.9160156 44.935547 C 4.8072283 45.040536 4.8159115 45.19727 4.9160156 45.310547 C 5.1086418 45.528559 5.2917533 45.742895 5.5097656 45.935547 C 5.6230569 46.035654 5.8110263 46.013067 5.9160156 45.904297 L 10.197266 41.466797 L 14.478516 45.904297 C 14.58352 46.012997 14.740267 46.035622 14.853516 45.935547 C 15.071585 45.742864 15.285819 45.52863 15.478516 45.310547 C 15.57859 45.197298 15.587219 45.04055 15.478516 44.935547 L 11.009766 40.623047 L 13.728516 37.810547 L 14.416016 38.466797 L 16.666016 39.248047 L 15.822266 37.091797 L 15.103516 36.373047 L 15.322266 36.185547 L 14.666016 35.529297 L 14.447266 35.716797 L 12.822266 34.091797 L 11.416016 35.466797 L 13.041016 37.091797 L 10.197266 39.810547 L 7.1347656 36.873047 C 7.7308298 36.342608 8.4064765 35.88 9.1347656 35.529297 L 7.7910156 33.998047 z M 50.458984 33.998047 C 48.735649 34.93791 47.307516 36.358069 46.333984 38.060547 L 46.333984 38.341797 L 47.740234 39.560547 C 48.091629 38.830662 48.552486 38.158207 49.083984 37.560547 L 52.021484 40.623047 L 47.583984 44.935547 C 47.475197 45.040536 47.48388 45.19727 47.583984 45.310547 C 47.77661 45.528559 47.959722 45.742895 48.177734 45.935547 C 48.291025 46.035654 48.478995 46.013067 48.583984 45.904297 L 52.865234 41.466797 L 57.146484 45.904297 C 57.251488 46.012997 57.408235 46.035622 57.521484 45.935547 C 57.739553 45.742864 57.953787 45.52863 58.146484 45.310547 C 58.246558 45.197298 58.255187 45.04055 58.146484 44.935547 L 53.677734 40.623047 L 56.396484 37.810547 L 57.083984 38.466797 L 59.333984 39.248047 L 58.490234 37.091797 L 57.771484 36.373047 L 57.990234 36.185547 L 57.333984 35.529297 L 57.115234 35.716797 L 55.490234 34.091797 L 54.083984 35.466797 L 55.708984 37.091797 L 52.865234 39.810547 L 49.802734 36.873047 C 50.398798 36.342608 51.074445 35.88 51.802734 35.529297 L 50.458984 33.998047 z M 93.125 33.998047 C 91.401665 34.93791 89.973532 36.358069 89 38.060547 L 89 38.341797 L 90.40625 39.560547 C 90.757645 38.830662 91.218502 38.158207 91.75 37.560547 L 94.6875 40.623047 L 90.25 44.935547 C 90.141213 45.040536 90.149896 45.19727 90.25 45.310547 C 90.442626 45.528559 90.625738 45.742895 90.84375 45.935547 C 90.957041 46.035654 91.145011 46.013067 91.25 45.904297 L 95.53125 41.466797 L 99.8125 45.904297 C 99.917504 46.012997 100.07425 46.035622 100.1875 45.935547 C 100.40557 45.742864 100.6198 45.52863 100.8125 45.310547 C 100.91257 45.197298 100.9212 45.04055 100.8125 44.935547 L 96.34375 40.623047 L 99.0625 37.810547 L 99.75 38.466797 L 102 39.248047 L 101.15625 37.091797 L 100.4375 36.373047 L 100.65625 36.185547 L 100 35.529297 L 99.78125 35.716797 L 98.15625 34.091797 L 96.75 35.466797 L 98.375 37.091797 L 95.53125 39.810547 L 92.46875 36.873047 C 93.064814 36.342608 93.740461 35.88 94.46875 35.529297 L 93.125 33.998047 z M 29.125 49.998047 C 27.401665 50.93791 25.973532 52.358069 25 54.060547 L 25 54.341797 L 26.40625 55.560547 C 26.757645 54.830662 27.218502 54.158207 27.75 53.560547 L 30.6875 56.623047 L 26.25 60.935547 C 26.141213 61.040536 26.149896 61.19727 26.25 61.310547 C 26.442626 61.528559 26.625738 61.742895 26.84375 61.935547 C 26.957041 62.035654 27.145011 62.013067 27.25 61.904297 L 31.53125 57.466797 L 35.8125 61.904297 C 35.917504 62.012997 36.074251 62.035622 36.1875 61.935547 C 36.405569 61.742864 36.619803 61.52863 36.8125 61.310547 C 36.912574 61.197298 36.921203 61.04055 36.8125 60.935547 L 32.34375 56.623047 L 35.0625 53.810547 L 35.75 54.466797 L 38 55.248047 L 37.15625 53.091797 L 36.4375 52.373047 L 36.65625 52.185547 L 36 51.529297 L 35.78125 51.716797 L 34.15625 50.091797 L 32.75 51.466797 L 34.375 53.091797 L 31.53125 55.810547 L 28.46875 52.873047 C 29.064814 52.342608 29.740461 51.88 30.46875 51.529297 L 29.125 49.998047 z M 71.791016 49.998047 C 70.067681 50.93791 68.639548 52.358069 67.666016 54.060547 L 67.666016 54.341797 L 69.072266 55.560547 C 69.423661 54.830662 69.884518 54.158207 70.416016 53.560547 L 73.353516 56.623047 L 68.916016 60.935547 C 68.807229 61.040536 68.815912 61.19727 68.916016 61.310547 C 69.108642 61.528559 69.291754 61.742895 69.509766 61.935547 C 69.623057 62.035654 69.811027 62.013067 69.916016 61.904297 L 74.197266 57.466797 L 78.478516 61.904297 C 78.58352 62.012997 78.740267 62.035622 78.853516 61.935547 C 79.071585 61.742864 79.285819 61.52863 79.478516 61.310547 C 79.57859 61.197298 79.587219 61.04055 79.478516 60.935547 L 75.009766 56.623047 L 77.728516 53.810547 L 78.416016 54.466797 L 80.666016 55.248047 L 79.822266 53.091797 L 79.103516 52.373047 L 79.322266 52.185547 L 78.666016 51.529297 L 78.447266 51.716797 L 76.822266 50.091797 L 75.416016 51.466797 L 77.041016 53.091797 L 74.197266 55.810547 L 71.134766 52.873047 C 71.73083 52.342608 72.406477 51.88 73.134766 51.529297 L 71.791016 49.998047 z M 114.45898 49.998047 C 112.73565 50.93791 111.30751 52.358069 110.33398 54.060547 L 110.33398 54.341797 L 111.74023 55.560547 C 112.09163 54.830662 112.55248 54.158207 113.08398 53.560547 L 116.02148 56.623047 L 111.58398 60.935547 C 111.47519 61.040536 111.48388 61.19727 111.58398 61.310547 C 111.77661 61.528559 111.95972 61.742895 112.17773 61.935547 C 112.29102 62.035654 112.47899 62.013067 112.58398 61.904297 L 116.86523 57.466797 L 121.14648 61.904297 C 121.25148 62.012997 121.40823 62.035622 121.52148 61.935547 C 121.73955 61.742864 121.95378 61.52863 122.14648 61.310547 C 122.24655 61.197298 122.25518 61.04055 122.14648 60.935547 L 117.67773 56.623047 L 120.39648 53.810547 L 121.08398 54.466797 L 123.33398 55.248047 L 122.49023 53.091797 L 121.77148 52.373047 L 121.99023 52.185547 L 121.33398 51.529297 L 121.11523 51.716797 L 119.49023 50.091797 L 118.08398 51.466797 L 119.70898 53.091797 L 116.86523 55.810547 L 113.80273 52.873047 C 114.39879 52.342608 115.07444 51.88 115.80273 51.529297 L 114.45898 49.998047 z M 7.7910156 65.998047 C 6.067681 66.93791 4.6395474 68.358069 3.6660156 70.060547 L 3.6660156 70.341797 L 5.0722656 71.560547 C 5.4236606 70.830662 5.8845179 70.158207 6.4160156 69.560547 L 9.3535156 72.623047 L 4.9160156 76.935547 C 4.8072283 77.040536 4.8159115 77.19727 4.9160156 77.310547 C 5.1086418 77.528559 5.2917533 77.742895 5.5097656 77.935547 C 5.6230569 78.035654 5.8110263 78.013067 5.9160156 77.904297 L 10.197266 73.466797 L 14.478516 77.904297 C 14.58352 78.012997 14.740267 78.035622 14.853516 77.935547 C 15.071585 77.742864 15.285819 77.52863 15.478516 77.310547 C 15.57859 77.197298 15.587219 77.04055 15.478516 76.935547 L 11.009766 72.623047 L 13.728516 69.810547 L 14.416016 70.466797 L 16.666016 71.248047 L 15.822266 69.091797 L 15.103516 68.373047 L 15.322266 68.185547 L 14.666016 67.529297 L 14.447266 67.716797 L 12.822266 66.091797 L 11.416016 67.466797 L 13.041016 69.091797 L 10.197266 71.810547 L 7.1347656 68.873047 C 7.7308298 68.342608 8.4064765 67.88 9.1347656 67.529297 L 7.7910156 65.998047 z M 50.458984 65.998047 C 48.735649 66.93791 47.307516 68.358069 46.333984 70.060547 L 46.333984 70.341797 L 47.740234 71.560547 C 48.091629 70.830662 48.552486 70.158207 49.083984 69.560547 L 52.021484 72.623047 L 47.583984 76.935547 C 47.475197 77.040536 47.48388 77.19727 47.583984 77.310547 C 47.77661 77.528559 47.959722 77.742895 48.177734 77.935547 C 48.291025 78.035654 48.478995 78.013067 48.583984 77.904297 L 52.865234 73.466797 L 57.146484 77.904297 C 57.251488 78.012997 57.408235 78.035622 57.521484 77.935547 C 57.739553 77.742864 57.953787 77.52863 58.146484 77.310547 C 58.246558 77.197298 58.255187 77.04055 58.146484 76.935547 L 53.677734 72.623047 L 56.396484 69.810547 L 57.083984 70.466797 L 59.333984 71.248047 L 58.490234 69.091797 L 57.771484 68.373047 L 57.990234 68.185547 L 57.333984 67.529297 L 57.115234 67.716797 L 55.490234 66.091797 L 54.083984 67.466797 L 55.708984 69.091797 L 52.865234 71.810547 L 49.802734 68.873047 C 50.398798 68.342608 51.074445 67.88 51.802734 67.529297 L 50.458984 65.998047 z M 93.125 65.998047 C 91.401665 66.93791 89.973532 68.358069 89 70.060547 L 89 70.341797 L 90.40625 71.560547 C 90.757645 70.830662 91.218502 70.158207 91.75 69.560547 L 94.6875 72.623047 L 90.25 76.935547 C 90.141213 77.040536 90.149896 77.19727 90.25 77.310547 C 90.442626 77.528559 90.625738 77.742895 90.84375 77.935547 C 90.957041 78.035654 91.145011 78.013067 91.25 77.904297 L 95.53125 73.466797 L 99.8125 77.904297 C 99.917504 78.012997 100.07425 78.035622 100.1875 77.935547 C 100.40557 77.742864 100.6198 77.52863 100.8125 77.310547 C 100.91257 77.197298 100.9212 77.04055 100.8125 76.935547 L 96.34375 72.623047 L 99.0625 69.810547 L 99.75 70.466797 L 102 71.248047 L 101.15625 69.091797 L 100.4375 68.373047 L 100.65625 68.185547 L 100 67.529297 L 99.78125 67.716797 L 98.15625 66.091797 L 96.75 67.466797 L 98.375 69.091797 L 95.53125 71.810547 L 92.46875 68.873047 C 93.064814 68.342608 93.740461 67.88 94.46875 67.529297 L 93.125 65.998047 z M 29.125 81.998047 C 27.401665 82.93791 25.973532 84.358069 25 86.060547 L 25 86.341797 L 26.40625 87.560547 C 26.757645 86.830662 27.218502 86.158207 27.75 85.560547 L 30.6875 88.623047 L 26.25 92.935547 C 26.141213 93.040536 26.149896 93.19727 26.25 93.310547 C 26.442626 93.528559 26.625738 93.742895 26.84375 93.935547 C 26.957041 94.035654 27.145011 94.013067 27.25 93.904297 L 31.53125 89.466797 L 35.8125 93.904297 C 35.917504 94.012997 36.074251 94.035622 36.1875 93.935547 C 36.405569 93.742864 36.619803 93.52863 36.8125 93.310547 C 36.912574 93.197298 36.921203 93.04055 36.8125 92.935547 L 32.34375 88.623047 L 35.0625 85.810547 L 35.75 86.466797 L 38 87.248047 L 37.15625 85.091797 L 36.4375 84.373047 L 36.65625 84.185547 L 36 83.529297 L 35.78125 83.716797 L 34.15625 82.091797 L 32.75 83.466797 L 34.375 85.091797 L 31.53125 87.810547 L 28.46875 84.873047 C 29.064814 84.342608 29.740461 83.88 30.46875 83.529297 L 29.125 81.998047 z M 71.791016 81.998047 C 70.067681 82.93791 68.639548 84.358069 67.666016 86.060547 L 67.666016 86.341797 L 69.072266 87.560547 C 69.423661 86.830662 69.884518 86.158207 70.416016 85.560547 L 73.353516 88.623047 L 68.916016 92.935547 C 68.807229 93.040536 68.815912 93.19727 68.916016 93.310547 C 69.108642 93.528559 69.291754 93.742895 69.509766 93.935547 C 69.623057 94.035654 69.811027 94.013067 69.916016 93.904297 L 74.197266 89.466797 L 78.478516 93.904297 C 78.58352 94.012997 78.740267 94.035622 78.853516 93.935547 C 79.071585 93.742864 79.285819 93.52863 79.478516 93.310547 C 79.57859 93.197298 79.587219 93.04055 79.478516 92.935547 L 75.009766 88.623047 L 77.728516 85.810547 L 78.416016 86.466797 L 80.666016 87.248047 L 79.822266 85.091797 L 79.103516 84.373047 L 79.322266 84.185547 L 78.666016 83.529297 L 78.447266 83.716797 L 76.822266 82.091797 L 75.416016 83.466797 L 77.041016 85.091797 L 74.197266 87.810547 L 71.134766 84.873047 C 71.73083 84.342608 72.406477 83.88 73.134766 83.529297 L 71.791016 81.998047 z M 114.45898 81.998047 C 112.73565 82.93791 111.30751 84.358069 110.33398 86.060547 L 110.33398 86.341797 L 111.74023 87.560547 C 112.09163 86.830662 112.55248 86.158207 113.08398 85.560547 L 116.02148 88.623047 L 111.58398 92.935547 C 111.47519 93.040536 111.48388 93.19727 111.58398 93.310547 C 111.77661 93.528559 111.95972 93.742895 112.17773 93.935547 C 112.29102 94.035654 112.47899 94.013067 112.58398 93.904297 L 116.86523 89.466797 L 121.14648 93.904297 C 121.25148 94.012997 121.40823 94.035622 121.52148 93.935547 C 121.73955 93.742864 121.95378 93.52863 122.14648 93.310547 C 122.24655 93.197298 122.25518 93.04055 122.14648 92.935547 L 117.67773 88.623047 L 120.39648 85.810547 L 121.08398 86.466797 L 123.33398 87.248047 L 122.49023 85.091797 L 121.77148 84.373047 L 121.99023 84.185547 L 121.33398 83.529297 L 121.11523 83.716797 L 119.49023 82.091797 L 118.08398 83.466797 L 119.70898 85.091797 L 116.86523 87.810547 L 113.80273 84.873047 C 114.39879 84.342608 115.07444 83.88 115.80273 83.529297 L 114.45898 81.998047 z M 7.7910156 97.998047 C 6.067681 98.93791 4.6395474 100.35808 3.6660156 102.06055 L 3.6660156 102.3418 L 5.0722656 103.56055 C 5.4236606 102.83067 5.8845179 102.15821 6.4160156 101.56055 L 9.3535156 104.62305 L 4.9160156 108.93555 C 4.8072283 109.04054 4.8159115 109.19728 4.9160156 109.31055 C 5.1086418 109.52857 5.2917533 109.7429 5.5097656 109.93555 C 5.6230569 110.03566 5.8110263 110.013 5.9160156 109.9043 L 10.197266 105.4668 L 14.478516 109.9043 C 14.58352 110.013 14.740267 110.03568 14.853516 109.93555 C 15.071585 109.74287 15.285819 109.52864 15.478516 109.31055 C 15.57859 109.19731 15.587219 109.04056 15.478516 108.93555 L 11.009766 104.62305 L 13.728516 101.81055 L 14.416016 102.4668 L 16.666016 103.24805 L 15.822266 101.0918 L 15.103516 100.37305 L 15.322266 100.18555 L 14.666016 99.529297 L 14.447266 99.716797 L 12.822266 98.091797 L 11.416016 99.466797 L 13.041016 101.0918 L 10.197266 103.81055 L 7.1347656 100.87305 C 7.7308298 100.34262 8.4064765 99.88 9.1347656 99.529297 L 7.7910156 97.998047 z M 50.458984 97.998047 C 48.735649 98.93791 47.307516 100.35808 46.333984 102.06055 L 46.333984 102.3418 L 47.740234 103.56055 C 48.091629 102.83067 48.552486 102.15821 49.083984 101.56055 L 52.021484 104.62305 L 47.583984 108.93555 C 47.475197 109.04054 47.48388 109.19728 47.583984 109.31055 C 47.77661 109.52857 47.959722 109.7429 48.177734 109.93555 C 48.291025 110.03566 48.478995 110.013 48.583984 109.9043 L 52.865234 105.4668 L 57.146484 109.9043 C 57.251488 110.013 57.408235 110.03568 57.521484 109.93555 C 57.739553 109.74287 57.953787 109.52864 58.146484 109.31055 C 58.246558 109.19731 58.255187 109.04056 58.146484 108.93555 L 53.677734 104.62305 L 56.396484 101.81055 L 57.083984 102.4668 L 59.333984 103.24805 L 58.490234 101.0918 L 57.771484 100.37305 L 57.990234 100.18555 L 57.333984 99.529297 L 57.115234 99.716797 L 55.490234 98.091797 L 54.083984 99.466797 L 55.708984 101.0918 L 52.865234 103.81055 L 49.802734 100.87305 C 50.398798 100.34262 51.074445 99.88 51.802734 99.529297 L 50.458984 97.998047 z M 93.125 97.998047 C 91.401665 98.93791 89.973532 100.35808 89 102.06055 L 89 102.3418 L 90.40625 103.56055 C 90.757645 102.83067 91.218502 102.15821 91.75 101.56055 L 94.6875 104.62305 L 90.25 108.93555 C 90.141213 109.04054 90.149896 109.19728 90.25 109.31055 C 90.442626 109.52857 90.625738 109.7429 90.84375 109.93555 C 90.957041 110.03566 91.145011 110.013 91.25 109.9043 L 95.53125 105.4668 L 99.8125 109.9043 C 99.917504 110.013 100.07425 110.03568 100.1875 109.93555 C 100.40557 109.74287 100.6198 109.52864 100.8125 109.31055 C 100.91257 109.19731 100.9212 109.04056 100.8125 108.93555 L 96.34375 104.62305 L 99.0625 101.81055 L 99.75 102.4668 L 102 103.24805 L 101.15625 101.0918 L 100.4375 100.37305 L 100.65625 100.18555 L 100 99.529297 L 99.78125 99.716797 L 98.15625 98.091797 L 96.75 99.466797 L 98.375 101.0918 L 95.53125 103.81055 L 92.46875 100.87305 C 93.064814 100.34262 93.740461 99.88 94.46875 99.529297 L 93.125 97.998047 z M 29.125 113.99805 C 27.401665 114.93792 25.973532 116.35808 25 118.06055 L 25 118.3418 L 26.40625 119.56055 C 26.757645 118.83067 27.218502 118.15821 27.75 117.56055 L 30.6875 120.62305 L 26.25 124.93555 C 26.141213 125.04054 26.149896 125.19728 26.25 125.31055 C 26.442626 125.52857 26.625738 125.7429 26.84375 125.93555 C 26.957041 126.03566 27.145011 126.013 27.25 125.9043 L 31.53125 121.4668 L 35.8125 125.9043 C 35.917504 126.013 36.074251 126.03568 36.1875 125.93555 C 36.405569 125.74287 36.619803 125.52864 36.8125 125.31055 C 36.912574 125.19731 36.921203 125.04056 36.8125 124.93555 L 32.34375 120.62305 L 35.0625 117.81055 L 35.75 118.4668 L 38 119.24805 L 37.15625 117.0918 L 36.4375 116.37305 L 36.65625 116.18555 L 36 115.5293 L 35.78125 115.7168 L 34.15625 114.0918 L 32.75 115.4668 L 34.375 117.0918 L 31.53125 119.81055 L 28.46875 116.87305 C 29.064814 116.34262 29.740461 115.88001 30.46875 115.5293 L 29.125 113.99805 z M 71.791016 113.99805 C 70.067681 114.93792 68.639548 116.35808 67.666016 118.06055 L 67.666016 118.3418 L 69.072266 119.56055 C 69.423661 118.83067 69.884518 118.15821 70.416016 117.56055 L 73.353516 120.62305 L 68.916016 124.93555 C 68.807229 125.04054 68.815912 125.19728 68.916016 125.31055 C 69.108642 125.52857 69.291754 125.7429 69.509766 125.93555 C 69.623057 126.03566 69.811027 126.013 69.916016 125.9043 L 74.197266 121.4668 L 78.478516 125.9043 C 78.58352 126.013 78.740267 126.03568 78.853516 125.93555 C 79.071585 125.74287 79.285819 125.52864 79.478516 125.31055 C 79.57859 125.19731 79.587219 125.04056 79.478516 124.93555 L 75.009766 120.62305 L 77.728516 117.81055 L 78.416016 118.4668 L 80.666016 119.24805 L 79.822266 117.0918 L 79.103516 116.37305 L 79.322266 116.18555 L 78.666016 115.5293 L 78.447266 115.7168 L 76.822266 114.0918 L 75.416016 115.4668 L 77.041016 117.0918 L 74.197266 119.81055 L 71.134766 116.87305 C 71.73083 116.34262 72.406477 115.88001 73.134766 115.5293 L 71.791016 113.99805 z M 114.45898 113.99805 C 112.73565 114.93792 111.30751 116.35808 110.33398 118.06055 L 110.33398 118.3418 L 111.74023 119.56055 C 112.09163 118.83067 112.55248 118.15821 113.08398 117.56055 L 116.02148 120.62305 L 111.58398 124.93555 C 111.47519 125.04054 111.48388 125.19728 111.58398 125.31055 C 111.77661 125.52857 111.95972 125.7429 112.17773 125.93555 C 112.29102 126.03566 112.47899 126.013 112.58398 125.9043 L 116.86523 121.4668 L 121.14648 125.9043 C 121.25148 126.013 121.40823 126.03568 121.52148 125.93555 C 121.73955 125.74287 121.95378 125.52864 122.14648 125.31055 C 122.24655 125.19731 122.25518 125.04056 122.14648 124.93555 L 117.67773 120.62305 L 120.39648 117.81055 L 121.08398 118.4668 L 123.33398 119.24805 L 122.49023 117.0918 L 121.77148 116.37305 L 121.99023 116.18555 L 121.33398 115.5293 L 121.11523 115.7168 L 119.49023 114.0918 L 118.08398 115.4668 L 119.70898 117.0918 L 116.86523 119.81055 L 113.80273 116.87305 C 114.39879 116.34262 115.07444 115.88001 115.80273 115.5293 L 114.45898 113.99805 z "
     style="fill:#d3ccb4" />
  <rect
     style="fill:none;fill-opacity:1;stroke:none"
     id="rect8566"
     y="0"
     x="0"
     rx="0"
     height="128"
     width="128" />
  <desc
     id="desc118">Created with Snap</desc>
</svg>
