<?xml version="1.0" encoding="UTF-8" standalone="no"?>
<svg
   xmlns:dc="http://purl.org/dc/elements/1.1/"
   xmlns:cc="http://creativecommons.org/ns#"
   xmlns:rdf="http://www.w3.org/1999/02/22-rdf-syntax-ns#"
   xmlns:svg="http://www.w3.org/2000/svg"
   xmlns="http://www.w3.org/2000/svg"
   xmlns:sodipodi="http://sodipodi.sourceforge.net/DTD/sodipodi-0.dtd"
   xmlns:inkscape="http://www.inkscape.org/namespaces/inkscape"
   version="1.1"
   width="16"
   height="16"
   viewBox="0 0 16 16"
   id="svg4"
   sodipodi:docname="skateboard.svg"
   inkscape:version="0.92.4 (5da689c313, 2019-01-14)">
  <sodipodi:namedview
     pagecolor="#ffffff"
     bordercolor="#666666"
     borderopacity="1"
     objecttolerance="10"
     gridtolerance="10"
     guidetolerance="10"
     inkscape:pageopacity="0"
     inkscape:pageshadow="2"
     inkscape:window-width="1558"
     inkscape:window-height="993"
     id="namedview1401"
     showgrid="true"
     inkscape:snap-bbox="true"
     inkscape:snap-nodes="false"
     inkscape:snap-bbox-edge-midpoints="true"
     inkscape:zoom="1"
     inkscape:cx="8"
     inkscape:cy="2.5762712"
     inkscape:window-x="0"
     inkscape:window-y="0"
     inkscape:window-maximized="0"
     inkscape:current-layer="svg4"
     inkscape:bbox-nodes="false">
    <inkscape:grid
       type="xygrid"
       id="grid1403" />
  </sodipodi:namedview>
  <metadata
     id="metadata10">
    <rdf:RDF>
      <cc:Work
         rdf:about="">
        <dc:format>image/svg+xml</dc:format>
        <dc:type
           rdf:resource="http://purl.org/dc/dcmitype/StillImage" />
        <dc:title></dc:title>
      </cc:Work>
    </rdf:RDF>
  </metadata>
  <defs
     id="defs8" />
  <rect
     width="16"
     height="16"
     x="0"
     y="0"
     id="canvas"
     style="fill:none;stroke:none;visibility:hidden" />
  <path
     inkscape:connector-curvature="0"
     style="color:#000000;font-style:normal;font-variant:normal;font-weight:normal;font-stretch:normal;font-size:medium;line-height:normal;font-family:sans-serif;font-variant-ligatures:normal;font-variant-position:normal;font-variant-caps:normal;font-variant-numeric:normal;font-variant-alternates:normal;font-feature-settings:normal;text-indent:0;text-align:start;text-decoration:none;text-decoration-line:none;text-decoration-style:solid;text-decoration-color:#000000;letter-spacing:normal;word-spacing:normal;text-transform:none;writing-mode:lr-tb;direction:ltr;text-orientation:mixed;dominant-baseline:auto;baseline-shift:baseline;text-anchor:start;white-space:normal;shape-padding:0;clip-rule:nonzero;display:inline;overflow:visible;visibility:visible;opacity:1;isolation:auto;mix-blend-mode:normal;color-interpolation:sRGB;color-interpolation-filters:linearRGB;solid-color:#000000;solid-opacity:1;vector-effect:none;fill:#000000;fill-opacity:1;fill-rule:evenodd;stroke:none;stroke-width:1.5;stroke-linecap:round;stroke-linejoin:miter;stroke-miterlimit:4;stroke-dasharray:none;stroke-dashoffset:0;stroke-opacity:1;color-rendering:auto;image-rendering:auto;shape-rendering:auto;text-rendering:auto;enable-background:accumulate"
     d="m 8.5074886,0.74999956 a 1.25,1.25 0 0 0 -1.25,1.25000004 1.25,1.25 0 0 0 1.25,1.25 1.25,1.25 0 0 0 1.2499997,-1.25 A 1.25,1.25 0 0 0 8.5074886,0.74999956 Z M 8.2789736,3.9902336 a 0.750075,0.750075 0 0 0 -0.376953,0.09375 0.750075,0.750075 0 0 0 -0.01758,0.0098 0.750075,0.750075 0 0 0 -0.04297,0.02539 l -2.341797,0.851562 -2.833985,-0.945312 a 0.50005,0.50005 0 0 0 -0.195312,-0.02734 0.50005,0.50005 0 0 0 -0.119141,0.976562 l 3,1 a 0.50076685,0.50076685 0 0 0 0.01172,0.0039 0.50005,0.50005 0 0 0 0.03711,0.0098 0.50076685,0.50076685 0 0 0 0.0293,0.0059 0.50005,0.50005 0 0 0 0.322266,-0.04883 l 1.349609,-0.492187 -1.228515,2.634766 a 0.750075,0.750075 0 0 0 -0.09961,0.24414 0.750075,0.750075 0 0 0 0.04883,0.5097656 l 0.341797,1.3691418 -1.835937,1.451171 a 0.750075,0.750075 0 1 0 0.929687,1.175782 l 2.082032,-1.646485 a 0.750075,0.750075 0 0 0 0.423828,-0.673828 0.750075,0.750075 0 0 0 -0.05469,-0.30664 l -0.195312,-0.7792978 1.771484,1.2871098 -0.855469,1.568359 a 0.750075,0.750075 0 1 0 1.3164067,0.71875 l 1.1718757,-2.146484 a 0.750075,0.750075 0 0 0 0.0332,-0.06836 0.750075,0.750075 0 0 0 -0.355469,-0.9746104 l -2.1738284,-1.580078 1.03125,-2.578125 1.5937504,1.552735 0.951172,2.4843736 a 0.50005,0.50005 0 1 0 0.933594,-0.357421 L 11.968426,6.8223686 a 0.50005,0.50005 0 0 0 -0.08789,-0.150391 0.50005,0.50005 0 0 0 -0.111328,-0.154297 L 9.7379573,4.5411186 a 0.750075,0.750075 0 0 0 -0.03516,-0.0957 0.750075,0.750075 0 0 0 -0.03125,-0.06445 0.750075,0.750075 0 0 0 -0.002,-0.0039 0.750075,0.750075 0 0 0 -0.03906,-0.06055 0.750075,0.750075 0 0 0 0,-0.002 0.750075,0.750075 0 0 0 -0.6445307,-0.324219 0.750075,0.750075 0 0 0 -0.0957,0.0098 h -0.513627 a 0.750075,0.750075 0 0 0 -0.09766,-0.0098 z M 3.4274106,13 a 0.50005,0.50005 0 0 0 -0.01367,0.996094 l 1.765625,0.201172 a 0.625,0.625 0 0 0 -0.171875,0.427734 0.625,0.625 0 0 0 0.625,0.625 0.625,0.625 0 0 0 0.625,-0.625 0.625,0.625 0 0 0 -0.08398,-0.3125 l 4.0410164,0.460938 A 0.625,0.625 0 0 0 9.7574943,15.375 0.625,0.625 0 0 0 10.382495,16 a 0.625,0.625 0 0 0 0.625,-0.625 0.625,0.625 0 0 0 -0.322265,-0.546875 l 1.871094,0.212891 a 0.50028715,0.50028715 0 1 0 0.113281,-0.994141 L 3.5270266,13.003906 a 0.50005,0.50005 0 0 0 -0.099616,-0.0039 z"
     id="path4313-2-2-6-3" />
</svg>
