<?xml version="1.0" encoding="UTF-8" standalone="no"?>
<svg
   xmlns:dc="http://purl.org/dc/elements/1.1/"
   xmlns:cc="http://creativecommons.org/ns#"
   xmlns:rdf="http://www.w3.org/1999/02/22-rdf-syntax-ns#"
   xmlns:svg="http://www.w3.org/2000/svg"
   xmlns="http://www.w3.org/2000/svg"
   version="1.1"
   width="16"
   height="16"
   viewBox="0 0 16 16"
   id="svg4">
  <metadata
     id="metadata10">
    <rdf:RDF>
      <cc:Work
         rdf:about="">
        <dc:format>image/svg+xml</dc:format>
        <dc:type
           rdf:resource="http://purl.org/dc/dcmitype/StillImage" />
        <dc:title></dc:title>
      </cc:Work>
    </rdf:RDF>
  </metadata>
  <defs
     id="defs8" />
  <rect
     width="16"
     height="16"
     x="0"
     y="0"
     id="canvas"
     style="fill:none;stroke:none;visibility:hidden" />
  <path
     id="path4351-3"
     d="m 8.4949364,0.73713654 a 1.25,1.25 0 0 0 -1.25,1.25000006 1.25,1.25 0 0 0 1.25,1.25 1.25,1.25 0 0 0 1.2500001,-1.25 A 1.25,1.25 0 0 0 8.4949364,0.73713654 Z M 7.7351704,3.9773716 a 0.750075,0.750075 0 0 0 -0.462891,0.169922 0.750075,0.750075 0 0 0 -0.01367,0.0098 0.750075,0.750075 0 0 0 -0.0039,0.0039 0.750075,0.750075 0 0 0 -0.05273,0.04883 0.750075,0.750075 0 0 0 -0.002,0.002 0.750075,0.750075 0 0 0 -0.0039,0.0039 0.750075,0.750075 0 0 0 -0.05469,0.0625 l -2.4140631,1.537109 -1.730468,0.988282 a 0.50037826,0.50037826 0 1 0 0.496094,0.86914 l 1.75,-1 a 0.50005,0.50005 0 0 0 0.0039,-0.002 0.50010029,0.50010029 0 0 0 0.01758,-0.01172 0.50005,0.50005 0 0 0 0.0332,-0.02148 l 1.6972661,-1.080078 v 3.099609 l -2.2128531,2.0116924 -2.867188,-0.66211 a 0.750075,0.750075 0 0 0 -0.148437,-0.02148 0.750075,0.750075 0 0 0 -0.189453,1.4843759 l 3.177734,0.732421 a 0.750075,0.750075 0 0 0 0.296875,0.03516 0.75070276,0.75070276 0 0 0 0.07422,-0.0098 0.750075,0.750075 0 0 0 0.07227,-0.01563 0.75070276,0.75070276 0 0 0 0.0078,-0.002 0.750075,0.750075 0 0 0 0.06445,-0.02344 0.75070276,0.75070276 0 0 0 0.0059,-0.002 0.750075,0.750075 0 0 0 0.0625,-0.02734 0.75070276,0.75070276 0 0 0 0.0059,-0.0039 0.750075,0.750075 0 0 0 0.05859,-0.03516 0.75070276,0.75070276 0 0 0 0.0059,-0.0039 0.750075,0.750075 0 0 0 0.05469,-0.03906 0.75070276,0.75070276 0 0 0 0.0059,-0.0059 0.750075,0.750075 0 0 0 0.03125,-0.02734 0.75070276,0.75070276 0 0 0 0.0293,-0.02734 L 8.1689184,9.6158935 a 0.750075,0.750075 0 0 0 0.06641,-0.050781 l 1.5566411,2.2246095 0.7187495,3.595704 a 0.750075,0.750075 0 1 0 1.470703,-0.294779 l -0.746094,-3.728516 a 0.75018959,0.75018959 0 0 0 -0.0039,-0.02148 0.750075,0.750075 0 0 0 -0.01172,-0.05273 0.75018959,0.75018959 0 0 0 -0.0059,-0.01953 A 0.750075,0.750075 0 0 0 11.06537,10.993 L 9.4950585,8.7508033 v -3.525391 l 1.8144525,0.726563 a 0.50005814,0.50005814 0 0 0 0.002,0 0.50005,0.50005 0 0 0 0.490234,-0.05859 l 1.917969,-0.958984 a 0.50005,0.50005 0 0 0 -0.220703,-0.949219 0.50005,0.50005 0 0 0 -0.226563,0.05469 l -1.800781,0.90039 -2.2890615,-0.916015 a 0.50005,0.50005 0 0 0 -0.1953132,-0.03906 0.50005,0.50005 0 0 0 -0.08789,0.0078 0.750075,0.750075 0 0 0 -0.1640629,-0.01563 0.750075,0.750075 0 0 0 -0.105469,0.0098 h -0.763672 a 0.750075,0.750075 0 0 0 -0.130859,-0.0098 z m -1.240234,9.1347654 a 1.375,1.375 0 0 0 -1.3750001,1.375 1.375,1.375 0 0 0 1.3750001,1.375 1.375,1.375 0 0 0 1.375,-1.375 1.375,1.375 0 0 0 -1.375,-1.375 z"
     style="color:#000000;font-style:normal;font-variant:normal;font-weight:normal;font-stretch:normal;font-size:medium;line-height:normal;font-family:sans-serif;font-variant-ligatures:normal;font-variant-position:normal;font-variant-caps:normal;font-variant-numeric:normal;font-variant-alternates:normal;font-feature-settings:normal;text-indent:0;text-align:start;text-decoration:none;text-decoration-line:none;text-decoration-style:solid;text-decoration-color:#000000;letter-spacing:normal;word-spacing:normal;text-transform:none;writing-mode:lr-tb;direction:ltr;text-orientation:mixed;dominant-baseline:auto;baseline-shift:baseline;text-anchor:start;white-space:normal;shape-padding:0;clip-rule:nonzero;display:inline;overflow:visible;visibility:visible;opacity:1;isolation:auto;mix-blend-mode:normal;color-interpolation:sRGB;color-interpolation-filters:linearRGB;solid-color:#000000;solid-opacity:1;vector-effect:none;fill:#000000;fill-opacity:1;fill-rule:evenodd;stroke:none;stroke-width:1.5;stroke-linecap:round;stroke-linejoin:miter;stroke-miterlimit:4;stroke-dasharray:none;stroke-dashoffset:0;stroke-opacity:1;color-rendering:auto;image-rendering:auto;shape-rendering:auto;text-rendering:auto;enable-background:accumulate" />
</svg>
