<?xml version="1.0" encoding="UTF-8" standalone="no"?>
<svg>

  <g
     id="layer1"
     transform="translate(0,-1036.3622)">
    <path
       transform="matrix(1.1666667,0,0,1.1666667,0,1033.6955)"
       d="m 6,13 a 3,3 0 1 1 -6,0 3,3 0 1 1 6,0 z"
       id="path4333"
       style="fill:none;fill-opacity:1;stroke:#ffffff;stroke-opacity:1;stroke-width:0.6;stroke-miterlimit:4;stroke-dasharray:none" />
    <path
       style="fill:#808080;fill-opacity:1;stroke:none"
       id="path4325"
       d="m 6,13 a 3,3 0 1 1 -6,0 3,3 0 1 1 6,0 z"
       transform="matrix(1.1666667,0,0,1.1666667,0,1033.6955)" />
    <path
       transform="matrix(1.125,0,0,1.1250023,0.125,1034.2372)"
       d="m 6,13 a 3,3 0 1 1 -6,0 3,3 0 1 1 6,0 z"
       id="path4327"
       style="fill:none;stroke:#021010;stroke-width:0.22222202;stroke-miterlimit:4;stroke-opacity:1;stroke-dasharray:none"/>
  </g>
</svg>
