<?xml version="1.0" encoding="UTF-8" standalone="no"?>
<svg>
  <g
     transform="translate(0,-1036.3622)">
    <path
       transform="translate(0,1036.3622)"
       d="m 6,13 a 3,3 0 1 1 -6,0 3,3 0 1 1 6,0 z"
       id="path4331"
       style="fill:none;fill-opacity:1;stroke:#ffffff;stroke-opacity:1;stroke-width:0.6;stroke-miterlimit:0;stroke-dasharray:none" />
    <path
       style="fill:#808080;fill-opacity:1;stroke:none"
       id="path4325"
       d="m 6,13 a 3,3 0 1 1 -6,0 3,3 0 1 1 6,0 z"
       transform="translate(0,1036.3622)" />
    <path
       transform="matrix(0.95833333,0,0,0.95833392,0.125,1036.9039)"
       d="m 6,13 a 3,3 0 1 1 -6,0 3,3 0 1 1 6,0 z"
       id="path4327"
       style="fill:none;stroke:#021010;stroke-width:0.2608695;stroke-miterlimit:4;stroke-opacity:1;stroke-dasharray:none" />
  </g>
</svg>
