<?xml version="1.0" encoding="UTF-8" standalone="no"?>
<!-- Created with Inkscape (http://www.inkscape.org/) -->

<svg
   version="1.1"
   width="6"
   height="4"
   viewBox="0 0 6 4"
   id="svg2"
   xmlns="http://www.w3.org/2000/svg"
   xmlns:svg="http://www.w3.org/2000/svg">
  <defs
     id="defs1" />
  <rect
     width="6"
     height="4"
     x="0"
     y="0"
     id="canvas"
     style="visibility:hidden;fill:none;stroke:none" />
  <path
     id="rect148-2-5"
     style="fill:#000000"
     d="M 0.5,0 A 0.5,0.5 0 0 0 0,0.5 V 4 H 1 V 1.2460938 C 1.295499,1.526152 1.5576062,1.7591532 1.8027344,1.9433594 2.2090133,2.2486653 2.576982,2.4276402 2.9648438,2.4375 3.3527054,2.4473598 3.7322054,2.2845415 4.1503906,1.9824219 4.4083874,1.796031 4.6856317,1.5550242 5,1.2558594 V 4 H 6 V 0.5 A 0.5,0.5 0 0 0 5.5,0 0.5,0.5 0 0 0 5,0.5 V 0.734375 C 4.579939,1.1463797 4.2291811,1.4633171 3.9296875,1.6796875 3.5464428,1.9565642 3.2531274,2.0695802 2.9746094,2.0625 2.6960914,2.0554198 2.4047753,1.9247385 2.0292969,1.6425781 1.7385978,1.4241269 1.4024906,1.1158768 1,0.7265625 V 0.5 A 0.5,0.5 0 0 0 0.5,0 Z" />
</svg>
