<?xml version="1.0" encoding="UTF-8" standalone="no"?>
<!-- Created with Inkscape (http://www.inkscape.org/) -->

<svg
   version="1.1"
   width="13"
   height="9"
   viewBox="0 0 13 9"
   id="svg2"
   xmlns="http://www.w3.org/2000/svg"
   xmlns:svg="http://www.w3.org/2000/svg">
  <defs
     id="defs1" />
  <rect
     width="13"
     height="9"
     x="0"
     y="0"
     id="canvas"
     style="visibility:hidden;fill:none;stroke:none" />
  <path
     id="path1-902"
     style="fill:#000000"
     d="M 2 0 L 2 2 L 0 2 L 0 3 L 0 9 L 0.375 9 L 0.375 3 L 1 3 L 1 9 L 1.375 9 L 1.375 3 L 2 3 L 2 9 L 3 9 L 3 0 L 2 0 z M 6 0 L 6 1 L 4 1 L 4 2 L 6 2 L 6 4 L 4 4 L 4 5 L 6 5 L 6 7 L 4 7 L 4 8 L 6 8 L 6 9 L 7 9 L 7 8 L 9 8 L 9 7 L 7 7 L 7 5 L 9 5 L 9 4 L 7 4 L 7 2 L 9 2 L 9 1 L 7 1 L 7 0 L 6 0 z M 10 0 L 10 9 L 11 9 L 11 3 L 11.625 3 L 11.625 9 L 12 9 L 12 3 L 12.625 3 L 12.625 9 L 13 9 L 13 3 L 13 2 L 11 2 L 11 0 L 10 0 z " />
</svg>
