<?xml version="1.0" encoding="UTF-8" standalone="no"?>
<!-- Created with Inkscape (http://www.inkscape.org/) -->

<svg
   version="1.1"
   width="9"
   height="7"
   viewBox="0 0 9 7"
   id="svg2"
   xmlns="http://www.w3.org/2000/svg"
   xmlns:svg="http://www.w3.org/2000/svg">
  <defs
     id="defs1" />
  <rect
     width="9"
     height="7"
     x="0"
     y="0"
     id="canvas"
     style="visibility:hidden;fill:none;stroke:none" />
  <path
     id="rect103-7"
     style="fill:#000000"
     d="M 0 0.5 L 0 1 L 0 2 L 0 5 L 0 6 L 0 7 L 1 7 L 1 6 L 8 6 L 8 7 L 9 7 L 9 0.5 L 8 0.5 L 8 1 L 1 1 L 1 0.5 L 0 0.5 z M 1 2 L 3 2 L 3 2.5 L 4 3.5 L 3 4.5 L 3 5 L 1 5 L 1 2 z M 3.5 2 L 5.5 2 L 4.5 3 L 3.5 2 z M 6 2 L 8 2 L 8 5 L 6 5 L 6 4.5 L 5 3.5 L 6 2.5 L 6 2 z M 4.5 4 L 5.5 5 L 3.5 5 L 4.5 4 z " />
</svg>
