<?xml version="1.0" encoding="UTF-8" standalone="no"?>
<!-- Created with Inkscape (http://www.inkscape.org/) -->

<svg
   version="1.1"
   width="9"
   height="5"
   viewBox="0 0 9 5"
   id="svg2"
   xmlns="http://www.w3.org/2000/svg"
   xmlns:svg="http://www.w3.org/2000/svg">
  <defs
     id="defs1" />
  <rect
     width="9"
     height="5"
     x="0"
     y="0"
     id="canvas"
     style="visibility:hidden;fill:none;stroke:none" />
  <path
     id="rect148-2-5-4-3"
     style="fill:#000000"
     d="M 0.5,0 A 0.5,0.5 0 0 0 0,0.5 V 5 H 1 V 3.375 H 2.5 V 4.5 H 2.875 V 3.375 H 4.5 V 4.5 H 4.875 V 3.375 H 6.5 V 4.5 H 6.875 V 3.375 H 8 V 5 H 9 V 0.5 A 0.5,0.5 0 0 0 8.5,0 0.5,0.5 0 0 0 8,0.5 V 1 H 1 V 0.5 A 0.5,0.5 0 0 0 0.5,0 Z M 1,1.5136719 H 2.5 V 3 H 1 Z m 1.875,0 H 4.5 V 3 H 2.875 Z m 2,0 H 6.5 V 3 H 4.875 Z m 2,0 H 8 V 3 H 6.875 Z" />
</svg>
