<?xml version="1.0" encoding="UTF-8" standalone="no"?>
<!-- Created with Inkscape (http://www.inkscape.org/) -->

<svg
   version="1.1"
   width="7"
   height="4"
   viewBox="0 0 7 4"
   id="svg2"
   xmlns="http://www.w3.org/2000/svg"
   xmlns:svg="http://www.w3.org/2000/svg">
  <defs
     id="defs1" />
  <rect
     width="7"
     height="4"
     x="0"
     y="0"
     id="canvas"
     style="visibility:hidden;fill:none;stroke:none" />
  <path
     id="rect148-2-5-4"
     style="fill:#000000"
     d="M 0.5,0 A 0.5,0.5 0 0 0 0,0.5 V 4 H 1 V 3.375 H 2.625 V 4 h 0.25 V 3.375 h 1.75 V 4 h 0.25 V 3.375 H 6 V 4 H 7 V 0.5 A 0.5,0.5 0 0 0 6.5,0 0.5,0.5 0 0 0 6,0.5 V 1 H 1 V 0.5 A 0.5,0.5 0 0 0 0.5,0 Z M 1,1.5136719 H 2.625 V 3 H 1 Z m 1.875,0 h 1.75 V 3 h -1.75 z m 2,0 H 6 V 3 H 4.875 Z" />
</svg>
