<?xml version="1.0" encoding="UTF-8" standalone="no"?>
<!-- Created with Inkscape (http://www.inkscape.org/) -->

<svg
   version="1.1"
   width="9"
   height="5"
   viewBox="0 0 9 5"
   id="svg2"
   xmlns="http://www.w3.org/2000/svg"
   xmlns:svg="http://www.w3.org/2000/svg">
  <defs
     id="defs1" />
  <rect
     width="10"
     height="5"
     x="0"
     y="0"
     id="canvas"
     style="visibility:hidden;fill:none;stroke:none" />
  <path
     id="rect140-2"
     style="display:inline;fill:#000000;stroke-width:0.7;stroke-linecap:round;stroke-linejoin:round;stroke-dasharray:none;stroke-dashoffset:1.2"
     d="M 5.4492188 0.001953125 A 0.5 0.5 0 0 0 5.1113281 0.18554688 A 0.5 0.5 0 0 0 5.1855469 0.88867188 L 7 2.3632812 L 7 2.6367188 L 5.1855469 4.1113281 A 0.5 0.5 0 0 0 5.1113281 4.8144531 A 0.5 0.5 0 0 0 5.8144531 4.8886719 L 7.8144531 3.2636719 A 0.50005 0.50005 0 0 0 7.9824219 3 L 9 3 L 9 2 L 7.9824219 2 A 0.50005 0.50005 0 0 0 7.8144531 1.7363281 L 5.8144531 0.11132812 A 0.5 0.5 0 0 0 5.4492188 0.001953125 z M 1.5 1.5 A 1 1 0 0 0 0.63671875 2 L 0 2 L 0 3 L 0.63671875 3 A 1 1 0 0 0 1.5 3.5 A 1 1 0 0 0 2.3632812 3 L 4.2265625 3 A 0.625 0.625 0 0 0 4.5976562 3.125 A 0.625 0.625 0 0 0 5.2226562 2.5 A 0.625 0.625 0 0 0 4.5976562 1.875 A 0.625 0.625 0 0 0 4.2265625 2 L 2.3652344 2 A 1 1 0 0 0 1.5 1.5 z " />
</svg>
