<?xml version="1.0" encoding="UTF-8" standalone="no"?>
<!-- Created with Inkscape (http://www.inkscape.org/) -->

<svg
   version="1.1"
   width="9"
   height="6"
   viewBox="0 0 9 6"
   id="svg2"
   xmlns="http://www.w3.org/2000/svg"
   xmlns:svg="http://www.w3.org/2000/svg">
  <defs
     id="defs1" />
  <rect
     width="9"
     height="6"
     x="0"
     y="0"
     id="canvas"
     style="visibility:hidden;fill:none;stroke:none" />
  <path
     id="path1-48-9-6-2"
     style="fill:#000000"
     d="M 1 0 L 1 1 L 0 1 L 0 2 L 1 2 L 1 5.5 L 0.5 6 L 4.5 6 L 3 5.5 L 3 2 L 8.5 2 A 0.5 0.5 0 0 0 9 1.5 A 0.5 0.5 0 0 0 8.5 1 L 3 1 L 3 0 L 1 0 z M 6 3 L 6 3.5 L 7 4.5 L 6 5.5 L 6 6 L 6.5 6 L 7.5 5 L 8.5 6 L 9 6 L 9 5.5 L 8 4.5 L 9 3.5 L 9 3 L 8.5 3 L 7.5 4 L 6.5 3 L 6 3 z " />
</svg>
