<?xml version="1.0" encoding="UTF-8" standalone="no"?>
<!-- Created with Inkscape (http://www.inkscape.org/) -->

<svg
   version="1.1"
   width="7"
   height="2"
   viewBox="0 0 7 2"
   id="svg2"
   xmlns="http://www.w3.org/2000/svg"
   xmlns:svg="http://www.w3.org/2000/svg">
  <defs
     id="defs1" />
  <rect
     width="7"
     height="2"
     x="0"
     y="0"
     id="canvas"
     style="visibility:hidden;fill:none;stroke:none" />
  <path
     id="rect103-29-1-3"
     style="fill:#000000"
     d="M 0.5 0 A 0.5 1 0 0 0 0 1 A 0.5 1 0 0 0 0.5 2 L 6.5 2 L 6.5 1.9980469 C 6.8233437 1.7112872 7 1.3584496 7 1 C 7 0.64155036 6.8233437 0.28675971 6.5 0 L 0.52148438 0 A 0.5 1 0 0 0 0.5 0 z M 0.83007812 0.25 L 6.3144531 0.25 C 6.5024449 0.50007975 6.5957031 0.77492023 6.5957031 1 C 6.5957031 1.1643555 6.5400462 1.2772826 6.4550781 1.375 L 0.96484375 1.375 A 0.5 1 0 0 0 1 1 A 0.5 1 0 0 0 0.83007812 0.25 z " />
</svg>
