<?xml version="1.0" encoding="UTF-8" standalone="no"?>
<!-- Created with Inkscape (http://www.inkscape.org/) -->

<svg
   version="1.1"
   width="10"
   height="3"
   viewBox="0 0 10 2.9999999"
   id="svg2"
   xmlns="http://www.w3.org/2000/svg"
   xmlns:svg="http://www.w3.org/2000/svg">
  <defs
     id="defs1" />
  <rect
     width="10"
     height="3"
     x="0"
     y="0"
     id="canvas"
     style="visibility:hidden;fill:none;stroke:none" />
  <path
     id="rect103-29-1"
     style="fill:#000000"
     d="M 1 0 A 0.75 1.5 0 0 0 0.25 1.5 A 0.75 1.5 0 0 0 1 3 L 9 3 L 9 2.9960938 C 9.4287453 2.5664436 9.6621094 2.0366806 9.6621094 1.5 C 9.6621094 0.96331941 9.4287453 0.43355641 9 0.00390625 L 9 0 L 1 0 z M 1.4960938 0.375 L 8.75 0.375 C 8.9999998 0.74999963 9.125 1.1625003 9.125 1.5 C 9.125 1.7124056 9.0698671 1.8674218 8.9824219 2 L 1.7050781 2 A 0.75 1.5 0 0 0 1.75 1.5 A 0.75 1.5 0 0 0 1.4960938 0.375 z " />
</svg>
