<?xml version="1.0" encoding="UTF-8" standalone="no"?>
<!-- Created with Inkscape (http://www.inkscape.org/) -->

<svg
   version="1.1"
   width="9"
   height="7"
   viewBox="0 0 9 7"
   id="svg2"
   xmlns="http://www.w3.org/2000/svg"
   xmlns:svg="http://www.w3.org/2000/svg">
  <defs
     id="defs1" />
  <rect
     width="9"
     height="7"
     x="0"
     y="0"
     id="canvas"
     style="visibility:hidden;fill:none;stroke:none" />
  <path
     id="path2-64-7-6-6"
     style="fill:#000000"
     d="M 1 0 A 1 1 0 0 0 0 1 L 0 2 L 0 5 L 0 6 L 0 7 L 1 7 L 2 7 L 2 6 L 8.25 6 L 8.25 6.0683594 A 0.5 0.5 0 0 0 8 6.5 A 0.5 0.5 0 0 0 8.5 7 A 0.5 0.5 0 0 0 9 6.5 A 0.5 0.5 0 0 0 8.75 6.0664062 L 8.75 6 L 9 6 L 9 5 L 9 1.5 L 9 1 L 2 1 A 1 1 0 0 0 1 0 z M 1 2 L 1.625 2 L 1.625 5 L 1 5 L 1 2 z M 2 2 L 3 2 L 3 2.5 L 4 3.5 L 3 4.5 L 3 5 L 2 5 L 2 2 z M 3.5 2 L 5.5 2 L 4.5 3 L 3.5 2 z M 6 2 L 7 2 L 7 5 L 6 5 L 6 4.5 L 5 3.5 L 6 2.5 L 6 2 z M 7.375 2 L 8.125 2 L 8.125 5 L 7.375 5 L 7.375 2 z M 4.5 4 L 5.5 5 L 3.5 5 L 4.5 4 z " />
</svg>
