<?xml version="1.0" encoding="UTF-8" standalone="no"?>
<!-- Created with Inkscape (http://www.inkscape.org/) -->

<svg
   version="1.1"
   width="7"
   height="5"
   viewBox="0 0 7 5"
   id="svg2"
   xmlns="http://www.w3.org/2000/svg"
   xmlns:svg="http://www.w3.org/2000/svg">
  <defs
     id="defs1" />
  <rect
     width="7"
     height="5"
     x="0"
     y="0"
     id="canvas"
     style="visibility:hidden;fill:none;stroke:none" />
  <path
     id="path2-64-7"
     style="fill:#000000"
     d="M 0.5 0 A 0.5 0.5 0 0 0 0 0.5 L 0 1 L 0 1.375 L 0 2 L 0 4 L 0 4.5 L 0 5 L 1 5 L 1 4.5 L 6 4.5 A 0.5 0.5 0 0 0 6.5 5 A 0.5 0.5 0 0 0 7 4.5 L 7 4.4746094 L 7 2 L 7 1 L 1 1 L 1 0.5 A 0.5 0.5 0 0 0 0.5 0 z M 1 2 L 2 2 L 2 4 L 1 4 L 1 2 z M 2.5 2 L 4.5 2 L 4.5 4 L 2.5 4 L 2.5 2 z M 5 2 L 6.5 2 L 6.5 4 L 5 4 L 5 2 z " />
</svg>
