<?xml version="1.0" encoding="UTF-8" standalone="no"?>
<!-- Created with Inkscape (http://www.inkscape.org/) -->

<svg
   version="1.1"
   width="9"
   height="6"
   viewBox="0 0 9 6"
   id="svg2"
   xmlns="http://www.w3.org/2000/svg"
   xmlns:svg="http://www.w3.org/2000/svg">
  <defs
     id="defs1" />
  <rect
     width="9"
     height="6"
     x="0"
     y="0"
     id="canvas"
     style="visibility:hidden;fill:none;stroke:none" />
  <path
     id="rect121"
     style="fill:#000000"
     d="M 2.5,0 A 0.5,0.5 0 0 0 2,0.5 V 1 H 0 V 2 H 3 V 3 H 0 V 4 H 3 V 5.4882812 L 2,6 H 4 V 2 L 3,0 H 2.5253906 A 0.5,0.5 0 0 0 2.5,0 Z M 6,0 5,2 V 6 H 7 L 6,5.5 V 4 H 9 V 3 H 6 V 2 H 9 V 1 H 7 V 0.5 A 0.5,0.5 0 0 0 6.5,0 Z" />
</svg>
