<?xml version="1.0" encoding="UTF-8" standalone="no"?>
<!-- Created with Inkscape (http://www.inkscape.org/) -->

<svg
   version="1.1"
   width="11"
   height="5"
   viewBox="0 0 11 5"
   id="svg2"
   xmlns="http://www.w3.org/2000/svg"
   xmlns:svg="http://www.w3.org/2000/svg">
  <defs
     id="defs1" />
  <rect
     width="11"
     height="5"
     x="0"
     y="0"
     id="canvas"
     style="visibility:hidden;fill:none;stroke:none" />
  <path
     id="path154-9"
     style="fill:#000000"
     d="M 4.5 0 A 0.49999997 0.49999997 0 0 0 4 0.5 A 0.49999997 0.49999997 0 0 0 4.4707031 0.99804688 L 4.84375 1.7460938 A 1 0.99999994 0 0 0 4.5 2.5 A 1 0.99999994 0 0 0 4.5253906 2.7089844 L 3.7773438 3.0839844 A 0.49999997 0.49999997 0 0 0 3.5 3 A 0.49999997 0.49999997 0 0 0 3 3.5 A 0.49999997 0.49999997 0 0 0 3.5 4 A 0.49999997 0.49999997 0 0 0 3.9980469 3.5292969 L 4.7460938 3.15625 A 1 0.99999994 0 0 0 5.5 3.5 A 1 0.99999994 0 0 0 5.7089844 3.4746094 L 6.0839844 4.2246094 A 0.49999997 0.49999997 0 0 0 6 4.5 A 0.49999997 0.49999997 0 0 0 6.5 5 A 0.49999997 0.49999997 0 0 0 7 4.5 A 0.49999997 0.49999997 0 0 0 6.5292969 4 L 6.15625 3.2539062 A 1 0.99999994 0 0 0 6.5 2.5 A 1 0.99999994 0 0 0 6.4765625 2.2890625 L 7.2246094 1.9160156 A 0.49999997 0.49999997 0 0 0 7.5 2 A 0.49999997 0.49999997 0 0 0 8 1.5 A 0.49999997 0.49999997 0 0 0 7.5 1 A 0.49999997 0.49999997 0 0 0 7.0019531 1.4707031 L 6.2539062 1.84375 A 1 0.99999994 0 0 0 5.5 1.5 A 1 0.99999994 0 0 0 5.2910156 1.5253906 L 4.9160156 0.77539062 A 0.49999997 0.49999997 0 0 0 5 0.5 A 0.49999997 0.49999997 0 0 0 4.5 0 z M 1.5 1.75 A 0.75 0.75 0 0 0 0.94335938 2 L 0 2 L 0 3 L 0.94335938 3 A 0.75 0.75 0 0 0 1.5 3.25 A 0.75 0.75 0 0 0 2.25 2.5 A 0.75 0.75 0 0 0 1.5 1.75 z M 9.5 1.75 A 0.75 0.75 0 0 0 8.75 2.5 A 0.75 0.75 0 0 0 9.5 3.25 A 0.75 0.75 0 0 0 10.056641 3 L 11 3 L 11 2 L 10.060547 2 A 0.75 0.75 0 0 0 9.5 1.75 z " />
</svg>
