<?xml version="1.0" encoding="UTF-8" standalone="no"?>
<!-- Created with Inkscape (http://www.inkscape.org/) -->

<svg
   version="1.1"
   width="12"
   height="6"
   viewBox="0 0 12 6"
   id="svg2"
   xmlns="http://www.w3.org/2000/svg"
   xmlns:svg="http://www.w3.org/2000/svg">
  <defs
     id="defs1" />
  <rect
     width="12"
     height="6"
     x="0"
     y="0"
     id="canvas"
     style="visibility:hidden;fill:none;stroke:none" />
  <path
     id="path154-9-6"
     style="fill:#000000"
     d="M 4.5 0 A 0.49999997 0.49999997 0 0 0 4 0.5 A 0.49999997 0.49999997 0 0 0 4.3828125 0.984375 L 5.1503906 2.2636719 A 1.125 1.1249999 0 0 0 4.875 3 A 1.125 1.1249999 0 0 0 4.90625 3.2480469 L 3.625 4.015625 A 0.49999997 0.49999997 0 0 0 3.5 4 A 0.49999997 0.49999997 0 0 0 3 4.5 A 0.49999997 0.49999997 0 0 0 3.5 5 A 0.49999997 0.49999997 0 0 0 3.984375 4.6171875 L 5.2636719 3.8496094 A 1.125 1.1249999 0 0 0 6 4.125 A 1.125 1.1249999 0 0 0 6.2480469 4.09375 L 7.015625 5.375 A 0.49999997 0.49999997 0 0 0 7 5.5 A 0.49999997 0.49999997 0 0 0 7.5 6 A 0.49999997 0.49999997 0 0 0 8 5.5 A 0.49999997 0.49999997 0 0 0 7.6171875 5.015625 L 6.8496094 3.7363281 A 1.125 1.1249999 0 0 0 7.125 3 A 1.125 1.1249999 0 0 0 7.0976562 2.75 L 8.375 1.984375 A 0.49999997 0.49999997 0 0 0 8.5 2 A 0.49999997 0.49999997 0 0 0 9 1.5 A 0.49999997 0.49999997 0 0 0 8.5 1 A 0.49999997 0.49999997 0 0 0 8.015625 1.3828125 L 6.7363281 2.1503906 A 1.125 1.1249999 0 0 0 6 1.875 A 1.125 1.1249999 0 0 0 5.7519531 1.90625 L 4.984375 0.625 A 0.49999997 0.49999997 0 0 0 5 0.5 A 0.49999997 0.49999997 0 0 0 4.5 0 z M 0 2.25 L 0 3.75 L 2 3.75 A 0.75 0.75 0 0 0 2.75 3 A 0.75 0.75 0 0 0 2 2.25 L 0 2.25 z M 10 2.25 A 0.75 0.75 0 0 0 9.25 3 A 0.75 0.75 0 0 0 10 3.75 L 12 3.75 L 12 2.25 L 10.037109 2.25 A 0.75 0.75 0 0 0 10 2.25 z " />
</svg>
