<?xml version="1.0" encoding="UTF-8" standalone="no"?>
<!-- Created with Inkscape (http://www.inkscape.org/) -->

<svg
   version="1.1"
   width="5"
   height="5"
   viewBox="0 0 5 5"
   id="svg2"
   xmlns="http://www.w3.org/2000/svg"
   xmlns:svg="http://www.w3.org/2000/svg">
  <defs
     id="defs1" />
  <rect
     width="5"
     height="5"
     x="0"
     y="0"
     id="canvas"
     style="visibility:hidden;fill:none;stroke:none" />
  <path
     id="path2-64-9-9-8"
     style="fill:#000000"
     d="M 1 0 L 1 1 L 1.984375 2.5 L 1 4 L 1 5 L 1.375 5 L 2.5 3.2851562 L 3.625 5 L 4 5 L 4 4 L 3.015625 2.5 L 4 1 L 4 0 L 3.625 0 L 2.5 1.7148438 L 1.375 0 L 1 0 z M 0 1 L 0 2 L 0.5 2 L 0.5 1 L 0 1 z M 4.5 1 L 4.5 2 L 5 2 L 5 1 L 4.5 1 z M 0 3 L 0 4 L 0.5 4 L 0.5 3 L 0 3 z M 4.5 3 L 4.5 4 L 5 4 L 5 3 L 4.5 3 z " />
</svg>
