<?xml version="1.0" encoding="UTF-8" standalone="no"?>
<svg
   version="1.1"
   id="svg109"
   width="8"
   height="15"
   viewBox="0 0 8 15"
   xmlns="http://www.w3.org/2000/svg"
   xmlns:svg="http://www.w3.org/2000/svg">
  <defs
     id="defs1" />
  <rect
     width="8"
     height="15"
     x="0"
     y="0"
     id="canvas"
     style="visibility:hidden;fill:none;stroke:none" />
  <path
     id="path53-0-2-3"
     style="fill:#000000"
     d="M 4 0 L 0.25 3 L 0.25 15 L 1 15 L 1 14.5 L 4 12.9375 L 7 14.5 L 7 15 L 7.75 15 L 7.75 3 L 4 0 z M 1 4 L 7 4 L 7 10.875 L 4 12.4375 L 1 10.875 L 1 4 z M 3.6757812 5 C 2.3391326 5.977089 2.7523945 6.4367105 2.296875 8.1367188 C 2.2074751 8.2261187 1.7285156 8.5112865 1.7285156 8.7851562 L 1.7285156 9 L 6.2714844 9 L 6.2714844 8.7851562 C 6.2774844 8.5112865 5.7514193 8.2260087 5.6621094 8.1367188 C 5.2137998 6.4636104 5.5999075 5.7494293 4.3242188 5 L 3.6757812 5 z M 4 9.3535156 C 3.5503304 9.3531956 3.1856169 9.7214117 3.1855469 10.175781 C 3.1845469 10.630911 3.5495705 11.00032 4 11 C 4.4504295 11.00032 4.8154631 10.630911 4.8144531 10.175781 C 4.8143831 9.7214117 4.4496696 9.3531956 4 9.3535156 z M 1 11.375 L 3.5195312 12.6875 L 1 14 L 1 11.375 z M 7 11.375 L 7 14 L 4.4804688 12.6875 L 7 11.375 z " />
</svg>
