<?xml version="1.0" encoding="UTF-8" standalone="no"?>
<svg
   version="1.1"
   id="svg109"
   width="14"
   height="14"
   viewBox="0 0 14 14"
   xmlns="http://www.w3.org/2000/svg"
   xmlns:svg="http://www.w3.org/2000/svg"
   xmlns:rdf="http://www.w3.org/1999/02/22-rdf-syntax-ns#"
   xmlns:cc="http://creativecommons.org/ns#"
   xmlns:dc="http://purl.org/dc/elements/1.1/">
  <rect
     width="14"
     height="14"
     x="0"
     y="0"
     id="canvas"
     style="fill:none;stroke:none;visibility:hidden" />
  <path
     id="rect4517"
     style="fill:#000000"
     d="M 7 0 L 3.3085938 3.0273438 L 3.3125 3.0273438 L 3.3125 14 L 4.0761719 14 L 4.0761719 6.3242188 L 4.078125 6.3242188 A 2.9232516 2.9538028 0 0 1 7 3.3925781 A 2.9232516 2.9538028 0 0 1 9.9238281 6.3242188 L 9.9238281 14 L 10.6875 14 L 10.6875 3.0273438 L 10.691406 3.0273438 L 7 0 z M 6.6367188 4.6542969 C 5.1421302 5.7468432 5.605046 6.2612159 5.0957031 8.1621094 C 4.9958472 8.2619653 4.4609375 8.5804955 4.4609375 8.8867188 L 4.4609375 9.1269531 L 9.5390625 9.1269531 L 9.5390625 8.8867188 C 9.5457525 8.5804953 8.9592304 8.261965 8.859375 8.1621094 C 8.3580896 6.2912869 8.7896306 5.4922771 7.3632812 4.6542969 L 6.6367188 4.6542969 z M 7 9.5058594 A 0.81387663 0.82238251 0 0 0 6.1855469 10.328125 A 0.81387663 0.82238251 0 0 0 7 11.152344 A 0.81387663 0.82238251 0 0 0 7.8144531 10.328125 A 0.81387663 0.82238251 0 0 0 7 9.5058594 z " />
</svg>
