<?xml version="1.0" encoding="UTF-8" standalone="no"?>
<svg
   version="1.1"
   id="svg109"
   width="8"
   height="14"
   viewBox="0 0 8 14"
   xmlns="http://www.w3.org/2000/svg"
   xmlns:svg="http://www.w3.org/2000/svg">
  <defs
     id="defs1" />
  <rect
     width="8"
     height="14"
     x="0"
     y="0"
     id="canvas"
     style="visibility:hidden;fill:none;stroke:none" />
  <path
     id="path53-0-2-9"
     style="fill:#000000"
     d="M 4 0 L 0.25 3.125 L 0.25 14 L 1 14 L 1 13.5 L 4 11.9375 L 7 13.5 L 7 14 L 7.75 14 L 7.75 3.125 L 4 0 z M 4 1.125 L 7 3.625 L 7 9.875 L 4 11.4375 L 1 9.875 L 1 3.625 L 4 1.125 z M 3.6757812 3 C 2.3391326 3.977089 2.7523945 4.4367105 2.296875 6.1367188 C 2.2074751 6.2261187 1.7285156 6.5112865 1.7285156 6.7851562 L 1.7285156 7 L 6.2714844 7 L 6.2714844 6.7851562 C 6.2774844 6.5112865 5.7514193 6.2260087 5.6621094 6.1367188 C 5.2137998 4.4636104 5.5999075 3.7494293 4.3242188 3 L 3.6757812 3 z M 4 7.3535156 C 3.5503304 7.3531956 3.1856169 7.7214117 3.1855469 8.1757812 C 3.1845469 8.6309108 3.5495705 9.00032 4 9 C 4.4504295 9.00032 4.8154631 8.6309108 4.8144531 8.1757812 C 4.8143831 7.7214117 4.4496696 7.3531956 4 7.3535156 z M 1 10.375 L 3.5195312 11.6875 L 1 13 L 1 10.375 z M 7 10.375 L 7 13 L 4.4804688 11.6875 L 7 10.375 z " />
</svg>
