<?xml version="1.0" encoding="UTF-8" standalone="no"?>
<svg
   version="1.1"
   id="svg109"
   width="8"
   height="14"
   viewBox="0 0 8 14"
   xmlns="http://www.w3.org/2000/svg"
   xmlns:svg="http://www.w3.org/2000/svg">
  <defs
     id="defs1" />
  <rect
     width="8"
     height="14"
     x="0"
     y="0"
     id="canvas"
     style="visibility:hidden;fill:none;stroke:none" />
  <path
     id="path53-0-2-3-9-3-5"
     style="fill:#000000"
     d="M 0 1 L 0 3 L 0.25 3 L 0.25 14 L 1 14 L 1 3 L 4 3 L 7 3 L 7 14 L 7.75 14 L 7.75 3 L 8 3 L 8 1 L 0 1 z M 3.6757812 4 C 2.3391326 4.977089 2.7523945 5.4367105 2.296875 7.1367188 C 2.2074751 7.2261187 1.7285156 7.5112865 1.7285156 7.7851562 L 1.7285156 8 L 6.2714844 8 L 6.2714844 7.7851562 C 6.2774844 7.5112865 5.7514193 7.2260087 5.6621094 7.1367188 C 5.2137998 5.4636104 5.5999075 4.7494293 4.3242188 4 L 3.6757812 4 z M 4 8.3535156 C 3.5503304 8.3531956 3.1856169 8.7214117 3.1855469 9.1757812 C 3.1845469 9.6309108 3.5495705 10.00032 4 10 C 4.4504295 10.00032 4.8154631 9.6309108 4.8144531 9.1757812 C 4.8143831 8.7214117 4.4496696 8.3531956 4 8.3535156 z " />
</svg>
