<?xml version="1.0" encoding="UTF-8" standalone="no"?>
<svg
   id="svg2"
   viewBox="0 0 14 14"
   height="14"
   width="14"
   version="1.1"
   xmlns="http://www.w3.org/2000/svg"
   xmlns:svg="http://www.w3.org/2000/svg">
  <defs
     id="defs1" />
  <rect
     style="visibility:hidden;fill:none;stroke:none"
     id="canvas"
     y="0"
     x="0"
     height="14"
     width="14" />
  <path
     id="path1-31-3"
     style="fill:#000000"
     d="M 7 0 L 4 1.5 C 3.534952 2.999994 3.534952 4.000008 4 6 L 5 6 L 4 14 L 10 14 L 9 6 L 10 6 C 10.530176 4.000008 10.530176 2.999994 10 1.5 L 7 0 z M 0.8046875 1.4472656 C 0.77434381 1.4476031 0.74662494 1.4547 0.71875 1.46875 C 0.55148034 1.5529498 0.48938046 1.8450302 0.71875 1.9375 L 2.59375 2.6875 C 2.9001794 2.8110398 3.0870694 2.3420498 2.78125 2.21875 L 0.90625 1.46875 C 0.86800008 1.45335 0.83503119 1.4469281 0.8046875 1.4472656 z M 13.175781 1.4492188 C 13.149499 1.4511434 13.122421 1.4571906 13.09375 1.46875 L 11.21875 2.21875 C 10.91292 2.3420498 11.09982 2.8110398 11.40625 2.6875 L 13.28125 1.9375 C 13.558399 1.8257596 13.429838 1.4306131 13.175781 1.4492188 z M 4.5 2 L 9.5 2 C 9.7590788 2.999996 9.7590788 4.000004 9.5 5 L 4.5 5 C 4.4109304 4.6562211 4.3540007 4.3125303 4.3261719 3.96875 A 0.5 0.5 0 0 0 4.5 4 A 0.5 0.5 0 0 0 5 3.5 A 0.5 0.5 0 0 0 4.5 3 A 0.5 0.5 0 0 0 4.3261719 3.03125 C 4.3540007 2.6874697 4.4109304 2.3437789 4.5 2 z M 6.5 3 A 0.5 0.5 0 0 0 6 3.5 A 0.5 0.5 0 0 0 6.5 4 A 0.5 0.5 0 0 0 7 3.5 A 0.5 0.5 0 0 0 6.5 3 z M 8.5 3 A 0.5 0.5 0 0 0 8 3.5 A 0.5 0.5 0 0 0 8.5 4 A 0.5 0.5 0 0 0 9 3.5 A 0.5 0.5 0 0 0 8.5 3 z M 0.75 3.25 C 0.42025066 3.25 0.42025066 3.75 0.75 3.75 L 2.75 3.75 C 3.0803894 3.75 3.0797394 3.25 2.75 3.25 L 0.75 3.25 z M 11.25 3.25 C 10.92026 3.25 10.9196 3.75 11.25 3.75 L 13.25 3.75 C 13.57974 3.75 13.57974 3.25 13.25 3.25 L 11.25 3.25 z M 11.304688 4.3535156 C 11.274344 4.3538531 11.246625 4.36095 11.21875 4.375 C 11.05148 4.4591998 10.98938 4.7512802 11.21875 4.84375 L 13.09375 5.59375 C 13.40018 5.7172898 13.58707 5.2482998 13.28125 5.125 L 11.40625 4.375 C 11.368 4.3596 11.33503 4.3531781 11.304688 4.3535156 z M 2.6757812 4.3554688 C 2.6494996 4.3573934 2.6224206 4.3634406 2.59375 4.375 L 0.71875 5.125 C 0.41292062 5.2482998 0.59982062 5.7172898 0.90625 5.59375 L 2.78125 4.84375 C 3.0583988 4.7320096 2.9298381 4.3368631 2.6757812 4.3554688 z M 6 6 L 8 6 L 8.0351562 6.25 L 7 6.25 L 7 6.875 L 8.125 6.875 L 8.1777344 7.25 L 7.125 7.25 L 7.125 7.875 L 8.2675781 7.875 L 8.3203125 8.25 L 7.25 8.25 L 7.25 8.875 L 8.4101562 8.875 L 8.4628906 9.25 L 7.375 9.25 L 7.375 9.875 L 8.5527344 9.875 L 8.6054688 10.25 L 7.375 10.25 L 7.375 10.875 L 8.6953125 10.875 L 8.75 11.25 L 7.375 11.25 L 7.375 11.875 L 8.8378906 11.875 L 8.8925781 12.25 L 7.375 12.25 L 7.375 12.875 L 8.9824219 12.875 L 9 13 L 5 13 L 6 6 z " />
</svg>
