<?xml version="1.0" encoding="UTF-8" standalone="no"?>
<svg
   id="svg2"
   viewBox="0 0 14 14"
   height="14"
   width="14"
   version="1.1"
   xmlns="http://www.w3.org/2000/svg"
   xmlns:svg="http://www.w3.org/2000/svg">
  <defs
     id="defs1" />
  <rect
     style="visibility:hidden;fill:none;stroke:none"
     id="canvas"
     y="0"
     x="0"
     height="14"
     width="14" />
  <path
     id="path1-31-3"
     style="fill:#000000"
     d="M 7 0 L 4 1.5 C 3.5349515 2.9999955 3.5349515 4.000006 4 6 L 5 6 L 4 14 L 10 14 L 9 6 L 10 6 C 10.530177 4.000006 10.530177 2.9999955 10 1.5 L 7 0 z M 0.8046875 1.4472656 C 0.77434378 1.4476031 0.74662497 1.4547 0.71875 1.46875 C 0.55148017 1.5529499 0.48938023 1.8450301 0.71875 1.9375 L 2.59375 2.6875 C 2.9001797 2.8110399 3.0870697 2.3420499 2.78125 2.21875 L 0.90625 1.46875 C 0.86800004 1.45335 0.83503122 1.4469281 0.8046875 1.4472656 z M 13.175781 1.4492188 C 13.149499 1.4511435 13.122421 1.4571906 13.09375 1.46875 L 11.21875 2.21875 C 10.91292 2.3420499 11.09982 2.8110399 11.40625 2.6875 L 13.28125 1.9375 C 13.558399 1.8257595 13.429838 1.4306131 13.175781 1.4492188 z M 4.5 2 L 9.5 2 C 9.7590791 2.999997 9.7590791 4.000003 9.5 5 L 4.5 5 C 4.2409109 4.000003 4.2409109 2.999997 4.5 2 z M 0.75 3.25 C 0.42025033 3.25 0.42025033 3.75 0.75 3.75 L 2.75 3.75 C 3.0803897 3.75 3.0797397 3.25 2.75 3.25 L 0.75 3.25 z M 11.25 3.25 C 10.92026 3.25 10.9196 3.75 11.25 3.75 L 13.25 3.75 C 13.57974 3.75 13.57974 3.25 13.25 3.25 L 11.25 3.25 z M 11.304688 4.3535156 C 11.274344 4.3538531 11.246625 4.36095 11.21875 4.375 C 11.05148 4.4591999 10.98938 4.7512801 11.21875 4.84375 L 13.09375 5.59375 C 13.40018 5.7172899 13.58707 5.2482999 13.28125 5.125 L 11.40625 4.375 C 11.368 4.3596 11.335031 4.3531781 11.304688 4.3535156 z M 2.6757812 4.3554688 C 2.6494995 4.3573935 2.6224206 4.3634406 2.59375 4.375 L 0.71875 5.125 C 0.41292031 5.2482999 0.59982031 5.7172899 0.90625 5.59375 L 2.78125 4.84375 C 3.0583991 4.7320095 2.9298383 4.3368631 2.6757812 4.3554688 z M 6 6 L 8 6 L 8.0351562 6.25 L 7 6.25 L 7 6.875 L 8.125 6.875 L 8.1777344 7.25 L 7.125 7.25 L 7.125 7.875 L 8.2675781 7.875 L 8.3203125 8.25 L 7.25 8.25 L 7.25 8.875 L 8.4101562 8.875 L 8.4628906 9.25 L 7.375 9.25 L 7.375 9.875 L 8.5527344 9.875 L 8.6054688 10.25 L 7.375 10.25 L 7.375 10.875 L 8.6953125 10.875 L 8.75 11.25 L 7.375 11.25 L 7.375 11.875 L 8.8378906 11.875 L 8.8925781 12.25 L 7.375 12.25 L 7.375 12.875 L 8.9824219 12.875 L 9 13 L 5 13 L 6 6 z " />
</svg>
