<?xml version="1.0" encoding="UTF-8" standalone="no"?>
<svg
   id="svg2"
   viewBox="0 0 14 14"
   height="14"
   width="14"
   version="1.1"
   xmlns="http://www.w3.org/2000/svg"
   xmlns:svg="http://www.w3.org/2000/svg">
  <defs
     id="defs1" />
  <rect
     style="visibility:hidden;fill:none;stroke:none"
     id="canvas"
     y="0"
     x="0"
     height="14"
     width="14" />
  <path
     id="path1-31-3"
     style="fill:#000000"
     d="M 7 0 L 4 1.5 C 3.534951 2.999997 3.534951 4.000004 4 6 L 5 6 L 4 14 L 10 14 L 9 6 L 10 6 C 10.530178 4.000004 10.530178 2.999997 10 1.5 L 7 0 z M 4.5 2 L 9.5 2 C 9.7590794 2.999998 9.7590794 4.000002 9.5 5 L 4.5 5 C 4.2409106 4.000002 4.2409106 2.999998 4.5 2 z M 6 6 L 8 6 L 8.0351562 6.25 L 7 6.25 L 7 6.875 L 8.125 6.875 L 8.1777344 7.25 L 7.125 7.25 L 7.125 7.875 L 8.2675781 7.875 L 8.3203125 8.25 L 7.25 8.25 L 7.25 8.875 L 8.4101562 8.875 L 8.4628906 9.25 L 7.375 9.25 L 7.375 9.875 L 8.5527344 9.875 L 8.6054688 10.25 L 7.375 10.25 L 7.375 10.875 L 8.6953125 10.875 L 8.75 11.25 L 7.375 11.25 L 7.375 11.875 L 8.8378906 11.875 L 8.8925781 12.25 L 7.375 12.25 L 7.375 12.875 L 8.9824219 12.875 L 9 13 L 5 13 L 6 6 z " />
</svg>
