<?xml version="1.0" encoding="UTF-8" standalone="no"?>
<svg
   version="1.1"
   width="13"
   height="14"
   viewBox="0 0 13 14"
   id="svg4138"
   xmlns="http://www.w3.org/2000/svg"
   xmlns:svg="http://www.w3.org/2000/svg">
  <defs
     id="defs1" />
  <rect
     width="13"
     height="14"
     x="0"
     y="0"
     id="canvas"
     style="visibility:hidden;fill:none;stroke:none" />
  <path
     id="rect102-1-9-3-2-5"
     style="fill:#000000"
     d="M 6.625 0.984375 L 5 1.984375 L 5 12.984375 L 4 12.984375 L 4 13.984375 L 9 13.984375 L 9 12.984375 L 8 12.984375 L 8 1.984375 L 6.625 0.984375 z M 3 1.390625 C 1.386585 2.102111 0.19562607 3.6369847 0 5.4570312 L 0 6.5117188 C 0.19562607 8.3317653 1.386585 9.866639 3 10.578125 L 3 9.421875 C 1.8044724 8.7310864 1 7.472522 1 5.984375 C 1 4.496228 1.8044724 3.2376636 3 2.546875 L 3 1.390625 z M 10 1.390625 L 10 2.546875 C 11.195528 3.2376636 12 4.496228 12 5.984375 C 12 7.472522 11.195528 8.7310864 10 9.421875 L 10 10.578125 C 11.613415 9.866639 12.804374 8.3317653 13 6.5117188 L 13 5.4570312 C 12.804374 3.6369847 11.613415 2.102111 10 1.390625 z M 6.625 1.484375 L 7.375 1.984375 L 5.625 3.734375 L 5.625 1.984375 L 6.625 1.484375 z M 4 3.171875 C 2.8429524 3.5887342 2 4.6877076 2 5.984375 C 2 7.2810424 2.8429524 8.3800158 4 8.796875 L 4 7.703125 C 3.4030812 7.3584056 3 6.7279436 3 5.984375 C 3 5.2408064 3.4030812 4.6103444 4 4.265625 L 4 3.171875 z M 9 3.171875 L 9 4.265625 C 9.5969188 4.6103444 10 5.2408064 10 5.984375 C 10 6.7279436 9.5969188 7.3584056 9 7.703125 L 9 8.796875 C 10.157048 8.3800158 11 7.2810424 11 5.984375 C 11 4.6877076 10.157048 3.5887342 9 3.171875 z M 7.375 3.234375 L 7.375 6.734375 L 5.625 4.984375 L 7.375 3.234375 z M 5.625 6.234375 L 7.375 7.984375 L 5.625 9.734375 L 5.625 6.234375 z M 7.375 9.234375 L 7.375 12.234375 L 5.625 10.984375 L 7.375 9.234375 z M 5.625 11.984375 L 7.0253906 12.984375 L 5.625 12.984375 L 5.625 11.984375 z " />
</svg>
