<?xml version="1.0" encoding="UTF-8" standalone="no"?>
<svg
   version="1.1"
   width="13"
   height="14"
   viewBox="0 0 13 14"
   id="svg4138"
   xmlns="http://www.w3.org/2000/svg"
   xmlns:svg="http://www.w3.org/2000/svg">
  <defs
     id="defs1" />
  <rect
     width="13"
     height="14"
     x="0"
     y="0"
     id="canvas"
     style="visibility:hidden;fill:none;stroke:none" />
  <path
     id="rect102-1-0-1-7-4-4-3-1-3"
     style="fill:#000000"
     d="M 6.625 0 L 5 1 L 5 6.75 L 0.625 14 L 1.375 14 L 5 7.875 L 5 13.625 L 5 14 L 8 14 L 8 13.5 L 8 7.875 L 11.625 14 L 12.375 14 L 8 6.75 L 8 1 L 6.625 0 z M 6.625 0.5 L 7.375 1 L 5.625 2.75 L 5.625 1 L 6.625 0.5 z M 2.0234375 1.2070312 A 0.25 0.25 0 0 0 1.7695312 1.375 A 0.25 0.25 0 0 0 1.9238281 1.6933594 L 4.0488281 2.4277344 A 0.25 0.25 0 0 0 4.3671875 2.2734375 A 0.25 0.25 0 0 0 4.2128906 1.9550781 L 2.0859375 1.2207031 A 0.25 0.25 0 0 0 2.0234375 1.2070312 z M 10.976562 1.2070312 A 0.25 0.25 0 0 0 10.914062 1.2207031 L 8.7871094 1.9550781 A 0.25 0.25 0 0 0 8.6328125 2.2734375 A 0.25 0.25 0 0 0 8.9511719 2.4277344 L 11.076172 1.6933594 A 0.25 0.25 0 0 0 11.230469 1.375 A 0.25 0.25 0 0 0 10.976562 1.2070312 z M 7.375 2.25 L 7.375 5.75 L 5.625 4 L 7.375 2.25 z M 1.6621094 3.25 A 0.25 0.25 0 0 0 1.4121094 3.5 A 0.25 0.25 0 0 0 1.6621094 3.75 L 3.9121094 3.75 A 0.25 0.25 0 0 0 4.1621094 3.5 A 0.25 0.25 0 0 0 3.9121094 3.25 L 1.6621094 3.25 z M 9.0878906 3.25 A 0.25 0.25 0 0 0 8.8378906 3.5 A 0.25 0.25 0 0 0 9.0878906 3.75 L 11.337891 3.75 A 0.25 0.25 0 0 0 11.587891 3.5 A 0.25 0.25 0 0 0 11.337891 3.25 L 9.0878906 3.25 z M 4.1132812 4.5585938 A 0.25 0.25 0 0 0 4.0488281 4.5722656 L 1.9238281 5.3066406 A 0.25 0.25 0 0 0 1.7695312 5.625 A 0.25 0.25 0 0 0 2.0859375 5.7792969 L 4.2128906 5.0429688 A 0.25 0.25 0 0 0 4.3671875 4.7265625 A 0.25 0.25 0 0 0 4.1132812 4.5585938 z M 8.8867188 4.5585938 A 0.25 0.25 0 0 0 8.6328125 4.7265625 A 0.25 0.25 0 0 0 8.7871094 5.0449219 L 10.914062 5.7792969 A 0.25 0.25 0 0 0 11.230469 5.625 A 0.25 0.25 0 0 0 11.076172 5.3066406 L 8.9511719 4.5722656 A 0.25 0.25 0 0 0 8.8867188 4.5585938 z M 5.625 5.25 L 7.375 7 L 5.625 8.75 L 5.625 5.25 z M 7.375 8.25 L 7.375 11.75 L 5.625 10 L 7.375 8.25 z M 5.625 11.25 L 7.375 13 L 7.375 13.5 L 5.625 13.5 L 5.625 11.25 z " />
</svg>
