<?xml version="1.0" encoding="UTF-8" standalone="no"?>
<svg
   version="1.1"
   width="13"
   height="14"
   viewBox="0 0 13 14"
   id="svg2"
   xmlns="http://www.w3.org/2000/svg"
   xmlns:svg="http://www.w3.org/2000/svg">
  <defs
     id="defs1" />
  <rect
     width="13"
     height="14"
     x="0"
     y="0"
     id="canvas"
     style="visibility:hidden;fill:none;stroke:none" />
  <path
     id="rect1"
     style="fill:#000000"
     d="M 1.4414062 0.4765625 C 0.6590405 1.2604406 0.12952792 2.2971105 0 3.4492188 L 0 4.5507812 C 0.12952792 5.7028895 0.6590405 6.7395594 1.4414062 7.5234375 L 2.2265625 6.8574219 C 1.4714541 6.1392733 1 5.1372278 1 4 C 1 2.8627722 1.4714541 1.8607267 2.2265625 1.1425781 L 1.4414062 0.4765625 z M 11.558594 0.4765625 L 10.773438 1.1425781 C 11.528546 1.8607267 12 2.8627722 12 4 C 12 5.1372278 11.528546 6.1392733 10.773438 6.8574219 L 11.558594 7.5234375 C 12.340959 6.7395594 12.870472 5.7028895 13 4.5507812 L 13 3.4492188 C 12.87047 2.2971105 12.340951 1.2604406 11.558594 0.4765625 z M 2.9921875 1.7929688 C 2.3857387 2.3391476 2 3.1239518 2 4 C 2 4.8760482 2.3857387 5.6608524 2.9921875 6.2070312 L 3.7597656 5.5546875 C 3.2977766 5.1922983 3 4.6385288 3 4 C 3 3.3614712 3.2977766 2.8077017 3.7597656 2.4453125 L 2.9921875 1.7929688 z M 10.007812 1.7929688 L 9.2402344 2.4453125 C 9.7022234 2.8077017 10 3.3614712 10 4 C 10 4.6385288 9.7022234 5.1922983 9.2402344 5.5546875 L 10.007812 6.2070312 C 10.614262 5.6608524 11 4.8760482 11 4 C 11 3.1239518 10.614262 2.3391476 10.007812 1.7929688 z M 4.5 3 L 4.5 4.5 L 6.125 4.5 L 6.125 5.25 L 5 6 L 5 7.75 L 0.625 14 L 1.375 14 L 5 8.875 L 5 13.625 L 5 14 L 8 14 L 8 13.5 L 8 8.875 L 11.625 14 L 12.375 14 L 8 7.75 L 8 6 L 6.875 5.25 L 6.875 4.5 L 8.5 4.5 L 8.5 3 L 4.5 3 z M 6.5 5.5 L 7.375 6 L 7.375 6.5 L 5.625 8.25 L 5.625 6 L 6.5 5.5 z M 7.375 7.75 L 7.375 11.25 L 5.625 9.5 L 7.375 7.75 z M 5.625 10.75 L 7.375 12.5 L 7.375 13.5 L 5.625 13.5 L 5.625 10.75 z " />
</svg>
