<?xml version="1.0" encoding="UTF-8" standalone="no"?>
<svg
   version="1.1"
   width="13"
   height="14"
   viewBox="0 0 13 14"
   id="svg4138"
   xmlns="http://www.w3.org/2000/svg"
   xmlns:svg="http://www.w3.org/2000/svg">
  <defs
     id="defs1" />
  <rect
     width="13"
     height="14"
     x="0"
     y="0"
     id="canvas"
     style="visibility:hidden;fill:none;stroke:none" />
  <path
     id="rect102-1-0-1-7-4-4-3-1"
     style="fill:#000000"
     d="M 6.625 0 L 5 1 L 5 3 L 3.75 3 C 2.5000012 3 1.8749991 1.999999 1 1 L 1 3.5 L 1 6 C 1.8749991 4.999991 2.5000012 4 3.75 4 L 5 4 L 5 6.75 L 0.625 14 L 1.375 14 L 5 7.875 L 5 13.625 L 5 14 L 8 14 L 8 13.5 L 8 7.875 L 11.625 14 L 12.375 14 L 8 6.75 L 8 4 L 9.25 4 C 10.499999 4 11.125001 4.999991 12 6 L 12 3.5 L 12 1 C 11.125001 1.999999 10.499999 3 9.25 3 L 8 3 L 8 1 L 6.625 0 z M 6.625 0.5 L 7.375 1 L 5.625 2.75 L 5.625 1 L 6.625 0.5 z M 7.375 2.25 L 7.375 5.75 L 5.625 4 L 7.375 2.25 z M 5.625 5.25 L 7.375 7 L 5.625 8.75 L 5.625 5.25 z M 7.375 8.25 L 7.375 11.75 L 5.625 10 L 7.375 8.25 z M 5.625 11.25 L 7.375 13 L 7.375 13.5 L 5.625 13.5 L 5.625 11.25 z " />
</svg>
