<?xml version="1.0" encoding="UTF-8" standalone="no"?>
<svg
   version="1.1"
   width="14"
   height="14"
   viewBox="0 0 14 14"
   id="svg4138"
   xmlns="http://www.w3.org/2000/svg"
   xmlns:svg="http://www.w3.org/2000/svg">
  <defs
     id="defs1" />
  <rect
     width="14"
     height="14"
     x="0"
     y="0"
     id="canvas"
     style="fill:none;stroke:none;visibility:hidden" />
  <path
     id="path1-6-3-8-5"
     style="fill:#000000"
     d="M 7 0 C 6.4022076 0 6 0.46922053 6 1 L 6 8 L 1.625 14 L 2.375 14 L 6 9.125 L 6 14 L 8 14 L 8 9.125 L 11.625 14 L 12.375 14 L 8 8 L 8 1 C 8 0.5039105 7.5977914 0 7 0 z M 4 0.40625 C 2.2327618 1.1855692 0.96875 2.952102 0.96875 5 C 0.96875 7.047898 2.2327618 8.8144308 4 9.59375 L 4 8.4375 C 2.8044712 7.7467107 2 6.4881485 2 5 C 2 3.5118515 2.8044712 2.2532893 4 1.5625 L 4 0.40625 z M 10 0.40625 L 10 1.5625 C 11.195529 2.2532893 12 3.5118515 12 5 C 12 6.4881485 11.195529 7.7467107 10 8.4375 L 10 9.59375 C 11.767238 8.8144308 13.03125 7.047898 13.03125 5 C 13.03125 2.952102 11.767238 1.1855692 10 0.40625 z M 5 2.1875 C 3.8429552 2.6043596 3 3.7033313 3 5 C 3 6.2966687 3.8429552 7.3956404 5 7.8125 L 5 6.71875 C 4.4030816 6.3740303 4 5.7435693 4 5 C 4 4.2564307 4.4030816 3.6259697 5 3.28125 L 5 2.1875 z M 9 2.1875 L 9 3.28125 C 9.5969184 3.6259697 10 4.2564307 10 5 C 10 5.7435693 9.5969184 6.3740303 9 6.71875 L 9 7.8125 C 10.157045 7.3956404 11 6.2966687 11 5 C 11 3.7033313 10.157045 2.6043596 9 2.1875 z " />
</svg>
