<?xml version="1.0" encoding="UTF-8" standalone="no"?>
<svg
   version="1.1"
   width="14"
   height="14"
   viewBox="0 0 14 14"
   id="svg4138"
   xmlns="http://www.w3.org/2000/svg"
   xmlns:svg="http://www.w3.org/2000/svg">
  <defs
     id="defs1" />
  <rect
     width="14"
     height="14"
     x="0"
     y="0"
     id="canvas"
     style="fill:none;stroke:none;visibility:hidden" />
  <path
     id="path1-77-8-0-7"
     style="fill:#000000"
     d="M 7 1 C 6.4022076 1 6 1.4692205 6 2 L 6 12 L 5 12 L 5 13 L 9 13 L 9 12 L 8 12 L 8 2 C 8 1.5039105 7.5977914 1 7 1 z M 3.0234375 2.2070312 A 0.25 0.25 0 0 0 2.7695312 2.375 A 0.25 0.25 0 0 0 2.9238281 2.6933594 L 5.0488281 3.4277344 A 0.25 0.25 0 0 0 5.3671875 3.2734375 A 0.25 0.25 0 0 0 5.2128906 2.9550781 L 3.0859375 2.2207031 A 0.25 0.25 0 0 0 3.0234375 2.2070312 z M 10.976562 2.2070312 A 0.25 0.25 0 0 0 10.914062 2.2207031 L 8.7871094 2.9550781 A 0.25 0.25 0 0 0 8.6328125 3.2734375 A 0.25 0.25 0 0 0 8.9511719 3.4277344 L 11.076172 2.6933594 A 0.25 0.25 0 0 0 11.230469 2.375 A 0.25 0.25 0 0 0 10.976562 2.2070312 z M 2.6621094 4.25 A 0.25 0.25 0 0 0 2.4121094 4.5 A 0.25 0.25 0 0 0 2.6621094 4.75 L 4.9121094 4.75 A 0.25 0.25 0 0 0 5.1621094 4.5 A 0.25 0.25 0 0 0 4.9121094 4.25 L 2.6621094 4.25 z M 9.0878906 4.25 A 0.25 0.25 0 0 0 8.8378906 4.5 A 0.25 0.25 0 0 0 9.0878906 4.75 L 11.337891 4.75 A 0.25 0.25 0 0 0 11.587891 4.5 A 0.25 0.25 0 0 0 11.337891 4.25 L 9.0878906 4.25 z M 5.1132812 5.5585938 A 0.25 0.25 0 0 0 5.0488281 5.5722656 L 2.9238281 6.3066406 A 0.25 0.25 0 0 0 2.7695312 6.625 A 0.25 0.25 0 0 0 3.0859375 6.7792969 L 5.2128906 6.0429688 A 0.25 0.25 0 0 0 5.3671875 5.7265625 A 0.25 0.25 0 0 0 5.1132812 5.5585938 z M 8.8867188 5.5585938 A 0.25 0.25 0 0 0 8.6328125 5.7265625 A 0.25 0.25 0 0 0 8.7871094 6.0449219 L 10.914062 6.7792969 A 0.25 0.25 0 0 0 11.230469 6.625 A 0.25 0.25 0 0 0 11.076172 6.3066406 L 8.9511719 5.5722656 A 0.25 0.25 0 0 0 8.8867188 5.5585938 z " />
</svg>
