<?xml version="1.0" encoding="UTF-8" standalone="no"?>
<svg
   version="1.1"
   width="13"
   height="14"
   viewBox="0 0 13 14"
   id="svg4138"
   xmlns="http://www.w3.org/2000/svg"
   xmlns:svg="http://www.w3.org/2000/svg">
  <defs
     id="defs1" />
  <rect
     width="13"
     height="14"
     x="0"
     y="0"
     id="canvas"
     style="visibility:hidden;fill:none;stroke:none" />
  <path
     id="rect2"
     style="fill:#000000"
     d="M 6.625 0 L 5 1 L 5 7.75 L 0.625 14 L 1.375 14 L 5 8.875 L 5 13.625 L 5 14 L 8 14 L 8 13.5 L 8 8.875 L 11.625 14 L 12.375 14 L 8 7.75 L 8 1 L 6.625 0 z M 3 0.40625 C 1.386585 1.117736 0.19562607 2.6526097 0 4.4726562 L 0 5.5351562 C 0.17819644 7.1670658 1.157825 8.5683988 2.5234375 9.3515625 L 3 8.875 L 3 8.4375 C 1.8044724 7.7467114 1 6.488147 1 5 C 1 3.511853 1.8044724 2.2532886 3 1.5625 L 3 0.40625 z M 10 0.40625 L 10 1.5625 C 11.195528 2.2532886 12 3.511853 12 5 C 12 6.488147 11.195528 7.7467114 10 8.4375 L 10 8.875 L 10.476562 9.3515625 C 11.842175 8.5683988 12.821804 7.1670658 13 5.5351562 L 13 4.4726562 C 12.804374 2.6526097 11.613415 1.117736 10 0.40625 z M 6.625 0.5 L 7.375 1 L 5.625 2.75 L 5.625 1 L 6.625 0.5 z M 4 2.1875 C 2.8429524 2.6043592 2 3.7033326 2 5 C 2 6.2966674 2.8429524 7.3956408 4 7.8125 L 4 6.71875 C 3.4030812 6.3740306 3 5.7435686 3 5 C 3 4.2564314 3.4030812 3.6259694 4 3.28125 L 4 2.1875 z M 9 2.1875 L 9 3.28125 C 9.5969188 3.6259694 10 4.2564314 10 5 C 10 5.7435686 9.5969188 6.3740306 9 6.71875 L 9 7.8125 C 10.157048 7.3956408 11 6.2966674 11 5 C 11 3.7033326 10.157048 2.6043592 9 2.1875 z M 7.375 2.25 L 7.375 5.75 L 5.625 4 L 7.375 2.25 z M 5.625 5.25 L 7.375 7 L 5.625 8.75 L 5.625 5.25 z M 7.375 8.25 L 7.375 11.75 L 5.625 10 L 7.375 8.25 z M 5.625 11.25 L 7.375 13 L 7.375 13.5 L 5.625 13.5 L 5.625 11.25 z " />
</svg>
