<?xml version="1.0" encoding="UTF-8" standalone="no"?>
<svg
   version="1.1"
   width="14"
   height="14"
   viewBox="0 0 14 14"
   id="svg2"
   xmlns="http://www.w3.org/2000/svg"
   xmlns:svg="http://www.w3.org/2000/svg">
  <defs
     id="defs1" />
  <rect
     width="14"
     height="14"
     x="0"
     y="0"
     id="canvas"
     style="fill:none;stroke:none;visibility:hidden" />
  <path
     id="path229"
     style="fill:#000000"
     d="M 4.5351562 1.7089844 C 4.4536519 1.7902307 4.3758192 1.873885 4.3007812 1.9589844 L 4.2929688 1.9667969 C 2.4839228 4.0270561 2.5647156 7.1646917 4.5351562 9.1289062 C 6.5530146 11.139825 9.7994238 11.172777 11.861328 9.234375 C 11.899168 9.198775 11.937588 9.1638831 11.974609 9.1269531 L 10.898438 8.0546875 L 8.7519531 5.9082031 L 10.105469 4.5605469 L 9.375 3.8320312 L 8.0234375 5.1796875 L 4.5527344 1.7089844 L 4.5429688 1.7167969 L 4.5351562 1.7089844 z M 4.84375 2.5175781 L 11.167969 8.84375 A 4.5 4.5000005 45 0 1 11.074219 8.9257812 L 10.953125 8.8046875 L 8.7128906 6.5644531 L 8.1816406 6.2109375 L 10.185547 8.2128906 L 10.095703 8.3007812 L 10.794922 9.1269531 A 4.5 4.5000005 45 0 1 10.658203 9.2167969 L 10.277344 8.8359375 L 8.2714844 6.8300781 L 7.6523438 6.3867188 L 9.7734375 8.5078125 L 9.6855469 8.5976562 L 10.359375 9.3945312 A 4.5 4.5000005 45 0 1 10.201172 9.4667969 L 9.8359375 9.1015625 L 7.7402344 7.0058594 L 7.2109375 6.6523438 L 9.3320312 8.7734375 L 9.2421875 8.8632812 L 9.8789062 9.6152344 A 4.5 4.5000005 45 0 1 9.6992188 9.6738281 L 9.3613281 9.3359375 L 7.2109375 7.1835938 L 6.6796875 6.8300781 L 8.8574219 9.0078125 L 8.7695312 9.0957031 L 9.3457031 9.7773438 A 4.5 4.5000005 45 0 1 9.1445312 9.8242188 L 8.7753906 9.4550781 L 6.6796875 7.359375 L 6.0605469 6.9179688 L 8.2695312 9.1289062 L 8.1816406 9.2167969 L 8.7441406 9.8808594 A 4.5 4.5000005 45 0 1 8.5175781 9.9042969 L 8.2441406 9.6308594 L 5.8847656 7.2714844 L 5.3535156 6.9179688 L 7.6523438 9.2167969 L 7.5644531 9.3046875 L 8.078125 9.9023438 A 4.5 4.5000005 45 0 1 7.7851562 9.8789062 L 7.0332031 9.1269531 L 5.0878906 7.1835938 L 4.5585938 6.8300781 L 6.9453125 9.2167969 L 6.8574219 9.3046875 L 7.2773438 9.8007812 A 4.5 4.5000005 45 0 1 6.8847656 9.6855469 L 6.2382812 9.0390625 L 4.734375 7.5371094 L 4.3554688 7.3085938 L 4.2050781 7.0058594 L 4 6.8007812 A 4.5 4.5000005 45 0 1 3.8378906 6.109375 L 4.3808594 6.6523438 L 4.1171875 6.2109375 L 3.8066406 5.9003906 A 4.5 4.5000005 45 0 1 3.7832031 5.3476562 L 4.3808594 5.9453125 L 4.1171875 5.5039062 L 3.7832031 5.1699219 A 4.5 4.5000005 45 0 1 3.8417969 4.6972656 L 4.4707031 5.3261719 L 4.2050781 4.8847656 L 3.8632812 4.5429688 A 4.5 4.5000005 45 0 1 3.9726562 4.1230469 L 4.6464844 4.796875 L 4.3808594 4.3554688 L 4.0136719 3.9863281 A 4.5 4.5000005 45 0 1 4.1640625 3.6054688 L 4.9121094 4.3554688 L 4.6464844 3.9121094 L 4.21875 3.484375 A 4.5 4.5000005 45 0 1 4.4023438 3.1367188 L 5.1777344 3.9121094 L 4.9121094 3.4707031 L 4.4707031 3.0292969 A 4.5 4.5000005 45 0 1 4.6855469 2.703125 L 5.3164062 3.3339844 L 5.140625 2.9804688 L 4.7675781 2.6074219 A 4.5 4.5000005 45 0 1 4.84375 2.5175781 z M 4.0917969 7.0703125 L 4.3808594 7.359375 L 6.1484375 9.1289062 L 6.0605469 9.2167969 L 6.2382812 9.4199219 A 4.5 4.5000005 45 0 1 5.0878906 8.5976562 A 4.5 4.5000005 45 0 1 4.0917969 7.0703125 z M 4 10 L 2 13 L 9.2695312 13 L 9.25 11.75 C 7.3571999 12.05707 5.4748585 11.430209 4 10 z " />
</svg>
