<?xml version="1.0" encoding="UTF-8" standalone="no"?>
<svg
   version="1.1"
   width="14"
   height="14"
   viewBox="0 0 14 14"
   id="svg2"
   xmlns="http://www.w3.org/2000/svg"
   xmlns:svg="http://www.w3.org/2000/svg">
  <defs
     id="defs1" />
  <rect
     width="14"
     height="14"
     x="0"
     y="0"
     id="canvas"
     style="fill:none;stroke:none;visibility:hidden" />
  <path
     id="rect98-3-2-5-4-9"
     style="fill:#000000"
     d="M 2.4414062 0.4765625 C 1.5360762 1.3836516 0.96875 2.6285014 0.96875 4 C 0.96875 5.3714986 1.5360762 6.6163484 2.4414062 7.5234375 L 3.2265625 6.8574219 C 2.4714533 6.1392726 2 5.1372289 2 4 C 2 2.8627711 2.4714533 1.8607274 3.2265625 1.1425781 L 2.4414062 0.4765625 z M 11.558594 0.4765625 L 10.773438 1.1425781 C 11.528547 1.8607274 12 2.8627711 12 4 C 12 5.1372289 11.528547 6.1392726 10.773438 6.8574219 L 11.558594 7.5234375 C 12.463924 6.6163484 13.03125 5.3714986 13.03125 4 C 13.03125 2.6285014 12.463924 1.3836516 11.558594 0.4765625 z M 3.9921875 1.7929688 C 3.3857441 2.3391482 3 3.1239509 3 4 C 3 4.8760491 3.3857441 5.6608518 3.9921875 6.2070312 L 4.7597656 5.5546875 C 4.2977811 5.1922979 4 4.6385294 4 4 C 4 3.3614706 4.2977811 2.8077021 4.7597656 2.4453125 L 3.9921875 1.7929688 z M 10.007812 1.7929688 L 9.2402344 2.4453125 C 9.7022189 2.8077021 10 3.3614706 10 4 C 10 4.6385294 9.7022189 5.1922979 9.2402344 5.5546875 L 10.007812 6.2070312 C 10.614256 5.6608518 11 4.8760491 11 4 C 11 3.1239509 10.614256 2.3391482 10.007812 1.7929688 z M 5 3 L 5 4.5 L 6.625 4.5 L 6.625 6 L 5.625 6 L 5 6 L 5 11 L 4 11 L 4 12 L 2 12 L 2 14 L 5 14 L 5.625 14 L 12 14 L 12 12 L 10 12 L 10 11 L 9 11 L 9 6 L 8.5 6 L 7.375 6 L 7.375 4.5 L 9 4.5 L 9 3 L 5 3 z M 5.625 6.375 L 8 6.375 L 8 6.5 L 7.625 6.5 L 6.875 6.5 L 6.875 6.75 L 7.625 6.75 L 7.625 7 L 8 7 L 8 7.5 L 7.625 7.5 L 6.875 7.5 L 6.875 7.75 L 7.625 7.75 L 7.625 8 L 8 8 L 8 8.5 L 7.625 8.5 L 6.875 8.5 L 6.875 8.75 L 7.625 8.75 L 7.625 9 L 8 9 L 8 9.5 L 7.625 9.5 L 6.875 9.5 L 6.875 9.75 L 7.625 9.75 L 7.625 10 L 8 10 L 8 10.5 L 7.625 10.5 L 6.875 10.5 L 6.875 10.75 L 7.625 10.75 L 7.625 11 L 5.625 11 L 5.625 6.375 z " />
</svg>
