<?xml version="1.0" encoding="UTF-8" standalone="no"?>
<svg
   version="1.1"
   width="14"
   height="14"
   viewBox="0 0 14 14"
   id="svg4138"
   xmlns="http://www.w3.org/2000/svg"
   xmlns:svg="http://www.w3.org/2000/svg">
  <defs
     id="defs1" />
  <rect
     width="14"
     height="14"
     x="0"
     y="0"
     id="canvas"
     style="fill:none;stroke:none;visibility:hidden" />
  <path
     id="rect98-3-2-5-5"
     style="fill:#000000"
     d="M 5 0 L 5 11 L 4 11 L 4 12 L 2 12 L 2 14 L 5 14 L 5.625 14 L 12 14 L 12 12 L 10 12 L 10 11 L 9 11 L 9 0 L 8.375 0 L 5.625 0 L 5.5 0 L 5 0 z M 5.625 0.375 L 8 0.375 L 8 0.5 L 7.625 0.5 L 6.875 0.5 L 6.875 0.75 L 7.625 0.75 L 7.625 1 L 8 1 L 8 1.5 L 7.625 1.5 L 6.875 1.5 L 6.875 1.75 L 7.625 1.75 L 7.625 2 L 8 2 L 8 2.5 L 7.625 2.5 L 6.875 2.5 L 6.875 2.75 L 7.625 2.75 L 7.625 3 L 8 3 L 8 3.5 L 7.625 3.5 L 6.875 3.5 L 6.875 3.75 L 7.625 3.75 L 7.625 4 L 8 4 L 8 4.5 L 7.625 4.5 L 6.875 4.5 L 6.875 4.75 L 7.625 4.75 L 7.625 5 L 8 5 L 8 5.5 L 7.625 5.5 L 6.875 5.5 L 6.875 5.75 L 7.625 5.75 L 7.625 6 L 8 6 L 8 6.5 L 7.625 6.5 L 6.875 6.5 L 6.875 6.75 L 7.625 6.75 L 7.625 7 L 8 7 L 8 7.5 L 7.625 7.5 L 6.875 7.5 L 6.875 7.75 L 7.625 7.75 L 7.625 8 L 8 8 L 8 8.5 L 7.625 8.5 L 6.875 8.5 L 6.875 8.75 L 7.625 8.75 L 7.625 9 L 8 9 L 8 9.5 L 7.625 9.5 L 6.875 9.5 L 6.875 9.75 L 7.625 9.75 L 7.625 10 L 8 10 L 8 10.5 L 7.625 10.5 L 6.875 10.5 L 6.875 10.75 L 7.625 10.75 L 7.625 11 L 5.625 11 L 5.625 0.375 z M 2.0234375 1.2070312 A 0.25 0.25 0 0 0 1.7695312 1.375 A 0.25 0.25 0 0 0 1.9238281 1.6933594 L 4.0488281 2.4277344 A 0.25 0.25 0 0 0 4.3671875 2.2734375 A 0.25 0.25 0 0 0 4.2128906 1.9550781 L 2.0859375 1.2207031 A 0.25 0.25 0 0 0 2.0234375 1.2070312 z M 11.976562 1.2070312 A 0.25 0.25 0 0 0 11.914062 1.2207031 L 9.7871094 1.9550781 A 0.25 0.25 0 0 0 9.6328125 2.2734375 A 0.25 0.25 0 0 0 9.9511719 2.4277344 L 12.076172 1.6933594 A 0.25 0.25 0 0 0 12.230469 1.375 A 0.25 0.25 0 0 0 11.976562 1.2070312 z M 1.6621094 3.25 A 0.25 0.25 0 0 0 1.4121094 3.5 A 0.25 0.25 0 0 0 1.6621094 3.75 L 3.9121094 3.75 A 0.25 0.25 0 0 0 4.1621094 3.5 A 0.25 0.25 0 0 0 3.9121094 3.25 L 1.6621094 3.25 z M 10.087891 3.25 A 0.25 0.25 0 0 0 9.8378906 3.5 A 0.25 0.25 0 0 0 10.087891 3.75 L 12.337891 3.75 A 0.25 0.25 0 0 0 12.587891 3.5 A 0.25 0.25 0 0 0 12.337891 3.25 L 10.087891 3.25 z M 4.1132812 4.5585938 A 0.25 0.25 0 0 0 4.0488281 4.5722656 L 1.9238281 5.3066406 A 0.25 0.25 0 0 0 1.7695312 5.625 A 0.25 0.25 0 0 0 2.0859375 5.7792969 L 4.2128906 5.0429688 A 0.25 0.25 0 0 0 4.3671875 4.7265625 A 0.25 0.25 0 0 0 4.1132812 4.5585938 z M 9.8867188 4.5585938 A 0.25 0.25 0 0 0 9.6328125 4.7265625 A 0.25 0.25 0 0 0 9.7871094 5.0449219 L 11.914062 5.7792969 A 0.25 0.25 0 0 0 12.230469 5.625 A 0.25 0.25 0 0 0 12.076172 5.3066406 L 9.9511719 4.5722656 A 0.25 0.25 0 0 0 9.8867188 4.5585938 z " />
</svg>
