<?xml version="1.0" encoding="UTF-8" standalone="no"?>
<svg
   version="1.1"
   width="14"
   height="14"
   viewBox="0 0 14 14"
   id="svg4138"
   xmlns="http://www.w3.org/2000/svg"
   xmlns:svg="http://www.w3.org/2000/svg">
  <defs
     id="defs1" />
  <rect
     width="14"
     height="14"
     x="0"
     y="0"
     id="canvas"
     style="fill:none;stroke:none;visibility:hidden" />
  <path
     id="path1-59-8-1"
     style="fill:#000000"
     d="M 6.4726562 0 L 5.2011719 10 L 2.5996094 14 L 4 14 L 4.6660156 13 L 9.3339844 13 L 10 14 L 11.400391 14 L 8.8574219 9.9238281 C 9.0000457 9.999288 7.5585937 0 7.5585938 0 L 6.4726562 0 z M 3.0390625 2.2070312 A 0.25 0.25 0 0 0 2.7851562 2.375 A 0.25 0.25 0 0 0 2.9394531 2.6933594 L 5.0644531 3.4277344 A 0.25 0.25 0 0 0 5.3828125 3.2734375 A 0.25 0.25 0 0 0 5.2285156 2.9550781 L 3.1015625 2.2207031 A 0.25 0.25 0 0 0 3.0390625 2.2070312 z M 10.992188 2.2070312 A 0.25 0.25 0 0 0 10.929688 2.2207031 L 8.8027344 2.9550781 A 0.25 0.25 0 0 0 8.6484375 3.2734375 A 0.25 0.25 0 0 0 8.9667969 3.4277344 L 11.091797 2.6933594 A 0.25 0.25 0 0 0 11.246094 2.375 A 0.25 0.25 0 0 0 10.992188 2.2070312 z M 7 4 L 7.75 10 L 6.25 10 L 7 4 z M 2.6777344 4.25 A 0.25 0.25 0 0 0 2.4277344 4.5 A 0.25 0.25 0 0 0 2.6777344 4.75 L 4.9277344 4.75 A 0.25 0.25 0 0 0 5.1777344 4.5 A 0.25 0.25 0 0 0 4.9277344 4.25 L 2.6777344 4.25 z M 9.1035156 4.25 A 0.25 0.25 0 0 0 8.8535156 4.5 A 0.25 0.25 0 0 0 9.1035156 4.75 L 11.353516 4.75 A 0.25 0.25 0 0 0 11.603516 4.5 A 0.25 0.25 0 0 0 11.353516 4.25 L 9.1035156 4.25 z M 5.1289062 5.5585938 A 0.25 0.25 0 0 0 5.0644531 5.5722656 L 2.9394531 6.3066406 A 0.25 0.25 0 0 0 2.7851562 6.625 A 0.25 0.25 0 0 0 3.1015625 6.7792969 L 5.2285156 6.0429688 A 0.25 0.25 0 0 0 5.3828125 5.7265625 A 0.25 0.25 0 0 0 5.1289062 5.5585938 z M 8.9023438 5.5585938 A 0.25 0.25 0 0 0 8.6484375 5.7265625 A 0.25 0.25 0 0 0 8.8027344 6.0449219 L 10.929688 6.7792969 A 0.25 0.25 0 0 0 11.246094 6.625 A 0.25 0.25 0 0 0 11.091797 6.3066406 L 8.9667969 5.5722656 A 0.25 0.25 0 0 0 8.9023438 5.5585938 z M 6 11 L 8 11 L 8.6660156 12 L 5.3339844 12 L 6 11 z " />
</svg>
