<?xml version="1.0" encoding="UTF-8" standalone="no"?>
<svg
   version="1.1"
   width="14"
   height="14"
   viewBox="0 0 14 14"
   id="svg2"
   xmlns="http://www.w3.org/2000/svg"
   xmlns:svg="http://www.w3.org/2000/svg">
  <defs
     id="defs1" />
  <rect
     width="14"
     height="14"
     x="0"
     y="0"
     id="canvas"
     style="fill:none;stroke:none;visibility:hidden" />
  <path
     id="rect88"
     style="fill:#000000"
     d="M 8 2 C 5.2246628 2.1292799 3.0189905 4.3132239 3.0234375 6.9882812 C 3.0256483 8.2214996 3.4980368 9.3499273 4.2773438 10.222656 L 4.2773438 10.244141 L 4.296875 10.244141 C 4.3694586 10.324505 4.4437755 10.40269 4.5214844 10.478516 L 4 11 L 4 13 L 3 14 L 7 14 L 6 13 L 6 11.494141 C 6.6173632 11.779113 7.3010015 11.95337 8.0234375 11.988281 L 8.0234375 11.146484 L 8.0234375 8 L 9 8 L 9 6 L 8.0234375 6 L 8.0234375 2.59375 L 8.0234375 2 C 8.0156375 2.00033 8.00778 1.99964 8 2 z M 7.5234375 2.6464844 L 7.5234375 11.09375 C 7.4828884 11.087462 7.4425691 11.081492 7.4023438 11.074219 L 7.4023438 10.244141 L 7.3984375 10.244141 L 7.3984375 7.5253906 L 7.2734375 6.7753906 L 7.2734375 10.244141 L 7.1523438 10.244141 L 7.0898438 11.005859 C 7.0270124 10.990204 6.9641791 10.973103 6.9023438 10.955078 L 6.9023438 10.119141 L 6.9023438 8.3691406 L 6.7773438 7.7441406 L 6.7773438 10.119141 L 6.6523438 10.119141 L 6.5917969 10.853516 C 6.5280369 10.830217 6.4647668 10.805086 6.4023438 10.779297 L 6.4023438 9.9941406 L 6.4023438 8.2441406 L 6.2773438 7.6191406 L 6.2773438 9.9941406 L 6.1523438 9.9941406 L 6.0976562 10.642578 C 6.0316093 10.609843 5.9665029 10.576527 5.9023438 10.541016 L 5.9023438 9.7441406 L 5.9023438 8.2441406 L 5.7773438 7.4941406 L 5.7773438 9.7441406 L 5.6523438 9.7441406 L 5.6015625 10.361328 C 5.53305 10.316626 5.4680998 10.268591 5.4023438 10.220703 L 5.4023438 9.3691406 L 5.4023438 7.9941406 L 5.2773438 7.3691406 L 5.2773438 9.3691406 L 5.1523438 9.3691406 L 5.0898438 9.9746094 C 5.0252607 9.9186335 4.9633615 9.8599247 4.9023438 9.8007812 L 4.9023438 7.8691406 L 4.7773438 7.2441406 L 4.7773438 8.8691406 L 4.6523438 8.8691406 L 4.6015625 9.4804688 C 4.5315123 9.3977328 4.4655945 9.3118135 4.4023438 9.2246094 L 4.4023438 8.4941406 L 4.4023438 7.3691406 L 4.2773438 6.8691406 L 4.2773438 8.4941406 L 4.1523438 8.4941406 L 4.1367188 8.8105469 C 4.0468343 8.649365 3.9685418 8.4820142 3.9023438 8.3105469 L 3.9023438 5.5683594 C 4.0006777 5.2958065 4.1268382 5.0344467 4.2773438 4.7871094 L 4.2773438 5.2441406 L 4.4023438 4.8691406 L 4.4023438 4.5917969 C 4.5162732 4.4248935 4.6410895 4.2660761 4.7773438 4.1152344 L 4.7773438 4.7441406 L 4.9023438 4.2441406 L 4.9023438 3.9804688 C 5.0199742 3.8603666 5.1460767 3.7478277 5.2773438 3.640625 L 5.2773438 4.3691406 L 5.4023438 3.8691406 L 5.4023438 3.5410156 C 5.5221941 3.4499355 5.6478485 3.3648016 5.7773438 3.2851562 L 5.7773438 3.9941406 L 5.9023438 3.4941406 L 5.9023438 3.2089844 C 6.0234171 3.1396822 6.1489947 3.0763295 6.2773438 3.0175781 L 6.2773438 3.7441406 L 6.4023438 3.2441406 L 6.4023438 2.9648438 C 6.5247641 2.913066 6.6491657 2.8659155 6.7773438 2.8242188 L 6.7773438 3.6191406 L 6.9023438 3.1191406 L 6.9023438 2.7832031 C 7.0234554 2.7475044 7.1478451 2.7176918 7.2734375 2.6914062 L 7.2734375 3.8632812 L 7.3984375 3.3632812 L 7.3984375 2.6679688 C 7.4398605 2.6604432 7.4815775 2.6529583 7.5234375 2.6464844 z M 12.558594 3.4765625 L 11.773438 4.1425781 C 12.528546 4.8607274 13 5.8627711 13 7 C 13 8.1372289 12.528546 9.1392726 11.773438 9.8574219 L 12.558594 10.523438 C 13.340952 9.7395583 13.870471 8.7028901 14 7.5507812 L 14 6.4492188 C 13.870471 5.2971099 13.340952 4.2604417 12.558594 3.4765625 z M 11.007812 4.7929688 L 10.240234 5.4453125 C 10.702219 5.8077021 11 6.3614706 11 7 C 11 7.6385294 10.702219 8.1922979 10.240234 8.5546875 L 11.007812 9.2070312 C 11.614256 8.6608518 12 7.8760491 12 7 C 12 6.1239509 11.614256 5.3391482 11.007812 4.7929688 z M 3.7773438 5.9804688 L 3.7773438 7.9277344 C 3.6962323 7.6247108 3.6523438 7.3102395 3.6523438 6.9882812 C 3.6524901 6.6435371 3.6960453 6.3063623 3.7773438 5.9804688 z " />
</svg>
