<?xml version="1.0" encoding="UTF-8" standalone="no"?>
<svg
   version="1.1"
   width="14"
   height="14"
   viewBox="0 0 14 14"
   id="svg2"
   xmlns="http://www.w3.org/2000/svg"
   xmlns:svg="http://www.w3.org/2000/svg">
  <defs
     id="defs1" />
  <rect
     width="14"
     height="14"
     x="0"
     y="0"
     id="canvas"
     style="fill:none;stroke:none;visibility:hidden" />
  <path
     id="path229"
     style="fill:#000000"
     d="M 8.8847656 0 C 8.7916483 -0.00012499976 8.6985176 0.00281251 8.6054688 0.0078125 C 8.0471768 0.03751244 7.4928657 0.15398228 6.9667969 0.35742188 L 7.8164062 1.2050781 C 9.2019246 0.83551888 10.717489 1.1662016 11.810547 2.2558594 C 12.903605 3.3454572 13.23597 4.857144 12.865234 6.2382812 L 13.714844 7.0839844 C 13.845593 6.7480194 13.940613 6.4014672 14 6.0488281 L 14 4.2851562 C 13.827412 3.2634748 13.351514 2.2845823 12.566406 1.5019531 C 11.626283 0.56480502 10.405061 0.070792374 9.1640625 0.0078125 C 9.0709877 0.003312509 8.9778829 0.00012499976 8.8847656 0 z M 8.5839844 2.3574219 C 8.1136898 2.3534219 7.6425039 2.4549333 7.2089844 2.6582031 L 8.0117188 3.4589844 C 8.7033611 3.2743346 9.4636052 3.4398955 10.009766 3.984375 C 10.555923 4.5288045 10.72235 5.2871032 10.537109 5.9765625 L 11.339844 6.7773438 C 11.883513 5.6249449 11.696555 4.2013622 10.744141 3.2519531 C 10.148882 2.6585837 9.3678096 2.3634619 8.5839844 2.3574219 z M 3.5351562 2.7089844 C 3.4536519 2.7902307 3.3758192 2.873885 3.3007812 2.9589844 L 3.2929688 2.9667969 C 1.4839228 5.0270561 1.5647156 8.1646917 3.5351562 10.128906 C 5.5530146 12.139825 8.7994238 12.172777 10.861328 10.234375 C 10.899168 10.198775 10.937588 10.163883 10.974609 10.126953 L 9.8984375 9.0546875 L 7.7519531 6.9082031 L 9.1054688 5.5605469 L 8.375 4.8320312 L 7.0234375 6.1796875 L 3.5527344 2.7089844 L 3.5429688 2.7167969 L 3.5351562 2.7089844 z M 3.84375 3.5175781 L 10.167969 9.84375 A 4.5 4.5000005 45 0 1 10.074219 9.9257812 L 9.953125 9.8046875 L 7.7128906 7.5644531 L 7.1816406 7.2109375 L 9.1855469 9.2128906 L 9.0957031 9.3007812 L 9.7949219 10.126953 A 4.5 4.5000005 45 0 1 9.6582031 10.216797 L 9.2773438 9.8359375 L 7.2714844 7.8300781 L 6.6523438 7.3867188 L 8.7734375 9.5078125 L 8.6855469 9.5976562 L 9.359375 10.394531 A 4.5 4.5000005 45 0 1 9.2011719 10.466797 L 8.8359375 10.101562 L 6.7402344 8.0058594 L 6.2109375 7.6523438 L 8.3320312 9.7734375 L 8.2421875 9.8632812 L 8.8789062 10.615234 A 4.5 4.5000005 45 0 1 8.6992188 10.673828 L 8.3613281 10.335938 L 6.2109375 8.1835938 L 5.6796875 7.8300781 L 7.8574219 10.007812 L 7.7695312 10.095703 L 8.3457031 10.777344 A 4.5 4.5000005 45 0 1 8.1445312 10.824219 L 7.7753906 10.455078 L 5.6796875 8.359375 L 5.0605469 7.9179688 L 7.2695312 10.128906 L 7.1816406 10.216797 L 7.7441406 10.880859 A 4.5 4.5000005 45 0 1 7.5175781 10.904297 L 7.2441406 10.630859 L 4.8847656 8.2714844 L 4.3535156 7.9179688 L 6.6523438 10.216797 L 6.5644531 10.304688 L 7.078125 10.902344 A 4.5 4.5000005 45 0 1 6.7851562 10.878906 L 6.0332031 10.126953 L 4.0878906 8.1835938 L 3.5585938 7.8300781 L 5.9453125 10.216797 L 5.8574219 10.304688 L 6.2773438 10.800781 A 4.5 4.5000005 45 0 1 5.8847656 10.685547 L 5.2382812 10.039062 L 3.734375 8.5371094 L 3.3554688 8.3085938 L 3.2050781 8.0058594 L 3 7.8007812 A 4.5 4.5000005 45 0 1 2.8378906 7.109375 L 3.3808594 7.6523438 L 3.1171875 7.2109375 L 2.8066406 6.9003906 A 4.5 4.5000005 45 0 1 2.7832031 6.3476562 L 3.3808594 6.9453125 L 3.1171875 6.5039062 L 2.7832031 6.1699219 A 4.5 4.5000005 45 0 1 2.8417969 5.6972656 L 3.4707031 6.3261719 L 3.2050781 5.8847656 L 2.8632812 5.5429688 A 4.5 4.5000005 45 0 1 2.9726562 5.1230469 L 3.6464844 5.796875 L 3.3808594 5.3554688 L 3.0136719 4.9863281 A 4.5 4.5000005 45 0 1 3.1640625 4.6054688 L 3.9121094 5.3554688 L 3.6464844 4.9121094 L 3.21875 4.484375 A 4.5 4.5000005 45 0 1 3.4023438 4.1367188 L 4.1777344 4.9121094 L 3.9121094 4.4707031 L 3.4707031 4.0292969 A 4.5 4.5000005 45 0 1 3.6855469 3.703125 L 4.3164062 4.3339844 L 4.140625 3.9804688 L 3.7675781 3.6074219 A 4.5 4.5000005 45 0 1 3.84375 3.5175781 z M 3.0917969 8.0703125 L 3.3808594 8.359375 L 5.1484375 10.128906 L 5.0605469 10.216797 L 5.2382812 10.419922 A 4.5 4.5000005 45 0 1 4.0878906 9.5976562 A 4.5 4.5000005 45 0 1 3.0917969 8.0703125 z M 3 11 L 1 14 L 8.2695312 14 L 8.25 12.75 C 6.3571999 13.05707 4.4748585 12.430209 3 11 z " />
</svg>
