<?xml version="1.0" encoding="UTF-8" standalone="no"?>
<svg
   version="1.1"
   width="15"
   height="14"
   viewBox="0 0 15 14"
   id="svg2"
   xmlns="http://www.w3.org/2000/svg"
   xmlns:svg="http://www.w3.org/2000/svg">
  <defs
     id="defs1" />
  <rect
     width="15"
     height="14"
     x="0"
     y="0"
     id="canvas"
     style="visibility:hidden;fill:none;stroke:none" />
  <path
     id="rect1"
     style="fill:#000000"
     d="M 1.4433594 1.9765625 C 0.66086869 2.7601513 0.13012766 3.7955913 0 4.9472656 L 0 6.0527344 C 0.13012766 7.2044087 0.66086869 8.2398487 1.4433594 9.0234375 L 2.2265625 8.3574219 C 1.4714535 7.6392702 1 6.6372315 1 5.5 C 1 4.3627685 1.4714535 3.3607298 2.2265625 2.6425781 L 1.4433594 1.9765625 z M 13.556641 1.9765625 L 12.773438 2.6425781 C 13.528546 3.3607298 14 4.3627685 14 5.5 C 14 6.6372315 13.528546 7.6392702 12.773438 8.3574219 L 13.556641 9.0234375 C 14.339131 8.2398487 14.869872 7.2044087 15 6.0527344 L 15 4.9472656 C 14.869872 3.7955913 14.339131 2.7601513 13.556641 1.9765625 z M 7.5 3 A 2.5 2.5 0 0 0 5 5.5 A 2.5 2.5 0 0 0 5.6308594 7.1484375 L 5.6875 7.375 L 5.125 7.375 L 5.125 8 L 6 8 L 6 12 L 4 13 L 6 13 L 9 13 L 11 13 L 9 12 L 9 8 L 9.875 8 L 9.875 7.375 L 9.3125 7.375 L 9.3691406 7.1484375 A 2.5 2.5 0 0 0 10 5.5 A 2.5 2.5 0 0 0 7.5 3 z M 2.9921875 3.2929688 C 2.3857452 3.8391479 2 4.6239565 2 5.5 C 2 6.3760435 2.3857452 7.1608521 2.9921875 7.7070312 L 3.7597656 7.0546875 C 3.297831 6.6922968 3 6.1384912 3 5.5 C 3 4.8615088 3.297831 4.3077032 3.7597656 3.9453125 L 2.9921875 3.2929688 z M 12.007812 3.2929688 L 11.240234 3.9453125 C 11.70217 4.3077032 12 4.8615088 12 5.5 C 12 6.1384912 11.70217 6.6922968 11.240234 7.0546875 L 12.007812 7.7070312 C 12.614256 7.1608521 13 6.3760435 13 5.5 C 13 4.6239565 12.614256 3.8391479 12.007812 3.2929688 z M 7.4375 3.5 A 1.9374999 1.9374999 0 0 1 7.7734375 3.53125 L 7.7734375 3.625 L 8.1191406 3.625 A 1.9374999 1.9374999 0 0 1 8.7363281 4 L 8.25 4 L 8.25 4.125 L 8.8613281 4.125 A 1.9374999 1.9374999 0 0 1 9.1328125 4.5 L 8.5 4.5 L 8.5 4.625 L 9.1953125 4.625 A 1.9374999 1.9374999 0 0 1 9.3242188 5 L 8.625 5 L 8.625 5.125 L 9.3476562 5.125 A 1.9374999 1.9374999 0 0 1 9.375 5.4375 A 1.9374999 1.9374999 0 0 1 9.3691406 5.5 L 8.625 5.5 L 8.625 5.625 L 9.3574219 5.625 A 1.9374999 1.9374999 0 0 1 9.2792969 6 L 8.125 6 L 8.125 6.125 L 9.2363281 6.125 A 1.9374999 1.9374999 0 0 1 9.0351562 6.5 L 7.5 6.5 L 7.5 6.625 L 8.9511719 6.625 A 1.9374999 1.9374999 0 0 1 8.9492188 6.6289062 L 8.8007812 7 L 7.375 7 L 7.375 7.125 L 8.75 7.125 L 8.6503906 7.375 L 6.2246094 7.375 L 6.125 7.125 L 6.875 7.125 L 6.875 7 L 6.0742188 7 L 5.9238281 6.625 L 6.6875 6.625 L 6.6875 6.5 L 5.8457031 6.5 A 1.9374999 1.9374999 0 0 1 5.6425781 6.125 L 6 6.125 L 6 6 L 5.5976562 6 A 1.9374999 1.9374999 0 0 1 5.5195312 5.625 L 5.75 5.625 L 5.75 5.5 L 5.5058594 5.5 A 1.9374999 1.9374999 0 0 1 5.5 5.4375 A 1.9374999 1.9374999 0 0 1 5.53125 5.125 L 5.75 5.125 L 5.75 5 L 5.5546875 5 A 1.9374999 1.9374999 0 0 1 5.6855469 4.625 L 5.828125 4.625 L 5.828125 4.5 L 5.7519531 4.5 A 1.9374999 1.9374999 0 0 1 7.4375 3.5 z M 6.5 8 L 8.25 8 L 8.25 8.125 L 8.25 12 L 8 12 L 8 8.125 L 7.625 8.125 L 7.625 8.375 L 7.875 8.375 L 7.875 12 L 6.5 12 L 6.5 8.25 L 6.875 8.25 L 6.875 8.125 L 6.5 8.125 L 6.5 8 z " />
</svg>
