<?xml version="1.0" encoding="UTF-8" standalone="no"?>
<svg
   version="1.1"
   width="14"
   height="14"
   viewBox="0 0 14 14"
   id="svg2"
   xmlns="http://www.w3.org/2000/svg"
   xmlns:svg="http://www.w3.org/2000/svg">
  <defs
     id="defs1" />
  <rect
     width="14"
     height="14"
     x="0"
     y="0"
     id="canvas"
     style="fill:none;stroke:none;visibility:hidden" />
  <path
     id="rect133-91"
     style="fill:#000000"
     d="M 7 0 L 2 2 L 2 6 L 12 6 L 12 2 L 7 0 z M 3 3 L 5 3 L 5 5 L 3 5 L 3 3 z M 6 3 L 8 3 L 8 5 L 6 5 L 6 3 z M 9 3 L 11 3 L 11 5 L 9 5 L 9 3 z M 3 6.5 L 3 7.5 L 3 13.5 L 2 13.5 L 2 14 L 3 14 L 4 14 L 10 14 L 11 14 L 12 14 L 12 13.5 L 11 13.5 L 11 7 L 11 6.5 L 3 6.5 z M 4 7.5 L 10 7.5 L 10 8 L 8.75 8 L 8.75 8.25 L 7.75 8.25 L 7.75 8.5 L 9.125 8.5 L 10 8.5 L 10 9 L 8.75 9 L 8.75 9.25 L 7.75 9.25 L 7.75 9.5 L 9.125 9.5 L 10 9.5 L 10 10 L 8.75 10 L 8.75 10.25 L 7.75 10.25 L 7.75 10.5 L 9.125 10.5 L 10 10.5 L 10 11 L 8.75 11 L 8.75 11.25 L 7.75 11.25 L 7.75 11.5 L 9.125 11.5 L 10 11.5 L 10 12 L 8.6875 12 L 8.6875 12.25 L 7.6875 12.25 L 7.6875 12.5 L 9.0625 12.5 L 10 12.5 L 10 13 L 8.75 13 L 8.75 13.25 L 7.75 13.25 L 7.75 13.5 L 4 13.5 L 4 7.5 z " />
</svg>
