<?xml version="1.0" encoding="UTF-8" standalone="no"?>
<svg
   version="1.1"
   width="14"
   height="14"
   viewBox="0 0 14 14"
   id="svg4138"
   xmlns="http://www.w3.org/2000/svg"
   xmlns:svg="http://www.w3.org/2000/svg">
  <defs
     id="defs1" />
  <rect
     width="14"
     height="14"
     x="0"
     y="0"
     id="canvas"
     style="fill:none;stroke:none;visibility:hidden" />
  <path
     id="path1-59-8"
     style="fill:#000000"
     d="M 6.4726562 0 L 6.0917969 3 L 6.015625 3 L 4.765625 3 C 3.5156262 3 2.8906241 1.999999 2.015625 1 L 2.015625 3.5 L 2.015625 6 C 2.8906241 4.999991 3.5156262 4 4.765625 4 L 5.9648438 4 L 5.2011719 10 L 2.5996094 14 L 4 14 L 4.6660156 13 L 9.3339844 13 L 10 14 L 11.400391 14 L 8.8574219 9.9238281 C 8.9390285 9.9670048 8.5117061 6.7933759 8.1230469 4 L 9.015625 4 L 9.265625 4 C 10.515624 4 11.140626 4.999991 12.015625 6 L 12.015625 3.5 L 12.015625 1 C 11.140626 1.999999 10.515624 3 9.265625 3 L 9.015625 3 L 7.9824219 3 C 7.7546473 1.3781764 7.5585938 0 7.5585938 0 L 6.4726562 0 z M 7 4 L 7.75 10 L 6.25 10 L 7 4 z M 6 11 L 8 11 L 8.6660156 12 L 5.3339844 12 L 6 11 z " />
</svg>
