<?xml version="1.0" encoding="UTF-8" standalone="no"?>
<svg
   version="1.1"
   width="14"
   height="14"
   viewBox="0 0 14 14"
   id="svg2"
   xmlns="http://www.w3.org/2000/svg"
   xmlns:svg="http://www.w3.org/2000/svg">
  <defs
     id="defs1" />
  <rect
     width="14"
     height="14"
     x="0"
     y="0"
     id="canvas"
     style="fill:none;stroke:none;visibility:hidden" />
  <path
     id="path1-92-4"
     style="fill:#000000"
     d="M 3.25 0 L 3.25 0.625 L 4 2 L 4 7 L 2 13 L 12 13 L 10 7 L 10 2 L 10.75 0.625 L 10.75 0 L 3.25 0 z M 4 0.625 L 9.75 0.625 L 9.5449219 1 L 9.5 1 L 8.875 1 L 7.375 1 L 7.375 1.125 L 8.875 1.125 L 8.875 1.25 L 9.4082031 1.25 L 9.2714844 1.5 L 9.25 1.5 L 7.125 1.5 L 7.125 1.625 L 8.625 1.625 L 8.625 1.75 L 9.1367188 1.75 L 9 2 L 7 2 L 7 2.125 L 8.5 2.125 L 8.5 2.25 L 9 2.25 L 9 2.5 L 8 2.5 L 8 2.625 L 8.5 2.625 L 8.5 2.75 L 9 2.75 L 9 3 L 8 3 L 8 3.125 L 8.5 3.125 L 8.5 3.25 L 9 3.25 L 9 3.5 L 8 3.5 L 8 3.625 L 8.5 3.625 L 8.5 3.75 L 9 3.75 L 9 4 L 8 4 L 8 4.125 L 8.5 4.125 L 8.5 4.25 L 9 4.25 L 9 4.5 L 8 4.5 L 8 4.625 L 8.5 4.625 L 8.5 4.75 L 9 4.75 L 9 5 L 8 5 L 8 5.125 L 8.5 5.125 L 8.5 5.25 L 9 5.25 L 9 5.5 L 8 5.5 L 8 5.625 L 8.5 5.625 L 8.5 5.75 L 9 5.75 L 9 6 L 8 6 L 8 6.125 L 8.5 6.125 L 8.5 6.25 L 9 6.25 L 9 6.5 L 8 6.5 L 8 6.625 L 8.5 6.625 L 8.5 6.75 L 9 6.75 L 9 7 L 6.5 7 L 6.5 7.125 L 8.5 7.125 L 8.5 7.25 L 9.0878906 7.25 L 9.1757812 7.5 L 9.125 7.5 L 8 7.5 L 8 7.625 L 8.625 7.625 L 8.625 7.75 L 9.2636719 7.75 L 9.3515625 8 L 9.25 8 L 8.125 8 L 8.125 8.125 L 8.75 8.125 L 8.75 8.25 L 9.4394531 8.25 L 9.5273438 8.5 L 9.375 8.5 L 8.25 8.5 L 8.25 8.625 L 8.875 8.625 L 8.875 8.75 L 9.6132812 8.75 L 9.7011719 9 L 9.5 9 L 8.375 9 L 8.375 9.125 L 9 9.125 L 9 9.25 L 9.7890625 9.25 L 9.8769531 9.5 L 9.625 9.5 L 8.5 9.5 L 8.5 9.625 L 9.125 9.625 L 9.125 9.75 L 9.9628906 9.75 L 10.050781 10 L 9.75 10 L 8.625 10 L 8.625 10.125 L 9.25 10.125 L 9.25 10.25 L 10.138672 10.25 L 10.226562 10.5 L 9.875 10.5 L 8.75 10.5 L 8.75 10.625 L 9.375 10.625 L 9.375 10.75 L 10.3125 10.75 L 10.400391 11 L 10 11 L 8.875 11 L 8.875 11.125 L 9.5 11.125 L 9.5 11.25 L 10.488281 11.25 L 10.576172 11.5 L 10.125 11.5 L 9 11.5 L 9 11.625 L 9.625 11.625 L 9.625 11.75 L 10.662109 11.75 L 10.75 12 L 3.125 12 L 4.75 7 L 4.75 2 L 4 0.625 z " />
</svg>
