<?xml version="1.0" encoding="UTF-8" standalone="no"?>
<svg
   version="1.1"
   width="14"
   height="14"
   viewBox="0 0 14 14"
   id="svg2"
   xmlns="http://www.w3.org/2000/svg"
   xmlns:svg="http://www.w3.org/2000/svg">
  <defs
     id="defs1" />
  <rect
     width="14"
     height="14"
     x="0"
     y="0"
     id="canvas"
     style="fill:none;stroke:none;visibility:hidden" />
  <path
     id="path1-33-2"
     style="fill:#000000"
     d="M 2.5 0 L 2.5 3 L 3.5 3 L 3.5 4 L 3 4 L 2.5 13 L 1 13 L 1 14 L 3.25 14 L 3.875 4 L 4 4 L 10 4 L 10 4.5 L 9 4.5 L 9 4.75 L 8 4.75 L 8 5 L 9.375 5 L 10 5 L 10.027344 5.5 L 9 5.5 L 9 5.75 L 8.125 5.75 L 8.125 6 L 9.5 6 L 10.056641 6 L 10.083984 6.5 L 9.125 6.5 L 9.125 6.75 L 8.125 6.75 L 8.125 7 L 9.5 7 L 10.111328 7 L 10.138672 7.5 L 9.125 7.5 L 9.125 7.75 L 8.25 7.75 L 8.25 8 L 9.625 8 L 10.167969 8 L 10.195312 8.5 L 9.25 8.5 L 9.25 8.75 L 8.25 8.75 L 8.25 9 L 9.625 9 L 10.222656 9 L 10.25 9.5 L 9.25 9.5 L 9.25 9.75 L 8.375 9.75 L 8.375 10 L 9.75 10 L 10.279297 10 L 10.306641 10.5 L 9.375 10.5 L 9.375 10.75 L 8.375 10.75 L 8.375 11 L 9.75 11 L 10.333984 11 L 10.361328 11.5 L 9.375 11.5 L 9.375 11.75 L 8.5 11.75 L 8.5 12 L 9.875 12 L 10.390625 12 L 10.417969 12.5 L 9.5 12.5 L 9.5 12.75 L 8.5 12.75 L 8.5 13 L 9.875 13 L 10.445312 13 L 10.472656 13.5 L 9.5 13.5 L 9.5 13.75 L 8 13.75 L 8 14 L 9.6875 14 L 10.75 14 L 13 14 L 13 13 L 11.5 13 L 11 4 L 10.5 4 L 10.5 3 L 11.5 3 L 11.5 0 L 10 0 L 10 1 L 8 1 L 8 0 L 6 0 L 6 1 L 4 1 L 4 0 L 2.5 0 z M 3 1.5 L 10.625 1.5 L 10.625 2.25 L 3 2.25 L 3 1.5 z M 4 2.5 L 9.5 2.5 L 9.5 3.5 L 4 3.5 L 4 2.625 L 4 2.5 z M 5.953125 6 C 4.9992723 6.030281 5 7 5 7 L 5 8 L 7 8 L 7 7 C 7 7 6.999999 6 6 6 C 5.984375 6 5.9682655 5.9995193 5.953125 6 z M 6 11.5 C 4.7770412 11.5 4.5 13.000001 4.5 14 L 7.5 14 C 7.5 13.000001 7.2738487 11.5267 6 11.5 z " />
</svg>
