<?xml version="1.0" encoding="UTF-8" standalone="no"?>
<svg
   version="1.1"
   width="14"
   height="14"
   viewBox="0 0 14 14"
   id="svg2"
   xmlns="http://www.w3.org/2000/svg"
   xmlns:svg="http://www.w3.org/2000/svg">
  <defs
     id="defs1" />
  <rect
     width="14"
     height="14"
     x="0"
     y="0"
     id="canvas"
     style="fill:none;stroke:none;visibility:hidden" />
  <path
     id="path101-5-5-3"
     style="fill:#000000"
     d="M 7.7890625 0.009765625 L 7.7890625 1.0097656 C 9.2003641 1.0631656 10.676454 1.857027 11.486328 3.2597656 C 12.296202 4.6625042 12.284412 6.2510812 11.625 7.5 L 12.539062 8.1347656 C 13.289062 6.759767 13.493405 4.6745187 12.378906 2.7441406 C 11.264402 0.81377256 9.6640606 0.009765625 7.7890625 0.009765625 z M 7.7890625 2.1347656 L 7.7890625 3.1347656 C 8.4898628 3.1547656 9.3573366 3.5728863 9.7539062 4.2597656 C 10.150481 4.9466549 10.137787 5.7307669 9.8046875 6.3476562 L 10.664062 6.8847656 C 11.039062 6.2597663 11.310697 4.9575744 10.619141 3.7597656 C 10.001489 2.6899567 8.7890615 2.1347656 7.7890625 2.1347656 z M 6.5 4 A 2.5 2.5 0 0 0 4 6.5 A 2.5 2.5 0 0 0 4.6308594 8.1484375 L 4.6875 8.375 L 4.125 8.375 L 4.125 9 L 5 9 L 5 13 L 3 14 L 5 14 L 8 14 L 10 14 L 8 13 L 8 9 L 8.875 9 L 8.875 8.375 L 8.3125 8.375 L 8.3691406 8.1484375 A 2.5 2.5 0 0 0 9 6.5 A 2.5 2.5 0 0 0 6.5 4 z M 6.4375 4.5 A 1.9374999 1.9374999 0 0 1 6.7734375 4.53125 L 6.7734375 4.625 L 7.1191406 4.625 A 1.9374999 1.9374999 0 0 1 7.7363281 5 L 7.25 5 L 7.25 5.125 L 7.8613281 5.125 A 1.9374999 1.9374999 0 0 1 8.1328125 5.5 L 7.5 5.5 L 7.5 5.625 L 8.1953125 5.625 A 1.9374999 1.9374999 0 0 1 8.3242188 6 L 7.625 6 L 7.625 6.125 L 8.3476562 6.125 A 1.9374999 1.9374999 0 0 1 8.375 6.4375 A 1.9374999 1.9374999 0 0 1 8.3691406 6.5 L 7.625 6.5 L 7.625 6.625 L 8.3574219 6.625 A 1.9374999 1.9374999 0 0 1 8.2792969 7 L 7.125 7 L 7.125 7.125 L 8.2363281 7.125 A 1.9374999 1.9374999 0 0 1 8.0351562 7.5 L 6.5 7.5 L 6.5 7.625 L 7.9511719 7.625 A 1.9374999 1.9374999 0 0 1 7.9492188 7.6289062 L 7.8007812 8 L 6.375 8 L 6.375 8.125 L 7.75 8.125 L 7.6503906 8.375 L 5.2246094 8.375 L 5.125 8.125 L 5.875 8.125 L 5.875 8 L 5.0742188 8 L 4.9238281 7.625 L 5.6875 7.625 L 5.6875 7.5 L 4.8457031 7.5 A 1.9374999 1.9374999 0 0 1 4.6425781 7.125 L 5 7.125 L 5 7 L 4.5976562 7 A 1.9374999 1.9374999 0 0 1 4.5195312 6.625 L 4.75 6.625 L 4.75 6.5 L 4.5058594 6.5 A 1.9374999 1.9374999 0 0 1 4.5 6.4375 A 1.9374999 1.9374999 0 0 1 4.53125 6.125 L 4.75 6.125 L 4.75 6 L 4.5546875 6 A 1.9374999 1.9374999 0 0 1 4.6855469 5.625 L 4.828125 5.625 L 4.828125 5.5 L 4.7519531 5.5 A 1.9374999 1.9374999 0 0 1 6.4375 4.5 z M 5.5 9 L 7.25 9 L 7.25 9.125 L 7.25 13 L 7 13 L 7 9.125 L 6.625 9.125 L 6.625 9.375 L 6.875 9.375 L 6.875 13 L 5.5 13 L 5.5 9.25 L 5.875 9.25 L 5.875 9.125 L 5.5 9.125 L 5.5 9 z " />
</svg>
