<?xml version="1.0" encoding="UTF-8" standalone="no"?>
<svg
   version="1.1"
   width="7"
   height="10"
   viewBox="0 0 7 10"
   id="svg2"
   xmlns="http://www.w3.org/2000/svg"
   xmlns:svg="http://www.w3.org/2000/svg">
  <defs
     id="defs1" />
  <rect
     width="7"
     height="10"
     x="0"
     y="0"
     id="canvas"
     style="visibility:hidden;fill:none;stroke:none" />
  <path
     id="rect1-6-8-4"
     style="fill:#000000"
     d="M 3.5 0 A 2.5 2.5 0 0 0 1 2.5 A 2.5 2.5 0 0 0 1.6308594 4.1484375 L 1.6875 4.375 L 1.125 4.375 L 1.125 5 L 2 5 L 2 9 L 0 10 L 2 10 L 5 10 L 7 10 L 5 9 L 5 5 L 5.875 5 L 5.875 4.375 L 5.3125 4.375 L 5.3691406 4.1484375 A 2.5 2.5 0 0 0 6 2.5 A 2.5 2.5 0 0 0 3.5 0 z M 3.4375 0.5 A 1.9374999 1.9374999 0 0 1 3.7734375 0.53125 L 3.7734375 0.625 L 4.1191406 0.625 A 1.9374999 1.9374999 0 0 1 4.7363281 1 L 4.25 1 L 4.25 1.125 L 4.8613281 1.125 A 1.9374999 1.9374999 0 0 1 5.1328125 1.5 L 4.5 1.5 L 4.5 1.625 L 5.1953125 1.625 A 1.9374999 1.9374999 0 0 1 5.3242188 2 L 4.625 2 L 4.625 2.125 L 5.3476562 2.125 A 1.9374999 1.9374999 0 0 1 5.375 2.4375 A 1.9374999 1.9374999 0 0 1 5.3691406 2.5 L 4.625 2.5 L 4.625 2.625 L 5.3574219 2.625 A 1.9374999 1.9374999 0 0 1 5.2792969 3 L 4.125 3 L 4.125 3.125 L 5.2363281 3.125 A 1.9374999 1.9374999 0 0 1 5.0351562 3.5 L 3.5 3.5 L 3.5 3.625 L 4.9511719 3.625 A 1.9374999 1.9374999 0 0 1 4.9492188 3.6289062 L 4.8007812 4 L 3.375 4 L 3.375 4.125 L 4.75 4.125 L 4.6503906 4.375 L 2.2246094 4.375 L 2.125 4.125 L 2.875 4.125 L 2.875 4 L 2.0742188 4 L 1.9238281 3.625 L 2.6875 3.625 L 2.6875 3.5 L 1.8457031 3.5 A 1.9374999 1.9374999 0 0 1 1.6425781 3.125 L 2 3.125 L 2 3 L 1.5976562 3 A 1.9374999 1.9374999 0 0 1 1.5195312 2.625 L 1.75 2.625 L 1.75 2.5 L 1.5058594 2.5 A 1.9374999 1.9374999 0 0 1 1.5 2.4375 A 1.9374999 1.9374999 0 0 1 1.53125 2.125 L 1.75 2.125 L 1.75 2 L 1.5546875 2 A 1.9374999 1.9374999 0 0 1 1.6855469 1.625 L 1.828125 1.625 L 1.828125 1.5 L 1.7519531 1.5 A 1.9374999 1.9374999 0 0 1 3.4375 0.5 z M 2.5 5 L 4.25 5 L 4.25 5.125 L 4.25 9 L 4 9 L 4 5.125 L 3.625 5.125 L 3.625 5.375 L 3.875 5.375 L 3.875 9 L 2.5 9 L 2.5 5.25 L 2.875 5.25 L 2.875 5.125 L 2.5 5.125 L 2.5 5 z " />
</svg>
