<?xml version="1.0" encoding="UTF-8" standalone="no"?>
<svg
   version="1.1"
   width="14"
   height="14"
   viewBox="0 0 14 14"
   id="svg4138"
   xmlns="http://www.w3.org/2000/svg"
   xmlns:svg="http://www.w3.org/2000/svg">
  <defs
     id="defs1" />
  <rect
     width="14"
     height="14"
     x="0"
     y="0"
     id="canvas"
     style="fill:none;stroke:none;visibility:hidden" />
  <path
     d="M 4,0.40625 C 2.23276,1.18557 0.96875,2.9521 0.96875,5 0.96875,7.0479 2.23276,8.81443 4,9.59375 V 8.4375 C 2.80447,7.74671 2,6.48815 2,5 2,3.51185 2.80447,2.25329 4,1.5625 Z m 6,0 V 1.5625 C 11.19553,2.25329 12,3.51185 12,5 12,6.48815 11.19553,7.74671 10,8.4375 V 9.59375 C 11.76724,8.81443 13.03125,7.0479 13.03125,5 13.03125,2.9521 11.76724,1.18557 10,0.40625 Z M 5,2.1875 C 3.842954,2.60436 3,3.70333 3,5 3,6.29667 3.842954,7.39564 5,7.8125 V 6.71875 C 4.403081,6.37403 4,5.74357 4,5 4,4.25643 4.403081,3.62597 5,3.28125 Z m 4,0 V 3.28125 C 9.596919,3.62597 10,4.25643 10,5 10,5.74357 9.596919,6.37403 9,6.71875 V 7.8125 C 10.157046,7.39564 11,6.29667 11,5 11,3.70333 10.157046,2.60436 9,2.1875 Z M 7,3 5.201172,10 2.5996094,14 H 4 L 4.666016,13 H 9.333984 L 10,14 h 1.400391 l -2.59961,-4 z m 0,4 0.75,3 h -1.5 z m -1,4 h 2 l 0.666016,1 H 5.333984 Z"
     id="path1-90"
     style="fill:#000000" />
</svg>
