<?xml version="1.0" encoding="UTF-8" standalone="no"?>
<svg
   version="1.1"
   width="14"
   height="14"
   viewBox="0 0 14 14"
   id="svg4138"
   xmlns="http://www.w3.org/2000/svg"
   xmlns:svg="http://www.w3.org/2000/svg">
  <defs
     id="defs1" />
  <rect
     width="14"
     height="14"
     x="0"
     y="0"
     id="canvas"
     style="fill:none;stroke:none;visibility:hidden" />
  <path
     id="rect1"
     style="fill:#000000"
     d="M 5 0 L 5 11 L 4 11 L 4 12 L 2 12 L 2 14 L 12 14 L 12 12 L 10 12 L 10 11 L 9 11 L 9 0 L 5 0 z M 5.625 0.375 L 8 0.375 L 8 0.5 L 7.625 0.5 L 6.875 0.5 L 6.875 0.75 L 7.625 0.75 L 7.625 1 L 8 1 L 8 1.5 L 7.625 1.5 L 6.875 1.5 L 6.875 1.75 L 7.625 1.75 L 7.625 2 L 8 2 L 8 2.5 L 7.625 2.5 L 6.875 2.5 L 6.875 2.75 L 7.625 2.75 L 7.625 3 L 8 3 L 8 3.5 L 7.625 3.5 L 6.875 3.5 L 6.875 3.75 L 7.625 3.75 L 7.625 4 L 8 4 L 8 4.5 L 7.625 4.5 L 6.875 4.5 L 6.875 4.75 L 7.625 4.75 L 7.625 5 L 8 5 L 8 5.5 L 7.625 5.5 L 6.875 5.5 L 6.875 5.75 L 7.625 5.75 L 7.625 6 L 8 6 L 8 6.5 L 7.625 6.5 L 6.875 6.5 L 6.875 6.75 L 7.625 6.75 L 7.625 7 L 8 7 L 8 7.5 L 7.625 7.5 L 6.875 7.5 L 6.875 7.75 L 7.625 7.75 L 7.625 8 L 8 8 L 8 8.5 L 7.625 8.5 L 6.875 8.5 L 6.875 8.75 L 7.625 8.75 L 7.625 9 L 8 9 L 8 9.5 L 7.625 9.5 L 6.875 9.5 L 6.875 9.75 L 7.625 9.75 L 7.625 10 L 8 10 L 8 10.5 L 7.625 10.5 L 6.875 10.5 L 6.875 10.75 L 7.625 10.75 L 7.625 11 L 5.625 11 L 5.625 0.375 z M 3 0.40625 C 1.386585 1.117736 0.19562607 2.6526097 0 4.4726562 L 0 5.5273438 C 0.19562607 7.3473903 1.386585 8.882264 3 9.59375 L 3 8.4375 C 1.8044724 7.7467114 1 6.488147 1 5 C 1 3.511853 1.8044724 2.2532886 3 1.5625 L 3 0.40625 z M 11 0.40625 L 11 1.5625 C 12.195528 2.2532886 13 3.511853 13 5 C 13 6.488147 12.195528 7.7467114 11 8.4375 L 11 9.59375 C 12.613415 8.882264 13.804374 7.3473903 14 5.5273438 L 14 4.4726562 C 13.804374 2.6526097 12.613415 1.117736 11 0.40625 z M 4 2.1875 C 2.8429564 2.6043592 2 3.7033326 2 5 C 2 6.2966674 2.8429564 7.3956408 4 7.8125 L 4 6.71875 C 3.4030822 6.3740306 3 5.7435686 3 5 C 3 4.2564314 3.4030822 3.6259694 4 3.28125 L 4 2.1875 z M 10 2.1875 L 10 3.28125 C 10.596917 3.6259694 11 4.2564314 11 5 C 11 5.7435686 10.596917 6.3740306 10 6.71875 L 10 7.8125 C 11.157044 7.3956408 12 6.2966674 12 5 C 12 3.7033326 11.157044 2.6043592 10 2.1875 z " />
</svg>
