<?xml version="1.0" encoding="UTF-8" standalone="no"?>
<svg
   version="1.1"
   width="6"
   height="15"
   viewBox="0 0 6 15"
   id="svg2"
   xmlns="http://www.w3.org/2000/svg"
   xmlns:svg="http://www.w3.org/2000/svg">
  <defs
     id="defs1" />
  <rect
     width="6"
     height="15"
     x="0"
     y="0"
     id="canvas"
     style="visibility:hidden;fill:none;stroke:none" />
  <path
     id="rect98-3-2-2"
     style="fill:#000000"
     d="M 3,0 C 2.3750006,0 2,0.875 2,0.875 L 1,3 V 5 H 0 v 0.5 1 l 1,2 v 6 H 0 V 15 H 1 1.625 6 V 14.5 H 5 v -6 l 1,-2 V 5.125 5 H 5 V 3 L 4,0.875 C 4,0.875 3.6249994,0 3,0 Z M 2.875,0.875 c 0.1703998,0 0.25,0.25 0.25,0.25 L 3.5332031,2 H 2.875 v 0.25 h 0.75 V 2.5 H 3.7675781 L 4,3 H 3.625 2.875 v 0.25 h 0.75 V 3.5 H 4 V 4 H 3.625 2.875 v 0.25 h 0.75 V 4.5 H 4 V 5 H 1.625 V 3 L 2.5,1.125 c 0,0 0.1250002,-0.25 0.375,-0.25 z M 0.625,5.5 h 2.25 V 5.75 H 3.75 V 6 H 5 v 0.5 h -1.125 -1 V 6.75 H 3.75 V 7 h 1 L 4.5,7.5 H 3.625 2.875 v 0.25 h 0.75 V 8 H 4.25 L 4,8.5 H 3.625 3.25 2.25 V 8.625 H 2.875 V 8.75 h 0.75 V 9 H 4 V 9.5 H 3.625 2.875 v 0.25 h 0.75 V 10 H 4 v 0.5 H 3.625 2.875 v 0.25 h 0.75 V 11 H 4 v 0.5 H 3.625 2.875 v 0.25 h 0.75 V 12 H 4 v 0.5 H 3.75 3 v 0.25 H 3.5 V 13 H 4 v 0.5 H 3.75 3 v 0.25 H 3.5 V 14 H 4 v 0.5 H 1.625 v -6 l -1,-2 z" />
</svg>
