<?xml version="1.0" encoding="UTF-8" standalone="no"?>
<svg
   version="1.1"
   width="14"
   height="14"
   viewBox="0 0 14 14"
   id="svg2"
   xmlns="http://www.w3.org/2000/svg"
   xmlns:svg="http://www.w3.org/2000/svg">
  <defs
     id="defs1" />
  <rect
     width="14"
     height="14"
     x="0"
     y="0"
     id="canvas"
     style="fill:none;stroke:none;visibility:hidden" />
  <path
     id="path1-67-6-2"
     style="fill:#000000"
     d="M 7 0 L 2 2 L 2 6 L 4 6 L 3.0625 13.5 L 2 13.5 L 2 14 L 4 14 L 7 11.75 L 10 14 L 12 14 L 12 13.5 L 10.9375 13.5 L 10 6 L 12 6 L 12 2 L 7 0 z M 3 3 L 5 3 L 5 5 L 3 5 L 3 3 z M 6 3 L 8 3 L 8 5 L 6 5 L 6 3 z M 9 3 L 11 3 L 11 5 L 9 5 L 9 3 z M 5.3339844 6 L 8.6660156 6 L 7 7.25 L 5.3339844 6 z M 4.9433594 6.4570312 L 6.5 7.625 L 4.6210938 9.0351562 L 4.9433594 6.4570312 z M 9.0566406 6.4570312 L 9.3789062 9.0332031 L 7.5 7.625 L 9.0566406 6.4570312 z M 7 8 L 8.9707031 9.4785156 L 7 10.875 L 5.0292969 9.4785156 L 7 8 z M 4.5136719 9.8847656 L 6.4003906 11.300781 L 4.1367188 12.902344 L 4.5136719 9.8847656 z M 9.4863281 9.8867188 L 9.8632812 12.902344 L 7.5996094 11.300781 L 9.4863281 9.8867188 z " />
</svg>
