<?xml version="1.0" encoding="UTF-8" standalone="no"?>
<!-- Created with Inkscape (http://www.inkscape.org/) -->

<svg
   version="1.1"
   width="14"
   height="14"
   viewBox="0 0 14 14"
   id="svg2"
   xmlns="http://www.w3.org/2000/svg"
   xmlns:svg="http://www.w3.org/2000/svg">
  <defs
     id="defs1" />
  <rect
     width="14"
     height="14"
     x="0"
     y="0"
     id="canvas"
     style="fill:none;stroke:none;visibility:hidden" />
  <path
     id="rect82"
     style="fill:#000000"
     d="M 2 0 L 2 3.5 C 2 4.9469186 2.7905511 5.9802706 3.90625 6.625 L 3 14 L 4.5 14 L 4.6875 12.53125 L 7 11 L 9.3125 12.5625 L 9.5 14 L 11 14 L 10.09375 6.65625 C 11.218209 6.0132706 12 4.9628085 12 3.5 L 12 0 L 11 0 L 11 1.5 L 10 1.5 C 8.8728811 1.9999995 7.999999 1.9999995 7 1.5 C 6.000001 1.0000005 5.038139 1.0000005 4 1.5 L 3 1.5 L 3 0 L 2 0 z M 5.5371094 2.1269531 C 6.0184564 2.1276744 6.482328 2.2528852 6.9765625 2.5 C 7.9881315 3.0057795 8.8665611 2.9999995 10 2.5 L 11 2.5 L 11 2.625 L 10.001953 2.625 L 10 2.625 C 9.8927913 2.6714104 9.7874341 2.712378 9.6835938 2.75 L 11 2.75 L 11 3 L 3 3 L 3 2.75 L 7.2617188 2.75 C 7.1599278 2.7086871 7.0581324 2.6635076 6.9550781 2.6113281 C 6.8726421 2.5706627 6.7912671 2.533882 6.7109375 2.5 L 4.3320312 2.5 C 4.2420239 2.5347341 4.1504607 2.5713506 4.0566406 2.6132812 L 4.0332031 2.625 L 3 2.625 L 3 2.5 L 3.9980469 2.5 C 4.5571113 2.2500002 5.0557624 2.1262319 5.5371094 2.1269531 z M 3 3.25 L 11 3.25 L 11 3.5 L 3 3.5 L 3 3.25 z M 3.0175781 3.75 L 10.982422 3.75 C 10.972294 3.8346864 10.957621 3.9175715 10.9375 4 L 3.0625 4 C 3.0423789 3.9175715 3.0277062 3.8346864 3.0175781 3.75 z M 3.1367188 4.25 L 10.863281 4.25 C 10.831389 4.3350983 10.794172 4.4182192 10.751953 4.5 L 3.2480469 4.5 C 3.2058279 4.4182192 3.1686106 4.3350983 3.1367188 4.25 z M 3.3964844 4.75 L 10.603516 4.75 C 10.545464 4.8362886 10.477535 4.9187791 10.408203 5 L 3.5917969 5 C 3.5224654 4.9187791 3.4545361 4.8362886 3.3964844 4.75 z M 3.8320312 5.25 L 10.167969 5.25 C 10.074565 5.337217 9.9755884 5.4211165 9.8691406 5.5 L 4.1308594 5.5 C 4.0244116 5.4211165 3.9254349 5.337217 3.8320312 5.25 z M 4.5136719 5.75 L 9.4863281 5.75 C 9.3238098 5.8428947 9.1504159 5.9259289 8.96875 6 L 5.03125 6 C 4.8495841 5.9259289 4.6761902 5.8428947 4.5136719 5.75 z M 5.8320312 6.25 L 8.1679688 6.25 C 7.7983719 6.3310063 7.406467 6.375 7 6.375 C 6.593533 6.375 6.2016281 6.3310063 5.8320312 6.25 z M 5.34375 7.1875 C 6.4129689 7.4546597 7.5864311 7.4811697 8.65625 7.21875 L 8.84375 8.78125 L 7 10 L 5.15625 8.78125 L 5.34375 7.1875 z M 5.03125 9.6875 L 6.25 10.5 L 4.8125 11.46875 L 5.03125 9.6875 z M 8.96875 9.6875 L 9.1875 11.46875 L 7.75 10.5 L 8.96875 9.6875 z " />
</svg>
