<?xml version="1.0" encoding="UTF-8" standalone="no"?>
<svg
   id="Svg"
   width="18"
   height="17"
   version="1.1"
   xmlns="http://www.w3.org/2000/svg"
   xmlns:svg="http://www.w3.org/2000/svg">
  <rect
     width="18"
     height="17"
     rx="0"
     x="0"
     y="0"
     id="rect8566"
     style="fill:none;fill-opacity:1;stroke:none" />
  <path
     id="rect29495"
     style="fill:#999999"
     d="M 3.515625,2.3 3.234375,2.4210938 3.2148438,2.7609375 3.4140625,2.9210938 3.6953125,2.940625 3.8964844,2.6808594 3.7558594,2.3800781 Z M 7.6484375,2.7160156 7.3027344,3.0421875 7.4980469,3.4816406 7.90625,3.5128906 8.1757812,3.2394531 8.0820312,2.8058594 Z m 4.5019535,0.09375 -0.16211,0.4472656 0.355469,0.2949219 0.376953,-0.2988281 -0.121094,-0.4257812 z m 4.820312,0.048828 -0.482422,0.025391 -0.173828,0.3691406 0.162109,0.3496094 0.4375,0.068359 0.238282,-0.3769532 z M 2.3300781,3.6222656 2.109375,3.753125 1.9902344,4.0089844 2.1640625,4.2882812 2.4941406,4.2648438 2.6542969,4.0675781 2.6425781,3.7628906 Z M 6.5644531,3.9757812 6.3417969,4.1066406 6.2246094,4.3625 6.3964844,4.6417969 6.7285156,4.6164062 6.8886719,4.4210938 6.875,4.1144531 Z m 4.4550779,0.015625 -0.140625,0.1699219 -0.06055,0.2265625 0.164063,0.2578125 h 0.24414 l 0.191407,-0.1367187 0.103515,-0.2929688 -0.234375,-0.1875 z m 3.996094,0.5273438 -0.345703,0.3242188 0.195312,0.4414062 0.408204,0.03125 0.269531,-0.2753906 -0.09375,-0.4335938 z M 1.1816406,4.6144531 1.0175781,5.0617188 1.375,5.3566406 1.7519531,5.0558594 1.6308594,4.6320312 Z m 4.625,0.3769531 -0.34375,0.00195 -0.1640625,0.1406282 -0.1191406,0.1757812 0.2324219,0.2558594 0.1953125,0.1171875 0.1875,-0.1230469 0.1054687,-0.296875 z m 4.3339844,0.066406 -0.40625,0.1933594 0.0625,0.4726562 L 10.25,5.8195312 10.445312,5.378125 Z M 0.54101562,5.3683594 0.359375,5.5324219 0.30664062,5.7609375 0.421875,6.05 0.72265625,6.034375 0.94726562,5.8859375 0.94140625,5.6632812 0.83398438,5.4542969 Z M 14.359375,5.4152344 13.953125,5.6085938 14.017575,6.08125 14.4707,6.176953 14.664059,5.7355468 Z m 3.585937,0.5742187 -0.302734,0.1601563 -0.08008,0.2011718 -0.02539,0.2128907 0.324219,0.1171875 0.13086,0.00586 V 6.034375 Z M 4.6875,6.003125 4.3730469,6.0089844 4.1523438,6.1925781 4.2753906,6.5148438 4.4648438,6.6183594 4.671875,6.6671875 4.828125,6.3585938 4.8691406,6.1339844 Z M 0,6.065625 V 6.6886719 L 0.06445312,6.6925781 0.171875,6.4972656 0.12890625,6.1867188 Z m 9.1074219,0 -0.2910157,0.1757812 -0.017578,0.2558594 0.1425781,0.2441406 0.328125,0.015625 L 9.4375,6.471875 9.3671875,6.2277344 Z M 3.8945312,6.2921875 3.6386719,6.3039062 3.4140625,6.4757812 3.4375,6.8039062 3.7421875,6.9347656 3.9746094,6.8371094 4.1054688,6.5597656 Z m 9.3867188,0.023437 -0.330078,0.087891 0.02344,0.2851563 0.117188,0.2519531 0.304687,0.087891 0.248047,-0.1464844 0.0039,-0.2890624 -0.236329,-0.1152344 z m 3.855469,0.044922 -0.19336,0.2832031 0.02148,0.2148438 0.07813,0.1992187 0.341797,-0.046875 0.207031,-0.09375 0.0059,-0.2246094 -0.183594,-0.2558593 z m -8.6894534,0.236328 -0.2851562,0.1367188 -0.087891,0.2734374 0.1875,0.21875 0.2539066,-0.070312 0.2070312,0.035156 0.1875,-0.2851562 -0.2050781,-0.1972657 z m 4.2558594,0.3652344 -0.175781,0.2929687 0.0957,0.2226563 -0.28125,-0.1621094 -0.351563,0.3203125 0.04687,0.1113281 -0.255859,0.00781 -0.08398,0.4765625 0.01563,0.00977 -0.22461,0.097656 L 11.3125,8.2003906 11.044922,8.1632812 10.917969,8.3175781 10.875,8.1945312 l -0.34375,0.00195 -0.164062,0.140625 -0.119141,0.1757812 0.232422,0.2558594 0.195312,0.1171875 0.1875,-0.125 0.03906,-0.109375 0.105468,0.1679687 0.244141,-0.00195 0.1875,-0.1347656 v 0.00781 l 0.201172,0.1601562 0.269531,0.019531 -0.0078,0.00586 0.02148,0.328125 0.304688,0.1328125 0.23437,-0.09961 L 12.59375,8.9621094 12.5,8.8410156 l 0.04297,0.023437 0.232422,-0.03125 0.05859,-0.052734 0.0918,0.080078 0.113281,0.00195 0.13086,0.1386719 0.21875,0.085937 0.277344,-0.1289063 0.0059,-0.046875 0.162109,-0.025391 0.16211,-0.109375 0.154297,0.1523437 0.363281,-0.1523437 0.08789,0.046875 0.103516,0.025391 -0.04883,0.023437 -0.08789,0.2734375 0.1875,0.2207031 0.253907,-0.072266 0.207031,0.037109 0.1875,-0.2871094 -0.207031,-0.1972656 0.0332,-0.00195 0.160156,-0.1972657 -0.0098,-0.2675781 0.05274,0.0625 0.253906,-0.072266 0.07227,0.011719 -0.115235,0.2675782 0.140625,0.1992187 0.220703,0.080078 0.300782,-0.080078 0.01953,-0.3007812 -0.119141,-0.2402344 -0.220703,-0.019531 -0.02148,0.00781 0.115234,-0.1757813 -0.205078,-0.1972656 -0.255859,-0.109375 -0.28711,0.1347656 -0.08789,0.2734375 0.08594,0.099609 -0.263672,-0.1171875 -0.136718,0.082031 -0.105469,-0.076172 -0.314453,0.00586 -0.08399,0.070312 -0.36914,-0.085937 -0.0957,0.1503906 -0.06836,-0.058594 -0.232422,-0.023437 -0.267578,0.1445312 -0.07813,-0.039062 -0.03906,-0.125 -0.222657,-0.03125 -0.199218,0.1074218 -0.189454,-0.1367187 -0.203124,0.085937 -0.158204,0.171875 0.01953,0.25 -0.197266,0.00977 -0.185547,0.1425781 0.181641,-0.2382812 -0.07227,-0.15625 0.02148,0.013672 0.34961,-0.2851563 -0.0625,-0.1542969 0.285156,-0.054687 0.08789,-0.421875 0.138672,0.085937 0.298828,-0.1367187 0.01563,-0.3320313 L 13.00782,6.9855469 Z M 3.5273438,7.08125 3.2519531,7.2316406 3.1425781,7.4972656 3.4003906,7.7238281 3.6171875,7.7277344 3.8242188,7.675 3.8183594,7.3292969 3.75,7.1125 Z m 14.0644532,0.070312 -0.339844,0.021484 -0.134765,0.21875 0.01367,0.28125 0.283203,0.1679687 0.28125,-0.1757812 0.05078,-0.2480469 z M 7.8847656,7.2472656 7.5566406,7.4484375 7.5429688,7.8917969 7.9433594,8.08125 8.3574219,7.8488281 8.2734375,7.3742188 Z m 9.0468754,0.3554688 -0.480469,0.027344 -0.173828,0.3691407 0.160156,0.3496093 0.158203,0.023437 -0.148437,0.1621094 0.05859,0.2148438 0.152344,0.1777343 0.306641,0.011719 0.115234,-0.1679688 0.277344,0.2207031 0.376953,-0.1621093 0.08398,-0.28125 0.169922,0.1503906 h 0.0039 V 8.1242188 l -0.152344,0.083984 -0.06836,0.1660157 -0.210937,-0.2539063 -0.425781,0.1230469 -0.07227,0.2089844 -0.111328,-0.15625 0.162109,-0.2558594 z M 2.6796875,7.7667969 2.4433594,7.9582031 2.4746094,8.2023438 2.5625,8.2980469 2.53125,8.4777344 2.4511719,8.425 2.3867188,8.3351562 2.2832031,8.3664062 2.2128906,8.3449219 2.15625,8.4054688 2.0996094,8.4230469 2.09375,8.4289062 2.0175781,8.2570312 1.7988281,8.0988281 1.59375,8.1847656 1.5605469,8.221875 1.4082031,8.1554688 1.2070312,8.2511719 1.2851562,8.0890625 1.0742188,7.8195312 0.81835938,7.8332031 0.59375,8.0050781 0.6171875,8.3332031 0.921875,8.4640625 1.0917969,8.3917969 1.0351562,8.565625 l 0.1875,0.21875 0.2539063,-0.070312 0.125,0.021484 0.076172,0.039063 0.2324218,-0.03125 0.033203,-0.029297 0.033203,0.1191406 0.1523437,0.1777344 0.023438,0.00195 0.03125,0.048828 0.1660156,-0.041016 0.083984,0.00391 0.019531,-0.029297 0.064453,-0.015625 0.1269531,-0.1777344 0.00977,-0.023437 0.2128906,0.1367188 0.3417969,-0.2792969 0.00781,0.03125 0.265625,0.1542969 0.2148437,-0.1152344 0.00195,-0.00391 0.1347656,0.029297 0.1679687,0.1269532 0.1738281,-0.097656 0.060547,0.1816406 0.1328143,-0.00195 0.019531,0.2871094 L 4.6933594,9.3605469 4.8945312,9.2746094 4.9707031,9.448437 5.2089844,9.596875 5.4375,9.491406 5.2714844,9.651563 l 0.070312,0.46875 0.4746093,0.08984 L 6.0742188,9.891797 6,9.514844 5.5917969,9.3449219 5.5097656,9.4230469 5.5234375,9.128125 5.3476562,8.9445312 5.0429688,8.9210938 5.0273438,8.9464844 4.8457031,8.7160156 4.7871091,8.7199256 4.7929691,8.6984416 4.9570315,8.6867226 5.0898441,8.52266 5.0996141,8.67891 5.3085985,8.762894 5.6113281,8.6828125 5.78125,8.4503906 5.5859375,8.1691406 5.3769531,8.1144531 H 5.1640625 L 5.1113281,8.3449219 5.1035156,8.1847656 4.7929688,8.0460938 4.5703125,8.1769531 4.5175781,8.2921875 4.4472656,8.2511719 4.2109375,8.4269531 4.2089844,8.4230469 4.0332031,8.20625 3.7597656,8.1945312 v -0.00586 L 3.4648438,8.1320312 3.2109375,8.221875 3.1640625,8.4386719 3.1972656,8.5792969 3.0625,8.2394531 3.09375,8.1867191 3.09961,7.9171878 2.91211,7.7980472 Z M 5.9863281,7.9582031 5.7304688,8.1632812 5.7949218,8.4875 l 0.2128906,0.1367188 0.033203,-0.00586 0.00391,0.035156 0.1582031,0.1738282 0.3027344,0.070312 0.056641,-0.091797 0.28125,0.2148437 0.4179688,-0.1445312 0.011719,-0.1445313 0.074219,-0.078125 0.1894532,0.087891 0.2617187,-0.027344 0.080078,0.064453 0.2792969,0.019531 0.097656,-0.1269531 0.1132812,0.023437 0.039063,0.03125 -0.015625,0.060547 0.1523438,0.1621094 0.21875,0.085937 0.275386,-0.1308569 0.023437,-0.2070312 0.296875,0.089844 0.099609,0.203125 0.4433594,-0.017578 0.041016,-0.0625 L 10.132812,8.7335938 10.177734,8.4484375 9.9824219,8.346875 9.8632812,8.1925781 9.5878906,8.2375 9.4960938,8.0929688 9.0351562,8.2140625 9.0058594,8.5480469 8.9550781,8.4542969 8.6914062,8.3214844 8.5683594,8.1691406 8.25,8.1554688 8.1796875,8.2238281 7.9785156,8.1554688 7.8378906,8.2160156 7.6835938,8.0675781 7.4472656,8.128125 7.3339844,8.2570312 7.3144531,8.1613281 6.8789062,8.0734375 6.6152344,8.3214844 6.6035156,8.3273438 6.4824219,8.2511719 6.4042969,8.2394531 6.2539062,8.0441406 Z M 0.18359375,8.1125 0,8.2140625 v 0.4941406 l 0.05664062,0.048828 0.21679688,0.00195 0.0195313,-0.00391 L 0.265625,8.7902344 0.35351562,8.9132812 0.01367188,8.7492188 0,8.7667969 V 9.501172 L 0.37890625,9.425 l 0.0449219,-0.4121094 0.1171875,0.1660156 0.4453125,-0.125 -0.03125,-0.4824218 L 0.53710938,8.4308594 0.4765625,8.5109375 0.47460938,8.3625 0.40625,8.14375 Z M 17.978516,8.7394531 17.683594,9.1203125 17.904297,9.503125 17.992187,9.485545 V 8.7453125 Z M 9.5917969,9.003125 9.2070312,9.0304688 8.9902344,9.4152344 9.2558594,9.770703 9.7285156,9.757031 9.875,9.2960938 Z M 1.3652344,9.1300781 1.1835938,9.2941406 1.1308594,9.522656 1.2460938,9.811719 1.546875,9.796094 1.7714844,9.647656 1.765625,9.425 1.6582031,9.2160156 Z m 8.9355466,0.2382813 -0.205078,0.083985 -0.158203,0.173828 0.023437,0.304687 0.218751,0.1132816 0.232421,-0.03125 0.228516,-0.2109376 -0.121094,-0.277344 z m 5.242188,0.1093746 -0.324219,0.0625 -0.09375,0.31836 0.126953,0.21875 0.291016,0.0957 0.240234,-0.242188 -0.04297,-0.251953 z M 6.4921875,9.675 6.140625,9.997266 l 0.1777344,0.425781 0.4746094,-0.08984 0.089844,-0.43164 z M 1.9160156,9.89375 1.7734375,10.063672 1.7148435,10.290234 1.8769528,10.55 2.1230466,10.548 2.3124997,10.411281 2.4179685,10.118312 2.1816403,9.930812 Z m 8.9746094,0.267578 -0.318359,0.306641 0.07031,0.46875 0.47461,0.08984 0.257812,-0.31836 -0.07422,-0.378906 z m 4.982422,0.04883 -0.193359,0.283203 0.02148,0.216797 0.07813,0.199219 0.341797,-0.04687 0.07422,-0.0332 -0.132812,0.144531 0.101562,0.242188 -0.0098,0.208984 0.304687,0.152344 0.171875,-0.228516 0.07813,-0.265625 -0.167968,-0.269531 -0.222657,-0.04297 0.0098,-0.0039 0.0059,-0.22461 -0.183593,-0.253906 z m -8.513672,0.07031 -0.4023438,0.06641 -0.1953124,0.332031 0.1933593,0.398438 0.4433594,-0.01758 0.2558594,-0.398438 z m -4.4433594,0.240234 -0.3847656,0.02734 -0.2167969,0.386719 0.2675781,0.353515 0.4628907,-0.01367 -0.070312,0.113282 0.013672,0.28125 0.2832032,0.167968 0.28125,-0.175781 0.050781,-0.25 -0.1542968,-0.263672 -0.3398438,0.02149 -0.042969,0.07031 0.1347654,-0.423828 z m 8.9042964,0.04883 -0.326171,0.246094 -0.01953,0.384766 0.357422,0.263672 0.384766,-0.222657 0.04101,-0.470703 z m -3.945312,0.3125 -0.4375,0.201172 0.015625,0.441406 0.4316406,0.125 0.265625,-0.396484 z m 9.289062,0.234375 -0.287109,0.08789 -0.183594,0.199219 0.06055,0.21289 0.152344,0.177735 0.304688,0.01367 0.138671,-0.203126 -0.0039,-0.234374 z m -4.298828,0.330078 -0.326172,0.201172 -0.01367,0.44336 0.40039,0.189453 0.41211,-0.232422 -0.08399,-0.47461 z m -4.333984,0.04492 -0.4628906,0.01563 -0.083984,0.47461 0.3710938,0.238281 0.3496093,-0.285156 z m 9.125,0.248047 -0.220703,0.13086 -0.119141,0.255859 0.173828,0.279297 0.330078,-0.02539 0.160157,-0.195312 -0.01367,-0.306641 z m -13.7167969,0.06445 -0.2714843,0.150391 0.052734,0.296875 0.1738281,0.203125 0.21875,-0.0332 0.1953126,-0.13086 0.048828,-0.300781 -0.1835938,-0.160156 z m 5.5136719,0.816407 -0.2773438,0.04687 -0.1308593,0.300782 0.2070312,0.259765 0.2539063,0.01953 L 9.7480469,13.063672 9.6875,12.727734 Z m 4.791016,0.05664 -0.320313,0.126953 -0.179687,0.142578 0.04883,0.21875 0.240234,0.203125 0.285156,0.0078 0.121094,-0.320313 -0.07422,-0.205078 z M 0.60351562,12.79609 0.1484375,12.924996 l -0.03125,0.480469 0.34570312,0.216797 0.3671875,-0.119141 0.11914063,-0.425781 z m 4.46289058,0.08984 -0.2207031,0.08008 -0.1210937,0.28125 0.140625,0.199218 0.2207031,0.08008 0.3007813,-0.08008 0.021484,-0.300781 -0.1210937,-0.240234 z m 10.1679688,0.916016 -0.21875,0.08594 -0.171875,0.259765 0.183594,0.238281 0.25,0.09961 0.177734,-0.13086 0.113281,-0.205078 -0.0957,-0.291015 z m -8.9433594,0.06055 -0.4140625,0.246094 0.019531,0.408203 0.3046875,0.234375 0.4199219,-0.142578 0.035156,-0.44336 z m 4.2968754,0.07227 -0.22461,0.04297 -0.05859,0.216797 0.117187,0.291016 0.25,0.140625 0.255859,-0.228516 0.0293,-0.214843 -0.02539,-0.210938 z m -8.7695316,0.111328 -0.4375,0.06836 -0.072266,0.445313 0.4257812,0.214843 0.3359375,-0.318359 z" />
</svg>
