<?xml version="1.0" encoding="UTF-8" standalone="no"?>
<svg
   version="1.1"
   height="23"
   width="3"
   xmlns="http://www.w3.org/2000/svg"
   xmlns:svg="http://www.w3.org/2000/svg">
  <path
     d="M 1 5.111111111111111 L 1.5 -1.77635683940025e-15 2 5.111111111111111 1.5 10.222222222222221 Z M 2 17.88888888888889 L 1.5 23 1 17.88888888888889 1.5 12.777777777777779 Z M 1.697545161008064 11.009607359798384 L 1.791341716182545 11.038060233744357 1.877785116509801 11.084265193848728 1.953553390593274 11.146446609406727 2.015734806151272 11.2222148834902 2.061939766255644 11.308658283817454 2.090392640201615 11.402454838991936 2.1 11.5 2.090392640201615 11.597545161008064 2.061939766255644 11.691341716182546 2.015734806151273 11.7777851165098 1.953553390593274 11.853553390593273 1.877785116509801 11.915734806151272 1.791341716182545 11.961939766255643 1.697545161008064 11.990392640201616 1.6 12 1.4 12 1.302454838991936 11.990392640201614 1.208658283817455 11.961939766255643 1.122214883490199 11.915734806151272 1.046446609406726 11.853553390593273 0.984265193848727 11.7777851165098 0.938060233744356 11.691341716182546 0.909607359798385 11.597545161008064 0.9 11.5 0.909607359798385 11.402454838991936 0.938060233744356 11.308658283817454 0.984265193848727 11.2222148834902 1.046446609406726 11.146446609406727 1.122214883490199 11.084265193848728 1.208658283817455 11.038060233744357 1.302454838991936 11.009607359798384 1.4 11 1.6 11 Z"
     style="fill:#7b7b7b" />
  <rect
     width="3"
     height="23"
     x="0"
     y="0"
     style="fill:none;fill-opacity:1" />
</svg>

