<?xml version="1.0" encoding="UTF-8" standalone="no"?>
<svg
   version="1.1"
   height="17"
   width="3"
   xmlns="http://www.w3.org/2000/svg"
   xmlns:svg="http://www.w3.org/2000/svg">
  <path
     d="M 1 3.777777777777778 L 1.5 0 2 3.777777777777778 1.5 7.555555555555555 Z M 2 13.222222222222221 L 1.5 17 1 13.222222222222221 1.5 9.444444444444445 Z M 1.697545161008064 8.009607359798384 L 1.791341716182545 8.038060233744357 1.877785116509801 8.084265193848728 1.953553390593274 8.146446609406727 2.015734806151272 8.2222148834902 2.061939766255644 8.308658283817454 2.090392640201615 8.402454838991936 2.1 8.5 2.090392640201615 8.597545161008064 2.061939766255644 8.691341716182546 2.015734806151273 8.7777851165098 1.953553390593274 8.853553390593273 1.877785116509801 8.915734806151272 1.791341716182545 8.961939766255643 1.697545161008064 8.990392640201616 1.6 9 1.4 9 1.302454838991936 8.990392640201614 1.208658283817455 8.961939766255643 1.122214883490199 8.915734806151272 1.046446609406726 8.853553390593273 0.984265193848727 8.7777851165098 0.938060233744356 8.691341716182546 0.909607359798385 8.597545161008064 0.9 8.5 0.909607359798385 8.402454838991936 0.938060233744356 8.308658283817454 0.984265193848727 8.2222148834902 1.046446609406726 8.146446609406727 1.122214883490199 8.084265193848728 1.208658283817455 8.038060233744357 1.302454838991936 8.009607359798384 1.4 8 1.6 8 Z"
     style="fill:#7b7b7b" />
  <rect
     width="3"
     height="17"
     x="0"
     y="0"
     style="fill:none;fill-opacity:1" />
</svg>

