<?xml version="1.0" encoding="UTF-8" standalone="no"?>
<svg
   version="1.1"
   height="19"
   width="3"
   xmlns="http://www.w3.org/2000/svg"
   xmlns:svg="http://www.w3.org/2000/svg">
  <path
     d="M 1 4.222222222222222 L 1.5 0 2 4.222222222222222 1.5 8.444444444444445 Z M 2 14.777777777777779 L 1.5 19 1 14.777777777777779 1.5 10.555555555555555 Z M 1.697545161008064 9.009607359798384 L 1.791341716182545 9.038060233744357 1.877785116509801 9.084265193848728 1.953553390593274 9.146446609406727 2.015734806151272 9.2222148834902 2.061939766255644 9.308658283817454 2.090392640201615 9.402454838991936 2.1 9.5 2.090392640201615 9.597545161008064 2.061939766255644 9.691341716182546 2.015734806151273 9.7777851165098 1.953553390593274 9.853553390593273 1.877785116509801 9.915734806151272 1.791341716182545 9.961939766255643 1.697545161008064 9.990392640201616 1.6 10 1.4 10 1.302454838991936 9.990392640201614 1.208658283817455 9.961939766255643 1.122214883490199 9.915734806151272 1.046446609406726 9.853553390593273 0.984265193848727 9.7777851165098 0.938060233744356 9.691341716182546 0.909607359798385 9.597545161008064 0.9 9.5 0.909607359798385 9.402454838991936 0.938060233744356 9.308658283817454 0.984265193848727 9.2222148834902 1.046446609406726 9.146446609406727 1.122214883490199 9.084265193848728 1.208658283817455 9.038060233744357 1.302454838991936 9.009607359798384 1.4 9 1.6 9 Z"
     style="fill:#7b7b7b" />
  <rect
     width="3"
     height="19"
     x="0"
     y="0"
     style="fill:none;fill-opacity:1" />
</svg>

