<?xml version="1.0" encoding="UTF-8" standalone="no"?>
<svg
   version="1.1"
   height="21"
   width="3"
   xmlns="http://www.w3.org/2000/svg"
   xmlns:svg="http://www.w3.org/2000/svg">
  <path
     d="M 1 4.666666666666666 L 1.5 0 2 4.666666666666666 1.5 9.333333333333334 Z M 2 16.333333333333336 L 1.5 21 1 16.333333333333336 1.5 11.666666666666666 Z M 1.697545161008064 10.009607359798384 L 1.791341716182545 10.038060233744357 1.877785116509801 10.084265193848728 1.953553390593274 10.146446609406727 2.015734806151272 10.2222148834902 2.061939766255644 10.308658283817454 2.090392640201615 10.402454838991936 2.1 10.5 2.090392640201615 10.597545161008064 2.061939766255644 10.691341716182546 2.015734806151273 10.7777851165098 1.953553390593274 10.853553390593273 1.877785116509801 10.915734806151272 1.791341716182545 10.961939766255643 1.697545161008064 10.990392640201616 1.6 11 1.4 11 1.302454838991936 10.990392640201614 1.208658283817455 10.961939766255643 1.122214883490199 10.915734806151272 1.046446609406726 10.853553390593273 0.984265193848727 10.7777851165098 0.938060233744356 10.691341716182546 0.909607359798385 10.597545161008064 0.9 10.5 0.909607359798385 10.402454838991936 0.938060233744356 10.308658283817454 0.984265193848727 10.2222148834902 1.046446609406726 10.146446609406727 1.122214883490199 10.084265193848728 1.208658283817455 10.038060233744357 1.302454838991936 10.009607359798384 1.4 10 1.6 10 Z"
     style="fill:#7b7b7b" />
  <rect
     width="3"
     height="21"
     x="0"
     y="0"
     style="fill:none;fill-opacity:1" />
</svg>

