<?xml version="1.0" encoding="UTF-8" standalone="no"?>
<svg
   version="1.1"
   height="15"
   width="3"
   xmlns="http://www.w3.org/2000/svg"
   xmlns:svg="http://www.w3.org/2000/svg">
  <path
     d="M 1 3.333333333333333 L 1.5 0 2 3.333333333333333 1.5 6.666666666666667 Z M 2 11.666666666666668 L 1.5 15 1 11.666666666666668 1.5 8.333333333333334 Z M 1.697545161008064 7.009607359798385 L 1.791341716182545 7.038060233744357 1.877785116509801 7.084265193848728 1.953553390593274 7.146446609406726 2.015734806151272 7.222214883490199 2.061939766255644 7.308658283817455 2.090392640201615 7.402454838991936 2.1 7.5 2.090392640201615 7.597545161008064 2.061939766255644 7.691341716182545 2.015734806151273 7.777785116509801 1.953553390593274 7.853553390593274 1.877785116509801 7.915734806151272 1.791341716182545 7.961939766255643 1.697545161008064 7.990392640201615 1.6 8 1.4 8 1.302454838991936 7.990392640201615 1.208658283817455 7.961939766255643 1.122214883490199 7.915734806151272 1.046446609406726 7.853553390593274 0.984265193848727 7.777785116509801 0.938060233744356 7.691341716182545 0.909607359798385 7.597545161008064 0.9 7.5 0.909607359798385 7.402454838991936 0.938060233744356 7.308658283817455 0.984265193848727 7.222214883490199 1.046446609406726 7.146446609406726 1.122214883490199 7.084265193848728 1.208658283817455 7.038060233744357 1.302454838991936 7.009607359798385 1.4 7 1.6 7 Z"
     style="fill:#7b7b7b" />
  <rect
     width="3"
     height="15"
     x="0"
     y="0"
     style="fill:none;fill-opacity:1" />
</svg>

