<?xml version="1.0" encoding="UTF-8" standalone="no"?>
<svg
   version="1.1"
   height="16"
   width="3"
   xmlns="http://www.w3.org/2000/svg"
   xmlns:svg="http://www.w3.org/2000/svg">
  <path
     d="M 1 3.555555555555555 L 1.5 0 2 3.555555555555555 1.5 7.111111111111111 Z M 2 12.444444444444445 L 1.5 16 1 12.444444444444445 1.5 8.88888888888889 Z M 1.697545161008064 7.509607359798385 L 1.791341716182545 7.538060233744357 1.877785116509801 7.584265193848728 1.953553390593274 7.646446609406726 2.015734806151272 7.722214883490199 2.061939766255644 7.808658283817455 2.090392640201615 7.902454838991936 2.1 8 2.090392640201615 8.097545161008064 2.061939766255644 8.191341716182546 2.015734806151273 8.2777851165098 1.953553390593274 8.353553390593273 1.877785116509801 8.415734806151272 1.791341716182545 8.461939766255643 1.697545161008064 8.490392640201616 1.6 8.5 1.4 8.5 1.302454838991936 8.490392640201614 1.208658283817455 8.461939766255643 1.122214883490199 8.415734806151272 1.046446609406726 8.353553390593273 0.984265193848727 8.2777851165098 0.938060233744356 8.191341716182546 0.909607359798385 8.097545161008064 0.9 8 0.909607359798385 7.902454838991936 0.938060233744356 7.808658283817455 0.984265193848727 7.722214883490199 1.046446609406726 7.646446609406726 1.122214883490199 7.584265193848728 1.208658283817455 7.538060233744357 1.302454838991936 7.509607359798385 1.4 7.5 1.6 7.5 Z"
     style="fill:#7b7b7b" />
  <rect
     width="3"
     height="16"
     x="0"
     y="0"
     style="fill:none;fill-opacity:1" />
</svg>

