<?xml version="1.0" encoding="UTF-8" standalone="no"?>
<svg
   version="1.1"
   height="24"
   width="3"
   xmlns="http://www.w3.org/2000/svg"
   xmlns:svg="http://www.w3.org/2000/svg">
  <path
     d="M 1 5.333333333333334 L 1.5 0 2 5.333333333333334 1.5 10.666666666666666 Z M 2 18.666666666666664 L 1.5 24 1 18.666666666666664 1.5 13.333333333333334 Z M 1.697545161008064 11.509607359798384 L 1.791341716182545 11.538060233744357 1.877785116509801 11.584265193848728 1.953553390593274 11.646446609406727 2.015734806151272 11.7222148834902 2.061939766255644 11.808658283817454 2.090392640201615 11.902454838991936 2.1 12 2.090392640201615 12.097545161008064 2.061939766255644 12.191341716182546 2.015734806151273 12.2777851165098 1.953553390593274 12.353553390593273 1.877785116509801 12.415734806151272 1.791341716182545 12.461939766255643 1.697545161008064 12.490392640201616 1.6 12.5 1.4 12.5 1.302454838991936 12.490392640201614 1.208658283817455 12.461939766255643 1.122214883490199 12.415734806151272 1.046446609406726 12.353553390593273 0.984265193848727 12.2777851165098 0.938060233744356 12.191341716182546 0.909607359798385 12.097545161008064 0.9 12 0.909607359798385 11.902454838991936 0.938060233744356 11.808658283817454 0.984265193848727 11.7222148834902 1.046446609406726 11.646446609406727 1.122214883490199 11.584265193848728 1.208658283817455 11.538060233744357 1.302454838991936 11.509607359798384 1.4 11.5 1.6 11.5 Z"
     style="fill:#7b7b7b" />
  <rect
     width="3"
     height="24"
     x="0"
     y="0"
     style="fill:none;fill-opacity:1" />
</svg>

