<?xml version="1.0" encoding="UTF-8" standalone="no"?>
<svg
   version="1.1"
   height="22"
   width="3"
   xmlns="http://www.w3.org/2000/svg"
   xmlns:svg="http://www.w3.org/2000/svg">
  <path
     d="M 1 4.888888888888889 L 1.5 1.77635683940025e-15 2 4.888888888888889 1.5 9.777777777777779 Z M 2 17.11111111111111 L 1.5 22 1 17.11111111111111 1.5 12.222222222222221 Z M 1.697545161008064 10.509607359798384 L 1.791341716182545 10.538060233744357 1.877785116509801 10.584265193848728 1.953553390593274 10.646446609406727 2.015734806151272 10.7222148834902 2.061939766255644 10.808658283817454 2.090392640201615 10.902454838991936 2.1 11 2.090392640201615 11.097545161008064 2.061939766255644 11.191341716182546 2.015734806151273 11.2777851165098 1.953553390593274 11.353553390593273 1.877785116509801 11.415734806151272 1.791341716182545 11.461939766255643 1.697545161008064 11.490392640201616 1.6 11.5 1.4 11.5 1.302454838991936 11.490392640201614 1.208658283817455 11.461939766255643 1.122214883490199 11.415734806151272 1.046446609406726 11.353553390593273 0.984265193848727 11.2777851165098 0.938060233744356 11.191341716182546 0.909607359798385 11.097545161008064 0.9 11 0.909607359798385 10.902454838991936 0.938060233744356 10.808658283817454 0.984265193848727 10.7222148834902 1.046446609406726 10.646446609406727 1.122214883490199 10.584265193848728 1.208658283817455 10.538060233744357 1.302454838991936 10.509607359798384 1.4 10.5 1.6 10.5 Z"
     style="fill:#7b7b7b" />
  <rect
     width="3"
     height="22"
     x="0"
     y="0"
     style="fill:none;fill-opacity:1" />
</svg>

