<?xml version="1.0" encoding="UTF-8" standalone="no"?>
<svg
   version="1.1"
   height="25"
   width="3"
   xmlns="http://www.w3.org/2000/svg"
   xmlns:svg="http://www.w3.org/2000/svg">
  <path
     d="M 1 5.555555555555555 L 1.5 0 2 5.555555555555555 1.5 11.11111111111111 Z M 2 19.444444444444443 L 1.5 25 1 19.444444444444443 1.5 13.88888888888889 Z M 1.697545161008064 12.009607359798384 L 1.791341716182545 12.038060233744357 1.877785116509801 12.084265193848728 1.953553390593274 12.146446609406727 2.015734806151272 12.2222148834902 2.061939766255644 12.308658283817454 2.090392640201615 12.402454838991936 2.1 12.5 2.090392640201615 12.597545161008064 2.061939766255644 12.691341716182546 2.015734806151273 12.7777851165098 1.953553390593274 12.853553390593273 1.877785116509801 12.915734806151272 1.791341716182545 12.961939766255643 1.697545161008064 12.990392640201616 1.6 13 1.4 13 1.302454838991936 12.990392640201614 1.208658283817455 12.961939766255643 1.122214883490199 12.915734806151272 1.046446609406726 12.853553390593273 0.984265193848727 12.7777851165098 0.938060233744356 12.691341716182546 0.909607359798385 12.597545161008064 0.9 12.5 0.909607359798385 12.402454838991936 0.938060233744356 12.308658283817454 0.984265193848727 12.2222148834902 1.046446609406726 12.146446609406727 1.122214883490199 12.084265193848728 1.208658283817455 12.038060233744357 1.302454838991936 12.009607359798384 1.4 12 1.6 12 Z"
     style="fill:#7b7b7b" />
  <rect
     width="3"
     height="25"
     x="0"
     y="0"
     style="fill:none;fill-opacity:1" />
</svg>

