<?xml version="1.0" encoding="UTF-8" standalone="no"?>
<svg
   version="1.1"
   height="18"
   width="3"
   xmlns="http://www.w3.org/2000/svg"
   xmlns:svg="http://www.w3.org/2000/svg">
  <path
     d="M 1 4 L 1.5 0 2 4 1.5 8 Z M 2 14 L 1.5 18 1 14 1.5 10 Z M 1.697545161008064 8.509607359798384 L 1.791341716182545 8.538060233744357 1.877785116509801 8.584265193848728 1.953553390593274 8.646446609406727 2.015734806151272 8.7222148834902 2.061939766255644 8.808658283817454 2.090392640201615 8.902454838991936 2.1 9 2.090392640201615 9.097545161008064 2.061939766255644 9.191341716182546 2.015734806151273 9.2777851165098 1.953553390593274 9.353553390593273 1.877785116509801 9.415734806151272 1.791341716182545 9.461939766255643 1.697545161008064 9.490392640201616 1.6 9.5 1.4 9.5 1.302454838991936 9.490392640201614 1.208658283817455 9.461939766255643 1.122214883490199 9.415734806151272 1.046446609406726 9.353553390593273 0.984265193848727 9.2777851165098 0.938060233744356 9.191341716182546 0.909607359798385 9.097545161008064 0.9 9 0.909607359798385 8.902454838991936 0.938060233744356 8.808658283817454 0.984265193848727 8.7222148834902 1.046446609406726 8.646446609406727 1.122214883490199 8.584265193848728 1.208658283817455 8.538060233744357 1.302454838991936 8.509607359798384 1.4 8.5 1.6 8.5 Z"
     style="fill:#7b7b7b" />
  <rect
     width="3"
     height="18"
     x="0"
     y="0"
     style="fill:none;fill-opacity:1" />
</svg>

