<?xml version="1.0" encoding="UTF-8" standalone="no"?>
<svg
   id="Svg"
   width="24"
   height="19"
   version="1.1"
   xmlns="http://www.w3.org/2000/svg"
   xmlns:svg="http://www.w3.org/2000/svg">
  <path
     id="path2652"
     style="fill:#7b7b7b"
     d="M 0 9 L 0 9.1171875 L 0.09765625 9.0996094 L 0.12695312 9 L 0 9 z M 0.43945312 9 L 0.39453125 9.0605469 L 0.5 9.2558594 L 0.5078125 9.359375 L 0.71679688 9.5273438 L 0.93164062 9.4921875 L 0.96875 9.6054688 L 1.3671875 9.6191406 L 1.5898438 9.3203125 L 1.5078125 9.1699219 L 1.5839844 9.2050781 L 1.8710938 9.2460938 L 1.9355469 9.078125 L 1.9394531 9.0449219 L 2.0117188 9.2050781 L 2.3339844 9.1386719 L 2.3222656 9.2109375 L 2.6738281 9.4042969 L 2.9472656 9.140625 L 2.90625 9.0527344 L 2.96875 9.0878906 L 2.9492188 9.125 L 2.9726562 9.3300781 L 3.2050781 9.4394531 L 3.3886719 9.3671875 L 3.5175781 9.2324219 L 3.4960938 9.1464844 L 3.5976562 9.3105469 L 3.9667969 9.2558594 L 4.0859375 9 L 0.43945312 9 z M 4.2753906 9 L 4.2890625 9.0136719 L 4.3613281 9.2226562 L 4.6035156 9.25 L 4.75 9.0566406 L 4.7402344 9 L 4.2753906 9 z M 4.7539062 9 L 4.7597656 9.0390625 L 4.9746094 9.2304688 L 5.0722656 9.1757812 L 5.0742188 9.1777344 L 5.1074219 9.3847656 L 5.3007812 9.5644531 L 5.4882812 9.5839844 L 5.5878906 9.4179688 L 5.6054688 9.3574219 L 5.7988281 9.390625 L 5.9785156 9.2753906 L 6.0332031 9.0019531 L 6.03125 9 L 4.7539062 9 z M 6.0546875 9 L 6.0605469 9.0429688 L 6.2558594 9.2207031 L 6.4433594 9.2402344 L 6.5429688 9.0761719 L 6.5625 9 L 6.0546875 9 z M 6.7246094 9 L 6.6894531 9.03125 L 6.6582031 9.2988281 L 6.5390625 9.2246094 L 6.2128906 9.3339844 L 6.1425781 9.7324219 L 6.4882812 9.9277344 L 6.8261719 9.7695312 L 6.8144531 9.3964844 L 6.8710938 9.4238281 L 7.1289062 9.3652344 L 7.2519531 9.2226562 L 7.2285156 9.1699219 L 7.2460938 9.1855469 L 7.4726562 9.0957031 L 7.4882812 9 L 6.7246094 9 z M 7.59375 9 L 7.4960938 9.0683594 L 7.5136719 9.3105469 L 7.7207031 9.4785156 L 7.953125 9.4394531 L 8.1601562 9.3203125 L 8.0703125 9.0605469 L 8.1230469 9.0390625 L 8.1601562 9 L 7.59375 9 z M 8.3496094 9 L 8.3671875 9.2402344 L 8.5742188 9.4101562 L 8.8046875 9.3710938 L 8.9199219 9.3046875 L 8.9042969 9.4355469 L 9.1210938 9.5410156 L 9.3789062 9.4824219 L 9.5019531 9.3378906 L 9.4921875 9.3164062 L 9.65625 9.3339844 L 9.7558594 9.1699219 L 9.7597656 9.15625 L 9.9433594 9.2578125 L 10.083984 9.1503906 L 10.300781 9.1035156 L 10.324219 9 L 9.7304688 9 L 9.2832031 9 L 9.1230469 9 L 9.0742188 9.0253906 L 8.9667969 9.1230469 L 8.9238281 9 L 8.3496094 9 z M 10.363281 9 L 10.570312 9.1640625 L 10.408203 9.2578125 L 10.484375 9.6210938 L 10.882812 9.6972656 L 11 9.4160156 L 11.085938 9.5039062 L 11.302734 9.6074219 L 11.470703 9.375 L 11.380859 9.2226562 L 11.361328 9.0019531 L 11.355469 9 L 10.363281 9 z M 11.666016 9 L 11.53125 9.25 L 11.664062 9.3691406 L 11.822266 9.4492188 L 11.855469 9.8105469 L 12.177734 9.9980469 L 12.480469 9.7773438 L 12.462891 9.4511719 L 12.189453 9.2441406 L 12.119141 9.2773438 L 12.128906 9.1738281 L 12.203125 9.2089844 L 12.490234 9.2480469 L 12.529297 9.1484375 L 12.685547 9.3105469 L 12.902344 9.4160156 L 13.070312 9.1816406 L 13.041016 9.1328125 L 13.322266 9.1425781 L 13.390625 9 L 12.564453 9 L 12.025391 9 L 11.666016 9 z M 13.408203 9 L 13.615234 9.2050781 L 13.972656 9.03125 L 13.978516 9 L 13.408203 9 z M 14.150391 9 L 14.117188 9.015625 L 14.064453 9.2988281 L 14.269531 9.453125 L 14.480469 9.4355469 L 14.65625 9.21875 L 14.560547 9 L 14.150391 9 z M 14.742188 9 L 14.740234 9.1640625 L 14.857422 9.3339844 L 15.113281 9.3242188 L 15.242188 9.1738281 L 15.289062 9 L 14.742188 9 z M 15.289062 9 L 15.46875 9.28125 L 15.841797 9.296875 L 15.929688 9.1132812 L 16.115234 9.0996094 L 16.240234 9 L 15.289062 9 z M 16.337891 9 L 16.433594 9.1484375 L 16.587891 9.1542969 L 16.585938 9.1835938 L 16.775391 9.3085938 L 17.027344 9.3203125 L 17.125 9.078125 L 17.107422 9 L 16.337891 9 z M 17.287109 9 L 17.246094 9.1445312 L 17.564453 9.3964844 L 17.855469 9.1542969 L 18.033203 9.2988281 L 18.259766 9.2617188 L 18.296875 9.296875 L 18.484375 9.3164062 L 18.583984 9.1523438 L 18.625 9 L 18.423828 9 L 17.816406 9 L 17.287109 9 z M 18.787109 9 L 18.859375 9.0703125 L 18.882812 9.1386719 L 19.044922 9.2519531 L 19.251953 9.2539062 L 19.386719 9.0351562 L 19.376953 9 L 18.833984 9 L 18.787109 9 z M 19.527344 9 L 19.535156 9.0820312 L 19.703125 9.1347656 L 19.863281 9.2871094 L 19.878906 9.2832031 L 19.732422 9.4082031 L 19.775391 9.6621094 L 19.939453 9.7714844 L 20.125 9.7988281 L 20.271484 9.6269531 L 20.314453 9.3769531 L 20.083984 9.2519531 L 19.90625 9.2714844 L 20.089844 9.1992188 L 20.113281 9.0683594 L 20.142578 9.1601562 L 20.396484 9.203125 L 20.576172 9.0878906 L 20.59375 9 L 19.527344 9 z M 20.849609 9 L 20.931641 9.2753906 L 21.248047 9.4101562 L 21.564453 9.1582031 L 21.550781 9.1171875 L 21.632812 9.0703125 L 21.671875 9.0273438 L 21.783203 9.1425781 L 22 9.2460938 L 22.144531 9.046875 L 22.205078 9.2167969 L 22.367188 9.3300781 L 22.574219 9.3320312 L 22.708984 9.1132812 L 22.691406 9.0449219 L 22.828125 9.1425781 L 22.746094 9.3339844 L 22.851562 9.5800781 L 23.074219 9.6523438 L 23.3125 9.6425781 L 23.353516 9.359375 L 23.205078 9.265625 L 23.083984 9.078125 L 23.072266 9.0800781 L 23.082031 9.0644531 L 23.150391 9.0664062 L 23.181641 9 L 23.126953 9 L 22.65625 9 L 22.160156 9 L 21.646484 9 L 20.849609 9 z M 23.267578 9 L 23.283203 9.0859375 L 23.447266 9.1953125 L 23.628906 9.2246094 L 23.748047 9.0839844 L 23.816406 9.1503906 L 24 9.1171875 L 24 9 L 23.267578 9 z M 17.810547 9.0039062 L 17.818359 9.0117188 L 17.818359 9.0253906 L 17.810547 9.0039062 z M 13.289062 9.2128906 L 13.136719 9.3222656 L 13.169922 9.5136719 L 13.300781 9.7734375 L 13.474609 9.7304688 L 13.636719 9.6425781 L 13.738281 9.3730469 L 13.552734 9.21875 L 13.289062 9.2128906 z M 16.513672 9.21875 L 16.355469 9.3027344 L 16.220703 9.4257812 L 16.185547 9.7109375 L 16.402344 9.8183594 L 16.660156 9.7597656 L 16.78125 9.6152344 L 16.703125 9.4394531 L 16.513672 9.21875 z M 4.3378906 9.2246094 L 4.0332031 9.4863281 L 4.1816406 9.8359375 L 4.5527344 9.8046875 L 4.6757812 9.4179688 L 4.3378906 9.2246094 z M 18.740234 9.2421875 L 18.578125 9.3574219 L 18.486328 9.5195312 L 18.595703 9.71875 L 18.814453 9.8476562 L 19.013672 9.6777344 L 19.064453 9.4863281 L 18.992188 9.2929688 L 18.740234 9.2421875 z M 22.103516 9.2695312 L 21.910156 9.2949219 L 21.751953 9.3964844 L 21.757812 9.6210938 L 21.888672 9.8378906 L 22.146484 9.7792969 L 22.279297 9.6347656 L 22.304688 9.4296875 L 22.103516 9.2695312 z M 20.583984 9.2871094 L 20.419922 9.3984375 L 20.345703 9.5898438 L 20.5 9.7949219 L 20.697266 9.8164062 L 20.873047 9.7558594 L 20.921875 9.5351562 L 20.845703 9.2929688 L 20.583984 9.2871094 z M 9.9179688 9.3769531 L 9.5273438 9.46875 L 9.4960938 9.8457031 L 9.8398438 9.9902344 L 10.126953 9.7050781 L 9.9179688 9.3769531 z M 24 9.3808594 L 23.998047 9.3828125 L 23.796875 9.703125 L 24 9.9511719 L 24 9.3808594 z M 0 9.3828125 L 0 9.9511719 L 0.03125 9.9902344 L 0.41992188 9.8710938 L 0.38671875 9.4824219 L 0 9.3828125 z M 8.4863281 9.4980469 L 8.1425781 9.640625 L 8.0800781 9.9589844 L 8.296875 10.226562 L 8.6953125 10.150391 L 8.7558594 9.7578125 L 8.4863281 9.4980469 z M 15.216797 9.5 L 14.826172 9.5839844 L 14.679688 9.9277344 L 14.935547 10.199219 L 15.255859 10.144531 L 15.429688 9.8457031 L 15.216797 9.5 z M 2.1953125 9.5058594 L 2.0117188 9.5644531 L 1.7695312 9.7246094 L 1.8320312 9.8925781 L 1.9394531 10.041016 L 2.21875 10.111328 L 2.3515625 9.9082031 L 2.3222656 9.6464844 L 2.1953125 9.5058594 z M 19.46875 9.5058594 L 19.308594 9.5878906 L 19.173828 9.7109375 L 19.140625 9.9980469 L 19.357422 10.103516 L 19.615234 10.044922 L 19.736328 9.9023438 L 19.658203 9.7265625 L 19.46875 9.5058594 z M 3.3398438 9.5683594 L 3.2324219 9.8339844 L 3.3554688 9.9609375 L 3.4277344 10.169922 L 3.6699219 10.197266 L 3.8164062 10.003906 L 3.7734375 9.7402344 L 3.5761719 9.6152344 L 3.3398438 9.5683594 z M 17.798828 9.6699219 L 17.597656 9.921875 L 17.664062 10.259766 L 18.052734 10.378906 L 18.289062 10.056641 L 18.169922 9.703125 L 17.798828 9.6699219 z M 1.15625 9.7363281 L 0.91015625 9.8085938 L 0.8203125 9.984375 L 0.81445312 10.171875 L 1.0039062 10.296875 L 1.2578125 10.308594 L 1.3535156 10.066406 L 1.3105469 9.875 L 1.15625 9.7363281 z M 22.794922 9.7695312 L 22.599609 9.859375 L 22.548828 10.142578 L 22.753906 10.296875 L 22.964844 10.279297 L 23.140625 10.0625 L 23.029297 9.8085938 L 22.794922 9.7695312 z M 13.884766 9.828125 L 13.669922 9.921875 L 13.498047 10.087891 L 13.654297 10.328125 L 13.828125 10.296875 L 14.042969 10.357422 L 14.201172 10.173828 L 14.125 9.9433594 L 13.884766 9.828125 z M 5.2519531 10.025391 L 5.0527344 10.166016 L 5.0703125 10.408203 L 5.2773438 10.576172 L 5.5078125 10.539062 L 5.7167969 10.417969 L 5.6210938 10.148438 L 5.4453125 10.134766 L 5.2519531 10.025391 z M 21.328125 10.224609 L 20.978516 10.431641 L 21.105469 10.800781 L 21.505859 10.806641 L 21.625 10.445312 L 21.328125 10.224609 z M 11.238281 10.240234 L 11.078125 10.322266 L 10.943359 10.445312 L 10.908203 10.732422 L 11.125 10.837891 L 11.382812 10.779297 L 11.503906 10.634766 L 11.427734 10.458984 L 11.238281 10.240234 z M 9.34375 10.421875 L 9.0761719 10.431641 L 8.9277344 10.613281 L 8.8515625 10.841797 L 9.1035156 10.982422 L 9.2441406 10.875 L 9.4609375 10.828125 L 9.515625 10.589844 L 9.34375 10.421875 z M 7.140625 10.457031 L 6.9042969 10.576172 L 6.8203125 10.744141 L 6.9394531 10.896484 L 7.1738281 11.064453 L 7.3085938 10.947266 L 7.4121094 10.794922 L 7.3769531 10.507812 L 7.140625 10.457031 z M 15.552734 10.613281 L 15.1875 10.6875 L 15.109375 11.052734 L 15.335938 11.283203 L 15.677734 11.257812 L 15.841797 10.886719 L 15.552734 10.613281 z M 1.734375 10.669922 L 1.5742188 10.751953 L 1.4394531 10.875 L 1.4042969 11.162109 L 1.6210938 11.267578 L 1.8789062 11.208984 L 2.0019531 11.064453 L 1.9238281 10.888672 L 1.734375 10.669922 z M 16.738281 10.769531 L 16.462891 10.816406 L 16.378906 11.078125 L 16.527344 11.263672 L 16.732422 11.326172 L 16.960938 11.150391 L 16.908203 10.896484 L 16.738281 10.769531 z M 2.9765625 10.787109 L 2.8164062 10.869141 L 2.6816406 10.992188 L 2.6464844 11.279297 L 2.8632812 11.384766 L 3.1210938 11.326172 L 3.2441406 11.181641 L 3.1660156 11.005859 L 2.9765625 10.787109 z M 13 11 L 12.738281 11.119141 L 12.726562 11.375 L 12.861328 11.541016 L 13.138672 11.560547 L 13.285156 11.324219 L 13.185547 11.111328 L 13 11 z M 19.269531 11.037109 L 19.023438 11.111328 L 18.935547 11.287109 L 18.927734 11.472656 L 19.117188 11.597656 L 19.369141 11.609375 L 19.466797 11.367188 L 19.421875 11.175781 L 19.269531 11.037109 z M 5.2246094 11.082031 L 5.0292969 11.103516 L 4.8730469 11.240234 L 4.9160156 11.492188 L 5.0800781 11.603516 L 5.265625 11.630859 L 5.4121094 11.457031 L 5.4550781 11.208984 L 5.2246094 11.082031 z M 22.986328 11.255859 L 22.796875 11.40625 L 22.777344 11.671875 L 22.939453 11.839844 L 23.15625 11.943359 L 23.324219 11.710938 L 23.236328 11.558594 L 23.214844 11.337891 L 22.986328 11.255859 z M 10.699219 11.359375 L 10.5 11.5 L 10.517578 11.742188 L 10.724609 11.910156 L 10.955078 11.873047 L 11.164062 11.751953 L 11.068359 11.480469 L 10.892578 11.466797 L 10.699219 11.359375 z M 20.890625 11.390625 L 20.666016 11.423828 L 20.466797 11.580078 L 20.554688 11.828125 L 20.716797 11.941406 L 20.923828 11.943359 L 21.058594 11.724609 L 21.009766 11.535156 L 20.890625 11.390625 z M 1.3691406 11.753906 L 1.1367188 11.818359 L 0.98242188 12.03125 L 0.98828125 12.220703 L 1.1621094 12.300781 L 1.4492188 12.339844 L 1.515625 12.171875 L 1.5332031 11.990234 L 1.3691406 11.753906 z M 8.3203125 11.958984 L 8.0644531 12.091797 L 8.1015625 12.332031 L 8.296875 12.509766 L 8.484375 12.529297 L 8.5839844 12.365234 L 8.6582031 12.083984 L 8.5 12 L 8.3203125 11.958984 z M 6.4296875 12.132812 L 6.1835938 12.205078 L 6.0957031 12.380859 L 6.0898438 12.568359 L 6.2773438 12.691406 L 6.5292969 12.705078 L 6.6289062 12.462891 L 6.5820312 12.269531 L 6.4296875 12.132812 z M 17.480469 12.34375 L 17.257812 12.375 L 17.058594 12.533203 L 17.146484 12.779297 L 17.306641 12.894531 L 17.513672 12.896484 L 17.650391 12.677734 L 17.599609 12.488281 L 17.480469 12.34375 z M 14.160156 12.443359 L 13.912109 12.763672 L 14.126953 13.099609 L 14.501953 13.113281 L 14.664062 12.777344 L 14.5 12.5 L 14.160156 12.443359 z M 4.7011719 12.451172 L 4.5 12.5 L 4.4199219 12.742188 L 4.5136719 12.917969 L 4.6640625 13.027344 L 4.8730469 12.943359 L 5.0292969 12.742188 L 4.8847656 12.523438 L 4.7011719 12.451172 z M 20.394531 12.679688 L 20.169922 12.751953 L 20.037109 12.923828 L 20.123047 13.197266 L 20.376953 13.240234 L 20.556641 13.125 L 20.611328 12.851562 L 20.394531 12.679688 z M 10.775391 13.318359 L 10.621094 13.53125 L 10.619141 13.728516 L 10.736328 13.898438 L 10.992188 13.888672 L 11.121094 13.738281 L 11.169922 13.558594 L 11.017578 13.392578 L 10.775391 13.318359 z M 2.1640625 13.472656 L 1.9160156 13.792969 L 2.1328125 14.128906 L 2.5058594 14.142578 L 2.6699219 13.808594 L 2.5039062 13.529297 L 2.1640625 13.472656 z M 7.4355469 13.910156 L 7.2011719 14.029297 L 7.1054688 14.201172 L 7.1289062 14.40625 L 7.3613281 14.517578 L 7.5449219 14.443359 L 7.6738281 14.308594 L 7.6152344 14.089844 L 7.4355469 13.910156 z M 18.716797 13.998047 L 18.367188 14.205078 L 18.492188 14.574219 L 18.892578 14.580078 L 19.013672 14.21875 L 18.716797 13.998047 z M 22 14 L 21.822266 14.226562 L 21.933594 14.458984 L 22.128906 14.542969 L 22.384766 14.431641 L 22.404297 14.15625 L 22.216797 14.009766 L 22 14 z M 3.7363281 15.142578 L 3.4316406 15.396484 L 3.4609375 15.769531 L 3.8144531 15.890625 L 4.0703125 15.693359 L 4.0859375 15.349609 L 3.7363281 15.142578 z M 12.765625 15.490234 L 12.605469 15.572266 L 12.470703 15.695312 L 12.435547 15.982422 L 12.652344 16.087891 L 12.910156 16.029297 L 13.033203 15.884766 L 12.955078 15.708984 L 12.765625 15.490234 z M 19.214844 16.482422 L 19.085938 16.705078 L 19.126953 16.914062 L 19.365234 17.060547 L 19.601562 16.919922 L 19.615234 16.683594 L 19.5 16.5 L 19.214844 16.482422 z M 15.828125 16.697266 L 15.552734 16.744141 L 15.466797 17.007812 L 15.615234 17.193359 L 15.822266 17.255859 L 16.048828 17.078125 L 15.998047 16.826172 L 15.828125 16.697266 z M 6.5 17 L 6.1230469 17.015625 L 6.0195312 17.373047 L 6.3378906 17.625 L 6.6386719 17.376953 L 6.5 17 z M 9.59375 17.478516 L 9.4414062 17.845703 L 9.640625 18.160156 L 10.009766 18.105469 L 10.146484 17.810547 L 10 17.5 L 9.59375 17.478516 z M 1.3300781 17.529297 L 1.1464844 17.544922 L 1.0449219 17.748047 L 1.0605469 18 L 1.3144531 18.066406 L 1.5 18 L 1.6171875 17.832031 L 1.515625 17.595703 L 1.3300781 17.529297 z " />
  <rect
     style="fill:none;fill-opacity:1;stroke:none"
     id="rect15026"
     width="24"
     height="19"
     x="0"
     y="0" />
</svg>
