<?xml version="1.0" encoding="UTF-8" standalone="no"?>
<svg
   id="Svg"
   width="24"
   height="17"
   version="1.1"
   xmlns="http://www.w3.org/2000/svg"
   xmlns:svg="http://www.w3.org/2000/svg">
  <path
     id="path1404"
     style="fill:#84b27a"
     d="M 0.49609375,8.25 0.5,8.2558594 0.5078125,8.359375 0.71679688,8.5273438 0.93164062,8.4921875 0.96875,8.6054688 1.3671875,8.6191406 1.5898438,8.3203125 1.5507812,8.25 Z m 1.16210935,0 -0.00977,0.025391 0.1992187,0.3144532 0.1621094,-0.023438 -0.2402344,0.1582032 0.0625,0.1679687 L 1.9394531,9.0410156 2.21875,9.1113281 2.3515625,8.9082031 2.3222656,8.6464844 2.21875,8.53125 2.3476562,8.25 Z m 1.0605469,0 -0.00977,0.029297 L 2.8574219,8.4648438 3.0625,8.5273438 3.2910156,8.3515625 3.2695312,8.25 Z m 0.7441406,0 0.00977,0.080078 0.2324219,0.109375 L 3.8886719,8.3671875 4,8.25 Z m 0.8457032,0 L 4.0332031,8.4863281 4.1816406,8.8359375 4.5527344,8.8046875 4.6757812,8.4179688 4.3828125,8.25 Z m 0.9003906,0 -0.099609,0.050781 -0.0625,0.125 0.087891,0.1113282 0.1738282,0.125 0.099609,-0.085937 L 5.484375,8.4628906 5.4589844,8.25 Z m 1.2539062,0 -0.25,0.083984 L 6.1425781,8.7324219 6.4882812,8.9277344 6.8261719,8.7695312 6.8144531,8.3964844 6.8710938,8.4238281 7.1289062,8.3652344 7.2285156,8.25 H 6.6640625 L 6.6582031,8.2988281 6.5800781,8.25 Z m 1.4648438,0 -0.044922,0.041016 -0.025391,0.2109375 0.1601562,0.078125 L 8.2070312,8.5371094 8.2988281,8.4296875 8.2402344,8.3007812 8.1972656,8.25 Z m 0.4511718,0 0.1953126,0.1601562 0.2304687,-0.039062 0.1269531,-0.072266 0.00391,0.058594 L 9.1425781,8.5253906 9.3730469,8.4882812 9.5820312,8.3671875 9.5410156,8.25 H 8.9277344 Z m 2.0429688,0 -0.01367,0.00781 0.07617,0.3632813 0.398437,0.076172 L 11,8.4160156 11.085938,8.5039062 11.302734,8.6074219 11.470703,8.375 11.396484,8.25 Z m 1.109375,0 0.132812,0.1191406 0.158204,0.080078 0.0332,0.3613281 0.322265,0.1875 L 12.480469,8.7773438 12.462891,8.4511719 12.197266,8.25 h -0.01953 l -0.05859,0.027344 0.002,-0.027344 z m 1.015625,0 -0.01758,0.1425781 0.160156,0.078125 0.191406,-0.042969 0.08984,-0.1074219 L 12.939453,8.25 Z m 0.691406,0 -0.101562,0.072266 0.0332,0.1914063 0.130859,0.2597656 0.173828,-0.042969 0.16211,-0.087891 L 13.738281,8.3730469 13.589844,8.25 Z m 0.835938,0 -0.0098,0.048828 0.205078,0.1542969 0.210938,-0.017578 0.01172,-0.013672 0.115234,0.1445312 0.201172,0.060547 -0.128906,0.3007813 0.255859,0.2714844 0.320312,-0.054688 L 15.429688,8.8457031 15.216797,8.5 14.888672,8.5703125 15.041016,8.453125 14.998047,8.25 H 14.5 Z m 1.375,0 0.01953,0.03125 0.01172,0.171875 0.253906,0.066406 L 15.919922,8.453125 16.037109,8.2851562 16.021484,8.25 h -0.554687 z m 0.927734,0 -0.09961,0.052734 -0.134766,0.1230468 -0.03516,0.2851563 0.216797,0.1074219 0.257812,-0.058594 L 16.703125,8.6152344 16.625,8.4394531 16.462891,8.25 Z m 0.255859,0 -0.03125,0.091797 0.251954,0.140625 L 16.994141,8.375 17.210938,8.328125 17.228516,8.25 Z m 0.746094,0 0.0098,0.00781 -0.01758,0.023437 -0.002,0.1972656 0.117187,0.1699219 0.25586,-0.00977 0.128906,-0.1503907 0.04883,-0.1796874 L 17.865234,8.25 h -0.470703 z m 1.34961,0 -0.150391,0.1074219 -0.0918,0.1621093 0.109375,0.1992188 0.21875,0.1289062 0.199219,-0.1699218 0.05078,-0.1914063 L 18.992188,8.2929688 18.779297,8.25 Z m 0.326172,0 0.04102,0.1191406 0.121094,0.083984 h 0.152344 L 19.46875,8.2929688 19.457031,8.25 Z m 0.773437,0 -0.119141,0.1015625 0.04297,0.2539063 0.164063,0.109375 0.185546,0.027344 0.146485,-0.171875 0.04297,-0.25 L 20.162109,8.25 Z m 1.167969,0 -0.01563,0.076172 0.166015,0.171875 0.251954,-0.019531 L 21.5,8.25 Z m 1.257812,0 -0.0039,0.048828 0.119141,0.125 L 22.529297,8.5 22.654297,8.328125 22.607422,8.25 Z m 0.527344,0 -0.03516,0.083984 0.105468,0.2460937 0.222657,0.072266 0.238281,-0.00977 0.03711,-0.2519531 0.0918,0.0625 0.185547,0.00781 0.07227,-0.1777344 L 23.691406,8.25 h -0.386718 l -0.002,0.076172 L 23.205078,8.265625 23.195312,8.25 Z m -0.677734,0.019531 -0.19336,0.025391 -0.158203,0.1015625 0.0059,0.2246094 0.13086,0.2167968 0.257812,-0.058594 0.132813,-0.1445313 0.02539,-0.2050781 z m -1.519532,0.017578 -0.164062,0.1113281 -0.07422,0.1914063 0.154297,0.2050781 0.197266,0.021484 0.175781,-0.060547 0.04883,-0.2207032 -0.07617,-0.2421874 z M 9.9179688,8.3769531 9.5273438,8.46875 9.4960938,8.8457031 9.8398438,8.9902344 10.126953,8.7050781 Z M 24,8.3808594 l -0.002,0.00195 L 23.796875,8.703125 24,8.9511719 Z M 0,8.3828125 V 8.9511719 L 0.03125,8.9902344 0.41992188,8.8710938 0.38671875,8.4824219 Z m 3.3085938,0.076172 -0.1074219,0.265625 0.1230469,0.1269531 0.072266,0.2089844 0.2421875,0.027344 0.1464843,-0.1933594 -0.042969,-0.2636718 -0.1972656,-0.125 z m 5.1777343,0.039063 -0.34375,0.1425781 -0.0625,0.3183594 0.2167969,0.2675781 0.3984375,-0.076172 0.060547,-0.3925781 z m 10.9824219,0.00781 -0.160156,0.082031 -0.134766,0.1230469 -0.0332,0.2871094 0.216797,0.1054687 0.257812,-0.058594 0.121094,-0.1425781 -0.07813,-0.1757813 z M 4.9960938,8.5429688 4.8027344,8.6308594 4.7929688,8.8203125 4.8925781,8.9433594 5.0976562,8.9570312 5.2070312,8.7832031 5.1328125,8.625 Z m 2.3046874,0.00195 -0.203125,0.035156 -0.0625,0.1914063 0.109375,0.1386718 0.1523438,0.044922 0.1679688,-0.1289062 -0.039063,-0.1875 z m 9.9980468,0.064453 -0.189453,0.099609 0.02734,0.1757812 0.144531,0.1328125 0.138672,0.013672 0.07227,-0.1210938 0.05469,-0.2070312 -0.115234,-0.0625 z m 0.5,0.060547 -0.201172,0.2519531 0.06641,0.3378906 0.388672,0.1191406 0.236328,-0.3222656 -0.11914,-0.3535156 z m -6.71875,0.019531 -0.144531,0.015625 -0.115235,0.099609 0.03125,0.1875 0.121094,0.082031 L 11.109375,9.09375 11.21875,8.9648438 11.25,8.7832031 Z M 1.15625,8.7363281 0.91015625,8.8085938 0.8203125,8.984375 l -0.005859,0.1875 0.18945308,0.125 0.2539063,0.011719 L 1.3535156,9.0664062 1.3105469,8.875 Z m 21.638672,0.033203 -0.195313,0.089844 -0.05078,0.2832031 0.205078,0.1542969 0.210938,-0.017578 L 23.140625,9.0625 23.029297,8.8085938 Z m -8.910156,0.058594 -0.214844,0.09375 -0.171875,0.1660156 0.15625,0.2402344 0.173828,-0.03125 0.214844,0.060547 L 14.201172,9.1738281 14.125,8.9433594 Z m 7.390625,0.1308594 -0.347657,0.2070312 0.126954,0.3691406 0.398437,0.00586 0.119141,-0.3613281 z M 5.2519531,9.0253906 5.0527344,9.1660156 5.0703125,9.4082031 5.2773438,9.5761719 5.5078125,9.5390625 5.7167969,9.4179688 5.6210938,9.1484375 5.4453125,9.1347656 Z M 11.238281,9.2402344 11.078125,9.3222656 10.943359,9.4453125 10.908203,9.7324219 11.125,9.837891 11.382812,9.779297 11.503906,9.6347656 11.427734,9.4589844 Z M 9.34375,9.421875 9.0761719,9.4316406 8.9277344,9.6132812 8.8515625,9.841797 9.1035156,9.982422 9.2441406,9.875 9.4609375,9.828125 9.515625,9.5898438 Z M 7.140625,9.4570312 6.9042969,9.5761719 6.8203125,9.7441406 6.9394531,9.896484 7.1738281,10.064453 7.3085938,9.947266 7.4121094,9.794922 7.3769531,9.5078125 Z m 8.412109,0.15625 -0.365234,0.074219 -0.07813,0.365234 0.226563,0.230469 0.341796,-0.02539 0.164063,-0.371093 z M 1.734375,9.6699219 1.5742188,9.751953 1.4394531,9.875 l -0.035156,0.287109 0.2167969,0.105469 0.2578124,-0.05859 0.1230469,-0.144531 -0.078125,-0.175781 z m 15.003906,0.099609 -0.27539,0.046875 -0.08398,0.261719 0.148438,0.185547 0.205078,0.0625 0.228516,-0.175781 -0.05273,-0.253907 z M 2.9765625,9.787109 2.8164062,9.869141 2.6816406,9.992188 l -0.035156,0.287109 0.2167968,0.105469 0.2578126,-0.05859 0.1230468,-0.144531 -0.078125,-0.175782 z M 13,10 l -0.261719,0.119141 -0.01172,0.255859 0.134766,0.166016 0.277344,0.01953 0.146484,-0.236328 -0.09961,-0.212891 z m 6.269531,0.03711 -0.246093,0.07422 -0.08789,0.175781 -0.0078,0.185547 0.189454,0.125 0.251953,0.01172 0.09766,-0.242187 -0.04492,-0.191407 z m -14.0449216,0.04492 -0.1953125,0.02149 -0.15625,0.136718 0.042969,0.251954 0.1640625,0.111328 0.1855469,0.02734 0.1464844,-0.173828 0.042969,-0.248047 z m 17.7617186,0.173828 -0.189453,0.150391 -0.01953,0.265625 0.162109,0.167969 0.216797,0.103515 0.167969,-0.232421 -0.08789,-0.152344 -0.02148,-0.220703 z M 10.699219,10.359375 10.5,10.5 l 0.01758,0.242188 0.207031,0.167968 0.230469,-0.03711 0.208984,-0.121094 -0.0957,-0.271484 -0.175781,-0.01367 z m 10.191406,0.03125 -0.224609,0.0332 -0.199219,0.15625 0.08789,0.248047 0.162109,0.113281 0.207031,0.002 0.134766,-0.21875 -0.04883,-0.189453 z M 1.3691406,10.597656 1.1367188,10.662109 0.98242188,10.875 l 0.005859,0.189453 0.17382815,0.08008 0.2871094,0.03906 0.066406,-0.167969 0.017578,-0.181641 z m 7.0761719,0.111328 -0.2558594,0.132813 0.037109,0.240234 0.1953125,0.177735 0.1875,0.01953 0.099609,-0.164063 0.074219,-0.28125 L 8.625,10.75 Z m -1.890625,0.173828 -0.2460937,0.07227 -0.087891,0.175781 -0.00586,0.1875 0.1875,0.123047 0.2519531,0.01367 0.099609,-0.242187 -0.046875,-0.19336 z m 10.9257815,0.304688 -0.222657,0.03125 -0.199218,0.158203 0.08789,0.246094 0.160157,0.115234 0.207031,0.002 0.136719,-0.21875 -0.05078,-0.189453 z m -3.320313,0.09961 -0.248047,0.320313 0.214844,0.335937 0.375,0.01367 0.162109,-0.335937 L 14.5,11.34375 Z M 4.7011719,11.294922 4.5,11.34375 l -0.080078,0.242188 0.09375,0.175781 0.1503906,0.109375 0.2089844,-0.08399 0.15625,-0.201171 -0.1445313,-0.21875 z m 15.6933591,0.228516 -0.224609,0.07226 -0.132813,0.171875 0.08594,0.273438 0.253906,0.04297 0.179688,-0.115234 0.05469,-0.273438 z m -9.61914,0.638671 -0.154297,0.212891 -0.002,0.197266 0.117187,0.169922 0.25586,-0.0098 0.128906,-0.150391 0.04883,-0.179687 -0.152344,-0.166016 z m -8.6113285,0.154297 -0.2480469,0.320313 0.2167969,0.335937 0.3730469,0.01367 0.1640625,-0.333984 -0.1660157,-0.279297 z m 5.3964844,0.34375 -0.234375,0.119141 -0.095703,0.171875 0.023437,0.205078 0.2324219,0.111328 0.1835938,-0.07422 0.1289062,-0.134765 -0.058594,-0.21875 z m 11.1562501,0.181641 -0.349609,0.207031 0.125,0.369141 0.40039,0.0059 0.121094,-0.361328 z M 22,12.84375 l -0.177734,0.226562 0.111328,0.232422 0.195312,0.08399 0.25586,-0.111328 L 22.404297,13 l -0.1875,-0.146484 z m -18.2636719,1.142578 -0.3046875,0.253906 0.029297,0.373047 0.3535156,0.121094 0.2558594,-0.197266 0.015625,-0.34375 z m 9.0292969,0.347656 -0.160156,0.08203 -0.134766,0.123046 -0.03516,0.28711 0.216797,0.105469 0.257812,-0.05859 0.123047,-0.144531 -0.07813,-0.175782 z m 6.449219,0.539063 -0.128906,0.222656 0.04102,0.208985 0.238281,0.146484 0.236328,-0.140625 0.01367,-0.236328 L 19.5,14.890625 Z m -3.386719,0.214844 -0.275391,0.04687 -0.08594,0.263672 0.148437,0.185546 0.207032,0.0625 0.226562,-0.177734 -0.05078,-0.251953 z M 6.625,15.296875 6.2480469,15.3125 6.1445312,15.669922 6.4628906,15.921875 6.7636719,15.673828 Z" />
  <rect
     style="fill:none;fill-opacity:1;stroke:none"
     id="rect15026"
     width="24"
     height="17"
     x="0"
     y="0" />
</svg>
