<?xml version="1.0" encoding="UTF-8" standalone="no"?>
<svg
   id="Svg"
   width="32"
   height="32"
   version="1.1"
   xmlns="http://www.w3.org/2000/svg"
   xmlns:svg="http://www.w3.org/2000/svg">
  <defs
     id="defs5403" />
  <path
     id="rect5850"
     style="fill:#999999"
     d="M 12.597656 2.8769531 L 12.267578 3.3046875 L 12.554688 3.7519531 L 13.052734 3.7714844 L 13.271484 3.3242188 L 13.050781 2.9511719 L 12.597656 2.8769531 z M 4.6347656 5.0742188 L 4.328125 5.2519531 L 4.265625 5.5585938 L 4.3164062 5.875 L 4.7011719 5.8828125 L 4.7988281 5.6699219 L 5.0273438 5.4804688 L 4.9433594 5.1679688 L 4.6347656 5.0742188 z M 8.4414062 6.5449219 L 8.0449219 6.7167969 L 7.9160156 7.1582031 L 8.3007812 7.5371094 L 8.7792969 7.3046875 L 8.859375 6.8144531 L 8.4414062 6.5449219 z M 11.703125 7.84375 L 11.441406 8.1035156 L 11.5 8.4121094 L 11.707031 8.6152344 L 12.083984 8.546875 L 12.179688 8.2167969 L 12.056641 7.9609375 L 11.703125 7.84375 z M 2.9140625 9.9042969 L 2.5292969 9.9453125 L 2.4980469 10.181641 L 2.53125 10.423828 L 2.8183594 10.679688 L 3.0996094 10.521484 L 3.2304688 10.193359 L 3.1660156 9.9511719 L 2.9140625 9.9042969 z M 7.7949219 10.318359 L 7.4980469 10.542969 L 7.5605469 10.90625 L 7.8496094 11.033203 L 8.1328125 10.978516 L 8.2910156 10.628906 L 8.0742188 10.363281 L 7.7949219 10.318359 z M 11.443359 11.341797 L 10.978516 11.617188 L 11.144531 12.109375 L 11.679688 12.117188 L 11.839844 11.636719 L 11.443359 11.341797 z M 14.474609 12.568359 L 14.132812 12.927734 L 14.351562 13.421875 L 14.859375 13.314453 L 14.931641 12.785156 L 14.474609 12.568359 z M 4.3945312 12.880859 L 4.0390625 12.896484 L 3.8417969 13.138672 L 3.7402344 13.441406 L 4.0761719 13.626953 L 4.2617188 13.484375 L 4.5527344 13.423828 L 4.625 13.107422 L 4.3945312 12.880859 z M 11.505859 13.279297 L 11.269531 13.339844 L 11.050781 13.65625 L 11.242188 13.916016 L 11.582031 14.007812 L 11.814453 13.914062 L 11.832031 13.658203 L 11.744141 13.279297 L 11.505859 13.279297 z M 13.232422 13.359375 L 12.835938 13.533203 L 12.707031 13.972656 L 13.091797 14.353516 L 13.568359 14.121094 L 13.648438 13.628906 L 13.232422 13.359375 z M 8.1796875 13.548828 L 7.6582031 13.669922 L 7.6171875 14.173828 L 8.0742188 14.365234 L 8.4589844 13.986328 L 8.1796875 13.548828 z M 1.2578125 13.964844 L 1.0058594 14.166016 L 0.97851562 14.521484 L 1.1953125 14.746094 L 1.484375 14.882812 L 1.7089844 14.572266 L 1.5898438 14.371094 L 1.5625 14.076172 L 1.2578125 13.964844 z M 10.041016 14.533203 L 9.9042969 14.728516 L 9.8222656 14.957031 L 9.9570312 15.318359 L 10.279297 15.308594 L 10.546875 15.080078 L 10.601562 14.835938 L 10.400391 14.675781 L 10.041016 14.533203 z M 15.708984 14.541016 L 15.367188 14.568359 L 15.169922 14.773438 L 15.185547 15.144531 L 15.521484 15.298828 L 15.789062 15.132812 L 15.90625 14.869141 L 15.708984 14.541016 z M 13.882812 14.580078 L 13.541016 14.757812 L 13.589844 15.076172 L 13.849609 15.314453 L 14.099609 15.339844 L 14.232422 15.121094 L 14.332031 14.746094 L 14.121094 14.634766 L 13.882812 14.580078 z M 12.029297 14.837891 L 11.728516 14.933594 L 11.554688 15.164062 L 11.667969 15.529297 L 12.005859 15.585938 L 12.246094 15.433594 L 12.318359 15.068359 L 12.029297 14.837891 z M 16 15.269531 L 15.859375 15.408203 L 15.916016 15.658203 L 15.798828 15.638672 L 15.648438 15.707031 L 15.626953 15.625 L 15.386719 15.386719 L 15.074219 15.544922 L 14.947266 15.775391 L 14.949219 15.789062 L 14.880859 15.683594 L 14.558594 15.728516 L 14.429688 16.023438 L 14.570312 16.351562 L 14.845703 16.443359 L 15.035156 16.691406 L 15.296875 16.720703 L 15.53125 16.638672 L 15.597656 16.345703 L 15.552734 16.199219 L 15.742188 16.34375 L 16 16.322266 L 16 15.269531 z M 13.357422 15.884766 L 13.097656 15.919922 L 12.888672 16.054688 L 12.894531 16.355469 L 13.070312 16.644531 L 13.412109 16.566406 L 13.589844 16.373047 L 13.625 16.099609 L 13.357422 15.884766 z M 11.255859 16.234375 L 11.041016 16.386719 L 10.917969 16.603516 L 11.064453 16.869141 L 11.355469 17.041016 L 11.621094 16.814453 L 11.6875 16.560547 L 11.591797 16.302734 L 11.255859 16.234375 z M 5.1308594 16.476562 L 4.7636719 16.539062 L 4.6503906 16.888672 L 4.8476562 17.136719 L 5.1230469 17.21875 L 5.4257812 16.984375 L 5.3574219 16.646484 L 5.1308594 16.476562 z M 15.998047 16.675781 L 15.728516 17.103516 L 16 17.433594 L 16 16.675781 L 15.998047 16.675781 z M 7.7519531 17.191406 L 7.5390625 17.300781 L 7.359375 17.464844 L 7.3125 17.847656 L 7.6015625 17.988281 L 7.9453125 17.910156 L 8.1074219 17.71875 L 8.0039062 17.484375 L 7.7519531 17.191406 z M 14.394531 17.191406 L 14.132812 17.3125 L 14.064453 17.689453 L 14.337891 17.896484 L 14.621094 17.873047 L 14.855469 17.582031 L 14.707031 17.244141 L 14.394531 17.191406 z M 12.4375 17.798828 L 11.972656 18.074219 L 12.140625 18.566406 L 12.673828 18.574219 L 12.833984 18.09375 L 12.4375 17.798828 z M 9.6933594 18.882812 L 9.3632812 18.980469 L 9.2460938 19.214844 L 9.2382812 19.462891 L 9.4902344 19.628906 L 9.8261719 19.646484 L 9.9570312 19.322266 L 9.8964844 19.066406 L 9.6933594 18.882812 z M 2.4765625 19.0625 L 1.9570312 19.173828 L 1.7617188 19.632812 L 2.1015625 19.994141 L 2.5292969 19.919922 L 2.7597656 19.523438 L 2.4765625 19.0625 z M 14.648438 19.173828 L 14.396484 19.375 L 14.369141 19.728516 L 14.585938 19.953125 L 14.875 20.091797 L 15.099609 19.78125 L 14.980469 19.578125 L 14.953125 19.283203 L 14.648438 19.173828 z M 7.671875 21.457031 L 7.3730469 21.5 L 7.1074219 21.708984 L 7.2246094 22.039062 L 7.4394531 22.191406 L 7.7148438 22.195312 L 7.8964844 21.904297 L 7.8300781 21.650391 L 7.671875 21.457031 z M 13.310547 21.878906 L 13.074219 22.179688 L 13.220703 22.490234 L 13.482422 22.601562 L 13.824219 22.453125 L 13.849609 22.085938 L 13.599609 21.892578 L 13.310547 21.878906 z M 10.410156 23.380859 L 10.109375 23.478516 L 9.9335938 23.707031 L 10.046875 24.072266 L 10.386719 24.128906 L 10.626953 23.976562 L 10.699219 23.611328 L 10.410156 23.380859 z M 4.2441406 23.693359 L 3.8769531 23.755859 L 3.7636719 24.107422 L 3.9609375 24.353516 L 4.2363281 24.4375 L 4.5390625 24.201172 L 4.4726562 23.865234 L 4.2441406 23.693359 z M 11.603516 27.222656 L 11.138672 27.5 L 11.304688 27.992188 L 11.839844 28 L 12 27.519531 L 11.603516 27.222656 z " />
  <rect
     width="32"
     height="32"
     rx="0"
     x="0"
     y="0"
     id="rect8566"
     style="fill:none;fill-opacity:1;stroke:none" />
</svg>
