<?xml version="1.0" encoding="UTF-8" standalone="no"?>
<svg
   version="1.1"
   width="14"
   height="14"
   viewBox="0 0 14 14"
   id="svg2"
   xmlns="http://www.w3.org/2000/svg"
   xmlns:svg="http://www.w3.org/2000/svg">
  <defs
     id="defs1" />
  <rect
     width="14"
     height="14"
     x="0"
     y="0"
     id="canvas"
     style="fill:none;stroke:none;visibility:hidden" />
  <path
     id="path1-9-1"
     fill="#000000"
     d="M 7 0 L 0 2 L 0 3 L 7 1 L 14 3 L 14 2 L 7 0 z M 6.1171875 2.6699219 C 5.7055039 2.7820302 5.7986062 3.3512998 5.7460938 3.4121094 L 5.7441406 3.4140625 L 5.7421875 3.4140625 C 5.6810283 3.3284007 5.5892735 2.9745024 5.5390625 2.9296875 L 5.5371094 2.9296875 L 5.5351562 2.9277344 L 5.5332031 2.9277344 L 5.53125 2.9277344 L 5.5292969 2.9277344 L 5.5273438 2.9277344 L 5.5253906 2.9296875 L 5.5234375 2.9296875 L 5.5234375 2.9316406 L 5.5214844 2.9335938 L 5.5195312 2.9355469 C 5.5097109 2.953018 5.5035615 2.9985295 5.5019531 3.0839844 C 5.5101018 3.376394 5.8391224 3.8348568 5.4726562 3.9902344 C 5.1658492 3.7090286 5.1134381 3.2751604 4.9296875 2.921875 C 4.7302627 3.0902095 5.0239823 3.8315475 5.0800781 3.8945312 L 5.0820312 3.8964844 L 5.0839844 3.8964844 L 5.0839844 3.8984375 L 5.0859375 3.8984375 L 5.0859375 3.8964844 L 5.0878906 3.8964844 L 5.0878906 3.8945312 L 5.0878906 3.8925781 C 5.0884521 3.8857922 5.0872589 3.8709985 5.0820312 3.8496094 C 5.2232607 4.1459862 5.5083321 4.334602 5.6894531 4.6035156 C 6.0271882 4.9062581 6.5119355 4.9337223 6.9238281 5.0820312 C 7.3971125 5.1131667 7.7825152 5.4266651 8.1367188 5.7109375 C 8.2066759 5.7518147 8.3304394 5.9266652 8.3398438 5.9648438 L 8.3398438 5.9667969 L 8.3398438 5.96875 L 8.3378906 5.96875 L 8.3378906 5.9707031 L 8.3359375 5.9707031 L 8.3339844 5.96875 L 8.3320312 5.96875 L 8.3300781 5.9667969 C 8.3156665 5.9579044 8.2844831 5.9286353 8.2304688 5.8671875 C 7.9538023 5.6139626 7.5760546 5.5163934 7.2519531 5.3378906 C 6.9444801 5.5117045 7.2728347 6.1473504 7.3144531 6.1914062 L 7.3164062 6.1914062 L 7.3164062 6.1894531 L 7.3164062 6.1875 C 7.4528222 6.4620237 8.1314327 6.6453288 8.171875 6.6640625 L 8.171875 6.6660156 C 8.1704904 6.6669407 8.1536064 6.6632697 8.1171875 6.65625 C 8.1587588 6.7001944 8.1935524 6.7467698 8.2207031 6.796875 C 8.1020062 6.8524909 7.9627346 6.9446913 7.7949219 7.0957031 C 7.0449219 7.8457031 2.5061825 6.8504037 1.6640625 7.5273438 L 1.6523438 7.53125 L 1.578125 7.5585938 C 1.488825 7.5856937 1.3876169 7.6040469 1.2792969 7.6230469 C 1.0680969 7.6609469 0.83004313 7.7043419 0.62695312 7.8261719 C 0.33181312 8.0021719 0.21905314 8.31338 0.12695312 8.5625 L 0.095703125 8.640625 L 0.09375 8.6523438 C 0.03955 8.7931538 0.10925 8.9458 0.25 9 C 0.39081 9.0514 0.54540938 8.9846 0.59960938 8.84375 L 0.6328125 8.7597656 C 0.7032125 8.5702156 0.77236375 8.3773281 0.90234375 8.2988281 C 0.98624375 8.2474281 1.0976569 8.2177294 1.2167969 8.1933594 C 1.1815969 8.3260394 1.1601562 8.4703425 1.1601562 8.6328125 L 1.1601562 9.3183594 C 1.1601562 9.4827288 1.3563109 9.6347031 1.609375 9.7832031 C 1.6816273 9.9688744 1.7564935 10.150462 1.75 10.25 C 1.7969 10.64852 1.42632 10.90722 1.25 11.25 C 1.10793 11.6284 1.01893 12.09915 1 12.5 C 0.9757 12.79137 1.32327 13.26794 1.5 13.5 C 1.64358 13.71102 1.91726 13.75559 2 14 C 2.24727 13.991 2.4948175 14.002953 2.7421875 14.001953 C 2.6777875 13.798513 2.5612813 13.619869 2.3945312 13.480469 C 2.2220814 13.317869 2.0940487 13.281146 1.8554688 12.916016 C 1.8265688 12.532126 1.82797 12.10751 2 11.75 C 2.0763 11.52706 2.2332194 11.257087 2.4121094 11.085938 C 2.5536394 10.882586 2.693285 10.651575 2.890625 10.671875 C 3.021655 10.743975 3.196215 10.883137 3.203125 11.117188 C 3.320405 11.481058 3.2908 11.909218 3.5 12.236328 C 3.68564 12.436598 4.0781944 12.585844 4.1777344 12.851562 C 4.2949444 13.078292 4.2743438 13.296704 4.2773438 13.558594 C 4.3144437 13.683784 4.404585 13.99758 4.578125 14 L 5.0058594 13.984375 C 4.9449594 13.538815 5.0189006 13.123471 4.8378906 12.707031 C 4.6360006 12.349141 4.1802831 11.947495 4.0019531 11.578125 C 3.8818776 11.2382 4.0007418 10.816586 4.2324219 10.5 L 4.25 10.5 C 4.58411 10.122 5.0439275 10.063763 5.5546875 10.039062 C 6.2424375 10.039062 6.2109375 10.613281 6.2109375 10.613281 C 6.1193375 11.742181 5.7859275 12.8711 6.2109375 14 L 7.0234375 14 C 6.5098375 12.98568 6.8433975 11.971351 7.0234375 10.957031 C 7.4440075 11.345701 7.4999987 11.500001 7.6679688 11.962891 C 7.8333287 12.666671 8.11068 13.3457 8.5 14 L 9.25 14 L 8.25 11.5 L 7.9824219 9.7109375 C 8.3747983 9.4712292 9.3909277 8.8550055 9.3046875 8.40625 C 9.3218698 8.4043403 9.3397077 8.4040402 9.359375 8.4042969 C 9.7305986 8.3138677 10.114724 8.9153256 10.376953 8.4746094 C 10.497598 8.1820002 10.245354 7.8388455 10.148438 7.5507812 C 9.9907399 7.3177497 10.069127 6.6408864 10.099609 6.5722656 L 10.101562 6.5722656 L 10.101562 6.5703125 L 10.103516 6.5703125 L 10.105469 6.5722656 L 10.105469 6.5742188 C 10.107283 6.581461 10.109376 6.5972309 10.109375 6.6191406 C 10.607405 6.7119226 11.092572 6.3091972 11.179688 5.8261719 C 11.243937 5.6568955 11.331391 5.2760844 11.03125 5.4765625 C 10.684532 5.5932319 10.351352 5.7565282 10.074219 5.9980469 C 10.070919 5.7804445 10.513099 5.5987431 10.763672 5.4433594 C 11.131976 5.3335193 11.546966 5.2582197 11.773438 4.9335938 C 12.057596 4.594673 12.732992 4.8763034 13.046875 4.5585938 C 13.317608 4.2338173 13.626772 4.0539421 13.640625 3.8066406 C 13.639903 3.642941 13.3719 3.35959 13.277344 3.5585938 C 13.168721 3.9096476 13.169442 4.1978795 12.748047 4.3125 C 12.508992 4.1158302 12.489896 3.929006 12.441406 3.7480469 C 12.411887 3.5980911 11.937752 3.2074563 12.011719 3.5507812 C 12.126319 4.0798388 12.377592 3.9294755 12.089844 4.4335938 C 12.020384 4.616066 11.472207 4.7076564 11.509766 4.3945312 C 11.523793 4.314014 11.437167 3.9344406 11.378906 3.8789062 L 11.376953 3.8769531 L 11.375 3.8769531 L 11.373047 3.8769531 L 11.371094 3.8769531 L 11.369141 3.8769531 L 11.367188 3.8769531 L 11.365234 3.8769531 L 11.365234 3.8789062 L 11.363281 3.8789062 L 11.361328 3.8808594 L 11.359375 3.8828125 L 11.357422 3.8847656 C 11.348396 3.8973491 11.341049 3.9252753 11.335938 3.9726562 C 11.332437 4.3513744 11.274147 4.7663557 10.914062 5.0214844 C 10.713878 5.1359785 10.562886 5.2886909 10.513672 5.2929688 L 10.511719 5.2929688 L 10.509766 5.2929688 L 10.507812 5.2929688 L 10.507812 5.2910156 L 10.505859 5.2910156 L 10.503906 5.2890625 L 10.501953 5.2871094 L 10.501953 5.2851562 L 10.5 5.2832031 L 10.5 5.28125 C 10.498528 5.2741791 10.498057 5.2629706 10.5 5.25 C 10.676611 4.8822397 10.797934 4.6180978 10.6875 4.2070312 C 10.464725 4.3273319 10.537786 4.8346446 10.232422 5.0390625 C 10.003645 5.2475996 9.7057386 5.6275065 9.6445312 5.7578125 C 9.4060178 5.7848509 9.2092985 6.0364342 8.9394531 5.8046875 C 8.4876318 5.6974299 8.6482767 4.9904281 8.3105469 4.7070312 C 8.1926252 4.5417029 7.8987272 4.1519028 7.7988281 4.0078125 C 7.7199019 4.2025611 8.0327891 4.745729 8.0761719 4.8300781 C 8.167381 4.9362449 8.3510243 5.1559161 8.3496094 5.2167969 L 8.3496094 5.21875 L 8.3496094 5.2207031 L 8.3476562 5.2207031 L 8.3476562 5.2226562 L 8.3457031 5.2246094 L 8.34375 5.2265625 L 8.3417969 5.2265625 L 8.3398438 5.2265625 L 8.3378906 5.2285156 L 8.3359375 5.2285156 C 8.3147929 5.2308496 8.2697898 5.2129707 8.1914062 5.1660156 C 7.8332296 5.0475784 7.5160891 4.8346769 7.1679688 4.6972656 C 6.846043 4.744558 6.6212529 4.6331738 6.5019531 4.3378906 C 6.1028589 3.9738019 6.3630768 3.7288865 6.0742188 3.6386719 C 5.9678774 3.8179608 6.0392247 4.2796562 6.0917969 4.4453125 C 5.8306033 4.1501769 5.8948773 3.7360698 6.015625 3.390625 C 6.0112664 3.186964 6.205237 2.7939914 6.1171875 2.6699219 z M 8.0761719 4.8300781 C 8.0685677 4.8212269 8.062788 4.8138399 8.0566406 4.8066406 C 8.0698524 4.8259934 8.0769597 4.8362247 8.0800781 4.8398438 C 8.0789847 4.8375009 8.0781628 4.833949 8.0761719 4.8300781 z M 7.7988281 4.0078125 C 7.8008258 4.0028834 7.8041302 3.9986103 7.8066406 3.9941406 C 7.785339 3.9700036 7.7723554 3.9582909 7.7675781 3.9550781 L 7.765625 3.9550781 C 7.7683614 3.9618491 7.7801481 3.9808692 7.7988281 4.0078125 z " />
</svg>
