<?xml version="1.0" encoding="UTF-8" standalone="no"?>
<svg
   width="12"
   height="12"
   viewBox="0 0 12 12"
   version="1.1"
   id="svg135"
   xmlns="http://www.w3.org/2000/svg"
   xmlns:svg="http://www.w3.org/2000/svg">
  <defs
     id="defs4993" />
  <path
     id="path5985-7-6-8"
     style="fill:#000000"
     d="M 0.945312,0 C 0.422091,0 0,0.422091 0,0.945312 V 7.554688 12 H 1 V 8.875 H 11 V 12 h 1 V 7.554688 0.945312 C 12,0.422091 11.577909,0 11.054688,0 Z M 1,0.75 H 11 V 8.125 H 1 Z m 9.033203,1.001953 A 0.25,0.25 0 0 0 9.751953,1.966797 C 9.632436,2.863174 9.348967,3.356993 8.986328,3.681641 8.623689,4.006288 8.157011,4.169514 7.646484,4.324219 7.135959,4.478924 6.583555,4.622238 6.095703,4.958984 5.607852,5.295732 5.20436,5.833191 5.005859,6.693359 a 0.25,0.25 0 0 0 0.1875,0.300782 0.25,0.25 0 0 0 0.300782,-0.1875 C 5.670639,6.041812 5.985901,5.641767 6.380859,5.369141 6.775819,5.096514 7.270293,4.958576 7.791016,4.800781 8.311737,4.642987 8.860687,4.462461 9.318359,4.052734 9.776032,3.643009 10.117564,3.011822 10.248047,2.033203 A 0.25,0.25 0 0 0 10.033203,1.751953 Z M 8,1.9375 5.5,3 h 1.125 1.5 z M 3.5,2 A 1.5,1.5 0 0 0 2,3.5 1.5,1.5 0 0 0 2.113281,4.0625 L 2.125,4.125 3.5,7 4.875,4.125 4.89648,4.03711 A 1.5,1.5 0 0 0 4.98632,3.677735 L 5,3.625 H 4.9902 A 1.5,1.5 0 0 0 5,3.5 1.5,1.5 0 0 0 3.5,2 Z m 0,0.875 A 0.625,0.625 0 0 1 4.125,3.5 0.625,0.625 0 0 1 3.5,4.125 0.625,0.625 0 0 1 2.875,3.5 0.625,0.625 0 0 1 3.5,2.875 Z M 7,6 v 1 h 3 V 6 Z" />
</svg>
