<?xml version="1.0" encoding="UTF-8" standalone="no"?>
<svg
   width="11"
   height="11"
   viewBox="0 0 11 11"
   version="1.1"
   id="svg135"
   xmlns="http://www.w3.org/2000/svg"
   xmlns:svg="http://www.w3.org/2000/svg">
  <defs
     id="defs4993" />
  <path
     id="rect8305-5"
     style="fill:#000000"
     d="M 3 0 C 2.4460012 0 2 0.4460011 2 1 L 2 4 C 2 4.5539988 2.4460012 5 3 5 L 5 5 C 5 8.4999965 4.9999994 9.7500002 4.375 10 L 6.25 10 C 6.0000003 9.7500002 6 8.4999965 6 5 L 8 5 C 8.5539988 5 9 4.5539988 9 4 L 9 1 C 9 0.4460011 8.5539988 0 8 0 L 3 0 z M 3 1 L 8 1 L 8 4 L 3 4 L 3 1 z M 4.3125 2 A 0.3125 0.3125 0 0 0 4 2.3125 A 0.3125 0.3125 0 0 0 4.3125 2.625 L 6.6875 2.625 A 0.3125 0.3125 0 0 0 7 2.3125 A 0.3125 0.3125 0 0 0 6.6875 2 L 4.3125 2 z M 8 9.25 A 1 0.375 0 0 0 7 9.625 A 1 0.375 0 0 0 8 10 A 1 0.375 0 0 0 9 9.625 A 1 0.375 0 0 0 8 9.25 z " />
  <rect
     width="11"
     height="11"
     x="0"
     y="0"
     id="canvas"
     style="fill:none;stroke:none;visibility:hidden" />
</svg>
