<?xml version="1.0" encoding="UTF-8" standalone="no"?>
<svg
   version="1.1"
   width="14"
   height="14"
   viewBox="0 0 14 14"
   id="svg2"
   xmlns="http://www.w3.org/2000/svg"
   xmlns:svg="http://www.w3.org/2000/svg">
  <defs
     id="defs1" />
  <rect
     width="14"
     height="14"
     x="0"
     y="0"
     id="canvas"
     style="fill:none;stroke:none;visibility:hidden" />
  <path
     id="parking-bicycle"
     style="fill:#000000"
     d="M 0,1 V 11 H 2 V 7 h 2.38086 c 3.5045,-0.02378 3.5045,-6 0,-6 z M 2,3 H 4 C 5.25,3 5.25,5 4,5 H 2 Z M 9,7 V 7.59375 L 9.5,8 v 0.75 h -3 V 8.5 H 7 C 7.47941,8.5 7.45544,8 7,8 H 5.5 C 4.99998,8 4.99998,8.452061 5.5,8.5 H 6 V 8.75 L 5.4375,10.03125 C 5.29617,10.001436 5.14777,10 5,10 c -1.02182,0 -2,0.793931 -2,2 0,1.206069 0.97818,2 2,2 1.02182,0 1.9375,-0.856431 1.9375,-2.0625 0,-0.150759 -0.004,-0.302075 -0.0312,-0.4375 H 7.75 l 1.82227,-2 0.36523,0.78125 C 9.3829,10.615837 9,11.229686 9,12 c 0,1.206069 0.97819,2 2,2 1.02183,0 1.9375,-0.856431 1.9375,-2.0625 C 12.9375,10.731431 12.02183,10 11,10 c -0.15008,0 -0.29226,0.02946 -0.4375,0.0625 L 10,8.75 V 7.800781 Z M 6.40625,9.5 H 8.59961 L 7.40625,10.75 H 6.5625 C 6.42239,10.56342 6.25804,10.401358 6.0625,10.28125 Z M 5,11 c 0.6351,0 1,0.549217 1,1 0,0.450783 -0.3649,1 -1,1 -0.6351,0 -1,-0.549217 -1,-1 0,-0.450783 0.3649,-1 1,-1 z m 6,0 c 0.6351,0 1,0.549217 1,1 0,0.450783 -0.3649,1 -1,1 -0.63509,0 -1,-0.549217 -1,-1 0,-0.450783 0.36491,-1 1,-1 z" />
</svg>
