<?xml version="1.0" encoding="UTF-8" standalone="no"?>
<svg
   version="1.1"
   width="10"
   height="10"
   viewBox="0 0 10 10"
   id="svg2"
   xmlns="http://www.w3.org/2000/svg"
   xmlns:svg="http://www.w3.org/2000/svg">
  <defs
     id="defs1" />
  <rect
     style="visibility:hidden;fill:none;stroke:none"
     id="canvas"
     y="0"
     x="0"
     height="10"
     width="10" />
  <path
     id="path40-1-3-7"
     style="fill:#000000"
     d="M 1,0 V 7 H 2 V 4 h 2.41016 a 1.7,2 0 0 0 0,-4 z m 1,1 h 2.11914 a 0.9,1 0 0 1 0,2 H 2 Z M 7.125,5 C 7.00615,5.000497 6.90407,5.08461 6.88086,5.201172 6.85326,5.33656 6.94076,5.468649 7.07617,5.496094 L 7.5,5.580078 V 6 h -2 V 5.75 H 5.75 C 5.88807,5.75 6,5.638071 6,5.5 6,5.361929 5.88807,5.25 5.75,5.25 h -1 C 4.61193,5.25 4.5,5.361929 4.5,5.5 4.5,5.638071 4.61193,5.75 4.75,5.75 H 5 V 6 6.212891 L 4.73242,7.017578 C 4.65552,7.005699 4.57781,6.999822 4.5,7 3.67157,7 3,7.671574 3,8.5 3,9.328426 3.67157,10 4.5,10 5.32843,10 6,9.328426 6,8.5 5.99995,8.329663 5.9141,8 5.9141,8 H 6.4727 L 7.63285,6.630859 7.84184,7.154297 C 7.32739,7.405487 7.00083,7.927553 7,8.5 7,9.328426 7.67157,10 8.5,10 9.32843,10 10,9.328426 10,8.5 10,7.671574 9.32843,7 8.5,7 8.4412,7.0011 8.38249,7.0057 8.32422,7.01367 L 8,6.199219 V 6 5.390625 C 8.008,5.265222 7.9221,5.153181 7.79883,5.128906 l -0.625,-0.125 c -0.0161,-0.0029 -0.0325,-0.0042 -0.0488,-0.0039 z M 5.71875,6.5 H 7.08594 L 6.32031,7.404297 Z M 5.32422,6.8125 5.7832,7.5 H 5.61719 C 5.49934,7.368386 5.35916,7.258626 5.20312,7.175781 Z M 4.5,7.625 C 4.98325,7.625 5.375,8.016751 5.375,8.5 5.375,8.983249 4.98325,9.375 4.5,9.375 4.01675,9.375 3.625,8.983249 3.625,8.5 3.625,8.016751 4.01675,7.625 4.5,7.625 Z m 4,0 C 8.98325,7.625 9.375,8.016751 9.375,8.5 9.375,8.983249 8.98325,9.375 8.5,9.375 8.01675,9.375 7.625,8.983249 7.625,8.5 7.625,8.016751 8.01675,7.625 8.5,7.625 Z" />
</svg>
