<?xml version="1.0" encoding="UTF-8" standalone="no"?>
<svg
   version="1.1"
   width="16"
   height="10"
   viewBox="0 0 16 10"
   id="svg2"
   xmlns="http://www.w3.org/2000/svg"
   xmlns:svg="http://www.w3.org/2000/svg">
  <defs
     id="defs1" />
  <rect
     width="16"
     height="10"
     x="0"
     y="0"
     id="canvas"
     style="visibility:hidden;fill:none;stroke:none" />
  <path
     id="rect1"
     style="fill:#ff0000"
     d="m 3,2.5 h 7 l 1,1 1,0.5 -2,3.25 H 2.75 L 1,4 Z" />
  <path
     id="rect194"
     style="fill:#000000"
     d="M 9,0 8,2 H 5 V 1 H 3 V 2 H 2.5 C 2.2238691,2.0000276 2.0000276,2.2238691 2,2.5 V 3 H 0.5 C 0.11637824,3.0004807 -0.12384919,3.4149272 0.06640625,3.7480469 L 1.9238281,7 H 0 V 7.5 H 13 V 8 H 0 V 8.25 H 13 V 9 H 0 V 9.125 H 13 V 10 H 13.5 16 V 9.75 H 13.5 V 9.5 H 16 V 9.25 H 13.5 V 9 H 16 V 8.75 H 13.5 V 8.5 H 16 V 8.25 H 13.5 V 8 H 16 V 7.75 H 13.5 V 7.5 H 16 V 7.25 H 13.5 V 7 H 16 V 6.75 H 13.5 V 6.5 H 16 V 6 h -1 l -2,-0.75 -0.923828,-0.1679688 0.84375,-1.3125 C 13.132546,3.4371834 12.894541,3.0010266 12.5,3 H 11 V 2.5 C 10.999972,2.2238691 10.776131,2.0000276 10.5,2 H 10 L 11,0 Z M 3,3 h 7 V 3.75 H 3 Z M 1.6113281,4 H 2.5 10.625 11.333984 L 11.09375,4.375 H 10.375 l -1,0.25 h 1.558594 l -0.482422,0.75 H 9.625 l -1,0.25 h 1.666016 L 9.8085938,6.375 H 8.625 l -1,0.25 H 9.6484375 L 9.40625,7 H 3.3261719 Z M 3,4.25 V 5 H 4 V 4.25 Z m 2,0 V 5 H 6 V 4.25 Z m 2,0 V 5 H 8 V 4.25 Z M 11.644531,5.7539062 13,6 v 1 h -2.158203 z" />
</svg>
