<?xml version="1.0" encoding="UTF-8" standalone="no"?>
<svg
   version="1.1"
   width="10"
   height="10"
   viewBox="0 0 10 10"
   id="svg2"
   xmlns="http://www.w3.org/2000/svg"
   xmlns:svg="http://www.w3.org/2000/svg">
  <defs
     id="defs1" />
  <rect
     style="visibility:hidden;fill:none;stroke:none"
     id="canvas"
     y="0"
     x="0"
     height="10"
     width="10" />
  <path
     id="path1-0-5-0-3"
     style="fill:#000000"
     d="M 0,0 V 7 H 1 V 4 h 2.41016 a 1.7,2 0 0 0 0,-4 z m 1,1 h 2.11914 a 0.9,1 0 0 1 0,2 H 1 Z m 6.125,2.744141 c -0.20035,0.0436 0.43772,1.594083 0.37305,2.355468 -0.1087,0.126609 0.0971,0.637917 -0.0742,0.716797 -0.064,0.02947 -0.34452,0.08008 -0.35352,0.08008 -0.001,0 -0.004,-0.01187 -0.006,-0.02539 -0.006,-0.03327 -0.0335,-0.10028 -0.0527,-0.13086 C 6.97603,6.683676 6.63711,6.001997 6.56241,5.984377 5.2181,5.972577 5.20019,5.966207 3.79288,5.970707 L 3.14444,6.630863 c -0.0305,0.02915 -0.0659,0.09453 -0.0762,0.140625 -0.0122,0.05468 -0.004,0.118918 0.0176,0.179688 a 1.5625,1.5625 0 0 1 0.47656,-0.07617 1.5625,1.5625 0 0 1 1.5625,1.5625 1.5625,1.5625 0 0 1 -0.10742,0.560547 c 0.004,-4.96e-4 0.0109,-0.0013 0.0117,-0.002 0.002,-0.0018 0.28276,-0.0046 0.625,-0.0078 0.5837,-0.0055 0.70592,-0.0095 0.88672,-0.02539 0.15182,-0.01329 0.28637,-0.03167 0.40625,-0.05664 a 1.5625,1.5625 0 0 1 -0.0723,-0.46875 1.5625,1.5625 0 0 1 1.5625,-1.5625 1.5625,1.5625 0 0 1 0.32422,0.0332 c 0.0221,-0.0016 0.0436,-0.0027 0.0664,-0.0039 l 0.084,-0.0039 0.0234,-0.04687 c 0.0557,-0.103406 0.1034,-0.221911 0.1289,-0.328125 0.013,-0.05412 0.0141,-0.08028 0.0137,-0.177735 C 9.0776,6.241756 9.07723,6.231182 9.06037,6.179675 9.00917,6.023021 8.90431,5.89928 8.72443,5.787096 h -0.002 C 7.66577,4.234447 7.24521,3.71798 7.125,3.744141 Z M 3.5,7 A 1.5,1.5 0 0 0 2,8.5 1.5,1.5 0 0 0 3.5,10 1.5,1.5 0 0 0 5,8.5 1.5,1.5 0 0 0 3.5,7 Z m 5,0 A 1.5,1.5 0 0 0 7,8.5 1.5,1.5 0 0 0 8.5,10 1.5,1.5 0 0 0 10,8.5 1.5,1.5 0 0 0 8.5,7 Z m -5,0.625 A 0.875,0.875 0 0 1 4.375,8.5 0.875,0.875 0 0 1 3.5,9.375 0.875,0.875 0 0 1 2.625,8.5 0.875,0.875 0 0 1 3.5,7.625 Z m 5,0 A 0.875,0.875 0 0 1 9.375,8.5 0.875,0.875 0 0 1 8.5,9.375 0.875,0.875 0 0 1 7.625,8.5 0.875,0.875 0 0 1 8.5,7.625 Z" />
</svg>
