<?xml version="1.0" encoding="UTF-8" standalone="no"?>
<svg
   version="1.1"
   width="14"
   height="14"
   viewBox="0 0 14 14"
   id="svg2"
   xmlns="http://www.w3.org/2000/svg"
   xmlns:svg="http://www.w3.org/2000/svg">
  <defs
     id="defs1" />
  <rect
     style="visibility:hidden;fill:none;stroke:none"
     id="canvas"
     y="0"
     x="0"
     height="14"
     width="14" />
  <path
     id="rect24"
     style="fill:#000000"
     d="M 0,1 V 11 H 2 V 7 h 2.38086 c 3.5045,-0.02378 3.5045,-6 0,-6 z M 2,3 H 4 C 5.25,3 5.25,5.000001 4,5.000001 H 2 Z m 8.03125,3.000001 C 9.87778,6.217587 10.61599,8.061562 10.53711,8.990235 10.39811,9.152179 10.1234,9.547549 9.9043,9.648438 9.8224,9.686138 9.66199,9.75 9.65039,9.75 9.64939,9.75 9.64539,9.73604 9.64239,9.71875 9.63439,9.67619 9.60059,9.589891 9.57599,9.550781 9.53049,9.478431 9.09532,8.608477 8.99982,8.585938 c -1.71949,-0.01514 -2.19993,-0.02523 -4,-0.01953 l -0.83008,0.84375 c -0.039,0.03728 -0.0845,0.122671 -0.0976,0.181641 -0.0279,0.124868 0.0226,0.289091 0.12109,0.396484 l 0.0195,0.01953 0.29492,0.0059 c 0.46217,0.0071 0.73308,0.03886 1.04102,0.126953 0.70085,0.200485 1.11377,0.63889 1.23047,1.30664 0.0408,0.232148 0.0445,0.553316 0.01,0.830078 -0.0224,0.179073 -0.0251,0.164063 0.0137,0.164063 0.0178,0 0.0351,-0.0017 0.0371,-0.0039 0.002,-0.0022 0.36305,-0.0076 0.80078,-0.01172 0.74661,-0.007 0.90157,-0.01098 1.13282,-0.03125 0.5151,-0.04508 0.87801,-0.140806 1.13086,-0.300781 0.0279,-0.01761 0.0848,-0.06345 0.12695,-0.101562 l 0.0762,-0.07031 0.0156,-0.06445 c 0.18246,-0.81215 0.55062,-1.336271 1.13672,-1.615234 0.27327,-0.130073 0.58773,-0.200394 0.97851,-0.220704 l 0.10742,-0.0059 0.0312,-0.06055 c 0.0712,-0.132265 0.13147,-0.284065 0.16407,-0.419922 0.0166,-0.06922 0.0181,-0.101908 0.0176,-0.226562 -5e-4,-0.135434 -0.002,-0.148963 -0.0234,-0.214843 C 12.46987,8.893385 12.33567,8.735298 12.10558,8.591806 10.90748,6.83169 10.34996,6.117333 10.13097,6.000009 Z m 2.18555,4.197266 c -0.065,-0.0024 -0.12982,-0.0026 -0.19532,0.002 -0.58089,0.04008 -1.08967,0.330957 -1.39257,0.794922 -0.26256,0.402095 -0.32369,0.909423 -0.16407,1.365234 0.17299,0.493989 0.58709,0.882996 1.11914,1.050781 0.21515,0.06785 0.48865,0.09708 0.7168,0.07813 0.60797,-0.05051 1.15103,-0.396946 1.42578,-0.910156 0.33042,-0.617213 0.21062,-1.366204 -0.29883,-1.867187 -0.32064,-0.315313 -0.75617,-0.497082 -1.21093,-0.513672 z m -7.32618,0.0059 c -0.16511,-1.9e-4 -0.22361,0.002 -0.29101,0.01367 -0.3814,0.06549 -0.69302,0.217477 -0.95703,0.462891 -0.27232,0.253137 -0.44341,0.564954 -0.50391,0.923828 -0.0223,0.133462 -0.0194,0.378291 0.006,0.511717 0.13328,0.705588 0.70329,1.237125 1.45508,1.357422 0.11704,0.01873 0.35716,0.02699 0.46875,0.01563 0.19412,-0.01979 0.40905,-0.07759 0.58008,-0.154297 0.5391,-0.241792 0.9033,-0.702118 0.99218,-1.257813 0.0186,-0.116327 0.0185,-0.332069 0,-0.455078 -0.1002,-0.666676 -0.62117,-1.209583 -1.32031,-1.374999 -0.15506,-0.03667 -0.21564,-0.04276 -0.42969,-0.04297 z m 7.19727,0.564453 c 0.59184,-0.0265 1.09656,0.356676 1.19727,0.908203 0.0188,0.103071 0.0133,0.299964 -0.0117,0.400391 -0.10876,0.437362 -0.47694,0.763076 -0.94922,0.835937 -0.0983,0.01518 -0.32453,0.009 -0.42383,-0.01172 -0.0802,-0.0166 -0.21555,-0.0608 -0.28125,-0.0918 -0.0841,-0.03968 -0.2007,-0.120258 -0.2793,-0.191406 -0.30964,-0.28095 -0.42559,-0.685406 -0.30664,-1.076172 0.0292,-0.09604 0.1177,-0.260687 0.1836,-0.341797 0.21127,-0.260143 0.52459,-0.416131 0.87109,-0.431641 z m -7.19336,0.0039 c 0.15137,3.1e-4 0.24905,0.01519 0.38086,0.05859 0.34424,0.11337 0.62426,0.388668 0.72266,0.710937 0.19082,0.62467 -0.2284,1.252694 -0.91407,1.369141 -0.0866,0.01471 -0.28846,0.01462 -0.38476,0 -0.19446,-0.02944 -0.38021,-0.108047 -0.54297,-0.230468 -0.21147,-0.159062 -0.3652,-0.408369 -0.4082,-0.66211 -0.0166,-0.09871 -0.013,-0.304085 0.008,-0.390625 0.0505,-0.209636 0.14475,-0.375713 0.30078,-0.527344 0.095,-0.09232 0.18363,-0.152277 0.30469,-0.210937 0.17386,-0.08424 0.32494,-0.117592 0.5332,-0.117188 z" />
</svg>
