<?xml version="1.0" encoding="UTF-8" standalone="no"?>
<svg
   width="14"
   height="14"
   viewBox="0 0 14 14"
   version="1.1"
   id="svg4"
   xmlns="http://www.w3.org/2000/svg"
   xmlns:svg="http://www.w3.org/2000/svg">
  <rect
     width="14"
     height="14"
     x="0"
     y="0"
     id="canvas"
     style="fill:none;stroke:none;visibility:hidden" />
  <path
     d="M 1,0 C 0.446,0 0,0.446 0,1 v 2 c 0,0.554 0.446,1 1,1 h 10 c 0.554,0 1,-0.446 1,-1 V 2.5 h 1 V 5 C 10.666667,5 8.3333333,5 6,5 V 7 H 5 v 7 H 8 V 7 H 7 V 6 c 2.3333333,0 4.666667,0 7,0 V 1.5 c -0.666667,0 -1.333333,0 -2,0 V 1 C 12,0.446 11.554,0 11,0 Z"
     id="path2"
     style="fill:#000000" />
</svg>
