<?xml version="1.0" encoding="UTF-8" standalone="no"?>
<svg
   version="1.1"
   id="svg2"
   viewBox="0 0 14 14"
   height="14"
   width="14"
   xmlns="http://www.w3.org/2000/svg"
   xmlns:svg="http://www.w3.org/2000/svg"
   xmlns:rdf="http://www.w3.org/1999/02/22-rdf-syntax-ns#"
   xmlns:cc="http://creativecommons.org/ns#"
   xmlns:dc="http://purl.org/dc/elements/1.1/">
  <rect
     width="14"
     height="14"
     x="0"
     y="0"
     id="canvas"
     style="fill:none;stroke:none;visibility:hidden" />
  <path
     id="rect5"
     d="M 13.478516 1.1738281 A 0.55339859 0.55339859 0 0 0 13.25 1.1992188 L 11.767578 1.75 L 11.5 3 L 0 3 L 1 9 L 10 9.9003906 L 10 11 L 1.5 11 A 0.5 0.5 0 0 0 1.5 12 L 2.5234375 12 A 1 1 0 0 0 2.5 12.199219 A 1 1 0 0 0 3.5 13.199219 A 1 1 0 0 0 4.5 12.199219 A 1 1 0 0 0 4.4785156 12 L 8.5234375 12 A 1 1 0 0 0 8.5 12.199219 A 1 1 0 0 0 9.5 13.199219 A 1 1 0 0 0 10.5 12.199219 A 1 1 0 0 0 10.478516 12 L 11 12 L 11 10 L 12.5 3 L 12.599609 2.5996094 L 13.599609 2.25 A 0.55339859 0.55339859 0 0 0 13.478516 1.1738281 z M 1.1679688 4 L 3.5 4 L 3.5 5 L 1.3457031 5 L 1.1679688 4 z M 4 4 L 5.5 4 L 5.5 5 L 4 5 L 4 4 z M 6 4 L 7.5 4 L 7.5 5 L 6 5 L 6 4 z M 8 4 L 9.5 4 L 9.5 5 L 8 5 L 8 4 z M 10 4 L 11.285156 4 L 11.074219 5 L 10 5 L 10 4 z M 1.4355469 5.5 L 3.5 5.5 L 3.5 7 L 1.703125 7 L 1.4355469 5.5 z M 4 5.5 L 5.5 5.5 L 5.5 7 L 4 7 L 4 5.5 z M 6 5.5 L 7.5 5.5 L 7.5 7 L 6 7 L 6 5.5 z M 8 5.5 L 9.5 5.5 L 9.5 7 L 8 7 L 8 5.5 z M 10 5.5 L 10.96875 5.5 L 10.652344 7 L 10 7 L 10 5.5 z M 1.7929688 7.5 L 3.5 7.5 L 3.5 8.2539062 L 1.9003906 8.0996094 L 1.7929688 7.5 z M 4 7.5 L 5.5 7.5 L 5.5 8.4453125 L 4 8.3007812 L 4 7.5 z M 6 7.5 L 7.5 7.5 L 7.5 8.6367188 L 6 8.4921875 L 6 7.5 z M 8 7.5 L 9.5 7.5 L 9.5 8.828125 L 8 8.6855469 L 8 7.5 z M 10 7.5 L 10.544922 7.5 L 10.25 8.9003906 L 10 8.8769531 L 10 7.5 z "
     style="fill:#000000" />
</svg>
