<?xml version="1.0" encoding="UTF-8" standalone="no"?>
<svg
   width="14"
   height="14"
   viewBox="0 0 14 14"
   version="1.1"
   id="svg9"
   xmlns="http://www.w3.org/2000/svg"
   xmlns:svg="http://www.w3.org/2000/svg"
   xmlns:rdf="http://www.w3.org/1999/02/22-rdf-syntax-ns#"
   xmlns:cc="http://creativecommons.org/ns#"
   xmlns:dc="http://purl.org/dc/elements/1.1/">
  <rect
     width="14"
     height="14"
     x="0"
     y="0"
     id="canvas"
     style="fill:none;stroke:none;visibility:hidden" />
  <path
     id="path4"
     style="fill:#000000"
     d="m 1.2654783,0.017578 c -0.00378,0.49776859 0.2820343,0.87528132 0.625,1.2265625 0.3567951,0.3654455 0.8253326,0.6972903 1.3496094,0.9511719 0.5242768,0.2538813 1.1053552,0.4308106 1.6933594,0.4375 0.5880042,0.00669 1.2033408,-0.1792873 1.65625,-0.6503906 0.6457505,-0.671692 1.2181939,-0.6937663 1.5214843,-0.5722657 0.1516454,0.06075 0.2354611,0.1547677 0.2714844,0.2441407 0.035232,0.087409 0.043196,0.1809713 -0.041016,0.3378906 C 8.0635212,2.4368852 7.8897616,3.0980802 7.5216791,3.5794198 7.2069252,3.9910217 6.9085454,4.4638043 6.8263666,5.0286385 6.7433658,4.9991245 6.6414347,4.963562 6.535351,4.9094979 5.990941,4.5960712 5.207775,4.0626426 4.7174276,3.9367656 4.2227004,3.8097642 3.8665168,3.8027709 3.4097437,3.9338949 3.1459709,4.0096151 2.9591952,4.1122987 2.6247656,4.5021733 2.2082526,4.9877399 2.1201842,5.3437808 1.889343,5.9350508 1.5826919,6.5852156 1.4682206,7.2713682 1.3165534,7.9275979 0.97303964,9.4422802 1,10.282722 1,11 1,12 1.2744757,13.011369 1.6686399,13.399894 2.0740335,13.805335 2.408143,13.993549 3,14 3.5055932,14.005511 3.575121,13.911512 3.9918387,13.635603 4.312799,13.42163 5.0732994,12.613381 5.4688952,11.90039 l 0.4653644,-0.838736 1.1314544,-0.01172 c 0.8108345,-0.0057 1.7249756,0.01633 1.7249756,0.0332 0.3103469,0.452537 0.7183187,1.372224 1.0703137,1.794058 C 10.604272,13.744322 10.966003,14 11.816259,14 c 0.608138,0 0.978303,-0.156305 1.40625,-0.589844 C 13.853153,12.768236 14,12 14,11 14,9.9526863 13.944073,9.2605633 13.724462,8.173828 13.434821,7.0232209 13.039443,5.7898095 12.378759,4.8964842 12.209846,4.6712341 11.956587,4.3836674 11.804541,4.2597655 10.948694,3.5559178 9.4363046,3.8349081 8.535351,4.5950448 8.3729757,4.7105602 8.1302564,4.8446645 7.9826166,4.9153573 7.9607683,4.9257485 7.940218,4.9345031 7.9181635,4.9446542 7.9991691,4.716484 8.1459857,4.4787645 8.3498041,4.2122323 8.6722315,3.7905953 8.8809678,3.1025276 9.2361814,2.5292968 l 0.00781,-0.00977 0.00586,-0.011719 C 9.4712534,2.1078669 9.5028321,1.6461322 9.3494627,1.2656249 9.1960928,0.88511743 8.8804755,0.59662192 8.4979002,0.44335925 7.7327501,0.13683387 6.7030968,0.3616814 5.8396971,1.2597655 5.6093533,1.4993628 5.3239978,1.5941534 4.9451658,1.5898436 4.5663338,1.5855338 4.1136857,1.4585278 3.6951658,1.2558592 3.2766459,1.0531908 2.8909113,0.77613076 2.6365721,0.51562488 2.3888105,0.26185621 2.3146175,0.02164658 2.3104002,0.017578 Z m 3.197503,5.5039929 c 0.1344395,-2.203e-4 0.273335,0.052249 0.3789062,0.1542969 0.1182635,0.1126252 0.1289063,0.1685499 0.1289063,0.6640625 0,0.3435138 0.015625,0.6484375 0.015625,0.6484375 0,0 0.3100728,0.027344 0.6367187,0.027344 0.4335381,0 0.5365228,0.017792 0.6660157,0.1191407 0.078795,0.061927 0.1341026,0.135918 0.1171875,0.1640625 0.030703,0.1988115 0.021277,0.372639 -0.1230469,0.5175781 -0.1182635,0.1126251 -0.215646,0.088775 -0.7167969,0.1113281 L 4.9707938,7.9434459 V 8.6094615 C 4.9482879,9.1387569 4.8556138,9.2470214 4.7598563,9.3145397 4.4727263,9.4882392 4.2050923,9.448884 4.0586844,9.1504772 3.9854804,9.0096602 3.9597752,8.8233586 3.9571219,8.4629772 l -0.00391,-0.5507813 c 0,0 -0.7577064,-0.00385 -1.1171875,-0.029297 C 2.543215,7.7815032 2.4595033,7.4327266 2.6622001,7.1680553 2.7748251,7.0273331 2.8130815,7.0228136 3.3536063,7.0059459 l 0.6152344,-0.017578 0.017578,-0.5722656 c 0.039421,-0.6475116 0.022975,-0.6541358 0.2460937,-0.8359375 0.069668,-0.04012 0.1498051,-0.058462 0.2304689,-0.058594 z M 10.463645,5.732634 c 0.175102,0.00454 0.359628,0.083664 0.519532,0.2675781 0.550996,0.6891122 -0.475736,1.5178827 -1.0429684,0.8574219 -0.4549555,-0.4855234 -0.00187,-1.1386311 0.5234364,-1.125 z m 1.1875,1.0546875 c 0.174298,-0.00949 0.358909,0.047058 0.519532,0.1992188 0.71177,0.6742819 -0.245365,1.6685725 -0.929688,1 -0.54635,-0.5337742 -0.112735,-1.1707493 0.410156,-1.1992188 z m -2.361327,0.046875 c 0.1821313,0.00247 0.3712783,0.080661 0.5273437,0.2636719 C 10.410402,7.7935286 9.4343214,8.7345128 8.7820055,8.0568526 8.2453103,7.4993085 8.7434241,6.8267843 9.289818,6.8341965 Z m 1.257812,1.1992188 c 0.346088,0.00174 0.702645,0.2339709 0.728515,0.6953124 0.01476,1.005377 -1.3822187,0.9277299 -1.4003895,-0.00781 -0.010926,-0.4606875 0.3257875,-0.689239 0.6718745,-0.6875 z" />
</svg>
