<?xml version="1.0" encoding="UTF-8" standalone="no"?>
<!-- Created with Inkscape (http://www.inkscape.org/) -->

<svg
   version="1.1"
   width="10"
   height="10"
   viewBox="0 0 10 10"
   id="svg1"
   xmlns="http://www.w3.org/2000/svg"
   xmlns:svg="http://www.w3.org/2000/svg">
  <defs
     id="defs1" />
  <rect
     width="10"
     height="10"
     x="0"
     y="0"
     id="canvas"
     style="visibility:hidden;fill:none;stroke:none" />
  <path
     id="path4298-3"
     style="fill:#000000"
     d="M 5 0 A 4.9999995 4.9999995 0 0 0 0 5 A 4.9999995 4.9999995 0 0 0 5 10 A 4.9999995 4.9999995 0 0 0 10 5 A 4.9999995 4.9999995 0 0 0 5 0 z M 5.6621094 0.3984375 C 6.2274528 0.48008442 6.7876155 0.6657073 7.3125 0.96875 C 7.8373845 1.2717917 8.2794329 1.6645027 8.6328125 2.1132812 L 7.4882812 3.15625 A 3.0833333 3.0833335 30 0 0 6.5410156 2.3046875 A 3.0833333 3.0833335 30 0 0 5.328125 1.921875 L 5.6621094 0.3984375 z M 2.1132812 1.3613281 L 3.1621094 2.5136719 A 3.0833333 3.0833335 30 0 0 2.3300781 3.4316406 A 3.0833333 3.0833335 30 0 0 1.9433594 4.6621094 L 0.41992188 4.328125 C 0.50026779 3.7571826 0.68815493 3.1920908 0.99414062 2.6621094 C 1.2916183 2.1468619 1.6748577 1.7114488 2.1132812 1.3613281 z M 5 2.25 A 2.75 2.75 0 0 1 7.75 5 A 2.75 2.75 0 0 1 5 7.75 A 2.75 2.75 0 0 1 2.25 5 A 2.75 2.75 0 0 1 5 2.25 z M 8.0605469 5.3359375 L 9.5722656 5.6679688 C 9.4882637 6.2227152 9.3033381 6.7718619 9.0058594 7.2871094 C 8.6998747 7.8170908 8.3038869 8.2621349 7.8496094 8.6171875 L 6.8066406 7.4746094 A 3.0833333 3.0833335 30 0 0 7.6699219 6.515625 A 3.0833333 3.0833335 30 0 0 8.0605469 5.3359375 z M 2.5273438 6.7988281 A 3.0833333 3.0833335 30 0 0 3.4589844 7.6445312 A 3.0833333 3.0833335 30 0 0 4.6542969 8.0390625 L 4.3222656 9.5488281 C 3.7618002 9.4660802 3.2079475 9.2809494 2.6875 8.9804688 C 2.1670525 8.6799881 1.7288478 8.2916598 1.3769531 7.8476562 L 2.5273438 6.7988281 z " />
</svg>
