<?xml version="1.0" encoding="UTF-8" standalone="no"?>
<!-- Created with Inkscape (http://www.inkscape.org/) -->

<svg
   version="1.1"
   width="8"
   height="8"
   viewBox="0 0 8 8"
   id="svg1"
   xmlns="http://www.w3.org/2000/svg"
   xmlns:svg="http://www.w3.org/2000/svg">
  <defs
     id="defs1" />
  <rect
     width="8"
     height="8"
     x="0"
     y="0"
     id="canvas"
     style="visibility:hidden;fill:none;stroke:none" />
  <path
     id="path4280"
     style="fill:#000000"
     d="M 4,0 A 4,4 0 0 0 0,3.9999999 4,4 0 0 0 4,8.0000004 4,4 0 0 0 8,3.9999999 4,4 0 0 0 4,0 Z M 4.7558594,0.328125 A 3.75,3.75 0 0 1 5.875,0.7519532 3.75,3.75 0 0 1 6.7988281,1.5097655 L 5.7792969,2.6210938 A 2.25,2.25 0 0 0 5.125,2.0507813 2.25,2.25 0 0 0 4.3027344,1.7695312 Z M 1.5117188,1.1992187 2.6230469,2.2207031 A 2.25,2.25 0 0 0 2.0507812,2.875 2.25,2.25 0 0 0 1.7714844,3.6953125 L 0.3300781,3.2421875 A 3.75,3.75 0 0 1 0.7519531,2.125 3.75,3.75 0 0 1 1.5117188,1.1992187 Z M 4,2 a 2,2 0 0 1 2,1.9999999 2,2 0 0 1 -2,2 2,2 0 0 1 -2,-2 A 2,2 0 0 1 4,2 Z m 2.2285156,2.3027343 1.4414063,0.453125 A 3.75,3.75 0 0 1 7.2480469,5.8749999 3.75,3.75 0 0 1 6.4882812,6.7988283 L 5.3769531,5.7773437 A 2.25,2.25 0 0 0 5.9492188,5.1249999 2.25,2.25 0 0 0 6.2285156,4.3027343 Z M 2.2207031,5.3769531 A 2.25,2.25 0 0 0 2.875,5.9472655 2.25,2.25 0 0 0 3.6972656,6.2285155 L 3.2441406,7.6699213 A 3.75,3.75 0 0 1 2.125,7.2460933 3.75,3.75 0 0 1 1.2011719,6.4882812 Z" />
</svg>
