<?xml version="1.0" encoding="UTF-8" standalone="no"?>
<svg
   xmlns:dc="http://purl.org/dc/elements/1.1/"
   xmlns:cc="http://creativecommons.org/ns#"
   xmlns:rdf="http://www.w3.org/1999/02/22-rdf-syntax-ns#"
   xmlns:svg="http://www.w3.org/2000/svg"
   xmlns="http://www.w3.org/2000/svg"
   version="1.1"
   height="64"
   width="64"
   id="Svg">
  <metadata
     id="metadata178">
    <rdf:RDF>
      <cc:Work
         rdf:about="">
        <dc:format>image/svg+xml</dc:format>
        <dc:type
           rdf:resource="http://purl.org/dc/dcmitype/StillImage" />
      </cc:Work>
    </rdf:RDF>
  </metadata>
  <defs
     id="defs3" />
  <path
     id="path738"
     d="M 7 3 L 7 5 L 5 5 L 5 7 L 7 7 L 7 12 L 9 12 L 9 7 L 11 7 L 11 5 L 9 5 L 9 3 L 7 3 z M 23 3 L 23 5 L 21 5 L 21 7 L 23 7 L 23 12 L 25 12 L 25 7 L 27 7 L 27 5 L 25 5 L 25 3 L 23 3 z M 39 3 L 39 5 L 37 5 L 37 7 L 39 7 L 39 12 L 41 12 L 41 7 L 43 7 L 43 5 L 41 5 L 41 3 L 39 3 z M 55 3 L 55 5 L 53 5 L 53 7 L 55 7 L 55 12 L 57 12 L 57 7 L 59 7 L 59 5 L 57 5 L 57 3 L 55 3 z M 7 19 L 7 21 L 5 21 L 5 23 L 7 23 L 7 28 L 9 28 L 9 23 L 11 23 L 11 21 L 9 21 L 9 19 L 7 19 z M 23 19 L 23 21 L 21 21 L 21 23 L 23 23 L 23 28 L 25 28 L 25 23 L 27 23 L 27 21 L 25 21 L 25 19 L 23 19 z M 39 19 L 39 21 L 37 21 L 37 23 L 39 23 L 39 28 L 41 28 L 41 23 L 43 23 L 43 21 L 41 21 L 41 19 L 39 19 z M 55 19 L 55 21 L 53 21 L 53 23 L 55 23 L 55 28 L 57 28 L 57 23 L 59 23 L 59 21 L 57 21 L 57 19 L 55 19 z M 7 35 L 7 37 L 5 37 L 5 39 L 7 39 L 7 44 L 9 44 L 9 39 L 11 39 L 11 37 L 9 37 L 9 35 L 7 35 z M 23 35 L 23 37 L 21 37 L 21 39 L 23 39 L 23 44 L 25 44 L 25 39 L 27 39 L 27 37 L 25 37 L 25 35 L 23 35 z M 39 35 L 39 37 L 37 37 L 37 39 L 39 39 L 39 44 L 41 44 L 41 39 L 43 39 L 43 37 L 41 37 L 41 35 L 39 35 z M 55 35 L 55 37 L 53 37 L 53 39 L 55 39 L 55 44 L 57 44 L 57 39 L 59 39 L 59 37 L 57 37 L 57 35 L 55 35 z M 7 51 L 7 53 L 5 53 L 5 55 L 7 55 L 7 60 L 9 60 L 9 55 L 11 55 L 11 53 L 9 53 L 9 51 L 7 51 z M 23 51 L 23 53 L 21 53 L 21 55 L 23 55 L 23 60 L 25 60 L 25 55 L 27 55 L 27 53 L 25 53 L 25 51 L 23 51 z M 39 51 L 39 53 L 37 53 L 37 55 L 39 55 L 39 60 L 41 60 L 41 55 L 43 55 L 43 53 L 41 53 L 41 51 L 39 51 z M 55 51 L 55 53 L 53 53 L 53 55 L 55 55 L 55 60 L 57 60 L 57 55 L 59 55 L 59 53 L 57 53 L 57 51 L 55 51 z " style="fill:#000000" />
  <rect
     style="fill:none;fill-opacity:1;stroke:none"
     id="rect8566"
     y="0"
     x="0"
     rx="0"
     height="64"
     width="64" />
  <desc
     id="desc174">Created with Snap</desc>
</svg>
