<?xml version="1.0" encoding="UTF-8" standalone="no"?>
<svg
   xmlns:dc="http://purl.org/dc/elements/1.1/"
   xmlns:cc="http://creativecommons.org/ns#"
   xmlns:rdf="http://www.w3.org/1999/02/22-rdf-syntax-ns#"
   xmlns:svg="http://www.w3.org/2000/svg"
   xmlns="http://www.w3.org/2000/svg"
   version="1.1"
   height="64"
   width="64"
   id="Svg">
  <metadata
     id="metadata658">
    <rdf:RDF>
      <cc:Work
         rdf:about="">
        <dc:format>image/svg+xml</dc:format>
        <dc:type
           rdf:resource="http://purl.org/dc/dcmitype/StillImage" />
      </cc:Work>
    </rdf:RDF>
  </metadata>
  <defs
     id="defs3" />
  <path
     id="path2898"
     d="M 4 4 L 4 5 L 5 5 L 5 4 L 4 4 z M 12 4 L 12 5 L 13 5 L 13 4 L 12 4 z M 20 4 L 20 5 L 21 5 L 21 4 L 20 4 z M 28 4 L 28 5 L 29 5 L 29 4 L 28 4 z M 36 4 L 36 5 L 37 5 L 37 4 L 36 4 z M 44 4 L 44 5 L 45 5 L 45 4 L 44 4 z M 52 4 L 52 5 L 53 5 L 53 4 L 52 4 z M 60 4 L 60 5 L 61 5 L 61 4 L 60 4 z M 4 12 L 4 13 L 5 13 L 5 12 L 4 12 z M 12 12 L 12 13 L 13 13 L 13 12 L 12 12 z M 20 12 L 20 13 L 21 13 L 21 12 L 20 12 z M 28 12 L 28 13 L 29 13 L 29 12 L 28 12 z M 36 12 L 36 13 L 37 13 L 37 12 L 36 12 z M 44 12 L 44 13 L 45 13 L 45 12 L 44 12 z M 52 12 L 52 13 L 53 13 L 53 12 L 52 12 z M 60 12 L 60 13 L 61 13 L 61 12 L 60 12 z M 4 20 L 4 21 L 5 21 L 5 20 L 4 20 z M 12 20 L 12 21 L 13 21 L 13 20 L 12 20 z M 20 20 L 20 21 L 21 21 L 21 20 L 20 20 z M 28 20 L 28 21 L 29 21 L 29 20 L 28 20 z M 36 20 L 36 21 L 37 21 L 37 20 L 36 20 z M 44 20 L 44 21 L 45 21 L 45 20 L 44 20 z M 52 20 L 52 21 L 53 21 L 53 20 L 52 20 z M 60 20 L 60 21 L 61 21 L 61 20 L 60 20 z M 4 28 L 4 29 L 5 29 L 5 28 L 4 28 z M 12 28 L 12 29 L 13 29 L 13 28 L 12 28 z M 20 28 L 20 29 L 21 29 L 21 28 L 20 28 z M 28 28 L 28 29 L 29 29 L 29 28 L 28 28 z M 36 28 L 36 29 L 37 29 L 37 28 L 36 28 z M 44 28 L 44 29 L 45 29 L 45 28 L 44 28 z M 52 28 L 52 29 L 53 29 L 53 28 L 52 28 z M 60 28 L 60 29 L 61 29 L 61 28 L 60 28 z M 4 36 L 4 37 L 5 37 L 5 36 L 4 36 z M 12 36 L 12 37 L 13 37 L 13 36 L 12 36 z M 20 36 L 20 37 L 21 37 L 21 36 L 20 36 z M 28 36 L 28 37 L 29 37 L 29 36 L 28 36 z M 36 36 L 36 37 L 37 37 L 37 36 L 36 36 z M 44 36 L 44 37 L 45 37 L 45 36 L 44 36 z M 52 36 L 52 37 L 53 37 L 53 36 L 52 36 z M 60 36 L 60 37 L 61 37 L 61 36 L 60 36 z M 4 44 L 4 45 L 5 45 L 5 44 L 4 44 z M 12 44 L 12 45 L 13 45 L 13 44 L 12 44 z M 20 44 L 20 45 L 21 45 L 21 44 L 20 44 z M 28 44 L 28 45 L 29 45 L 29 44 L 28 44 z M 36 44 L 36 45 L 37 45 L 37 44 L 36 44 z M 44 44 L 44 45 L 45 45 L 45 44 L 44 44 z M 52 44 L 52 45 L 53 45 L 53 44 L 52 44 z M 60 44 L 60 45 L 61 45 L 61 44 L 60 44 z M 4 52 L 4 53 L 5 53 L 5 52 L 4 52 z M 12 52 L 12 53 L 13 53 L 13 52 L 12 52 z M 20 52 L 20 53 L 21 53 L 21 52 L 20 52 z M 28 52 L 28 53 L 29 53 L 29 52 L 28 52 z M 36 52 L 36 53 L 37 53 L 37 52 L 36 52 z M 44 52 L 44 53 L 45 53 L 45 52 L 44 52 z M 52 52 L 52 53 L 53 53 L 53 52 L 52 52 z M 60 52 L 60 53 L 61 53 L 61 52 L 60 52 z M 4 60 L 4 61 L 5 61 L 5 60 L 4 60 z M 12 60 L 12 61 L 13 61 L 13 60 L 12 60 z M 20 60 L 20 61 L 21 61 L 21 60 L 20 60 z M 28 60 L 28 61 L 29 61 L 29 60 L 28 60 z M 36 60 L 36 61 L 37 61 L 37 60 L 36 60 z M 44 60 L 44 61 L 45 61 L 45 60 L 44 60 z M 52 60 L 52 61 L 53 61 L 53 60 L 52 60 z M 60 60 L 60 61 L 61 61 L 61 60 L 60 60 z " style="fill:#000000" />
  <rect
     style="fill:none;fill-opacity:1;stroke:none"
     id="rect8566"
     y="0"
     x="0"
     rx="0"
     height="64"
     width="64" />
  <desc
     id="desc654">Created with Snap</desc>
</svg>
