<?xml version="1.0" encoding="UTF-8" standalone="no"?>
<svg
   xmlns:dc="http://purl.org/dc/elements/1.1/"
   xmlns:cc="http://creativecommons.org/ns#"
   xmlns:rdf="http://www.w3.org/1999/02/22-rdf-syntax-ns#"
   xmlns:svg="http://www.w3.org/2000/svg"
   xmlns="http://www.w3.org/2000/svg"
   version="1.1"
   height="128"
   width="128"
   id="Svg">
  <metadata
     id="metadata270">
    <rdf:RDF>
      <cc:Work
         rdf:about="">
        <dc:format>image/svg+xml</dc:format>
        <dc:type
           rdf:resource="http://purl.org/dc/dcmitype/StillImage" />
      </cc:Work>
    </rdf:RDF>
  </metadata>
  <defs
     id="defs3" />
  <path
     id="path1152"
     d="M 0 0 L 0 2.1308594 A 1.25 1.375 0 0 0 0.75 0.875 A 1.25 1.375 0 0 0 0.63085938 0.29492188 C 0.92374003 0.13302007 1.2750771 0.034701768 1.6621094 0 L 0.58789062 0 C 0.56260347 0.022848864 0.5346056 0.043313178 0.50976562 0.06640625 A 1.25 1.375 0 0 0 0.4609375 0 L 0 0 z M 2.2558594 0 C 2.8060815 0.042540268 3.4015267 0.20076313 4 0.5 C 3.9202892 0.30072291 3.8308963 0.15314302 3.7421875 0 L 2.2558594 0 z M 21.755859 0 C 21.479913 0.28897212 21.220048 0.75183584 21 1.5 C 21.758568 1.5 22.517073 -0.22007963 23.384766 0.25585938 A 1.25 1.375 0 0 0 23.25 0.875 A 1.25 1.375 0 0 0 24.175781 2.2011719 L 24 5 L 25 5 L 24.824219 2.2011719 A 1.25 1.375 0 0 0 25.75 0.875 A 1.25 1.375 0 0 0 25.630859 0.29492188 C 25.92374 0.13302007 26.275077 0.034701768 26.662109 0 L 25.587891 0 C 25.562603 0.022848864 25.534606 0.043313178 25.509766 0.06640625 A 1.25 1.375 0 0 0 25.460938 0 L 23.539062 0 A 1.25 1.375 0 0 0 23.505859 0.044921875 C 23.48491 0.028265699 23.462628 0.016003381 23.441406 0 L 21.755859 0 z M 27.255859 0 C 27.806082 0.042540268 28.401527 0.20076313 29 0.5 C 28.920289 0.30072291 28.830896 0.15314302 28.742188 0 L 27.255859 0 z M 47.755859 0 C 47.479913 0.28897212 47.220048 0.75183584 47 1.5 C 47.758568 1.5 48.517073 -0.22007963 49.384766 0.25585938 A 1.25 1.375 0 0 0 49.25 0.875 A 1.25 1.375 0 0 0 50.175781 2.2011719 L 50 5 L 51 5 L 50.824219 2.2011719 A 1.25 1.375 0 0 0 51.75 0.875 A 1.25 1.375 0 0 0 51.630859 0.29492188 C 51.92374 0.13302007 52.275077 0.034701768 52.662109 0 L 51.587891 0 C 51.562603 0.022848864 51.534606 0.043313178 51.509766 0.06640625 A 1.25 1.375 0 0 0 51.460938 0 L 49.539062 0 A 1.25 1.375 0 0 0 49.505859 0.044921875 C 49.48491 0.028265699 49.462628 0.016003381 49.441406 0 L 47.755859 0 z M 53.255859 0 C 53.806082 0.042540268 54.401527 0.20076313 55 0.5 C 54.920289 0.30072291 54.830896 0.15314302 54.742188 0 L 53.255859 0 z M 72.755859 0 C 72.479913 0.28897212 72.220048 0.75183584 72 1.5 C 72.758568 1.5 73.517073 -0.22007963 74.384766 0.25585938 A 1.25 1.375 0 0 0 74.25 0.875 A 1.25 1.375 0 0 0 75.175781 2.2011719 L 75 5 L 76 5 L 75.824219 2.2011719 A 1.25 1.375 0 0 0 76.75 0.875 A 1.25 1.375 0 0 0 76.630859 0.29492188 C 76.92374 0.13302007 77.275077 0.034701768 77.662109 0 L 76.587891 0 C 76.562603 0.022848864 76.534606 0.043313178 76.509766 0.06640625 A 1.25 1.375 0 0 0 76.460938 0 L 74.539062 0 A 1.25 1.375 0 0 0 74.505859 0.044921875 C 74.48491 0.028265699 74.462628 0.016003381 74.441406 0 L 72.755859 0 z M 78.255859 0 C 78.806082 0.042540268 79.401527 0.20076313 80 0.5 C 79.920289 0.30072291 79.830896 0.15314302 79.742188 0 L 78.255859 0 z M 98.755859 0 C 98.479913 0.28897212 98.220048 0.75183584 98 1.5 C 98.758568 1.5 99.517069 -0.22007963 100.38477 0.25585938 A 1.25 1.375 0 0 0 100.25 0.875 A 1.25 1.375 0 0 0 101.17578 2.2011719 L 101 5 L 102 5 L 101.82422 2.2011719 A 1.25 1.375 0 0 0 102.75 0.875 A 1.25 1.375 0 0 0 102.63086 0.29492188 C 102.92374 0.13302007 103.27508 0.034701768 103.66211 0 L 102.58789 0 C 102.5626 0.022848864 102.53461 0.043313178 102.50977 0.06640625 A 1.25 1.375 0 0 0 102.46094 0 L 100.53906 0 A 1.25 1.375 0 0 0 100.50586 0.044921875 C 100.48491 0.028265699 100.46263 0.016003381 100.44141 0 L 98.755859 0 z M 104.25586 0 C 104.80608 0.042540268 105.40153 0.20076313 106 0.5 C 105.92029 0.30072291 105.8309 0.15314302 105.74219 0 L 104.25586 0 z M 124.75586 0 C 124.47991 0.28897212 124.22005 0.75183584 124 1.5 C 124.75857 1.5 125.51707 -0.22007963 126.38477 0.25585938 A 1.25 1.375 0 0 0 126.25 0.875 A 1.25 1.375 0 0 0 127.17578 2.2011719 L 127 5 L 128 5 L 127.82422 2.2011719 A 1.25 1.375 0 0 0 128 2.1308594 L 128 0 L 126.53906 0 A 1.25 1.375 0 0 0 126.50586 0.044921875 C 126.48491 0.028265699 126.46263 0.016003381 126.44141 0 L 124.75586 0 z M 10 7 C 10.404899 8.822045 11.126466 9.2044938 11.257812 11.527344 A 1.25 1.375 0 0 0 11.070312 11.585938 C 10.544078 10.557597 9.6651819 9.5 8.25 9.5 C 8.25 10.813277 9.9399542 10.577717 10.783203 11.751953 A 1.25 1.375 0 0 0 10.505859 12.044922 C 9.6945176 11.399837 8.67102 11.218532 8 13.5 C 8.7585676 13.5 9.5170729 11.77992 10.384766 12.255859 A 1.25 1.375 0 0 0 10.25 12.875 A 1.25 1.375 0 0 0 11.175781 14.201172 L 11 17 L 12 17 L 11.824219 14.201172 A 1.25 1.375 0 0 0 12.75 12.875 A 1.25 1.375 0 0 0 12.630859 12.294922 C 13.452343 11.840813 14.723257 11.861628 16 12.5 C 15.102872 10.25718 13.589171 11.062911 12.509766 12.066406 A 1.25 1.375 0 0 0 12.208984 11.744141 C 12.986546 10.066037 14.536093 9.328344 15.5 8.75 C 14.03043 7.117145 12.678832 9.629043 11.910156 11.578125 A 1.25 1.375 0 0 0 11.650391 11.511719 C 11.718297 9.2298977 12.120702 7 10 7 z M 36 7 C 36.404899 8.822045 37.126467 9.2044938 37.257812 11.527344 A 1.25 1.375 0 0 0 37.070312 11.585938 C 36.544078 10.557597 35.665182 9.5 34.25 9.5 C 34.25 10.813277 35.939954 10.577717 36.783203 11.751953 A 1.25 1.375 0 0 0 36.505859 12.044922 C 35.694517 11.399837 34.67102 11.218532 34 13.5 C 34.758568 13.5 35.517073 11.77992 36.384766 12.255859 A 1.25 1.375 0 0 0 36.25 12.875 A 1.25 1.375 0 0 0 37.175781 14.201172 L 37 17 L 38 17 L 37.824219 14.201172 A 1.25 1.375 0 0 0 38.75 12.875 A 1.25 1.375 0 0 0 38.630859 12.294922 C 39.452343 11.840813 40.723257 11.861628 42 12.5 C 41.102872 10.25718 39.589171 11.062911 38.509766 12.066406 A 1.25 1.375 0 0 0 38.208984 11.744141 C 38.986547 10.066037 40.536093 9.328344 41.5 8.75 C 40.03043 7.117145 38.678832 9.629043 37.910156 11.578125 A 1.25 1.375 0 0 0 37.650391 11.511719 C 37.718297 9.2298977 38.120702 7 36 7 z M 62 7 C 62.404899 8.822045 63.126467 9.2044938 63.257812 11.527344 A 1.25 1.375 0 0 0 63.070312 11.585938 C 62.544078 10.557597 61.665182 9.5 60.25 9.5 C 60.25 10.813277 61.939954 10.577717 62.783203 11.751953 A 1.25 1.375 0 0 0 62.505859 12.044922 C 61.694517 11.399837 60.67102 11.218532 60 13.5 C 60.758568 13.5 61.517073 11.77992 62.384766 12.255859 A 1.25 1.375 0 0 0 62.25 12.875 A 1.25 1.375 0 0 0 63.175781 14.201172 L 63 17 L 64 17 L 63.824219 14.201172 A 1.25 1.375 0 0 0 64.75 12.875 A 1.25 1.375 0 0 0 64.630859 12.294922 C 65.452343 11.840813 66.723257 11.861628 68 12.5 C 67.102872 10.25718 65.589171 11.062911 64.509766 12.066406 A 1.25 1.375 0 0 0 64.208984 11.744141 C 64.986547 10.066037 66.536093 9.328344 67.5 8.75 C 66.03043 7.117145 64.678832 9.629043 63.910156 11.578125 A 1.25 1.375 0 0 0 63.650391 11.511719 C 63.718297 9.2298977 64.120702 7 62 7 z M 87 7 C 87.404899 8.822045 88.126468 9.2044938 88.257812 11.527344 A 1.25 1.375 0 0 0 88.070312 11.585938 C 87.544078 10.557597 86.665182 9.5 85.25 9.5 C 85.25 10.813277 86.939954 10.577717 87.783203 11.751953 A 1.25 1.375 0 0 0 87.505859 12.044922 C 86.694517 11.399837 85.67102 11.218532 85 13.5 C 85.758568 13.5 86.517073 11.77992 87.384766 12.255859 A 1.25 1.375 0 0 0 87.25 12.875 A 1.25 1.375 0 0 0 88.175781 14.201172 L 88 17 L 89 17 L 88.824219 14.201172 A 1.25 1.375 0 0 0 89.75 12.875 A 1.25 1.375 0 0 0 89.630859 12.294922 C 90.452343 11.840813 91.723257 11.861628 93 12.5 C 92.102872 10.25718 90.589171 11.062911 89.509766 12.066406 A 1.25 1.375 0 0 0 89.208984 11.744141 C 89.986547 10.066037 91.536093 9.328344 92.5 8.75 C 91.03043 7.117145 89.678832 9.629043 88.910156 11.578125 A 1.25 1.375 0 0 0 88.650391 11.511719 C 88.718297 9.2298977 89.120702 7 87 7 z M 113 7 C 113.4049 8.822045 114.12647 9.2044938 114.25781 11.527344 A 1.25 1.375 0 0 0 114.07031 11.585938 C 113.54408 10.557597 112.66518 9.5 111.25 9.5 C 111.25 10.813277 112.93995 10.577717 113.7832 11.751953 A 1.25 1.375 0 0 0 113.50586 12.044922 C 112.69452 11.399837 111.67102 11.218532 111 13.5 C 111.75857 13.5 112.51707 11.77992 113.38477 12.255859 A 1.25 1.375 0 0 0 113.25 12.875 A 1.25 1.375 0 0 0 114.17578 14.201172 L 114 17 L 115 17 L 114.82422 14.201172 A 1.25 1.375 0 0 0 115.75 12.875 A 1.25 1.375 0 0 0 115.63086 12.294922 C 116.45234 11.840813 117.72326 11.861628 119 12.5 C 118.10287 10.25718 116.58917 11.062911 115.50977 12.066406 A 1.25 1.375 0 0 0 115.20898 11.744141 C 115.98655 10.066037 117.53609 9.328344 118.5 8.75 C 117.03043 7.117145 115.67883 9.629043 114.91016 11.578125 A 1.25 1.375 0 0 0 114.65039 11.511719 C 114.7183 9.2298977 115.1207 7 113 7 z M 23 20 C 23.404899 21.822045 24.126468 22.204494 24.257812 24.527344 A 1.25 1.375 0 0 0 24.070312 24.585938 C 23.544078 23.557597 22.665182 22.5 21.25 22.5 C 21.25 23.813277 22.939954 23.577717 23.783203 24.751953 A 1.25 1.375 0 0 0 23.505859 25.044922 C 22.694517 24.399837 21.67102 24.218532 21 26.5 C 21.758568 26.5 22.517073 24.77992 23.384766 25.255859 A 1.25 1.375 0 0 0 23.25 25.875 A 1.25 1.375 0 0 0 24.175781 27.201172 L 24 30 L 25 30 L 24.824219 27.201172 A 1.25 1.375 0 0 0 25.75 25.875 A 1.25 1.375 0 0 0 25.630859 25.294922 C 26.452343 24.840813 27.723257 24.861628 29 25.5 C 28.102872 23.25718 26.589171 24.062911 25.509766 25.066406 A 1.25 1.375 0 0 0 25.208984 24.744141 C 25.986546 23.066037 27.536093 22.328344 28.5 21.75 C 27.03043 20.117145 25.678832 22.629043 24.910156 24.578125 A 1.25 1.375 0 0 0 24.650391 24.511719 C 24.718297 22.229898 25.120702 20 23 20 z M 49 20 C 49.404899 21.822045 50.126467 22.204494 50.257812 24.527344 A 1.25 1.375 0 0 0 50.070312 24.585938 C 49.544078 23.557597 48.665182 22.5 47.25 22.5 C 47.25 23.813277 48.939954 23.577717 49.783203 24.751953 A 1.25 1.375 0 0 0 49.505859 25.044922 C 48.694517 24.399837 47.67102 24.218532 47 26.5 C 47.758568 26.5 48.517073 24.77992 49.384766 25.255859 A 1.25 1.375 0 0 0 49.25 25.875 A 1.25 1.375 0 0 0 50.175781 27.201172 L 50 30 L 51 30 L 50.824219 27.201172 A 1.25 1.375 0 0 0 51.75 25.875 A 1.25 1.375 0 0 0 51.630859 25.294922 C 52.452343 24.840813 53.723257 24.861628 55 25.5 C 54.102872 23.25718 52.589171 24.062911 51.509766 25.066406 A 1.25 1.375 0 0 0 51.208984 24.744141 C 51.986547 23.066037 53.536093 22.328344 54.5 21.75 C 53.03043 20.117145 51.678832 22.629043 50.910156 24.578125 A 1.25 1.375 0 0 0 50.650391 24.511719 C 50.718297 22.229898 51.120702 20 49 20 z M 74 20 C 74.404899 21.822045 75.126468 22.204494 75.257812 24.527344 A 1.25 1.375 0 0 0 75.070312 24.585938 C 74.544078 23.557597 73.665182 22.5 72.25 22.5 C 72.25 23.813277 73.939954 23.577717 74.783203 24.751953 A 1.25 1.375 0 0 0 74.505859 25.044922 C 73.694517 24.399837 72.67102 24.218532 72 26.5 C 72.758568 26.5 73.517073 24.77992 74.384766 25.255859 A 1.25 1.375 0 0 0 74.25 25.875 A 1.25 1.375 0 0 0 75.175781 27.201172 L 75 30 L 76 30 L 75.824219 27.201172 A 1.25 1.375 0 0 0 76.75 25.875 A 1.25 1.375 0 0 0 76.630859 25.294922 C 77.452343 24.840813 78.723257 24.861628 80 25.5 C 79.102872 23.25718 77.589171 24.062911 76.509766 25.066406 A 1.25 1.375 0 0 0 76.208984 24.744141 C 76.986547 23.066037 78.536093 22.328344 79.5 21.75 C 78.03043 20.117145 76.678832 22.629043 75.910156 24.578125 A 1.25 1.375 0 0 0 75.650391 24.511719 C 75.718297 22.229898 76.120702 20 74 20 z M 100 20 C 100.4049 21.822045 101.12647 22.204494 101.25781 24.527344 A 1.25 1.375 0 0 0 101.07031 24.585938 C 100.54408 23.557597 99.665182 22.5 98.25 22.5 C 98.25 23.813277 99.939957 23.577717 100.7832 24.751953 A 1.25 1.375 0 0 0 100.50586 25.044922 C 99.694516 24.399837 98.67102 24.218532 98 26.5 C 98.758568 26.5 99.517069 24.77992 100.38477 25.255859 A 1.25 1.375 0 0 0 100.25 25.875 A 1.25 1.375 0 0 0 101.17578 27.201172 L 101 30 L 102 30 L 101.82422 27.201172 A 1.25 1.375 0 0 0 102.75 25.875 A 1.25 1.375 0 0 0 102.63086 25.294922 C 103.45234 24.840813 104.72326 24.861628 106 25.5 C 105.10287 23.25718 103.58917 24.062911 102.50977 25.066406 A 1.25 1.375 0 0 0 102.20898 24.744141 C 102.98655 23.066037 104.53609 22.328344 105.5 21.75 C 104.03043 20.117145 102.67883 22.629043 101.91016 24.578125 A 1.25 1.375 0 0 0 101.65039 24.511719 C 101.7183 22.229898 102.1207 20 100 20 z M 126 20 C 126.4049 21.822045 127.12647 22.204494 127.25781 24.527344 A 1.25 1.375 0 0 0 127.07031 24.585938 C 126.54408 23.557597 125.66518 22.5 124.25 22.5 C 124.25 23.813277 125.93995 23.577717 126.7832 24.751953 A 1.25 1.375 0 0 0 126.50586 25.044922 C 125.69452 24.399837 124.67102 24.218532 124 26.5 C 124.75857 26.5 125.51707 24.77992 126.38477 25.255859 A 1.25 1.375 0 0 0 126.25 25.875 A 1.25 1.375 0 0 0 127.17578 27.201172 L 127 30 L 128 30 L 127.82422 27.201172 A 1.25 1.375 0 0 0 128 27.130859 L 128 24.365234 C 127.97118 24.435827 127.93752 24.508747 127.91016 24.578125 A 1.25 1.375 0 0 0 127.65039 24.511719 C 127.7183 22.229898 128.1207 20 126 20 z M 2.4277344 21.228516 C 1.4407668 21.332317 0.57837128 22.948438 0 24.365234 L 0 27.130859 A 1.25 1.375 0 0 0 0.75 25.875 A 1.25 1.375 0 0 0 0.63085938 25.294922 C 1.4523434 24.840813 2.723257 24.861628 4 25.5 C 3.102872 23.25718 1.5891711 24.062911 0.50976562 25.066406 A 1.25 1.375 0 0 0 0.20898438 24.744141 C 0.98654648 23.066037 2.536093 22.328344 3.5 21.75 C 3.1326075 21.341786 2.7731156 21.192191 2.4277344 21.228516 z M 10 33 C 10.404899 34.822045 11.126466 35.204494 11.257812 37.527344 A 1.25 1.375 0 0 0 11.070312 37.585938 C 10.544078 36.557596 9.6651819 35.5 8.25 35.5 C 8.25 36.813277 9.9399542 36.577717 10.783203 37.751953 A 1.25 1.375 0 0 0 10.505859 38.044922 C 9.6945176 37.399837 8.67102 37.218532 8 39.5 C 8.7585676 39.5 9.5170729 37.77992 10.384766 38.255859 A 1.25 1.375 0 0 0 10.25 38.875 A 1.25 1.375 0 0 0 11.175781 40.201172 L 11 43 L 12 43 L 11.824219 40.201172 A 1.25 1.375 0 0 0 12.75 38.875 A 1.25 1.375 0 0 0 12.630859 38.294922 C 13.452343 37.840813 14.723257 37.861628 16 38.5 C 15.102872 36.25718 13.589171 37.062911 12.509766 38.066406 A 1.25 1.375 0 0 0 12.208984 37.744141 C 12.986546 36.066037 14.536093 35.328344 15.5 34.75 C 14.03043 33.117145 12.678832 35.629043 11.910156 37.578125 A 1.25 1.375 0 0 0 11.650391 37.511719 C 11.718297 35.229898 12.120702 33 10 33 z M 36 33 C 36.404899 34.822045 37.126467 35.204494 37.257812 37.527344 A 1.25 1.375 0 0 0 37.070312 37.585938 C 36.544078 36.557596 35.665182 35.5 34.25 35.5 C 34.25 36.813277 35.939954 36.577717 36.783203 37.751953 A 1.25 1.375 0 0 0 36.505859 38.044922 C 35.694517 37.399837 34.67102 37.218532 34 39.5 C 34.758568 39.5 35.517073 37.77992 36.384766 38.255859 A 1.25 1.375 0 0 0 36.25 38.875 A 1.25 1.375 0 0 0 37.175781 40.201172 L 37 43 L 38 43 L 37.824219 40.201172 A 1.25 1.375 0 0 0 38.75 38.875 A 1.25 1.375 0 0 0 38.630859 38.294922 C 39.452343 37.840813 40.723257 37.861628 42 38.5 C 41.102872 36.25718 39.589171 37.062911 38.509766 38.066406 A 1.25 1.375 0 0 0 38.208984 37.744141 C 38.986547 36.066037 40.536093 35.328344 41.5 34.75 C 40.03043 33.117145 38.678832 35.629043 37.910156 37.578125 A 1.25 1.375 0 0 0 37.650391 37.511719 C 37.718297 35.229898 38.120702 33 36 33 z M 62 33 C 62.404899 34.822045 63.126467 35.204494 63.257812 37.527344 A 1.25 1.375 0 0 0 63.070312 37.585938 C 62.544078 36.557596 61.665182 35.5 60.25 35.5 C 60.25 36.813277 61.939954 36.577717 62.783203 37.751953 A 1.25 1.375 0 0 0 62.505859 38.044922 C 61.694517 37.399837 60.67102 37.218532 60 39.5 C 60.758568 39.5 61.517073 37.77992 62.384766 38.255859 A 1.25 1.375 0 0 0 62.25 38.875 A 1.25 1.375 0 0 0 63.175781 40.201172 L 63 43 L 64 43 L 63.824219 40.201172 A 1.25 1.375 0 0 0 64.75 38.875 A 1.25 1.375 0 0 0 64.630859 38.294922 C 65.452343 37.840813 66.723257 37.861628 68 38.5 C 67.102872 36.25718 65.589171 37.062911 64.509766 38.066406 A 1.25 1.375 0 0 0 64.208984 37.744141 C 64.986547 36.066037 66.536093 35.328344 67.5 34.75 C 66.03043 33.117145 64.678832 35.629043 63.910156 37.578125 A 1.25 1.375 0 0 0 63.650391 37.511719 C 63.718297 35.229898 64.120702 33 62 33 z M 87 33 C 87.404899 34.822045 88.126468 35.204494 88.257812 37.527344 A 1.25 1.375 0 0 0 88.070312 37.585938 C 87.544078 36.557596 86.665182 35.5 85.25 35.5 C 85.25 36.813277 86.939954 36.577717 87.783203 37.751953 A 1.25 1.375 0 0 0 87.505859 38.044922 C 86.694517 37.399837 85.67102 37.218532 85 39.5 C 85.758568 39.5 86.517073 37.77992 87.384766 38.255859 A 1.25 1.375 0 0 0 87.25 38.875 A 1.25 1.375 0 0 0 88.175781 40.201172 L 88 43 L 89 43 L 88.824219 40.201172 A 1.25 1.375 0 0 0 89.75 38.875 A 1.25 1.375 0 0 0 89.630859 38.294922 C 90.452343 37.840813 91.723257 37.861628 93 38.5 C 92.102872 36.25718 90.589171 37.062911 89.509766 38.066406 A 1.25 1.375 0 0 0 89.208984 37.744141 C 89.986547 36.066037 91.536093 35.328344 92.5 34.75 C 91.03043 33.117145 89.678832 35.629043 88.910156 37.578125 A 1.25 1.375 0 0 0 88.650391 37.511719 C 88.718297 35.229898 89.120702 33 87 33 z M 113 33 C 113.4049 34.822045 114.12647 35.204494 114.25781 37.527344 A 1.25 1.375 0 0 0 114.07031 37.585938 C 113.54408 36.557596 112.66518 35.5 111.25 35.5 C 111.25 36.813277 112.93995 36.577717 113.7832 37.751953 A 1.25 1.375 0 0 0 113.50586 38.044922 C 112.69452 37.399837 111.67102 37.218532 111 39.5 C 111.75857 39.5 112.51707 37.77992 113.38477 38.255859 A 1.25 1.375 0 0 0 113.25 38.875 A 1.25 1.375 0 0 0 114.17578 40.201172 L 114 43 L 115 43 L 114.82422 40.201172 A 1.25 1.375 0 0 0 115.75 38.875 A 1.25 1.375 0 0 0 115.63086 38.294922 C 116.45234 37.840813 117.72326 37.861628 119 38.5 C 118.10287 36.25718 116.58917 37.062911 115.50977 38.066406 A 1.25 1.375 0 0 0 115.20898 37.744141 C 115.98655 36.066037 117.53609 35.328344 118.5 34.75 C 117.03043 33.117145 115.67883 35.629043 114.91016 37.578125 A 1.25 1.375 0 0 0 114.65039 37.511719 C 114.7183 35.229898 115.1207 33 113 33 z M 23 46 C 23.404899 47.822045 24.126468 48.204494 24.257812 50.527344 A 1.25 1.375 0 0 0 24.070312 50.585938 C 23.544078 49.557596 22.665182 48.5 21.25 48.5 C 21.25 49.813277 22.939954 49.577717 23.783203 50.751953 A 1.25 1.375 0 0 0 23.505859 51.044922 C 22.694517 50.399837 21.67102 50.218532 21 52.5 C 21.758568 52.5 22.517073 50.77992 23.384766 51.255859 A 1.25 1.375 0 0 0 23.25 51.875 A 1.25 1.375 0 0 0 24.175781 53.201172 L 24 56 L 25 56 L 24.824219 53.201172 A 1.25 1.375 0 0 0 25.75 51.875 A 1.25 1.375 0 0 0 25.630859 51.294922 C 26.452343 50.840813 27.723257 50.861628 29 51.5 C 28.102872 49.25718 26.589171 50.062911 25.509766 51.066406 A 1.25 1.375 0 0 0 25.208984 50.744141 C 25.986546 49.066037 27.536093 48.328344 28.5 47.75 C 27.03043 46.117145 25.678832 48.629043 24.910156 50.578125 A 1.25 1.375 0 0 0 24.650391 50.511719 C 24.718297 48.229898 25.120702 46 23 46 z M 49 46 C 49.404899 47.822045 50.126467 48.204494 50.257812 50.527344 A 1.25 1.375 0 0 0 50.070312 50.585938 C 49.544078 49.557596 48.665182 48.5 47.25 48.5 C 47.25 49.813277 48.939954 49.577717 49.783203 50.751953 A 1.25 1.375 0 0 0 49.505859 51.044922 C 48.694517 50.399837 47.67102 50.218532 47 52.5 C 47.758568 52.5 48.517073 50.77992 49.384766 51.255859 A 1.25 1.375 0 0 0 49.25 51.875 A 1.25 1.375 0 0 0 50.175781 53.201172 L 50 56 L 51 56 L 50.824219 53.201172 A 1.25 1.375 0 0 0 51.75 51.875 A 1.25 1.375 0 0 0 51.630859 51.294922 C 52.452343 50.840813 53.723257 50.861628 55 51.5 C 54.102872 49.25718 52.589171 50.062911 51.509766 51.066406 A 1.25 1.375 0 0 0 51.208984 50.744141 C 51.986547 49.066037 53.536093 48.328344 54.5 47.75 C 53.03043 46.117145 51.678832 48.629043 50.910156 50.578125 A 1.25 1.375 0 0 0 50.650391 50.511719 C 50.718297 48.229898 51.120702 46 49 46 z M 74 46 C 74.404899 47.822045 75.126468 48.204494 75.257812 50.527344 A 1.25 1.375 0 0 0 75.070312 50.585938 C 74.544078 49.557596 73.665182 48.5 72.25 48.5 C 72.25 49.813277 73.939954 49.577717 74.783203 50.751953 A 1.25 1.375 0 0 0 74.505859 51.044922 C 73.694517 50.399837 72.67102 50.218532 72 52.5 C 72.758568 52.5 73.517073 50.77992 74.384766 51.255859 A 1.25 1.375 0 0 0 74.25 51.875 A 1.25 1.375 0 0 0 75.175781 53.201172 L 75 56 L 76 56 L 75.824219 53.201172 A 1.25 1.375 0 0 0 76.75 51.875 A 1.25 1.375 0 0 0 76.630859 51.294922 C 77.452343 50.840813 78.723257 50.861628 80 51.5 C 79.102872 49.25718 77.589171 50.062911 76.509766 51.066406 A 1.25 1.375 0 0 0 76.208984 50.744141 C 76.986547 49.066037 78.536093 48.328344 79.5 47.75 C 78.03043 46.117145 76.678832 48.629043 75.910156 50.578125 A 1.25 1.375 0 0 0 75.650391 50.511719 C 75.718297 48.229898 76.120702 46 74 46 z M 100 46 C 100.4049 47.822045 101.12647 48.204494 101.25781 50.527344 A 1.25 1.375 0 0 0 101.07031 50.585938 C 100.54408 49.557596 99.665182 48.5 98.25 48.5 C 98.25 49.813277 99.939957 49.577717 100.7832 50.751953 A 1.25 1.375 0 0 0 100.50586 51.044922 C 99.694516 50.399837 98.67102 50.218532 98 52.5 C 98.758568 52.5 99.517069 50.77992 100.38477 51.255859 A 1.25 1.375 0 0 0 100.25 51.875 A 1.25 1.375 0 0 0 101.17578 53.201172 L 101 56 L 102 56 L 101.82422 53.201172 A 1.25 1.375 0 0 0 102.75 51.875 A 1.25 1.375 0 0 0 102.63086 51.294922 C 103.45234 50.840813 104.72326 50.861628 106 51.5 C 105.10287 49.25718 103.58917 50.062911 102.50977 51.066406 A 1.25 1.375 0 0 0 102.20898 50.744141 C 102.98655 49.066037 104.53609 48.328344 105.5 47.75 C 104.03043 46.117145 102.67883 48.629043 101.91016 50.578125 A 1.25 1.375 0 0 0 101.65039 50.511719 C 101.7183 48.229898 102.1207 46 100 46 z M 126 46 C 126.4049 47.822045 127.12647 48.204494 127.25781 50.527344 A 1.25 1.375 0 0 0 127.07031 50.585938 C 126.54408 49.557596 125.66518 48.5 124.25 48.5 C 124.25 49.813277 125.93995 49.577717 126.7832 50.751953 A 1.25 1.375 0 0 0 126.50586 51.044922 C 125.69452 50.399837 124.67102 50.218532 124 52.5 C 124.75857 52.5 125.51707 50.77992 126.38477 51.255859 A 1.25 1.375 0 0 0 126.25 51.875 A 1.25 1.375 0 0 0 127.17578 53.201172 L 127 56 L 128 56 L 127.82422 53.201172 A 1.25 1.375 0 0 0 128 53.130859 L 128 50.365234 C 127.97118 50.435827 127.93752 50.508747 127.91016 50.578125 A 1.25 1.375 0 0 0 127.65039 50.511719 C 127.7183 48.229898 128.1207 46 126 46 z M 2.4277344 47.228516 C 1.4407668 47.332317 0.57837128 48.948438 0 50.365234 L 0 53.130859 A 1.25 1.375 0 0 0 0.75 51.875 A 1.25 1.375 0 0 0 0.63085938 51.294922 C 1.4523434 50.840813 2.723257 50.861628 4 51.5 C 3.102872 49.25718 1.5891711 50.062911 0.50976562 51.066406 A 1.25 1.375 0 0 0 0.20898438 50.744141 C 0.98654648 49.066037 2.536093 48.328344 3.5 47.75 C 3.1326075 47.341786 2.7731156 47.192191 2.4277344 47.228516 z M 10 59 C 10.404899 60.822045 11.126466 61.204494 11.257812 63.527344 A 1.25 1.375 0 0 0 11.070312 63.585938 C 10.544078 62.557596 9.6651819 61.5 8.25 61.5 C 8.25 62.813277 9.9399542 62.577717 10.783203 63.751953 A 1.25 1.375 0 0 0 10.505859 64.044922 C 9.6945176 63.399837 8.67102 63.218532 8 65.5 C 8.7585676 65.5 9.5170729 63.77992 10.384766 64.255859 A 1.25 1.375 0 0 0 10.25 64.875 A 1.25 1.375 0 0 0 11.175781 66.201172 L 11 69 L 12 69 L 11.824219 66.201172 A 1.25 1.375 0 0 0 12.75 64.875 A 1.25 1.375 0 0 0 12.630859 64.294922 C 13.452343 63.840813 14.723257 63.861628 16 64.5 C 15.102872 62.25718 13.589171 63.062911 12.509766 64.066406 A 1.25 1.375 0 0 0 12.208984 63.744141 C 12.986546 62.066037 14.536093 61.328344 15.5 60.75 C 14.03043 59.117145 12.678832 61.629043 11.910156 63.578125 A 1.25 1.375 0 0 0 11.650391 63.511719 C 11.718297 61.229898 12.120702 59 10 59 z M 36 59 C 36.404899 60.822045 37.126467 61.204494 37.257812 63.527344 A 1.25 1.375 0 0 0 37.070312 63.585938 C 36.544078 62.557596 35.665182 61.5 34.25 61.5 C 34.25 62.813277 35.939954 62.577717 36.783203 63.751953 A 1.25 1.375 0 0 0 36.505859 64.044922 C 35.694517 63.399837 34.67102 63.218532 34 65.5 C 34.758568 65.5 35.517073 63.77992 36.384766 64.255859 A 1.25 1.375 0 0 0 36.25 64.875 A 1.25 1.375 0 0 0 37.175781 66.201172 L 37 69 L 38 69 L 37.824219 66.201172 A 1.25 1.375 0 0 0 38.75 64.875 A 1.25 1.375 0 0 0 38.630859 64.294922 C 39.452343 63.840813 40.723257 63.861628 42 64.5 C 41.102872 62.25718 39.589171 63.062911 38.509766 64.066406 A 1.25 1.375 0 0 0 38.208984 63.744141 C 38.986547 62.066037 40.536093 61.328344 41.5 60.75 C 40.03043 59.117145 38.678832 61.629043 37.910156 63.578125 A 1.25 1.375 0 0 0 37.650391 63.511719 C 37.718297 61.229898 38.120702 59 36 59 z M 62 59 C 62.404899 60.822045 63.126467 61.204494 63.257812 63.527344 A 1.25 1.375 0 0 0 63.070312 63.585938 C 62.544078 62.557596 61.665182 61.5 60.25 61.5 C 60.25 62.813277 61.939954 62.577717 62.783203 63.751953 A 1.25 1.375 0 0 0 62.505859 64.044922 C 61.694517 63.399837 60.67102 63.218532 60 65.5 C 60.758568 65.5 61.517073 63.77992 62.384766 64.255859 A 1.25 1.375 0 0 0 62.25 64.875 A 1.25 1.375 0 0 0 63.175781 66.201172 L 63 69 L 64 69 L 63.824219 66.201172 A 1.25 1.375 0 0 0 64.75 64.875 A 1.25 1.375 0 0 0 64.630859 64.294922 C 65.452343 63.840813 66.723257 63.861628 68 64.5 C 67.102872 62.25718 65.589171 63.062911 64.509766 64.066406 A 1.25 1.375 0 0 0 64.208984 63.744141 C 64.986547 62.066037 66.536093 61.328344 67.5 60.75 C 66.03043 59.117145 64.678832 61.629043 63.910156 63.578125 A 1.25 1.375 0 0 0 63.650391 63.511719 C 63.718297 61.229898 64.120702 59 62 59 z M 87 59 C 87.404899 60.822045 88.126468 61.204494 88.257812 63.527344 A 1.25 1.375 0 0 0 88.070312 63.585938 C 87.544078 62.557596 86.665182 61.5 85.25 61.5 C 85.25 62.813277 86.939954 62.577717 87.783203 63.751953 A 1.25 1.375 0 0 0 87.505859 64.044922 C 86.694517 63.399837 85.67102 63.218532 85 65.5 C 85.758568 65.5 86.517073 63.77992 87.384766 64.255859 A 1.25 1.375 0 0 0 87.25 64.875 A 1.25 1.375 0 0 0 88.175781 66.201172 L 88 69 L 89 69 L 88.824219 66.201172 A 1.25 1.375 0 0 0 89.75 64.875 A 1.25 1.375 0 0 0 89.630859 64.294922 C 90.452343 63.840813 91.723257 63.861628 93 64.5 C 92.102872 62.25718 90.589171 63.062911 89.509766 64.066406 A 1.25 1.375 0 0 0 89.208984 63.744141 C 89.986547 62.066037 91.536093 61.328344 92.5 60.75 C 91.03043 59.117145 89.678832 61.629043 88.910156 63.578125 A 1.25 1.375 0 0 0 88.650391 63.511719 C 88.718297 61.229898 89.120702 59 87 59 z M 113 59 C 113.4049 60.822045 114.12647 61.204494 114.25781 63.527344 A 1.25 1.375 0 0 0 114.07031 63.585938 C 113.54408 62.557596 112.66518 61.5 111.25 61.5 C 111.25 62.813277 112.93995 62.577717 113.7832 63.751953 A 1.25 1.375 0 0 0 113.50586 64.044922 C 112.69452 63.399837 111.67102 63.218532 111 65.5 C 111.75857 65.5 112.51707 63.77992 113.38477 64.255859 A 1.25 1.375 0 0 0 113.25 64.875 A 1.25 1.375 0 0 0 114.17578 66.201172 L 114 69 L 115 69 L 114.82422 66.201172 A 1.25 1.375 0 0 0 115.75 64.875 A 1.25 1.375 0 0 0 115.63086 64.294922 C 116.45234 63.840813 117.72326 63.861628 119 64.5 C 118.10287 62.25718 116.58917 63.062911 115.50977 64.066406 A 1.25 1.375 0 0 0 115.20898 63.744141 C 115.98655 62.066037 117.53609 61.328344 118.5 60.75 C 117.03043 59.117145 115.67883 61.629043 114.91016 63.578125 A 1.25 1.375 0 0 0 114.65039 63.511719 C 114.7183 61.229898 115.1207 59 113 59 z M 23 71 C 23.404899 72.822045 24.126468 73.204494 24.257812 75.527344 A 1.25 1.375 0 0 0 24.070312 75.585938 C 23.544078 74.557597 22.665182 73.5 21.25 73.5 C 21.25 74.813277 22.939954 74.577717 23.783203 75.751953 A 1.25 1.375 0 0 0 23.505859 76.044922 C 22.694517 75.399837 21.67102 75.218532 21 77.5 C 21.758568 77.5 22.517073 75.77992 23.384766 76.255859 A 1.25 1.375 0 0 0 23.25 76.875 A 1.25 1.375 0 0 0 24.175781 78.201172 L 24 81 L 25 81 L 24.824219 78.201172 A 1.25 1.375 0 0 0 25.75 76.875 A 1.25 1.375 0 0 0 25.630859 76.294922 C 26.452343 75.840813 27.723257 75.861628 29 76.5 C 28.102872 74.25718 26.589171 75.062911 25.509766 76.066406 A 1.25 1.375 0 0 0 25.208984 75.744141 C 25.986546 74.066037 27.536093 73.328344 28.5 72.75 C 27.03043 71.117145 25.678832 73.629043 24.910156 75.578125 A 1.25 1.375 0 0 0 24.650391 75.511719 C 24.718297 73.229898 25.120702 71 23 71 z M 49 71 C 49.404899 72.822045 50.126467 73.204494 50.257812 75.527344 A 1.25 1.375 0 0 0 50.070312 75.585938 C 49.544078 74.557597 48.665182 73.5 47.25 73.5 C 47.25 74.813277 48.939954 74.577717 49.783203 75.751953 A 1.25 1.375 0 0 0 49.505859 76.044922 C 48.694517 75.399837 47.67102 75.218532 47 77.5 C 47.758568 77.5 48.517073 75.77992 49.384766 76.255859 A 1.25 1.375 0 0 0 49.25 76.875 A 1.25 1.375 0 0 0 50.175781 78.201172 L 50 81 L 51 81 L 50.824219 78.201172 A 1.25 1.375 0 0 0 51.75 76.875 A 1.25 1.375 0 0 0 51.630859 76.294922 C 52.452343 75.840813 53.723257 75.861628 55 76.5 C 54.102872 74.25718 52.589171 75.062911 51.509766 76.066406 A 1.25 1.375 0 0 0 51.208984 75.744141 C 51.986547 74.066037 53.536093 73.328344 54.5 72.75 C 53.03043 71.117145 51.678832 73.629043 50.910156 75.578125 A 1.25 1.375 0 0 0 50.650391 75.511719 C 50.718297 73.229898 51.120702 71 49 71 z M 74 71 C 74.404899 72.822045 75.126468 73.204494 75.257812 75.527344 A 1.25 1.375 0 0 0 75.070312 75.585938 C 74.544078 74.557597 73.665182 73.5 72.25 73.5 C 72.25 74.813277 73.939954 74.577717 74.783203 75.751953 A 1.25 1.375 0 0 0 74.505859 76.044922 C 73.694517 75.399837 72.67102 75.218532 72 77.5 C 72.758568 77.5 73.517073 75.77992 74.384766 76.255859 A 1.25 1.375 0 0 0 74.25 76.875 A 1.25 1.375 0 0 0 75.175781 78.201172 L 75 81 L 76 81 L 75.824219 78.201172 A 1.25 1.375 0 0 0 76.75 76.875 A 1.25 1.375 0 0 0 76.630859 76.294922 C 77.452343 75.840813 78.723257 75.861628 80 76.5 C 79.102872 74.25718 77.589171 75.062911 76.509766 76.066406 A 1.25 1.375 0 0 0 76.208984 75.744141 C 76.986547 74.066037 78.536093 73.328344 79.5 72.75 C 78.03043 71.117145 76.678832 73.629043 75.910156 75.578125 A 1.25 1.375 0 0 0 75.650391 75.511719 C 75.718297 73.229898 76.120702 71 74 71 z M 100 71 C 100.4049 72.822045 101.12647 73.204494 101.25781 75.527344 A 1.25 1.375 0 0 0 101.07031 75.585938 C 100.54408 74.557597 99.665182 73.5 98.25 73.5 C 98.25 74.813277 99.939957 74.577717 100.7832 75.751953 A 1.25 1.375 0 0 0 100.50586 76.044922 C 99.694516 75.399837 98.67102 75.218532 98 77.5 C 98.758568 77.5 99.517069 75.77992 100.38477 76.255859 A 1.25 1.375 0 0 0 100.25 76.875 A 1.25 1.375 0 0 0 101.17578 78.201172 L 101 81 L 102 81 L 101.82422 78.201172 A 1.25 1.375 0 0 0 102.75 76.875 A 1.25 1.375 0 0 0 102.63086 76.294922 C 103.45234 75.840813 104.72326 75.861628 106 76.5 C 105.10287 74.25718 103.58917 75.062911 102.50977 76.066406 A 1.25 1.375 0 0 0 102.20898 75.744141 C 102.98655 74.066037 104.53609 73.328344 105.5 72.75 C 104.03043 71.117145 102.67883 73.629043 101.91016 75.578125 A 1.25 1.375 0 0 0 101.65039 75.511719 C 101.7183 73.229898 102.1207 71 100 71 z M 126 71 C 126.4049 72.822045 127.12647 73.204494 127.25781 75.527344 A 1.25 1.375 0 0 0 127.07031 75.585938 C 126.54408 74.557597 125.66518 73.5 124.25 73.5 C 124.25 74.813277 125.93995 74.577717 126.7832 75.751953 A 1.25 1.375 0 0 0 126.50586 76.044922 C 125.69452 75.399837 124.67102 75.218532 124 77.5 C 124.75857 77.5 125.51707 75.77992 126.38477 76.255859 A 1.25 1.375 0 0 0 126.25 76.875 A 1.25 1.375 0 0 0 127.17578 78.201172 L 127 81 L 128 81 L 127.82422 78.201172 A 1.25 1.375 0 0 0 128 78.130859 L 128 75.365234 C 127.97118 75.435827 127.93752 75.508747 127.91016 75.578125 A 1.25 1.375 0 0 0 127.65039 75.511719 C 127.7183 73.229898 128.1207 71 126 71 z M 2.4277344 72.228516 C 1.4407668 72.332317 0.57837128 73.948438 0 75.365234 L 0 78.130859 A 1.25 1.375 0 0 0 0.75 76.875 A 1.25 1.375 0 0 0 0.63085938 76.294922 C 1.4523434 75.840813 2.723257 75.861628 4 76.5 C 3.102872 74.25718 1.5891711 75.062911 0.50976562 76.066406 A 1.25 1.375 0 0 0 0.20898438 75.744141 C 0.98654648 74.066037 2.536093 73.328344 3.5 72.75 C 3.1326075 72.341786 2.7731156 72.192191 2.4277344 72.228516 z M 10 84 C 10.404899 85.822045 11.126466 86.204494 11.257812 88.527344 A 1.25 1.375 0 0 0 11.070312 88.585938 C 10.544078 87.557597 9.6651819 86.5 8.25 86.5 C 8.25 87.813277 9.9399542 87.577717 10.783203 88.751953 A 1.25 1.375 0 0 0 10.505859 89.044922 C 9.6945176 88.399837 8.67102 88.218532 8 90.5 C 8.7585676 90.5 9.5170729 88.77992 10.384766 89.255859 A 1.25 1.375 0 0 0 10.25 89.875 A 1.25 1.375 0 0 0 11.175781 91.201172 L 11 94 L 12 94 L 11.824219 91.201172 A 1.25 1.375 0 0 0 12.75 89.875 A 1.25 1.375 0 0 0 12.630859 89.294922 C 13.452343 88.840813 14.723257 88.861628 16 89.5 C 15.102872 87.25718 13.589171 88.062911 12.509766 89.066406 A 1.25 1.375 0 0 0 12.208984 88.744141 C 12.986546 87.066037 14.536093 86.328344 15.5 85.75 C 14.03043 84.117145 12.678832 86.629043 11.910156 88.578125 A 1.25 1.375 0 0 0 11.650391 88.511719 C 11.718297 86.229898 12.120702 84 10 84 z M 36 84 C 36.404899 85.822045 37.126467 86.204494 37.257812 88.527344 A 1.25 1.375 0 0 0 37.070312 88.585938 C 36.544078 87.557597 35.665182 86.5 34.25 86.5 C 34.25 87.813277 35.939954 87.577717 36.783203 88.751953 A 1.25 1.375 0 0 0 36.505859 89.044922 C 35.694517 88.399837 34.67102 88.218532 34 90.5 C 34.758568 90.5 35.517073 88.77992 36.384766 89.255859 A 1.25 1.375 0 0 0 36.25 89.875 A 1.25 1.375 0 0 0 37.175781 91.201172 L 37 94 L 38 94 L 37.824219 91.201172 A 1.25 1.375 0 0 0 38.75 89.875 A 1.25 1.375 0 0 0 38.630859 89.294922 C 39.452343 88.840813 40.723257 88.861628 42 89.5 C 41.102872 87.25718 39.589171 88.062911 38.509766 89.066406 A 1.25 1.375 0 0 0 38.208984 88.744141 C 38.986547 87.066037 40.536093 86.328344 41.5 85.75 C 40.03043 84.117145 38.678832 86.629043 37.910156 88.578125 A 1.25 1.375 0 0 0 37.650391 88.511719 C 37.718297 86.229898 38.120702 84 36 84 z M 62 84 C 62.404899 85.822045 63.126467 86.204494 63.257812 88.527344 A 1.25 1.375 0 0 0 63.070312 88.585938 C 62.544078 87.557597 61.665182 86.5 60.25 86.5 C 60.25 87.813277 61.939954 87.577717 62.783203 88.751953 A 1.25 1.375 0 0 0 62.505859 89.044922 C 61.694517 88.399837 60.67102 88.218532 60 90.5 C 60.758568 90.5 61.517073 88.77992 62.384766 89.255859 A 1.25 1.375 0 0 0 62.25 89.875 A 1.25 1.375 0 0 0 63.175781 91.201172 L 63 94 L 64 94 L 63.824219 91.201172 A 1.25 1.375 0 0 0 64.75 89.875 A 1.25 1.375 0 0 0 64.630859 89.294922 C 65.452343 88.840813 66.723257 88.861628 68 89.5 C 67.102872 87.25718 65.589171 88.062911 64.509766 89.066406 A 1.25 1.375 0 0 0 64.208984 88.744141 C 64.986547 87.066037 66.536093 86.328344 67.5 85.75 C 66.03043 84.117145 64.678832 86.629043 63.910156 88.578125 A 1.25 1.375 0 0 0 63.650391 88.511719 C 63.718297 86.229898 64.120702 84 62 84 z M 87 84 C 87.404899 85.822045 88.126468 86.204494 88.257812 88.527344 A 1.25 1.375 0 0 0 88.070312 88.585938 C 87.544078 87.557597 86.665182 86.5 85.25 86.5 C 85.25 87.813277 86.939954 87.577717 87.783203 88.751953 A 1.25 1.375 0 0 0 87.505859 89.044922 C 86.694517 88.399837 85.67102 88.218532 85 90.5 C 85.758568 90.5 86.517073 88.77992 87.384766 89.255859 A 1.25 1.375 0 0 0 87.25 89.875 A 1.25 1.375 0 0 0 88.175781 91.201172 L 88 94 L 89 94 L 88.824219 91.201172 A 1.25 1.375 0 0 0 89.75 89.875 A 1.25 1.375 0 0 0 89.630859 89.294922 C 90.452343 88.840813 91.723257 88.861628 93 89.5 C 92.102872 87.25718 90.589171 88.062911 89.509766 89.066406 A 1.25 1.375 0 0 0 89.208984 88.744141 C 89.986547 87.066037 91.536093 86.328344 92.5 85.75 C 91.03043 84.117145 89.678832 86.629043 88.910156 88.578125 A 1.25 1.375 0 0 0 88.650391 88.511719 C 88.718297 86.229898 89.120702 84 87 84 z M 113 84 C 113.4049 85.822045 114.12647 86.204494 114.25781 88.527344 A 1.25 1.375 0 0 0 114.07031 88.585938 C 113.54408 87.557597 112.66518 86.5 111.25 86.5 C 111.25 87.813277 112.93995 87.577717 113.7832 88.751953 A 1.25 1.375 0 0 0 113.50586 89.044922 C 112.69452 88.399837 111.67102 88.218532 111 90.5 C 111.75857 90.5 112.51707 88.77992 113.38477 89.255859 A 1.25 1.375 0 0 0 113.25 89.875 A 1.25 1.375 0 0 0 114.17578 91.201172 L 114 94 L 115 94 L 114.82422 91.201172 A 1.25 1.375 0 0 0 115.75 89.875 A 1.25 1.375 0 0 0 115.63086 89.294922 C 116.45234 88.840813 117.72326 88.861628 119 89.5 C 118.10287 87.25718 116.58917 88.062911 115.50977 89.066406 A 1.25 1.375 0 0 0 115.20898 88.744141 C 115.98655 87.066037 117.53609 86.328344 118.5 85.75 C 117.03043 84.117145 115.67883 86.629043 114.91016 88.578125 A 1.25 1.375 0 0 0 114.65039 88.511719 C 114.7183 86.229898 115.1207 84 113 84 z M 23 97 C 23.404899 98.822045 24.126468 99.204498 24.257812 101.52734 A 1.25 1.375 0 0 0 24.070312 101.58594 C 23.544078 100.55759 22.665182 99.5 21.25 99.5 C 21.25 100.81328 22.939954 100.57772 23.783203 101.75195 A 1.25 1.375 0 0 0 23.505859 102.04492 C 22.694517 101.39984 21.67102 101.21853 21 103.5 C 21.758568 103.5 22.517073 101.77992 23.384766 102.25586 A 1.25 1.375 0 0 0 23.25 102.875 A 1.25 1.375 0 0 0 24.175781 104.20117 L 24 107 L 25 107 L 24.824219 104.20117 A 1.25 1.375 0 0 0 25.75 102.875 A 1.25 1.375 0 0 0 25.630859 102.29492 C 26.452343 101.84081 27.723257 101.86163 29 102.5 C 28.102872 100.25718 26.589171 101.06291 25.509766 102.06641 A 1.25 1.375 0 0 0 25.208984 101.74414 C 25.986546 100.06604 27.536093 99.328344 28.5 98.75 C 27.03043 97.117145 25.678832 99.629038 24.910156 101.57812 A 1.25 1.375 0 0 0 24.650391 101.51172 C 24.718297 99.229883 25.120702 97 23 97 z M 49 97 C 49.404899 98.822045 50.126467 99.204498 50.257812 101.52734 A 1.25 1.375 0 0 0 50.070312 101.58594 C 49.544078 100.55759 48.665182 99.5 47.25 99.5 C 47.25 100.81328 48.939954 100.57772 49.783203 101.75195 A 1.25 1.375 0 0 0 49.505859 102.04492 C 48.694517 101.39984 47.67102 101.21853 47 103.5 C 47.758568 103.5 48.517073 101.77992 49.384766 102.25586 A 1.25 1.375 0 0 0 49.25 102.875 A 1.25 1.375 0 0 0 50.175781 104.20117 L 50 107 L 51 107 L 50.824219 104.20117 A 1.25 1.375 0 0 0 51.75 102.875 A 1.25 1.375 0 0 0 51.630859 102.29492 C 52.452343 101.84081 53.723257 101.86163 55 102.5 C 54.102872 100.25718 52.589171 101.06291 51.509766 102.06641 A 1.25 1.375 0 0 0 51.208984 101.74414 C 51.986547 100.06604 53.536093 99.328344 54.5 98.75 C 53.03043 97.117145 51.678832 99.629038 50.910156 101.57812 A 1.25 1.375 0 0 0 50.650391 101.51172 C 50.718297 99.229883 51.120702 97 49 97 z M 74 97 C 74.404899 98.822045 75.126468 99.204498 75.257812 101.52734 A 1.25 1.375 0 0 0 75.070312 101.58594 C 74.544078 100.55759 73.665182 99.5 72.25 99.5 C 72.25 100.81328 73.939954 100.57772 74.783203 101.75195 A 1.25 1.375 0 0 0 74.505859 102.04492 C 73.694517 101.39984 72.67102 101.21853 72 103.5 C 72.758568 103.5 73.517073 101.77992 74.384766 102.25586 A 1.25 1.375 0 0 0 74.25 102.875 A 1.25 1.375 0 0 0 75.175781 104.20117 L 75 107 L 76 107 L 75.824219 104.20117 A 1.25 1.375 0 0 0 76.75 102.875 A 1.25 1.375 0 0 0 76.630859 102.29492 C 77.452343 101.84081 78.723257 101.86163 80 102.5 C 79.102872 100.25718 77.589171 101.06291 76.509766 102.06641 A 1.25 1.375 0 0 0 76.208984 101.74414 C 76.986547 100.06604 78.536093 99.328344 79.5 98.75 C 78.03043 97.117145 76.678832 99.629038 75.910156 101.57812 A 1.25 1.375 0 0 0 75.650391 101.51172 C 75.718297 99.229883 76.120702 97 74 97 z M 100 97 C 100.4049 98.822045 101.12647 99.204498 101.25781 101.52734 A 1.25 1.375 0 0 0 101.07031 101.58594 C 100.54408 100.55759 99.665182 99.5 98.25 99.5 C 98.25 100.81328 99.939957 100.57772 100.7832 101.75195 A 1.25 1.375 0 0 0 100.50586 102.04492 C 99.694516 101.39984 98.67102 101.21853 98 103.5 C 98.758568 103.5 99.517069 101.77992 100.38477 102.25586 A 1.25 1.375 0 0 0 100.25 102.875 A 1.25 1.375 0 0 0 101.17578 104.20117 L 101 107 L 102 107 L 101.82422 104.20117 A 1.25 1.375 0 0 0 102.75 102.875 A 1.25 1.375 0 0 0 102.63086 102.29492 C 103.45234 101.84081 104.72326 101.86163 106 102.5 C 105.10287 100.25718 103.58917 101.06291 102.50977 102.06641 A 1.25 1.375 0 0 0 102.20898 101.74414 C 102.98655 100.06604 104.53609 99.328344 105.5 98.75 C 104.03043 97.117145 102.67883 99.629038 101.91016 101.57812 A 1.25 1.375 0 0 0 101.65039 101.51172 C 101.7183 99.229883 102.1207 97 100 97 z M 126 97 C 126.4049 98.822045 127.12647 99.204498 127.25781 101.52734 A 1.25 1.375 0 0 0 127.07031 101.58594 C 126.54408 100.55759 125.66518 99.5 124.25 99.5 C 124.25 100.81328 125.93995 100.57772 126.7832 101.75195 A 1.25 1.375 0 0 0 126.50586 102.04492 C 125.69452 101.39984 124.67102 101.21853 124 103.5 C 124.75857 103.5 125.51707 101.77992 126.38477 102.25586 A 1.25 1.375 0 0 0 126.25 102.875 A 1.25 1.375 0 0 0 127.17578 104.20117 L 127 107 L 128 107 L 127.82422 104.20117 A 1.25 1.375 0 0 0 128 104.13086 L 128 101.36523 C 127.97118 101.43583 127.93752 101.50875 127.91016 101.57812 A 1.25 1.375 0 0 0 127.65039 101.51172 C 127.7183 99.229883 128.1207 97 126 97 z M 2.4277344 98.228516 C 1.4407668 98.332318 0.57837128 99.948435 0 101.36523 L 0 104.13086 A 1.25 1.375 0 0 0 0.75 102.875 A 1.25 1.375 0 0 0 0.63085938 102.29492 C 1.4523434 101.84081 2.723257 101.86163 4 102.5 C 3.102872 100.25718 1.5891711 101.06291 0.50976562 102.06641 A 1.25 1.375 0 0 0 0.20898438 101.74414 C 0.98654648 100.06604 2.536093 99.328344 3.5 98.75 C 3.1326075 98.341786 2.7731156 98.192191 2.4277344 98.228516 z M 10 110 C 10.404899 111.82205 11.126466 112.20449 11.257812 114.52734 A 1.25 1.375 0 0 0 11.070312 114.58594 C 10.544078 113.55759 9.6651819 112.5 8.25 112.5 C 8.25 113.81328 9.9399542 113.57772 10.783203 114.75195 A 1.25 1.375 0 0 0 10.505859 115.04492 C 9.6945176 114.39984 8.67102 114.21853 8 116.5 C 8.7585676 116.5 9.5170729 114.77992 10.384766 115.25586 A 1.25 1.375 0 0 0 10.25 115.875 A 1.25 1.375 0 0 0 11.175781 117.20117 L 11 120 L 12 120 L 11.824219 117.20117 A 1.25 1.375 0 0 0 12.75 115.875 A 1.25 1.375 0 0 0 12.630859 115.29492 C 13.452343 114.84081 14.723257 114.86163 16 115.5 C 15.102872 113.25718 13.589171 114.06291 12.509766 115.06641 A 1.25 1.375 0 0 0 12.208984 114.74414 C 12.986546 113.06604 14.536093 112.32834 15.5 111.75 C 14.03043 110.11714 12.678832 112.62903 11.910156 114.57812 A 1.25 1.375 0 0 0 11.650391 114.51172 C 11.718297 112.22988 12.120702 110 10 110 z M 36 110 C 36.404899 111.82205 37.126467 112.20449 37.257812 114.52734 A 1.25 1.375 0 0 0 37.070312 114.58594 C 36.544078 113.55759 35.665182 112.5 34.25 112.5 C 34.25 113.81328 35.939954 113.57772 36.783203 114.75195 A 1.25 1.375 0 0 0 36.505859 115.04492 C 35.694517 114.39984 34.67102 114.21853 34 116.5 C 34.758568 116.5 35.517073 114.77992 36.384766 115.25586 A 1.25 1.375 0 0 0 36.25 115.875 A 1.25 1.375 0 0 0 37.175781 117.20117 L 37 120 L 38 120 L 37.824219 117.20117 A 1.25 1.375 0 0 0 38.75 115.875 A 1.25 1.375 0 0 0 38.630859 115.29492 C 39.452343 114.84081 40.723257 114.86163 42 115.5 C 41.102872 113.25718 39.589171 114.06291 38.509766 115.06641 A 1.25 1.375 0 0 0 38.208984 114.74414 C 38.986547 113.06604 40.536093 112.32834 41.5 111.75 C 40.03043 110.11714 38.678832 112.62903 37.910156 114.57812 A 1.25 1.375 0 0 0 37.650391 114.51172 C 37.718297 112.22988 38.120702 110 36 110 z M 62 110 C 62.404899 111.82205 63.126467 112.20449 63.257812 114.52734 A 1.25 1.375 0 0 0 63.070312 114.58594 C 62.544078 113.55759 61.665182 112.5 60.25 112.5 C 60.25 113.81328 61.939954 113.57772 62.783203 114.75195 A 1.25 1.375 0 0 0 62.505859 115.04492 C 61.694517 114.39984 60.67102 114.21853 60 116.5 C 60.758568 116.5 61.517073 114.77992 62.384766 115.25586 A 1.25 1.375 0 0 0 62.25 115.875 A 1.25 1.375 0 0 0 63.175781 117.20117 L 63 120 L 64 120 L 63.824219 117.20117 A 1.25 1.375 0 0 0 64.75 115.875 A 1.25 1.375 0 0 0 64.630859 115.29492 C 65.452343 114.84081 66.723257 114.86163 68 115.5 C 67.102872 113.25718 65.589171 114.06291 64.509766 115.06641 A 1.25 1.375 0 0 0 64.208984 114.74414 C 64.986547 113.06604 66.536093 112.32834 67.5 111.75 C 66.03043 110.11714 64.678832 112.62903 63.910156 114.57812 A 1.25 1.375 0 0 0 63.650391 114.51172 C 63.718297 112.22988 64.120702 110 62 110 z M 87 110 C 87.404899 111.82205 88.126468 112.20449 88.257812 114.52734 A 1.25 1.375 0 0 0 88.070312 114.58594 C 87.544078 113.55759 86.665182 112.5 85.25 112.5 C 85.25 113.81328 86.939954 113.57772 87.783203 114.75195 A 1.25 1.375 0 0 0 87.505859 115.04492 C 86.694517 114.39984 85.67102 114.21853 85 116.5 C 85.758568 116.5 86.517073 114.77992 87.384766 115.25586 A 1.25 1.375 0 0 0 87.25 115.875 A 1.25 1.375 0 0 0 88.175781 117.20117 L 88 120 L 89 120 L 88.824219 117.20117 A 1.25 1.375 0 0 0 89.75 115.875 A 1.25 1.375 0 0 0 89.630859 115.29492 C 90.452343 114.84081 91.723257 114.86163 93 115.5 C 92.102872 113.25718 90.589171 114.06291 89.509766 115.06641 A 1.25 1.375 0 0 0 89.208984 114.74414 C 89.986547 113.06604 91.536093 112.32834 92.5 111.75 C 91.03043 110.11714 89.678832 112.62903 88.910156 114.57812 A 1.25 1.375 0 0 0 88.650391 114.51172 C 88.718297 112.22988 89.120702 110 87 110 z M 113 110 C 113.4049 111.82205 114.12647 112.20449 114.25781 114.52734 A 1.25 1.375 0 0 0 114.07031 114.58594 C 113.54408 113.55759 112.66518 112.5 111.25 112.5 C 111.25 113.81328 112.93995 113.57772 113.7832 114.75195 A 1.25 1.375 0 0 0 113.50586 115.04492 C 112.69452 114.39984 111.67102 114.21853 111 116.5 C 111.75857 116.5 112.51707 114.77992 113.38477 115.25586 A 1.25 1.375 0 0 0 113.25 115.875 A 1.25 1.375 0 0 0 114.17578 117.20117 L 114 120 L 115 120 L 114.82422 117.20117 A 1.25 1.375 0 0 0 115.75 115.875 A 1.25 1.375 0 0 0 115.63086 115.29492 C 116.45234 114.84081 117.72326 114.86163 119 115.5 C 118.10287 113.25718 116.58917 114.06291 115.50977 115.06641 A 1.25 1.375 0 0 0 115.20898 114.74414 C 115.98655 113.06604 117.53609 112.32834 118.5 111.75 C 117.03043 110.11714 115.67883 112.62903 114.91016 114.57812 A 1.25 1.375 0 0 0 114.65039 114.51172 C 114.7183 112.22988 115.1207 110 113 110 z M 23 123 C 23.404899 124.82205 24.126468 125.20449 24.257812 127.52734 A 1.25 1.375 0 0 0 24.070312 127.58594 C 23.544078 126.55759 22.665182 125.5 21.25 125.5 C 21.25 126.81328 22.939954 126.57772 23.783203 127.75195 A 1.25 1.375 0 0 0 23.539062 128 L 25.460938 128 A 1.25 1.375 0 0 0 25.208984 127.74414 C 25.986546 126.06604 27.536093 125.32834 28.5 124.75 C 27.03043 123.11714 25.678832 125.62904 24.910156 127.57812 A 1.25 1.375 0 0 0 24.650391 127.51172 C 24.718297 125.22988 25.120702 123 23 123 z M 49 123 C 49.404899 124.82205 50.126467 125.20449 50.257812 127.52734 A 1.25 1.375 0 0 0 50.070312 127.58594 C 49.544078 126.55759 48.665182 125.5 47.25 125.5 C 47.25 126.81328 48.939954 126.57772 49.783203 127.75195 A 1.25 1.375 0 0 0 49.539062 128 L 51.460938 128 A 1.25 1.375 0 0 0 51.208984 127.74414 C 51.986547 126.06604 53.536093 125.32834 54.5 124.75 C 53.03043 123.11714 51.678832 125.62904 50.910156 127.57812 A 1.25 1.375 0 0 0 50.650391 127.51172 C 50.718297 125.22988 51.120702 123 49 123 z M 74 123 C 74.404899 124.82205 75.126468 125.20449 75.257812 127.52734 A 1.25 1.375 0 0 0 75.070312 127.58594 C 74.544078 126.55759 73.665182 125.5 72.25 125.5 C 72.25 126.81328 73.939954 126.57772 74.783203 127.75195 A 1.25 1.375 0 0 0 74.539062 128 L 76.460938 128 A 1.25 1.375 0 0 0 76.208984 127.74414 C 76.986547 126.06604 78.536093 125.32834 79.5 124.75 C 78.03043 123.11714 76.678832 125.62904 75.910156 127.57812 A 1.25 1.375 0 0 0 75.650391 127.51172 C 75.718297 125.22988 76.120702 123 74 123 z M 100 123 C 100.4049 124.82205 101.12647 125.20449 101.25781 127.52734 A 1.25 1.375 0 0 0 101.07031 127.58594 C 100.54408 126.55759 99.665182 125.5 98.25 125.5 C 98.25 126.81328 99.939957 126.57772 100.7832 127.75195 A 1.25 1.375 0 0 0 100.53906 128 L 102.46094 128 A 1.25 1.375 0 0 0 102.20898 127.74414 C 102.98655 126.06604 104.53609 125.32834 105.5 124.75 C 104.03043 123.11714 102.67883 125.62904 101.91016 127.57812 A 1.25 1.375 0 0 0 101.65039 127.51172 C 101.7183 125.22988 102.1207 123 100 123 z M 126 123 C 126.10122 123.45551 126.22297 123.82202 126.34961 124.15039 C 126.60289 124.80714 126.87761 125.31376 127.0625 126.0957 C 127.10872 126.29119 127.1505 126.50391 127.18359 126.74023 C 127.21668 126.97655 127.24139 127.23699 127.25781 127.52734 A 1.25 1.375 0 0 0 127.13672 127.56055 A 1.25 1.375 0 0 0 127.07031 127.58594 C 126.87298 127.20031 126.62652 126.81115 126.32031 126.47461 C 126.01411 126.13807 125.64733 125.85447 125.21289 125.68164 C 124.92326 125.56642 124.60379 125.5 124.25 125.5 C 124.25 126.15664 124.67328 126.42569 125.20117 126.67773 C 125.46512 126.80376 125.75424 126.92628 126.03125 127.08984 C 126.30826 127.25341 126.57239 127.4584 126.7832 127.75195 A 1.25 1.375 0 0 0 126.59375 127.93164 A 1.25 1.375 0 0 0 126.53906 128 L 128 128 L 128 127.36523 C 127.97118 127.43583 127.93752 127.50875 127.91016 127.57812 A 1.25 1.375 0 0 0 127.65039 127.51172 C 127.66737 126.94126 127.70461 126.37369 127.71875 125.84375 C 127.72582 125.57878 127.72718 125.32411 127.7168 125.08203 C 127.69603 124.59788 127.63021 124.16771 127.47266 123.82617 C 127.3151 123.48464 127.06528 123.23047 126.68164 123.09961 C 126.58573 123.06689 126.48267 123.04228 126.36914 123.02539 C 126.25561 123.0085 126.13254 123 126 123 z M 2.4277344 124.22852 C 1.4407668 124.33232 0.57837128 125.94843 0 127.36523 L 0 128 L 0.4609375 128 A 1.25 1.375 0 0 0 0.20898438 127.74414 C 0.98654648 126.06604 2.536093 125.32834 3.5 124.75 C 3.1326075 124.34179 2.7731156 124.19219 2.4277344 124.22852 z M 2.3222656 127.06641 C 1.7255622 127.11078 1.1120222 127.52641 0.58789062 128 L 1.6621094 128 C 1.8517832 127.98299 2.0507674 127.98414 2.2558594 128 L 3.7421875 128 C 3.3316972 127.29135 2.8366062 127.02816 2.3222656 127.06641 z M 27.322266 127.06641 C 26.725562 127.11078 26.112022 127.52641 25.587891 128 L 26.662109 128 C 26.851783 127.98299 27.050767 127.98414 27.255859 128 L 28.742188 128 C 28.331697 127.29135 27.836606 127.02816 27.322266 127.06641 z M 53.322266 127.06641 C 52.725562 127.11078 52.112022 127.52641 51.587891 128 L 52.662109 128 C 52.851783 127.98299 53.050767 127.98414 53.255859 128 L 54.742188 128 C 54.331697 127.29135 53.836606 127.02816 53.322266 127.06641 z M 78.322266 127.06641 C 77.725562 127.11078 77.112022 127.52641 76.587891 128 L 77.662109 128 C 77.851783 127.98299 78.050767 127.98414 78.255859 128 L 79.742188 128 C 79.331697 127.29135 78.836606 127.02816 78.322266 127.06641 z M 104.32227 127.06641 C 103.72556 127.11078 103.11202 127.52641 102.58789 128 L 103.66211 128 C 103.85178 127.98299 104.05077 127.98414 104.25586 128 L 105.74219 128 C 105.3317 127.29135 104.83661 127.02816 104.32227 127.06641 z M 22.533203 127.62109 C 22.268498 127.6163 22.005836 127.73822 21.755859 128 L 23.441406 128 C 23.154408 127.78358 22.844342 127.62673 22.533203 127.62109 z M 48.533203 127.62109 C 48.268498 127.6163 48.005836 127.73822 47.755859 128 L 49.441406 128 C 49.154408 127.78358 48.844342 127.62673 48.533203 127.62109 z M 73.533203 127.62109 C 73.268498 127.6163 73.005836 127.73822 72.755859 128 L 74.441406 128 C 74.154408 127.78358 73.844342 127.62673 73.533203 127.62109 z M 99.533203 127.62109 C 99.268498 127.6163 99.005836 127.73822 98.755859 128 L 100.44141 128 C 100.15441 127.78358 99.844342 127.62673 99.533203 127.62109 z M 125.5332 127.62109 C 125.31044 127.61706 125.08704 127.68831 124.87305 127.86719 C 124.83276 127.90087 124.79547 127.95852 124.75586 128 L 126.44141 128 C 126.25715 127.86105 126.06494 127.74431 125.86719 127.67969 C 125.75692 127.64366 125.64459 127.62311 125.5332 127.62109 z " style="fill:#000000" />
  <rect
     style="fill:none;fill-opacity:1;stroke:none"
     id="rect8566"
     y="0"
     x="0"
     rx="0"
     height="128"
     width="128" />
  <desc
     id="desc266">Created with Snap</desc>
</svg>
