<?xml version="1.0" encoding="UTF-8" standalone="no"?>
<svg
   id="Svg"
   width="128"
   height="128"
   version="1.1"
   xmlns="http://www.w3.org/2000/svg"
   xmlns:svg="http://www.w3.org/2000/svg">
  <defs
     id="defs10" />
  <path
     id="path1961"
     d="M 0 0 C 0.132859 0.0664 0.26466737 0.12834687 0.39648438 0.18554688 L 0 0.8984375 L 0 4 L 0.5 4 C 0.133375 3.81669 0.035852625 2.9616362 0.009765625 2.2226562 L 0.72460938 0.31640625 C 1.5748063 0.62745246 2.3336268 0.64294311 2.7226562 0 L 0 0 z M 21.611328 0 C 22.015749 0.60077294 22.625236 0.53780608 23.160156 0.28125 L 24 1.75 C 23.9955 2.542 23.95 3.775 23.5 4 L 25.5 4 C 25.133375 3.81669 25.035853 2.9616362 25.009766 2.2226562 L 25.724609 0.31640625 C 26.574806 0.62745246 27.333627 0.64294311 27.722656 0 L 25 0 C 25.132859 0.0664 25.264667 0.12834687 25.396484 0.18554688 L 24.666016 1.5 L 24.572266 1.5 L 23.542969 0.060546875 C 23.587011 0.031861838 23.577888 0.028944303 23.619141 0 L 22.78125 0 C 22.542863 0.14669988 22.319018 0.1770081 22.121094 0 L 21.611328 0 z M 47.611328 0 C 48.015749 0.60077294 48.625236 0.53780608 49.160156 0.28125 L 50 1.75 C 49.9955 2.542 49.95 3.775 49.5 4 L 51.5 4 C 51.133375 3.81669 51.035853 2.9616362 51.009766 2.2226562 L 51.724609 0.31640625 C 52.574806 0.62745246 53.333627 0.64294311 53.722656 0 L 51 0 C 51.132859 0.0664 51.264667 0.12834687 51.396484 0.18554688 L 50.666016 1.5 L 50.572266 1.5 L 49.542969 0.060546875 C 49.587011 0.031861838 49.577888 0.028944303 49.619141 0 L 48.78125 0 C 48.542863 0.14669988 48.319018 0.1770081 48.121094 0 L 47.611328 0 z M 72.611328 0 C 73.015749 0.60077294 73.625236 0.53780608 74.160156 0.28125 L 75 1.75 C 74.9955 2.542 74.95 3.775 74.5 4 L 76.5 4 C 76.133375 3.81669 76.035853 2.9616362 76.009766 2.2226562 L 76.724609 0.31640625 C 77.574806 0.62745246 78.333627 0.64294311 78.722656 0 L 76 0 C 76.132859 0.0664 76.264667 0.12834687 76.396484 0.18554688 L 75.666016 1.5 L 75.572266 1.5 L 74.542969 0.060546875 C 74.587011 0.031861838 74.577888 0.028944303 74.619141 0 L 73.78125 0 C 73.542863 0.14669988 73.319018 0.1770081 73.121094 0 L 72.611328 0 z M 98.611328 0 C 99.01575 0.60077294 99.625233 0.53780608 100.16016 0.28125 L 101 1.75 C 100.996 2.542 100.95 3.775 100.5 4 L 102.5 4 C 102.13338 3.81669 102.03585 2.9616362 102.00977 2.2226562 L 102.72461 0.31640625 C 103.57481 0.62745246 104.33363 0.64294311 104.72266 0 L 102 0 C 102.13286 0.0664 102.26467 0.12834687 102.39648 0.18554688 L 101.66602 1.5 L 101.57227 1.5 L 100.54297 0.060546875 C 100.58701 0.031861838 100.57789 0.028944303 100.61914 0 L 99.78125 0 C 99.542863 0.14669988 99.319018 0.1770081 99.121094 0 L 98.611328 0 z M 124.61133 0 C 125.01575 0.60077294 125.62523 0.53780608 126.16016 0.28125 L 127 1.75 C 126.996 2.542 126.95 3.775 126.5 4 L 128 4 L 128 0.8984375 L 127.66602 1.5 L 127.57227 1.5 L 126.54297 0.060546875 C 126.58701 0.031861838 126.57789 0.028944303 126.61914 0 L 125.78125 0 C 125.54286 0.14669988 125.31902 0.1770081 125.12109 0 L 124.61133 0 z M 2 3 A 1 0.5 0 0 0 1 3.5 A 1 0.5 0 0 0 2 4 A 1 0.5 0 0 0 3 3.5 A 1 0.5 0 0 0 2 3 z M 27 3 A 1 0.5 0 0 0 26 3.5 A 1 0.5 0 0 0 27 4 A 1 0.5 0 0 0 28 3.5 A 1 0.5 0 0 0 27 3 z M 53 3 A 1 0.5 0 0 0 52 3.5 A 1 0.5 0 0 0 53 4 A 1 0.5 0 0 0 54 3.5 A 1 0.5 0 0 0 53 3 z M 78 3 A 1 0.5 0 0 0 77 3.5 A 1 0.5 0 0 0 78 4 A 1 0.5 0 0 0 79 3.5 A 1 0.5 0 0 0 78 3 z M 104 3 A 1 0.5 0 0 0 103 3.5 A 1 0.5 0 0 0 104 4 A 1 0.5 0 0 0 105 3.5 A 1 0.5 0 0 0 104 3 z M 4.25 3.25 A 0.75 0.375 0 0 0 3.5 3.625 A 0.75 0.375 0 0 0 4.25 4 A 0.75 0.375 0 0 0 5 3.625 A 0.75 0.375 0 0 0 4.25 3.25 z M 29.25 3.25 A 0.75 0.375 0 0 0 28.5 3.625 A 0.75 0.375 0 0 0 29.25 4 A 0.75 0.375 0 0 0 30 3.625 A 0.75 0.375 0 0 0 29.25 3.25 z M 55.25 3.25 A 0.75 0.375 0 0 0 54.5 3.625 A 0.75 0.375 0 0 0 55.25 4 A 0.75 0.375 0 0 0 56 3.625 A 0.75 0.375 0 0 0 55.25 3.25 z M 80.25 3.25 A 0.75 0.375 0 0 0 79.5 3.625 A 0.75 0.375 0 0 0 80.25 4 A 0.75 0.375 0 0 0 81 3.625 A 0.75 0.375 0 0 0 80.25 3.25 z M 106.25 3.25 A 0.75 0.375 0 0 0 105.5 3.625 A 0.75 0.375 0 0 0 106.25 4 A 0.75 0.375 0 0 0 107 3.625 A 0.75 0.375 0 0 0 106.25 3.25 z M 12.865234 8.1699219 C 12.233716 8.1565719 11.5625 8.4375 11 9 C 9 8.25 8.25 9.5 8.25 11 C 8.527297 12.66378 9.4201672 12.63616 10.160156 12.28125 L 11 13.75 C 10.9955 14.542 10.95 15.775 10.5 16 L 12.5 16 C 12.133375 15.81669 12.035853 14.961636 12.009766 14.222656 L 12.724609 12.316406 C 13.94718 12.763686 15 12.63376 15 10.75 C 14.859501 9.03213 13.917766 8.1921819 12.865234 8.1699219 z M 38.865234 8.1699219 C 38.233716 8.1565719 37.5625 8.4375 37 9 C 35 8.25 34.25 9.5 34.25 11 C 34.527297 12.66378 35.420167 12.63616 36.160156 12.28125 L 37 13.75 C 36.9955 14.542 36.95 15.775 36.5 16 L 38.5 16 C 38.133375 15.81669 38.035853 14.961636 38.009766 14.222656 L 38.724609 12.316406 C 39.94718 12.763686 41 12.63376 41 10.75 C 40.859501 9.03213 39.917766 8.1921819 38.865234 8.1699219 z M 64.865234 8.1699219 C 64.233716 8.1565719 63.5625 8.4375 63 9 C 61 8.25 60.25 9.5 60.25 11 C 60.527297 12.66378 61.420167 12.63616 62.160156 12.28125 L 63 13.75 C 62.9955 14.542 62.95 15.775 62.5 16 L 64.5 16 C 64.133375 15.81669 64.035853 14.961636 64.009766 14.222656 L 64.724609 12.316406 C 65.94718 12.763686 67 12.63376 67 10.75 C 66.859501 9.03213 65.917766 8.1921819 64.865234 8.1699219 z M 89.865234 8.1699219 C 89.233716 8.1565719 88.5625 8.4375 88 9 C 86 8.25 85.25 9.5 85.25 11 C 85.527297 12.66378 86.420167 12.63616 87.160156 12.28125 L 88 13.75 C 87.9955 14.542 87.95 15.775 87.5 16 L 89.5 16 C 89.133375 15.81669 89.035853 14.961636 89.009766 14.222656 L 89.724609 12.316406 C 90.94718 12.763686 92 12.63376 92 10.75 C 91.859501 9.03213 90.917766 8.1921819 89.865234 8.1699219 z M 115.86523 8.1699219 C 115.23372 8.1565719 114.5625 8.4375 114 9 C 112 8.25 111.25 9.5 111.25 11 C 111.5273 12.66378 112.42017 12.63616 113.16016 12.28125 L 114 13.75 C 113.996 14.542 113.95 15.775 113.5 16 L 115.5 16 C 115.13338 15.81669 115.03585 14.961636 115.00977 14.222656 L 115.72461 12.316406 C 116.94718 12.763686 118 12.63376 118 10.75 C 117.8595 9.03213 116.91777 8.1921819 115.86523 8.1699219 z M 12.449219 8.5449219 C 12.74038 8.5379219 13.039358 8.60962 13.25 8.75 C 13.71513 9.06009 13.75 9.96984 13.75 10.5 C 13.75 13 12 11.25 11 11.25 C 10.25 11.25 9.25 13.25 8.75 11.25 C 8.440828 10.01331 9.25 8.5 11 9.5 C 11.5 10.25 11.25 10.25 12 11 C 12 9.75 11.5 9.5 11.5 9.25 C 11.5 8.78125 11.963951 8.5558819 12.449219 8.5449219 z M 38.449219 8.5449219 C 38.74038 8.5379219 39.039358 8.60962 39.25 8.75 C 39.71513 9.06009 39.75 9.96984 39.75 10.5 C 39.75 13 38 11.25 37 11.25 C 36.25 11.25 35.25 13.25 34.75 11.25 C 34.440828 10.01331 35.25 8.5 37 9.5 C 37.5 10.25 37.25 10.25 38 11 C 38 9.75 37.5 9.5 37.5 9.25 C 37.5 8.78125 37.963951 8.5558819 38.449219 8.5449219 z M 64.449219 8.5449219 C 64.74038 8.5379219 65.039358 8.60962 65.25 8.75 C 65.71513 9.06009 65.75 9.96984 65.75 10.5 C 65.75 13 64 11.25 63 11.25 C 62.25 11.25 61.25 13.25 60.75 11.25 C 60.440828 10.01331 61.25 8.5 63 9.5 C 63.5 10.25 63.25 10.25 64 11 C 64 9.75 63.5 9.5 63.5 9.25 C 63.5 8.78125 63.963951 8.5558819 64.449219 8.5449219 z M 89.449219 8.5449219 C 89.74038 8.5379219 90.039358 8.60962 90.25 8.75 C 90.71513 9.06009 90.75 9.96984 90.75 10.5 C 90.75 13 89 11.25 88 11.25 C 87.25 11.25 86.25 13.25 85.75 11.25 C 85.440828 10.01331 86.25 8.5 88 9.5 C 88.5 10.25 88.25 10.25 89 11 C 89 9.75 88.5 9.5 88.5 9.25 C 88.5 8.78125 88.963951 8.5558819 89.449219 8.5449219 z M 115.44922 8.5449219 C 115.74038 8.5379219 116.03936 8.60962 116.25 8.75 C 116.71513 9.06009 116.75 9.96984 116.75 10.5 C 116.75 13 115 11.25 114 11.25 C 113.25 11.25 112.25 13.25 111.75 11.25 C 111.44083 10.01331 112.25 8.5 114 9.5 C 114.5 10.25 114.25 10.25 115 11 C 115 9.75 114.5 9.5 114.5 9.25 C 114.5 8.78125 114.96395 8.5558819 115.44922 8.5449219 z M 11.25 11.5 L 12 12 C 12.132859 12.0664 12.264667 12.128347 12.396484 12.185547 L 11.666016 13.5 L 11.572266 13.5 L 10.542969 12.060547 C 10.951361 11.794557 11.25 11.5 11.25 11.5 z M 37.25 11.5 L 38 12 C 38.132859 12.0664 38.264667 12.128347 38.396484 12.185547 L 37.666016 13.5 L 37.572266 13.5 L 36.542969 12.060547 C 36.951361 11.794557 37.25 11.5 37.25 11.5 z M 63.25 11.5 L 64 12 C 64.132859 12.0664 64.264667 12.128347 64.396484 12.185547 L 63.666016 13.5 L 63.572266 13.5 L 62.542969 12.060547 C 62.951361 11.794557 63.25 11.5 63.25 11.5 z M 88.25 11.5 L 89 12 C 89.132859 12.0664 89.264667 12.128347 89.396484 12.185547 L 88.666016 13.5 L 88.572266 13.5 L 87.542969 12.060547 C 87.951361 11.794557 88.25 11.5 88.25 11.5 z M 114.25 11.5 L 115 12 C 115.13286 12.0664 115.26467 12.128347 115.39648 12.185547 L 114.66602 13.5 L 114.57227 13.5 L 113.54297 12.060547 C 113.95131 11.794557 114.25 11.5 114.25 11.5 z M 14 15 A 1 0.5 0 0 0 13 15.5 A 1 0.5 0 0 0 14 16 A 1 0.5 0 0 0 15 15.5 A 1 0.5 0 0 0 14 15 z M 40 15 A 1 0.5 0 0 0 39 15.5 A 1 0.5 0 0 0 40 16 A 1 0.5 0 0 0 41 15.5 A 1 0.5 0 0 0 40 15 z M 66 15 A 1 0.5 0 0 0 65 15.5 A 1 0.5 0 0 0 66 16 A 1 0.5 0 0 0 67 15.5 A 1 0.5 0 0 0 66 15 z M 91 15 A 1 0.5 0 0 0 90 15.5 A 1 0.5 0 0 0 91 16 A 1 0.5 0 0 0 92 15.5 A 1 0.5 0 0 0 91 15 z M 117 15 A 1 0.5 0 0 0 116 15.5 A 1 0.5 0 0 0 117 16 A 1 0.5 0 0 0 118 15.5 A 1 0.5 0 0 0 117 15 z M 16.25 15.25 A 0.75 0.375 0 0 0 15.5 15.625 A 0.75 0.375 0 0 0 16.25 16 A 0.75 0.375 0 0 0 17 15.625 A 0.75 0.375 0 0 0 16.25 15.25 z M 42.25 15.25 A 0.75 0.375 0 0 0 41.5 15.625 A 0.75 0.375 0 0 0 42.25 16 A 0.75 0.375 0 0 0 43 15.625 A 0.75 0.375 0 0 0 42.25 15.25 z M 68.25 15.25 A 0.75 0.375 0 0 0 67.5 15.625 A 0.75 0.375 0 0 0 68.25 16 A 0.75 0.375 0 0 0 69 15.625 A 0.75 0.375 0 0 0 68.25 15.25 z M 93.25 15.25 A 0.75 0.375 0 0 0 92.5 15.625 A 0.75 0.375 0 0 0 93.25 16 A 0.75 0.375 0 0 0 94 15.625 A 0.75 0.375 0 0 0 93.25 15.25 z M 119.25 15.25 A 0.75 0.375 0 0 0 118.5 15.625 A 0.75 0.375 0 0 0 119.25 16 A 0.75 0.375 0 0 0 120 15.625 A 0.75 0.375 0 0 0 119.25 15.25 z M 0.86523438 21.169922 C 0.58034752 21.163899 0.28741932 21.237024 0 21.349609 L 0 21.669922 C 0.14338665 21.614735 0.28306701 21.548674 0.44921875 21.544922 C 0.74037975 21.537922 1.039358 21.60962 1.25 21.75 C 1.71513 22.06009 1.75 22.96984 1.75 23.5 C 1.75 25.271633 0.86796729 24.90077 0 24.539062 L 0 25 C 0.132859 25.0664 0.26466737 25.128347 0.39648438 25.185547 L 0 25.898438 L 0 29 L 0.5 29 C 0.133375 28.81669 0.035852625 27.961636 0.009765625 27.222656 L 0.72460938 25.316406 C 1.9471804 25.763686 3 25.63376 3 23.75 C 2.859501 22.03213 1.9177664 21.192182 0.86523438 21.169922 z M 25.865234 21.169922 C 25.233716 21.156572 24.5625 21.4375 24 22 C 22 21.25 21.25 22.5 21.25 24 C 21.527297 25.66378 22.420167 25.63616 23.160156 25.28125 L 24 26.75 C 23.9955 27.542 23.95 28.775 23.5 29 L 25.5 29 C 25.133375 28.81669 25.035853 27.961636 25.009766 27.222656 L 25.724609 25.316406 C 26.94718 25.763686 28 25.63376 28 23.75 C 27.859501 22.03213 26.917766 21.192182 25.865234 21.169922 z M 51.865234 21.169922 C 51.233716 21.156572 50.5625 21.4375 50 22 C 48 21.25 47.25 22.5 47.25 24 C 47.527297 25.66378 48.420167 25.63616 49.160156 25.28125 L 50 26.75 C 49.9955 27.542 49.95 28.775 49.5 29 L 51.5 29 C 51.133375 28.81669 51.035853 27.961636 51.009766 27.222656 L 51.724609 25.316406 C 52.94718 25.763686 54 25.63376 54 23.75 C 53.859501 22.03213 52.917766 21.192182 51.865234 21.169922 z M 76.865234 21.169922 C 76.233716 21.156572 75.5625 21.4375 75 22 C 73 21.25 72.25 22.5 72.25 24 C 72.527297 25.66378 73.420167 25.63616 74.160156 25.28125 L 75 26.75 C 74.9955 27.542 74.95 28.775 74.5 29 L 76.5 29 C 76.133375 28.81669 76.035853 27.961636 76.009766 27.222656 L 76.724609 25.316406 C 77.94718 25.763686 79 25.63376 79 23.75 C 78.859501 22.03213 77.917766 21.192182 76.865234 21.169922 z M 102.86523 21.169922 C 102.23372 21.156572 101.5625 21.4375 101 22 C 99 21.25 98.25 22.5 98.25 24 C 98.527297 25.66378 99.420163 25.63616 100.16016 25.28125 L 101 26.75 C 100.996 27.542 100.95 28.775 100.5 29 L 102.5 29 C 102.13338 28.81669 102.03585 27.961636 102.00977 27.222656 L 102.72461 25.316406 C 103.94718 25.763686 105 25.63376 105 23.75 C 104.8595 22.03213 103.91777 21.192182 102.86523 21.169922 z M 128 21.349609 C 127.65029 21.486595 127.30875 21.691252 127 22 C 125 21.25 124.25 22.5 124.25 24 C 124.5273 25.66378 125.42017 25.63616 126.16016 25.28125 L 127 26.75 C 126.996 27.542 126.95 28.775 126.5 29 L 128 29 L 128 25.898438 L 127.66602 26.5 L 127.57227 26.5 L 126.54297 25.060547 C 126.95131 24.794557 127.25 24.5 127.25 24.5 L 128 25 L 128 24.539062 C 127.64315 24.390354 127.29135 24.25 127 24.25 C 126.25 24.25 125.25 26.25 124.75 24.25 C 124.44083 23.01331 125.25 21.5 127 22.5 C 127.5 23.25 127.25 23.25 128 24 C 128 22.75 127.5 22.5 127.5 22.25 C 127.5 21.941746 127.72461 21.775916 128 21.669922 L 128 21.349609 z M 25.449219 21.544922 C 25.74038 21.537922 26.039358 21.60962 26.25 21.75 C 26.71513 22.06009 26.75 22.96984 26.75 23.5 C 26.75 26 25 24.25 24 24.25 C 23.25 24.25 22.25 26.25 21.75 24.25 C 21.440828 23.01331 22.25 21.5 24 22.5 C 24.5 23.25 24.25 23.25 25 24 C 25 22.75 24.5 22.5 24.5 22.25 C 24.5 21.78125 24.963951 21.555882 25.449219 21.544922 z M 51.449219 21.544922 C 51.74038 21.537922 52.039358 21.60962 52.25 21.75 C 52.71513 22.06009 52.75 22.96984 52.75 23.5 C 52.75 26 51 24.25 50 24.25 C 49.25 24.25 48.25 26.25 47.75 24.25 C 47.440828 23.01331 48.25 21.5 50 22.5 C 50.5 23.25 50.25 23.25 51 24 C 51 22.75 50.5 22.5 50.5 22.25 C 50.5 21.78125 50.963951 21.555882 51.449219 21.544922 z M 76.449219 21.544922 C 76.74038 21.537922 77.039358 21.60962 77.25 21.75 C 77.71513 22.06009 77.75 22.96984 77.75 23.5 C 77.75 26 76 24.25 75 24.25 C 74.25 24.25 73.25 26.25 72.75 24.25 C 72.440828 23.01331 73.25 21.5 75 22.5 C 75.5 23.25 75.25 23.25 76 24 C 76 22.75 75.5 22.5 75.5 22.25 C 75.5 21.78125 75.963951 21.555882 76.449219 21.544922 z M 102.44922 21.544922 C 102.74038 21.537922 103.03936 21.60962 103.25 21.75 C 103.71513 22.06009 103.75 22.96984 103.75 23.5 C 103.75 26 102 24.25 101 24.25 C 100.25 24.25 99.25 26.25 98.75 24.25 C 98.440828 23.01331 99.25 21.5 101 22.5 C 101.5 23.25 101.25 23.25 102 24 C 102 22.75 101.5 22.5 101.5 22.25 C 101.5 21.78125 101.96395 21.555882 102.44922 21.544922 z M 24.25 24.5 L 25 25 C 25.132859 25.0664 25.264667 25.128347 25.396484 25.185547 L 24.666016 26.5 L 24.572266 26.5 L 23.542969 25.060547 C 23.951361 24.794557 24.25 24.5 24.25 24.5 z M 50.25 24.5 L 51 25 C 51.132859 25.0664 51.264667 25.128347 51.396484 25.185547 L 50.666016 26.5 L 50.572266 26.5 L 49.542969 25.060547 C 49.951361 24.794557 50.25 24.5 50.25 24.5 z M 75.25 24.5 L 76 25 C 76.132859 25.0664 76.264667 25.128347 76.396484 25.185547 L 75.666016 26.5 L 75.572266 26.5 L 74.542969 25.060547 C 74.951361 24.794557 75.25 24.5 75.25 24.5 z M 101.25 24.5 L 102 25 C 102.13286 25.0664 102.26467 25.128347 102.39648 25.185547 L 101.66602 26.5 L 101.57227 26.5 L 100.54297 25.060547 C 100.95131 24.794557 101.25 24.5 101.25 24.5 z M 2 28 A 1 0.5 0 0 0 1 28.5 A 1 0.5 0 0 0 2 29 A 1 0.5 0 0 0 3 28.5 A 1 0.5 0 0 0 2 28 z M 27 28 A 1 0.5 0 0 0 26 28.5 A 1 0.5 0 0 0 27 29 A 1 0.5 0 0 0 28 28.5 A 1 0.5 0 0 0 27 28 z M 53 28 A 1 0.5 0 0 0 52 28.5 A 1 0.5 0 0 0 53 29 A 1 0.5 0 0 0 54 28.5 A 1 0.5 0 0 0 53 28 z M 78 28 A 1 0.5 0 0 0 77 28.5 A 1 0.5 0 0 0 78 29 A 1 0.5 0 0 0 79 28.5 A 1 0.5 0 0 0 78 28 z M 104 28 A 1 0.5 0 0 0 103 28.5 A 1 0.5 0 0 0 104 29 A 1 0.5 0 0 0 105 28.5 A 1 0.5 0 0 0 104 28 z M 4.25 28.25 A 0.75 0.375 0 0 0 3.5 28.625 A 0.75 0.375 0 0 0 4.25 29 A 0.75 0.375 0 0 0 5 28.625 A 0.75 0.375 0 0 0 4.25 28.25 z M 29.25 28.25 A 0.75 0.375 0 0 0 28.5 28.625 A 0.75 0.375 0 0 0 29.25 29 A 0.75 0.375 0 0 0 30 28.625 A 0.75 0.375 0 0 0 29.25 28.25 z M 55.25 28.25 A 0.75 0.375 0 0 0 54.5 28.625 A 0.75 0.375 0 0 0 55.25 29 A 0.75 0.375 0 0 0 56 28.625 A 0.75 0.375 0 0 0 55.25 28.25 z M 80.25 28.25 A 0.75 0.375 0 0 0 79.5 28.625 A 0.75 0.375 0 0 0 80.25 29 A 0.75 0.375 0 0 0 81 28.625 A 0.75 0.375 0 0 0 80.25 28.25 z M 106.25 28.25 A 0.75 0.375 0 0 0 105.5 28.625 A 0.75 0.375 0 0 0 106.25 29 A 0.75 0.375 0 0 0 107 28.625 A 0.75 0.375 0 0 0 106.25 28.25 z M 12.865234 34.169922 C 12.233716 34.156572 11.5625 34.4375 11 35 C 9 34.25 8.25 35.5 8.25 37 C 8.527297 38.66378 9.4201672 38.63616 10.160156 38.28125 L 11 39.75 C 10.9955 40.542 10.95 41.775 10.5 42 L 12.5 42 C 12.133375 41.81669 12.035853 40.961636 12.009766 40.222656 L 12.724609 38.316406 C 13.94718 38.763686 15 38.63376 15 36.75 C 14.859501 35.03213 13.917766 34.192182 12.865234 34.169922 z M 38.865234 34.169922 C 38.233716 34.156572 37.5625 34.4375 37 35 C 35 34.25 34.25 35.5 34.25 37 C 34.527297 38.66378 35.420167 38.63616 36.160156 38.28125 L 37 39.75 C 36.9955 40.542 36.95 41.775 36.5 42 L 38.5 42 C 38.133375 41.81669 38.035853 40.961636 38.009766 40.222656 L 38.724609 38.316406 C 39.94718 38.763686 41 38.63376 41 36.75 C 40.859501 35.03213 39.917766 34.192182 38.865234 34.169922 z M 64.865234 34.169922 C 64.233716 34.156572 63.5625 34.4375 63 35 C 61 34.25 60.25 35.5 60.25 37 C 60.527297 38.66378 61.420167 38.63616 62.160156 38.28125 L 63 39.75 C 62.9955 40.542 62.95 41.775 62.5 42 L 64.5 42 C 64.133375 41.81669 64.035853 40.961636 64.009766 40.222656 L 64.724609 38.316406 C 65.94718 38.763686 67 38.63376 67 36.75 C 66.859501 35.03213 65.917766 34.192182 64.865234 34.169922 z M 89.865234 34.169922 C 89.233716 34.156572 88.5625 34.4375 88 35 C 86 34.25 85.25 35.5 85.25 37 C 85.527297 38.66378 86.420167 38.63616 87.160156 38.28125 L 88 39.75 C 87.9955 40.542 87.95 41.775 87.5 42 L 89.5 42 C 89.133375 41.81669 89.035853 40.961636 89.009766 40.222656 L 89.724609 38.316406 C 90.94718 38.763686 92 38.63376 92 36.75 C 91.859501 35.03213 90.917766 34.192182 89.865234 34.169922 z M 115.86523 34.169922 C 115.23372 34.156572 114.5625 34.4375 114 35 C 112 34.25 111.25 35.5 111.25 37 C 111.5273 38.66378 112.42017 38.63616 113.16016 38.28125 L 114 39.75 C 113.996 40.542 113.95 41.775 113.5 42 L 115.5 42 C 115.13338 41.81669 115.03585 40.961636 115.00977 40.222656 L 115.72461 38.316406 C 116.94718 38.763686 118 38.63376 118 36.75 C 117.8595 35.03213 116.91777 34.192182 115.86523 34.169922 z M 12.449219 34.544922 C 12.74038 34.537922 13.039358 34.60962 13.25 34.75 C 13.71513 35.06009 13.75 35.96984 13.75 36.5 C 13.75 39 12 37.25 11 37.25 C 10.25 37.25 9.25 39.25 8.75 37.25 C 8.440828 36.01331 9.25 34.5 11 35.5 C 11.5 36.25 11.25 36.25 12 37 C 12 35.75 11.5 35.5 11.5 35.25 C 11.5 34.78125 11.963951 34.555882 12.449219 34.544922 z M 38.449219 34.544922 C 38.74038 34.537922 39.039358 34.60962 39.25 34.75 C 39.71513 35.06009 39.75 35.96984 39.75 36.5 C 39.75 39 38 37.25 37 37.25 C 36.25 37.25 35.25 39.25 34.75 37.25 C 34.440828 36.01331 35.25 34.5 37 35.5 C 37.5 36.25 37.25 36.25 38 37 C 38 35.75 37.5 35.5 37.5 35.25 C 37.5 34.78125 37.963951 34.555882 38.449219 34.544922 z M 64.449219 34.544922 C 64.74038 34.537922 65.039358 34.60962 65.25 34.75 C 65.71513 35.06009 65.75 35.96984 65.75 36.5 C 65.75 39 64 37.25 63 37.25 C 62.25 37.25 61.25 39.25 60.75 37.25 C 60.440828 36.01331 61.25 34.5 63 35.5 C 63.5 36.25 63.25 36.25 64 37 C 64 35.75 63.5 35.5 63.5 35.25 C 63.5 34.78125 63.963951 34.555882 64.449219 34.544922 z M 89.449219 34.544922 C 89.74038 34.537922 90.039358 34.60962 90.25 34.75 C 90.71513 35.06009 90.75 35.96984 90.75 36.5 C 90.75 39 89 37.25 88 37.25 C 87.25 37.25 86.25 39.25 85.75 37.25 C 85.440828 36.01331 86.25 34.5 88 35.5 C 88.5 36.25 88.25 36.25 89 37 C 89 35.75 88.5 35.5 88.5 35.25 C 88.5 34.78125 88.963951 34.555882 89.449219 34.544922 z M 115.44922 34.544922 C 115.74038 34.537922 116.03936 34.60962 116.25 34.75 C 116.71513 35.06009 116.75 35.96984 116.75 36.5 C 116.75 39 115 37.25 114 37.25 C 113.25 37.25 112.25 39.25 111.75 37.25 C 111.44083 36.01331 112.25 34.5 114 35.5 C 114.5 36.25 114.25 36.25 115 37 C 115 35.75 114.5 35.5 114.5 35.25 C 114.5 34.78125 114.96395 34.555882 115.44922 34.544922 z M 11.25 37.5 L 12 38 C 12.132859 38.0664 12.264667 38.128347 12.396484 38.185547 L 11.666016 39.5 L 11.572266 39.5 L 10.542969 38.060547 C 10.951361 37.794557 11.25 37.5 11.25 37.5 z M 37.25 37.5 L 38 38 C 38.132859 38.0664 38.264667 38.128347 38.396484 38.185547 L 37.666016 39.5 L 37.572266 39.5 L 36.542969 38.060547 C 36.951361 37.794557 37.25 37.5 37.25 37.5 z M 63.25 37.5 L 64 38 C 64.132859 38.0664 64.264667 38.128347 64.396484 38.185547 L 63.666016 39.5 L 63.572266 39.5 L 62.542969 38.060547 C 62.951361 37.794557 63.25 37.5 63.25 37.5 z M 88.25 37.5 L 89 38 C 89.132859 38.0664 89.264667 38.128347 89.396484 38.185547 L 88.666016 39.5 L 88.572266 39.5 L 87.542969 38.060547 C 87.951361 37.794557 88.25 37.5 88.25 37.5 z M 114.25 37.5 L 115 38 C 115.13286 38.0664 115.26467 38.128347 115.39648 38.185547 L 114.66602 39.5 L 114.57227 39.5 L 113.54297 38.060547 C 113.95131 37.794557 114.25 37.5 114.25 37.5 z M 14 41 A 1 0.5 0 0 0 13 41.5 A 1 0.5 0 0 0 14 42 A 1 0.5 0 0 0 15 41.5 A 1 0.5 0 0 0 14 41 z M 40 41 A 1 0.5 0 0 0 39 41.5 A 1 0.5 0 0 0 40 42 A 1 0.5 0 0 0 41 41.5 A 1 0.5 0 0 0 40 41 z M 66 41 A 1 0.5 0 0 0 65 41.5 A 1 0.5 0 0 0 66 42 A 1 0.5 0 0 0 67 41.5 A 1 0.5 0 0 0 66 41 z M 91 41 A 1 0.5 0 0 0 90 41.5 A 1 0.5 0 0 0 91 42 A 1 0.5 0 0 0 92 41.5 A 1 0.5 0 0 0 91 41 z M 117 41 A 1 0.5 0 0 0 116 41.5 A 1 0.5 0 0 0 117 42 A 1 0.5 0 0 0 118 41.5 A 1 0.5 0 0 0 117 41 z M 16.25 41.25 A 0.75 0.375 0 0 0 15.5 41.625 A 0.75 0.375 0 0 0 16.25 42 A 0.75 0.375 0 0 0 17 41.625 A 0.75 0.375 0 0 0 16.25 41.25 z M 42.25 41.25 A 0.75 0.375 0 0 0 41.5 41.625 A 0.75 0.375 0 0 0 42.25 42 A 0.75 0.375 0 0 0 43 41.625 A 0.75 0.375 0 0 0 42.25 41.25 z M 68.25 41.25 A 0.75 0.375 0 0 0 67.5 41.625 A 0.75 0.375 0 0 0 68.25 42 A 0.75 0.375 0 0 0 69 41.625 A 0.75 0.375 0 0 0 68.25 41.25 z M 93.25 41.25 A 0.75 0.375 0 0 0 92.5 41.625 A 0.75 0.375 0 0 0 93.25 42 A 0.75 0.375 0 0 0 94 41.625 A 0.75 0.375 0 0 0 93.25 41.25 z M 119.25 41.25 A 0.75 0.375 0 0 0 118.5 41.625 A 0.75 0.375 0 0 0 119.25 42 A 0.75 0.375 0 0 0 120 41.625 A 0.75 0.375 0 0 0 119.25 41.25 z M 0.86523438 47.169922 C 0.58034752 47.163899 0.28741932 47.237024 0 47.349609 L 0 47.669922 C 0.14338665 47.614735 0.28306701 47.548674 0.44921875 47.544922 C 0.74037975 47.537922 1.039358 47.60962 1.25 47.75 C 1.71513 48.06009 1.75 48.96984 1.75 49.5 C 1.75 51.271633 0.86796729 50.90077 0 50.539062 L 0 51 C 0.132859 51.0664 0.26466737 51.128347 0.39648438 51.185547 L 0 51.898438 L 0 55 L 0.5 55 C 0.133375 54.81669 0.035852625 53.961636 0.009765625 53.222656 L 0.72460938 51.316406 C 1.9471804 51.763686 3 51.63376 3 49.75 C 2.859501 48.03213 1.9177664 47.192182 0.86523438 47.169922 z M 25.865234 47.169922 C 25.233716 47.156572 24.5625 47.4375 24 48 C 22 47.25 21.25 48.5 21.25 50 C 21.527297 51.66378 22.420167 51.63616 23.160156 51.28125 L 24 52.75 C 23.9955 53.542 23.95 54.775 23.5 55 L 25.5 55 C 25.133375 54.81669 25.035853 53.961636 25.009766 53.222656 L 25.724609 51.316406 C 26.94718 51.763686 28 51.63376 28 49.75 C 27.859501 48.03213 26.917766 47.192182 25.865234 47.169922 z M 51.865234 47.169922 C 51.233716 47.156572 50.5625 47.4375 50 48 C 48 47.25 47.25 48.5 47.25 50 C 47.527297 51.66378 48.420167 51.63616 49.160156 51.28125 L 50 52.75 C 49.9955 53.542 49.95 54.775 49.5 55 L 51.5 55 C 51.133375 54.81669 51.035853 53.961636 51.009766 53.222656 L 51.724609 51.316406 C 52.94718 51.763686 54 51.63376 54 49.75 C 53.859501 48.03213 52.917766 47.192182 51.865234 47.169922 z M 76.865234 47.169922 C 76.233716 47.156572 75.5625 47.4375 75 48 C 73 47.25 72.25 48.5 72.25 50 C 72.527297 51.66378 73.420167 51.63616 74.160156 51.28125 L 75 52.75 C 74.9955 53.542 74.95 54.775 74.5 55 L 76.5 55 C 76.133375 54.81669 76.035853 53.961636 76.009766 53.222656 L 76.724609 51.316406 C 77.94718 51.763686 79 51.63376 79 49.75 C 78.859501 48.03213 77.917766 47.192182 76.865234 47.169922 z M 102.86523 47.169922 C 102.23372 47.156572 101.5625 47.4375 101 48 C 99 47.25 98.25 48.5 98.25 50 C 98.527297 51.66378 99.420163 51.63616 100.16016 51.28125 L 101 52.75 C 100.996 53.542 100.95 54.775 100.5 55 L 102.5 55 C 102.13338 54.81669 102.03585 53.961636 102.00977 53.222656 L 102.72461 51.316406 C 103.94718 51.763686 105 51.63376 105 49.75 C 104.8595 48.03213 103.91777 47.192182 102.86523 47.169922 z M 128 47.349609 C 127.65029 47.486595 127.30875 47.691252 127 48 C 125 47.25 124.25 48.5 124.25 50 C 124.5273 51.66378 125.42017 51.63616 126.16016 51.28125 L 127 52.75 C 126.996 53.542 126.95 54.775 126.5 55 L 128 55 L 128 51.898438 L 127.66602 52.5 L 127.57227 52.5 L 126.54297 51.060547 C 126.95131 50.794557 127.25 50.5 127.25 50.5 L 128 51 L 128 50.539062 C 127.64315 50.390354 127.29135 50.25 127 50.25 C 126.25 50.25 125.25 52.25 124.75 50.25 C 124.44083 49.01331 125.25 47.5 127 48.5 C 127.5 49.25 127.25 49.25 128 50 C 128 48.75 127.5 48.5 127.5 48.25 C 127.5 47.941746 127.72461 47.775916 128 47.669922 L 128 47.349609 z M 25.449219 47.544922 C 25.74038 47.537922 26.039358 47.60962 26.25 47.75 C 26.71513 48.06009 26.75 48.96984 26.75 49.5 C 26.75 52 25 50.25 24 50.25 C 23.25 50.25 22.25 52.25 21.75 50.25 C 21.440828 49.01331 22.25 47.5 24 48.5 C 24.5 49.25 24.25 49.25 25 50 C 25 48.75 24.5 48.5 24.5 48.25 C 24.5 47.78125 24.963951 47.555882 25.449219 47.544922 z M 51.449219 47.544922 C 51.74038 47.537922 52.039358 47.60962 52.25 47.75 C 52.71513 48.06009 52.75 48.96984 52.75 49.5 C 52.75 52 51 50.25 50 50.25 C 49.25 50.25 48.25 52.25 47.75 50.25 C 47.440828 49.01331 48.25 47.5 50 48.5 C 50.5 49.25 50.25 49.25 51 50 C 51 48.75 50.5 48.5 50.5 48.25 C 50.5 47.78125 50.963951 47.555882 51.449219 47.544922 z M 76.449219 47.544922 C 76.74038 47.537922 77.039358 47.60962 77.25 47.75 C 77.71513 48.06009 77.75 48.96984 77.75 49.5 C 77.75 52 76 50.25 75 50.25 C 74.25 50.25 73.25 52.25 72.75 50.25 C 72.440828 49.01331 73.25 47.5 75 48.5 C 75.5 49.25 75.25 49.25 76 50 C 76 48.75 75.5 48.5 75.5 48.25 C 75.5 47.78125 75.963951 47.555882 76.449219 47.544922 z M 102.44922 47.544922 C 102.74038 47.537922 103.03936 47.60962 103.25 47.75 C 103.71513 48.06009 103.75 48.96984 103.75 49.5 C 103.75 52 102 50.25 101 50.25 C 100.25 50.25 99.25 52.25 98.75 50.25 C 98.440828 49.01331 99.25 47.5 101 48.5 C 101.5 49.25 101.25 49.25 102 50 C 102 48.75 101.5 48.5 101.5 48.25 C 101.5 47.78125 101.96395 47.555882 102.44922 47.544922 z M 24.25 50.5 L 25 51 C 25.132859 51.0664 25.264667 51.128347 25.396484 51.185547 L 24.666016 52.5 L 24.572266 52.5 L 23.542969 51.060547 C 23.951361 50.794557 24.25 50.5 24.25 50.5 z M 50.25 50.5 L 51 51 C 51.132859 51.0664 51.264667 51.128347 51.396484 51.185547 L 50.666016 52.5 L 50.572266 52.5 L 49.542969 51.060547 C 49.951361 50.794557 50.25 50.5 50.25 50.5 z M 75.25 50.5 L 76 51 C 76.132859 51.0664 76.264667 51.128347 76.396484 51.185547 L 75.666016 52.5 L 75.572266 52.5 L 74.542969 51.060547 C 74.951361 50.794557 75.25 50.5 75.25 50.5 z M 101.25 50.5 L 102 51 C 102.13286 51.0664 102.26467 51.128347 102.39648 51.185547 L 101.66602 52.5 L 101.57227 52.5 L 100.54297 51.060547 C 100.95131 50.794557 101.25 50.5 101.25 50.5 z M 2 54 A 1 0.5 0 0 0 1 54.5 A 1 0.5 0 0 0 2 55 A 1 0.5 0 0 0 3 54.5 A 1 0.5 0 0 0 2 54 z M 27 54 A 1 0.5 0 0 0 26 54.5 A 1 0.5 0 0 0 27 55 A 1 0.5 0 0 0 28 54.5 A 1 0.5 0 0 0 27 54 z M 53 54 A 1 0.5 0 0 0 52 54.5 A 1 0.5 0 0 0 53 55 A 1 0.5 0 0 0 54 54.5 A 1 0.5 0 0 0 53 54 z M 78 54 A 1 0.5 0 0 0 77 54.5 A 1 0.5 0 0 0 78 55 A 1 0.5 0 0 0 79 54.5 A 1 0.5 0 0 0 78 54 z M 104 54 A 1 0.5 0 0 0 103 54.5 A 1 0.5 0 0 0 104 55 A 1 0.5 0 0 0 105 54.5 A 1 0.5 0 0 0 104 54 z M 4.25 54.25 A 0.75 0.375 0 0 0 3.5 54.625 A 0.75 0.375 0 0 0 4.25 55 A 0.75 0.375 0 0 0 5 54.625 A 0.75 0.375 0 0 0 4.25 54.25 z M 29.25 54.25 A 0.75 0.375 0 0 0 28.5 54.625 A 0.75 0.375 0 0 0 29.25 55 A 0.75 0.375 0 0 0 30 54.625 A 0.75 0.375 0 0 0 29.25 54.25 z M 55.25 54.25 A 0.75 0.375 0 0 0 54.5 54.625 A 0.75 0.375 0 0 0 55.25 55 A 0.75 0.375 0 0 0 56 54.625 A 0.75 0.375 0 0 0 55.25 54.25 z M 80.25 54.25 A 0.75 0.375 0 0 0 79.5 54.625 A 0.75 0.375 0 0 0 80.25 55 A 0.75 0.375 0 0 0 81 54.625 A 0.75 0.375 0 0 0 80.25 54.25 z M 106.25 54.25 A 0.75 0.375 0 0 0 105.5 54.625 A 0.75 0.375 0 0 0 106.25 55 A 0.75 0.375 0 0 0 107 54.625 A 0.75 0.375 0 0 0 106.25 54.25 z M 12.865234 60.169922 C 12.233716 60.156572 11.5625 60.4375 11 61 C 9 60.25 8.25 61.5 8.25 63 C 8.527297 64.66378 9.4201672 64.63616 10.160156 64.28125 L 11 65.75 C 10.9955 66.542 10.95 67.775 10.5 68 L 12.5 68 C 12.133375 67.81669 12.035853 66.961636 12.009766 66.222656 L 12.724609 64.316406 C 13.94718 64.763686 15 64.63376 15 62.75 C 14.859501 61.03213 13.917766 60.192182 12.865234 60.169922 z M 38.865234 60.169922 C 38.233716 60.156572 37.5625 60.4375 37 61 C 35 60.25 34.25 61.5 34.25 63 C 34.527297 64.66378 35.420167 64.63616 36.160156 64.28125 L 37 65.75 C 36.9955 66.542 36.95 67.775 36.5 68 L 38.5 68 C 38.133375 67.81669 38.035853 66.961636 38.009766 66.222656 L 38.724609 64.316406 C 39.94718 64.763686 41 64.63376 41 62.75 C 40.859501 61.03213 39.917766 60.192182 38.865234 60.169922 z M 64.865234 60.169922 C 64.233716 60.156572 63.5625 60.4375 63 61 C 61 60.25 60.25 61.5 60.25 63 C 60.527297 64.66378 61.420167 64.63616 62.160156 64.28125 L 63 65.75 C 62.9955 66.542 62.95 67.775 62.5 68 L 64.5 68 C 64.133375 67.81669 64.035853 66.961636 64.009766 66.222656 L 64.724609 64.316406 C 65.94718 64.763686 67 64.63376 67 62.75 C 66.859501 61.03213 65.917766 60.192182 64.865234 60.169922 z M 89.865234 60.169922 C 89.233716 60.156572 88.5625 60.4375 88 61 C 86 60.25 85.25 61.5 85.25 63 C 85.527297 64.66378 86.420167 64.63616 87.160156 64.28125 L 88 65.75 C 87.9955 66.542 87.95 67.775 87.5 68 L 89.5 68 C 89.133375 67.81669 89.035853 66.961636 89.009766 66.222656 L 89.724609 64.316406 C 90.94718 64.763686 92 64.63376 92 62.75 C 91.859501 61.03213 90.917766 60.192182 89.865234 60.169922 z M 115.86523 60.169922 C 115.23372 60.156572 114.5625 60.4375 114 61 C 112 60.25 111.25 61.5 111.25 63 C 111.5273 64.66378 112.42017 64.63616 113.16016 64.28125 L 114 65.75 C 113.996 66.542 113.95 67.775 113.5 68 L 115.5 68 C 115.13338 67.81669 115.03585 66.961636 115.00977 66.222656 L 115.72461 64.316406 C 116.94718 64.763686 118 64.63376 118 62.75 C 117.8595 61.03213 116.91777 60.192182 115.86523 60.169922 z M 12.449219 60.544922 C 12.74038 60.537922 13.039358 60.60962 13.25 60.75 C 13.71513 61.06009 13.75 61.96984 13.75 62.5 C 13.75 65 12 63.25 11 63.25 C 10.25 63.25 9.25 65.25 8.75 63.25 C 8.440828 62.01331 9.25 60.5 11 61.5 C 11.5 62.25 11.25 62.25 12 63 C 12 61.75 11.5 61.5 11.5 61.25 C 11.5 60.78125 11.963951 60.555882 12.449219 60.544922 z M 38.449219 60.544922 C 38.74038 60.537922 39.039358 60.60962 39.25 60.75 C 39.71513 61.06009 39.75 61.96984 39.75 62.5 C 39.75 65 38 63.25 37 63.25 C 36.25 63.25 35.25 65.25 34.75 63.25 C 34.440828 62.01331 35.25 60.5 37 61.5 C 37.5 62.25 37.25 62.25 38 63 C 38 61.75 37.5 61.5 37.5 61.25 C 37.5 60.78125 37.963951 60.555882 38.449219 60.544922 z M 64.449219 60.544922 C 64.74038 60.537922 65.039358 60.60962 65.25 60.75 C 65.71513 61.06009 65.75 61.96984 65.75 62.5 C 65.75 65 64 63.25 63 63.25 C 62.25 63.25 61.25 65.25 60.75 63.25 C 60.440828 62.01331 61.25 60.5 63 61.5 C 63.5 62.25 63.25 62.25 64 63 C 64 61.75 63.5 61.5 63.5 61.25 C 63.5 60.78125 63.963951 60.555882 64.449219 60.544922 z M 89.449219 60.544922 C 89.74038 60.537922 90.039358 60.60962 90.25 60.75 C 90.71513 61.06009 90.75 61.96984 90.75 62.5 C 90.75 65 89 63.25 88 63.25 C 87.25 63.25 86.25 65.25 85.75 63.25 C 85.440828 62.01331 86.25 60.5 88 61.5 C 88.5 62.25 88.25 62.25 89 63 C 89 61.75 88.5 61.5 88.5 61.25 C 88.5 60.78125 88.963951 60.555882 89.449219 60.544922 z M 115.44922 60.544922 C 115.74038 60.537922 116.03936 60.60962 116.25 60.75 C 116.71513 61.06009 116.75 61.96984 116.75 62.5 C 116.75 65 115 63.25 114 63.25 C 113.25 63.25 112.25 65.25 111.75 63.25 C 111.44083 62.01331 112.25 60.5 114 61.5 C 114.5 62.25 114.25 62.25 115 63 C 115 61.75 114.5 61.5 114.5 61.25 C 114.5 60.78125 114.96395 60.555882 115.44922 60.544922 z M 11.25 63.5 L 12 64 C 12.132859 64.0664 12.264667 64.128347 12.396484 64.185547 L 11.666016 65.5 L 11.572266 65.5 L 10.542969 64.060547 C 10.951361 63.794557 11.25 63.5 11.25 63.5 z M 37.25 63.5 L 38 64 C 38.132859 64.0664 38.264667 64.128347 38.396484 64.185547 L 37.666016 65.5 L 37.572266 65.5 L 36.542969 64.060547 C 36.951361 63.794557 37.25 63.5 37.25 63.5 z M 63.25 63.5 L 64 64 C 64.132859 64.0664 64.264667 64.128347 64.396484 64.185547 L 63.666016 65.5 L 63.572266 65.5 L 62.542969 64.060547 C 62.951361 63.794557 63.25 63.5 63.25 63.5 z M 88.25 63.5 L 89 64 C 89.132859 64.0664 89.264667 64.128347 89.396484 64.185547 L 88.666016 65.5 L 88.572266 65.5 L 87.542969 64.060547 C 87.951361 63.794557 88.25 63.5 88.25 63.5 z M 114.25 63.5 L 115 64 C 115.13286 64.0664 115.26467 64.128347 115.39648 64.185547 L 114.66602 65.5 L 114.57227 65.5 L 113.54297 64.060547 C 113.95131 63.794557 114.25 63.5 114.25 63.5 z M 14 67 A 1 0.5 0 0 0 13 67.5 A 1 0.5 0 0 0 14 68 A 1 0.5 0 0 0 15 67.5 A 1 0.5 0 0 0 14 67 z M 40 67 A 1 0.5 0 0 0 39 67.5 A 1 0.5 0 0 0 40 68 A 1 0.5 0 0 0 41 67.5 A 1 0.5 0 0 0 40 67 z M 66 67 A 1 0.5 0 0 0 65 67.5 A 1 0.5 0 0 0 66 68 A 1 0.5 0 0 0 67 67.5 A 1 0.5 0 0 0 66 67 z M 91 67 A 1 0.5 0 0 0 90 67.5 A 1 0.5 0 0 0 91 68 A 1 0.5 0 0 0 92 67.5 A 1 0.5 0 0 0 91 67 z M 117 67 A 1 0.5 0 0 0 116 67.5 A 1 0.5 0 0 0 117 68 A 1 0.5 0 0 0 118 67.5 A 1 0.5 0 0 0 117 67 z M 16.25 67.25 A 0.75 0.375 0 0 0 15.5 67.625 A 0.75 0.375 0 0 0 16.25 68 A 0.75 0.375 0 0 0 17 67.625 A 0.75 0.375 0 0 0 16.25 67.25 z M 42.25 67.25 A 0.75 0.375 0 0 0 41.5 67.625 A 0.75 0.375 0 0 0 42.25 68 A 0.75 0.375 0 0 0 43 67.625 A 0.75 0.375 0 0 0 42.25 67.25 z M 68.25 67.25 A 0.75 0.375 0 0 0 67.5 67.625 A 0.75 0.375 0 0 0 68.25 68 A 0.75 0.375 0 0 0 69 67.625 A 0.75 0.375 0 0 0 68.25 67.25 z M 93.25 67.25 A 0.75 0.375 0 0 0 92.5 67.625 A 0.75 0.375 0 0 0 93.25 68 A 0.75 0.375 0 0 0 94 67.625 A 0.75 0.375 0 0 0 93.25 67.25 z M 119.25 67.25 A 0.75 0.375 0 0 0 118.5 67.625 A 0.75 0.375 0 0 0 119.25 68 A 0.75 0.375 0 0 0 120 67.625 A 0.75 0.375 0 0 0 119.25 67.25 z M 0.86523438 72.169922 C 0.58034752 72.163899 0.28741932 72.237024 0 72.349609 L 0 72.669922 C 0.14338665 72.614735 0.28306701 72.548674 0.44921875 72.544922 C 0.74037975 72.537922 1.039358 72.60962 1.25 72.75 C 1.71513 73.06009 1.75 73.96984 1.75 74.5 C 1.75 76.271633 0.86796729 75.90077 0 75.539062 L 0 76 C 0.132859 76.0664 0.26466737 76.128347 0.39648438 76.185547 L 0 76.898438 L 0 80 L 0.5 80 C 0.133375 79.81669 0.035852625 78.961636 0.009765625 78.222656 L 0.72460938 76.316406 C 1.9471804 76.763686 3 76.63376 3 74.75 C 2.859501 73.03213 1.9177664 72.192182 0.86523438 72.169922 z M 25.865234 72.169922 C 25.233716 72.156572 24.5625 72.4375 24 73 C 22 72.25 21.25 73.5 21.25 75 C 21.527297 76.66378 22.420167 76.63616 23.160156 76.28125 L 24 77.75 C 23.9955 78.542 23.95 79.775 23.5 80 L 25.5 80 C 25.133375 79.81669 25.035853 78.961636 25.009766 78.222656 L 25.724609 76.316406 C 26.94718 76.763686 28 76.63376 28 74.75 C 27.859501 73.03213 26.917766 72.192182 25.865234 72.169922 z M 51.865234 72.169922 C 51.233716 72.156572 50.5625 72.4375 50 73 C 48 72.25 47.25 73.5 47.25 75 C 47.527297 76.66378 48.420167 76.63616 49.160156 76.28125 L 50 77.75 C 49.9955 78.542 49.95 79.775 49.5 80 L 51.5 80 C 51.133375 79.81669 51.035853 78.961636 51.009766 78.222656 L 51.724609 76.316406 C 52.94718 76.763686 54 76.63376 54 74.75 C 53.859501 73.03213 52.917766 72.192182 51.865234 72.169922 z M 76.865234 72.169922 C 76.233716 72.156572 75.5625 72.4375 75 73 C 73 72.25 72.25 73.5 72.25 75 C 72.527297 76.66378 73.420167 76.63616 74.160156 76.28125 L 75 77.75 C 74.9955 78.542 74.95 79.775 74.5 80 L 76.5 80 C 76.133375 79.81669 76.035853 78.961636 76.009766 78.222656 L 76.724609 76.316406 C 77.94718 76.763686 79 76.63376 79 74.75 C 78.859501 73.03213 77.917766 72.192182 76.865234 72.169922 z M 102.86523 72.169922 C 102.23372 72.156572 101.5625 72.4375 101 73 C 99 72.25 98.25 73.5 98.25 75 C 98.527297 76.66378 99.420163 76.63616 100.16016 76.28125 L 101 77.75 C 100.996 78.542 100.95 79.775 100.5 80 L 102.5 80 C 102.13338 79.81669 102.03585 78.961636 102.00977 78.222656 L 102.72461 76.316406 C 103.94718 76.763686 105 76.63376 105 74.75 C 104.8595 73.03213 103.91777 72.192182 102.86523 72.169922 z M 128 72.349609 C 127.65029 72.486595 127.30875 72.691252 127 73 C 125 72.25 124.25 73.5 124.25 75 C 124.5273 76.66378 125.42017 76.63616 126.16016 76.28125 L 127 77.75 C 126.996 78.542 126.95 79.775 126.5 80 L 128 80 L 128 76.898438 L 127.66602 77.5 L 127.57227 77.5 L 126.54297 76.060547 C 126.95131 75.794557 127.25 75.5 127.25 75.5 L 128 76 L 128 75.539062 C 127.64315 75.390354 127.29135 75.25 127 75.25 C 126.25 75.25 125.25 77.25 124.75 75.25 C 124.44083 74.01331 125.25 72.5 127 73.5 C 127.5 74.25 127.25 74.25 128 75 C 128 73.75 127.5 73.5 127.5 73.25 C 127.5 72.941746 127.72461 72.775916 128 72.669922 L 128 72.349609 z M 25.449219 72.544922 C 25.74038 72.537922 26.039358 72.60962 26.25 72.75 C 26.71513 73.06009 26.75 73.96984 26.75 74.5 C 26.75 77 25 75.25 24 75.25 C 23.25 75.25 22.25 77.25 21.75 75.25 C 21.440828 74.01331 22.25 72.5 24 73.5 C 24.5 74.25 24.25 74.25 25 75 C 25 73.75 24.5 73.5 24.5 73.25 C 24.5 72.78125 24.963951 72.555882 25.449219 72.544922 z M 51.449219 72.544922 C 51.74038 72.537922 52.039358 72.60962 52.25 72.75 C 52.71513 73.06009 52.75 73.96984 52.75 74.5 C 52.75 77 51 75.25 50 75.25 C 49.25 75.25 48.25 77.25 47.75 75.25 C 47.440828 74.01331 48.25 72.5 50 73.5 C 50.5 74.25 50.25 74.25 51 75 C 51 73.75 50.5 73.5 50.5 73.25 C 50.5 72.78125 50.963951 72.555882 51.449219 72.544922 z M 76.449219 72.544922 C 76.74038 72.537922 77.039358 72.60962 77.25 72.75 C 77.71513 73.06009 77.75 73.96984 77.75 74.5 C 77.75 77 76 75.25 75 75.25 C 74.25 75.25 73.25 77.25 72.75 75.25 C 72.440828 74.01331 73.25 72.5 75 73.5 C 75.5 74.25 75.25 74.25 76 75 C 76 73.75 75.5 73.5 75.5 73.25 C 75.5 72.78125 75.963951 72.555882 76.449219 72.544922 z M 102.44922 72.544922 C 102.74038 72.537922 103.03936 72.60962 103.25 72.75 C 103.71513 73.06009 103.75 73.96984 103.75 74.5 C 103.75 77 102 75.25 101 75.25 C 100.25 75.25 99.25 77.25 98.75 75.25 C 98.440828 74.01331 99.25 72.5 101 73.5 C 101.5 74.25 101.25 74.25 102 75 C 102 73.75 101.5 73.5 101.5 73.25 C 101.5 72.78125 101.96395 72.555882 102.44922 72.544922 z M 24.25 75.5 L 25 76 C 25.132859 76.0664 25.264667 76.128347 25.396484 76.185547 L 24.666016 77.5 L 24.572266 77.5 L 23.542969 76.060547 C 23.951361 75.794557 24.25 75.5 24.25 75.5 z M 50.25 75.5 L 51 76 C 51.132859 76.0664 51.264667 76.128347 51.396484 76.185547 L 50.666016 77.5 L 50.572266 77.5 L 49.542969 76.060547 C 49.951361 75.794557 50.25 75.5 50.25 75.5 z M 75.25 75.5 L 76 76 C 76.132859 76.0664 76.264667 76.128347 76.396484 76.185547 L 75.666016 77.5 L 75.572266 77.5 L 74.542969 76.060547 C 74.951361 75.794557 75.25 75.5 75.25 75.5 z M 101.25 75.5 L 102 76 C 102.13286 76.0664 102.26467 76.128347 102.39648 76.185547 L 101.66602 77.5 L 101.57227 77.5 L 100.54297 76.060547 C 100.95131 75.794557 101.25 75.5 101.25 75.5 z M 2 79 A 1 0.5 0 0 0 1 79.5 A 1 0.5 0 0 0 2 80 A 1 0.5 0 0 0 3 79.5 A 1 0.5 0 0 0 2 79 z M 27 79 A 1 0.5 0 0 0 26 79.5 A 1 0.5 0 0 0 27 80 A 1 0.5 0 0 0 28 79.5 A 1 0.5 0 0 0 27 79 z M 53 79 A 1 0.5 0 0 0 52 79.5 A 1 0.5 0 0 0 53 80 A 1 0.5 0 0 0 54 79.5 A 1 0.5 0 0 0 53 79 z M 78 79 A 1 0.5 0 0 0 77 79.5 A 1 0.5 0 0 0 78 80 A 1 0.5 0 0 0 79 79.5 A 1 0.5 0 0 0 78 79 z M 104 79 A 1 0.5 0 0 0 103 79.5 A 1 0.5 0 0 0 104 80 A 1 0.5 0 0 0 105 79.5 A 1 0.5 0 0 0 104 79 z M 4.25 79.25 A 0.75 0.375 0 0 0 3.5 79.625 A 0.75 0.375 0 0 0 4.25 80 A 0.75 0.375 0 0 0 5 79.625 A 0.75 0.375 0 0 0 4.25 79.25 z M 29.25 79.25 A 0.75 0.375 0 0 0 28.5 79.625 A 0.75 0.375 0 0 0 29.25 80 A 0.75 0.375 0 0 0 30 79.625 A 0.75 0.375 0 0 0 29.25 79.25 z M 55.25 79.25 A 0.75 0.375 0 0 0 54.5 79.625 A 0.75 0.375 0 0 0 55.25 80 A 0.75 0.375 0 0 0 56 79.625 A 0.75 0.375 0 0 0 55.25 79.25 z M 80.25 79.25 A 0.75 0.375 0 0 0 79.5 79.625 A 0.75 0.375 0 0 0 80.25 80 A 0.75 0.375 0 0 0 81 79.625 A 0.75 0.375 0 0 0 80.25 79.25 z M 106.25 79.25 A 0.75 0.375 0 0 0 105.5 79.625 A 0.75 0.375 0 0 0 106.25 80 A 0.75 0.375 0 0 0 107 79.625 A 0.75 0.375 0 0 0 106.25 79.25 z M 12.865234 85.169922 C 12.233716 85.156572 11.5625 85.4375 11 86 C 9 85.25 8.25 86.5 8.25 88 C 8.527297 89.66378 9.4201672 89.63616 10.160156 89.28125 L 11 90.75 C 10.9955 91.542 10.95 92.775 10.5 93 L 12.5 93 C 12.133375 92.81669 12.035853 91.961636 12.009766 91.222656 L 12.724609 89.316406 C 13.94718 89.763686 15 89.63376 15 87.75 C 14.859501 86.03213 13.917766 85.192182 12.865234 85.169922 z M 38.865234 85.169922 C 38.233716 85.156572 37.5625 85.4375 37 86 C 35 85.25 34.25 86.5 34.25 88 C 34.527297 89.66378 35.420167 89.63616 36.160156 89.28125 L 37 90.75 C 36.9955 91.542 36.95 92.775 36.5 93 L 38.5 93 C 38.133375 92.81669 38.035853 91.961636 38.009766 91.222656 L 38.724609 89.316406 C 39.94718 89.763686 41 89.63376 41 87.75 C 40.859501 86.03213 39.917766 85.192182 38.865234 85.169922 z M 64.865234 85.169922 C 64.233716 85.156572 63.5625 85.4375 63 86 C 61 85.25 60.25 86.5 60.25 88 C 60.527297 89.66378 61.420167 89.63616 62.160156 89.28125 L 63 90.75 C 62.9955 91.542 62.95 92.775 62.5 93 L 64.5 93 C 64.133375 92.81669 64.035853 91.961636 64.009766 91.222656 L 64.724609 89.316406 C 65.94718 89.763686 67 89.63376 67 87.75 C 66.859501 86.03213 65.917766 85.192182 64.865234 85.169922 z M 89.865234 85.169922 C 89.233716 85.156572 88.5625 85.4375 88 86 C 86 85.25 85.25 86.5 85.25 88 C 85.527297 89.66378 86.420167 89.63616 87.160156 89.28125 L 88 90.75 C 87.9955 91.542 87.95 92.775 87.5 93 L 89.5 93 C 89.133375 92.81669 89.035853 91.961636 89.009766 91.222656 L 89.724609 89.316406 C 90.94718 89.763686 92 89.63376 92 87.75 C 91.859501 86.03213 90.917766 85.192182 89.865234 85.169922 z M 115.86523 85.169922 C 115.23372 85.156572 114.5625 85.4375 114 86 C 112 85.25 111.25 86.5 111.25 88 C 111.5273 89.66378 112.42017 89.63616 113.16016 89.28125 L 114 90.75 C 113.996 91.542 113.95 92.775 113.5 93 L 115.5 93 C 115.13338 92.81669 115.03585 91.961636 115.00977 91.222656 L 115.72461 89.316406 C 116.94718 89.763686 118 89.63376 118 87.75 C 117.8595 86.03213 116.91777 85.192182 115.86523 85.169922 z M 12.449219 85.544922 C 12.74038 85.537922 13.039358 85.60962 13.25 85.75 C 13.71513 86.06009 13.75 86.96984 13.75 87.5 C 13.75 90 12 88.25 11 88.25 C 10.25 88.25 9.25 90.25 8.75 88.25 C 8.440828 87.01331 9.25 85.5 11 86.5 C 11.5 87.25 11.25 87.25 12 88 C 12 86.75 11.5 86.5 11.5 86.25 C 11.5 85.78125 11.963951 85.555882 12.449219 85.544922 z M 38.449219 85.544922 C 38.74038 85.537922 39.039358 85.60962 39.25 85.75 C 39.71513 86.06009 39.75 86.96984 39.75 87.5 C 39.75 90 38 88.25 37 88.25 C 36.25 88.25 35.25 90.25 34.75 88.25 C 34.440828 87.01331 35.25 85.5 37 86.5 C 37.5 87.25 37.25 87.25 38 88 C 38 86.75 37.5 86.5 37.5 86.25 C 37.5 85.78125 37.963951 85.555882 38.449219 85.544922 z M 64.449219 85.544922 C 64.74038 85.537922 65.039358 85.60962 65.25 85.75 C 65.71513 86.06009 65.75 86.96984 65.75 87.5 C 65.75 90 64 88.25 63 88.25 C 62.25 88.25 61.25 90.25 60.75 88.25 C 60.440828 87.01331 61.25 85.5 63 86.5 C 63.5 87.25 63.25 87.25 64 88 C 64 86.75 63.5 86.5 63.5 86.25 C 63.5 85.78125 63.963951 85.555882 64.449219 85.544922 z M 89.449219 85.544922 C 89.74038 85.537922 90.039358 85.60962 90.25 85.75 C 90.71513 86.06009 90.75 86.96984 90.75 87.5 C 90.75 90 89 88.25 88 88.25 C 87.25 88.25 86.25 90.25 85.75 88.25 C 85.440828 87.01331 86.25 85.5 88 86.5 C 88.5 87.25 88.25 87.25 89 88 C 89 86.75 88.5 86.5 88.5 86.25 C 88.5 85.78125 88.963951 85.555882 89.449219 85.544922 z M 115.44922 85.544922 C 115.74038 85.537922 116.03936 85.60962 116.25 85.75 C 116.71513 86.06009 116.75 86.96984 116.75 87.5 C 116.75 90 115 88.25 114 88.25 C 113.25 88.25 112.25 90.25 111.75 88.25 C 111.44083 87.01331 112.25 85.5 114 86.5 C 114.5 87.25 114.25 87.25 115 88 C 115 86.75 114.5 86.5 114.5 86.25 C 114.5 85.78125 114.96395 85.555882 115.44922 85.544922 z M 11.25 88.5 L 12 89 C 12.132859 89.0664 12.264667 89.128347 12.396484 89.185547 L 11.666016 90.5 L 11.572266 90.5 L 10.542969 89.060547 C 10.951361 88.794557 11.25 88.5 11.25 88.5 z M 37.25 88.5 L 38 89 C 38.132859 89.0664 38.264667 89.128347 38.396484 89.185547 L 37.666016 90.5 L 37.572266 90.5 L 36.542969 89.060547 C 36.951361 88.794557 37.25 88.5 37.25 88.5 z M 63.25 88.5 L 64 89 C 64.132859 89.0664 64.264667 89.128347 64.396484 89.185547 L 63.666016 90.5 L 63.572266 90.5 L 62.542969 89.060547 C 62.951361 88.794557 63.25 88.5 63.25 88.5 z M 88.25 88.5 L 89 89 C 89.132859 89.0664 89.264667 89.128347 89.396484 89.185547 L 88.666016 90.5 L 88.572266 90.5 L 87.542969 89.060547 C 87.951361 88.794557 88.25 88.5 88.25 88.5 z M 114.25 88.5 L 115 89 C 115.13286 89.0664 115.26467 89.128347 115.39648 89.185547 L 114.66602 90.5 L 114.57227 90.5 L 113.54297 89.060547 C 113.95131 88.794557 114.25 88.5 114.25 88.5 z M 14 92 A 1 0.5 0 0 0 13 92.5 A 1 0.5 0 0 0 14 93 A 1 0.5 0 0 0 15 92.5 A 1 0.5 0 0 0 14 92 z M 40 92 A 1 0.5 0 0 0 39 92.5 A 1 0.5 0 0 0 40 93 A 1 0.5 0 0 0 41 92.5 A 1 0.5 0 0 0 40 92 z M 66 92 A 1 0.5 0 0 0 65 92.5 A 1 0.5 0 0 0 66 93 A 1 0.5 0 0 0 67 92.5 A 1 0.5 0 0 0 66 92 z M 91 92 A 1 0.5 0 0 0 90 92.5 A 1 0.5 0 0 0 91 93 A 1 0.5 0 0 0 92 92.5 A 1 0.5 0 0 0 91 92 z M 117 92 A 1 0.5 0 0 0 116 92.5 A 1 0.5 0 0 0 117 93 A 1 0.5 0 0 0 118 92.5 A 1 0.5 0 0 0 117 92 z M 16.25 92.25 A 0.75 0.375 0 0 0 15.5 92.625 A 0.75 0.375 0 0 0 16.25 93 A 0.75 0.375 0 0 0 17 92.625 A 0.75 0.375 0 0 0 16.25 92.25 z M 42.25 92.25 A 0.75 0.375 0 0 0 41.5 92.625 A 0.75 0.375 0 0 0 42.25 93 A 0.75 0.375 0 0 0 43 92.625 A 0.75 0.375 0 0 0 42.25 92.25 z M 68.25 92.25 A 0.75 0.375 0 0 0 67.5 92.625 A 0.75 0.375 0 0 0 68.25 93 A 0.75 0.375 0 0 0 69 92.625 A 0.75 0.375 0 0 0 68.25 92.25 z M 93.25 92.25 A 0.75 0.375 0 0 0 92.5 92.625 A 0.75 0.375 0 0 0 93.25 93 A 0.75 0.375 0 0 0 94 92.625 A 0.75 0.375 0 0 0 93.25 92.25 z M 119.25 92.25 A 0.75 0.375 0 0 0 118.5 92.625 A 0.75 0.375 0 0 0 119.25 93 A 0.75 0.375 0 0 0 120 92.625 A 0.75 0.375 0 0 0 119.25 92.25 z M 0.86523438 98.169922 C 0.58034752 98.163899 0.28741932 98.237024 0 98.349609 L 0 98.669922 C 0.14338665 98.614735 0.28306701 98.548674 0.44921875 98.544922 C 0.74037975 98.537922 1.039358 98.60962 1.25 98.75 C 1.71513 99.06009 1.75 99.96984 1.75 100.5 C 1.75 102.27163 0.86796729 101.90077 0 101.53906 L 0 102 C 0.132859 102.0664 0.26466737 102.12835 0.39648438 102.18555 L 0 102.89844 L 0 106 L 0.5 106 C 0.133375 105.81669 0.035852625 104.96164 0.009765625 104.22266 L 0.72460938 102.31641 C 1.9471804 102.76369 3 102.63376 3 100.75 C 2.859501 99.03213 1.9177664 98.192182 0.86523438 98.169922 z M 25.865234 98.169922 C 25.233716 98.156572 24.5625 98.4375 24 99 C 22 98.25 21.25 99.5 21.25 101 C 21.527297 102.66378 22.420167 102.63616 23.160156 102.28125 L 24 103.75 C 23.9955 104.542 23.95 105.775 23.5 106 L 25.5 106 C 25.133375 105.81669 25.035853 104.96164 25.009766 104.22266 L 25.724609 102.31641 C 26.94718 102.76369 28 102.63376 28 100.75 C 27.859501 99.03213 26.917766 98.192182 25.865234 98.169922 z M 51.865234 98.169922 C 51.233716 98.156572 50.5625 98.4375 50 99 C 48 98.25 47.25 99.5 47.25 101 C 47.527297 102.66378 48.420167 102.63616 49.160156 102.28125 L 50 103.75 C 49.9955 104.542 49.95 105.775 49.5 106 L 51.5 106 C 51.133375 105.81669 51.035853 104.96164 51.009766 104.22266 L 51.724609 102.31641 C 52.94718 102.76369 54 102.63376 54 100.75 C 53.859501 99.03213 52.917766 98.192182 51.865234 98.169922 z M 76.865234 98.169922 C 76.233716 98.156572 75.5625 98.4375 75 99 C 73 98.25 72.25 99.5 72.25 101 C 72.527297 102.66378 73.420167 102.63616 74.160156 102.28125 L 75 103.75 C 74.9955 104.542 74.95 105.775 74.5 106 L 76.5 106 C 76.133375 105.81669 76.035853 104.96164 76.009766 104.22266 L 76.724609 102.31641 C 77.94718 102.76369 79 102.63376 79 100.75 C 78.859501 99.03213 77.917766 98.192182 76.865234 98.169922 z M 102.86523 98.169922 C 102.23372 98.156572 101.5625 98.4375 101 99 C 99 98.25 98.25 99.5 98.25 101 C 98.527297 102.66378 99.420163 102.63616 100.16016 102.28125 L 101 103.75 C 100.996 104.542 100.95 105.775 100.5 106 L 102.5 106 C 102.13338 105.81669 102.03585 104.96164 102.00977 104.22266 L 102.72461 102.31641 C 103.94718 102.76369 105 102.63376 105 100.75 C 104.8595 99.03213 103.91777 98.192182 102.86523 98.169922 z M 128 98.349609 C 127.65029 98.486595 127.30875 98.691252 127 99 C 125 98.25 124.25 99.5 124.25 101 C 124.5273 102.66378 125.42017 102.63616 126.16016 102.28125 L 127 103.75 C 126.996 104.542 126.95 105.775 126.5 106 L 128 106 L 128 102.89844 L 127.66602 103.5 L 127.57227 103.5 L 126.54297 102.06055 C 126.95131 101.79456 127.25 101.5 127.25 101.5 L 128 102 L 128 101.53906 C 127.64315 101.39035 127.29135 101.25 127 101.25 C 126.25 101.25 125.25 103.25 124.75 101.25 C 124.44083 100.01331 125.25 98.5 127 99.5 C 127.5 100.25 127.25 100.25 128 101 C 128 99.75 127.5 99.5 127.5 99.25 C 127.5 98.941746 127.72461 98.775916 128 98.669922 L 128 98.349609 z M 25.449219 98.544922 C 25.74038 98.537922 26.039358 98.60962 26.25 98.75 C 26.71513 99.06009 26.75 99.96984 26.75 100.5 C 26.75 103 25 101.25 24 101.25 C 23.25 101.25 22.25 103.25 21.75 101.25 C 21.440828 100.01331 22.25 98.5 24 99.5 C 24.5 100.25 24.25 100.25 25 101 C 25 99.75 24.5 99.5 24.5 99.25 C 24.5 98.78125 24.963951 98.555882 25.449219 98.544922 z M 51.449219 98.544922 C 51.74038 98.537922 52.039358 98.60962 52.25 98.75 C 52.71513 99.06009 52.75 99.96984 52.75 100.5 C 52.75 103 51 101.25 50 101.25 C 49.25 101.25 48.25 103.25 47.75 101.25 C 47.440828 100.01331 48.25 98.5 50 99.5 C 50.5 100.25 50.25 100.25 51 101 C 51 99.75 50.5 99.5 50.5 99.25 C 50.5 98.78125 50.963951 98.555882 51.449219 98.544922 z M 76.449219 98.544922 C 76.74038 98.537922 77.039358 98.60962 77.25 98.75 C 77.71513 99.06009 77.75 99.96984 77.75 100.5 C 77.75 103 76 101.25 75 101.25 C 74.25 101.25 73.25 103.25 72.75 101.25 C 72.440828 100.01331 73.25 98.5 75 99.5 C 75.5 100.25 75.25 100.25 76 101 C 76 99.75 75.5 99.5 75.5 99.25 C 75.5 98.78125 75.963951 98.555882 76.449219 98.544922 z M 102.44922 98.544922 C 102.74038 98.537922 103.03936 98.60962 103.25 98.75 C 103.71513 99.06009 103.75 99.96984 103.75 100.5 C 103.75 103 102 101.25 101 101.25 C 100.25 101.25 99.25 103.25 98.75 101.25 C 98.440828 100.01331 99.25 98.5 101 99.5 C 101.5 100.25 101.25 100.25 102 101 C 102 99.75 101.5 99.5 101.5 99.25 C 101.5 98.78125 101.96395 98.555882 102.44922 98.544922 z M 24.25 101.5 L 25 102 C 25.132859 102.0664 25.264667 102.12835 25.396484 102.18555 L 24.666016 103.5 L 24.572266 103.5 L 23.542969 102.06055 C 23.951361 101.79456 24.25 101.5 24.25 101.5 z M 50.25 101.5 L 51 102 C 51.132859 102.0664 51.264667 102.12835 51.396484 102.18555 L 50.666016 103.5 L 50.572266 103.5 L 49.542969 102.06055 C 49.951361 101.79456 50.25 101.5 50.25 101.5 z M 75.25 101.5 L 76 102 C 76.132859 102.0664 76.264667 102.12835 76.396484 102.18555 L 75.666016 103.5 L 75.572266 103.5 L 74.542969 102.06055 C 74.951361 101.79456 75.25 101.5 75.25 101.5 z M 101.25 101.5 L 102 102 C 102.13286 102.0664 102.26467 102.12835 102.39648 102.18555 L 101.66602 103.5 L 101.57227 103.5 L 100.54297 102.06055 C 100.95131 101.79456 101.25 101.5 101.25 101.5 z M 2 105 A 1 0.5 0 0 0 1 105.5 A 1 0.5 0 0 0 2 106 A 1 0.5 0 0 0 3 105.5 A 1 0.5 0 0 0 2 105 z M 27 105 A 1 0.5 0 0 0 26 105.5 A 1 0.5 0 0 0 27 106 A 1 0.5 0 0 0 28 105.5 A 1 0.5 0 0 0 27 105 z M 53 105 A 1 0.5 0 0 0 52 105.5 A 1 0.5 0 0 0 53 106 A 1 0.5 0 0 0 54 105.5 A 1 0.5 0 0 0 53 105 z M 78 105 A 1 0.5 0 0 0 77 105.5 A 1 0.5 0 0 0 78 106 A 1 0.5 0 0 0 79 105.5 A 1 0.5 0 0 0 78 105 z M 104 105 A 1 0.5 0 0 0 103 105.5 A 1 0.5 0 0 0 104 106 A 1 0.5 0 0 0 105 105.5 A 1 0.5 0 0 0 104 105 z M 4.25 105.25 A 0.75 0.375 0 0 0 3.5 105.625 A 0.75 0.375 0 0 0 4.25 106 A 0.75 0.375 0 0 0 5 105.625 A 0.75 0.375 0 0 0 4.25 105.25 z M 29.25 105.25 A 0.75 0.375 0 0 0 28.5 105.625 A 0.75 0.375 0 0 0 29.25 106 A 0.75 0.375 0 0 0 30 105.625 A 0.75 0.375 0 0 0 29.25 105.25 z M 55.25 105.25 A 0.75 0.375 0 0 0 54.5 105.625 A 0.75 0.375 0 0 0 55.25 106 A 0.75 0.375 0 0 0 56 105.625 A 0.75 0.375 0 0 0 55.25 105.25 z M 80.25 105.25 A 0.75 0.375 0 0 0 79.5 105.625 A 0.75 0.375 0 0 0 80.25 106 A 0.75 0.375 0 0 0 81 105.625 A 0.75 0.375 0 0 0 80.25 105.25 z M 106.25 105.25 A 0.75 0.375 0 0 0 105.5 105.625 A 0.75 0.375 0 0 0 106.25 106 A 0.75 0.375 0 0 0 107 105.625 A 0.75 0.375 0 0 0 106.25 105.25 z M 12.865234 111.16992 C 12.233716 111.15657 11.5625 111.4375 11 112 C 9 111.25 8.25 112.5 8.25 114 C 8.527297 115.66378 9.4201672 115.63616 10.160156 115.28125 L 11 116.75 C 10.9955 117.542 10.95 118.775 10.5 119 L 12.5 119 C 12.133375 118.81669 12.035853 117.96164 12.009766 117.22266 L 12.724609 115.31641 C 13.94718 115.76369 15 115.63376 15 113.75 C 14.859501 112.03213 13.917766 111.19218 12.865234 111.16992 z M 38.865234 111.16992 C 38.233716 111.15657 37.5625 111.4375 37 112 C 35 111.25 34.25 112.5 34.25 114 C 34.527297 115.66378 35.420167 115.63616 36.160156 115.28125 L 37 116.75 C 36.9955 117.542 36.95 118.775 36.5 119 L 38.5 119 C 38.133375 118.81669 38.035853 117.96164 38.009766 117.22266 L 38.724609 115.31641 C 39.94718 115.76369 41 115.63376 41 113.75 C 40.859501 112.03213 39.917766 111.19218 38.865234 111.16992 z M 64.865234 111.16992 C 64.233716 111.15657 63.5625 111.4375 63 112 C 61 111.25 60.25 112.5 60.25 114 C 60.527297 115.66378 61.420167 115.63616 62.160156 115.28125 L 63 116.75 C 62.9955 117.542 62.95 118.775 62.5 119 L 64.5 119 C 64.133375 118.81669 64.035853 117.96164 64.009766 117.22266 L 64.724609 115.31641 C 65.94718 115.76369 67 115.63376 67 113.75 C 66.859501 112.03213 65.917766 111.19218 64.865234 111.16992 z M 89.865234 111.16992 C 89.233716 111.15657 88.5625 111.4375 88 112 C 86 111.25 85.25 112.5 85.25 114 C 85.527297 115.66378 86.420167 115.63616 87.160156 115.28125 L 88 116.75 C 87.9955 117.542 87.95 118.775 87.5 119 L 89.5 119 C 89.133375 118.81669 89.035853 117.96164 89.009766 117.22266 L 89.724609 115.31641 C 90.94718 115.76369 92 115.63376 92 113.75 C 91.859501 112.03213 90.917766 111.19218 89.865234 111.16992 z M 115.86523 111.16992 C 115.23372 111.15657 114.5625 111.4375 114 112 C 112 111.25 111.25 112.5 111.25 114 C 111.5273 115.66378 112.42017 115.63616 113.16016 115.28125 L 114 116.75 C 113.996 117.542 113.95 118.775 113.5 119 L 115.5 119 C 115.13338 118.81669 115.03585 117.96164 115.00977 117.22266 L 115.72461 115.31641 C 116.94718 115.76369 118 115.63376 118 113.75 C 117.8595 112.03213 116.91777 111.19218 115.86523 111.16992 z M 12.449219 111.54492 C 12.74038 111.53792 13.039358 111.60962 13.25 111.75 C 13.71513 112.06009 13.75 112.96984 13.75 113.5 C 13.75 116 12 114.25 11 114.25 C 10.25 114.25 9.25 116.25 8.75 114.25 C 8.440828 113.01331 9.25 111.5 11 112.5 C 11.5 113.25 11.25 113.25 12 114 C 12 112.75 11.5 112.5 11.5 112.25 C 11.5 111.78125 11.963951 111.55588 12.449219 111.54492 z M 38.449219 111.54492 C 38.74038 111.53792 39.039358 111.60962 39.25 111.75 C 39.71513 112.06009 39.75 112.96984 39.75 113.5 C 39.75 116 38 114.25 37 114.25 C 36.25 114.25 35.25 116.25 34.75 114.25 C 34.440828 113.01331 35.25 111.5 37 112.5 C 37.5 113.25 37.25 113.25 38 114 C 38 112.75 37.5 112.5 37.5 112.25 C 37.5 111.78125 37.963951 111.55588 38.449219 111.54492 z M 64.449219 111.54492 C 64.74038 111.53792 65.039358 111.60962 65.25 111.75 C 65.71513 112.06009 65.75 112.96984 65.75 113.5 C 65.75 116 64 114.25 63 114.25 C 62.25 114.25 61.25 116.25 60.75 114.25 C 60.440828 113.01331 61.25 111.5 63 112.5 C 63.5 113.25 63.25 113.25 64 114 C 64 112.75 63.5 112.5 63.5 112.25 C 63.5 111.78125 63.963951 111.55588 64.449219 111.54492 z M 89.449219 111.54492 C 89.74038 111.53792 90.039358 111.60962 90.25 111.75 C 90.71513 112.06009 90.75 112.96984 90.75 113.5 C 90.75 116 89 114.25 88 114.25 C 87.25 114.25 86.25 116.25 85.75 114.25 C 85.440828 113.01331 86.25 111.5 88 112.5 C 88.5 113.25 88.25 113.25 89 114 C 89 112.75 88.5 112.5 88.5 112.25 C 88.5 111.78125 88.963951 111.55588 89.449219 111.54492 z M 115.44922 111.54492 C 115.74038 111.53792 116.03936 111.60962 116.25 111.75 C 116.71513 112.06009 116.75 112.96984 116.75 113.5 C 116.75 116 115 114.25 114 114.25 C 113.25 114.25 112.25 116.25 111.75 114.25 C 111.44083 113.01331 112.25 111.5 114 112.5 C 114.5 113.25 114.25 113.25 115 114 C 115 112.75 114.5 112.5 114.5 112.25 C 114.5 111.78125 114.96395 111.55588 115.44922 111.54492 z M 11.25 114.5 L 12 115 C 12.132859 115.0664 12.264667 115.12835 12.396484 115.18555 L 11.666016 116.5 L 11.572266 116.5 L 10.542969 115.06055 C 10.951361 114.79456 11.25 114.5 11.25 114.5 z M 37.25 114.5 L 38 115 C 38.132859 115.0664 38.264667 115.12835 38.396484 115.18555 L 37.666016 116.5 L 37.572266 116.5 L 36.542969 115.06055 C 36.951361 114.79456 37.25 114.5 37.25 114.5 z M 63.25 114.5 L 64 115 C 64.132859 115.0664 64.264667 115.12835 64.396484 115.18555 L 63.666016 116.5 L 63.572266 116.5 L 62.542969 115.06055 C 62.951361 114.79456 63.25 114.5 63.25 114.5 z M 88.25 114.5 L 89 115 C 89.132859 115.0664 89.264667 115.12835 89.396484 115.18555 L 88.666016 116.5 L 88.572266 116.5 L 87.542969 115.06055 C 87.951361 114.79456 88.25 114.5 88.25 114.5 z M 114.25 114.5 L 115 115 C 115.13286 115.0664 115.26467 115.12835 115.39648 115.18555 L 114.66602 116.5 L 114.57227 116.5 L 113.54297 115.06055 C 113.95131 114.79456 114.25 114.5 114.25 114.5 z M 14 118 A 1 0.5 0 0 0 13 118.5 A 1 0.5 0 0 0 14 119 A 1 0.5 0 0 0 15 118.5 A 1 0.5 0 0 0 14 118 z M 40 118 A 1 0.5 0 0 0 39 118.5 A 1 0.5 0 0 0 40 119 A 1 0.5 0 0 0 41 118.5 A 1 0.5 0 0 0 40 118 z M 66 118 A 1 0.5 0 0 0 65 118.5 A 1 0.5 0 0 0 66 119 A 1 0.5 0 0 0 67 118.5 A 1 0.5 0 0 0 66 118 z M 91 118 A 1 0.5 0 0 0 90 118.5 A 1 0.5 0 0 0 91 119 A 1 0.5 0 0 0 92 118.5 A 1 0.5 0 0 0 91 118 z M 117 118 A 1 0.5 0 0 0 116 118.5 A 1 0.5 0 0 0 117 119 A 1 0.5 0 0 0 118 118.5 A 1 0.5 0 0 0 117 118 z M 16.25 118.25 A 0.75 0.375 0 0 0 15.5 118.625 A 0.75 0.375 0 0 0 16.25 119 A 0.75 0.375 0 0 0 17 118.625 A 0.75 0.375 0 0 0 16.25 118.25 z M 42.25 118.25 A 0.75 0.375 0 0 0 41.5 118.625 A 0.75 0.375 0 0 0 42.25 119 A 0.75 0.375 0 0 0 43 118.625 A 0.75 0.375 0 0 0 42.25 118.25 z M 68.25 118.25 A 0.75 0.375 0 0 0 67.5 118.625 A 0.75 0.375 0 0 0 68.25 119 A 0.75 0.375 0 0 0 69 118.625 A 0.75 0.375 0 0 0 68.25 118.25 z M 93.25 118.25 A 0.75 0.375 0 0 0 92.5 118.625 A 0.75 0.375 0 0 0 93.25 119 A 0.75 0.375 0 0 0 94 118.625 A 0.75 0.375 0 0 0 93.25 118.25 z M 119.25 118.25 A 0.75 0.375 0 0 0 118.5 118.625 A 0.75 0.375 0 0 0 119.25 119 A 0.75 0.375 0 0 0 120 118.625 A 0.75 0.375 0 0 0 119.25 118.25 z M 0.86523438 124.16992 C 0.58034752 124.1639 0.28741932 124.23702 0 124.34961 L 0 124.66992 C 0.14338665 124.61473 0.28306701 124.54867 0.44921875 124.54492 C 0.74037975 124.53792 1.039358 124.60962 1.25 124.75 C 1.71513 125.06009 1.75 125.96984 1.75 126.5 C 1.75 128.27163 0.86796729 127.90077 0 127.53906 L 0 128 L 2.7226562 128 C 2.8930456 127.7184 3 127.32376 3 126.75 C 2.859501 125.03213 1.9177664 124.19218 0.86523438 124.16992 z M 25.865234 124.16992 C 25.233716 124.15657 24.5625 124.4375 24 125 C 22 124.25 21.25 125.5 21.25 127 C 21.326846 127.46107 21.456288 127.76969 21.611328 128 L 22.121094 128 C 21.981724 127.87536 21.8533 127.6632 21.75 127.25 C 21.440828 126.01331 22.25 124.5 24 125.5 C 24.5 126.25 24.25 126.25 25 127 C 25 125.75 24.5 125.5 24.5 125.25 C 24.5 124.78125 24.963951 124.55588 25.449219 124.54492 C 25.74038 124.53792 26.039358 124.60962 26.25 124.75 C 26.71513 125.06009 26.75 125.96984 26.75 126.5 C 26.75 129 25 127.25 24 127.25 C 23.625 127.25 23.1875 127.75 22.78125 128 L 23.619141 128 C 23.960412 127.76055 24.25 127.5 24.25 127.5 L 25 128 L 27.722656 128 C 27.893046 127.7184 28 127.32376 28 126.75 C 27.859501 125.03213 26.917766 124.19218 25.865234 124.16992 z M 51.865234 124.16992 C 51.233716 124.15657 50.5625 124.4375 50 125 C 48 124.25 47.25 125.5 47.25 127 C 47.326846 127.46107 47.456288 127.76969 47.611328 128 L 48.121094 128 C 47.981724 127.87536 47.8533 127.6632 47.75 127.25 C 47.440828 126.01331 48.25 124.5 50 125.5 C 50.5 126.25 50.25 126.25 51 127 C 51 125.75 50.5 125.5 50.5 125.25 C 50.5 124.78125 50.963951 124.55588 51.449219 124.54492 C 51.74038 124.53792 52.039358 124.60962 52.25 124.75 C 52.71513 125.06009 52.75 125.96984 52.75 126.5 C 52.75 129 51 127.25 50 127.25 C 49.625 127.25 49.1875 127.75 48.78125 128 L 49.619141 128 C 49.960412 127.76055 50.25 127.5 50.25 127.5 L 51 128 L 53.722656 128 C 53.893046 127.7184 54 127.32376 54 126.75 C 53.859501 125.03213 52.917766 124.19218 51.865234 124.16992 z M 76.865234 124.16992 C 76.233716 124.15657 75.5625 124.4375 75 125 C 73 124.25 72.25 125.5 72.25 127 C 72.326846 127.46107 72.456288 127.76969 72.611328 128 L 73.121094 128 C 72.981724 127.87536 72.8533 127.6632 72.75 127.25 C 72.440828 126.01331 73.25 124.5 75 125.5 C 75.5 126.25 75.25 126.25 76 127 C 76 125.75 75.5 125.5 75.5 125.25 C 75.5 124.78125 75.963951 124.55588 76.449219 124.54492 C 76.74038 124.53792 77.039358 124.60962 77.25 124.75 C 77.71513 125.06009 77.75 125.96984 77.75 126.5 C 77.75 129 76 127.25 75 127.25 C 74.625 127.25 74.1875 127.75 73.78125 128 L 74.619141 128 C 74.960412 127.76055 75.25 127.5 75.25 127.5 L 76 128 L 78.722656 128 C 78.893046 127.7184 79 127.32376 79 126.75 C 78.859501 125.03213 77.917766 124.19218 76.865234 124.16992 z M 102.86523 124.16992 C 102.23372 124.15657 101.5625 124.4375 101 125 C 99 124.25 98.25 125.5 98.25 127 C 98.326846 127.46107 98.456288 127.76969 98.611328 128 L 99.121094 128 C 98.981724 127.87536 98.8533 127.6632 98.75 127.25 C 98.440828 126.01331 99.25 124.5 101 125.5 C 101.5 126.25 101.25 126.25 102 127 C 102 125.75 101.5 125.5 101.5 125.25 C 101.5 124.78125 101.96395 124.55588 102.44922 124.54492 C 102.74038 124.53792 103.03936 124.60962 103.25 124.75 C 103.71513 125.06009 103.75 125.96984 103.75 126.5 C 103.75 129 102 127.25 101 127.25 C 100.625 127.25 100.1875 127.75 99.78125 128 L 100.61914 128 C 100.96037 127.76055 101.25 127.5 101.25 127.5 L 102 128 L 104.72266 128 C 104.89305 127.7184 105 127.32376 105 126.75 C 104.8595 125.03213 103.91777 124.19218 102.86523 124.16992 z M 128 124.34961 C 127.65029 124.4866 127.30875 124.69125 127 125 C 125 124.25 124.25 125.5 124.25 127 C 124.31932 127.41594 124.42628 127.72534 124.56055 127.95117 C 124.57511 127.97567 124.59615 127.97746 124.61133 128 L 125.12109 128 C 125.06605 127.95077 125.00903 127.91347 124.95898 127.82422 C 124.88232 127.6875 124.8125 127.5 124.75 127.25 C 124.67271 126.94083 124.66488 126.61461 124.72461 126.31445 C 124.78434 126.0143 124.91232 125.74107 125.10352 125.53711 C 125.29471 125.33315 125.55006 125.19831 125.86719 125.17773 C 126.02575 125.16745 126.19967 125.18637 126.38867 125.23828 C 126.57767 125.29019 126.78125 125.375 127 125.5 C 127.5 126.25 127.25 126.25 128 127 C 128 126.375 127.875 126 127.75 125.75 C 127.625 125.5 127.5 125.375 127.5 125.25 C 127.5 124.94175 127.72461 124.77592 128 124.66992 L 128 124.34961 z M 127 127.25 C 126.625 127.25 126.1875 127.75 125.78125 128 L 126.61914 128 C 126.96037 127.76055 127.25 127.5 127.25 127.5 L 128 128 L 128 127.53906 C 127.94936 127.51796 127.90195 127.50505 127.85156 127.48438 C 127.54688 127.35938 127.25 127.25 127 127.25 z " />
  <rect
     width="128"
     height="128"
     rx="0"
     x="0"
     y="0"
     id="rect8566"
     style="fill:none;fill-opacity:1;stroke:none" />
  <desc
     id="desc265">Created with Snap</desc>
</svg>
