<?xml version="1.0" encoding="UTF-8" standalone="no"?>
<svg
   id="Svg"
   width="32"
   height="31"
   version="1.1"
   xmlns="http://www.w3.org/2000/svg"
   xmlns:svg="http://www.w3.org/2000/svg"
   xmlns:rdf="http://www.w3.org/1999/02/22-rdf-syntax-ns#"
   xmlns:cc="http://creativecommons.org/ns#"
   xmlns:dc="http://purl.org/dc/elements/1.1/">
  <path
     id="path4362"
     style="fill:#8ebd85;fill-opacity:1;stroke:none"
     d="M 0 15 L 0 15.5 L 0 15.822266 L 0.13085938 15.798828 L 0.16992188 15.664062 L 0.30664062 15.53125 L 0.3046875 15.5 L 0.70507812 15.5 L 0.703125 15.509766 L 0.52734375 15.748047 L 0.66796875 16.007812 L 0.67773438 16.146484 L 0.95507812 16.371094 L 1.2421875 16.322266 L 1.2910156 16.474609 L 1.8222656 16.492188 L 2.1210938 16.09375 L 2.0097656 15.894531 L 2.1113281 15.941406 L 2.4941406 15.994141 L 2.5820312 15.771484 L 2.5859375 15.726562 L 2.6816406 15.941406 L 3.1113281 15.851562 L 3.0957031 15.949219 L 3.5664062 16.205078 L 3.9296875 15.853516 L 3.875 15.738281 L 3.9589844 15.785156 L 3.9316406 15.833984 L 3.9628906 16.107422 L 4.2734375 16.253906 L 4.5175781 16.15625 L 4.6894531 15.976562 L 4.6601562 15.863281 L 4.796875 16.082031 L 5.2890625 16.007812 L 5.4707031 15.615234 L 5.4160156 15.5 L 5.6230469 15.5 L 5.6386719 15.521484 L 5.9785156 15.613281 L 6.2128906 15.519531 L 6.2148438 15.5 L 6.3164062 15.5 L 6.3457031 15.71875 L 6.6328125 15.974609 L 6.7636719 15.900391 L 6.765625 15.904297 L 6.8085938 16.179688 L 7.0683594 16.419922 L 7.3183594 16.445312 L 7.4511719 16.224609 L 7.4726562 16.144531 L 7.7304688 16.1875 L 7.9707031 16.035156 L 8.0429688 15.669922 L 7.8320312 15.5 L 8.203125 15.5 L 8.2050781 15.503906 L 8.4199219 15.65625 L 8.6933594 15.658203 L 8.7929688 15.5 L 9.1875 15.5 L 9.0996094 15.544922 L 8.9199219 15.708984 L 8.8769531 16.064453 L 8.71875 15.966797 L 8.2832031 16.111328 L 8.1894531 16.642578 L 8.6523438 16.904297 L 9.1015625 16.691406 L 9.0859375 16.195312 L 9.1621094 16.232422 L 9.5058594 16.154297 L 9.6699219 15.962891 L 9.6386719 15.894531 L 9.6601562 15.914062 L 9.9628906 15.794922 L 10.013672 15.5 L 10.255859 15.5 L 10.263672 15.572266 L 10.259766 15.570312 L 9.9941406 15.757812 L 10.019531 16.080078 L 10.294922 16.304688 L 10.603516 16.253906 L 10.880859 16.09375 L 10.759766 15.748047 L 10.830078 15.71875 L 11.001953 15.539062 L 10.992188 15.5 L 11.013672 15.5 L 11.013672 15.505859 L 11.236328 15.578125 L 11.246094 15.585938 L 11.132812 15.667969 L 11.15625 15.988281 L 11.431641 16.212891 L 11.740234 16.162109 L 12.017578 16.001953 L 11.888672 15.640625 L 11.759766 15.632812 L 11.78125 15.5 L 11.914062 15.5 L 12.164062 15.746094 L 12.335938 15.662109 L 12.365234 15.847656 L 12.625 16.085938 L 12.875 16.111328 L 13.007812 15.892578 L 13.039062 15.773438 L 13.064453 15.8125 L 13.556641 15.738281 L 13.666016 15.5 L 13.865234 15.5 L 13.818359 15.666016 L 14.09375 15.884766 L 13.878906 16.009766 L 13.978516 16.494141 L 14.511719 16.595703 L 14.667969 16.220703 L 14.78125 16.337891 L 15.070312 16.476562 L 15.294922 16.166016 L 15.175781 15.962891 L 15.148438 15.667969 L 15.087891 15.646484 L 15.091797 15.517578 L 15.191406 15.527344 L 15.251953 15.5 L 15.722656 15.5 L 15.560547 15.660156 L 15.375 16 L 15.552734 16.160156 L 15.763672 16.265625 L 15.808594 16.748047 L 16.238281 16.996094 L 16.640625 16.703125 L 16.617188 16.269531 L 16.251953 15.992188 L 16.158203 16.035156 L 16.173828 15.857422 L 15.980469 15.564453 L 15.796875 15.5 L 16.730469 15.5 L 16.724609 15.503906 L 16.697266 15.857422 L 16.914062 16.082031 L 17.203125 16.220703 L 17.427734 15.910156 L 17.388672 15.84375 L 17.761719 15.857422 L 17.861328 15.652344 L 18.154297 15.941406 L 18.630859 15.708984 L 18.664062 15.5 L 18.919922 15.5 L 19.046875 15.583984 L 18.822266 15.6875 L 18.751953 16.064453 L 19.025391 16.269531 L 19.308594 16.248047 L 19.542969 15.957031 L 19.40625 15.644531 L 19.451172 15.646484 L 19.509766 15.5 L 19.703125 15.5 L 19.685547 15.748047 L 20.185547 15.888672 L 20.365234 15.636719 L 20.625 16.041016 L 21.123047 16.0625 L 21.240234 15.818359 L 21.488281 15.800781 L 21.712891 15.621094 L 21.708984 15.550781 L 21.912109 15.865234 L 22.410156 15.884766 L 22.595703 15.5 L 23.097656 15.5 L 22.994141 15.859375 L 23.417969 16.195312 L 23.818359 15.865234 L 23.748047 15.671875 L 23.808594 15.734375 L 24.097656 15.871094 L 24.212891 15.710938 L 24.447266 15.777344 L 24.658203 15.53125 L 24.648438 15.5 L 24.685547 15.5 L 24.796875 15.605469 L 24.984375 15.53125 L 25.001953 15.619141 L 25.208984 15.822266 L 25.585938 15.753906 L 25.660156 15.5 L 26.017578 15.5 L 26.046875 15.775391 L 26.269531 15.847656 L 26.484375 16.050781 L 26.503906 16.042969 L 26.310547 16.210938 L 26.367188 16.548828 L 26.585938 16.695312 L 26.832031 16.732422 L 27.027344 16.503906 L 27.085938 16.169922 L 26.779297 16.001953 L 26.541016 16.029297 L 26.787109 15.931641 L 26.816406 15.757812 L 26.855469 15.880859 L 27.195312 15.9375 L 27.435547 15.785156 L 27.492188 15.5 L 27.884766 15.5 L 27.785156 15.619141 L 27.908203 16.033203 L 28.330078 16.214844 L 28.753906 15.878906 L 28.734375 15.824219 L 28.84375 15.759766 L 29.070312 15.511719 L 29.087891 15.515625 L 29.097656 15.5 L 29.314453 15.5 L 29.369141 15.675781 L 29.707031 15.730469 L 29.757812 15.699219 L 29.833984 15.796875 L 30.148438 15.775391 L 30.248047 15.695312 L 30.337891 15.720703 L 30.472656 15.667969 L 30.484375 15.746094 L 30.867188 15.755859 L 30.966797 15.541016 L 30.998047 15.515625 L 31.042969 15.78125 L 31.261719 15.927734 L 31.505859 15.964844 L 31.664062 15.779297 L 31.753906 15.867188 L 32 15.822266 L 32 15.5 L 32 15 L 31.837891 15 L 30.982422 15 L 30.707031 15 L 30.503906 15 L 30.232422 15 L 29.751953 15 L 29.683594 15 L 29.238281 15 L 28.490234 15 L 26.615234 15 L 25.759766 15 L 25.027344 15 L 24.326172 15 L 23.998047 15 L 22.966797 15 L 22.917969 15 L 21.791016 15 L 19.447266 15 L 18.978516 15 L 18.376953 15 L 18.173828 15 L 17.527344 15 L 17.277344 15 L 16.847656 15 L 15.982422 15 L 15.431641 15 L 14.789062 15 L 13.576172 15 L 12.960938 15 L 12.947266 15 L 12.859375 15 L 12.685547 15 L 11.886719 15 L 11.34375 15 L 10.650391 15 L 10.25 15 L 9.4746094 15 L 8.7148438 15 L 7.5507812 15 L 6.6582031 15 L 5.6289062 15 L 2.4902344 15 L 2.4648438 15 L 1.3671875 15 L 0.70898438 15 L 0.640625 15 L 0 15 z M 1.2460938 15.5 L 1.9335938 15.5 L 1.8730469 15.583984 L 1.875 15.660156 L 1.4453125 15.630859 L 1.2929688 15.789062 L 1.2597656 15.787109 L 1.2460938 15.5 z M 4.4257812 15.5 L 4.5976562 15.5 L 4.546875 15.621094 L 4.4257812 15.5 z M 7.5078125 15.5 L 7.5703125 15.5 L 7.5175781 15.517578 L 7.5078125 15.5 z M 30.779297 15.771484 L 30.457031 15.816406 L 30.328125 16.111328 L 30.46875 16.439453 L 30.765625 16.537109 L 31.083984 16.523438 L 31.138672 16.144531 L 30.939453 16.021484 L 30.779297 15.771484 z M 17.71875 15.951172 L 17.515625 16.097656 L 17.560547 16.351562 L 17.734375 16.697266 L 17.966797 16.640625 L 18.181641 16.523438 L 18.318359 16.164062 L 18.070312 15.958984 L 17.71875 15.951172 z M 22.019531 15.958984 L 21.806641 16.070312 L 21.626953 16.234375 L 21.580078 16.615234 L 21.869141 16.757812 L 22.212891 16.679688 L 22.375 16.488281 L 22.271484 16.253906 L 22.019531 15.958984 z M 5.7832031 15.966797 L 5.3769531 16.316406 L 5.5761719 16.78125 L 6.0703125 16.740234 L 6.234375 16.224609 L 5.7832031 15.966797 z M 24.986328 15.990234 L 24.771484 16.142578 L 24.648438 16.359375 L 24.794922 16.625 L 25.085938 16.796875 L 25.351562 16.570312 L 25.417969 16.316406 L 25.322266 16.058594 L 24.986328 15.990234 z M 29.472656 16.025391 L 29.212891 16.060547 L 29.003906 16.195312 L 29.009766 16.496094 L 29.185547 16.785156 L 29.527344 16.707031 L 29.705078 16.513672 L 29.740234 16.240234 L 29.472656 16.025391 z M 27.445312 16.050781 L 27.226562 16.197266 L 27.126953 16.453125 L 27.333984 16.726562 L 27.595703 16.755859 L 27.830078 16.673828 L 27.896484 16.380859 L 27.794922 16.058594 L 27.445312 16.050781 z M 13.224609 16.169922 L 12.703125 16.291016 L 12.662109 16.794922 L 13.119141 16.986328 L 13.503906 16.607422 L 13.224609 16.169922 z M 0 16.175781 L 0 16.933594 L 0.04296875 16.986328 L 0.56054688 16.828125 L 0.515625 16.310547 L 0 16.175781 z M 31.998047 16.175781 L 31.728516 16.603516 L 32 16.933594 L 32 16.175781 L 31.998047 16.175781 z M 11.316406 16.330078 L 10.857422 16.519531 L 10.773438 16.945312 L 11.0625 17.300781 L 11.59375 17.201172 L 11.673828 16.675781 L 11.316406 16.330078 z M 20.289062 16.333984 L 19.769531 16.445312 L 19.574219 16.904297 L 19.914062 17.265625 L 20.341797 17.191406 L 20.572266 16.794922 L 20.289062 16.333984 z M 25.958984 16.339844 L 25.746094 16.449219 L 25.566406 16.615234 L 25.519531 16.996094 L 25.808594 17.136719 L 26.152344 17.060547 L 26.314453 16.869141 L 26.210938 16.634766 L 25.958984 16.339844 z M 2.9277344 16.341797 L 2.6816406 16.417969 L 2.359375 16.632812 L 2.4433594 16.857422 L 2.5859375 17.054688 L 2.9589844 17.148438 L 3.1347656 16.876953 L 3.0976562 16.527344 L 2.9277344 16.341797 z M 4.453125 16.423828 L 4.3105469 16.779297 L 4.4746094 16.947266 L 4.5703125 17.226562 L 4.8925781 17.261719 L 5.0898438 17.005859 L 5.03125 16.654297 L 4.7675781 16.488281 L 4.453125 16.423828 z M 23.732422 16.558594 L 23.462891 16.896484 L 23.552734 17.345703 L 24.070312 17.503906 L 24.384766 17.076172 L 24.226562 16.603516 L 23.732422 16.558594 z M 1.5410156 16.648438 L 1.2128906 16.744141 L 1.09375 16.978516 L 1.0859375 17.228516 L 1.3378906 17.394531 L 1.6757812 17.412109 L 1.8046875 17.087891 L 1.7460938 16.832031 L 1.5410156 16.648438 z M 30.394531 16.691406 L 30.132812 16.8125 L 30.064453 17.189453 L 30.337891 17.396484 L 30.621094 17.373047 L 30.855469 17.082031 L 30.707031 16.744141 L 30.394531 16.691406 z M 18.513672 16.771484 L 18.226562 16.896484 L 17.996094 17.117188 L 18.205078 17.4375 L 18.4375 17.396484 L 18.722656 17.476562 L 18.933594 17.230469 L 18.833984 16.923828 L 18.513672 16.771484 z M 28.4375 17.298828 L 27.972656 17.574219 L 28.140625 18.066406 L 28.673828 18.074219 L 28.833984 17.59375 L 28.4375 17.298828 z M 12.457031 17.5625 L 12.101562 17.576172 L 11.904297 17.818359 L 11.802734 18.123047 L 12.138672 18.308594 L 12.326172 18.166016 L 12.615234 18.103516 L 12.6875 17.787109 L 12.457031 17.5625 z M 9.5214844 17.609375 L 9.2070312 17.767578 L 9.09375 17.992188 L 9.2519531 18.195312 L 9.5664062 18.419922 L 9.7460938 18.261719 L 9.8828125 18.060547 L 9.8359375 17.677734 L 9.5214844 17.609375 z M 20.736328 17.816406 L 20.25 17.916016 L 20.144531 18.402344 L 20.447266 18.710938 L 20.904297 18.675781 L 21.123047 18.181641 L 20.736328 17.816406 z M 22.318359 18.025391 L 21.951172 18.087891 L 21.837891 18.4375 L 22.035156 18.685547 L 22.310547 18.767578 L 22.613281 18.533203 L 22.544922 18.195312 L 22.318359 18.025391 z M 3.96875 18.048828 L 3.7558594 18.158203 L 3.5761719 18.322266 L 3.5292969 18.705078 L 3.8183594 18.845703 L 4.1621094 18.767578 L 4.3242188 18.576172 L 4.2207031 18.341797 L 3.96875 18.048828 z M 25.693359 18.382812 L 25.363281 18.480469 L 25.246094 18.714844 L 25.238281 18.962891 L 25.490234 19.128906 L 25.826172 19.146484 L 25.957031 18.822266 L 25.896484 18.566406 L 25.693359 18.382812 z M 6.9667969 18.443359 L 6.7050781 18.470703 L 6.4980469 18.652344 L 6.5546875 18.990234 L 6.7734375 19.136719 L 7.0195312 19.173828 L 7.2148438 18.943359 L 7.2734375 18.611328 L 6.9667969 18.443359 z M 14.724609 18.474609 L 14.458984 18.662109 L 14.482422 18.984375 L 14.757812 19.208984 L 15.066406 19.158203 L 15.34375 18.998047 L 15.216797 18.636719 L 14.982422 18.619141 L 14.724609 18.474609 z M 30.648438 18.673828 L 30.396484 18.875 L 30.369141 19.228516 L 30.585938 19.453125 L 30.875 19.591797 L 31.099609 19.28125 L 30.980469 19.078125 L 30.953125 18.783203 L 30.648438 18.673828 z M 17.441406 18.800781 L 17.091797 18.958984 L 17.076172 19.300781 L 17.255859 19.521484 L 17.626953 19.548828 L 17.822266 19.234375 L 17.689453 18.949219 L 17.441406 18.800781 z M 1.8261719 19.337891 L 1.515625 19.423828 L 1.3105469 19.708984 L 1.3164062 19.960938 L 1.5488281 20.066406 L 1.9316406 20.119141 L 2.0195312 19.896484 L 2.0449219 19.654297 L 1.8261719 19.337891 z M 23.308594 20.125 L 23.009766 20.167969 L 22.744141 20.376953 L 22.861328 20.707031 L 23.076172 20.859375 L 23.351562 20.861328 L 23.533203 20.570312 L 23.466797 20.316406 L 23.308594 20.125 z M 27.193359 20.572266 L 26.892578 20.669922 L 26.716797 20.898438 L 26.830078 21.263672 L 27.169922 21.320312 L 27.410156 21.167969 L 27.482422 20.802734 L 27.193359 20.572266 z M 11.359375 20.632812 L 11.017578 20.810547 L 11.066406 21.128906 L 11.326172 21.367188 L 11.576172 21.392578 L 11.708984 21.173828 L 11.808594 20.798828 L 11.597656 20.6875 L 11.359375 20.632812 z M 6.3808594 21.173828 L 6.1132812 21.238281 L 6.0058594 21.5625 L 6.1308594 21.794922 L 6.3320312 21.941406 L 6.6113281 21.830078 L 6.8183594 21.560547 L 6.6269531 21.269531 L 6.3808594 21.173828 z M 19.119141 21.525391 L 18.787109 21.953125 L 19.076172 22.400391 L 19.574219 22.419922 L 19.791016 21.972656 L 19.572266 21.601562 L 19.119141 21.525391 z M 14.050781 21.902344 L 13.845703 22.185547 L 13.841797 22.449219 L 13.998047 22.675781 L 14.339844 22.662109 L 14.511719 22.460938 L 14.578125 22.222656 L 14.373047 22 L 14.050781 21.902344 z M 2.5703125 22.107422 L 2.2402344 22.535156 L 2.5273438 22.982422 L 3.0253906 23.001953 L 3.2441406 22.554688 L 3.0234375 22.183594 L 2.5703125 22.107422 z M 9.5976562 22.691406 L 9.2851562 22.849609 L 9.1582031 23.080078 L 9.1894531 23.353516 L 9.5 23.5 L 9.7441406 23.402344 L 9.9160156 23.222656 L 9.8378906 22.929688 L 9.5976562 22.691406 z M 30.378906 23.003906 L 30.142578 23.304688 L 30.289062 23.615234 L 30.550781 23.726562 L 30.892578 23.578125 L 30.917969 23.210938 L 30.667969 23.017578 L 30.378906 23.003906 z M 27.023438 23.929688 L 26.558594 24.207031 L 26.724609 24.699219 L 27.259766 24.707031 L 27.419922 24.226562 L 27.023438 23.929688 z M 16.705078 24.796875 L 16.492188 24.90625 L 16.3125 25.070312 L 16.265625 25.453125 L 16.554688 25.59375 L 16.898438 25.515625 L 17.0625 25.324219 L 16.957031 25.089844 L 16.705078 24.796875 z M 21.103516 25.929688 L 20.736328 25.992188 L 20.623047 26.34375 L 20.820312 26.589844 L 21.095703 26.673828 L 21.398438 26.4375 L 21.332031 26.101562 L 21.103516 25.929688 z M 5.7402344 26.111328 L 5.3339844 26.451172 L 5.3730469 26.947266 L 5.84375 27.109375 L 6.1855469 26.845703 L 6.2070312 26.388672 L 5.7402344 26.111328 z M 12.958984 27.470703 L 12.755859 27.960938 L 13.021484 28.380859 L 13.513672 28.306641 L 13.695312 27.914062 L 13.5 27.5 L 12.958984 27.470703 z M 1.7714844 27.572266 L 1.5253906 27.59375 L 1.390625 27.865234 L 1.4121094 28.201172 L 1.75 28.291016 L 1.9980469 28.201172 L 2.1542969 27.976562 L 2.0195312 27.662109 L 1.7714844 27.572266 z M 23.947266 28.09375 L 23.775391 28.390625 L 23.832031 28.669922 L 24.148438 28.865234 L 24.464844 28.677734 L 24.480469 28.363281 L 24.328125 28.117188 L 23.947266 28.09375 z M 9.9160156 28.494141 L 9.4121094 28.515625 L 9.2753906 28.992188 L 9.6992188 29.328125 L 10.099609 28.998047 L 9.9160156 28.494141 z " />
  <rect
     style="fill:none;fill-opacity:1;stroke:none"
     id="rect13927"
     width="32"
     height="31"
     x="0"
     y="0" />
</svg>
