<?xml version="1.0" encoding="UTF-8" standalone="no"?>
<svg
   id="Svg"
   width="24"
   height="19"
   version="1.1"
   xmlns="http://www.w3.org/2000/svg"
   xmlns:svg="http://www.w3.org/2000/svg">
  <defs
     id="defs24238" />
  <path
     id="path4362"
     style="fill:#8ebd85;fill-opacity:1"
     d="M 0 9 L 0 9.5 L 0 9.6171875 L 0.09765625 9.5996094 L 0.12695312 9.5 L 0.43945312 9.5 L 0.39453125 9.5605469 L 0.5 9.7558594 L 0.5078125 9.859375 L 0.71679688 10.027344 L 0.93164062 9.9921875 L 0.96875 10.105469 L 1.3671875 10.119141 L 1.5898438 9.8203125 L 1.5078125 9.6699219 L 1.5839844 9.7050781 L 1.8710938 9.7460938 L 1.9355469 9.578125 L 1.9394531 9.5449219 L 2.0117188 9.7050781 L 2.3339844 9.6386719 L 2.3222656 9.7109375 L 2.6738281 9.9042969 L 2.9472656 9.640625 L 2.90625 9.5527344 L 2.96875 9.5878906 L 2.9492188 9.625 L 2.9726562 9.8300781 L 3.2050781 9.9394531 L 3.3886719 9.8671875 L 3.5175781 9.7324219 L 3.4960938 9.6464844 L 3.5976562 9.8105469 L 3.9667969 9.7558594 L 4.0859375 9.5 L 4.7539062 9.5 L 4.7597656 9.5390625 L 4.9746094 9.7304688 L 5.0722656 9.6757812 L 5.0742188 9.6777344 L 5.1074219 9.8847656 L 5.3007812 10.064453 L 5.4882812 10.083984 L 5.5878906 9.9179688 L 5.6054688 9.8574219 L 5.7988281 9.890625 L 5.9785156 9.7753906 L 6.0332031 9.5019531 L 6.03125 9.5 L 6.7246094 9.5 L 6.6894531 9.53125 L 6.6582031 9.7988281 L 6.5390625 9.7246094 L 6.2128906 9.8339844 L 6.1425781 10.232422 L 6.4882812 10.427734 L 6.8261719 10.269531 L 6.8144531 9.8964844 L 6.8710938 9.9238281 L 7.1289062 9.8652344 L 7.2519531 9.7226562 L 7.2285156 9.6699219 L 7.2460938 9.6855469 L 7.4726562 9.5957031 L 7.4882812 9.5 L 7.59375 9.5 L 7.4960938 9.5683594 L 7.5136719 9.8105469 L 7.7207031 9.9785156 L 7.953125 9.9394531 L 8.1601562 9.8203125 L 8.0703125 9.5605469 L 8.1230469 9.5390625 L 8.1601562 9.5 L 8.3496094 9.5 L 8.3671875 9.7402344 L 8.5742188 9.9101562 L 8.8046875 9.8710938 L 9.0136719 9.7519531 L 8.9238281 9.5 L 9.0625 9.5 L 9.1230469 9.5585938 L 9.2441406 9.5 L 9.2519531 9.5 L 9.2734375 9.6347656 L 9.46875 9.8144531 L 9.65625 9.8339844 L 9.7558594 9.6699219 L 9.7792969 9.5800781 L 9.7988281 9.609375 L 10.167969 9.5527344 L 10.191406 9.5 L 10.363281 9.5 L 10.570312 9.6640625 L 10.408203 9.7578125 L 10.484375 10.121094 L 10.882812 10.197266 L 11 9.9160156 L 11.085938 10.003906 L 11.302734 10.107422 L 11.470703 9.875 L 11.380859 9.7226562 L 11.361328 9.5019531 L 11.355469 9.5 L 11.666016 9.5 L 11.53125 9.75 L 11.664062 9.8691406 L 11.822266 9.9492188 L 11.855469 10.310547 L 12.177734 10.498047 L 12.480469 10.277344 L 12.462891 9.9511719 L 12.189453 9.7441406 L 12.119141 9.7773438 L 12.130859 9.6425781 L 12.035156 9.5 L 12.533203 9.5 L 12.523438 9.6425781 L 12.685547 9.8105469 L 12.902344 9.9160156 L 13.070312 9.6816406 L 13.041016 9.6328125 L 13.322266 9.6425781 L 13.390625 9.5 L 13.408203 9.5 L 13.615234 9.7050781 L 13.972656 9.53125 L 13.978516 9.5 L 14.150391 9.5 L 14.117188 9.515625 L 14.064453 9.7988281 L 14.269531 9.953125 L 14.480469 9.9355469 L 14.65625 9.71875 L 14.560547 9.5 L 14.767578 9.5 L 14.763672 9.5605469 L 15.138672 9.6660156 L 15.255859 9.5 L 15.289062 9.5 L 15.46875 9.78125 L 15.841797 9.796875 L 15.929688 9.6132812 L 16.115234 9.5996094 L 16.240234 9.5 L 16.337891 9.5 L 16.433594 9.6484375 L 16.808594 9.6640625 L 16.888672 9.5 L 17.287109 9.5 L 17.246094 9.6445312 L 17.564453 9.8964844 L 17.863281 9.6484375 L 17.810547 9.5039062 L 17.857422 9.5507812 L 18.074219 9.6523438 L 18.160156 9.5332031 L 18.335938 9.5839844 L 18.408203 9.5 L 18.787109 9.5 L 18.90625 9.6171875 L 19.189453 9.5664062 L 19.208984 9.5 L 19.527344 9.5 L 19.535156 9.5820312 L 19.703125 9.6347656 L 19.863281 9.7871094 L 19.878906 9.7832031 L 19.732422 9.9082031 L 19.775391 10.162109 L 19.939453 10.271484 L 20.125 10.298828 L 20.271484 10.126953 L 20.314453 9.8769531 L 20.083984 9.7519531 L 19.90625 9.7714844 L 20.089844 9.6992188 L 20.113281 9.5683594 L 20.142578 9.6601562 L 20.396484 9.703125 L 20.576172 9.5878906 L 20.59375 9.5 L 20.849609 9.5 L 20.931641 9.7753906 L 21.248047 9.9101562 L 21.564453 9.6582031 L 21.550781 9.6171875 L 21.632812 9.5703125 L 21.697266 9.5 L 22.025391 9.5 L 22.027344 9.5078125 L 22.279297 9.5488281 L 22.318359 9.5253906 L 22.375 9.5976562 L 22.611328 9.5820312 L 22.685547 9.5214844 L 22.753906 9.5410156 L 22.853516 9.5019531 L 22.863281 9.5605469 L 23.150391 9.5664062 L 23.181641 9.5 L 23.267578 9.5 L 23.283203 9.5859375 L 23.447266 9.6953125 L 23.628906 9.7246094 L 23.748047 9.5839844 L 23.816406 9.6503906 L 24 9.6171875 L 24 9.5 L 24 9 L 23.878906 9 L 23.236328 9 L 23.029297 9 L 22.876953 9 L 22.673828 9 L 22.314453 9 L 22.261719 9 L 21.927734 9 L 21.367188 9 L 19.960938 9 L 19.320312 9 L 18.769531 9 L 18.244141 9 L 17.998047 9 L 17.224609 9 L 17.189453 9 L 16.34375 9 L 14.585938 9 L 14.234375 9 L 13.783203 9 L 13.630859 9 L 13.144531 9 L 12.957031 9 L 12.634766 9 L 11.986328 9 L 11.574219 9 L 11.091797 9 L 10.181641 9 L 9.7207031 9 L 9.7109375 9 L 9.6445312 9 L 9.5136719 9 L 8.9160156 9 L 8.5078125 9 L 7.9882812 9 L 7.6875 9 L 7.1054688 9 L 6.5371094 9 L 5.6621094 9 L 4.9941406 9 L 4.2226562 9 L 1.8671875 9 L 1.8476562 9 L 1.0253906 9 L 0.53125 9 L 0.48046875 9 L 0 9 z M 0.94140625 9.5 L 1.0585938 9.5 L 0.97070312 9.5917969 L 0.9453125 9.5898438 L 0.94140625 9.5 z M 23.083984 9.578125 L 22.841797 9.6113281 L 22.746094 9.8339844 L 22.851562 10.080078 L 23.074219 10.152344 L 23.3125 10.142578 L 23.353516 9.859375 L 23.205078 9.765625 L 23.083984 9.578125 z M 13.289062 9.7128906 L 13.136719 9.8222656 L 13.169922 10.013672 L 13.300781 10.273438 L 13.474609 10.230469 L 13.636719 10.142578 L 13.738281 9.8730469 L 13.552734 9.71875 L 13.289062 9.7128906 z M 16.513672 9.71875 L 16.355469 9.8027344 L 16.220703 9.9257812 L 16.185547 10.210938 L 16.402344 10.318359 L 16.660156 10.259766 L 16.78125 10.115234 L 16.703125 9.9394531 L 16.513672 9.71875 z M 4.3378906 9.7246094 L 4.0332031 9.9863281 L 4.1816406 10.335938 L 4.5527344 10.304688 L 4.6757812 9.9179688 L 4.3378906 9.7246094 z M 18.740234 9.7421875 L 18.578125 9.8574219 L 18.486328 10.019531 L 18.595703 10.21875 L 18.814453 10.347656 L 19.013672 10.177734 L 19.064453 9.9863281 L 18.992188 9.7929688 L 18.740234 9.7421875 z M 22.103516 9.7695312 L 21.910156 9.7949219 L 21.751953 9.8964844 L 21.757812 10.121094 L 21.888672 10.337891 L 22.146484 10.279297 L 22.279297 10.134766 L 22.304688 9.9296875 L 22.103516 9.7695312 z M 20.583984 9.7871094 L 20.419922 9.8984375 L 20.345703 10.089844 L 20.5 10.294922 L 20.697266 10.316406 L 20.873047 10.255859 L 20.921875 10.035156 L 20.845703 9.7929688 L 20.583984 9.7871094 z M 9.9179688 9.8769531 L 9.5273438 9.96875 L 9.4960938 10.345703 L 9.8398438 10.490234 L 10.126953 10.205078 L 9.9179688 9.8769531 z M 24 9.8808594 L 23.998047 9.8828125 L 23.796875 10.203125 L 24 10.451172 L 24 9.8808594 z M 0 9.8828125 L 0 10.451172 L 0.03125 10.490234 L 0.41992188 10.371094 L 0.38671875 9.9824219 L 0 9.8828125 z M 8.4863281 9.9980469 L 8.1425781 10.140625 L 8.0800781 10.458984 L 8.296875 10.726562 L 8.6953125 10.650391 L 8.7558594 10.257812 L 8.4863281 9.9980469 z M 15.216797 10 L 14.826172 10.083984 L 14.679688 10.427734 L 14.935547 10.699219 L 15.255859 10.644531 L 15.429688 10.345703 L 15.216797 10 z M 2.1953125 10.005859 L 2.0117188 10.064453 L 1.7695312 10.224609 L 1.8320312 10.392578 L 1.9394531 10.541016 L 2.21875 10.611328 L 2.3515625 10.408203 L 2.3222656 10.146484 L 2.1953125 10.005859 z M 19.46875 10.005859 L 19.308594 10.087891 L 19.173828 10.210938 L 19.140625 10.498047 L 19.357422 10.603516 L 19.615234 10.544922 L 19.736328 10.402344 L 19.658203 10.226562 L 19.46875 10.005859 z M 3.3398438 10.068359 L 3.2324219 10.333984 L 3.3554688 10.460938 L 3.4277344 10.669922 L 3.6699219 10.697266 L 3.8164062 10.503906 L 3.7734375 10.240234 L 3.5761719 10.115234 L 3.3398438 10.068359 z M 17.798828 10.169922 L 17.597656 10.421875 L 17.664062 10.759766 L 18.052734 10.878906 L 18.289062 10.556641 L 18.169922 10.203125 L 17.798828 10.169922 z M 1.15625 10.236328 L 0.91015625 10.308594 L 0.8203125 10.484375 L 0.81445312 10.671875 L 1.0039062 10.796875 L 1.2578125 10.808594 L 1.3535156 10.566406 L 1.3105469 10.375 L 1.15625 10.236328 z M 22.794922 10.269531 L 22.599609 10.359375 L 22.548828 10.642578 L 22.753906 10.796875 L 22.964844 10.779297 L 23.140625 10.5625 L 23.029297 10.308594 L 22.794922 10.269531 z M 13.884766 10.328125 L 13.669922 10.421875 L 13.498047 10.587891 L 13.654297 10.828125 L 13.828125 10.796875 L 14.042969 10.857422 L 14.201172 10.673828 L 14.125 10.443359 L 13.884766 10.328125 z M 5.2519531 10.525391 L 5.0527344 10.666016 L 5.0703125 10.908203 L 5.2773438 11.076172 L 5.5078125 11.039062 L 5.7167969 10.917969 L 5.6210938 10.648438 L 5.4453125 10.634766 L 5.2519531 10.525391 z M 21.328125 10.724609 L 20.978516 10.931641 L 21.105469 11.300781 L 21.505859 11.306641 L 21.625 10.945312 L 21.328125 10.724609 z M 11.238281 10.740234 L 11.078125 10.822266 L 10.943359 10.945312 L 10.908203 11.232422 L 11.125 11.337891 L 11.382812 11.279297 L 11.503906 11.134766 L 11.427734 10.958984 L 11.238281 10.740234 z M 9.34375 10.921875 L 9.0761719 10.931641 L 8.9277344 11.113281 L 8.8515625 11.341797 L 9.1035156 11.482422 L 9.2441406 11.375 L 9.4609375 11.328125 L 9.515625 11.089844 L 9.34375 10.921875 z M 7.140625 10.957031 L 6.9042969 11.076172 L 6.8203125 11.244141 L 6.9394531 11.396484 L 7.1738281 11.564453 L 7.3085938 11.447266 L 7.4121094 11.294922 L 7.3769531 11.007812 L 7.140625 10.957031 z M 15.552734 11.113281 L 15.1875 11.1875 L 15.109375 11.552734 L 15.335938 11.783203 L 15.677734 11.757812 L 15.841797 11.386719 L 15.552734 11.113281 z M 1.734375 11.169922 L 1.5742188 11.251953 L 1.4394531 11.375 L 1.4042969 11.662109 L 1.6210938 11.767578 L 1.8789062 11.708984 L 2.0019531 11.564453 L 1.9238281 11.388672 L 1.734375 11.169922 z M 16.738281 11.269531 L 16.462891 11.316406 L 16.378906 11.578125 L 16.527344 11.763672 L 16.732422 11.826172 L 16.960938 11.650391 L 16.908203 11.396484 L 16.738281 11.269531 z M 2.9765625 11.287109 L 2.8164062 11.369141 L 2.6816406 11.492188 L 2.6464844 11.779297 L 2.8632812 11.884766 L 3.1210938 11.826172 L 3.2441406 11.681641 L 3.1660156 11.505859 L 2.9765625 11.287109 z M 13 11.5 L 12.738281 11.619141 L 12.726562 11.875 L 12.861328 12.041016 L 13.138672 12.060547 L 13.285156 11.824219 L 13.185547 11.611328 L 13 11.5 z M 19.269531 11.537109 L 19.023438 11.611328 L 18.935547 11.787109 L 18.927734 11.972656 L 19.117188 12.097656 L 19.369141 12.109375 L 19.466797 11.867188 L 19.421875 11.675781 L 19.269531 11.537109 z M 5.2246094 11.582031 L 5.0292969 11.603516 L 4.8730469 11.740234 L 4.9160156 11.992188 L 5.0800781 12.103516 L 5.265625 12.130859 L 5.4121094 11.957031 L 5.4550781 11.708984 L 5.2246094 11.582031 z M 22.986328 11.755859 L 22.796875 11.90625 L 22.777344 12.171875 L 22.939453 12.339844 L 23.15625 12.443359 L 23.324219 12.210938 L 23.236328 12.058594 L 23.214844 11.837891 L 22.986328 11.755859 z M 10.699219 11.859375 L 10.5 12 L 10.517578 12.242188 L 10.724609 12.410156 L 10.955078 12.373047 L 11.164062 12.251953 L 11.068359 11.980469 L 10.892578 11.966797 L 10.699219 11.859375 z M 20.890625 11.890625 L 20.666016 11.923828 L 20.466797 12.080078 L 20.554688 12.328125 L 20.716797 12.441406 L 20.923828 12.443359 L 21.058594 12.224609 L 21.009766 12.035156 L 20.890625 11.890625 z M 1.3691406 12.253906 L 1.1367188 12.318359 L 0.98242188 12.53125 L 0.98828125 12.720703 L 1.1621094 12.800781 L 1.4492188 12.839844 L 1.515625 12.671875 L 1.5332031 12.490234 L 1.3691406 12.253906 z M 8.3203125 12.458984 L 8.0644531 12.591797 L 8.1015625 12.832031 L 8.296875 13.009766 L 8.484375 13.029297 L 8.5839844 12.865234 L 8.6582031 12.583984 L 8.5 12.5 L 8.3203125 12.458984 z M 6.4296875 12.632812 L 6.1835938 12.705078 L 6.0957031 12.880859 L 6.0898438 13.068359 L 6.2773438 13.191406 L 6.5292969 13.205078 L 6.6289062 12.962891 L 6.5820312 12.769531 L 6.4296875 12.632812 z M 17.480469 12.84375 L 17.257812 12.875 L 17.058594 13.033203 L 17.146484 13.279297 L 17.306641 13.394531 L 17.513672 13.396484 L 17.650391 13.177734 L 17.599609 12.988281 L 17.480469 12.84375 z M 14.160156 12.943359 L 13.912109 13.263672 L 14.126953 13.599609 L 14.501953 13.613281 L 14.664062 13.277344 L 14.5 13 L 14.160156 12.943359 z M 4.7011719 12.951172 L 4.5 13 L 4.4199219 13.242188 L 4.5136719 13.417969 L 4.6640625 13.527344 L 4.8730469 13.443359 L 5.0292969 13.242188 L 4.8847656 13.023438 L 4.7011719 12.951172 z M 20.394531 13.179688 L 20.169922 13.251953 L 20.037109 13.423828 L 20.123047 13.697266 L 20.376953 13.740234 L 20.556641 13.625 L 20.611328 13.351562 L 20.394531 13.179688 z M 10.775391 13.818359 L 10.621094 14.03125 L 10.619141 14.228516 L 10.736328 14.398438 L 10.992188 14.388672 L 11.121094 14.238281 L 11.169922 14.058594 L 11.017578 13.892578 L 10.775391 13.818359 z M 2.1640625 13.972656 L 1.9160156 14.292969 L 2.1328125 14.628906 L 2.5058594 14.642578 L 2.6699219 14.308594 L 2.5039062 14.029297 L 2.1640625 13.972656 z M 7.4355469 14.410156 L 7.2011719 14.529297 L 7.1054688 14.701172 L 7.1289062 14.90625 L 7.3613281 15.017578 L 7.5449219 14.943359 L 7.6738281 14.808594 L 7.6152344 14.589844 L 7.4355469 14.410156 z M 18.716797 14.498047 L 18.367188 14.705078 L 18.492188 15.074219 L 18.892578 15.080078 L 19.013672 14.71875 L 18.716797 14.498047 z M 22 14.5 L 21.822266 14.726562 L 21.933594 14.958984 L 22.128906 15.042969 L 22.384766 14.931641 L 22.404297 14.65625 L 22.216797 14.509766 L 22 14.5 z M 3.7363281 15.642578 L 3.4316406 15.896484 L 3.4609375 16.269531 L 3.8144531 16.390625 L 4.0703125 16.193359 L 4.0859375 15.849609 L 3.7363281 15.642578 z M 12.765625 15.990234 L 12.605469 16.072266 L 12.470703 16.195312 L 12.435547 16.482422 L 12.652344 16.587891 L 12.910156 16.529297 L 13.033203 16.384766 L 12.955078 16.208984 L 12.765625 15.990234 z M 19.214844 16.982422 L 19.085938 17.205078 L 19.126953 17.414062 L 19.365234 17.560547 L 19.601562 17.419922 L 19.615234 17.183594 L 19.5 17 L 19.214844 16.982422 z M 15.828125 17.197266 L 15.552734 17.244141 L 15.466797 17.507812 L 15.615234 17.693359 L 15.822266 17.755859 L 16.048828 17.578125 L 15.998047 17.326172 L 15.828125 17.197266 z M 6.5 17.5 L 6.1230469 17.515625 L 6.0195312 17.873047 L 6.3378906 18.125 L 6.6386719 17.876953 L 6.5 17.5 z M 9.59375 17.978516 L 9.4414062 18.345703 L 9.640625 18.660156 L 10.009766 18.605469 L 10.146484 18.310547 L 10 18 L 9.59375 17.978516 z M 1.3300781 18.029297 L 1.1464844 18.044922 L 1.0449219 18.248047 L 1.0605469 18.5 L 1.3144531 18.566406 L 1.5 18.5 L 1.6171875 18.332031 L 1.515625 18.095703 L 1.3300781 18.029297 z " />
  <rect
     style="fill:none;fill-opacity:1;stroke:none"
     id="rect15026"
     width="24"
     height="19"
     x="0"
     y="0" />
</svg>
