<?xml version="1.0" encoding="UTF-8" standalone="no"?>
<!-- Created with Inkscape (http://www.inkscape.org/) -->

<svg
   version="1.1"
   width="7"
   height="7"
   viewBox="0 0 7 7"
   id="svg2"
   xmlns="http://www.w3.org/2000/svg"
   xmlns:svg="http://www.w3.org/2000/svg">
  <defs
     id="defs1" />
  <rect
     width="7"
     height="7"
     x="0"
     y="0"
     id="canvas"
     style="visibility:hidden;fill:none;stroke:none" />
  <path
     id="path106"
     style="fill:#000000"
     d="M 3.4980469,0 C 3.1601824,-2.9981059e-5 2.7823982,0.07537191 2.5664062,0.35742191 2.3660713,0.28382191 1.9566046,0.22488691 1.9628906,0.56054691 1.5264017,0.29815691 1.617875,1.0178763 1.2246094,1.0351562 c -0.29532182,0.0909 -0.668299,0.39966 -0.5996094,0.78125 -0.026402,0.23281 -0.5806427,0.3994394 -0.2734375,0.6933594 -0.3355464,0.30732 -0.43235191,0.78786 -0.25976563,1.1875 -0.016406,0.41071 -2.7912e-4,0.8309781 0.20898438,1.2050782 0.072839,0.23094 0.23380517,0.4614287 0.45898437,0.5117187 -0.029852,0.10999 -0.11380825,0.3365313 0.0976563,0.2382813 0.22513968,0.41096 0.52263958,0.8677581 1.02148428,0.9550781 0.2853843,0.0802 0.4908558,0.2361456 0.7519532,0.041016 0.3076418,-0.0271 0.3585302,0.3114081 0.671875,0.2363281 0.3904854,0.20568 0.9090825,0.060823 1.2851562,-0.1171875 0.2845335,-0.0461 0.6586606,-0.065516 0.65625,-0.4414062 C 5.4461409,6.1169619 5.8912745,6.2673481 6.015625,5.8925781 6.151873,5.6924681 6.3234891,5.5698587 6.4082031,5.3242188 6.6119203,5.2232687 6.2517797,5.13782 6.4765625,5 6.3731951,4.71232 6.853535,4.8798375 6.828125,4.5546875 6.825555,4.2600875 7.0256411,3.9704425 6.818355,3.7578125 6.909036,3.5252125 7.1381464,3.2604106 6.861324,3.0566406 7.0072081,2.8301606 6.8305102,2.6959088 6.7460938,2.5117188 6.8401878,2.2139787 6.4418441,2.0818225 6.5507812,1.7890625 6.2658501,1.5163825 6.0632544,1.0598519 5.7089844,0.91992191 5.3835716,0.84842191 5.3025985,0.31748811 4.9101562,0.45507811 4.5490234,0.44447811 4.3758494,-0.03317435 3.9746094,0.07226561 3.8200125,0.02693561 3.6590774,0.00272001 3.4980469,0 Z m 0.052734,0.22070311 c 0.238476,0.0184 0.2045477,0.3991407 0.5078126,0.2441407 0.2879411,-0.0194 0.4463353,0.2614956 0.6972656,0.2285156 C 4.9660217,1.0230494 5.2158697,1.3698506 5.625,1.3066406 c 0.441602,0.0873 0.377955,0.5825632 0.6699219,0.8144532 0.2920346,0.13586 0.069339,0.507455 0.3515625,0.671875 C 6.6333474,2.9650488 6.4874451,3.199915 6.7773438,3.296875 6.8556927,3.550195 6.3923945,3.1547313 6.5019531,3.4882812 6.646878,3.8604413 6.7218278,4.1803294 6.5292969,4.5058594 6.4060238,4.6856394 5.943681,4.8237606 6.1074219,5.0566406 6.0674959,5.3202306 5.9935818,5.4919213 5.7441406,5.5195312 5.6729416,5.6706613 5.804537,5.9846281 5.46875,5.8613281 5.0685155,5.8481281 4.8734681,6.1633919 4.7421875,6.4511719 4.4920323,6.3974719 4.3236868,6.4434044 4.1269531,6.6464844 3.8314048,6.6648844 3.4848404,6.3529519 3.2089844,6.4199219 2.9031742,6.1061519 2.5310168,6.1811506 2.1289062,6.2753906 1.6379879,6.2986906 1.499899,5.82699 1.234375,5.5 0.9071727,5.23195 0.64264883,4.9306469 0.52539062,4.5292969 0.36839202,4.2508269 0.69429125,4.1445538 0.70703125,3.9648438 0.21283955,4.0004437 0.7907562,3.4667425 0.4765625,3.2890625 0.2941928,2.9030125 0.97214108,2.8195562 0.77929688,2.4101562 0.94355308,2.1887562 1.3281046,1.9385694 1.0898438,1.6308594 1.402411,1.5282094 1.6741029,1.3146269 1.75,0.99804691 c -0.089684,-0.23856 0.1828516,-0.3651094 0.2402344,-0.0996094 0.3289275,0.0466 0.6210668,-0.2547925 0.9453125,-0.1640625 0.168056,-0.15128 0.052252,-0.3895775 0.3476562,-0.4296875 0.083157,-0.0429 0.1727225,-0.079984 0.2675778,-0.0839844 z m 0.171875,2.00585939 c -0.044412,0.012329 -0.08994,0.014825 -0.125,0.066406 -0.080135,0.1180599 0.1215421,0.2142293 0.3066407,0.2558593 0.1850987,0.0416 0.2801669,0.1375569 0.3535156,0.2167969 0.094462,0.11164 0.2156179,0.1783194 0.2441406,0.3808594 0.00216,0.142 0.2625301,0.3036025 0.3085938,0.070312 C 4.8156269,2.9360269 4.701695,2.8054838 4.5253331,2.5977138 4.3227986,2.3472338 4.2229271,2.3008951 3.9205346,2.2269551 3.8625971,2.2130496 3.7763702,2.2116513 3.7226559,2.2265625 Z M 2.9316406,2.4199219 c -0.012774,2.611e-4 -0.071379,-0.042283 -0.087163,-0.038335 -0.1615882,0.0147 -0.2755555,-0.010366 -0.4420764,0.1282936 -0.1665209,0.1387 -0.2682345,0.2495403 -0.3313611,0.4615502 -0.05037,0.1619928 -0.092751,0.459618 -0.057368,0.634038 0.063245,0.3427399 0.1225368,0.5592887 0.3535156,0.8242187 0.1245198,0.0915 0.4010937,-0.053049 0.2551317,-0.2151788 C 2.4681612,3.9342287 2.2847881,3.8748425 2.2677982,3.5078125 2.2898613,3.2455625 2.3492952,2.9874813 2.5351562,2.8007812 2.661864,2.7066812 2.7735141,2.6839794 2.9082031,2.5996094 3.0386066,2.5733281 3.055123,2.4173977 2.9316406,2.4199219 Z m 1.6757813,1.5039062 c -0.083722,0.010019 -0.1507,0.1160681 -0.15625,0.1816407 -0.020896,0.16704 -0.038187,0.080969 -0.087891,0.1992187 -0.049704,0.11828 -0.3764529,0.4230129 -0.7868317,0.4232729 -0.1518379,0.0239 -0.302457,-0.057182 -0.3791839,0.00837 -0.049454,0.12126 0.044025,0.2070175 0.1745558,0.2421875 0.2973713,0.0506 0.6018012,-0.00632 0.8456456,-0.1573704 0.2123953,-0.14633 0.4352453,-0.2831848 0.5122165,-0.4214248 0.051866,-0.17942 0.055802,-0.3399585 -0.034371,-0.4485485 -0.0299,-0.023025 -0.059983,-0.030683 -0.08789,-0.027344 z" />
</svg>
