<?xml version="1.0" encoding="UTF-8" standalone="no"?>
<!-- Created with Inkscape (http://www.inkscape.org/) -->

<svg
   version="1.1"
   width="17"
   height="17"
   viewBox="0 0 17 17"
   id="svg2"
   xmlns="http://www.w3.org/2000/svg"
   xmlns:svg="http://www.w3.org/2000/svg">
  <defs
     id="defs1" />
  <rect
     width="17"
     height="17"
     x="0"
     y="0"
     id="canvas"
     style="visibility:hidden;fill:none;stroke:none" />
  <path
     id="path106"
     style="fill:#000000"
     d="M 8.4941406 0 C 7.6736126 -9e-05 6.7569739 0.18425063 6.2324219 0.86914062 C 5.7458949 0.69033062 4.7542653 0.54613813 4.7695312 1.3613281 C 3.7094852 0.72407813 3.9296824 2.4717319 2.9746094 2.5136719 C 2.2573994 2.7344019 1.348807 3.4814731 1.515625 4.4082031 C 1.451505 4.9736131 0.10744662 5.3838363 0.85351562 6.0976562 C 0.038617625 6.8440063 -0.0832015 8.0079756 0.3359375 8.9785156 C 0.2960875 9.9759656 0.22226575 10.995777 0.73046875 11.904297 C 0.90736375 12.465157 1.296887 13.026308 1.84375 13.148438 C 1.77125 13.415558 1.5684752 13.967126 2.0820312 13.728516 C 2.6287993 14.726566 3.351019 15.832852 4.5625 16.044922 C 5.255576 16.239712 5.756532 16.618241 6.390625 16.144531 C 7.137755 16.078831 7.5651909 16.740934 8.3261719 16.558594 C 9.2744929 17.058124 10.227304 16.86976 11.140625 16.4375 C 11.831635 16.32564 12.74023 16.276131 12.734375 15.363281 C 13.224947 14.855181 14.307381 15.22275 14.609375 14.3125 C 14.940263 13.82654 15.358719 13.526227 15.564453 12.929688 C 16.059193 12.684527 15.182626 12.479241 15.728516 12.144531 C 15.47748 11.445861 16.641788 11.850197 16.580078 11.060547 C 16.573978 10.345077 17.063944 9.6433331 16.560547 9.1269531 C 16.780772 8.5620531 17.336349 7.9206512 16.664062 7.4257812 C 17.018343 6.8757512 16.587821 6.5449962 16.382812 6.0976562 C 16.611327 5.3745863 15.645595 5.0566831 15.910156 4.3457031 C 15.218181 3.6834531 14.725604 2.5761481 13.865234 2.2363281 C 13.074945 2.0627681 12.876902 0.77327187 11.923828 1.1074219 C 11.046805 1.0818219 10.624831 -0.078345625 9.6503906 0.17773438 C 9.2749426 0.067684375 8.8852156 0.0065 8.4941406 0 z M 8.6230469 0.53515625 C 9.2022029 0.57955625 9.1189677 1.5053262 9.8554688 1.1289062 C 10.554754 1.0817063 10.941378 1.7617606 11.550781 1.6816406 C 12.061175 2.4823306 12.930225 3.0987825 13.923828 2.9453125 C 14.99629 3.1573725 14.578046 4.5872306 15.287109 5.1503906 C 15.996335 5.4803306 15.761867 6.4210025 16.447266 6.8203125 C 16.415376 7.2382425 15.754854 7.7703894 16.458984 8.0058594 C 16.649262 8.6210694 15.714399 7.4692469 15.980469 8.2792969 C 16.33243 9.1831069 16.324996 10.150826 15.857422 10.941406 C 15.558045 11.378026 14.701952 11.71569 15.099609 12.28125 C 15.002639 12.92141 14.556957 13.335274 13.951172 13.402344 C 13.778262 13.769354 14.325249 14.570934 13.509766 14.271484 C 12.537767 14.239284 12.023902 15.232761 11.705078 15.931641 C 11.097559 15.801341 10.50122 15.648728 10.023438 16.142578 C 9.3056775 16.187378 8.576186 15.692799 7.90625 15.855469 C 7.163568 15.093419 6.1464769 15.013328 5.1699219 15.242188 C 3.9776919 15.298488 3.3772659 14.227734 2.7324219 13.433594 C 1.9377879 12.782624 1.4488325 11.937601 1.1640625 10.962891 C 0.7827795 10.286591 1.6858569 10.067309 1.7167969 9.6308594 C 0.51661687 9.7171594 1.6946826 8.2655144 0.93164062 7.8339844 C 0.48874262 6.8964244 2.358961 6.8477956 1.890625 5.8535156 C 2.289533 5.3158256 3.2251164 4.7062944 2.6464844 3.9589844 C 3.4055754 3.7096844 3.9504456 2.9270331 4.1347656 2.1582031 C 3.9169616 1.5788231 4.5422816 1.3123213 4.6816406 1.9570312 C 5.4804646 2.0701412 6.3434054 1.5631031 7.1308594 1.7832031 C 7.5389954 1.4158231 7.2552492 0.8396075 7.9726562 0.7421875 C 8.1746092 0.6381475 8.3926839 0.54480625 8.6230469 0.53515625 z M 8.671875 3.4160156 C 8.5059873 3.4185229 8.3400387 3.43665 8.1992188 3.5234375 C 8.1173587 4.0936475 9.0071056 4.0335675 9.4003906 4.1171875 C 9.9098736 4.1406875 10.44247 4.1695619 10.871094 4.4824219 C 11.352242 4.7673419 11.705786 5.2280294 11.880859 5.7558594 C 11.956499 6.1345694 12.627945 6.5878062 12.634766 5.9414062 C 12.509952 5.1880362 11.935376 4.5968431 11.367188 4.1269531 C 10.708832 3.5555531 9.8020209 3.4666656 8.9667969 3.4160156 C 8.8717535 3.4182656 8.7714076 3.4145113 8.671875 3.4160156 z M 6.0253906 5.3242188 C 5.9629656 5.3192084 5.8862987 5.3344075 5.7929688 5.3769531 C 5.3004927 5.5146531 4.8623226 5.8022513 4.4628906 6.1132812 C 3.9859666 6.5811912 3.7935968 7.2603512 3.5429688 7.8632812 C 3.2987877 8.3753112 3.3120494 8.962695 3.5214844 9.484375 C 3.9135454 10.513105 4.5348818 11.490351 5.4023438 12.181641 C 5.7066577 12.589241 6.5040174 12.278995 5.9589844 11.859375 C 5.0982604 11.117555 4.3270351 10.196996 4.0644531 9.0664062 C 3.9828431 8.2390263 4.2084194 7.3696737 4.6777344 6.6835938 C 5.0166734 6.3190537 5.5546361 6.2219625 5.9238281 5.8828125 C 6.2727213 5.7428838 6.2958989 5.3459304 6.0253906 5.3242188 z M 8.6152344 5.9824219 C 7.0574144 6.0337219 5.8870039 7.6794338 6.3261719 8.1523438 C 6.4774549 8.3152438 6.5714867 8.3228244 6.7460938 7.8964844 C 6.8837237 7.5604344 7.1124873 7.4970319 7.4257812 7.0136719 C 7.7805992 6.4662319 9.0851365 6.3164063 9.4609375 6.7851562 C 10.033591 7.2505362 10.194836 7.4871212 10.363281 7.8320312 C 10.789687 8.7051413 10.241277 9.0004325 10.365234 9.1328125 C 10.496356 9.2728925 11.012251 8.7181281 10.927734 8.1738281 C 10.826776 7.5237181 10.391707 6.796415 10.021484 6.453125 C 9.7455564 6.106415 9.4274154 5.9724819 8.6152344 5.9824219 z M 8.5800781 8.0625 C 8.39011 8.0703267 8.2028553 8.1990894 8.0761719 8.3574219 C 7.8800119 8.7170519 8.3703356 9.1086931 8.6972656 8.8144531 C 8.9914956 8.5202131 8.9265494 8.0625 8.5996094 8.0625 C 8.5934794 8.0625 8.5862061 8.0622475 8.5800781 8.0625 z M 12.964844 8.2070312 C 12.620808 8.2372111 12.735068 8.9752216 12.789062 9.2851562 C 12.817013 9.5875163 12.827541 9.8957125 12.769531 10.195312 C 12.308566 11.398623 11.39317 12.576086 10.060547 12.822266 C 9.5817659 12.991036 9.0497107 12.690318 8.6210938 12.798828 C 8.6714137 13.282558 9.2717989 13.565112 9.7167969 13.601562 C 10.712861 13.587262 11.5388 12.902985 12.240234 12.265625 C 12.842333 11.662315 13.507369 10.984198 13.574219 10.085938 C 13.635149 9.4708775 13.602745 8.7743513 13.207031 8.2695312 C 13.108517 8.2193312 13.028554 8.2014424 12.964844 8.2070312 z M 6.46875 9.3554688 C 6.4481191 9.356656 6.4275205 9.3605344 6.4082031 9.3691406 C 6.0991641 9.5067206 6.9618301 10.56833 7.5019531 10.71875 C 8.8665461 11.05749 9.1194739 10.980672 9.2949219 10.820312 C 9.5676249 10.554903 9.4058827 10.421442 8.8085938 10.419922 C 8.4975477 10.414922 8.1420905 10.448641 8.0390625 10.494141 C 7.8158655 10.593541 6.8711205 9.9027025 6.6953125 9.5078125 C 6.6518681 9.4101581 6.5581507 9.350324 6.46875 9.3554688 z " />
</svg>
