<?xml version="1.0" encoding="UTF-8" standalone="no"?>
<!-- Created with Inkscape (http://www.inkscape.org/) -->

<svg
   version="1.1"
   width="13"
   height="13"
   viewBox="0 0 13 13"
   id="svg2"
   xmlns="http://www.w3.org/2000/svg"
   xmlns:svg="http://www.w3.org/2000/svg">
  <defs
     id="defs1" />
  <rect
     width="13"
     height="13"
     x="0"
     y="0"
     id="canvas"
     style="visibility:hidden;fill:none;stroke:none" />
  <path
     id="path106-9-6-8-70"
     style="fill:#000000"
     d="M 6.4941406 0 C 5.8666776 -7e-05 5.166753 0.14228563 4.765625 0.66601562 C 4.393576 0.52928563 3.6348104 0.41763566 3.6464844 1.0410156 C 2.8358614 0.55370566 3.0057416 1.8917581 2.2753906 1.9238281 C 1.7269366 2.0926281 1.0306361 2.6624138 1.1582031 3.3710938 C 1.1091631 3.8034637 0.08182075 4.1162494 0.65234375 4.6621094 C 0.02918675 5.2328394 -0.0627055 6.1230544 0.2578125 6.8652344 C 0.2273425 7.6279844 0.16997175 8.4087756 0.55859375 9.1035156 C 0.69386675 9.5324156 0.99196725 9.9612975 1.4101562 10.054688 C 1.3547163 10.258957 1.1990779 10.680517 1.5917969 10.498047 C 2.0099139 11.261267 2.5618542 12.107361 3.4882812 12.269531 C 4.0182812 12.418491 4.4018238 12.707973 4.8867188 12.345703 C 5.4580528 12.295403 5.7852605 12.801539 6.3671875 12.662109 C 7.0923745 13.044099 7.8211082 12.898859 8.5195312 12.568359 C 9.0479493 12.482859 9.7427583 12.446107 9.7382812 11.748047 C 10.113425 11.359497 10.940937 11.641393 11.171875 10.945312 C 11.424907 10.573702 11.745018 10.342889 11.902344 9.8867188 C 12.280675 9.6992388 11.609898 9.5430694 12.027344 9.2871094 C 11.835376 8.7528394 12.726878 9.0608813 12.679688 8.4570312 C 12.674987 7.9099012 13.049014 7.3753488 12.664062 6.9804688 C 12.83247 6.5484887 13.256288 6.0561644 12.742188 5.6777344 C 13.013107 5.2571244 12.68412 5.0061425 12.527344 4.6640625 C 12.70209 4.1111325 11.963705 3.8679187 12.166016 3.3242188 C 11.636859 2.8177888 11.259492 1.9688444 10.601562 1.7089844 C 9.9972235 1.5762644 9.8479626 0.59017312 9.1191406 0.84570312 C 8.4484756 0.82610313 8.1240663 -0.061064375 7.3789062 0.13476562 C 7.0917983 0.050565625 6.7931976 0.0049700041 6.4941406 0 z M 6.59375 0.41015625 C 7.036634 0.44415625 6.9739024 1.1511312 7.5371094 0.86328125 C 8.0718564 0.82728125 8.3679714 1.3464262 8.8339844 1.2851562 C 9.2242864 1.8974562 9.8886245 2.3693131 10.648438 2.2519531 C 11.468556 2.4141131 11.149181 3.5087931 11.691406 3.9394531 C 12.233755 4.1917531 12.053997 4.9094937 12.578125 5.2148438 C 12.553735 5.5344337 12.047452 5.9410237 12.585938 6.1210938 C 12.731445 6.5915437 12.017237 5.7125812 12.220703 6.3320312 C 12.48985 7.0231813 12.484516 7.7626275 12.126953 8.3671875 C 11.898018 8.7010775 11.242784 8.9600981 11.546875 9.3925781 C 11.472725 9.8821181 11.131216 10.196757 10.667969 10.248047 C 10.535743 10.528697 10.955636 11.143053 10.332031 10.914062 C 9.5887382 10.889462 9.1949799 11.649154 8.9511719 12.183594 C 8.4865989 12.083994 8.0313776 11.9661 7.6660156 12.34375 C 7.1171396 12.37795 6.559179 12.00061 6.046875 12.125 C 5.478942 11.54226 4.699902 11.48124 3.953125 11.65625 C 3.041419 11.69935 2.5810066 10.880717 2.0878906 10.273438 C 1.4802296 9.7756375 1.10839 9.1281725 0.890625 8.3828125 C 0.599055 7.8656325 1.28884 7.6989844 1.3125 7.3652344 C 0.394715 7.4311344 1.2963936 6.3202344 0.71289062 5.9902344 C 0.37420462 5.2732744 1.8034515 5.2368825 1.4453125 4.4765625 C 1.7503595 4.0653725 2.4659215 3.5988237 2.0234375 3.0273438 C 2.6039185 2.8367037 3.0211584 2.2383206 3.1621094 1.6503906 C 2.9955534 1.2073306 3.4735091 1.0030738 3.5800781 1.4960938 C 4.1909431 1.5825938 4.850955 1.1969244 5.453125 1.3652344 C 5.765229 1.0843044 5.5490543 0.64090625 6.0976562 0.56640625 C 6.2520903 0.48680625 6.41759 0.41753625 6.59375 0.41015625 z M 6.6308594 2.6113281 C 6.504004 2.6132803 6.3772169 2.6270469 6.2695312 2.6933594 C 6.2069313 3.1294094 6.8887061 3.0844875 7.1894531 3.1484375 C 7.5790581 3.1663375 7.9866811 3.1885044 8.3144531 3.4277344 C 8.6823891 3.6456144 8.9520585 3.9987137 9.0859375 4.4023438 C 9.1437775 4.6919537 9.6568944 5.0392219 9.6621094 4.5449219 C 9.5666594 3.9688119 9.1259023 3.51558 8.6914062 3.15625 C 8.1879573 2.7193 7.4941688 2.6500581 6.8554688 2.6113281 C 6.7827881 2.6128281 6.7069726 2.6101568 6.6308594 2.6113281 z M 4.6074219 4.0722656 C 4.5596852 4.0684354 4.5010575 4.0787913 4.4296875 4.1113281 C 4.0530875 4.2166281 3.7175574 4.4379313 3.4121094 4.6757812 C 3.0474024 5.0335913 2.9025935 5.5506487 2.7109375 6.0117188 C 2.5242105 6.4032688 2.5332064 6.8549763 2.6933594 7.2539062 C 2.9931704 8.0405863 3.4675064 8.7858231 4.1308594 9.3144531 C 4.3635704 9.6261431 4.9734316 9.3912425 4.5566406 9.0703125 C 3.8984406 8.5030325 3.3082199 7.7981638 3.1074219 6.9335938 C 3.0450119 6.3008938 3.219237 5.6359681 3.578125 5.1113281 C 3.837314 4.8325481 4.248926 4.7573969 4.53125 4.4980469 C 4.7980498 4.3910406 4.8142809 4.0888631 4.6074219 4.0722656 z M 6.578125 5.5898438 C 6.2648025 5.5921654 6.041643 5.759075 5.734375 6.0390625 C 5.491616 6.3565725 5.6352564 6.8564356 5.9433594 7.1972656 C 6.4150844 7.6444956 6.923141 7.3496181 7.25 6.9550781 C 7.547907 6.4793381 7.350539 5.7383844 6.8125 5.6152344 C 6.7285206 5.5978156 6.6504302 5.589308 6.578125 5.5898438 z M 6.5625 6.0800781 C 6.9088176 6.0619533 7.1411195 6.4788203 6.8203125 6.8242188 C 6.3908835 7.2587088 5.7044474 6.5965844 6.2558594 6.2089844 C 6.3609948 6.1244812 6.4655311 6.0851531 6.5625 6.0800781 z M 9.9140625 6.2753906 C 9.6509762 6.2984727 9.7399586 6.8626084 9.78125 7.0996094 C 9.80262 7.3308294 9.809975 7.567765 9.765625 7.796875 C 9.413122 8.717055 8.7124244 9.6164275 7.6933594 9.8046875 C 7.3272324 9.9337475 6.9195639 9.7041094 6.5917969 9.7871094 C 6.6302769 10.157019 7.0893935 10.374464 7.4296875 10.402344 C 8.1913835 10.391444 8.8249381 9.8682594 9.3613281 9.3808594 C 9.8217571 8.9195094 10.329737 8.3997906 10.380859 7.7128906 C 10.427449 7.2425506 10.402211 6.7102588 10.099609 6.3242188 C 10.024275 6.2858313 9.9627822 6.2711162 9.9140625 6.2753906 z " />
</svg>
