<?xml version="1.0" encoding="UTF-8" standalone="no"?>
<!-- Created with Inkscape (http://www.inkscape.org/) -->

<svg
   version="1.1"
   width="19"
   height="19"
   viewBox="0 0 19 19"
   id="svg2"
   xmlns="http://www.w3.org/2000/svg"
   xmlns:svg="http://www.w3.org/2000/svg">
  <defs
     id="defs1" />
  <rect
     width="19"
     height="19"
     x="0"
     y="0"
     id="canvas"
     style="visibility:hidden;fill:none;stroke:none" />
  <path
     id="path4"
     style="fill:#000000"
     d="M 9.3808594 0 C 8.4637984 -0.00011 7.4397796 0.20647625 6.8535156 0.97265625 C 6.3097506 0.77264625 5.1997349 0.60951442 5.2167969 1.5214844 C 4.0320399 0.80857441 4.2803256 2.76557 3.2128906 2.8125 C 2.4113036 3.05943 1.3955882 3.8948806 1.5820312 4.9316406 C 1.5103612 5.5641606 0.007955875 6.0217425 0.84179688 6.8203125 C -0.068971125 7.6552525 -0.20477712 8.9591519 0.26367188 10.044922 C 0.21913188 11.160792 0.13708512 12.300036 0.70507812 13.316406 C 0.90278512 13.943866 1.3360666 14.572354 1.9472656 14.708984 C 1.8662456 15.007814 1.6389156 15.626325 2.2128906 15.359375 C 2.8239836 16.475935 3.6323191 17.711979 4.9863281 17.949219 C 5.7609421 18.167129 6.3206039 18.59242 7.0292969 18.0625 C 7.8643239 17.9889 8.3428504 18.729391 9.1933594 18.525391 C 10.253247 19.084241 11.319074 18.872242 12.339844 18.388672 C 13.112148 18.263522 14.127637 18.20873 14.121094 17.1875 C 14.669381 16.61907 15.87732 17.030029 16.214844 16.011719 C 16.58466 15.468049 17.051312 15.130261 17.28125 14.462891 C 17.834196 14.188631 16.856684 13.960378 17.466797 13.585938 C 17.186228 12.804327 18.486939 13.256437 18.417969 12.373047 C 18.411169 11.572617 18.959105 10.788618 18.396484 10.210938 C 18.642618 9.5789675 19.263098 8.8602706 18.511719 8.3066406 C 18.907679 7.6913306 18.4264 7.3227156 18.197266 6.8222656 C 18.452664 6.0133456 17.374236 5.6567281 17.669922 4.8613281 C 16.896538 4.1204581 16.344403 2.8821231 15.382812 2.5019531 C 14.499549 2.3078031 14.280045 0.86446129 13.214844 1.2382812 C 12.234642 1.2096813 11.762908 -0.089214375 10.673828 0.19726562 C 10.254209 0.074145625 9.8179424 0.0072899962 9.3808594 0 z M 9.5234375 0.59960938 C 10.17073 0.64920937 10.079195 1.6847919 10.902344 1.2636719 C 11.683897 1.2109719 12.11578 1.9704894 12.796875 1.8808594 C 13.367316 2.7765994 14.338723 3.4666319 15.449219 3.2949219 C 16.647853 3.5321719 16.182127 5.1317088 16.974609 5.7617188 C 17.767274 6.1308387 17.503497 7.1821962 18.269531 7.6289062 C 18.233891 8.0964462 17.49624 8.6916381 18.283203 8.9550781 C 18.495866 9.6433081 17.450674 8.3555087 17.748047 9.2617188 C 18.141416 10.272839 18.133912 11.355804 17.611328 12.240234 C 17.27673 12.728694 16.319232 13.107534 16.763672 13.740234 C 16.655296 14.456414 16.15557 14.919101 15.478516 14.994141 C 15.285263 15.404711 15.899704 16.301807 14.988281 15.966797 C 13.90193 15.930797 13.325084 17.040416 12.96875 17.822266 C 12.289758 17.676496 11.625788 17.506114 11.091797 18.058594 C 10.289594 18.108594 9.4733624 17.556301 8.7246094 17.738281 C 7.8945534 16.885761 6.7555055 16.794751 5.6640625 17.050781 C 4.3315695 17.113781 3.6601611 15.915744 2.9394531 15.027344 C 2.0513331 14.299094 1.5077261 13.354082 1.1894531 12.263672 C 0.76331313 11.507062 1.7701075 11.261698 1.8046875 10.773438 C 0.4633105 10.869937 1.7805454 9.2464219 0.92773438 8.7636719 C 0.43273137 7.7148019 2.523435 7.6611281 2 6.5488281 C 2.445839 5.9472881 3.4924091 5.2657175 2.8457031 4.4296875 C 3.6940981 4.1507975 4.3037606 3.2761256 4.5097656 2.4160156 C 4.2663376 1.7678456 4.9633866 1.4681931 5.1191406 2.1894531 C 6.0119436 2.3159931 6.9773269 1.7498537 7.8574219 1.9960938 C 8.3135739 1.5851038 7.9970201 0.93907812 8.7988281 0.83007812 C 9.0245401 0.71367813 9.2659725 0.61039937 9.5234375 0.59960938 z M 10.072266 3.0097656 C 9.3098199 3.0191034 8.5166841 3.1338944 8.3828125 3.3203125 C 8.1591525 3.9132825 9.592761 3.7967875 10.421875 3.7109375 C 11.015359 3.6160375 12.251365 4.0330106 12.716797 4.8066406 C 13.047321 5.4093006 13.411647 5.7560538 13.582031 5.6210938 C 14.141224 5.1945037 12.865925 3.7193294 11.470703 3.1933594 C 11.240174 3.0599613 10.665279 3.0025029 10.072266 3.0097656 z M 9.9335938 5.2265625 C 7.5712627 5.3009625 5.6161198 9.1107794 6.2929688 9.7871094 C 6.6899238 10.183779 6.4987119 9.585495 6.9980469 8.421875 C 7.2071989 7.934485 7.6538153 7.4259294 8.1289062 6.7246094 C 8.6669642 5.9303294 10.580513 5.5503588 11.150391 6.2304688 C 12.018782 6.9056888 12.328548 7.4097263 12.583984 7.9101562 C 13.2306 9.1769562 12.230051 10.278633 12.417969 10.470703 C 12.616807 10.673933 13.56762 9.19597 13.439453 8.40625 C 13.286359 7.46299 12.358294 6.4707462 11.796875 5.9726562 C 11.37845 5.4696162 11.165212 5.2121525 9.9335938 5.2265625 z M 5.890625 5.5703125 C 5.6274832 5.5940643 5.01778 6.0214156 4.2753906 6.9160156 C 3.8263366 7.2134556 3.1752291 9.0247431 3.0957031 9.3457031 C 2.6191221 10.867533 5.2097621 14.95181 5.9394531 14.25 C 6.4059181 13.80134 4.6985516 13.395293 3.8691406 10.382812 C 3.6426906 9.5603325 4.1331764 7.7435206 4.7402344 7.3378906 C 5.9964729 6.1750906 6.2289502 5.5397745 5.890625 5.5703125 z M 9.7265625 8.25 C 9.3556429 8.2618572 8.9574177 8.4743738 8.5878906 8.7832031 C 7.9757746 9.5442131 8.2917874 10.088607 8.7714844 10.466797 C 10.039411 11.466407 11.280774 9.5764625 10.515625 8.6328125 C 10.287994 8.3531494 10.015056 8.2407777 9.7265625 8.25 z M 15.609375 8.8417969 C 15.539238 8.8444819 15.46477 8.9060516 15.390625 9.0390625 C 15.24108 9.3106225 15.195577 10.524772 15.033203 11.357422 C 13.865501 14.295072 11.537126 15.379629 10.505859 15.037109 C 10.064968 14.860119 10.100788 15.192411 10.873047 15.644531 C 12.456977 16.635701 15.433337 12.928796 15.769531 11.941406 C 16.250969 10.527534 15.988115 8.8272979 15.609375 8.8417969 z M 9.6386719 9 C 10.045144 8.9808697 10.237091 9.4453203 9.9023438 9.8496094 C 9.6881008 10.123559 9.2083665 9.9408394 9.0859375 9.8496094 C 8.9941175 9.7582094 9.0090362 9.2947781 9.2539062 9.1425781 C 9.3945032 9.0493556 9.5248597 9.0053565 9.6386719 9 z M 7.015625 11.369141 C 6.9883106 11.369667 6.9614991 11.376327 6.9355469 11.386719 C 6.5203439 11.552929 7.6084591 12.998709 8.3144531 13.224609 C 10.10018 13.740869 10.439817 13.650346 10.679688 13.447266 C 11.053318 13.110336 10.845658 12.926611 10.056641 12.894531 C 9.6459826 12.871631 9.1735592 12.899778 9.0351562 12.955078 C 8.7352822 13.075158 7.5229359 12.114534 7.3105469 11.583984 C 7.2580594 11.45279 7.1339873 11.366862 7.015625 11.369141 z " />
</svg>
