<?xml version="1.0" encoding="UTF-8" standalone="no"?>
<!-- Created with Inkscape (http://www.inkscape.org/) -->

<svg
   version="1.1"
   width="11"
   height="11"
   viewBox="0 0 11 11"
   id="svg2"
   xmlns="http://www.w3.org/2000/svg"
   xmlns:svg="http://www.w3.org/2000/svg">
  <defs
     id="defs1" />
  <rect
     width="11"
     height="11"
     x="0"
     y="0"
     id="canvas"
     style="visibility:hidden;fill:none;stroke:none" />
  <path
     id="path106"
     style="fill:#000000"
     d="M 5.4960938,2.2583418e-8 C 4.9651637,-5.9957417e-5 4.3726191,0.11934002 4.0332031,0.56250002 3.7183911,0.44681002 3.0760595,0.35337942 3.0859375,0.88085942 2.4000265,0.46851942 2.5437702,1.5998131 1.9257812,1.6269531 c -0.464077,0.14282 -1.05325345,0.6269125 -0.94531245,1.2265625 -0.04149,0.36585 -0.91048538,0.6299169 -0.42773437,1.0917969 -0.527287,0.48293 -0.6071445,1.2352813 -0.3359375,1.8632813 -0.02578,0.64541 -0.0729826,1.3066612 0.25585937,1.8945312 0.114461,0.36291 0.36685013,0.7256675 0.72070315,0.8046875 -0.04691,0.17284 -0.1799573,0.5293905 0.1523437,0.375 0.353791,0.6458005 0.8215698,1.3608265 1.6054688,1.4980465 0.448461,0.12604 0.7732977,0.372967 1.1835937,0.06641 0.483437,-0.0425 0.7595541,0.385568 1.2519532,0.267578 0.61362,0.32322 1.2312926,0.199642 1.8222656,-0.08008 0.447124,-0.0724 1.035038,-0.10269 1.03125,-0.69336 C 8.5576634,9.612637 9.257717,9.848717 9.453125,9.259767 9.667229,8.9453156 9.9371905,8.7512344 10.070312,8.3652344 10.390439,8.2065944 9.8245114,8.075955 10.177734,7.859375 10.015299,7.407305 10.768446,7.6672 10.728516,7.15625 c -0.004,-0.46295 0.312056,-0.91587 -0.01367,-1.25 0.142499,-0.36552 0.501414,-0.7813525 0.06641,-1.1015625 0.22924,-0.3559 -0.04899,-0.569925 -0.181641,-0.859375 C 10.747471,3.4774425 10.123735,3.27255 10.294922,2.8125 9.8471729,2.38399 9.5274131,1.6671556 8.9707031,1.4472656 8.4593401,1.3349656 8.3334919,0.50057692 7.7167969,0.71679692 7.1493109,0.70019692 6.8746606,-0.05046558 6.2441406,0.11523442 6.0012026,0.04403442 5.7491418,0.00421002 5.4960938,2.2583418e-8 Z M 5.5781248,0.34765632 c 0.374748,0.0288 0.3222691,0.6263825 0.7988281,0.3828125 0.452479,-0.0305 0.7033373,0.40926178 1.0976563,0.35742178 0.330255,0.51809 0.8922372,0.9176694 1.5351562,0.8183594 0.693946,0.13721 0.4240075,1.0613813 0.8828125,1.4257812 0.4589121,0.2134901 0.3065061,0.8216982 0.7500001,1.0800782 -0.02064,0.27042 -0.447791,0.6152181 0.0078,0.7675781 0.12312,0.39808 -0.48271,-0.3464156 -0.310547,0.1777344 0.22774,0.58482 0.224427,1.2111062 -0.07813,1.7226562 -0.193715,0.28252 -0.7494949,0.5012375 -0.492188,0.8671875 -0.06274,0.41422 -0.3502085,0.6812094 -0.7421874,0.7246094 -0.111883,0.23748 0.2425097,0.75626 -0.2851563,0.5625 -0.62894,-0.0208 -0.9616707,0.621999 -1.1679687,1.074219 -0.3931011,-0.0843 -0.7787377,-0.182832 -1.0878907,0.136718 -0.464433,0.029 -0.9376057,-0.290796 -1.3710937,-0.185546 C 4.6346572,9.766686 3.9775729,9.715201 3.3456849,9.863281 2.5742419,9.899781 2.1848119,9.205256 1.7675599,8.6914062 1.2534031,8.2701962 0.93816925,7.72444 0.75390625,7.09375 0.50719425,6.65615 1.0913081,6.5148319 1.1113281,6.2324219 0.33474112,6.2882219 1.0952955,5.3475794 0.6015625,5.0683594 0.3149815,4.4616994 1.5256972,4.4304594 1.2226562,3.7871094 1.4807733,3.4391894 2.0873006,3.04605 1.7128906,2.5625 2.2040676,2.40119 2.5565143,1.8939644 2.6757812,1.3964844 2.5348493,1.0215944 2.9391239,0.84846502 3.0292969,1.265625 c 0.516886,0.0732 1.0744553,-0.2537481 1.5839843,-0.1113281 0.2640881,-0.23771998 0.082669,-0.61079808 0.546875,-0.67382808 0.1306761,-0.0673 0.2689098,-0.1265725 0.4179686,-0.1328125 z m 0.033203,1.86328118 c -0.1073391,0.00161 -0.2155218,0.012172 -0.3066406,0.068359 -0.05297,0.36896 0.5248179,0.3306656 0.7792969,0.3847656 0.329665,0.0152 0.6738268,0.033898 0.9511718,0.2363281 C 7.3464873,3.0847506 7.574217,3.3830694 7.6875,3.7246094 7.73644,3.9696594 8.1713683,4.2639631 8.1757812,3.8457031 8.0950213,3.3582331 7.7231198,2.9739719 7.3554688,2.6699219 6.9294737,2.3002019 6.3412202,2.2437175 5.8007812,2.2109375 c -0.061498,0.0015 -0.1250496,-9.674e-4 -0.1894534,0 z m -1.7128906,1.234375 c -0.040392,-0.00324 -0.090001,0.00763 -0.1503906,0.035156 -0.318661,0.0891 -0.6028731,0.2753025 -0.8613281,0.4765624 -0.308599,0.3027601 -0.43158,0.7407294 -0.59375,1.1308594 -0.158,0.33132 -0.1491839,0.7112782 -0.013672,1.0488282 0.253686,0.6656499 0.6554979,1.2987937 1.2167969,1.7460937 0.196909,0.26375 0.7120429,0.062596 0.359375,-0.2089844 C 3.2985293,7.1938278 2.7988119,6.5987472 2.6289058,5.8671872 2.5760958,5.3318272 2.7236738,4.7681485 3.0273434,4.3242185 3.2466564,4.0883385 3.595095,4.0260903 3.833984,3.8066403 4.0597387,3.7160953 4.0734709,3.4593579 3.8984372,3.4453125 Z m 1.7207031,0.984375 c -0.361526,0.00267 -0.6200701,0.19452 -0.9746094,0.5175781 -0.280107,0.36636 -0.1152726,0.9446307 0.2402344,1.3378906 0.544298,0.5160301 1.1306665,0.17398 1.5078125,-0.28125 0.3437383,-0.54893 0.114956,-1.4028218 -0.505859,-1.5449218 -0.096899,-0.020104 -0.1841491,-0.029913 -0.2675785,-0.029297 z m 0.029297,0.5644531 c 0.3727622,0.017617 0.6053553,0.4767775 0.25,0.859375 C 5.4029425,6.3548456 4.6078966,5.5917613 5.2441406,5.1445312 5.3827809,5.0330987 5.5241834,4.9882684 5.6484373,4.9941406 Z M 8.3886719,5.3105469 C 8.1660604,5.3300781 8.2404526,5.80727 8.2753906,6.0078125 c 0.01808,0.19565 0.025811,0.3959838 -0.011719,0.5898437 C 7.9654009,7.3762662 7.3720516,8.137575 6.5097656,8.296875 6.1999666,8.406085 5.855465,8.21105 5.578125,8.28125 5.610685,8.59425 5.9991694,8.7772012 6.2871094,8.8007812 6.9316214,8.7917812 7.4660529,8.34991 7.9199219,7.9375 8.3095149,7.54712 8.7399471,7.1066206 8.7832031,6.5253906 8.8226231,6.1274106 8.8009669,5.6782125 8.5449219,5.3515625 8.4811775,5.3190812 8.4298962,5.30693 8.3886719,5.3105469 Z" />
</svg>
