<?xml version="1.0" encoding="UTF-8" standalone="no"?>
<!-- Created with Inkscape (http://www.inkscape.org/) -->

<svg
   version="1.1"
   width="21"
   height="21"
   viewBox="0 0 21 21"
   id="svg2"
   xmlns="http://www.w3.org/2000/svg"
   xmlns:svg="http://www.w3.org/2000/svg">
  <defs
     id="defs1" />
  <rect
     width="21"
     height="21"
     x="0"
     y="0"
     id="canvas"
     style="visibility:hidden;fill:none;stroke:none" />
  <path
     id="path4"
     style="fill:#000000"
     d="M 10.367188 0 C 9.3535976 -0.00012 8.2241419 0.22934188 7.5761719 1.0761719 C 6.9751619 0.85511188 5.7487181 0.67562375 5.7675781 1.6835938 C 4.4581091 0.89564375 4.7305782 3.057505 3.5507812 3.109375 C 2.6648162 3.382295 1.5419789 4.3052719 1.7480469 5.4511719 C 1.6688369 6.1502719 0.0080735 6.6564325 0.9296875 7.5390625 C -0.0769515 8.4618925 -0.22674338 9.9015025 0.29101562 11.101562 C 0.24178563 12.334893 0.15151487 13.59539 0.77929688 14.71875 C 0.99781487 15.41226 1.4768077 16.106802 2.1523438 16.257812 C 2.0627937 16.588103 1.8128716 17.271613 2.4472656 16.976562 C 3.1226846 18.210652 4.0151897 19.575681 5.5117188 19.837891 C 6.3678687 20.078741 6.9862412 20.548591 7.7695312 19.962891 C 8.6924612 19.881591 9.2201264 20.700079 10.160156 20.474609 C 11.331616 21.092279 12.510452 20.858689 13.638672 20.324219 C 14.492272 20.185889 15.614652 20.124824 15.607422 18.996094 C 16.213432 18.367824 17.548815 18.822766 17.921875 17.697266 C 18.330615 17.096376 18.847423 16.723948 19.101562 15.986328 C 19.712712 15.683208 18.630338 15.431428 19.304688 15.017578 C 18.994577 14.153688 20.433652 14.652161 20.357422 13.675781 C 20.349422 12.791091 20.955774 11.923646 20.333984 11.285156 C 20.606034 10.586666 21.289454 9.7915975 20.458984 9.1796875 C 20.896624 8.4996075 20.366551 8.0941456 20.113281 7.5410156 C 20.395571 6.6469456 19.202497 6.2521769 19.529297 5.3730469 C 18.674517 4.5541869 18.064763 3.185815 17.001953 2.765625 C 16.025723 2.551045 15.782799 0.95597063 14.605469 1.3691406 C 13.522089 1.3375406 13.000595 -0.09788 11.796875 0.21875 C 11.333085 0.08267 10.850288 0.00806 10.367188 0 z M 10.527344 0.66210938 C 11.242774 0.71690937 11.140981 1.8619344 12.050781 1.3964844 C 12.914601 1.3382844 13.391731 2.1791481 14.144531 2.0800781 C 14.775021 3.0701081 15.848782 3.830405 17.076172 3.640625 C 18.400972 3.902845 17.885819 5.6728106 18.761719 6.3691406 C 19.637819 6.7771106 19.346689 7.9379106 20.193359 8.4316406 C 20.154059 8.9483906 19.337221 9.6072575 20.207031 9.8984375 C 20.442091 10.659107 19.286554 9.2366813 19.615234 10.238281 C 20.050004 11.355831 20.042444 12.551767 19.464844 13.529297 C 19.095034 14.069167 18.036114 14.4882 18.527344 15.1875 C 18.407554 15.97907 17.857695 16.489326 17.109375 16.572266 C 16.895775 17.026056 17.571823 18.016764 16.564453 17.646484 C 15.363753 17.606684 14.727824 18.835069 14.333984 19.699219 C 13.583524 19.538109 12.848012 19.348344 12.257812 19.958984 C 11.371173 20.014284 10.470138 19.404339 9.6425781 19.605469 C 8.7251481 18.663209 7.4680587 18.562723 6.2617188 18.845703 C 4.7889697 18.915303 4.046573 17.591295 3.25 16.609375 C 2.268394 15.804465 1.6662291 14.759878 1.3144531 13.554688 C 0.84345614 12.718427 1.9578738 12.447853 1.9960938 11.908203 C 0.51351876 12.014863 1.9679716 10.219117 1.0253906 9.6855469 C 0.47828264 8.5262669 2.7894715 8.4657181 2.2109375 7.2363281 C 2.7037075 6.5714681 3.8593113 5.8205144 3.1445312 4.8964844 C 4.0822332 4.5882344 4.756685 3.6205719 4.984375 2.6699219 C 4.715325 1.9535319 5.4860631 1.6207888 5.6582031 2.4179688 C 6.6449831 2.5578288 7.7108537 1.9329181 8.6835938 2.2050781 C 9.1877538 1.7508281 8.8383994 1.0364856 9.7246094 0.91601562 C 9.9740794 0.78736563 10.242774 0.67403938 10.527344 0.66210938 z M 11.132812 3.328125 C 10.290109 3.3384453 9.4135963 3.4638837 9.265625 3.6699219 C 9.018425 4.3253119 10.601188 4.1964525 11.517578 4.1015625 C 12.173538 3.9966725 13.542211 4.45744 14.056641 5.3125 C 14.421951 5.9786 14.823399 6.3620506 15.011719 6.2128906 C 15.629769 5.7413906 14.219824 4.1106269 12.677734 3.5292969 C 12.422943 3.381855 11.788248 3.3200981 11.132812 3.328125 z M 10.978516 5.7753906 C 8.3675157 5.8575906 6.2069881 10.068876 6.9550781 10.816406 C 7.3938181 11.254826 7.182485 10.592751 7.734375 9.3066406 C 7.965545 8.7679506 8.459265 8.2067906 8.984375 7.4316406 C 9.579065 6.5537506 11.692416 6.1350187 12.322266 6.8867188 C 13.282086 7.6330088 13.627836 8.1890775 13.910156 8.7421875 C 14.624836 10.142328 13.518863 11.359976 13.726562 11.572266 C 13.946323 11.796886 14.995176 10.163866 14.853516 9.2910156 C 14.684306 8.2484656 13.657619 7.1520825 13.037109 6.6015625 C 12.574639 6.0455725 12.339776 5.7594606 10.978516 5.7753906 z M 6.5117188 6.15625 C 6.2208782 6.182501 5.5470977 6.6557637 4.7265625 7.6445312 C 4.2302325 7.9732813 3.5078189 9.973375 3.4199219 10.328125 C 2.8931749 12.010145 5.7579531 16.52569 6.5644531 15.75 C 7.0800331 15.25412 5.1940627 14.806143 4.2773438 11.476562 C 4.0270637 10.567502 4.5673223 8.5596581 5.2382812 8.1113281 C 6.6267562 6.8261281 6.8856566 6.1224987 6.5117188 6.15625 z M 10.642578 9.1875 C 10.26081 9.1997715 9.8490843 9.4186913 9.46875 9.7382812 C 8.83873 10.525811 9.1644731 11.089099 9.6582031 11.480469 C 10.963203 12.514909 12.240655 10.558571 11.453125 9.5820312 C 11.218839 9.2926206 10.939509 9.1779555 10.642578 9.1875 z M 17.251953 9.7714844 C 17.174433 9.7744515 17.09367 9.8432234 17.011719 9.9902344 C 16.846419 10.290384 16.794704 11.632434 16.615234 12.552734 C 15.324614 15.799604 12.753101 16.999664 11.613281 16.621094 C 11.125981 16.425474 11.164028 16.793259 12.017578 17.292969 C 13.768238 18.388479 17.058108 14.288596 17.429688 13.197266 C 17.961807 11.634565 17.670563 9.755462 17.251953 9.7714844 z M 10.550781 9.9628906 C 10.969144 9.9430923 11.166805 10.425375 10.822266 10.84375 C 10.601756 11.12725 10.108442 10.936257 9.9824219 10.841797 C 9.8879219 10.747297 9.902257 10.266875 10.154297 10.109375 C 10.299007 10.012902 10.43364 9.9684341 10.550781 9.9628906 z M 7.7558594 12.566406 C 7.7256699 12.566987 7.6946994 12.5725 7.6660156 12.583984 C 7.2071056 12.767694 8.4091531 14.365554 9.1894531 14.615234 C 11.163153 15.185834 11.537614 15.087741 11.802734 14.863281 C 12.215684 14.490891 11.985361 14.287413 11.113281 14.251953 C 10.659411 14.226653 10.139308 14.257759 9.9863281 14.318359 C 9.6548881 14.451079 8.3148181 13.391078 8.0800781 12.804688 C 8.0220656 12.659681 7.8866805 12.56389 7.7558594 12.566406 z " />
</svg>
