<?xml version="1.0" encoding="UTF-8" standalone="no"?>
<!-- Created with Inkscape (http://www.inkscape.org/) -->

<svg
   version="1.1"
   width="15"
   height="15"
   viewBox="0 0 15 15"
   id="svg2"
   xmlns="http://www.w3.org/2000/svg"
   xmlns:svg="http://www.w3.org/2000/svg">
  <defs
     id="defs1" />
  <rect
     width="15"
     height="15"
     x="0"
     y="0"
     id="canvas"
     style="visibility:hidden;fill:none;stroke:none" />
  <path
     id="path106"
     style="fill:#000000"
     d="M 7.4941406 0 C 6.7701446 -8e-05 5.96284 0.16326813 5.5 0.76757812 C 5.070712 0.60980813 4.1955144 0.4818919 4.2089844 1.2011719 C 3.2736504 0.6388919 3.467712 2.18174 2.625 2.21875 C 1.992168 2.41351 1.1906986 3.072925 1.3378906 3.890625 C 1.2813106 4.389515 0.09561025 4.7490662 0.75390625 5.3789062 C 0.03487825 6.0374463 -0.072953 7.065515 0.296875 7.921875 C 0.261715 8.801975 0.19611725 9.7022763 0.64453125 10.503906 C 0.80061525 10.998786 1.1444271 11.493802 1.6269531 11.601562 C 1.5629831 11.837252 1.3827995 12.323821 1.8359375 12.113281 C 2.3183795 12.993921 2.9564366 13.96913 4.0253906 14.15625 C 4.6369286 14.32812 5.0791779 14.664074 5.6386719 14.246094 C 6.2979039 14.188094 6.6742491 14.772218 7.3457031 14.611328 C 8.1824571 15.052088 9.0242061 14.883353 9.8300781 14.501953 C 10.439792 14.403253 11.241494 14.362101 11.236328 13.556641 C 11.669186 13.108321 12.624159 13.432066 12.890625 12.628906 C 13.182585 12.200116 13.550892 11.934563 13.732422 11.408203 C 14.168958 11.191883 13.397238 11.012127 13.878906 10.716797 C 13.657404 10.100327 14.683356 10.454563 14.628906 9.7578125 C 14.623506 9.1265125 15.057455 8.5083644 14.613281 8.0527344 C 14.807597 7.5542944 15.296319 6.9874312 14.703125 6.5507812 C 15.015725 6.0654613 14.63597 5.7755694 14.455078 5.3808594 C 14.656708 4.7428594 13.805627 4.4613244 14.039062 3.8339844 C 13.428496 3.2496444 12.991572 2.2724963 12.232422 1.9726562 C 11.535108 1.8195162 11.362432 0.6817225 10.521484 0.9765625 C 9.7476404 0.9539625 9.375425 -0.0697 8.515625 0.15625 C 8.184347 0.05915 7.8392066 0.0057400007 7.4941406 0 z M 7.6074219 0.47265625 C 8.1184419 0.51185625 8.0454585 1.3282337 8.6953125 0.99609375 C 9.3123285 0.95449375 9.6556514 1.555065 10.193359 1.484375 C 10.643707 2.190865 11.408448 2.7330763 12.285156 2.5976562 C 13.231446 2.7847663 12.86459 4.0480119 13.490234 4.5449219 C 14.116022 4.8360419 13.906955 5.6652481 14.511719 6.0175781 C 14.483579 6.3863381 13.902149 6.85473 14.523438 7.0625 C 14.69133 7.60533 13.864841 6.5899375 14.099609 7.3046875 C 14.410163 8.1021675 14.404753 8.9567269 13.992188 9.6542969 C 13.728032 10.039557 12.973345 10.338871 13.324219 10.837891 C 13.238659 11.402741 12.84311 11.766992 12.308594 11.826172 C 12.156026 12.150002 12.641419 12.85797 11.921875 12.59375 C 11.064229 12.56535 10.609441 13.439981 10.328125 14.056641 C 9.792079 13.941671 9.2672751 13.808391 8.8457031 14.244141 C 8.2123851 14.283641 7.5676825 13.846704 6.9765625 13.990234 C 6.3212545 13.317844 5.4222129 13.247289 4.5605469 13.449219 C 3.5085789 13.498919 2.9791363 12.554226 2.4101562 11.853516 C 1.7090083 11.279136 1.2786117 10.531905 1.0273438 9.671875 C 0.69091775 9.075135 1.4863719 8.8831469 1.5136719 8.4980469 C 0.45468987 8.5741469 1.4955376 7.2928694 0.82226562 6.9121094 C 0.43147363 6.0848494 2.0812067 6.0413625 1.6679688 5.1640625 C 2.0199467 4.6896225 2.8464955 4.1535306 2.3359375 3.4941406 C 3.0057235 3.2741706 3.4858015 2.5826769 3.6484375 1.9042969 C 3.4562575 1.3930769 4.0078954 1.1577025 4.1308594 1.7265625 C 4.8357034 1.8263625 5.5962036 1.3800088 6.2910156 1.5742188 C 6.6511356 1.2500587 6.4021502 0.74025687 7.0351562 0.65429688 C 7.2133503 0.56249688 7.4041599 0.48116625 7.6074219 0.47265625 z M 7.6503906 3.0136719 C 7.504019 3.0159033 7.3586275 3.0308594 7.234375 3.1074219 C 7.162145 3.6105519 7.9479059 3.5590325 8.2949219 3.6328125 C 8.7444659 3.6535125 9.215552 3.6790281 9.59375 3.9550781 C 10.018292 4.2064781 10.329899 4.612395 10.484375 5.078125 C 10.551115 5.412285 11.14242 5.8144906 11.148438 5.2441406 C 11.038308 4.5794006 10.530639 4.0571881 10.029297 3.6425781 C 9.4483949 3.1384081 8.6471182 3.0583619 7.9101562 3.0136719 C 7.8262943 3.0155469 7.7382136 3.012333 7.6503906 3.0136719 z M 5.3164062 4.6992188 C 5.2613254 4.6947985 5.1936781 4.7065994 5.1113281 4.7441406 C 4.6767901 4.8656406 4.28994 5.1200913 3.9375 5.3945312 C 3.516684 5.8073913 3.3480951 6.4055 3.1269531 6.9375 C 2.9114991 7.38929 2.9226279 7.9088406 3.1074219 8.3691406 C 3.4533579 9.2768506 4.0021701 10.138087 4.7675781 10.748047 C 5.0360901 11.107697 5.7387245 10.835114 5.2578125 10.464844 C 4.4983505 9.8102937 3.8176275 8.99758 3.5859375 8 C 3.5139275 7.26996 3.7128511 6.5018444 4.1269531 5.8964844 C 4.4260171 5.5748244 4.9008045 5.4887031 5.2265625 5.1894531 C 5.534409 5.0659856 5.5550899 4.7183733 5.3164062 4.6992188 z M 7.5488281 6.4511719 C 7.2085715 6.4675731 6.9580906 6.6561641 6.6171875 6.9667969 C 6.3370805 7.3331569 6.5019149 7.9114275 6.8574219 8.3046875 C 7.4017199 8.8207175 7.9880884 8.4786675 8.3652344 8.0234375 C 8.7089724 7.4745075 8.48019 6.6225688 7.859375 6.4804688 C 7.7463259 6.4570144 7.6441 6.4465795 7.5488281 6.4511719 z M 7.5722656 7.015625 C 7.9718629 6.9947118 8.2412555 7.4764609 7.8710938 7.875 C 7.3755987 8.37633 6.5805529 7.6112925 7.2167969 7.1640625 C 7.3381071 7.0665591 7.4603784 7.0214807 7.5722656 7.015625 z M 11.474609 7.2402344 C 11.128024 7.2184257 11.235749 7.9097631 11.285156 8.1933594 C 11.309816 8.4601494 11.318758 8.7317338 11.267578 8.9960938 C 10.860844 10.057834 10.052797 11.097233 8.8769531 11.314453 C 8.4544991 11.463373 7.9836607 11.197219 7.6054688 11.292969 C 7.6498688 11.719789 8.1815728 11.969793 8.5742188 12.001953 C 9.4530988 11.989353 10.181869 11.384646 10.800781 10.822266 C 11.332045 10.289936 11.917577 9.6910175 11.976562 8.8984375 C 12.030323 8.3557375 12.001502 7.742305 11.652344 7.296875 C 11.582804 7.26144 11.524122 7.2433499 11.474609 7.2402344 z " />
</svg>
