<?xml version="1.0" encoding="UTF-8" standalone="no"?>
<!-- Created with Inkscape (http://www.inkscape.org/) -->

<svg
   version="1.1"
   width="23"
   height="23"
   viewBox="0 0 23 23"
   id="svg2"
   xmlns="http://www.w3.org/2000/svg"
   xmlns:svg="http://www.w3.org/2000/svg">
  <defs
     id="defs1" />
  <rect
     width="23"
     height="23"
     x="0"
     y="0"
     id="canvas"
     style="visibility:hidden;fill:none;stroke:none" />
  <path
     id="path4"
     style="fill:#000000"
     d="M 11.355469 0 C 10.245349 -0.00013 9.006555 0.25024437 8.296875 1.1777344 C 7.638625 0.93561437 6.2957463 0.73978 6.3164062 1.84375 C 4.8822162 0.98075 5.1808319 3.34944 3.8886719 3.40625 C 2.9183419 3.70516 1.6883825 4.7156731 1.9140625 5.9707031 C 1.8273625 6.7363831 0.01015125 7.2891694 1.0195312 8.2558594 C -0.08297875 9.2665794 -0.24871062 10.843843 0.31835938 12.158203 C 0.26445937 13.508993 0.16594562 14.890754 0.85351562 16.121094 C 1.0928456 16.880654 1.6175519 17.641241 2.3574219 17.806641 C 2.2593219 18.168381 1.9848875 18.914947 2.6796875 18.591797 C 3.4194375 19.943427 4.3960962 21.441336 6.0351562 21.728516 C 6.9728462 21.992306 7.6518756 22.506714 8.5097656 21.865234 C 9.5205956 21.776234 10.099346 22.670768 11.128906 22.423828 C 12.411936 23.100328 13.70183 22.845136 14.9375 22.259766 C 15.87239 22.108266 17.10167 22.042871 17.09375 20.806641 C 17.75747 20.118541 19.220316 20.613549 19.628906 19.380859 C 20.076576 18.722739 20.641572 18.317636 20.919922 17.509766 C 21.589272 17.177776 20.405961 16.900536 21.144531 16.447266 C 20.804891 15.501106 22.380365 16.045933 22.296875 14.976562 C 22.287875 14.007623 22.950521 13.060618 22.269531 12.361328 C 22.567491 11.596308 23.317763 10.724867 22.408203 10.054688 C 22.887523 9.3098375 22.304734 8.8636225 22.027344 8.2578125 C 22.336514 7.2785925 21.030752 6.8476256 21.388672 5.8847656 C 20.452482 4.9879256 19.785124 3.4875538 18.621094 3.0273438 C 17.551884 2.7923237 17.287497 1.04748 15.998047 1.5 C 14.811487 1.4654 14.238282 -0.10655563 12.919922 0.24023438 C 12.411962 0.091194375 11.884579 0.00883 11.355469 0 z M 11.529297 0.7265625 C 12.312857 0.7865625 12.200826 2.0390769 13.197266 1.5292969 C 14.143356 1.4655969 14.667698 2.3858437 15.492188 2.2773438 C 16.182727 3.3616637 17.356892 4.1961413 18.701172 3.9882812 C 20.152152 4.2754813 19.587565 6.2119694 20.546875 6.9746094 C 21.506415 7.4214394 21.187934 8.6955781 22.115234 9.2363281 C 22.072234 9.8022981 21.180122 10.520934 22.132812 10.839844 C 22.390262 11.672954 21.124395 10.115901 21.484375 11.212891 C 21.960555 12.436881 21.950969 13.745776 21.318359 14.816406 C 20.913329 15.407696 19.754949 15.866912 20.292969 16.632812 C 20.161769 17.499772 19.557871 18.059551 18.738281 18.150391 C 18.504341 18.647391 19.245888 19.733665 18.142578 19.328125 C 16.827528 19.284525 16.130569 20.629722 15.699219 21.576172 C 14.877289 21.399712 14.072191 21.192528 13.425781 21.861328 C 12.454691 21.921928 11.466917 21.252366 10.560547 21.472656 C 9.5557369 20.440656 8.1786519 20.330695 6.8574219 20.640625 C 5.2444119 20.716825 4.4310338 19.266836 3.5585938 18.191406 C 2.4835038 17.309836 1.8247331 16.165673 1.4394531 14.845703 C 0.92360312 13.929803 2.1436869 13.634019 2.1855469 13.042969 C 0.56177687 13.159789 2.1553969 11.193765 1.1230469 10.609375 C 0.52383687 9.339695 3.055495 9.2722512 2.421875 7.9257812 C 2.961575 7.1976012 4.2281625 6.3733681 3.4453125 5.3613281 C 4.4723125 5.0237281 5.2096144 3.9650181 5.4589844 2.9238281 C 5.1643144 2.1392081 6.0087356 1.7753275 6.1972656 2.6484375 C 7.2780256 2.8016175 8.4463387 2.1179356 9.5117188 2.4160156 C 10.063899 1.9185056 9.6797806 1.1358463 10.650391 1.0039062 C 10.923621 0.86299625 11.217627 0.7396225 11.529297 0.7265625 z M 12.193359 3.6445312 C 11.2704 3.6558341 10.310499 3.7938675 10.148438 4.0195312 C 9.8776875 4.7373413 11.611574 4.5961175 12.615234 4.4921875 C 13.333664 4.3773175 14.831101 4.8818594 15.394531 5.8183594 C 15.794631 6.5478994 16.235146 6.9680575 16.441406 6.8046875 C 17.118316 6.2882875 15.575679 4.5019344 13.886719 3.8652344 C 13.607664 3.7037531 12.911217 3.6357401 12.193359 3.6445312 z M 12.025391 6.3261719 C 9.1657206 6.4161719 6.7978475 11.028936 7.6171875 11.847656 C 8.0977075 12.327826 7.8662531 11.601949 8.4707031 10.193359 C 8.7238831 9.6033594 9.2647238 8.989595 9.8398438 8.140625 C 10.491174 7.179125 12.806254 6.7196788 13.496094 7.5429688 C 14.547324 8.3603388 14.925165 8.9703819 15.234375 9.5761719 C 16.017125 11.109662 14.805723 12.443271 15.033203 12.675781 C 15.273893 12.921791 16.424681 11.131761 16.269531 10.175781 C 16.084211 9.0339412 14.958907 7.8334187 14.279297 7.2304688 C 13.772787 6.6215287 13.516291 6.3087219 12.025391 6.3261719 z M 7.1308594 6.7441406 C 6.812319 6.772893 6.0744631 7.2881587 5.1757812 8.3710938 C 4.6321813 8.7311538 3.8423638 10.92397 3.7460938 11.3125 C 3.1691738 13.15471 6.3061431 18.101513 7.1894531 17.251953 C 7.7541331 16.708843 5.6876238 16.217002 4.6835938 12.570312 C 4.4094838 11.574683 5.0014581 9.3738425 5.7363281 8.8828125 C 7.2570356 7.4752125 7.5404113 6.7071733 7.1308594 6.7441406 z M 11.654297 10.0625 C 11.23617 10.075941 10.787648 10.314036 10.371094 10.664062 C 9.6810737 11.526602 10.037375 12.145579 10.578125 12.574219 C 12.007415 13.707179 13.405509 11.563691 12.542969 10.494141 C 12.286371 10.177167 11.979506 10.052046 11.654297 10.0625 z M 18.896484 10.703125 C 18.811581 10.706375 18.720616 10.780394 18.630859 10.941406 C 18.449819 11.270136 18.393826 12.740107 18.197266 13.748047 C 16.783726 17.304147 13.96712 18.617755 12.71875 18.203125 C 12.18504 17.988875 12.227269 18.392153 13.162109 18.939453 C 15.079499 20.139293 18.680921 15.650338 19.087891 14.455078 C 19.670694 12.743548 19.354962 10.685575 18.896484 10.703125 z M 11.556641 10.912109 C 12.014849 10.890426 12.230867 11.416781 11.853516 11.875 C 11.612006 12.1855 11.071614 11.97845 10.933594 11.875 C 10.830094 11.7715 10.845064 11.244766 11.121094 11.072266 C 11.279587 10.966605 11.428342 10.918181 11.556641 10.912109 z M 8.4941406 13.763672 C 8.4610757 13.764307 8.4279 13.770626 8.3964844 13.783203 C 7.8938744 13.984413 9.2098331 15.734353 10.064453 16.007812 C 12.226123 16.632752 12.637364 16.525137 12.927734 16.279297 C 13.380014 15.871447 13.127005 15.648215 12.171875 15.609375 C 11.674775 15.581675 11.10505 15.615741 10.9375 15.681641 C 10.5745 15.827001 9.1067094 14.665667 8.8496094 14.023438 C 8.7860719 13.864618 8.6374221 13.760918 8.4941406 13.763672 z " />
</svg>
