<?xml version="1.0" encoding="UTF-8" standalone="no"?>
<!-- Created with Inkscape (http://www.inkscape.org/) -->

<svg
   version="1.1"
   width="9"
   height="9"
   viewBox="0 0 9 9"
   id="svg2"
   xmlns="http://www.w3.org/2000/svg"
   xmlns:svg="http://www.w3.org/2000/svg">
  <defs
     id="defs1" />
  <rect
     width="9"
     height="9"
     x="0"
     y="0"
     id="canvas"
     style="visibility:hidden;fill:none;stroke:none" />
  <path
     id="path106"
     style="fill:#000000"
     d="M 4.4960938,1.902968e-8 C 4.0616965,-4.996097e-5 3.5784852,0.09833752 3.3007812,0.46093752 3.0432078,0.36633752 2.5173086,0.28913312 2.5253906,0.72070312 1.9641907,0.38334312 2.0798461,1.3098213 1.5742188,1.3320312 1.1945193,1.4488812 0.71441908,1.8433644 0.80273438,2.3339844 c -0.033946,0.29933 -0.74654061,0.5166312 -0.3515625,0.8945312 -0.4314167,0.39512 -0.4953341,1.0115707 -0.2734375,1.5253906 -0.021093,0.52806 -0.0600684,1.0678482 0.20898437,1.5488282 0.09365,0.29693 0.30032765,0.5935431 0.58984375,0.6582031 -0.038381,0.14141 -0.1468827,0.4329606 0.125,0.3066406 0.2894653,0.52838 0.6730812,1.1142925 1.3144531,1.2265625 0.3669226,0.10312 0.6311002,0.3035744 0.9667969,0.052734 0.3955394,-0.0348 0.6225187,0.31528 1.0253906,0.21875 0.5020527,0.26445 1.0067111,0.1643869 1.4902344,-0.064453 0.3658288,-0.0592 0.8468493,-0.085049 0.84375,-0.5683594 C 7.0019021,7.8638225 7.5744958,8.0579819 7.734375,7.5761719 7.909551,7.3188919 8.1313164,7.15957 8.2402344,6.84375 8.5021564,6.71396 8.0371659,6.6068875 8.3261719,6.4296875 8.1932709,6.0598175 8.8100138,6.2735188 8.7773438,5.8554688 c -0.0033,-0.3787701 0.2567393,-0.7500575 -0.00977,-1.0234376 0.11659,-0.2990599 0.4106025,-0.6384006 0.054687,-0.9003906 0.18756,-0.29119 -0.039903,-0.466305 -0.1484375,-0.703125 0.120978,-0.3828 -0.390062,-0.5513243 -0.25,-0.9277344 C 8.0574881,1.9501913 7.7953337,1.3635038 7.3398438,1.1835938 6.9214559,1.0916937 6.8170686,0.40902752 6.3125,0.58593752 5.8481873,0.57233752 5.625255,-0.04181996 5.109375,0.09375002 4.9106076,0.03545002 4.703133,0.00350002 4.4960938,1.902968e-8 Z M 4.5644528,0.28320312 c 0.306612,0.0236 0.2624319,0.5137332 0.6523438,0.3144532 0.3702101,-0.025 0.5758129,0.3353787 0.8984375,0.2929687 0.2702087,0.42388998 0.7298348,0.74922878 1.2558594,0.66796878 0.567774,0.11226 0.3472701,0.8698187 0.7226562,1.1679687 0.375473,0.17467 0.2504223,0.6733656 0.6132812,0.8847656 -0.01689,0.22125 -0.3668616,0.5022931 0.00586,0.6269531 0.100735,0.3257001 -0.3947672,-0.2843187 -0.2539062,0.1445313 0.186332,0.47849 0.1830869,0.9916162 -0.064453,1.4101563 -0.1584939,0.23115 -0.6109145,0.4095743 -0.4003906,0.7089843 -0.051333,0.33891 -0.2886649,0.55825 -0.609375,0.59375 C 7.2932251,7.2900131 7.584071,7.7151706 7.1523443,7.5566406 6.6377565,7.5396406 6.3660549,8.0635938 6.1972656,8.4335938 5.8756375,8.3645937 5.5595839,8.285425 5.3066406,8.546875 4.9266499,8.570575 4.5402189,8.3084213 4.1855469,8.3945312 3.7923623,7.9911113 3.2533274,7.9471994 2.7363281,8.0683594 2.1051475,8.0982594 1.7867005,7.5317481 1.4453125,7.1113281 1.0246238,6.7666981 0.7679481,6.3187544 0.6171875,5.8027344 0.4153322,5.4446944 0.89182313,5.3306694 0.90820312,5.0996094 0.27281382,5.1453094 0.8961508,4.3749344 0.4921875,4.1464844 0.2577121,3.6501344 1.2479426,3.6259794 1,3.0996094 1.2111866,2.8149494 1.706726,2.4913331 1.4003906,2.0957031 1.8022627,1.9637231 2.0918711,1.5496081 2.1894531,1.1425781 2.0741451,0.83585812 2.4047377,0.69384622 2.4785156,1.0351562 c 0.4229068,0.0599 0.8799876,-0.20642368 1.296875,-0.089844 0.216072,-0.1945 0.065507,-0.5011644 0.4453125,-0.5527344 0.1069167,-0.0551 0.2217927,-0.104265 0.3437497,-0.1093747 z m 0.703125,1.82421878 c -0.065519,-0.00187 -0.1278784,0.019397 -0.1777343,0.09375 -0.1139549,0.16989 0.3286369,0.309385 0.5253906,0.390625 0.2630231,0.061 0.2638492,0.032318 0.4570312,0.2363281 0.2232052,0.19447 0.3617835,0.4681656 0.4023438,0.7597656 0.00308,0.20444 0.3094956,0.5038388 0.375,0.1679688 C 6.8568394,3.3516494 6.6140742,2.9885731 6.3632812,2.6894531 6.0752694,2.3288431 5.9456387,2.2685494 5.515625,2.1621094 5.4410915,2.1501281 5.3518173,2.1098249 5.2675778,2.1074219 Z M 3.6796875,2.71875 C 3.6538305,2.71726 3.6230045,2.7197106 3.5878905,2.72852 3.3182779,2.75302 3.0639526,2.8607194 2.8261718,2.9843794 2.5330037,3.1822994 2.3679718,3.516745 2.1796874,3.806645 2.0034708,4.049845 1.9546343,4.358705 2.0136718,4.650395 2.1191966,5.223595 2.3489828,5.4924713 2.7343749,5.9355513 2.9421383,6.0885469 3.1986182,5.92676 2.9550781,5.65625 2.5780374,5.18751 2.3642854,5.098195 2.3359375,4.484375 2.3727495,4.045775 2.5727001,3.6149544 2.8828125,3.3027344 3.0942266,3.1454144 3.384644,3.1450962 3.609375,3.0039062 3.8194524,2.9614687 3.8606864,2.7291518 3.6796875,2.71875 Z M 4.5800781,4.0625 C 4.39011,4.0703267 4.2028553,4.1990894 4.0761719,4.3574219 3.8800119,4.7170519 4.3703356,5.1086931 4.6972656,4.8144531 4.9914956,4.5202131 4.9265494,4.0625 4.5996094,4.0625 c -0.00613,0 -0.013403,-2.525e-4 -0.019531,0 z M 6.5996094,4.9179688 C 6.453338,4.9150037 6.362074,5.1509319 6.3515625,5.2753906 6.3150305,5.5681006 6.3128233,5.5956637 6.2539062,5.7460938 6.1526751,5.9417338 5.3424454,6.6558 4.625,6.65625 4.359549,6.69815 4.1439036,6.4574056 4.0097656,6.5722656 3.9233076,6.7847556 4.164377,6.9344637 4.3925781,6.9960938 4.9124583,7.0846937 5.3861983,6.8407719 5.8125,6.5761719 6.1838206,6.3197519 6.5958899,6.0296394 6.7167969,5.5683594 6.8074719,5.2539594 6.8666227,5.1531806 6.7089844,4.9628906 6.66978,4.9326263 6.6333643,4.918653 6.5996094,4.9179688 Z" />
</svg>
