<?xml version="1.0" encoding="UTF-8" standalone="no"?>
<!-- Created with Inkscape (http://www.inkscape.org/) -->

<svg
   version="1.1"
   width="5"
   height="5"
   viewBox="0 0 5 5"
   id="svg2"
   xmlns="http://www.w3.org/2000/svg"
   xmlns:svg="http://www.w3.org/2000/svg">
  <defs
     id="defs1" />
  <rect
     width="5"
     height="5"
     x="0"
     y="0"
     id="canvas"
     style="visibility:hidden;fill:none;stroke:none" />
  <path
     id="path106"
     style="fill:#000000"
     d="M 2.4980469,0 C 2.2567149,-1.9984492e-5 1.9882644,0.05436941 1.8339844,0.25585941 1.6908884,0.20325941 1.3978537,0.16063061 1.4023438,0.40039061 1.0905658,0.21297061 1.155904,0.72789441 0.875,0.74023441 0.664056,0.80513441 0.3962485,1.024305 0.4453125,1.296875 c -0.01886,0.16629 -0.41279238,0.2861538 -0.19335938,0.4960938 -0.23967599,0.21951 -0.30687004,0.5582899 -0.18359375,0.84375 -0.01172,0.2933699 -0.0029436,0.5980143 0.14648438,0.8652343 0.05203,0.16495 0.167282,0.3293044 0.328125,0.3652344 -0.02132,0.0786 -0.0826906,0.2401019 0.0683594,0.1699219 0.16081401,0.29355 0.37415073,0.6192706 0.73046875,0.6816406 0.203846,0.0573 0.3506113,0.1687169 0.5371093,0.029297 0.2197441,-0.0194 0.1394633,0.2313643 0.3632813,0.1777343 0.278918,0.14692 0.7665322,0.035303 1.0351563,-0.091797 0.2032379,-0.0329 0.4704719,-0.045993 0.46875,-0.3144532 0.144286,-0.14944 0.4619592,-0.042807 0.5507812,-0.3105468 0.09732,-0.14293 0.22074,-0.2308 0.28125,-0.40625 0.145513,-0.0721 -0.1117289,-0.1320188 0.048828,-0.2304688 -0.07383,-0.20548 0.26815,-0.088023 0.25,-0.3203125 -0.0019,-0.21043 0.1421986,-0.4164793 -0.00586,-0.5683593 0.06477,-0.16614 0.2270248,-0.3544501 0.029297,-0.5 C 5.00459,2.0218236 4.878659,1.9245387 4.818359,1.7929687 4.8855694,1.5802988 4.6018755,1.4864537 4.6796875,1.2773438 4.4761655,1.0825737 4.331175,0.75815311 4.078125,0.65820311 3.845687,0.60710311 3.842817,0.21617311 3.5625,0.31445311 3.304549,0.30645311 3.1244906,-0.02257561 2.8378906,0.05273441 2.7274646,0.02033441 2.6130689,0.00200001 2.4980469,0 Z M 2.3945312,0.25781251 c 0.086657,-0.00378 0.1041571,0.097209 0.1738282,0.072266 0.17034,0.0131 0.1134601,0.1131632 0.3300781,0.00195 0.205672,-0.0139 0.2875609,0.2403568 0.4667969,0.2167968 C 3.6479334,0.70145811 3.74091,0.91089321 4,0.97070311 c 0.31543,0.0624 0.2250467,0.38514129 0.4335938,0.55078129 0.208596,0.097 -0.010187,0.3727843 0.1914062,0.4902344 -0.0094,0.12291 -0.04496,0.2412868 0.1621094,0.3105468 0.05596,0.18094 -0.2208341,-0.070261 -0.1425782,0.1679688 0.1035181,0.26583 0.047676,0.4510737 -0.089844,0.6835937 C 4.4666375,3.3022381 4.267358,3.3689225 4.3125,3.6015625 4.22929,3.7898425 4.2816866,3.85528 4.1035156,3.875 4.0526556,3.98295 4.146094,4.2736169 3.90625,4.1855469 3.620368,4.1765469 3.4238501,4.3335025 3.3300781,4.5390625 3.1513961,4.5006625 3.0897427,4.5249119 2.9492188,4.6699219 2.7381127,4.6830219 2.4880556,4.5361944 2.2910156,4.5839844 2.0257056,4.4692444 1.7833148,4.3526119 1.4960938,4.4199219 1.1454378,4.4365219 1.0705194,4.1613044 0.88085938,3.9277344 0.64714337,3.7362744 0.58766225,3.5796488 0.50390625,3.2929688 c -0.112142,-0.1989001 -0.009144,-0.3325775 0,-0.4609376 -0.352994,0.0254 0.1072325,-0.357455 -0.1171875,-0.484375 C 0.25645475,2.0719063 0.69438563,2.0131331 0.55664062,1.7207031 0.67396563,1.5625631 0.99635885,1.422915 0.82617188,1.203125 1.0494349,1.129825 1.1797562,0.88376311 1.4101562,0.75195311 c 0.2304011,-0.13182 0.4558961,-0.2933256 0.6875,-0.2285156 0.12004,-0.10806 0.013605,-0.2154906 0.2246094,-0.2441406 0.028831,-0.014869 0.052268,-0.020613 0.072266,-0.0214844 z M 2.59375,2.1386719 C 2.4361555,2.1453688 2.2808771,2.2551453 2.1757812,2.390625 2.0130492,2.698355 2.4201883,3.03302 2.6914062,2.78125 2.9354973,2.52948 2.880599,2.1386719 2.609375,2.1386719 c -0.00509,0 -0.010541,-2.161e-4 -0.015625,0 z" />
</svg>
