<?xml version="1.0" encoding="UTF-8" standalone="no"?>
<svg
   width="14"
   height="14"
   viewBox="0 0 14 14"
   version="1.1"
   id="svg4"
   xmlns="http://www.w3.org/2000/svg"
   xmlns:svg="http://www.w3.org/2000/svg">
  <rect
     width="14"
     height="14"
     x="0"
     y="0"
     id="canvas"
     style="fill:none;stroke:none;visibility:hidden" />
  <path
     d="M7,0 A2,2 0 0 0 7,4 A2,2 0 0 0 7,0 z M6.9570312,4.6816406 C5.2902834,4.6850809 3.6375829,5.2168626 2,6.2675781 C3.353007,7.1708985 4.4623594,8.2534157 4.4355469,9.7753906 L9.5410156,9.7753906 C9.4718986,8.2352704 10.815039,7.1150008 12,6.2675781 C10.304574,5.2031015 8.6237792,4.6782004 6.9570312,4.6816406 z M5,11 v1 h4 v-1 z M3,13 v1 h8 v-1 z"
     style="fill:#000000"
     id="path2" />
</svg>
