<?xml version="1.0" encoding="UTF-8" standalone="no"?>
<svg
   width="12"
   height="12"
   viewBox="0 0 12 12"
   version="1.1"
   id="svg385"
   xmlns="http://www.w3.org/2000/svg"
   xmlns:svg="http://www.w3.org/2000/svg">
  <rect
     width="14"
     height="14"
     x="0"
     y="0"
     id="canvas"
     style="fill:none;stroke:none;visibility:hidden" />
  <path
     d="m1.5,1 a1.5,1.5 0 0 0 -1.5,1.5 v7 a1.5,1.5 0 0 0 1.5,1.5 h9 a1.5,1.5 0 0 0 1.5,-1.5 v-7 a1.5,1.5 0 0 0 -1.5,-1.5 z m0,1 a.5,.5 0 0 1 0,1 a.5,.5 0 0 1 0,-1 z m0,7 a.5,.5 0 0 1 0,1 a.5,.5 0 0 1 0,-1 z m9,0 a.5,.5 0 0 1 0,1 a.5,.5 0 0 1 0,-1 z m0,-7 a.5,.5 0 0 1 0,1 a.5,.5 0 0 1 0,-1 z m-6.5,1 h1 v1 h-1 z m2,0 h2 v1 h-2 z m-4,2 h8 v1 h-8 z m2,2 h4 v1 h-4 z"
     style="fill:#000000"
     id="path383" />
</svg>
