<?xml version="1.0" encoding="UTF-8" standalone="no"?>
<svg
   version="1.1"
   id="svg2"
   height="5"
   width="8"
   xmlns="http://www.w3.org/2000/svg"
   xmlns:svg="http://www.w3.org/2000/svg">
  <path
     id="rect412"
     style="fill:#b2b2b2"
     d="M 0,2.5 V 5 H 8 V 2.5 H 6 L 4.25,3.75 3.4492188,2.5 Z" />
  <rect
     width="8"
     height="5"
     x="0"
     y="0"
     id="rect8566"
     style="fill:none;fill-opacity:1" />
  <path
     id="path2734-0"
     style="fill:#000000"
     d="m 0,2.2501382 v 0.5 h 2.941406 c 0,0 0.316196,0.16512 0.429065,0.25936 0.294162,0.24558 0.486332,0.54002 0.65492,0.85783 0.117124,0.22079 0.238281,0.71093 0.238281,0.71093 0.07755,0.22454 0.355924,0.23765 0.433472,0.0131 0,0 0.02187,-0.19792 0.02165,-0.29056 -3.27e-4,-0.13954 -0.0631,-0.29666 -0.0631,-0.29666 -0.04271,-0.12616 -0.202122,-0.39911 -0.20647,-0.4044 0,0 -0.149045,-0.25184 -0.229822,-0.37377 -0.0825,-0.12453 -0.259989,-0.36501 -0.259989,-0.36501 C 3.748153,2.6656282 3.299534,2.2573682 3,2.2501382 Z m 5.986328,0 c -0.0337,0.002 -0.156695,-0.0116 -0.311228,0.0842 l -0.1889,0.11706 c -0.03446,0.017 -0.162072,0.11784 -0.185422,0.14834 0,0 -0.196339,0.19558 -0.25132,0.34974 -0.04822,0.13522 -0.08123,0.39268 0.0056,0.507 0.05623,0.074 0.117326,0.0617 0.204716,0.0299 0.21113,-0.0766 0.231851,-0.39514 0.404296,-0.53906 0.112886,-0.0942 0.394535,-0.19726 0.394535,-0.19726 H 8 v -0.49992 H 6 c -0.0048,4e-5 -0.0089,-3.3e-4 -0.01367,0 z" />
</svg>
