<?xml version="1.0" encoding="UTF-8" standalone="no"?>
<svg
   id="Svg"
   width="32"
   height="31"
   version="1.1"
   xmlns="http://www.w3.org/2000/svg"
   xmlns:svg="http://www.w3.org/2000/svg">
  <path
     id="path4362"
     style="fill:#000000"
     d="m 0,15 v 0.25 0.322266 L 0.13085938,15.548828 0.16992188,15.414062 0.30664062,15.28125 0.3046875,15.25 h 0.40039062 l -0.001953,0.0098 -0.17578125,0.238281 0.140625,0.259765 0.009766,0.138672 0.27734374,0.22461 0.28710938,-0.04883 0.048828,0.152343 0.53125,0.01758 0.2988282,-0.398438 -0.1113282,-0.199219 0.1015625,0.04687 0.3828125,0.05274 0.087891,-0.222657 0.00391,-0.04492 0.095703,0.214844 0.4296875,-0.08984 -0.015625,0.09766 0.4707031,0.255859 0.3632813,-0.351562 -0.054687,-0.115235 0.083984,0.04687 -0.027344,0.04883 0.03125,0.273438 0.3105469,0.146484 0.2441406,-0.09766 0.171875,-0.179688 -0.029297,-0.113281 0.1367188,0.21875 0.4921875,-0.07422 L 5.4707031,15.365234 5.4160156,15.25 h 0.2070313 l 0.015625,0.02148 0.3398437,0.0918 0.234375,-0.09375 0.00195,-0.01953 h 0.1015624 l 0.029297,0.21875 0.2871094,0.255859 0.1308594,-0.07422 0.00195,0.0039 0.042969,0.275391 0.2597656,0.240234 0.25,0.02539 0.1328125,-0.220703 0.021484,-0.08008 0.2578126,0.04297 0.2402343,-0.152344 0.072266,-0.365234 L 7.8320312,15.25 H 8.203125 l 0.00195,0.0039 0.2148438,0.152344 0.2734375,0.002 L 8.7929688,15.25 H 9.1875 l -0.087891,0.04492 -0.1796875,0.164062 -0.042969,0.355469 -0.1582031,-0.09766 -0.4355469,0.144531 -0.09375,0.53125 0.4628907,0.261719 0.4492187,-0.212891 -0.015625,-0.496094 0.076172,0.03711 0.34375,-0.07813 0.1640625,-0.191406 -0.03125,-0.06836 0.021484,0.01953 0.3027344,-0.11914 L 10.013672,15.25 h 0.242187 l 0.0078,0.07227 -0.0039,-0.002 -0.2656254,0.1875 0.02539,0.322266 0.275391,0.22461 0.308594,-0.05078 0.277343,-0.160156 -0.121093,-0.345703 0.07031,-0.0293 0.171875,-0.179688 -0.0098,-0.03906 h 0.02148 v 0.0059 l 0.222656,0.07227 0.0098,0.0078 -0.113282,0.08203 0.02344,0.320312 0.275391,0.22461 0.308593,-0.05078 0.277344,-0.160156 -0.128906,-0.361328 -0.128906,-0.0078 L 11.78125,15.25 h 0.132812 l 0.25,0.246094 0.171876,-0.08399 0.0293,0.185547 0.259766,0.238282 0.25,0.02539 0.132812,-0.21875 0.03125,-0.11914 0.02539,0.03906 0.492188,-0.07422 L 13.666016,15.25 h 0.199218 l -0.04687,0.166016 0.275391,0.21875 -0.214844,0.125 0.09961,0.484375 0.533203,0.101562 0.15625,-0.375 0.113281,0.117188 0.289062,0.138671 0.22461,-0.310546 -0.119141,-0.203125 -0.02734,-0.294922 -0.06055,-0.02149 0.0039,-0.128906 0.09961,0.0098 0.06055,-0.02734 h 0.470703 L 15.560547,15.410156 15.375,15.75 l 0.177734,0.160156 0.210938,0.105469 0.04492,0.482422 0.429687,0.248047 0.402344,-0.292969 -0.02344,-0.433594 -0.365235,-0.277343 -0.09375,0.04297 0.01563,-0.177734 L 15.980469,15.314453 15.796875,15.25 h 0.933594 l -0.0059,0.0039 -0.02734,0.353516 0.216796,0.224609 0.289063,0.138672 0.224609,-0.310547 -0.03906,-0.06641 0.373047,0.01367 0.09961,-0.205078 0.292969,0.289062 0.476562,-0.232422 0.0332,-0.208984 h 0.25586 l 0.126953,0.08398 -0.224609,0.103516 -0.07031,0.376953 0.273438,0.205078 0.283203,-0.02148 0.234375,-0.291016 -0.136719,-0.3125 0.04492,0.002 0.05859,-0.146484 h 0.193359 l -0.01758,0.248047 0.5,0.140625 0.179687,-0.251953 0.259766,0.404297 0.498047,0.02148 0.117187,-0.244141 0.248047,-0.01758 0.22461,-0.179687 -0.0039,-0.07031 0.203125,0.314453 0.498047,0.01953 L 22.595703,15.25 h 0.501953 l -0.103515,0.359375 0.423828,0.335937 0.40039,-0.330078 -0.07031,-0.193359 0.06055,0.0625 0.289062,0.136719 0.115235,-0.160156 0.234375,0.06641 0.210937,-0.246094 -0.0098,-0.03125 h 0.03711 l 0.111328,0.105469 0.1875,-0.07422 0.01758,0.08789 0.207031,0.203125 0.376954,-0.06836 0.07422,-0.253906 h 0.357422 l 0.0293,0.275391 0.222656,0.07226 0.214844,0.203125 0.01953,-0.0078 -0.193359,0.167969 0.05664,0.33789 0.21875,0.146484 0.246093,0.03711 0.195313,-0.228516 0.05859,-0.333984 -0.306641,-0.167969 -0.238281,0.02734 0.246093,-0.09766 0.0293,-0.173829 0.03906,0.123047 0.339843,0.05664 0.240235,-0.152344 0.05664,-0.285156 h 0.392578 l -0.09961,0.119141 0.123047,0.414062 0.421875,0.181641 0.423828,-0.335938 -0.01953,-0.05469 0.109375,-0.06445 0.226562,-0.248047 0.01758,0.0039 0.0098,-0.01563 h 0.216797 l 0.05469,0.175781 0.33789,0.05469 0.05078,-0.03125 0.07617,0.09766 0.314454,-0.02148 0.09961,-0.08008 0.08984,0.02539 0.134765,-0.05273 0.01172,0.07813 0.382813,0.0098 0.09961,-0.214843 0.03125,-0.02539 0.04492,0.265625 0.21875,0.146484 0.24414,0.03711 0.158203,-0.185547 0.08984,0.08789 L 32,15.572266 V 15.25 15 Z m 1.2460938,0.25 h 0.6875 l -0.060547,0.08398 0.00195,0.07617 -0.4296875,-0.0293 -0.1523437,0.158203 -0.033203,-0.002 z m 3.1796874,0 h 0.171875 l -0.050781,0.121094 z m 3.0820313,0 h 0.0625 l -0.052734,0.01758 z m 23.2714845,0.271484 -0.322266,0.04492 -0.128906,0.294922 0.140625,0.328125 0.296875,0.09766 0.318359,-0.01367 0.05469,-0.378907 -0.199219,-0.123047 z m -13.060547,0.179688 -0.203125,0.146484 0.04492,0.253906 0.173828,0.345704 0.232422,-0.05664 0.214844,-0.117187 0.136718,-0.359376 -0.248047,-0.205078 z m 4.300781,0.0078 -0.21289,0.111328 -0.179688,0.164063 -0.04687,0.380859 0.289063,0.142578 0.34375,-0.07812 0.162109,-0.191407 -0.103516,-0.234375 z m -16.2363279,0.0078 -0.40625,0.349609 0.1992188,0.464844 0.4941406,-0.04102 0.1640625,-0.515625 z m 19.2031249,0.02344 -0.214844,0.152344 -0.123046,0.216797 0.146484,0.265625 0.291016,0.171875 0.265624,-0.226563 0.06641,-0.253906 -0.0957,-0.257812 z m 4.486328,0.03516 -0.259765,0.03516 -0.208985,0.134765 0.0059,0.300782 0.175781,0.289062 0.341797,-0.07813 0.177734,-0.193359 0.03516,-0.273438 z m -2.027344,0.02539 -0.21875,0.146485 -0.09961,0.255859 0.207031,0.273437 0.261719,0.0293 0.234375,-0.08203 0.06641,-0.292969 -0.101562,-0.322265 z m -14.220703,0.119141 -0.521484,0.121094 -0.04102,0.503906 0.457032,0.191406 0.384765,-0.378906 z M 0,15.925781 v 0.757813 l 0.04296875,0.05273 0.51757813,-0.158203 -0.0449219,-0.517578 z m 31.998047,0 -0.269531,0.427735 L 32,16.683594 v -0.757813 z m -20.681641,0.154297 -0.458984,0.189453 -0.08398,0.425781 0.289062,0.355469 0.53125,-0.09961 0.08008,-0.525391 z m 8.972656,0.0039 -0.519531,0.111328 -0.195312,0.458985 0.339843,0.361328 0.427735,-0.07422 0.230469,-0.396484 z m 5.669922,0.0059 -0.21289,0.109375 -0.179688,0.166015 -0.04687,0.38086 0.289063,0.140625 0.34375,-0.07617 0.162109,-0.191406 -0.103515,-0.234375 z m -23.0312496,0.002 -0.2460938,0.07617 -0.3222656,0.214843 0.083984,0.22461 0.1425781,0.197266 0.3730469,0.09375 0.1757812,-0.271485 -0.037109,-0.349609 z m 1.5253906,0.08203 -0.1425781,0.355469 0.1640625,0.167969 0.095703,0.279296 0.3222656,0.03516 0.1972657,-0.25586 L 5.03125,16.404297 4.7675781,16.238281 Z m 19.279297,0.134766 -0.269531,0.33789 0.08984,0.449219 0.517578,0.158203 0.314454,-0.427734 -0.158204,-0.472656 z m -22.1914064,0.08984 -0.328125,0.0957 -0.1191406,0.234375 -0.00781,0.25 0.2519531,0.166015 0.3378906,0.01758 0.1289063,-0.324218 -0.058594,-0.25586 z m 28.8535154,0.04297 -0.261719,0.121094 -0.06836,0.376953 0.273438,0.207031 0.283203,-0.02344 0.234375,-0.291016 -0.148438,-0.33789 z m -11.880859,0.08008 -0.28711,0.125 -0.230468,0.220704 0.208984,0.320312 0.232422,-0.04102 0.285156,0.08008 0.210938,-0.246093 -0.09961,-0.306641 z m 9.923828,0.527344 -0.464844,0.275391 0.167969,0.492187 0.533203,0.0078 0.160156,-0.480469 z m -15.980469,0.263672 -0.355469,0.01367 -0.197265,0.242187 -0.101563,0.304688 0.335938,0.185547 0.1875,-0.142578 0.289062,-0.0625 0.07227,-0.316407 z m -2.9355466,0.04687 -0.3144532,0.158203 -0.1132812,0.22461 0.1582031,0.203124 0.3144531,0.22461 0.1796876,-0.158203 0.1367187,-0.201172 -0.046875,-0.382813 z m 11.2148436,0.207031 -0.486328,0.09961 -0.105469,0.486328 0.302735,0.308594 0.457031,-0.03516 0.21875,-0.49414 z m 1.582031,0.208985 -0.367187,0.0625 -0.113281,0.349609 0.197265,0.248047 0.275391,0.08203 0.302734,-0.234375 -0.06836,-0.337891 z m -18.349609,0.02344 -0.2128906,0.109375 -0.1796875,0.164063 -0.046875,0.382812 0.2890625,0.140625 0.34375,-0.07813 0.1621094,-0.191406 -0.1035157,-0.234375 z m 21.724609,0.333984 -0.330078,0.09766 -0.117187,0.234375 -0.0078,0.248047 0.251953,0.166015 0.335938,0.01758 0.130859,-0.324218 -0.06055,-0.25586 z m -18.7265621,0.06055 -0.2617188,0.02734 -0.2070312,0.181641 0.056641,0.33789 0.21875,0.146485 0.2460937,0.03711 0.1953126,-0.230469 0.058594,-0.332031 z m 7.7578121,0.03125 -0.265625,0.1875 0.02344,0.322266 0.27539,0.224609 0.308594,-0.05078 0.277344,-0.160156 -0.126953,-0.361328 -0.234375,-0.01758 z m 15.923829,0.199219 -0.251954,0.201172 -0.02734,0.353516 0.216797,0.224609 0.289062,0.138672 0.224609,-0.310547 -0.11914,-0.203125 -0.02734,-0.294922 z m -13.207032,0.126953 -0.349609,0.158203 -0.01563,0.341797 0.179687,0.220703 0.371094,0.02734 0.195313,-0.314453 -0.132813,-0.285156 z m -15.6152341,0.53711 -0.3105469,0.08594 -0.2050781,0.285156 0.00586,0.251954 0.2324219,0.105468 0.3828125,0.05273 0.087891,-0.222657 0.025391,-0.242187 z M 23.308594,19.875 l -0.298828,0.04297 -0.265625,0.208984 0.117187,0.330078 0.214844,0.152344 0.27539,0.002 0.181641,-0.291016 -0.06641,-0.253906 z m 3.884765,0.447266 -0.300781,0.09766 -0.175781,0.228516 0.113281,0.365234 0.339844,0.05664 0.240234,-0.152343 0.07227,-0.365235 z m -15.833984,0.06055 -0.341797,0.177735 0.04883,0.318359 0.259766,0.238282 0.25,0.02539 0.132812,-0.21875 0.09961,-0.375 -0.210938,-0.111328 z m -4.9785156,0.541016 -0.2675782,0.06445 -0.1074218,0.324219 0.125,0.232422 0.2011718,0.146484 0.2792969,-0.111328 0.2070313,-0.269531 -0.1914063,-0.291016 z m 12.7382816,0.351563 -0.332032,0.427734 0.289063,0.447266 0.498047,0.01953 0.216797,-0.447266 -0.21875,-0.371094 z m -5.06836,0.376953 -0.205078,0.283203 -0.0039,0.263672 0.15625,0.226562 0.341797,-0.01367 0.171875,-0.201171 0.06641,-0.238282 L 14.373047,21.75 Z m -11.4804685,0.205078 -0.3300781,0.427734 0.2871094,0.447266 0.4980468,0.01953 0.21875,-0.447265 -0.2207031,-0.371094 z m 7.0273437,0.583984 -0.3125,0.158203 -0.1269531,0.230469 0.03125,0.273438 L 9.5,23.25 l 0.2441406,-0.09766 0.171875,-0.179688 -0.078125,-0.292968 z m 20.7812498,0.3125 -0.236328,0.300782 0.146484,0.310546 0.261719,0.111328 0.341797,-0.148437 0.02539,-0.367187 -0.25,-0.19336 z m -3.355468,0.925782 -0.464844,0.277343 0.166015,0.492188 0.535157,0.0078 0.160156,-0.480469 z m -10.31836,0.867187 -0.21289,0.109375 -0.179688,0.164062 -0.04687,0.382813 0.289063,0.140625 0.34375,-0.07813 0.164062,-0.191406 -0.105469,-0.234375 z m 4.398438,1.132813 -0.367188,0.0625 -0.113281,0.351562 0.197265,0.246094 0.275391,0.08398 0.302735,-0.236328 -0.06641,-0.335938 z m -15.3632816,0.18164 -0.40625,0.339844 0.039063,0.496094 0.4707031,0.162109 0.3417969,-0.263672 0.021484,-0.457031 z m 7.2187496,1.359375 -0.203125,0.490235 0.265625,0.419921 0.492188,-0.07422 0.18164,-0.392579 L 13.5,27.25 Z M 1.7714844,27.322266 1.5253906,27.34375 1.390625,27.615234 1.4121094,27.951172 1.75,28.041016 l 0.2480469,-0.08984 0.15625,-0.22461 -0.1347657,-0.314453 z m 22.1757816,0.521484 -0.171875,0.296875 0.05664,0.279297 0.316407,0.195312 0.316406,-0.1875 0.01563,-0.314453 -0.152344,-0.246093 z m -14.0312504,0.400391 -0.5039062,0.02148 -0.1367188,0.476563 0.4238282,0.335937 0.4003902,-0.330078 z" />
  <rect
     style="fill:none;fill-opacity:1;stroke:none"
     id="rect13927"
     width="32"
     height="31"
     x="0"
     y="0" />
</svg>
