<?xml version="1.0" encoding="UTF-8" standalone="no"?>
<svg
   id="Svg"
   width="32"
   height="32"
   version="1.1"
   xmlns="http://www.w3.org/2000/svg"
   xmlns:svg="http://www.w3.org/2000/svg">
  <defs
     id="defs5403" />
  <path
     id="path5528"
     style="fill:#000000"
     d="m 22.09771,2.2322468 -0.248047,0.035156 -0.07813,0.2460937 -0.0059,0.3867188 0.232421,0.058594 0.242188,-0.00391 0.289062,-0.2539063 -0.123046,-0.2988281 z m 5.353297,2.8075403 -0.341797,0.1777344 0.04883,0.3183594 0.259766,0.2382812 0.25,0.027344 0.132812,-0.2207031 0.09961,-0.3730469 -0.210938,-0.1132812 z m -9.806439,-0.045237 -0.298828,0.097656 -0.175781,0.2285156 0.113281,0.3652344 0.337891,0.056641 0.240234,-0.1523437 0.07227,-0.3652344 z m 9.324183,3.9195126 -0.197266,0.4980469 0.392578,0.3183594 0.416016,-0.265625 -0.09375,-0.5332032 z m -7.720703,0.3808594 -0.244141,0.1757812 -0.136719,0.3085938 0.25586,0.2363282 0.261719,0.03516 0.24414,-0.1249999 0.02734,-0.3417968 -0.177734,-0.1953125 z m 3.550446,-1.9283455 -0.259766,0.03516 -0.208984,0.134766 0.0059,0.302734 0.175781,0.287109 0.341797,-0.07617 0.177735,-0.195313 0.03516,-0.271484 z m 0.33057,3.3170467 -0.220703,0.226562 -0.05078,0.283204 0.271485,0.271484 0.326172,-0.107422 0.142578,-0.246094 -0.107422,-0.357422 z m -6.091954,0.472624 -0.314453,0.158203 -0.113281,0.224609 0.158203,0.203126 0.314453,0.224609 0.179688,-0.158203 0.136718,-0.201172 -0.04687,-0.382813 z m 3.38553,0.549653 -0.539063,0.0293 -0.08008,0.511719 0.470703,0.255859 0.363281,-0.351562 z m 7.658932,0.346667 -0.205078,0.490234 0.265625,0.421875 0.492188,-0.07422 0.18164,-0.392578 -0.195312,-0.416016 z m -7.532705,1.992602 -0.492188,0.226562 0.04687,0.529297 0.431641,0.248047 0.40039,-0.294922 -0.02148,-0.431641 z m -3.605507,-0.357674 -0.30664,0.177734 -0.0625,0.306641 0.05078,0.316406 0.384766,0.0078 0.09766,-0.212891 0.228515,-0.189453 -0.08398,-0.3125 z m 7.626953,0.160156 -0.46875,0.160156 -0.03711,0.539063 0.5,0.142578 0.310547,-0.4375 z m 5.835938,0.728529 -0.246094,0.177734 -0.136718,0.308594 0.257812,0.236328 0.261719,0.03516 0.242187,-0.126953 0.02734,-0.339843 -0.177734,-0.195313 z m -12.040329,0.435232 -0.171875,0.294922 0.05664,0.279297 0.316406,0.197265 0.31836,-0.189453 0.01563,-0.314453 -0.152344,-0.24414 z M 16.3125,15.138672 16.042969,15.228516 16,15.320312 v 1.001954 l 0.130859,-0.02344 0.03906,-0.134766 0.136719,-0.132812 -0.0078,-0.185547 0.125,-0.0098 0.22461,-0.177735 -0.01367,0.0332 0.103515,0.136719 -0.03516,0.181641 -0.175781,0.238281 0.140625,0.259765 0.0098,0.138672 0.277344,0.22461 0.28711,-0.04883 0.04883,0.152343 0.53125,0.01758 L 18,16.755859 l 0.02271,-0.286254 -0.0922,-0.17208 -0.157953,-0.110075 -0.327252,-0.05659 -0.152343,0.158203 -0.0332,-0.002 -0.01367,-0.296875 -0.01758,-0.04101 0.109375,-0.03711 0.06641,-0.294921 -0.101563,-0.322266 -0.349609,-0.0059 -0.21875,0.146485 -0.08398,0.216797 -0.02344,-0.378906 z m 5.012378,1.363718 -0.40625,0.349609 0.199219,0.464844 0.49414,-0.04102 0.164063,-0.515625 z m 5.916831,-0.297144 -0.521484,0.121094 -0.04102,0.503906 0.457032,0.191406 0.384765,-0.378906 z m -11.241708,0.470535 v 0.757813 l 0.04297,0.05273 0.517578,-0.158203 -0.04492,-0.517578 z m 3.350632,0.03269 -0.246093,0.07617 -0.322266,0.214843 0.08398,0.22461 0.142578,0.197266 0.373047,0.09375 0.175782,-0.271485 -0.03711,-0.349609 z m -1.809616,0.440039 -0.328125,0.0957 -0.119141,0.234375 -0.0078,0.25 0.251954,0.166015 0.33789,0.01758 0.128906,-0.324218 -0.05859,-0.25586 z m 8.413541,2.227073 -0.314453,0.158203 -0.113281,0.22461 0.158203,0.203124 0.314453,0.22461 0.179688,-0.158203 0.136718,-0.201172 -0.04687,-0.382813 z m -4.538351,0.433904 -0.261719,0.02734 -0.207031,0.181641 0.05664,0.33789 0.21875,0.146485 0.246094,0.03711 0.195313,-0.230469 0.05859,-0.332031 z m 7.712277,0.772028 -0.265625,0.1875 0.02344,0.322266 0.27539,0.224609 0.308594,-0.05078 0.277344,-0.160156 -0.126953,-0.361328 -0.234375,-0.01758 z m -11.302311,-0.743547 -0.310547,0.08594 -0.205078,0.285156 0.0059,0.251954 0.232422,0.105468 0.382813,0.05273 0.08789,-0.222657 0.02539,-0.242187 z m 0.74414,2.769531 -0.330078,0.427734 0.28711,0.447266 0.498047,0.01953 0.21875,-0.447265 -0.220704,-0.371094 z m 3.169922,4.003906 -0.40625,0.339844 0.03906,0.496094 0.470703,0.162109 0.341797,-0.263672 0.02148,-0.457031 z m -3.96875,1.460938 -0.246093,0.02148 -0.134766,0.271484 0.02148,0.335938 0.337891,0.08984 0.248047,-0.08984 0.15625,-0.22461 -0.134766,-0.314453 z m 5.869071,-5.48307 -0.503907,0.02148 -0.136718,0.476563 0.423828,0.335937 0.40039,-0.330078 z" />
  <rect
     width="32"
     height="32"
     rx="0"
     x="0"
     y="0"
     id="rect8566"
     style="fill:none;fill-opacity:1;stroke:none" />
</svg>
