<?xml version="1.0" encoding="UTF-8" standalone="no"?>
<svg
   width="6"
   height="6"
   viewBox="0 0 6 6"
   version="1.1"
   id="svg1"
   xmlns="http://www.w3.org/2000/svg"
   xmlns:svg="http://www.w3.org/2000/svg">
  <defs
     id="defs1" />
  <path
     id="path3"
     style="stroke-width:1"
     d="M 0.59960938 0 L 0 0.59960938 L 2.4003906 3 L 0 5.4003906 L 0.59960938 6 L 3 3.5996094 L 5.4003906 6 L 6 5.4003906 L 3.5996094 3 L 6 0.59960938 L 5.4003906 0 L 3 2.4003906 L 0.59960938 0 z M 2 0 L 3 1 L 4 0 L 3 0 L 2 0 z M 0 2 L 0 3 L 0 4 L 1 3 L 0 2 z M 6 2 L 5 3 L 6 4 L 6 3 L 6 2 z M 3 5 L 2 6 L 3 6 L 4 6 L 3 5 z " />
</svg>
