<?xml version="1.0" encoding="UTF-8" standalone="no"?>
<svg
   width="8"
   height="8"
   viewBox="0 0 8 8"
   version="1.1"
   id="svg1"
   xmlns="http://www.w3.org/2000/svg"
   xmlns:svg="http://www.w3.org/2000/svg">
  <defs
     id="defs1" />
  <path
     id="path1"
     style="stroke-width:1"
     d="M 0 0 L 0 8 L 8 8 L 8 0 L 0 0 z M 1 1 L 7 1 L 7 2 L 6.5 2 L 6 2 L 6 2.5 L 6.5 2.5 L 6.5 3 L 4 3 L 4 3.5 L 4.5 3.5 L 4.5 4 L 2 4 L 2 4.5 L 2.5 4.5 L 2.5 5 L 1 5 L 1 1 z M 5 3.5 L 6.5 3.5 L 7 3.5 L 7 7 L 1 7 L 1 5.5 L 3 5.5 L 3 5 L 3 4.5 L 5 4.5 L 5 4 L 5 3.5 z " />
</svg>
