<?xml version="1.0" encoding="UTF-8" standalone="no"?>
<svg
   id="svg2"
   height="20"
   width="20"
   version="1.0"
   xmlns="http://www.w3.org/2000/svg"
   xmlns:svg="http://www.w3.org/2000/svg">
  <defs
     id="defs1" />
  <rect
     width="20"
     height="20"
     x="0"
     y="0"
     id="canvas"
     style="fill:none;stroke:none;visibility:hidden" />
  <path
     id="path3457"
     style="fill:#000000"
     d="M 10.925781 1.25 L 10.228516 2.265625 C 10.055761 2.5048917 10.09697 2.7120298 10.349609 2.8847656 C 10.588451 3.0307635 10.79404 2.9895551 10.966797 2.7636719 L 11.365234 2.1660156 L 17.583984 6.2539062 L 12.501953 7.1699219 C 12.315813 7.2096717 12.165662 7.3061141 12.052734 7.4589844 C 11.939789 7.6118711 11.90976 7.7745259 11.962891 7.9472656 L 13.058594 12.232422 L 9.4707031 17.59375 C 9.4041923 17.712972 9.3710878 17.839646 9.3710938 17.972656 C 9.3710883 18.185144 9.4486781 18.368605 9.6015625 18.521484 C 9.7544355 18.674362 9.93594 18.749997 10.148438 18.75 C 10.427423 18.749997 10.653416 18.617176 10.826172 18.351562 L 14.574219 12.710938 L 14.773438 13.488281 L 14.214844 17.712891 C 14.188074 17.925379 14.235835 18.114985 14.355469 18.28125 C 14.475089 18.447509 14.641016 18.5501 14.853516 18.589844 C 15.066398 18.629584 15.262157 18.587098 15.441406 18.460938 C 15.62063 18.334818 15.723223 18.166018 15.75 17.953125 L 16.328125 13.626953 C 16.341495 13.480565 16.328739 13.329293 16.289062 13.169922 L 15.011719 8.0859375 L 18.341797 7.4882812 C 18.514531 7.4619309 18.653506 7.3716384 18.759766 7.21875 C 18.866001 7.0658811 18.905655 6.9032266 18.878906 6.7304688 C 18.839152 6.5577288 18.739435 6.4126051 18.580078 6.2929688 L 10.925781 1.25 z M 12.261719 4.1992188 C 11.903237 4.1992299 11.598331 4.3224272 11.345703 4.5683594 C 11.093059 4.8143152 10.96679 5.1176942 10.966797 5.4765625 C 10.96679 5.8350472 11.09306 6.1368783 11.345703 6.3828125 C 11.598331 6.6287657 11.903237 6.7519614 12.261719 6.7519531 C 12.62059 6.7519614 12.93032 6.6287664 13.189453 6.3828125 C 13.448568 6.1368783 13.578115 5.8350472 13.578125 5.4765625 C 13.578115 5.1176942 13.448568 4.8143152 13.189453 4.5683594 C 12.93032 4.3224272 12.62059 4.1992299 12.261719 4.1992188 z M 2.4453125 6.1308594 C 2.3923917 6.1340294 2.3433115 6.1550894 2.3046875 6.1914062 L 1.1855469 7.2382812 C 1.0861781 7.3309162 1.0895626 7.490486 1.1933594 7.578125 L 4.234375 10.179688 L 4.1582031 10.683594 L 1.1933594 13.220703 C 1.0895583 13.308343 1.0861745 13.46596 1.1855469 13.558594 L 2.3046875 14.605469 C 2.4045723 14.698919 2.5628162 14.683376 2.6425781 14.572266 L 3.8066406 12.986328 L 3.0957031 17.662109 C 3.1157698 17.735499 7.0988875 17.662008 7.1992188 17.710938 C 7.256964 17.739103 6.9346423 15.119183 6.6445312 12.830078 L 7.921875 14.572266 C 8.0015808 14.681361 8.1582296 14.696784 8.2578125 14.605469 L 9.3769531 13.558594 C 9.4763209 13.465964 9.4729374 13.308342 9.3691406 13.220703 L 6.3671875 10.650391 C 6.3365615 10.413895 6.3280513 10.346677 6.3085938 10.197266 L 9.3691406 7.578125 C 9.4729423 7.4904872 9.4763149 7.3309166 9.3769531 7.2382812 L 8.2578125 6.1914062 C 8.2135589 6.1499193 8.1543625 6.1284755 8.09375 6.1308594 C 8.0249666 6.134529 7.9619495 6.1685858 7.921875 6.2246094 L 5.6933594 9.2636719 L 5.2890625 9.0097656 L 4.8710938 9.2597656 L 2.6425781 6.2246094 C 2.5973775 6.1613862 2.5229059 6.1264391 2.4453125 6.1308594 z " />
</svg>
