<?xml version="1.0" encoding="UTF-8" standalone="no"?>
<svg
   id="svg2"
   height="20"
   width="20"
   version="1.0"
   xmlns="http://www.w3.org/2000/svg"
   xmlns:svg="http://www.w3.org/2000/svg"
   xmlns:rdf="http://www.w3.org/1999/02/22-rdf-syntax-ns#"
   xmlns:cc="http://creativecommons.org/ns#"
   xmlns:dc="http://purl.org/dc/elements/1.1/">
  <rect
     width="20"
     height="20"
     x="0"
     y="0"
     id="canvas"
     style="fill:none;stroke:none;visibility:hidden" />
  <path
     style="fill:#000000;ill-opacity:0.666667;"
     d="M 3.0955941,17.662924 4.3246716,9.5869246 5.2882633,9.0099547 6.230845,9.6023126 c 0,0 1.0686808,8.1584844 0.9683485,8.1095464 -0.1003314,-0.04893 -4.0835327,0.02446 -4.1035994,-0.04893 z"
     id="path3457" />
  <path
     id="path4180"
     style="fill:#000000"
     d="M 10.925781 1.25 L 10.228516 2.265625 C 10.055761 2.5048919 10.096969 2.7120296 10.349609 2.8847656 C 10.588451 3.0307636 10.79404 2.9895554 10.966797 2.7636719 L 11.365234 2.1660156 L 17.583984 6.2539062 L 12.501953 7.1699219 C 12.315813 7.2096718 12.165662 7.306114 12.052734 7.4589844 C 11.939789 7.6118713 11.90976 7.7745257 11.962891 7.9472656 L 13.058594 12.232422 L 9.4707031 17.59375 C 9.4041922 17.712972 9.3710878 17.839646 9.3710938 17.972656 C 9.3710883 18.185144 9.4486779 18.368604 9.6015625 18.521484 C 9.7544357 18.674362 9.9359403 18.749997 10.148438 18.75 C 10.427424 18.749997 10.653416 18.617176 10.826172 18.351562 L 14.574219 12.710938 L 14.773438 13.488281 L 14.214844 17.712891 C 14.188074 17.92538 14.235835 18.114985 14.355469 18.28125 C 14.475089 18.447509 14.641016 18.5501 14.853516 18.589844 C 15.066399 18.629584 15.262157 18.587099 15.441406 18.460938 C 15.62063 18.334818 15.723223 18.166018 15.75 17.953125 L 16.328125 13.626953 C 16.341495 13.480565 16.328739 13.329293 16.289062 13.169922 L 15.011719 8.0859375 L 18.341797 7.4882812 C 18.514531 7.4619308 18.653506 7.3716386 18.759766 7.21875 C 18.866001 7.0658809 18.905655 6.9032268 18.878906 6.7304688 C 18.839152 6.5577287 18.739435 6.4126053 18.580078 6.2929688 L 10.925781 1.25 z M 12.261719 4.1992188 C 11.903237 4.19923 11.598331 4.322427 11.345703 4.5683594 C 11.093059 4.8143155 10.96679 5.1176938 10.966797 5.4765625 C 10.96679 5.8350476 11.09306 6.1368781 11.345703 6.3828125 C 11.598331 6.6287659 11.903237 6.7519614 12.261719 6.7519531 C 12.620591 6.7519614 12.93032 6.6287666 13.189453 6.3828125 C 13.448568 6.1368781 13.578115 5.8350476 13.578125 5.4765625 C 13.578115 5.1176938 13.448568 4.8143155 13.189453 4.5683594 C 12.93032 4.322427 12.620591 4.19923 12.261719 4.1992188 z M 2.4453125 6.1308594 C 2.3923916 6.1340294 2.3433115 6.1550893 2.3046875 6.1914062 L 1.1855469 7.2382812 C 1.086178 7.3309162 1.0895625 7.4904859 1.1933594 7.578125 L 4.4902344 10.398438 L 1.1933594 13.220703 C 1.0895582 13.308343 1.0861744 13.46596 1.1855469 13.558594 L 2.3046875 14.605469 C 2.4045724 14.698919 2.5628161 14.683376 2.6425781 14.572266 L 5.2832031 10.974609 L 7.921875 14.572266 C 8.0015809 14.681361 8.1582295 14.696784 8.2578125 14.605469 L 9.3769531 13.558594 C 9.476321 13.465964 9.4729375 13.308342 9.3691406 13.220703 L 6.0722656 10.398438 L 9.3691406 7.578125 C 9.4729424 7.4904871 9.476315 7.3309166 9.3769531 7.2382812 L 8.2578125 6.1914062 C 8.2135589 6.1499192 8.1543626 6.1284755 8.09375 6.1308594 C 8.0249665 6.134529 7.9619495 6.1685858 7.921875 6.2246094 L 5.2832031 9.8222656 L 2.6425781 6.2246094 C 2.5973774 6.1613862 2.522906 6.1264391 2.4453125 6.1308594 z M 5.2832031 10.261719 L 5.4238281 10.398438 L 5.2792969 10.537109 L 5.1386719 10.400391 L 5.2832031 10.261719 z " />
</svg>
