<?xml version="1.0" encoding="UTF-8" standalone="no"?>
<svg
   version="1.1"
   width="14"
   height="6"
   viewBox="0 0 14 6"
   id="svg4"
   xmlns="http://www.w3.org/2000/svg"
   xmlns:svg="http://www.w3.org/2000/svg">
  <defs
     id="defs1" />
  <path
     style="fill:#ff0000"
     d="M 2.7089908,5.3715075 3.746888,4.6279391 5.365698,3.1408024 7.007746,1.7001381 7.9681881,1.3128628 l 1.3632093,0.030982 1.1385876,0.2633473 0.975934,0.5731674 0.790043,0.8287688 -0.02324,2.3081607 z"
     id="path1" />
  <rect
     width="14"
     height="6"
     x="0"
     y="0"
     id="canvas"
     style="visibility:hidden;fill:none;stroke:none" />
  <path
     id="rect83-5-4"
     style="fill:#000000"
     d="M 12 0 L 12 2.3789062 C 11.614136 1.9494347 11.214455 1.6371966 10.751953 1.4277344 C 10.081114 1.1239178 9.3011657 1.0329933 8.2636719 1.0253906 C 7.3186335 1.0184526 6.4793927 1.7618627 5.5996094 2.5996094 C 4.719826 3.4373559 3.7968802 4.4039388 2.8125 4.9707031 L 2.8300781 5 L 2 5 L 0 6 L 14 6 L 14 5 L 14 0 L 12 0 z M 12.625 0.5 L 13.375 0.5 L 13.375 5 L 12.625 5 L 12.625 0.5 z M 7.7636719 1.625 L 9 1.625 L 9 1.75 L 10.1875 1.75 C 10.311938 1.7886678 10.432116 1.8317237 10.544922 1.8828125 C 10.623238 1.9182809 10.698743 1.9577508 10.773438 2 L 8 2 L 8 2.125 L 10.5 2.125 L 10.5 2.25 L 11.146484 2.25 C 11.241049 2.3245264 11.333139 2.4093803 11.425781 2.5 L 9.5 2.5 L 9.5 2.75 L 11.662109 2.75 C 11.730553 2.8281157 11.799742 2.9113999 11.869141 3 L 8.5 3 L 8.5 3.125 L 11 3.125 L 11 3.25 L 12 3.25 L 12 3.5 L 10 3.5 L 10 3.75 L 12 3.75 L 12 4 L 9 4 L 9 4.125 L 11.5 4.125 L 11.5 4.25 L 12 4.25 L 12 4.5 L 10.5 4.5 L 10.5 4.75 L 12 4.75 L 12 5 L 10.25 5 L 10.25 5.125 L 12 5.125 L 12 5.25 L 3.3144531 5.25 C 4.2877712 4.6267993 5.1454701 3.7226562 5.9433594 2.9628906 C 6.601603 2.3360984 7.2168855 1.8301708 7.7636719 1.625 z " />
</svg>
