<?xml version="1.0" encoding="UTF-8" standalone="no"?>
<svg
   version="1.1"
   width="14"
   height="14"
   viewBox="0 0 14 14"
   id="svg2"
   xmlns="http://www.w3.org/2000/svg"
   xmlns:svg="http://www.w3.org/2000/svg">
  <defs
     id="defs1" />
  <rect
     width="14"
     height="14"
     x="0"
     y="0"
     id="canvas"
     style="fill:none;stroke:none;visibility:hidden" />
  <path
     id="rect98-3"
     style="fill:#000000"
     d="M 3 0 L 3 13 L 2 13 L 2 14 L 3 14 L 3.75 14 L 8 14 L 8 13 L 7 13 L 7 4 L 12 4 L 12 6.375 C 12.00031 6.6012398 12.152494 6.9240919 12.371094 6.9824219 C 12.413094 6.9939219 12.45649 6.9998 12.5 7 A 0.5 0.5 0 0 1 13 7.5 A 0.5 0.5 0 0 1 12.5 8 A 0.5 0.5 0 0 1 12.03125 7.6699219 C 12.01975 7.6556219 12.0094 7.6411 12 7.625 C 12 7.625 11.77614 7.25 11.5 7.25 C 11.22386 7.25 11 7.4738603 11 7.75 C 11 8.3552994 11.563452 8.7426089 11.925781 8.8867188 C 12.488191 9.1104085 13.132647 8.9884364 13.560547 8.5605469 C 13.988546 8.1325473 14.118319 7.4849707 13.886719 6.9257812 C 13.721519 6.5268716 13.3936 6.2276005 13 6.0878906 L 13 4 L 13.5 4 L 13.5 3 L 13 3 L 7 0 L 6.375 0 L 3.75 0 L 3 0 z M 3.75 0.5 L 5 0.5 L 5 0.75 L 5.5 0.75 L 5.5 1 L 6 1 L 6 1.5 L 5.75 1.5 L 5 1.5 L 5 1.75 L 5.5 1.75 L 5.5 2 L 6 2 L 6 2.5 L 5.75 2.5 L 5 2.5 L 5 2.75 L 5.5 2.75 L 5.5 3 L 6 3 L 6 3.5 L 5.75 3.5 L 5 3.5 L 5 3.75 L 5.5 3.75 L 5.5 4 L 6 4 L 6 4.5 L 5.75 4.5 L 5 4.5 L 5 4.75 L 5.5 4.75 L 5.5 5 L 6 5 L 6 5.5 L 5.75 5.5 L 5 5.5 L 5 5.75 L 5.5 5.75 L 5.5 6 L 6 6 L 6 6.5 L 5.75 6.5 L 5 6.5 L 5 6.75 L 5.5 6.75 L 5.5 7 L 6 7 L 6 7.5 L 5.75 7.5 L 5 7.5 L 5 7.75 L 5.5 7.75 L 5.5 8 L 6 8 L 6 8.5 L 5.75 8.5 L 5 8.5 L 5 8.75 L 5.5 8.75 L 5.5 9 L 6 9 L 6 9.5 L 5.75 9.5 L 5 9.5 L 5 9.75 L 5.5 9.75 L 5.5 10 L 6 10 L 6 10.5 L 5.75 10.5 L 5 10.5 L 5 10.75 L 5.5 10.75 L 5.5 11 L 6 11 L 6 11.5 L 5.75 11.5 L 5 11.5 L 5 11.75 L 5.5 11.75 L 5.5 12 L 6 12 L 6 12.5 L 5.75 12.5 L 5 12.5 L 5 12.75 L 5.5 12.75 L 5.5 13 L 3.75 13 L 3.75 0.5 z M 7 0.5 L 12 3 L 7 3 L 7 0.5 z " />
</svg>
