<?xml version="1.0" encoding="UTF-8" standalone="no"?>
<svg
   version="1.1"
   width="14"
   height="14"
   viewBox="0 0 14 14"
   id="svg2"
   xmlns="http://www.w3.org/2000/svg"
   xmlns:svg="http://www.w3.org/2000/svg">
  <defs
     id="defs1" />
  <rect
     width="14"
     height="14"
     x="0"
     y="0"
     id="canvas"
     style="visibility:hidden;fill:none;stroke:none" />
  <path
     id="path104-9-4-5"
     style="fill:#000000"
     d="M 9.5 0 A 0.5 0.5 0 0 0 9.4648438 0.00390625 A 0.50005 0.50005 0 0 0 9.4042969 0.013671875 A 0.5 0.5 0 0 0 9.328125 0.03515625 A 0.50005 0.50005 0 0 0 9.2695312 0.05859375 A 0.5 0.5 0 0 0 9.1914062 0.11132812 A 0.50005 0.50005 0 0 0 9.1601562 0.1328125 L 9.1464844 0.14648438 L 2.1601562 6.6328125 A 0.5 0.5 0 0 0 2.0019531 6.9980469 L 2 7 L 2 9 L 3.5 10 L 3.5 9.625 L 6.5 9.625 L 6.5 10 L 8 9 L 8 7 L 7.1679688 6.1679688 L 9.6328125 1.3398438 L 11.880859 3.5878906 A 0.625 0.625 0 0 0 11.880859 3.5898438 A 0.625 0.625 0 0 0 12.25 4.0722656 L 12.25 6.5683594 A 0.5 0.5 0 0 0 12 7 L 12 8.375 C 12.00031 8.6012398 12.152494 8.9240919 12.371094 8.9824219 C 12.413094 8.9939219 12.45649 8.9998 12.5 9 A 0.5 0.5 0 0 1 13 9.5 A 0.5 0.5 0 0 1 12.5 10 A 0.5 0.5 0 0 1 12.03125 9.6699219 C 12.01975 9.6556219 12.0094 9.6411 12 9.625 C 12 9.625 11.77614 9.25 11.5 9.25 C 11.22386 9.25 11 9.4738603 11 9.75 C 11 10.355299 11.563452 10.742609 11.925781 10.886719 C 12.488191 11.110409 13.132647 10.988436 13.560547 10.560547 C 13.988546 10.132547 14.118319 9.4849707 13.886719 8.9257812 C 13.721519 8.5268716 13.3936 8.2276005 13 8.0878906 L 13 7 A 0.5 0.5 0 0 0 12.75 6.5664062 L 12.75 4.0722656 A 0.625 0.625 0 0 0 13.125 3.5 A 0.625 0.625 0 0 0 12.587891 2.8808594 L 9.8789062 0.171875 A 0.50005 0.50005 0 0 0 9.8496094 0.14257812 A 0.50005 0.50005 0 0 0 9.7617188 0.076171875 A 0.50005 0.50005 0 0 0 9.75 0.06640625 A 0.5 0.5 0 0 0 9.7480469 0.06640625 A 0.50005 0.50005 0 0 0 9.7382812 0.0625 A 0.50005 0.50005 0 0 0 9.6328125 0.01953125 A 0.50005 0.50005 0 0 0 9.6289062 0.017578125 A 0.5 0.5 0 0 0 9.625 0.017578125 A 0.50005 0.50005 0 0 0 9.5898438 0.0078125 A 0.50005 0.50005 0 0 0 9.5507812 0.005859375 A 0.5 0.5 0 0 0 9.5 0 z M 6.5 10 L 4.625 10 L 3.5 10 L 2 11.5 L 2 14 L 3 14 L 3 11.5 L 3.5410156 11 L 6.4589844 11 L 7 11.5 L 7 14 L 8 14 L 8 11.5 L 6.5 10 z M 7.7695312 2.7890625 L 6.1308594 6 L 4.3125 6 L 7.7695312 2.7890625 z " />
</svg>
