<?xml version="1.0" encoding="UTF-8" standalone="no"?>
<svg
   version="1.1"
   width="14"
   height="14"
   viewBox="0 0 14 14"
   id="svg2"
   xmlns="http://www.w3.org/2000/svg"
   xmlns:svg="http://www.w3.org/2000/svg">
  <defs
     id="defs1" />
  <rect
     width="14"
     height="14"
     x="0"
     y="0"
     id="canvas"
     style="fill:none;stroke:none;visibility:hidden" />
  <path
     id="path1-89-4"
     style="fill:#000000"
     d="M 1 0 C 0.44600055 0 0 0.44600055 0 1 L 0 4 L 1 4 L 1 14 L 2 14 L 2 11 L 5 14 L 6 14 L 6 4 L 11 4 L 11 5 L 11 6 L 11 7.375 C 11.00031 7.6012398 11.152494 7.9240919 11.371094 7.9824219 C 11.413094 7.9939219 11.45649 7.9998 11.5 8 A 0.5 0.5 0 0 1 12 8.5 A 0.5 0.5 0 0 1 11.5 9 A 0.5 0.5 0 0 1 11.03125 8.6699219 C 11.01975 8.6556219 11.0094 8.6411 11 8.625 C 11 8.625 10.77614 8.25 10.5 8.25 C 10.22386 8.25 10 8.4738603 10 8.75 C 10 9.3552994 10.563452 9.7426089 10.925781 9.8867188 C 11.488191 10.110409 12.132647 9.9884364 12.560547 9.5605469 C 12.988546 9.1325473 13.118319 8.4849707 12.886719 7.9257812 C 12.721519 7.5268716 12.3936 7.2276005 12 7.0878906 L 12 6 L 12 5 L 12 4 L 14 4 L 13 2 L 6 2 L 5 0 L 1 0 z M 1 1 L 5 1 L 5.5 2 L 1 2 L 1 1 z M 2 4 L 5 4 L 5 7 L 2 4 z M 2 5 L 4.5 7.5 L 2 10 L 2 5 z M 5 8 L 5 13 L 2.5 10.5 L 5 8 z " />
</svg>
