<?xml version="1.0" encoding="UTF-8" standalone="no"?>
<svg
   version="1.1"
   width="13"
   height="13"
   viewBox="0 0 13 13"
   id="svg2"
   xmlns="http://www.w3.org/2000/svg"
   xmlns:svg="http://www.w3.org/2000/svg">
  <defs
     id="defs1" />
  <rect
     width="13"
     height="13"
     x="0"
     y="0"
     id="canvas"
     style="visibility:hidden;fill:none;stroke:none" />
  <path
     id="path104-9-4"
     style="fill:#000000"
     d="M 2,0 0,2 v 1 10 h 0.75 v -2 l 1.5,1.25 V 13 H 3 V 3 H 6 V 5.375 C 6.00031,5.6012398 6.152494,5.9240919 6.3710938,5.9824219 6.4130937,5.9939219 6.45649,5.9998 6.5,6 A 0.5,0.5 0 0 1 7,6.5 0.5,0.5 0 0 1 6.5,7 0.5,0.5 0 0 1 6.03125,6.6699219 C 6.01975,6.6556219 6.0094,6.6411 6,6.625 6,6.625 5.7761397,6.25 5.5,6.25 5.2238603,6.25 5,6.4738603 5,6.75 5,7.3552994 5.5634516,7.7426089 5.9257812,7.8867188 6.4881907,8.1104085 7.1326473,7.9884364 7.5605469,7.5605469 7.9885464,7.1325473 8.1183185,6.4849707 7.8867188,5.9257812 7.7215189,5.5268716 7.3935996,5.2276005 7,5.0878906 V 3 h 3 v 10 h 0.75 v -2 l 1.5,1.25 V 13 H 13 V 3 2 L 11,0 Z m 0.25,0.5 h 2.5 L 3.5,1.75 Z m 3,0 h 2.5 L 6.5,1.75 Z m 3,0 h 2.5 L 9.5,1.75 Z M 1.875,0.625 3.25,2 H 0.5 Z m 9.25,0 L 12.5,2 H 9.75 Z M 5,0.75 6.25,2 h -2.5 z m 3,0 L 9.25,2 H 6.75 Z M 0.75,3 h 1.5 V 5.5 L 0.75,4 Z m 10,0 h 1.5 V 5.5 L 10.75,4 Z m -10,2.5 1.5,1.5 -1.5,1.5 z m 10,0 1.5,1.5 -1.5,1.5 z m -8.5,3 v 2.75 L 0.75,10 Z m 10,0 v 2.75 L 10.75,10 Z" />
</svg>
