<?xml version="1.0" encoding="UTF-8" standalone="no"?>
<svg
   version="1.1"
   width="14"
   height="14"
   viewBox="0 0 14 14"
   id="svg2"
   xmlns="http://www.w3.org/2000/svg"
   xmlns:svg="http://www.w3.org/2000/svg">
  <defs
     id="defs1" />
  <rect
     width="14"
     height="14"
     x="0"
     y="0"
     id="canvas"
     style="fill:none;stroke:none;visibility:hidden" />
  <path
     id="path104-9"
     style="fill:#000000"
     d="M 4 0 L 0 3 L 0 4 L 0.5 4 L 0.5 6 L 2 6 L 2 4 L 3 4 L 3 13 L 2 13 L 2 14 L 7 14 L 7 13 L 6 13 L 6 4 L 12 4 L 12 6.375 C 12.00031 6.6012398 12.152494 6.9240919 12.371094 6.9824219 C 12.413094 6.9939219 12.45649 6.9998 12.5 7 A 0.5 0.5 0 0 1 13 7.5 A 0.5 0.5 0 0 1 12.5 8 A 0.5 0.5 0 0 1 12.03125 7.6699219 C 12.01975 7.6556219 12.0094 7.6411 12 7.625 C 12 7.625 11.77614 7.25 11.5 7.25 C 11.22386 7.25 11 7.4738603 11 7.75 C 11 8.3552994 11.563452 8.7426089 11.925781 8.8867188 C 12.488191 9.1104085 13.132647 8.9884364 13.560547 8.5605469 C 13.988546 8.1325473 14.118319 7.4849707 13.886719 6.9257812 C 13.721519 6.5268716 13.3936 6.2276005 13 6.0878906 L 13 4 L 13.5 4 L 13.5 3 L 13 3 L 5 0 L 4 0 z M 4 0.5 L 4 3 L 0.625 3 L 4 0.5 z M 5 0.5 L 11.666016 3 L 5 3 L 5 0.5 z M 3.75 4 L 5.25 4 L 5.25 6.5 L 3.75 5 L 3.75 4 z M 3.75 6.5 L 5.25 8 L 3.75 9.5 L 3.75 6.5 z M 5.25 9.5 L 5.25 12.25 L 3.75 11 L 5.25 9.5 z M 3.75 12 L 4.9492188 13 L 3.75 13 L 3.75 12 z " />
</svg>
