<?xml version="1.0" encoding="UTF-8" standalone="no"?>
<svg
   version="1.1"
   width="14"
   height="14"
   viewBox="0 0 14 14"
   id="svg4"
   xmlns="http://www.w3.org/2000/svg"
   xmlns:svg="http://www.w3.org/2000/svg">
  <defs
     id="defs1" />
  <rect
     width="14"
     height="14"
     x="0"
     y="0"
     id="canvas"
     style="fill:none;stroke:none;visibility:hidden" />
  <path
     id="path1-36-5-1-9-37-9"
     style="fill:#000000"
     d="M 6.5 0 C 5.2281013 -0.006999993 2.999999 1.000001 2 2 L 2 6 L 1.5917969 6 L 1 6 L 1 12 L 0 13 L 13 13 L 12 12 L 12 6 L 11.25 6.0058594 L 11.25 6 L 11 6 L 11 2 C 10.000001 1.000001 7.7719087 0.0065199935 6.5 0 z M 6.5 1 C 7.2860404 1 8.826137 1.3342243 9.7207031 2 L 2.75 2 C 3.9999988 1.000001 5.3750011 1 6.5 1 z M 2.75 2.4746094 L 7.5 2.4746094 L 7.5 6 L 2.75 6 L 2.75 2.4746094 z M 7.625 2.4746094 L 8.375 2.4746094 L 8.375 6 L 7.625 6 L 7.625 2.4746094 z M 8.75 2.4746094 L 9.25 2.4746094 L 9.25 6 L 8.75 6 L 8.75 2.4746094 z M 9.75 2.4746094 L 10 2.4746094 L 10 6 L 9.75 6 L 9.75 2.4746094 z M 1.75 6.5 L 3.625 6.5 L 1.75 11.353516 L 1.75 6.5 z M 4.125 6.5 L 8.875 6.5 L 6.4453125 11.361328 L 4.125 6.5 z M 9.375 6.5 L 10.25 6.5 L 10.25 8 L 10.75 9.375 L 10.75 6.5 L 11 6.5 L 11 11.267578 L 9.375 6.5 z M 3.8945312 7.09375 L 6.125 12 L 2 12 L 3.8945312 7.09375 z M 9.0839844 7.1113281 L 10.75 12 L 9.75 12 L 9.75 10 L 9.375 9 L 9.375 12 L 8.625 12 L 8.625 8.875 L 8.5 9.125 L 8.5 12 L 6.75 12 L 9.0839844 7.1113281 z " />
</svg>
