<?xml version="1.0" encoding="UTF-8" standalone="no"?>
<!-- Created with Inkscape (http://www.inkscape.org/) -->

<svg
   version="1.1"
   width="14"
   height="19"
   viewBox="0 0 14 19"
   id="svg2"
   xmlns="http://www.w3.org/2000/svg"
   xmlns:svg="http://www.w3.org/2000/svg">
  <defs
     id="defs1" />
  <rect
     width="14"
     height="19"
     x="0"
     y="0"
     id="canvas"
     style="visibility:hidden;fill:none;stroke:none" />
  <path
     id="rect116-9-7"
     style="fill:#000000"
     d="M 8.9550781 0.27929688 C 8.9470781 0.27729688 8.9396875 0.27825 8.9296875 0.28125 C 8.6544389 0.37015694 7.4982275 2.5417138 6.6796875 5.0273438 A 2 2 0 0 1 7 5 A 2 2 0 0 1 8.3300781 5.5058594 C 8.9952263 2.879316 9.1735143 0.34284855 8.9550781 0.27929688 z M 7 6 A 1 1 0 0 0 6 7 A 1 1 0 0 0 7 8 A 1 1 0 0 0 8 7 A 1 1 0 0 0 7 6 z M 5.0449219 6.5957031 C 2.4359924 7.3329761 0.14692802 8.4468053 0.20117188 8.6679688 C 0.25534609 8.889045 2.7990682 8.8172938 5.453125 8.2636719 A 2 2 0 0 1 5 7 A 2 2 0 0 1 5.0449219 6.5957031 z M 8.8671875 7.703125 A 2 2 0 0 1 7.6269531 8.8945312 C 9.5698393 10.785507 11.679422 12.212159 11.84375 12.054688 C 12.008136 11.89715 10.674175 9.7255533 8.8671875 7.703125 z M 6.6054688 8.9570312 L 6 15 L 5 15 L 6 16 L 6 18 L 0 18 L 0 18.25 L 14 18.25 L 14 18 L 8 18 L 8 16 L 9 15 L 8 15 L 7.3945312 8.9570312 A 2 2 0 0 1 7 9 A 2 2 0 0 1 6.6054688 8.9570312 z " />
</svg>
