<?xml version="1.0" encoding="UTF-8" standalone="no"?>
<!-- Created with Inkscape (http://www.inkscape.org/) -->

<svg
   version="1.1"
   width="14"
   height="16"
   viewBox="0 0 14 16"
   id="svg2"
   xmlns="http://www.w3.org/2000/svg"
   xmlns:svg="http://www.w3.org/2000/svg">
  <defs
     id="defs1" />
  <rect
     width="14"
     height="16"
     x="0"
     y="0"
     id="canvas"
     style="visibility:hidden;fill:none;stroke:none" />
  <path
     id="rect116-9-3"
     style="fill:#000000"
     d="m 8.95508,0.2793 c -0.008,-0.002 -0.0154,-0.001 -0.0254,0.002 -0.27525,0.0889 -1.43146,2.26047 -2.25,4.74609 A 2,2 0 0 1 7,5 2,2 0 0 1 8.33008,5.50586 C 8.99523,2.87931 9.17351,0.34285 8.95508,0.2793 Z M 7,6 A 1,1 0 0 0 6,7 1,1 0 0 0 7,8 1,1 0 0 0 8,7 1,1 0 0 0 7,6 Z M 5.04492,6.5957 C 2.43599,7.33298 0.14693,8.4468 0.20117,8.66797 0.25537,8.88905 2.79907,8.8173 5.45312,8.26367 A 2,2 0 0 1 5,7 2,2 0 0 1 5.0449,6.5957 Z M 8.86719,7.70312 A 2,2 0 0 1 7.62695,8.89453 c 1.94289,1.89097 4.05247,3.31762 4.2168,3.16016 C 12.00814,11.89715 10.67418,9.72556 8.86719,7.70312 Z M 6.60547,8.95703 6,15 H 5 l -1,1 h 6 L 9,15 H 8 L 7.39453,8.95703 A 2,2 0 0 1 7,9 2,2 0 0 1 6.60547,8.957 Z" />
</svg>
