<?xml version="1.0" encoding="UTF-8" standalone="no"?>
<svg
   version="1.1"
   width="14"
   height="7"
   viewBox="0 0 14 7"
   id="svg4"
   xmlns="http://www.w3.org/2000/svg"
   xmlns:svg="http://www.w3.org/2000/svg">
  <defs
     id="defs1" />
  <rect
     width="14"
     height="7"
     x="0"
     y="0"
     id="canvas"
     style="visibility:hidden;fill:none;stroke:none" />
  <path
     style="fill:#ff0000"
     d="M 1.875,6.5 5.25,0.875 6.125,0.375 7,0.25 8,0.375 8.625,0.75 9,1.25 12.125,6.5 Z"
     id="path197" />
  <path
     id="rect189"
     style="fill:#000000"
     d="M 7 0 C 6.1803808 -0.00015999984 5.3457045 0.34888638 4.796875 1.1035156 L 4.7910156 1.1113281 L 1.8574219 6 L 1 6 L 0 7 L 14 7 L 13 6 L 12.226562 6 L 9.25 1 C 8.8750004 0.37500062 7.8192692 0.00015999984 7 0 z M 7 0.5 C 7.5122911 0.50010554 8.0156346 0.65779056 8.4257812 1 L 7 1 L 7 1.125 L 8.375 1.125 L 8.375 1.25 L 8.6777344 1.25 C 8.717632 1.2962989 8.7578022 1.3436275 8.7949219 1.3945312 L 8.8574219 1.5 L 8 1.5 L 8 1.625 L 8.9335938 1.625 L 9.1582031 2 L 7.125 2 L 7.125 2.125 L 8.5 2.125 L 8.5 2.25 L 9.3085938 2.25 L 9.4589844 2.5 L 8.125 2.5 L 8.125 2.625 L 9.5332031 2.625 L 9.7578125 3 L 7.25 3 L 7.25 3.125 L 9 3.125 L 9 3.25 L 9.9082031 3.25 L 10.058594 3.5 L 8.25 3.5 L 8.25 3.625 L 10.132812 3.625 L 10.357422 4 L 7.5 4 L 7.5 4.125 L 9.75 4.125 L 9.75 4.25 L 10.507812 4.25 L 10.658203 4.5 L 8.625 4.5 L 8.625 4.625 L 10.732422 4.625 L 10.957031 5 L 7.75 5 L 7.75 5.125 L 10.125 5.125 L 10.125 5.25 L 11.107422 5.25 L 11.257812 5.5 L 9.375 5.5 L 9.375 5.625 L 11.332031 5.625 L 11.558594 6 L 8.125 6 L 8.125 6.125 L 10.5 6.125 L 10.5 6.25 L 11.707031 6.25 L 11.75 6.3203125 L 11.75 6.375 L 2.25 6.375 L 2.25 6.3203125 L 5.203125 1.3964844 L 5.2050781 1.3945312 C 5.6564377 0.77556187 6.3201907 0.49986 7 0.5 z " />
</svg>
