<?xml version="1.0" encoding="UTF-8" standalone="no"?>
<svg
   version="1.1"
   width="16"
   height="8"
   viewBox="0 0 16 7.9999996"
   id="svg4"
   xmlns="http://www.w3.org/2000/svg"
   xmlns:svg="http://www.w3.org/2000/svg">
  <defs
     id="defs1" />
  <rect
     width="16"
     height="8"
     x="0"
     y="0"
     id="canvas"
     style="visibility:hidden;fill:none;stroke:none" />
  <path
     style="fill:#ff0000"
     d="M 1.875,7.5 5.25,1.625 6,1 7,0.625 8,0.5 9,0.625 10,1 10.75,1.625 14.25,7.5 Z"
     id="path198" />
  <path
     id="rect189-6"
     style="fill:#000000"
     d="M 8.0019531 0.25 C 6.6760845 0.24300001 5.3393532 0.764683 4.7773438 1.8886719 L 1.8554688 7 L 1 7 L 0 8 L 16 8 L 15 7 L 14.304688 7 L 11.125 1.375 C 10.75 0.75000062 9.3093118 0.25736999 8.0019531 0.25 z M 7.9980469 0.75 C 8.4866101 0.75291064 8.9740713 0.83880432 9.4082031 1 L 8.25 1 L 8.25 1.125 L 9.7050781 1.125 C 9.9201333 1.2290758 10.114639 1.3550779 10.285156 1.5 L 8.875 1.5 L 8.875 1.625 L 10.419922 1.625 C 10.534012 1.7394059 10.634291 1.8647447 10.714844 2 L 8.375 2 L 8.375 2.125 L 9.75 2.125 L 9.75 2.25 L 10.855469 2.25 L 10.998047 2.5 L 9.375 2.5 L 9.375 2.625 L 11.070312 2.625 L 11.283203 3 L 11.25 3 L 8.5 3 L 8.5 3.125 L 10.25 3.125 L 10.25 3.25 L 11.425781 3.25 L 11.568359 3.5 L 9.5 3.5 L 9.5 3.625 L 11.640625 3.625 L 11.855469 4 L 8.75 4 L 8.75 4.125 L 11 4.125 L 11 4.25 L 11.998047 4.25 L 12.140625 4.5 L 9.875 4.5 L 9.875 4.625 L 12.212891 4.625 L 12.425781 5 L 9 5 L 9 5.125 L 11.375 5.125 L 11.375 5.25 L 12.568359 5.25 L 12.712891 5.5 L 10.625 5.5 L 10.625 5.625 L 12.783203 5.625 L 12.998047 6 L 9.375 6 L 9.375 6.125 L 11.75 6.125 L 11.75 6.25 L 13.140625 6.25 L 13.283203 6.5 L 11.375 6.5 L 11.375 6.625 L 13.355469 6.625 L 13.568359 7 L 10 7 L 10 7.125 L 12.375 7.125 L 12.375 7.25 L 13.710938 7.25 L 13.783203 7.375 L 2.25 7.375 L 5.375 1.875 C 5.5985198 1.4269704 6.8064281 0.74330001 7.9980469 0.75 z " />
</svg>
