<?xml version="1.0" encoding="UTF-8" standalone="no"?>
<svg
   version="1.1"
   width="14"
   height="14"
   viewBox="0 0 14 14"
   id="svg4"
   xmlns="http://www.w3.org/2000/svg"
   xmlns:svg="http://www.w3.org/2000/svg">
  <defs
     id="defs1" />
  <rect
     width="14"
     height="14"
     x="0"
     y="0"
     id="canvas"
     style="visibility:hidden;fill:none;stroke:none" />
  <path
     id="path160-5-7"
     style="fill:#000000"
     d="M 12.138672 1 L 11.306641 1.1757812 L 11.160156 1.2070312 L 11.013672 1.2363281 L 11.273438 2.4667969 L 6.9824219 3.3710938 A 0.50005 0.50005 0 0 0 6.5 3 A 0.50005 0.50005 0 0 0 6.0175781 3.3710938 L 5.9609375 3.5859375 L 1.625 4.5 L 1.6269531 4.5058594 A 0.5 0.51489782 0 0 0 1.2324219 5.0078125 A 0.5 0.51489782 0 0 0 1.3828125 5.3730469 L 0.3671875 9.3789062 A 0.5 0.51489782 0 0 0 0 9.875 A 0.5 0.51489782 0 0 0 0.5 10.390625 A 0.5 0.51489782 0 0 0 0.83984375 10.25 A 1 1 0 0 0 1 10.363281 L 1 11 L 0 11 L 0 12 L 11 12 L 10 11 L 9.0097656 11 L 7.2480469 4.3730469 L 11.486328 3.4804688 L 12.146484 6.6191406 L 12.294922 6.5878906 L 12.441406 6.5566406 L 12.822266 6.4765625 C 12.902866 4.2129048 13.438871 2.4047886 12.138672 1 z M 5.6621094 4.7070312 L 3.9902344 11 L 2 11 L 2 10.363281 A 1 1 0 0 0 2.4707031 9.7265625 L 3.1386719 9.5253906 A 0.250025 0.250025 0 0 0 3.2910156 9.1757812 L 2.8496094 8.2792969 A 0.250025 0.250025 0 0 0 2.6855469 8.1464844 A 0.250025 0.250025 0 0 0 2.4785156 8.1855469 L 1.9160156 8.5898438 A 1 1 0 0 0 1.5 8.5 A 1 1 0 0 0 1.0839844 8.5898438 L 1.8632812 5.5078125 L 5.6621094 4.7070312 z M 6.5 5.4453125 L 7.078125 7.625 L 5.921875 7.625 L 6.5 5.4453125 z M 5.8222656 8 L 7.1777344 8 L 7.4433594 9 L 5.5566406 9 L 5.8222656 8 z M 5.4570312 9.375 L 7.5429688 9.375 L 7.9746094 11 L 5.0253906 11 L 5.4570312 9.375 z " />
</svg>
