<?xml version="1.0" encoding="UTF-8" standalone="no"?>
<svg
   version="1.1"
   width="6"
   height="6"
   viewBox="0 0 6 6"
   id="svg4"
   xmlns="http://www.w3.org/2000/svg"
   xmlns:svg="http://www.w3.org/2000/svg">
  <defs
     id="defs1" />
  <rect
     width="6"
     height="6"
     x="0"
     y="0"
     id="canvas"
     style="visibility:hidden;fill:none;stroke:none" />
  <path
     id="rect190"
     style="fill:#000000"
     d="M 1.5 1 A 0.5 0.5 0 0 0 1 1.5 L 1 4.5 A 0.5 0.5 0 0 0 1.5 5 L 4.5 5 A 0.5 0.5 0 0 0 4.984375 4.625 L 5.625 4.625 L 5.625 4.5 L 5 4.5 A 0.5 0.5 0 0 0 5 4.4746094 L 5 4.125 L 5.625 4.125 L 5.625 4 L 5 4 L 5 3.625 L 5.625 3.625 L 5.625 3.5 L 5 3.5 L 5 3.125 L 5.625 3.125 L 5.625 3 L 5 3 L 5 2.625 L 5.625 2.625 L 5.625 2.5 L 5 2.5 L 5 2.125 L 5.625 2.125 L 5.625 2 L 5 2 L 5 1.625 L 5.25 1.625 L 5.25 1.5 L 5 1.5 A 0.5 0.5 0 0 0 4.5 1 L 1.5 1 z M 1.625 5.125 L 1.625 5.25 L 5.25 5.25 L 5.25 5.125 L 1.625 5.125 z " />
  <rect
     style="fill:#ff0000"
     id="rect178-2"
     width="2.9999995"
     height="2.9999995"
     x="1.5"
     y="1.5" />
</svg>
