<?xml version="1.0" encoding="UTF-8" standalone="no"?>
<svg
   version="1.1"
   width="7"
   height="7"
   viewBox="0 0 7 7"
   id="svg4"
   xmlns="http://www.w3.org/2000/svg"
   xmlns:svg="http://www.w3.org/2000/svg">
  <defs
     id="defs1" />
  <rect
     width="7"
     height="7"
     x="0"
     y="0"
     id="canvas"
     style="visibility:hidden;fill:none;stroke:none" />
  <path
     id="rect190-7"
     style="fill:#000000"
     d="M 1.5 1 A 0.5 0.5 0 0 0 1 1.5 L 1 5.5 A 0.5 0.5 0 0 0 1.5 6 L 5.5 6 A 0.5 0.5 0 0 0 5.984375 5.625 L 6.875 5.625 L 6.875 5.5 L 6 5.5 A 0.5 0.5 0 0 0 6 5.4746094 L 6 5.125 L 6.875 5.125 L 6.875 5 L 6 5 L 6 4.625 L 6.875 4.625 L 6.875 4.5 L 6 4.5 L 6 4.125 L 6.875 4.125 L 6.875 4 L 6 4 L 6 3.625 L 6.875 3.625 L 6.875 3.5 L 6 3.5 L 6 3.125 L 6.875 3.125 L 6.875 3 L 6 3 L 6 2.625 L 6.875 2.625 L 6.875 2.5 L 6 2.5 L 6 2.125 L 6.625 2.125 L 6.625 2 L 6 2 L 6 1.625 L 6.25 1.625 L 6.25 1.5 L 6 1.5 A 0.5 0.5 0 0 0 5.5 1 L 1.5253906 1 A 0.5 0.5 0 0 0 1.5 1 z M 1.75 6.125 L 1.75 6.25 L 6.375 6.25 L 6.375 6.125 L 1.75 6.125 z M 1.875 6.625 L 1.875 6.75 L 5.875 6.75 L 5.875 6.625 L 1.875 6.625 z " />
  <rect
     style="fill:#ff0000"
     id="rect178-2-6"
     width="3.75"
     height="3.75"
     x="1.625"
     y="1.625" />
</svg>
