<?xml version="1.0" encoding="UTF-8" standalone="no"?>
<svg
   version="1.1"
   width="5"
   height="5"
   viewBox="0 0 5 5"
   id="svg4"
   xmlns="http://www.w3.org/2000/svg"
   xmlns:svg="http://www.w3.org/2000/svg">
  <defs
     id="defs1" />
  <rect
     width="5"
     height="5"
     x="0"
     y="0"
     id="canvas"
     style="visibility:hidden;fill:none;stroke:none" />
  <path
     id="rect151-6"
     style="fill:#000000"
     d="M 1.375 1 A 0.375 0.375 0 0 0 1 1.375 L 1 3.625 A 0.375 0.375 0 0 0 1.375 4 L 3.625 4 A 0.375 0.375 0 0 0 4 3.625 L 4.5 3.625 L 4.5 3.5 L 4 3.5 L 4 3.125 L 4.5 3.125 L 4.5 3 L 4 3 L 4 2.625 L 4.5 2.625 L 4.5 2.5 L 4 2.5 L 4 2.125 L 4.5 2.125 L 4.5 2 L 4 2 L 4 1.625 L 4.25 1.625 L 4.25 1.5 L 4 1.5 L 4 1.375 A 0.375 0.375 0 0 0 3.625 1 L 1.375 1 z M 1.375 4.125 L 1.375 4.25 L 4.25 4.25 L 4.25 4.125 L 1.375 4.125 z " />
  <rect
     style="fill:#ff0000"
     id="rect178"
     width="2.25"
     height="2.25"
     x="1.375"
     y="1.375" />
</svg>
