<?xml version="1.0" encoding="UTF-8" standalone="no"?>
<svg
   version="1.1"
   width="14"
   height="6"
   viewBox="0 0 14 6"
   id="svg4"
   xmlns="http://www.w3.org/2000/svg"
   xmlns:svg="http://www.w3.org/2000/svg">
  <defs
     id="defs1" />
  <rect
     width="14"
     height="6"
     x="0"
     y="0"
     id="canvas"
     style="visibility:hidden;fill:none;stroke:none" />
  <path
     id="rect85-1-4"
     style="fill:#000000"
     d="M 2 0 L 2 4 L 0 6 L 14 6 L 12 4 L 12 0 L 11 0 L 3 0 L 2 0 z M 3 0.66210938 L 11 0.66210938 L 11 2 L 3 2 L 3 0.66210938 z M 3 2.25 L 11 2.25 L 11 2.5 L 3 2.5 L 3 2.25 z M 3 2.75 L 11 2.75 L 11 3 L 3 3 L 3 2.75 z M 3 3.25 L 11 3.25 L 11 3.5 L 3 3.5 L 3 3.25 z M 3 3.75 L 11 3.75 L 11 4 L 3 4 L 3 3.75 z " />
</svg>
