<?xml version="1.0" encoding="UTF-8" standalone="no"?>
<svg
   version="1.1"
   width="14"
   height="14"
   viewBox="0 0 14 14"
   id="svg4"
   xmlns="http://www.w3.org/2000/svg"
   xmlns:svg="http://www.w3.org/2000/svg">
  <defs
     id="defs1" />
  <rect
     width="14"
     height="14"
     x="0"
     y="0"
     id="canvas"
     style="fill:none;stroke:none;visibility:hidden" />
  <path
     id="path1-36-5-1-2-7-0"
     style="fill:#000000"
     d="M 6.5,1 A 0.50005,0.50005 0 0 0 6,1.5 V 3.0273438 C 4.8858306,3.1606463 3.8138113,3.812574 3,5 v 7 H 2.5 v 1 h 8.5 1 0.5 V 12 H 12 V 3.5 A 0.50005,0.50005 0 0 0 11.777344,3.0839844 l -3.0000002,-2 A 0.50005,0.50005 0 0 0 8.5,1 Z M 7,2 H 8.3476562 L 11,3.7675781 V 12 H 10 V 5 C 9.1530671,3.8693464 8.0871502,3.2143494 7,3.0449219 Z M 6.25,4 c 0.3577056,2.205e-4 0.7451953,0.055135 1.125,0.1601562 V 4.875 h 0.25 V 4.2382812 C 7.8875742,4.3273221 8.1423153,4.44051 8.375,4.5761719 V 4.875 H 8.75 V 4.828125 C 8.839599,4.8988165 8.9228338,4.9738371 9,5.0527344 V 12 H 8.75 V 5.125 H 8.375 V 12 H 7.625 V 5.125 H 7.375 V 12 H 3.75 V 5 C 4.4063093,4.3237007 5.250001,4 6.25,4 Z" />
</svg>
