<?xml version="1.0" encoding="UTF-8" standalone="no"?>
<svg
   version="1.1"
   width="14"
   height="14"
   viewBox="0 0 14 14"
   id="svg4"
   xmlns="http://www.w3.org/2000/svg"
   xmlns:svg="http://www.w3.org/2000/svg">
  <defs
     id="defs1" />
  <rect
     width="14"
     height="14"
     x="0"
     y="0"
     id="canvas"
     style="fill:none;stroke:none;visibility:hidden" />
  <path
     id="rect85-3-3-3-5-4-0-8-89"
     style="fill:#000000"
     d="M 7 1 C 4.2385828 1 2 3.2385828 2 6 C 2 7.1253484 2.372569 8.1644374 3 9 L 3 12 L 1 13 L 13 13 L 11 12 L 11 9 C 11.627431 8.1644374 12 7.1253484 12 6 C 12 3.2385828 9.7614172 1 7 1 z M 7 1.875 C 7.4750885 1.875 7.9242198 1.9639249 8.3378906 2.125 L 7.25 2.125 L 5.5410156 2.125 C 5.9988078 1.9618227 6.4912921 1.875 7 1.875 z M 6.8164062 2.1796875 L 7.5 2.25 L 8.6210938 2.25 C 8.7722474 2.3239988 8.9174302 2.4068925 9.0566406 2.5 L 7.25 2.5 L 8.6875 2.625 L 9.2324219 2.625 C 9.3839355 2.739143 9.5263558 2.8647643 9.6601562 3 L 9.625 3 L 7.625 3 L 8.75 3.125 L 9.625 3.125 L 9.625 3.25 L 9.8886719 3.25 C 9.95589 3.3304182 10.01894 3.4143003 10.080078 3.5 L 7.875 3.5 L 9.125 3.625 L 10 3.625 L 10 3.75 L 10.246094 3.75 C 10.295709 3.8313218 10.342493 3.9150595 10.386719 4 L 10.25 4 L 8.125 4 L 9.4121094 4.125 L 10.25 4.125 L 10.25 4.25 L 10.507812 4.25 C 10.543837 4.3318112 10.576404 4.4155948 10.607422 4.5 L 10.4375 4.5 L 8.25 4.5 L 9.625 4.625 L 10.375 4.625 L 10.375 4.75 L 10.691406 4.75 C 10.716104 4.8324658 10.739905 4.9156319 10.759766 5 L 10.75 5 L 8.375 5 L 9.75 5.125 L 10.5 5.125 L 10.5 5.25 L 10.808594 5.25 C 10.823043 5.3328115 10.836009 5.4158179 10.845703 5.5 L 8.5 5.5 L 9.875 5.625 L 10.5 5.625 L 10.5 5.75 L 10.867188 5.75 C 10.871904 5.8327256 10.875 5.9163451 10.875 6 L 8.25 6 L 9.75 6.125 L 10.5 6.125 L 10.5 6.25 L 10.867188 6.25 C 10.862306 6.3342387 10.853475 6.4176003 10.84375 6.5 L 7.875 6.5 L 9.5 6.625 L 10.375 6.625 L 10.375 6.75 L 10.806641 6.75 C 10.791428 6.8340378 10.776071 6.918268 10.755859 7 L 10.375 7 L 7.625 7 L 9.125 7.125 L 10.125 7.125 L 10.125 7.25 L 10.683594 7.25 C 10.656524 7.3348345 10.6262 7.4181734 10.59375 7.5 L 9.875 7.5 L 6.75 7.5 L 8.5 7.625 L 9.75 7.625 L 9.75 7.75 L 10.484375 7.75 C 10.443009 7.8358705 10.398901 7.9181897 10.351562 8 L 6.875 8 L 3.875 8 L 3.4628906 8 C 3.4103269 7.918296 3.3606361 7.835752 3.3144531 7.75 L 3.5 7.75 L 3.5 7.625 L 4.625 7.625 L 6 7.5 L 3.5 7.5 L 3.1933594 7.5 C 3.1390912 7.3782065 3.0918146 7.2533565 3.0507812 7.125 L 3.875 7.125 L 4.75 7 L 3.0117188 7 C 2.9775405 6.8780582 2.9493304 6.7519916 2.9277344 6.625 L 3.5 6.625 L 4.125 6.5 L 2.9101562 6.5 C 2.893585 6.3770848 2.8831065 6.2519352 2.8789062 6.125 L 3.375 6.125 L 3.75 6 L 2.875 6 C 2.875 5.8727119 2.8809059 5.7476525 2.890625 5.625 L 3.125 5.625 L 3.625 5.5 L 2.9023438 5.5 C 2.9160268 5.3720611 2.9331425 5.247455 2.9570312 5.125 L 3.25 5.125 L 3.75 5 L 2.984375 5 C 3.0134019 4.8717137 3.048089 4.7467087 3.0878906 4.625 L 3.375 4.625 L 3.875 4.5 L 3.1308594 4.5 C 3.1778443 4.3706335 3.2304185 4.2461843 3.2890625 4.125 L 3.375 4.125 L 4.0546875 4 L 3.3535156 4 C 3.4221544 3.8702129 3.4967472 3.7443246 3.578125 3.625 L 3.625 3.625 L 4.3046875 3.5 L 3.6679688 3.5 C 3.7660248 3.3678666 3.8715596 3.2425433 3.984375 3.125 L 4.375 3.125 L 5.375 3 L 4.109375 3 C 4.2526665 2.8636078 4.4065661 2.7382453 4.5683594 2.625 L 5.5625 2.625 L 6.1875 2.5 L 4.7597656 2.5 C 4.9106424 2.4067537 5.0676829 2.323246 5.2304688 2.25 L 6.25 2.25 L 6.8164062 2.1796875 z M 6.515625 8.0332031 L 7.625 8.125 L 9.25 8.125 L 9.25 8.25 L 10.193359 8.25 C 10.132269 8.3386024 10.068258 8.4252171 10 8.5078125 L 10 8.5 L 9.25 8.5 L 7.125 8.5 L 4.625 8.5 L 3.8457031 8.5 C 3.7732689 8.4197876 3.7041266 8.3358457 3.6386719 8.25 L 3.875 8.25 L 3.875 8.125 L 5.5 8.125 L 6.515625 8.0332031 z M 6.6445312 8.5429688 L 7.375 8.625 L 8.75 8.625 L 8.75 8.75 L 9.78125 8.75 C 9.6942582 8.8380406 9.6033729 8.9210269 9.5078125 9 L 8.5 9 L 7.25 9 L 5.4375 9 L 4.3886719 9 C 4.2857706 8.9213421 4.1882646 8.8376501 4.09375 8.75 L 4.625 8.75 L 4.625 8.625 L 5.75 8.625 L 6.6445312 8.5429688 z M 6.7363281 9.0566406 L 7.25 9.125 L 8.25 9.125 L 8.25 9.25 L 9.1660156 9.25 C 9.0989753 9.2935753 9.0290894 9.3356041 8.9589844 9.375 L 7.375 9.375 L 4.9765625 9.375 C 4.9022426 9.3357185 4.8293338 9.2934336 4.7578125 9.25 L 5.4375 9.25 L 5.4375 9.125 L 6.125 9.125 L 6.7363281 9.0566406 z M 6.8808594 9.4316406 L 7.6132812 9.5 L 8.71875 9.5 C 8.6221237 9.5454403 8.5212717 9.5873973 8.4199219 9.625 L 5.5449219 9.625 C 5.4393979 9.5875561 5.3359084 9.5452036 5.234375 9.5 L 6.2636719 9.5 L 6.8808594 9.4316406 z M 5.9628906 9.75 L 8.0214844 9.75 C 7.698352 9.8318495 7.3560587 9.875 7 9.875 C 6.6443519 9.875 6.2965663 9.8316663 5.9628906 9.75 z M 4 10 C 4.5813295 10.436525 5.2612984 10.750469 6 10.900391 L 6 12 L 4 12 L 4 10 z M 10 10 L 10 12 L 8 12 L 8 10.900391 C 8.7387016 10.750469 9.4186705 10.436525 10 10 z " />
</svg>
