<?xml version="1.0" encoding="UTF-8" standalone="no"?>
<svg
   version="1.1"
   width="14"
   height="14"
   viewBox="0 0 14 14"
   id="svg4"
   xmlns="http://www.w3.org/2000/svg"
   xmlns:svg="http://www.w3.org/2000/svg">
  <defs
     id="defs1" />
  <rect
     width="14"
     height="14"
     x="0"
     y="0"
     id="canvas"
     style="fill:none;stroke:none;visibility:hidden" />
  <path
     id="path1-36-5-1-9-37"
     style="fill:#000000"
     d="M 6.5 0 C 5.2281013 -0.006999993 2.9230591 0.65317135 2 2 L 2 12 L 1.5 12 L 1.5 13 L 11.5 13 L 11.5 12 L 11 12 L 11 2 C 10.010681 0.67926132 7.7719087 0.0065199935 6.5 0 z M 6.25 1 C 6.5407748 1 7.0017839 1.059588 7.5 1.15625 L 7.5 1.875 L 7.625 1.875 L 7.625 1.1796875 C 7.8734287 1.2307076 8.1261875 1.2904543 8.375 1.359375 L 8.375 1.875 L 8.75 1.875 L 8.75 1.4707031 C 8.9272774 1.5280462 9.0953628 1.5895207 9.25 1.6542969 L 9.25 12 L 8.75 12 L 8.75 2.125 L 8.375 2.125 L 8.375 12 L 7.625 12 L 7.625 2.125 L 7.5 2.125 L 7.5 12 L 2.75 12 L 2.75 2 C 3.2499995 1.3750006 5.1250011 1 6.25 1 z M 9.75 1.9101562 C 9.8546979 1.9793768 9.9413913 2.0517391 10 2.125 L 10 6.9375 L 10 12 L 9.75 12 L 9.75 1.9101562 z " />
</svg>
