<?xml version="1.0" encoding="UTF-8" standalone="no"?>
<svg
   version="1.1"
   width="14"
   height="14"
   viewBox="0 0 14 14"
   id="svg2"
   xmlns="http://www.w3.org/2000/svg"
   xmlns:svg="http://www.w3.org/2000/svg">
  <defs
     id="defs1" />
  <rect
     width="14"
     height="14"
     x="0"
     y="0"
     id="canvas"
     style="fill:none;stroke:none;visibility:hidden" />
  <path
     id="path55"
     style="fill:#000000"
     d="M 6.875 1 L 6.1757812 5 L 5 5 L 5 6.4179688 A 5 5 0 0 0 2 11 L 1 11 L 1 12 L 0 13 L 14 13 L 13 12 L 13 11 L 12 11 A 5 5 0 0 0 9 6.4179688 L 9 5 L 7.8242188 5 L 7.125 1 L 6.875 1 z M 5.625 5.375 L 8.375 5.375 L 8.375 5.625 L 7.125 5.625 L 8.125 5.75 L 8.375 5.75 L 8.375 6 L 7.125 6 L 8.125 6.125 L 8.375 6.125 L 8.375 6.375 L 7.125 6.375 L 8.125 6.5 L 8.375 6.5 L 8.375 6.625 L 5.625 6.625 L 5.625 5.375 z M 5.5761719 7.125 L 8.4238281 7.125 A 4.125 4.0625 0 0 1 9.3867188 7.625 L 6.75 7.625 L 8.5 7.75 L 9.5566406 7.75 A 4.125 4.0625 0 0 1 9.9765625 8.125 L 9.75 8.125 L 7.25 8.125 L 8.625 8.25 L 9.375 8.25 L 9.375 8.375 L 10.201172 8.375 A 4.125 4.0625 0 0 1 10.390625 8.625 L 10.164062 8.625 L 7.7890625 8.625 L 9.0390625 8.75 L 9.75 8.75 L 9.75 8.875 L 10.552734 8.875 A 4.125 4.0625 0 0 1 10.691406 9.125 L 10.164062 9.125 L 8.0390625 9.125 L 9.3261719 9.25 L 10 9.25 L 10 9.375 L 10.806641 9.375 A 4.125 4.0625 0 0 1 10.904297 9.625 L 10.351562 9.625 L 8.1640625 9.625 L 9.5390625 9.75 L 10.125 9.75 L 10.125 9.875 L 10.980469 9.875 A 4.125 4.0625 0 0 1 11.041016 10.125 L 10.664062 10.125 L 8.2890625 10.125 L 9.6640625 10.25 L 10.25 10.25 L 10.25 10.375 L 11.085938 10.375 A 4.125 4.0625 0 0 1 11.113281 10.625 L 10.6875 10.625 L 8.3125 10.625 L 9.6875 10.75 L 10.25 10.75 L 10.25 10.875 L 11.125 10.875 A 4.125 4.0625 0 0 1 11.125 10.9375 A 4.125 4.0625 0 0 1 11.125 11 L 2.875 11 A 4.125 4.0625 0 0 1 2.875 10.9375 A 4.125 4.0625 0 0 1 2.8789062 10.75 L 3.5 10.75 L 4.375 10.625 L 2.8867188 10.625 A 4.125 4.0625 0 0 1 2.9355469 10.25 L 3.5 10.25 L 4.375 10.125 L 2.9589844 10.125 A 4.125 4.0625 0 0 1 3.0546875 9.75 L 3.5351562 9.75 L 4.25 9.625 L 3.0957031 9.625 A 4.125 4.0625 0 0 1 3.2480469 9.25 L 3.5351562 9.25 L 4.2148438 9.125 L 3.3085938 9.125 A 4.125 4.0625 0 0 1 3.5234375 8.75 L 3.75 8.75 L 4.4296875 8.625 L 3.609375 8.625 A 4.125 4.0625 0 0 1 3.90625 8.25 L 4.375 8.25 L 5.375 8.125 L 4.0234375 8.125 A 4.125 4.0625 0 0 1 4.4433594 7.75 L 5.625 7.75 L 6.25 7.625 L 4.6132812 7.625 A 4.125 4.0625 0 0 1 5.5761719 7.125 z M 1.5 11.25 L 1.875 11.25 L 1.875 11.875 L 1.5 11.875 L 1.5 11.25 z M 2 11.25 L 8 11.25 L 8 11.875 L 2 11.875 L 2 11.25 z M 8.125 11.25 L 9 11.25 L 9 11.875 L 8.125 11.875 L 8.125 11.25 z M 9.125 11.25 L 9.625 11.25 L 9.625 11.875 L 9.125 11.875 L 9.125 11.25 z M 9.875 11.25 L 10.125 11.25 L 10.125 11.875 L 9.875 11.875 L 9.875 11.25 z M 10.375 11.25 L 10.5 11.25 L 10.5 11.875 L 10.375 11.875 L 10.375 11.25 z M 1.375 12 L 1.75 12 L 1.375 12.375 L 1 12.375 L 1.375 12 z M 2 12 L 9.3105469 12 L 11.25 12 L 12.5 12 L 12.5 12.125 L 9.7089844 12.125 L 6.625 12.375 L 1.625 12.375 L 2 12 z M 0.875 12.5 L 1.25 12.5 L 1 12.75 L 0.625 12.75 L 0.875 12.5 z M 1.5 12.5 L 11.25 12.5 L 6 12.75 L 1.25 12.75 L 1.5 12.5 z " />
</svg>
