<?xml version="1.0" encoding="UTF-8" standalone="no"?>
<svg
   version="1.1"
   width="14"
   height="14"
   viewBox="0 0 14 14"
   id="svg4"
   xmlns="http://www.w3.org/2000/svg"
   xmlns:svg="http://www.w3.org/2000/svg">
  <defs
     id="defs1" />
  <rect
     width="14"
     height="14"
     x="0"
     y="0"
     id="canvas"
     style="fill:none;stroke:none;visibility:hidden" />
  <path
     id="path222"
     style="fill:#000000"
     d="M 4.0507812 0 C 1.5789937 2.5396375 1.5789937 6.6576282 4.0507812 9.1972656 C 6.5225688 11.736883 10.528212 11.736883 13 9.1972656 C 12.841956 9.03449 12.864971 9.0569542 12.783203 8.9726562 L 12.804688 8.9511719 L 12.097656 8.2246094 L 12.447266 1.8925781 C 12.785415 1.7234583 12.99932 1.3780796 13 1 C 13 0.44772055 12.552279 0 12 0 C 11.61919 0.00030999969 11.271605 0.21689409 11.103516 0.55859375 L 5.015625 0.93554688 L 4.1796875 0.076171875 L 4.1523438 0.10351562 C 4.1004315 0.050207567 4.1215874 0.072749452 4.0507812 0 z M 4.3242188 0.94335938 L 11.9375 8.7773438 C 11.927838 8.7851535 11.917913 8.7930411 11.908203 8.8007812 L 11.396484 8.2851562 L 8.9550781 5.8300781 L 8.4257812 5.4746094 L 10.894531 7.9570312 L 10.804688 8.0449219 L 11.619141 9.0136719 C 11.578937 9.0416182 11.538926 9.0708301 11.498047 9.0976562 L 10.953125 8.5488281 L 8.5136719 6.09375 L 8.0722656 5.8261719 L 10.451172 8.2207031 L 10.361328 8.3085938 L 11.185547 9.2890625 C 11.142368 9.3134483 11.098477 9.3361829 11.054688 9.359375 L 10.511719 8.8125 L 8.0703125 6.3574219 L 7.5410156 6.0019531 L 10.007812 8.484375 L 9.9199219 8.5722656 L 10.71875 9.5234375 C 10.671025 9.5446898 10.622523 9.5660557 10.574219 9.5859375 L 10.068359 9.0761719 L 7.6269531 6.6210938 L 7.0976562 6.265625 L 9.5644531 8.7480469 L 9.4765625 8.8359375 L 10.21875 9.7167969 C 10.163711 9.735135 10.110312 9.7548868 10.054688 9.7714844 L 10.052734 9.7714844 L 9.5371094 9.2519531 L 7.0957031 6.7949219 L 6.4785156 6.3515625 L 9.0351562 8.921875 L 8.9453125 9.0117188 L 9.6660156 9.8691406 C 9.6050821 9.8825912 9.5438716 9.896818 9.4824219 9.9082031 L 9.0058594 9.4277344 L 6.5664062 6.9707031 L 6.0371094 6.6152344 L 8.4160156 9.0097656 L 8.3261719 9.0976562 L 9.0683594 9.96875 C 8.9978539 9.9763198 8.9264198 9.9814794 8.8554688 9.9863281 L 8.5644531 9.6914062 L 5.859375 6.96875 L 5.3300781 6.6132812 L 7.7089844 9.0078125 L 7.6191406 9.0957031 L 8.4042969 9.9980469 C 8.3198602 9.9966014 8.2358122 9.9915381 8.1523438 9.9863281 L 7.6796875 9.5117188 L 4.8867188 6.7011719 L 4.4453125 6.4335938 L 6.9121094 8.9160156 L 6.8242188 9.0039062 L 7.6210938 9.9296875 C 7.5260506 9.9144237 7.4312397 9.8970213 7.3378906 9.8769531 L 7.0742188 9.6113281 L 4.0917969 6.609375 L 3.8261719 6.5195312 L 6.0292969 8.7363281 L 5.9414062 8.8242188 L 6.7070312 9.6992188 C 6.5691196 9.6516524 6.433479 9.5989978 6.3007812 9.5410156 L 6.2988281 9.5410156 L 5.2851562 8.5195312 L 5.234375 8.46875 L 3.4433594 6.6660156 C 3.3320329 6.4065118 3.240643 6.1376365 3.1699219 5.859375 L 3.8261719 6.5195312 L 3.7402344 6.2539062 L 3.1152344 5.625 C 3.0730997 5.4221487 3.0445063 5.2142728 3.0253906 5.0039062 L 3.9179688 5.9023438 L 3.7421875 5.546875 L 3.0097656 4.8105469 C 3.004045 4.707764 3 4.604213 3 4.5 C 3.0002544 4.4254341 3.0025912 4.3515439 3.0058594 4.2773438 L 3.9199219 5.1953125 L 3.65625 4.7519531 L 3.0175781 4.109375 C 3.0294722 3.9501945 3.0467539 3.7913594 3.0722656 3.6347656 L 3.921875 4.4882812 L 3.6582031 4.0449219 L 3.0996094 3.4824219 C 3.1274473 3.3375313 3.1619121 3.194461 3.2011719 3.0527344 L 4.0117188 3.8691406 L 3.7480469 3.4257812 L 3.2402344 2.9140625 C 3.2807684 2.7813445 3.3265605 2.6506136 3.3769531 2.5214844 L 4.1914062 3.3398438 L 3.9277344 2.8964844 L 3.4277344 2.3945312 C 3.4790534 2.2721385 3.5356293 2.1516355 3.5957031 2.0332031 L 4.4570312 2.8984375 L 4.1933594 2.4550781 L 3.65625 1.9140625 C 3.717362 1.8005247 3.7844167 1.689276 3.8535156 1.5800781 L 4.7246094 2.4570312 L 4.4589844 2.0136719 L 3.921875 1.4726562 C 4.0153532 1.3322105 4.1160694 1.1963887 4.2226562 1.0644531 L 4.9023438 1.75 L 4.7265625 1.3964844 L 4.3007812 0.96875 C 4.3082122 0.95996286 4.3167292 0.95210392 4.3242188 0.94335938 z M 10.777344 1.5722656 L 8.1679688 4.1816406 L 5.9296875 1.8769531 L 10.777344 1.5722656 z M 11.429688 2.3339844 L 11.154297 7.2539062 L 8.8652344 4.8984375 L 11.429688 2.3339844 z M 3.6054688 7.0078125 L 5.1464844 8.5566406 L 5.0585938 8.6445312 L 5.3691406 9.0214844 C 4.6281873 8.5073308 4.0200665 7.8153508 3.6054688 7.0078125 z M 3.375 10 L 1 14 L 10 14 L 10 12 C 7.7228623 12.38076 5.1493382 11.773448 3.375 10 z " />
</svg>
