<?xml version="1.0" encoding="UTF-8" standalone="no"?>
<svg
   version="1.1"
   width="14"
   height="14"
   viewBox="0 0 14 14"
   id="svg4"
   xmlns="http://www.w3.org/2000/svg"
   xmlns:svg="http://www.w3.org/2000/svg">
  <defs
     id="defs1" />
  <rect
     width="14"
     height="14"
     x="0"
     y="0"
     id="canvas"
     style="fill:none;stroke:none;visibility:hidden" />
  <path
     id="rect87-8-2-5-6-9"
     style="fill:#000000"
     d="M 12.072266 0.75 L 10.375 2.5 C 9.2616911 1.6790108 7.8749981 1 6 1 L 6 1.5 C 10.124996 1.5 12.5 4.8750031 12.5 8 L 13 8 C 12.997 6.6318514 12.460149 4.8444489 11.625 3.75 L 13.375 2.03125 L 12.072266 0.75 z M 6 2 C 2.6862933 2 0 4.6862933 0 8 L 0 9 L 0.75 9 L 0.75 8.625 L 9.75 8.625 L 9.75 8.75 L 10.875 8.8691406 L 10.875 9 L 12 9 L 12 7.75 L 11.994141 7.75 C 11.862862 4.5524291 9.2298194 2 6 2 z M 6 2.875 C 6.5319289 2.875 7.0341146 2.9636451 7.5 3.125 L 5.5 3.125 L 6.75 3.25 L 7.8203125 3.25 C 7.9896272 3.3237004 8.1549108 3.4069518 8.3125 3.5 L 6.25 3.5 L 7.5 3.625 L 8.25 3.625 L 8.25 3.75 L 8.6914062 3.75 C 8.7981314 3.8283143 8.9002802 3.912858 9 4 L 6.5 4 L 7.75 4.125 L 8.875 4.125 L 8.875 4.25 L 9.265625 4.25 C 9.3444384 4.3303142 9.4208358 4.4141084 9.4941406 4.5 L 6.625 4.5 L 7.875 4.625 L 9.25 4.625 L 9.25 4.75 L 9.6933594 4.75 C 9.7545166 4.8317922 9.8147387 4.9142263 9.8710938 5 L 6.9375 5 L 8.1875 5.125 L 9.5625 5.125 L 9.5625 5.25 L 10.023438 5.25 C 10.07072 5.3317779 10.117154 5.4152967 10.160156 5.5 L 7.25 5.5 L 8.5 5.625 L 9.875 5.625 L 9.875 5.75 L 10.277344 5.75 C 10.313848 5.8322765 10.350317 5.9154674 10.382812 6 L 7.5 6 L 8.75 6.125 L 10.125 6.125 L 10.125 6.25 L 10.470703 6.25 C 10.49786 6.3325367 10.525497 6.4157062 10.548828 6.5 L 7.625 6.5 L 8.875 6.625 L 10.25 6.625 L 10.25 6.75 L 10.611328 6.75 C 10.630115 6.8327506 10.645082 6.9158788 10.660156 7 L 10.375 7 L 6.875 7 L 8.375 7.125 L 10 7.125 L 10 7.25 L 10.701172 7.25 C 10.712195 7.3327729 10.719178 7.4161743 10.726562 7.5 L 10.3125 7.5 L 6.375 7.5 L 8.5625 7.625 L 9.9375 7.625 L 9.9375 7.75 L 10.744141 7.75 C 10.747759 7.8328953 10.75 7.9163193 10.75 8 L 10.125 8 L 5.75 8 L 8.375 8.125 L 9.75 8.125 L 9.75 8.25 L 10.875 8.3691406 L 10.875 8.5 L 10.125 8.5 L 0.75 8.5 L 0.75 8.125 L 1.625 8.125 L 2.5 8 L 0.75 8 C 0.75 7.8738819 0.75740742 7.7492712 0.76757812 7.625 L 1.625 7.625 L 2.5 7.5 L 0.77734375 7.5 C 0.79112167 7.37389 0.81215792 7.2486607 0.8359375 7.125 L 1.625 7.125 L 2.5 7 L 0.86132812 7 C 0.88929684 6.8730188 0.92291536 6.7487837 0.9609375 6.625 L 1.625 6.625 L 2.375 6.5 L 0.99804688 6.5 C 1.040977 6.3725145 1.0914606 6.2483824 1.1445312 6.125 L 1.5 6.125 L 2.25 6 L 1.1992188 6 C 1.2581649 5.8725882 1.323381 5.7471901 1.3925781 5.625 L 2 5.625 L 2 5.5 L 1.4648438 5.5 C 1.54215 5.3718576 1.6249439 5.2463315 1.7128906 5.125 L 2.25 5.125 L 2.25 5 L 1.8066406 5 C 1.9066013 4.8701723 2.0116639 4.7455535 2.1230469 4.625 L 2.5 4.625 L 2.5 4.5 L 2.2441406 4.5 C 2.3732555 4.3687684 2.5087108 4.2429895 2.6503906 4.125 L 3 4.125 L 3 4 L 2.8066406 4 C 3.7101459 3.300919 4.8300112 2.875 6 2.875 z M 1 9.125 L 1 9.75 L 11 9.75 L 11 9.125 L 1 9.125 z M 0 10 L 0 14 L 0.75 14 L 0.75 13.625 L 1.375 13.625 L 2.625 13.5 L 0.75 13.5 L 0.75 13.125 L 1.375 13.125 L 2.625 13 L 0.75 13 L 0.75 12.625 L 1.375 12.625 L 2.625 12.5 L 0.75 12.5 L 0.75 12.125 L 1.375 12.125 L 2.625 12 L 0.75 12 L 0.75 11.625 L 1.375 11.625 L 2.625 11.5 L 0.75 11.5 L 0.75 11.125 L 1.375 11.125 L 2.625 11 L 0.75 11 L 0.75 10.625 L 1.375 10.625 L 2.625 10.5 L 0.75 10.5 L 0.75 10.125 L 1.375 10.125 L 2.625 10 L 0.75 10 L 0 10 z M 5.75 10 L 8.375 10.125 L 9.75 10.125 L 9.75 10.25 L 10.875 10.369141 L 10.875 10.5 L 10.125 10.5 L 5.75 10.5 L 8.375 10.625 L 9.75 10.625 L 9.75 10.75 L 10.875 10.869141 L 10.875 11 L 10.125 11 L 5.75 11 L 8.375 11.125 L 9.75 11.125 L 9.75 11.25 L 10.875 11.369141 L 10.875 11.5 L 10.125 11.5 L 5.75 11.5 L 8.375 11.625 L 9.75 11.625 L 9.75 11.75 L 10.875 11.869141 L 10.875 12 L 10.125 12 L 5.75 12 L 8.375 12.125 L 9.75 12.125 L 9.75 12.25 L 10.875 12.369141 L 10.875 12.5 L 10.125 12.5 L 5.75 12.5 L 8.375 12.625 L 9.75 12.625 L 9.75 12.75 L 10.875 12.869141 L 10.875 13 L 10.125 13 L 5.75 13 L 8.375 13.125 L 9.75 13.125 L 9.75 13.25 L 10.875 13.369141 L 10.875 13.5 L 10.125 13.5 L 5.75 13.5 L 8.375 13.625 L 9.75 13.625 L 9.75 13.75 L 10.875 13.869141 L 10.875 14 L 12 14 L 12 10 L 11.125 10 L 10.875 10 L 10.125 10 L 9.75 10 L 5.75 10 z " />
</svg>
