<?xml version="1.0" encoding="UTF-8" standalone="no"?>
<svg
   version="1.1"
   width="14"
   height="14"
   viewBox="0 0 14 14"
   id="svg2"
   xmlns="http://www.w3.org/2000/svg"
   xmlns:svg="http://www.w3.org/2000/svg">
  <defs
     id="defs1" />
  <rect
     width="14"
     height="14"
     x="0"
     y="0"
     id="canvas"
     style="fill:none;stroke:none;visibility:hidden" />
  <path
     id="rect53625-9-7"
     style="fill:#000000"
     d="M 6 0 L 0 3 L 0 4 L 6 1 L 12 4 L 12 3 L 6 0 z M 2 3.5 L 2 11 L 3 11 L 3 3.5 L 2 3.5 z M 9 3.5 L 9 7 L 10 7 L 10 3.5 L 9 3.5 z M 4 4 L 4 4.5 L 4 6.625 L 4 7 L 6 7 L 6 6.5 L 4.5 6.5 L 4.5 4.5 L 6.5 4.5 L 6.5 6 L 7 6 L 7 4.5 L 7 4 L 4 4 z M 7 7 L 7 8.3125 A 2.25 2.25 0 0 0 6.3027344 8.5957031 L 5.3789062 7.671875 L 4.671875 8.3789062 L 5.5957031 9.3027344 A 2.25 2.25 0 0 0 5.3125 10 L 4 10 L 4 11 L 5.3125 11 A 2.25 2.25 0 0 0 5.6054688 11.6875 L 4.671875 12.621094 L 5.3789062 13.328125 L 6.3125 12.394531 A 2.25 2.25 0 0 0 7 12.6875 L 7 14 L 8 14 L 8 12.6875 A 2.25 2.25 0 0 0 8.6972656 12.404297 L 9.6210938 13.328125 L 10.328125 12.621094 L 9.4042969 11.697266 A 2.25 2.25 0 0 0 9.6875 11 L 11 11 L 11 10 L 11 9 L 12 8 L 14 8 L 14 7 L 12 7 L 11 8 L 10.375 9 L 10.375 10 L 9.6933594 10 A 2.25 2.25 0 0 0 9.4003906 9.3066406 L 10.328125 8.3789062 L 9.6210938 7.671875 L 8.6933594 8.5996094 A 2.25 2.25 0 0 0 8 8.3066406 L 8 7 L 7 7 z M 7.5 9 A 1.5 1.5 0 0 1 9 10.5 A 1.5 1.5 0 0 1 7.5 12 A 1.5 1.5 0 0 1 6 10.5 A 1.5 1.5 0 0 1 7.5 9 z M 7.5 10 A 0.5 0.5 0 0 0 7 10.5 A 0.5 0.5 0 0 0 7.5 11 A 0.5 0.5 0 0 0 8 10.5 A 0.5 0.5 0 0 0 7.5 10 z M 0 12 L 0 12.5 L 4 12.5 L 4 12 L 0 12 z M 0 12.75 L 0 13 L 4 13 L 4 12.75 L 0 12.75 z M 0 13.25 L 0 13.5 L 4.5 13.5 L 4.5 13.25 L 0 13.25 z " />
</svg>
