<?xml version="1.0" encoding="UTF-8" standalone="no"?>
<!-- Created with Inkscape (http://www.inkscape.org/) -->

<svg
   version="1.1"
   width="9"
   height="15"
   viewBox="0 0 9 15"
   id="svg2"
   xmlns="http://www.w3.org/2000/svg"
   xmlns:svg="http://www.w3.org/2000/svg">
  <defs
     id="defs1" />
  <rect
     width="14"
     height="16"
     x="0"
     y="0"
     id="canvas"
     style="visibility:hidden;fill:none;stroke:none" />
  <path
     id="path199"
     style="color:#000000;fill:#000000;stroke-linecap:round;stroke-linejoin:round;-inkscape-stroke:none"
     d="M 3.8007812,0 2.4667969,0.55273438 3.40625,2.1386719 A 1.75,1.75 0 0 0 3.1386719,2.40625 L 1.5527344,1.4667969 0.9785156,2.8535156 2.7636719,3.3105469 A 1.75,1.75 0 0 0 2.75,3.5 1.75,1.75 0 0 0 2.7636719,3.6894531 l -1.7851563,0.4570313 0.5742188,1.3867187 1.5859375,-0.9375 A 1.75,1.75 0 0 0 3.40625,4.8613281 L 2.4667969,6.4472656 3.8535156,7.0214844 4.3105469,5.2363281 A 1.75,1.75 0 0 0 4.375,5.2402344 V 8 H 3.5136719 L 3.6367188,7.25 H 3.1289062 L 3.0058594,8 H 2 V 8.375 H 2.9433594 L 2.0175781,14 H 2 L 0,15 H 9 L 7,14 H 6.9824219 L 6.0566406,8.375 H 7 V 8 H 5.9941406 L 5.8710938,7.25 H 5.3632812 L 5.4863281,8 H 4.625 V 5.2402344 a 1.75,1.75 0 0 0 0.064453,-0.00391 L 5.1464844,7.0214844 6.5332031,6.4472656 5.59375,4.8613281 A 1.75,1.75 0 0 0 5.8613281,4.59375 L 7.447266,5.5332031 8.021484,4.1464844 6.2363281,3.6894531 A 1.75,1.75 0 0 0 6.25,3.5 1.75,1.75 0 0 0 6.2402344,3.3105469 L 8.021484,2.8535156 7.447266,1.4667969 5.8632812,2.4042969 A 1.75,1.75 0 0 0 5.5957031,2.1347656 L 6.5332031,0.55273438 5.1992188,0 H 5.140625 L 4.6894531,1.7597656 A 1.75,1.75 0 0 0 4.5,1.75 1.75,1.75 0 0 0 4.3105469,1.7636719 L 3.859375,0 Z M 4.5,2 A 1.5000067,1.4999999 0 0 1 6,3.5 1.5000067,1.4999999 0 0 1 4.5,5 1.5000067,1.4999999 0 0 1 3,3.5 1.5000067,1.4999999 0 0 1 4.5,2 Z m 0,1 A 0.5,0.5 0 0 0 4,3.5 0.5,0.5 0 0 0 4.5,4 0.5,0.5 0 0 0 5,3.5 0.5,0.5 0 0 0 4.5,3 Z M 3.4511719,8.375 H 4.375 V 11 H 3.0175781 Z M 4.625,8.375 H 5.5488281 L 5.9824219,11 H 4.625 Z M 2.9765625,11.25 H 4.375 V 14 H 2.5234375 Z M 4.625,11.25 H 6.0234375 L 6.4765625,14 H 4.625 Z" />
</svg>
