<?xml version="1.0" encoding="UTF-8" standalone="no"?>
<svg
   version="1.1"
   width="14"
   height="14"
   viewBox="0 0 14 14"
   id="svg2"
   xmlns="http://www.w3.org/2000/svg"
   xmlns:svg="http://www.w3.org/2000/svg">
  <defs
     id="defs1" />
  <rect
     width="14"
     height="14"
     x="0"
     y="0"
     id="canvas"
     style="fill:none;stroke:none;visibility:hidden" />
  <path
     id="rect71-4"
     style="fill:#000000"
     d="m 9.45312,0 -1.4707,2.97852 -0.002,0.002 -1.08594,2.14062 -0.24023,0.0664 -2.01172,-1.3125 h -0.002 L 1.77725,1.96488 0.89444,3.49418 6.12296,6.10551 6.18746,6.3477 2.9648,11.2227 4.49605,12.10551 7.10543,6.87699 7.34762,6.81249 12.22262,10.03515 13.10738,8.5039 7.87887,5.89452 7.81247,5.65233 11.03708,0.77733 9.69141,0 Z M 6.95898,3.00391 A 3,3 0 0 0 5.54883,3.39062 L 6.46094,3.98633 Z M 9.62305,4.54688 9.01953,5.45898 9.99805,5.94727 A 3,3 0 0 0 9.62305,4.54688 Z M 6.9707,5.5 C 7.20285,5.486 7.41989,5.63768 7.48242,5.87109 7.55392,6.13782 7.39562,6.41095 7.12891,6.48242 6.86218,6.55392 6.58905,6.39562 6.51758,6.12891 6.44608,5.86218 6.60438,5.58905 6.87109,5.51758 c 0.0333,-0.009 0.0665,-0.0156 0.0996,-0.0176 z M 3.99414,6.04883 3.6875,8.49609 4.98047,6.54102 Z M 7.54102,8.01953 4.87305,13.36328 3.20117,12.39844 3.125,13 H 2 v 1 h 1 8 1 V 13 H 10.875 L 10.49609,9.97461 Z" />
</svg>
