<?xml version="1.0" encoding="UTF-8" standalone="no"?>
<svg
   version="1.1"
   width="14"
   height="14"
   viewBox="0 0 14 14"
   id="svg2"
   xmlns="http://www.w3.org/2000/svg"
   xmlns:svg="http://www.w3.org/2000/svg">
  <defs
     id="defs1" />
  <rect
     width="14"
     height="14"
     x="0"
     y="0"
     id="canvas"
     style="fill:none;stroke:none;visibility:hidden" />
  <path
     id="path260-7"
     style="fill:#000000"
     d="M 5.9960938 3.9882812 A 6.4383258 5.4444445 0 0 0 3.9335938 4.2890625 C 4.4481032 5.1948616 4.75 6.3015824 4.75 7.4882812 C 4.75 8.6749801 4.4481032 9.7817005 3.9335938 10.6875 A 6.4383258 5.4444445 0 0 0 5.9960938 10.988281 A 6.4383258 5.4444445 0 0 0 11.597656 8.1855469 L 14 10.988281 L 14 3.9882812 L 11.607422 6.7792969 A 6.4383258 5.4444445 0 0 0 5.9960938 3.9882812 z M 3.4042969 4.4667969 A 6.4383258 5.4444445 0 0 0 0 7.4882812 A 6.4383258 5.4444445 0 0 0 3.4042969 10.509766 C 3.9028064 9.6781961 4.203135 8.6337501 4.203125 7.4882812 C 4.203125 6.3428124 3.9028064 5.298366 3.4042969 4.4667969 z M 2.5 5.8632812 A 0.625 0.625 0 0 1 3.125 6.4882812 A 0.625 0.625 0 0 1 2.5 7.1132812 A 0.625 0.625 0 0 1 1.875 6.4882812 A 0.625 0.625 0 0 1 2.5 5.8632812 z " />
</svg>
