<?xml version="1.0" encoding="UTF-8" standalone="no"?>
<svg
   version="1.1"
   width="14"
   height="14"
   viewBox="0 0 14 14"
   id="svg2"
   xmlns="http://www.w3.org/2000/svg"
   xmlns:svg="http://www.w3.org/2000/svg">
  <defs
     id="defs1" />
  <rect
     width="14"
     height="14"
     x="0"
     y="0"
     id="canvas"
     style="fill:none;stroke:none;visibility:hidden" />
  <path
     id="path250"
     style="fill:#000000"
     d="M 7 2 C 6.3519906 2 5.8717716 2.3265104 5.5761719 2.75 C 5.5181719 2.8330999 5.4691681 2.9193926 5.4238281 3.0078125 C 5.3532282 2.9409126 5.2783855 2.8791456 5.1972656 2.8222656 C 4.9392559 2.6412858 4.6252934 2.521695 4.2773438 2.515625 C 4.068584 2.512625 3.8474904 2.549652 3.6191406 2.6386719 C 3.0102112 2.8762816 2.6621911 3.360848 2.5195312 3.8671875 C 2.4917313 3.9653874 2.4713312 4.0655826 2.4570312 4.1640625 C 2.3700313 4.1273625 2.2814399 4.0939125 2.1875 4.0703125 C 2.0674101 4.0402125 1.942693 4.0239844 1.8144531 4.0214844 C 1.4297735 4.0154844 1.018774 4.143586 0.64648438 4.4785156 C 0.15007487 4.9249852 -0.025526848 5.5089799 0.001953125 6.0371094 C 0.029553097 6.5652088 0.24008401 7.042051 0.49609375 7.3691406 C 1.5642927 8.7338593 3.4682147 10.036688 4.3710938 10.779297 C 5.2740128 11.521856 6.0840009 11.99988 7 12 C 8.000039 12.00013 8.716271 11.562759 9.75 10.75 C 10.783729 9.9372808 12.500001 8.7499987 13.5 7.5 C 13.75948 7.1756503 13.970557 6.5651988 13.998047 6.0371094 C 14.025647 5.5089999 13.849905 4.9249952 13.353516 4.4785156 C 12.981216 4.143606 12.570236 4.0144944 12.185547 4.0214844 C 12.057307 4.0234844 11.93258 4.0400125 11.8125 4.0703125 C 11.7185 4.0939125 11.630029 4.1255094 11.542969 4.1621094 C 11.528669 4.0636095 11.508069 3.9654374 11.480469 3.8671875 C 11.337819 3.360858 10.989769 2.8762716 10.380859 2.6386719 C 10.1525 2.549572 9.931416 2.511925 9.7226562 2.515625 C 9.3747266 2.520625 9.0607741 2.6413058 8.8027344 2.8222656 C 8.7224345 2.8786656 8.6480449 2.9397494 8.578125 3.0058594 C 8.532925 2.9179595 8.4834912 2.8326499 8.4257812 2.75 C 8.1302015 2.3265004 7.6479994 2 7 2 z M 7 2.5 C 7.3558232 2.5000068 7.6232995 2.589621 7.8320312 2.75 L 7.625 2.75 L 7.625 2.875 L 7.9707031 2.875 C 8.0127838 2.9199823 8.0533477 2.9672413 8.0898438 3.0195312 C 8.1402416 3.091733 8.18194 3.1691515 8.2167969 3.25 L 7.875 3.25 L 7.875 3.375 L 8.2636719 3.375 C 8.3051004 3.4985878 8.3325933 3.626311 8.3496094 3.75 L 8 3.75 L 8 3.875 L 8.3632812 3.875 C 8.3710268 3.962971 8.375 4.0473739 8.375 4.125 C 8.375 4.1671177 8.3720159 4.2082005 8.3710938 4.25 L 8 4.25 L 8 4.375 L 8.3652344 4.375 C 8.3597329 4.5008263 8.3510477 4.6260122 8.3378906 4.75 L 8 4.75 L 8 4.875 L 8.3242188 4.875 C 8.3084753 5.0001667 8.2880933 5.1252188 8.265625 5.25 L 7.875 5.25 L 7.875 5.375 L 8.2441406 5.375 C 8.2197131 5.4994132 8.1920886 5.624475 8.1621094 5.75 L 7.75 5.75 L 7.75 5.875 L 8.1308594 5.875 C 8.0997508 5.9990548 8.0686095 6.1234402 8.0332031 6.25 L 7.625 6.25 L 7.625 6.375 L 7.9960938 6.375 C 7.9608875 6.4976327 7.9229796 6.6237713 7.8847656 6.75 L 7.5 6.75 L 7.5 6.875 L 7.8476562 6.875 C 7.8102915 6.9971508 7.7717028 7.1234302 7.7324219 7.25 L 7.375 7.25 L 7.375 7.375 L 7.6953125 7.375 C 7.6745779 7.4418328 7.6558364 7.5020332 7.6347656 7.5703125 C 7.7788455 7.5946125 7.9190408 7.6285219 8.0566406 7.6699219 C 8.4506002 6.4152831 8.87501 5.3619888 8.875 4.125 C 8.87501 3.9174402 8.8168731 3.6766485 8.7519531 3.4492188 C 8.835953 3.3553188 8.9287401 3.2691556 9.03125 3.1972656 C 9.2328898 3.0558458 9.4867803 3.00275 9.75 3 C 9.9079298 2.999 10.079672 3.0298826 10.263672 3.1015625 C 10.282497 3.1089081 10.298382 3.1173112 10.316406 3.125 L 10.125 3.125 L 10.125 3.375 L 10.71875 3.375 C 10.800683 3.4502901 10.867163 3.5348295 10.921875 3.625 L 10.625 3.625 L 10.625 3.875 L 11.041016 3.875 C 11.05515 3.9144727 11.068411 3.9546787 11.080078 3.9960938 C 11.092038 4.0385427 11.101767 4.082051 11.109375 4.125 L 10.625 4.125 L 10.625 4.375 L 11.130859 4.375 C 11.131773 4.4598993 11.127306 4.5430246 11.117188 4.625 L 10.625 4.625 L 10.625 4.875 L 11.072266 4.875 C 11.051145 4.9643101 11.0261 5.0480951 11 5.125 L 10.5 5.125 L 10.5 5.375 L 10.90625 5.375 C 10.872193 5.4606064 10.83457 5.5428673 10.796875 5.625 L 10.25 5.625 L 10.25 5.875 L 10.677734 5.875 C 10.63351 5.9600619 10.585119 6.042178 10.537109 6.125 L 10 6.125 L 10 6.375 L 10.386719 6.375 C 10.333877 6.458397 10.280979 6.5420162 10.224609 6.625 L 9.625 6.625 L 9.625 6.875 L 10.048828 6.875 C 9.9902682 6.9569899 9.9306737 7.0415346 9.8691406 7.125 L 9.375 7.125 L 9.375 7.3691406 L 9.6875 7.3691406 C 9.6269638 7.4500082 9.558914 7.5412314 9.4960938 7.625 L 9 7.625 L 9 7.8710938 L 9.3144531 7.8710938 C 9.2501653 7.9576186 9.1911964 8.0341363 9.125 8.125 C 9.2407699 8.2213999 9.327602 8.4322689 9.4199219 8.5429688 C 10.245901 7.4173399 11.02427 6.5332969 11.443359 5.2988281 C 11.509459 5.1042783 11.552723 4.8787579 11.564453 4.6425781 C 11.673083 4.5845782 11.800562 4.5709656 11.919922 4.5410156 C 12.013822 4.5174156 12.15327 4.503 12.25 4.5 C 12.5402 4.491 12.785988 4.5524559 13.085938 4.8222656 C 13.237913 4.9589704 13.336707 5.102312 13.400391 5.25 L 12.375 5.25 L 12.375 5.375 L 12.875 5.375 L 12.875 5.5 L 13.474609 5.5 C 13.49042 5.5822951 13.49895 5.6660812 13.501953 5.75 L 13.5 5.75 L 12.375 5.75 L 12.375 5.875 L 12.875 5.875 L 12.875 6 L 13.5 6 C 13.49572 6.0821498 13.473501 6.1660264 13.443359 6.25 L 13.375 6.25 L 12.25 6.25 L 12.25 6.375 L 12.75 6.375 L 12.75 6.5 L 13.326172 6.5 C 13.275873 6.5880682 13.220108 6.6695415 13.162109 6.75 L 13.125 6.75 L 12 6.75 L 12 6.875 L 12.5 6.875 L 12.5 7 L 12.974609 7 C 12.940423 7.0427543 12.902538 7.0898179 12.875 7.125 C 12.841937 7.1672434 12.807665 7.2084457 12.773438 7.25 L 12.75 7.25 L 11.625 7.25 L 11.625 7.375 L 12.125 7.375 L 12.125 7.5 L 12.556641 7.5 C 12.48023 7.5844274 12.402727 7.6682876 12.322266 7.75 L 12.25 7.75 L 11.125 7.75 L 11.125 7.875 L 11.625 7.875 L 11.625 8 L 12.066406 8 C 11.975616 8.0855152 11.881095 8.1672004 11.787109 8.25 L 11.625 8.25 L 10.5 8.25 L 10.5 8.375 L 11 8.375 L 11 8.5 L 11.496094 8.5 C 11.395381 8.5838412 11.29577 8.6685896 11.193359 8.75 L 11 8.75 L 9.875 8.75 L 9.875 8.875 L 10.375 8.875 L 10.375 9 L 10.869141 9 C 10.758866 9.0845769 10.649106 9.1675529 10.539062 9.25 L 10.375 9.25 L 9.25 9.25 L 9.25 9.375 L 9.75 9.375 L 9.75 9.5 L 10.207031 9.5 C 10.092577 9.5849141 9.9866706 9.6666969 9.875 9.75 C 9.8745805 9.7503129 9.8734663 9.7496871 9.8730469 9.75 L 9.75 9.75 L 8.625 9.75 L 8.625 9.875 L 9.125 9.875 L 9.125 10 L 9.5410156 10 C 9.4872318 10.041038 9.4275172 10.084195 9.375 10.125 C 9.3128589 10.173283 9.2727562 10.204732 9.2148438 10.25 L 9 10.25 L 7.875 10.25 L 7.875 10.375 L 8.375 10.375 L 8.375 10.5 L 8.8945312 10.5 C 8.7851456 10.585005 8.6627057 10.678384 8.5664062 10.75 L 8.375 10.75 L 7.25 10.75 L 7.25 10.875 L 7.75 10.875 L 7.75 11 L 8.2070312 11 C 8.1348322 11.046225 8.0634054 11.087747 7.9941406 11.125 L 6.625 11.125 L 6.625 11.25 L 7.7304688 11.25 C 7.5077487 11.334587 7.278124 11.375 7 11.375 C 6.1485709 11.375 5.617949 11.053029 4.625 10.25 C 3.632041 9.4469708 1.7950191 8.3004788 0.875 7.125 C 0.6786502 6.8741603 0.52146998 6.4126596 0.5 6 C 0.47850002 5.5873304 0.56880031 5.1249997 0.875 4.875 C 1.1749597 4.6051503 1.4598103 4.49116 1.75 4.5 C 1.8887899 4.504 2.2502571 4.5596282 2.4355469 4.6425781 C 2.4472469 4.8787579 2.4905207 5.1042683 2.5566406 5.2988281 C 2.9526202 6.465207 3.7551433 7.5418429 4.5390625 8.6074219 C 4.6283624 8.490832 4.7309632 8.3814068 4.8457031 8.2792969 C 4.0733539 7.2214479 3.3075215 6.1942202 2.9511719 5.1445312 C 2.846712 4.8369216 2.808472 4.3917434 2.9199219 3.9960938 C 3.0314018 3.6004441 3.2710792 3.2519867 3.7617188 3.0605469 C 3.9457086 2.9887469 4.0920602 2.9984 4.25 3 C 4.5132197 3.002 4.7671302 3.0558758 4.96875 3.1972656 C 5.0713199 3.2691656 5.164157 3.3553588 5.2480469 3.4492188 C 5.2431792 3.4662767 5.2388646 3.4829566 5.234375 3.5 L 4.75 3.5 L 4.75 3.625 L 5.203125 3.625 C 5.1761148 3.7531306 5.1624439 3.8787759 5.15625 4 L 4.75 4 L 4.75 4.125 L 5.1523438 4.125 C 5.1526431 4.2493167 5.1579366 4.3744497 5.1660156 4.5 L 4.75 4.5 L 4.75 4.625 L 5.1757812 4.625 C 5.1861581 4.7498059 5.1998887 4.874205 5.2167969 5 L 4.875 5 L 4.875 5.125 L 5.2363281 5.125 C 5.2550208 5.2498123 5.274813 5.3744345 5.2988281 5.5 L 5 5.5 L 5 5.625 L 5.3242188 5.625 C 5.3496034 5.7497278 5.3766816 5.874742 5.40625 6 L 5.125 6 L 5.125 6.125 L 5.4355469 6.125 C 5.4661878 6.249827 5.4994502 6.3748549 5.5332031 6.5 L 5.25 6.5 L 5.25 6.625 L 5.5664062 6.625 C 5.6009429 6.7499349 5.637219 6.874954 5.6738281 7 L 5.375 7 L 5.375 7.125 L 5.7128906 7.125 C 5.750036 7.2500964 5.7860268 7.3749984 5.8242188 7.5 L 5.5 7.5 L 5.5 7.625 L 5.8613281 7.625 C 5.8683562 7.647884 5.8757732 7.6704833 5.8828125 7.6933594 C 6.0178624 7.6470594 6.1562883 7.6097281 6.2988281 7.5800781 C 5.9282785 6.3629093 5.5703125 5.1782071 5.5703125 4.1113281 C 5.5703125 3.7838785 5.6791965 3.3504509 5.9101562 3.0195312 C 6.141136 2.6886316 6.4778305 2.5 7 2.5 z " />
</svg>
