<?xml version="1.0" encoding="UTF-8" standalone="no"?>
<svg
   version="1.1"
   width="14"
   height="14"
   viewBox="0 0 14 14"
   id="svg2"
   xmlns="http://www.w3.org/2000/svg"
   xmlns:svg="http://www.w3.org/2000/svg">
  <defs
     id="defs1" />
  <rect
     width="14"
     height="14"
     x="0"
     y="0"
     id="canvas"
     style="fill:none;stroke:none;visibility:hidden" />
  <path
     id="path44"
     style="fill:#000000"
     d="M 10.578125,1.1595933 C 10.35738,1.1634233 10.195425,1.2663132 10.066406,1.356859 9.918956,1.4603398 9.8011334,1.5741309 9.7285156,1.638109 9.6361556,1.719479 9.5421531,1.8092182 9.4589844,1.872484 9.3859344,1.928053 9.3306554,1.94881 9.328125,1.952562 9.3175713,1.948523 9.2548832,1.9411286 9.1796875,1.9134996 9.0794264,1.876661 8.9503577,1.8182707 8.8164062,1.7572496 8.6824547,1.6962284 8.5457251,1.6319201 8.4042969,1.5834215 8.2628686,1.5349228 8.1234911,1.4748177 7.9003906,1.5365465 7.6756402,1.5987287 7.4987021,1.7980697 7.4453125,1.9017808 7.4209335,1.9491375 7.4169994,1.9582701 7.4179688,1.9603746 7.1022342,2.1543483 6.9785961,2.4907332 6.9375,2.7162339 6.897989,2.9330344 6.881917,3.0674294 6.8222656,3.1693589 c -0.00691,0.0022 -0.020407,0.00687 -0.058594,0.011719 -0.086658,0.011011 -0.2338113,0.00677 -0.390625,-0.00391 C 6.216233,3.1664976 6.0492464,3.1505088 5.875,3.1615465 5.7007536,3.172584 5.4518836,3.2049765 5.3027344,3.4545152 5.1707798,3.6752858 5.2003287,3.8689259 5.2265625,4.0443589 c 0.026234,0.175433 0.074224,0.3479906 0.1191406,0.5136719 0.044917,0.1656815 0.088268,0.3224892 0.1074219,0.4394531 0.00958,0.058482 0.00899,0.1080211 0.00781,0.1347657 C 5.44008,5.1464406 5.388535,5.1926166 5.3027344,5.2455308 5.1721585,5.3260589 4.9665391,5.4191969 4.8476562,5.6888902 4.1600187,7.2486664 3.2165646,8.2751373 2.4492188,9.2982652 1.942049,9.9744932 1.5900239,10.517715 1.359375,10.934984 1.1287261,11.352254 1,11.584655 1,11.897875 c 0,0.2021 0.00765,0.33033 0.052734,0.462891 0.04508,0.132559 0.1073568,0.199094 0.1308594,0.236328 0.00569,0.0054 0.011557,0.0106 0.017578,0.01563 0.1426537,0.192896 0.3323894,0.271834 0.4980469,0.318359 0.1794142,0.05039 0.3581007,0.06516 0.5429687,0.06836 0.369736,0.0064 0.7640387,-0.04304 1.1054687,-0.111328 l 0.021484,-0.0039 0.023437,-0.0078 C 6.08151,12.079732 7.59518,12.495509 8.999999,11.950634 c 0.2840558,-0.110172 0.5452949,-0.221857 0.7988281,-0.33789 0.00532,-1.58e-4 0.00907,-7.64e-4 0.015625,0 0.055691,0.0065 0.1502049,0.02516 0.2558599,0.04492 0.105653,0.01976 0.220957,0.0428 0.363281,0.04492 0.142323,0.0021 0.372994,-3.34e-4 0.570312,-0.228515 0.277448,-0.320762 0.203302,-0.655434 0.177735,-0.841797 0.03292,-0.01238 0.04871,-0.02388 0.08203,-0.0332 0.104597,-0.02927 0.209635,-0.0238 0.173828,-0.03125 0.339411,0.07062 0.633431,-0.04858 0.84375,-0.167969 0.210319,-0.119391 0.37495,-0.2533 0.498047,-0.335937 0.213261,-0.1431787 0.250703,-0.332448 0.269531,-0.4531258 0.01883,-0.1206778 0.01379,-0.2196682 0.0059,-0.3222656 -0.01593,-0.2051949 -0.05601,-0.4197651 -0.0957,-0.6308594 -0.0397,-0.2110943 -0.07928,-0.4169385 -0.09766,-0.5664063 -0.0042,-0.033842 -0.0028,-0.065648 0,-0.09375 0.02212,-0.01407 0.03772,-0.025858 0.08594,-0.052734 0.144155,-0.080359 0.426874,-0.2680686 0.519531,-0.6054688 0.02997,-0.1091388 0.142315,-0.3296215 0.263672,-0.578125 C 13.851826,6.5126525 14,6.2076828 14,5.8288433 14,5.2075759 13.65973,4.955641 13.408203,4.7240465 13.189702,4.5228601 13.063676,4.3706264 13.029297,4.3158433 c 0.02426,-0.014823 0.07019,-0.1980461 0.193359,-0.4160156 0.155808,-0.2757221 0.400445,-0.6190149 0.339844,-1.1171875 -0.0235,-0.165694 -0.128327,-0.3086469 -0.279297,-0.3808594 -0.13257,-0.175342 -0.352209,-0.2794181 -0.53125,-0.2910156 -0.197239,-0.012776 -0.356432,0.034676 -0.496094,0.080078 -0.135529,0.044059 -0.250653,0.089082 -0.326172,0.1113282 -0.07181,-0.066837 -0.200875,-0.2394723 -0.363281,-0.4785157 -0.180144,-0.2651532 -0.437711,-0.608694 -0.890625,-0.6601562 -0.03404,-0.00386 -0.06612,-0.00445 -0.09766,-0.00391 z m 0.02734,0.7539063 c 0.08702,0.017686 0.195715,0.1170153 0.341797,0.3320312 0.153176,0.2254608 0.289426,0.5353681 0.621093,0.7441407 0.233232,0.1467951 0.420286,0.07785 0.556641,0.039062 0.136355,-0.038788 0.257285,-0.088589 0.363281,-0.1230468 0.033,-0.010728 0.05766,-0.01713 0.08399,-0.023437 -7.94e-4,0.0065 -0.0015,0.013008 -0.002,0.019531 0.0016,0.013476 -0.06582,0.2386877 -0.216797,0.5058594 -0.150977,0.2671717 -0.420878,0.5603236 -0.320313,1.0761719 0.101448,0.5207301 0.474531,0.7677274 0.699219,0.9746094 0.224733,0.2068821 0.282196,0.3050862 0.279343,0.3554688 -0.0052,0.091243 -0.07189,0.2870843 -0.179688,0.5078125 -0.104574,0.214137 -0.238627,0.4445017 -0.320312,0.7265625 -0.004,-1.844e-4 -0.0098,6.051e-4 -0.05078,0.023437 -0.101098,0.056356 -0.347694,0.1511255 -0.513671,0.4433594 -0.188613,0.3319629 -0.103448,0.4912044 -0.07813,0.6972656 0.02533,0.2060612 0.06863,0.4245807 0.107422,0.6308594 0.03733,0.1985022 0.06745,0.3813401 0.07812,0.5019531 -0.09439,0.06718 -0.198795,0.1445481 -0.267578,0.1835937 -0.111383,0.063228 -0.149422,0.059529 -0.144531,0.060547 -0.261356,-0.054403 -0.459281,-0.00606 -0.648437,0.046875 -0.189158,0.052936 -0.354383,0.1204141 -0.5,0.2070313 -0.226767,0.1349237 -0.309562,0.4053583 -0.31836,0.5527343 -0.0073,0.121778 0.0073,0.196239 0.01758,0.269531 -0.08037,-0.01555 -0.164078,-0.03333 -0.263672,-0.04492 -0.1224253,-0.01426 -0.2592992,-0.04967 -0.4843695,0.05469 -0.2524641,0.117108 -0.5175327,0.228904 -0.8085937,0.341794 -0.2991495,0.116028 -0.6838403,0.163071 -1.1464844,0.201171 1.3050925,-0.305633 2.3483171,-0.876568 3.0937496,-1.6503905 0.985062,-1.0225775 1.442504,-2.395027 1.314453,-3.9316407 -0.006,-0.082465 -0.07767,-0.1444912 -0.160156,-0.1386719 -0.08329,0.00602 -0.14563,0.078893 -0.138672,0.1621094 0.121949,1.4633805 -0.307722,2.7393025 -1.232422,3.6992188 C 9.4424876,10.318729 8.0157058,10.966013 6.1269531,11.130297 h -0.00195 c -0.5772118,0.0573 -1.2273218,0.260245 -1.8183594,0.484375 -0.3649494,0.07842 -0.7504396,0.173996 -1.1621094,0.294922 -0.2821882,0.0559 -0.6269734,0.0943 -0.8847656,0.08984 -0.1300544,-0.0022 -0.2380114,-0.01691 -0.2890656,-0.03125 -0.051054,-0.01434 -0.015448,-0.02697 0.041016,0.0625 C 1.9538284,11.94607 1.8713262,11.881296 1.7753906,11.84514 1.8078516,11.75138 1.8769006,11.549233 2.015625,11.298266 2.222838,10.923396 2.5593829,10.402684 3.0507812,9.7474839 3.7834323,8.7706157 4.7944568,7.6717618 5.5351562,5.9916246 5.5178133,6.0309683 5.5684888,5.9624168 5.6953125,5.8842027 5.8221362,5.8059886 6.02355,5.7240961 6.1484375,5.4584215 6.2518417,5.2384619 6.222288,5.0530397 6.1933594,4.8763902 6.1644307,4.6997407 6.1149481,4.5254094 6.0703125,4.3607652 6.0256769,4.196121 5.9850343,4.0419288 5.96875,3.9330308 5.96498,3.9078378 5.96288,3.9296308 5.96289,3.9115468 c 0.087571,-0.00224 0.2109896,0.00357 0.359375,0.013672 0.1645219,0.0112 0.3451444,0.024145 0.5351563,0 C 7.0474344,3.9010732 7.2883375,3.8286495 7.4375,3.6049058 7.632973,3.3116926 7.6450621,3.0195605 7.6757812,2.8509996 7.7065005,2.6824386 7.6991394,2.6642839 7.8144531,2.5970933 7.9908591,2.4942968 8.0633124,2.3357442 8.0917969,2.2748277 c 0.018471,0.00233 0.040164,0.00791 0.068359,0.017578 0.089104,0.030556 0.2133652,0.086198 0.3457032,0.1464844 0.1323378,0.060286 0.2733996,0.1253336 0.4160156,0.1777344 0.142616,0.052401 0.2791215,0.1053179 0.4785156,0.083984 0.2305594,-0.024657 0.3836234,-0.133495 0.5136727,-0.2324214 0.130047,-0.098927 0.237926,-0.2035987 0.310546,-0.2675782 0.09229,-0.081312 0.188055,-0.1719174 0.271485,-0.2304687 0.06029,-0.042309 0.105047,-0.052368 0.109375,-0.056641 z m -1.9824221,1.421875 c -0.051252,-6.034e-4 -0.1038315,6.24e-4 -0.15625,0.00195 -0.1380874,0.0032 -0.2474125,0.1177769 -0.2441367,0.2558625 0.0032,0.1380877 0.1177735,0.2474147 0.2558594,0.2441406 0.7467105,-0.018934 1.2563758,0.1634061 1.6015624,0.5566406 0.345187,0.3932346 0.544922,1.0397675 0.544922,2.0039063 0,1.5368696 -0.372812,2.3095803 -1.7519531,3.3808593 -0.1098059,0.084493 -0.1299539,0.2421741 -0.044922,0.3515631 0.085085,0.109178 0.2426864,0.128441 0.3515625,0.04297 C 10.623941,9.0514086 11.125,8.0266985 11.125,6.3978746 11.125,5.3655673 10.916481,4.5872913 10.457031,4.0638902 10.026298,3.5732017 9.3918288,3.3444248 8.6230469,3.3353746 Z m -1.6289063,1.6875 C 6.8560506,5.0260756 6.746726,5.1406496 6.75,5.2787339 6.7531987,5.4168216 6.8677735,5.5261487 7.0058594,5.5228746 7.5670344,5.5086436 7.9356237,5.6958527 8.203125,6.0658433 8.4706263,6.4358341 8.625,7.0177877 8.625,7.7728746 c 0,1.2000638 -0.3028438,1.7522538 -1.3886719,2.5957034 -0.108556,0.08436 -0.1286244,0.240545 -0.044922,0.349609 0.084494,0.109805 0.2421738,0.129952 0.3515626,0.04492 C 8.6860564,9.8751815 9.125,9.0719458 9.125,7.7728746 c 0,-0.8210101 -0.1585251,-1.5060824 -0.515625,-2 -0.3570999,-0.4939176 -0.924822,-0.7675087 -1.6152344,-0.75 z m -0.1425781,1.4824219 0.085937,0.4921874 h 0.00195 L 6.8535156,6.5052965 Z M 5.796875,7.2689683 c -0.030213,-1.055e-4 -0.060963,0.00117 -0.091797,0.00195 -0.138089,0.0032 -0.2474166,0.1177753 -0.2441405,0.2558625 0.0032,0.1380878 0.1177734,0.2474151 0.2558594,0.2441407 0.424787,-0.010775 0.6545338,0.064139 0.796875,0.2246093 C 6.6560129,8.1560013 6.75,8.4714799 6.75,9.0228746 6.75,9.4456399 6.670672,9.6697 6.5019531,9.8920152 6.3332343,10.114331 6.0467792,10.337169 5.6367188,10.655687 c -0.1079278,0.08495 -0.1271143,0.241056 -0.042969,0.34961 0.084494,0.109805 0.2421738,0.129952 0.3515625,0.04492 C 6.3528005,10.733698 6.6691229,10.499484 6.9003906,10.19475 7.1316585,9.8900158 7.25,9.5167675 7.25,9.0228746 7.25,8.4180916 7.1590898,7.9705607 6.8867188,7.6634996 6.6313714,7.3756297 6.2500683,7.2705513 5.796875,7.2689683 Z M 9.78125,11.612719 c 0.00177,-3.38e-4 0.00562,2.56e-4 0.00781,0 -0.017139,0.0045 -0.02035,0.0024 -0.00781,0 z" />
</svg>
