<?xml version="1.0" encoding="UTF-8" standalone="no"?>
<svg
   version="1.1"
   width="14"
   height="14"
   viewBox="0 0 14 14"
   id="svg2"
   xmlns="http://www.w3.org/2000/svg"
   xmlns:svg="http://www.w3.org/2000/svg">
  <defs
     id="defs1" />
  <rect
     width="14"
     height="14"
     x="0"
     y="0"
     id="canvas"
     style="fill:none;stroke:none;visibility:hidden" />
  <path
     id="path24"
     style="fill:#000000"
     d="M 7.7089844 0.56445312 C 7.5285146 0.55315314 7.0048953 1.6833316 6.6972656 2.0195312 C 6.3896459 2.3557409 6.2947827 2.6884909 6.5078125 2.9316406 C 6.7208923 3.1749904 6.297747 3.6339212 5.8359375 4.2128906 C 5.4510979 4.6953401 4.1824849 2.7802804 4.046875 3.15625 C 3.8830052 3.5514896 4.9604763 4.8907814 5.6660156 5.6191406 C 6.2299051 6.20126 6.1292411 8.0319776 6.0195312 8.0859375 C 5.9035614 8.1586374 4.9513858 8.0504402 4.5351562 7.6191406 C 4.2510265 7.3247309 4.1541329 6.6821447 3.9082031 6.390625 C 3.5110935 5.9197055 3.1642861 5.333299 3.0039062 4.9121094 C 2.8435264 4.4909298 2.7658567 3.7481779 2.5917969 3.5175781 C 2.3090272 3.1431285 1.9445025 3.2806504 1.9453125 3.65625 C 1.8890126 4.0860996 1.8980863 4.1821339 1.3730469 4.3085938 C 0.9503673 4.4103736 1.1684522 4.9525487 1.4511719 4.9179688 C 1.9008414 4.8629688 2.2559077 5.2525159 2.4609375 5.5410156 C 2.6681773 5.8316753 3.2636089 6.5377309 3.3867188 6.8066406 C 3.5098386 7.0755504 3.1022723 7.1269268 2.9140625 7.0292969 C 1.9357235 6.882077 1.185666 6.7088188 0.91015625 6.7617188 C 0.34511682 6.9184286 1.1793705 7.5807478 2.3183594 7.8671875 C 2.5752791 7.9317874 3.3990295 7.8983251 3.5683594 7.953125 C 4.1923188 8.1553248 4.4975198 8.6312064 4.9121094 8.7539062 C 5.3892989 8.8950961 5.9574503 9.0454553 6.25 9.359375 C 6.5080397 9.6362647 6.5621998 10.56887 6.375 10.625 C 5.9668504 10.743 5.2563994 10.3956 4.625 10.375 C 4.3208403 10.365 3.6878371 10.343995 3.2421875 9.9785156 C 2.9632178 9.7497059 2.9885527 8.979875 2.5957031 9.015625 C 2.3872033 9.034625 2.3770227 9.5698985 2.5390625 9.9550781 C 2.6318624 10.175678 2.5496406 10.398098 2.4941406 10.392578 C 1.7614014 10.319778 1.227239 9.9083414 0.84960938 10.082031 C 0.47198975 10.255741 0.60029124 10.596525 1.2128906 10.958984 C 1.82547 11.321474 2.7840907 10.9294 3.5 11 C 4.1736193 11.0456 4.9761505 11.11904 5.5 11.25 C 5.9999995 11.375 6.5144627 11.792927 6.7578125 12.060547 C 7.1067322 12.444186 6.1249996 12.75 5.75 13 L 5 14 L 10 14 L 9.25 13 C 8.8750004 12.75 8.2100003 12.1094 8.5 12 C 9.4328491 11.6481 10.730268 11.68806 12.035156 11.75 C 12.914375 11.7924 12.801909 11.960624 13.261719 11.771484 C 13.594648 11.634595 13.506355 11.283941 13.228516 11.175781 C 12.772016 10.997911 13.384312 11.076756 12.027344 11.097656 C 11.640714 11.103656 13.560671 9.4712612 12.638672 9.4257812 C 12.193412 9.4363812 11.306054 10.943913 10.802734 10.976562 C 10.029165 11.026762 8.4187898 11.29939 8.25 11 C 8.0056602 10.5473 7.8119009 10.13422 8.75 10 C 10.024759 9.8176202 11.571871 9.050564 11.994141 8.6777344 C 12.103251 8.5814345 12.59038 8.1401057 13.005859 7.6289062 C 13.584989 6.904617 13.69685 6.6403456 13.337891 6.5722656 C 13.018821 6.5117657 12.794554 6.652868 12.458984 7.1796875 C 11.875745 8.1472965 11.702433 7.9618527 11.308594 8.1953125 C 10.884074 8.4469522 9.8076427 9.2302012 9.4082031 9.2070312 C 9.1816334 9.1939313 8.9013796 9.149721 9.0996094 8.8945312 C 9.3312991 8.5963515 9.4082031 8.4882812 9.4082031 8.4882812 C 9.8597427 7.9839018 10.230409 7.7347948 10.386719 7.578125 C 10.523929 7.4016552 11.203105 6.4829803 11.609375 6.1503906 C 12.180294 5.6829111 12.274054 5.3689066 12.308594 5.1230469 C 12.387594 4.5612074 12.608957 4.0708238 12.023438 4.1210938 C 11.351778 4.1787937 11.136696 4.6836286 11.097656 5.1113281 C 11.053056 5.6004376 10.629948 5.3632523 10.173828 6.3945312 C 9.8311585 7.1692905 9.2885254 7.1597175 9.0722656 7.7792969 C 8.8798858 8.3304863 7.7207411 9.2583337 7.5507812 9.1835938 C 7.3808214 9.1088938 6.9520403 8.1713556 7.28125 7.5664062 C 7.6104697 6.9614669 9.0285469 5.643008 9.6601562 4.9179688 C 10.510005 3.9424597 10.556814 3.6760516 10.583984 3.3886719 C 10.645784 2.7366625 10.377815 2.6155977 10.615234 2.2363281 C 10.920984 1.8207685 10.984257 0.18466497 10.111328 1.4023438 C 9.9162983 1.6365435 10.174135 1.5362448 9.765625 1.9902344 C 9.3572654 2.4441739 9.7616062 2.7438675 9.6914062 3.3730469 C 9.5996063 4.0718262 7.2009592 6.5114731 7.0683594 6.4394531 C 6.6832498 6.2302533 6.9603022 4.7818857 7.2949219 3.6542969 C 7.3781218 2.7950877 7.8652844 1.9063783 7.8964844 1.4804688 C 7.9449843 0.81897941 7.8894542 0.57570311 7.7089844 0.56445312 z " />
</svg>
