<?xml version="1.0" encoding="UTF-8" standalone="no"?>
<svg
   version="1.1"
   width="14"
   height="14"
   viewBox="0 0 14 14"
   id="svg2"
   xmlns="http://www.w3.org/2000/svg"
   xmlns:svg="http://www.w3.org/2000/svg">
  <defs
     id="defs1" />
  <rect
     width="14"
     height="14"
     x="0"
     y="0"
     id="canvas"
     style="fill:none;stroke:none;visibility:hidden" />
  <path
     id="path29-5"
     style="fill:#000000"
     d="m 6.4991989,2.058825 a 1.374999,1.3749932 0 0 0 -1.27734,0.87891 c -1.38935,0.0138 -2.66698,0.0746 -4.79883002,0.33789 -0.52314,0.10443 -0.52436,0.28327 0,0.39062 1.82183002,0.27533 3.55673002,1.59754 5.26953002,1.92383 -0.34065,0.10489 -0.67856,0.22918 -0.96094,0.38281 -0.3338,0.18161 -0.62858,0.40592 -0.67969,0.76367 -0.0968,0.67736 0.0208,1.20115 0.16797,1.55469 0.14716,0.35355 0.33789,0.55469 0.33789,0.55469 a 0.25,0.25 0 0 0 0.35352,0.004 0.25,0.25 0 0 0 0.004,-0.35352 c 0,0 -0.11764,-0.11604 -0.23438,-0.39648 -0.11673,-0.28045 -0.21857,-0.7063 -0.13476,-1.29297 0.0114,-0.0797 0.14786,-0.24333 0.42578,-0.39453 0.27791,-0.15121 0.66069,-0.28878 1.04296,-0.39844 0.17424,-0.05 0.34715,-0.094 0.51172,-0.13281 0.22374,0.0749 0.44889,0.13735 0.67188,0.18359 -0.15223,0.10183 -0.29779,0.21775 -0.42578,0.34961 -0.21625,0.22278 -0.38679,0.50384 -0.39844,0.83594 -0.0265,0.75391 0.14376,1.31142 0.32617,1.67968 0.18241,0.36826 0.39258,0.56446 0.39258,0.56446 a 0.25,0.25 0 0 0 0.35352,-0.0176 0.25,0.25 0 0 0 -0.0156,-0.35352 c 0,0 -0.13436,-0.11552 -0.2832,-0.41601 -0.14884,-0.30049 -0.29699,-0.76837 -0.27344,-1.43946 0.006,-0.17148 0.0938,-0.3389 0.25586,-0.50586 0.16206,-0.16694 0.3933,-0.32293 0.62695,-0.44921 0.11027,-0.0596 0.21985,-0.11379 0.32422,-0.16016 0.37584,0.004 0.79229,-0.0168 1.19922,-0.0332 -0.15017,0.44515 -0.28516,0.92641 -0.28516,1.3125 0,0.22116 0.10876,0.3968 0.23438,0.55468 0.12562,0.15789 0.28102,0.30199 0.43359,0.42774 0.30515,0.25149 0.6054701,0.43359 0.6054701,0.43359 a 0.25,0.25 0 0 0 0.34375,-0.084 0.25,0.25 0 0 0 -0.084,-0.34375 c 0,0 -0.27486,-0.1684 -0.5468801,-0.39258 -0.136,-0.11209 -0.27051,-0.23743 -0.36133,-0.35156 -0.0908,-0.11414 -0.125,-0.21559 -0.125,-0.24414 0,-0.28826 0.15446,-0.85089 0.32032,-1.32617 0.0177,-2.4e-4 0.0371,-0.002 0.0547,-0.002 0.12421,-0.0341 0.2555101,-0.0761 0.3867201,-0.12695 0.25673,-0.0995 0.50342,-0.23499 0.66797,-0.39063 0.1646,-0.15563 0.25,-0.3103 0.25,-0.52734 0,-0.7744 -0.34292,-1.23337 -0.69726,-1.5332 -0.12978,-0.10981 -0.25841,-0.19171 -0.36914,-0.25391 -0.0458,-0.0115 -0.096,-0.0277 -0.1386801,-0.0371 -0.83525,-0.18433 -1.3051,-0.23494 -2.18945,-0.29492 a 1.374999,1.3749932 0 0 0 -1.28137,-0.88088 z m 0,0.75 a 0.625,0.625 0 0 1 0.625,0.625 0.625,0.625 0 0 1 -0.625,0.625 0.625,0.625 0 0 1 -0.625,-0.625 0.625,0.625 0 0 1 0.625,-0.625 z m 4.9980501,0.95508 c 0.19271,0.3481 0.32617,0.77701 0.32617,1.29492 0,0.41107 -0.1958,0.75661 -0.45313,1 -0.0765,0.0723 -0.15913,0.13642 -0.24414,0.19531 2.5397,0.75319 0.88959,3.70359 -0.0605,3.72657 -0.44713,0.0108 -1.0055,0.20292 -1.1777401,0.26562 -0.16318,-0.0159 -0.32693,-0.007 -0.46484,0.0215 -1.12526,0.22857 -1.93619,0.91148 -3.46875,1.43164 -0.28987,0.12372 -0.26959,0.23138 0.0449,0.23438 1.23582,-0.0557 2.60716,0.19733 3.73242,-0.0312 0.23932,-0.0486 0.5294001,-0.17654 0.7324201,-0.37305 0.20733,-0.0422 0.46139,-0.11108 0.74024,-0.22851 0.69166,-0.29126 1.93694,-0.65128 2.40039,-1.65039 0.34382,-0.74123 0.42074,-1.26084 0.38867,-2.01953 -0.0437,-1.03334 -0.35973,-2.21635 -1.11523,-3.01172 -0.27989,-0.29466 -0.813,-0.60095 -1.38086,-0.85547 z" />
</svg>
