<?xml version="1.0" encoding="UTF-8" standalone="no"?>
<svg
   viewBox="0 0 9 10"
   height="10"
   width="9"
   version="1.1"
   id="svg1"
   xmlns="http://www.w3.org/2000/svg"
   xmlns:svg="http://www.w3.org/2000/svg">
  <defs
     id="defs1" />
  <rect
     style="visibility:hidden;fill:none;stroke:none"
     y="0"
     x="0"
     height="10"
     width="9"
     id="rect1" />
  <path
     id="path1-62-7-9"
     style="fill:#000000"
     d="M 4.5000001,0.24999998 A 1.25,1.25 0 0 0 3.2500001,1.5 a 1.25,1.25 0 0 0 0.75,1.1445312 V 3 H 2 v 1 h 2.0000001 l 0.095703,4.7890625 c -0.002,0.0768 -0.072256,0.7350913 -1.109375,0.2011719 C 1.9464592,8.4554949 2.5161876,7.8868706 2.5859375,7.8691406 1.9750282,7.6768608 1.515569,7.118672 1.0683594,6.5703125 0.62942987,7.5477815 1.3214851,8.614722 1.359375,8.7636719 1.453775,8.660522 1.5951208,8.6769063 1.6816407,8.6914062 2.4820099,9.9994146 4.0964305,10.00002 4.5000001,9.9999996 c 0.4035696,2.04e-5 2.0179902,-5.85e-4 2.8183593,-1.3085934 0.0864,-0.0144 0.2258026,-0.030834 0.3203126,0.072266 C 7.6765719,8.614722 8.3687371,7.5477815 7.9296876,6.5703125 7.482558,7.118672 7.0228188,7.6768608 6.4121094,7.8691406 6.4816094,7.8869406 7.0533409,8.4554949 6.013672,8.9902344 4.976423,9.5241538 4.9039638,8.8658124 4.9023438,8.7890625 L 4.9999998,4 h 2 V 3 h -2 V 2.6445312 A 1.25,1.25 0 0 0 5.7499998,1.5 1.25,1.25 0 0 0 4.5000001,0.24999998 Z m 0,0.72851562 A 0.52083332,0.52083332 0 0 1 5.0195313,1.5 0.52083332,0.52083332 0 0 1 4.5000001,2.0214844 0.52083332,0.52083332 0 0 1 3.9785157,1.5 0.52083332,0.52083332 0 0 1 4.5000001,0.9785156 Z" />
</svg>
