<?xml version="1.0" encoding="UTF-8" standalone="no"?>
<svg
   viewBox="0 0 12 14"
   height="14"
   width="12"
   version="1.1"
   id="svg1"
   xmlns="http://www.w3.org/2000/svg"
   xmlns:svg="http://www.w3.org/2000/svg">
  <defs
     id="defs1" />
  <rect
     style="visibility:hidden;fill:none;stroke:none"
     y="0"
     x="0"
     height="14"
     width="12"
     id="rect1" />
  <path
     d="m 4.3202567,1.64688 c 0,0.67197 0.41027,1.25061 0.9946,1.50885 -0.007,0.35139 0.0234,0.51086 0.0164,0.84427 H 0.99927673 V 5 H 5.3117767 c -0.0408,1.96525 -0.0825,4.17928 -0.12305,6.14453 -0.003,0.1259 0.002,1.39343 -1.69922,0.51758 -1.70581,-0.8772 -0.74333,-1.87129 -0.6289,-1.90039 -1.00215,-0.31541 -1.90896997,-1.19226 -2.64257997,-2.0918 -0.72003,1.60346 0.56871,3.31621 0.63086,3.56055 0.15477997,-0.16921 0.38541997,-0.14283 0.52733997,-0.11914 1.73636,2.70539 3.99805,2.26367 4.62305,2.88867 0.625,-0.625 2.88709,-0.18328 4.6230503,-2.88867 0.14179,-0.0237 0.3723,-0.0501 0.52734,0.11914 0.0623,-0.24434 1.35108,-1.95709 0.63086,-3.56055 -0.73348,0.89954 -1.64076,1.77639 -2.6425803,2.0918 0.11397,0.0291 1.0785303,1.02319 -0.62695,1.90039 -1.70151,0.87585 -1.69852,-0.39168 -1.70117,-0.51758 C 6.7704267,9.17926 6.7278267,6.96524 6.6867767,5 H 10.999277 V 4 H 6.6672467 c -0.007,-0.33341 0.0236,-0.49288 0.0164,-0.84427 0.58504,-0.25824 0.9946,-0.83688 0.9946,-1.50885 C 7.6782467,0.7345 6.9255567,0 5.9992767,0 c -0.92628,0 -1.67905,0.7345 -1.67905,1.64688 z M 5.9992767,1 c 0.32829,0 0.625,0.29115 0.625,0.625 0,0.33314 -0.29671,0.625 -0.625,0.625 -0.32829,0 -0.625,-0.29186 -0.625,-0.625 0,-0.33385 0.29671,-0.625 0.625,-0.625 z"
     id="path1-62"
     style="fill:#000000" />
</svg>
