<?xml version="1.0" encoding="UTF-8" standalone="no"?>
<svg
   viewBox="0 0 9 12"
   height="12"
   width="9"
   version="1.1"
   id="svg1"
   xmlns="http://www.w3.org/2000/svg"
   xmlns:svg="http://www.w3.org/2000/svg">
  <defs
     id="defs1" />
  <rect
     style="visibility:hidden;fill:none;stroke:none"
     y="0"
     x="0"
     height="12"
     width="9"
     id="rect1" />
  <path
     id="path1-62-7"
     style="fill:#000000"
     d="M 4.5,0 A 1.5,1.5 0 0 0 3,1.5 1.5,1.5 0 0 0 4,2.9101562 V 4 H 1 v 1 h 3 v 5.5 C 3.998,10.5951 3.9098987,11.411489 2.625,10.75 1.3366713,10.087491 2.0424863,9.381345 2.1289062,9.359375 1.372027,9.1211552 0.80406945,8.4293893 0.25,7.75 -0.29380946,8.9610288 0.56243505,10.28421 0.609375,10.46875 0.72627488,10.34095 0.90062261,10.361026 1.0078125,10.378906 1.9994215,11.999445 4.0000005,12.00002 4.5,12 c 0.4999995,2e-5 2.5005785,-5.55e-4 3.4921875,-1.621094 0.1070899,-0.0179 0.2813476,-0.03796 0.3984375,0.08984 C 8.437625,10.28421 9.2939495,8.9610288 8.75,7.75 8.1960306,8.4293893 7.627723,9.1211552 6.8710938,9.359375 6.9571937,9.381375 7.6630787,10.087491 6.375,10.75 5.0899113,11.411489 5.002,10.59508 5,10.5 V 5 H 8 V 4 H 5 V 2.9101562 A 1.5,1.5 0 0 0 6,1.5 1.5,1.5 0 0 0 4.5,0 Z m 0,0.875 A 0.625,0.625 0 0 1 5.125,1.5 0.625,0.625 0 0 1 4.5,2.125 0.625,0.625 0 0 1 3.875,1.5 0.625,0.625 0 0 1 4.5,0.875 Z" />
</svg>
