<?xml version="1.0" encoding="UTF-8" standalone="no"?>
<svg
   viewBox="0 0 10 10"
   height="10"
   width="10"
   version="1.1"
   id="svg1"
   xmlns="http://www.w3.org/2000/svg"
   xmlns:svg="http://www.w3.org/2000/svg">
  <defs
     id="defs1" />
  <rect
     style="visibility:hidden;fill:none;stroke:none"
     y="0"
     x="0"
     height="10"
     width="10"
     id="rect1" />
  <path
     d="M 2,0 1,1 v 8 h 0.65625 c 0,0 0.1011489,1 0.81275,1 C 3.1581295,10 3.25,9 3.25,9 h 3.5 c 0,0 0.1143421,1 0.781,1 0.8164686,0 0.81275,-1 0.81275,-1 H 9 V 1 L 8,0 Z M 3,1 H 7 V 2 H 3 Z M 2,3 H 8 V 6 H 2 Z M 2,7 H 3 V 8 H 2 Z M 7,7 H 8 V 8 H 7 Z"
     style="fill:#000000"
     id="path1" />
</svg>
