<?xml version="1.0" encoding="UTF-8" standalone="no"?>
<svg
   viewBox="0 0 8 8"
   height="8"
   width="8"
   version="1.1"
   id="svg1"
   xmlns="http://www.w3.org/2000/svg"
   xmlns:svg="http://www.w3.org/2000/svg">
  <defs
     id="defs1" />
  <rect
     style="visibility:hidden;fill:none;stroke:none"
     y="0"
     x="0"
     height="8"
     width="8"
     id="rect1" />
  <path
     id="path1"
     d="M 2,0 1,3 A 1,0.99999237 0 0 0 0,4 1,0.99999237 0 0 0 0,4.0039 V 6 h 0.65625 c 0,0 0.1009,1 0.8125,1 C 2.15788,7 2.25,6 2.25,6 h 3.5 c 0,0 0.11459,1 0.78125,1 0.81647,0 0.8125,-1 0.8125,-1 H 8 V 4.011719 A 1,0.99999237 0 0 0 8,4 1,0.99999237 0 0 0 7,3 L 6,0 Z m 0.625,1 h 2.75 l 0.5,1.75 H 2.125 Z M 1,4 H 2 V 5 H 1 Z M 6,4 H 7 V 5 H 6 Z"
     style="fill:#000000" />
</svg>
