<?xml version="1.0" encoding="UTF-8" standalone="no"?>
<svg
   viewBox="0 0 12 12"
   height="12"
   width="12"
   version="1.1"
   id="svg1"
   xmlns="http://www.w3.org/2000/svg"
   xmlns:svg="http://www.w3.org/2000/svg">
  <defs
     id="defs1" />
  <rect
     style="visibility:hidden;fill:none;stroke:none"
     y="0"
     x="0"
     height="12"
     width="12"
     id="rect1" />
  <path
     id="path1"
     style="fill:#000000"
     d="M 2,0 1,3 A 1,0.99999237 0 0 0 0,4 1,0.99999237 0 0 0 0,4.0039 V 6 h 0.65625 c 0,0 0.1009,1 0.8125,1 C 2.15788,7 2.25,6 2.25,6 H 4.04102 L 5,3.125 H 7 V 3 L 6,0 Z m 0.625,1 h 2.75 l 0.5,1.75 H 2.125 Z M 1,4 H 2 V 5 H 1 Z M 6,4 5,7 A 1,0.99999237 0 0 0 4,8 1,0.99999237 0 0 0 4,8.0039 V 10 h 0.65625 c 0,0 0.1009,1 0.8125,1 C 6.15788,11 6.25,10 6.25,10 h 3.5 c 0,0 0.11459,1 0.78125,1 0.81647,0 0.8125,-1 0.8125,-1 H 12 V 8.011719 a 1,0.99999237 0 0 0 0,-0.002 1,0.99999237 0 0 0 0,-0.002 1,0.99999237 0 0 0 0,-0.002 1,0.99999237 0 0 0 0,-0.002 1,0.99999237 0 0 0 0,-0.002 1,0.99999237 0 0 0 0,-0.002 1,0.99999237 0 0 0 -1,-1 l -1,-3 z m 0.625,1 h 2.75 l 0.5,1.75 H 6.125 Z M 5,8 H 6 V 9 H 5 Z m 5,0 h 1 v 1 h -1 z" />
</svg>
