<?xml version="1.0" encoding="UTF-8" standalone="no"?>
<svg
   viewBox="0 0 10 10"
   height="10"
   width="10"
   version="1.1"
   id="svg1"
   xmlns="http://www.w3.org/2000/svg"
   xmlns:svg="http://www.w3.org/2000/svg">
  <defs
     id="defs1" />
  <rect
     style="visibility:hidden;fill:none;stroke:none"
     y="0"
     x="0"
     height="10"
     width="10"
     id="rect1" />
  <path
     id="path29-3-6-6-6"
     style="fill:#000000"
     d="M 2.5,1 C 2.22386,1 2,1.22386 2,1.5 2,1.77614 2.22386,2 2.5,2 h 4 C 6.91667,2 7.13934,2.0964 7.27148,2.22852 7.4036,2.36066 7.5,2.58333 7.5,3 v 7 H 8 V 3 C 8,2.41667 7.993,1.86785 7.625,1.5 7.25714,1.13215 7.08333,1 6.5,1 Z M 2.13477,2.625 A 0.25,0.25 0 0 0 1.88672,2.80078 l -0.625,2 a 0.25,0.25 0 0 0 0.16406,0.3125 0.25,0.25 0 0 0 0.3125,-0.16406 l 0.625,-2 A 0.25,0.25 0 0 0 2.19922,2.63672 0.25,0.25 0 0 0 2.13472,2.62502 Z m 2.73046,0 A 0.25,0.25 0 0 0 4.80073,2.6367 0.25,0.25 0 0 0 4.63667,2.9492 l 0.625,2 a 0.25,0.25 0 0 0 0.3125,0.16406 0.25,0.25 0 0 0 0.16406,-0.3125 l -0.625,-2 A 0.25,0.25 0 0 0 4.86523,2.625 Z M 3.5,2.75 A 0.25,0.25 0 0 0 3.25,3 V 5.25 A 0.25,0.25 0 0 0 3.5,5.5 0.25,0.25 0 0 0 3.75,5.25 V 3 A 0.25,0.25 0 0 0 3.5,2.75 Z" />
</svg>
