<?xml version="1.0" encoding="UTF-8" standalone="no"?>
<svg
   viewBox="0 0 6 6"
   height="6"
   width="6"
   version="1.1"
   id="svg1"
   xmlns="http://www.w3.org/2000/svg"
   xmlns:svg="http://www.w3.org/2000/svg">
  <defs
     id="defs1" />
  <rect
     style="visibility:hidden;fill:none;stroke:none"
     y="0"
     x="0"
     height="6"
     width="6"
     id="rect1" />
  <path
     id="path30-6-22"
     style="fill:#000000"
     d="m 3.8652302,1.25 a 0.25,0.25 0 0 0 -0.0645,0.01172 l -2,0.625 a 0.25,0.25 0 0 0 -0.16406,0.3125 0.25,0.25 0 0 0 0.3125,0.164062 l 2,-0.625 a 0.25,0.25 0 0 0 0.16406,-0.3125 0.25,0.25 0 0 0 -0.248,-0.175782 z m -1.86523,2 a 0.25,0.25 0 0 0 -0.25,0.25 0.25,0.25 0 0 0 0.25,0.25 h 2.25 a 0.25,0.25 0 0 0 0.25,-0.25 0.25,0.25 0 0 0 -0.25,-0.25 z m -0.11523,1.375 a 0.25,0.25 0 0 0 -0.24805,0.175781 0.25,0.25 0 0 0 0.16406,0.3125 l 2,0.625 a 0.25,0.25 0 0 0 0.3125,-0.164062 0.25,0.25 0 0 0 -0.16406,-0.3125 l -2,-0.625 a 0.25,0.25 0 0 0 -0.0645,-0.01172 z" />
</svg>
