<?xml version="1.0" encoding="UTF-8" standalone="no"?>
<svg
   viewBox="0 0 10 10"
   height="10"
   width="10"
   version="1.1"
   id="svg1"
   xmlns="http://www.w3.org/2000/svg"
   xmlns:svg="http://www.w3.org/2000/svg">
  <defs
     id="defs1" />
  <rect
     style="visibility:hidden;fill:none;stroke:none"
     y="0"
     x="0"
     height="10"
     width="10"
     id="rect1" />
  <path
     id="path29-3-6-6-6"
     style="fill:#000000"
     d="M 7.5,1 C 7.77614,1 8,1.22386 8,1.5 8,1.77614 7.77614,2 7.5,2 h -4 C 3.08333,2 2.86066,2.0964 2.72852,2.22852 2.5964,2.36066 2.5,2.58333 2.5,3 v 7 H 2 V 3 C 2,2.41667 2.007,1.86785 2.375,1.5 2.74286,1.13215 2.91667,1 3.5,1 Z m 0.36523,1.625 a 0.25,0.25 0 0 1 0.24805,0.17578 l 0.625,2 A 0.25,0.25 0 0 1 8.57422,5.11328 0.25,0.25 0 0 1 8.26172,4.94922 l -0.625,-2 a 0.25,0.25 0 0 1 0.16406,-0.3125 0.25,0.25 0 0 1 0.0645,-0.0117 z m -2.73046,0 a 0.25,0.25 0 0 1 0.0645,0.0117 0.25,0.25 0 0 1 0.16406,0.3125 l -0.625,2 A 0.25,0.25 0 0 1 4.42583,5.11326 0.25,0.25 0 0 1 4.26177,4.80076 l 0.625,-2 A 0.25,0.25 0 0 1 5.13477,2.625 Z M 6.5,2.75 A 0.25,0.25 0 0 1 6.75,3 V 5.25 A 0.25,0.25 0 0 1 6.5,5.5 0.25,0.25 0 0 1 6.25,5.25 V 3 A 0.25,0.25 0 0 1 6.5,2.75 Z" />
</svg>
