<?xml version="1.0" encoding="UTF-8" standalone="no"?>
<svg
   viewBox="0 0 10 10"
   height="10"
   width="10"
   version="1.1"
   id="svg1"
   xmlns="http://www.w3.org/2000/svg"
   xmlns:svg="http://www.w3.org/2000/svg">
  <defs
     id="defs1" />
  <rect
     style="visibility:hidden;fill:none;stroke:none"
     y="0"
     x="0"
     height="10"
     width="10"
     id="rect1" />
  <path
     id="circle4315"
     style="fill:#000000"
     d="m 6.999706,0 c 0.5522849,0 1,0.44771527 1,1 0,0.5522847 -0.4477151,1 -1,1 -0.5522847,0 -1,-0.4477153 -1,-1 0,-0.55228473 0.4477153,-1 1,-1 z m 0.625,2.7500001 c 0.024302,3.18e-4 0.048517,0.003 0.0723,0.008 0.1266299,0.025175 0.2314045,0.11372 0.2563723,0.17905 C 7.9547583,2.94037 8.853346,5.50238 8.853346,5.50238 8.920902,5.6976002 8.817851,5.9106901 8.622876,5.9789499 8.4276557,6.0465059 8.2145658,5.9434549 8.146306,5.7484799 l -0.1466,-0.4184 V 7 9.0000001 h -2 V 6.75 5 4.6367199 L 5.589546,5.41016 5.112986,6.7187498 c 1.6e-5,0.002 1.6e-5,0.004 0,0.006 -0.040686,0.090402 -0.08792,0.1510733 -0.178396,0.2157391 -0.090477,0.064666 -0.208092,0.075423 -0.3138455,0.036577 -0.033543,-0.012827 0.0017,-0.00102 -0.039,-0.015702 L 4.1247161,6.73285 v 0.8925799 c 7.1e-6,0.00134 7.1e-6,0.00267 0,0.004 L 4.679406,8.4067703 C 4.8002748,8.5750237 4.76181,8.8094112 4.593506,8.9302096 4.4252522,9.0510796 4.1908645,9.0126146 4.0700659,8.8443106 L 3.4450661,7.96931 c -0.00274,-0.00385 -0.00541,-0.00775 -0.008,-0.0117 l -0.48633,0.8535196 C 2.8483532,8.9913887 2.619136,9.0543774 2.439016,8.95175 2.2587572,8.8493669 2.1957686,8.6201498 2.298396,8.4400298 L 2.751516,7.64706 C 2.7506444,7.63991 2.749976,7.632745 2.749516,7.62556 V 7.1392299 L 2.6597157,7.2447 C 2.5249819,7.4023936 2.2878267,7.4207636 2.1304158,7.2857 1.9727221,7.1509662 1.9543519,6.913811 2.0894158,6.7564 L 2.8237961,5.9009299 c 0.035644,-0.04775 0.05982,-0.058103 0.1316741,-0.1105429 0.060967,-0.040813 0.101632,-0.036736 0.1707904,-0.041958 h 0.5 C 3.727153,5.745309 3.8226218,5.759551 3.9192752,5.787625 L 4.544316,6.1000299 4.8924916,5.1383878 c 0.00834,-0.026102 0.016838,-0.04638 0.027062,-0.065798 L 6.0682845,2.9062809 c 0.023728,-0.041309 0.084714,-0.085822 0.1337518,-0.1165357 0.049039,-0.030715 0.1190939,-0.042515 0.1756792,-0.042346 z M 3.4997061,3.75977 c 0.4142135,0 0.7499999,0.3357863 0.7499999,0.7499999 1e-7,0.4142136 -0.3357863,0.75 -0.7499999,0.75 -0.4142136,0 -0.7500002,-0.3357864 -0.7500001,-0.75 0,-0.4142136 0.3357865,-0.7499999 0.7500001,-0.7499999 z" />
</svg>
