<?xml version="1.0" encoding="UTF-8" standalone="no"?>
<svg
   viewBox="0 0 6 6"
   height="6"
   width="6"
   version="1.1"
   id="svg1"
   xmlns="http://www.w3.org/2000/svg"
   xmlns:svg="http://www.w3.org/2000/svg">
  <defs
     id="defs1" />
  <rect
     style="visibility:hidden;fill:none;stroke:none"
     y="0"
     x="0"
     height="6"
     width="6"
     id="rect1" />
  <path
     id="path4343"
     style="fill:#000000"
     d="m 1.40234,0 c 0.0977,0 0.191,0.0538 0.25586,0.12891 L 3.2793,2 H 5.5 C 5.77614,2 6,2.27982 6,2.625 L 4.75,6 H 1 L 0,2.625 C 0,2.27982 0.22386,2 0.5,2 H 2.28711 L 1.0918,0.62109 C 0.95578,0.46472 0.9724,0.22767 1.1289,0.0918 1.2042,0.026 1.25,0 1.40233,0 Z M 5.375,2.625 h -1.75 v 1.25 h 1.29492 z m -2,0 H 2.97461 2.5 v 1.25 h 0.875 z m -1.125,0 H 0.625 l 0.3418,1.25 H 2.25 Z m 2.58008,1.5 H 3.625 v 1.25 h 0.75 z m -1.45508,0 H 2.5 v 1.25 h 0.875 z m -1.125,0 H 1.0332 L 1.375,5.375 H 2.25 Z" />
</svg>
