<?xml version="1.0" encoding="UTF-8" standalone="no"?>
<svg
   viewBox="0 0 9 9"
   height="9"
   width="9"
   version="1.1"
   id="svg1"
   xmlns="http://www.w3.org/2000/svg"
   xmlns:svg="http://www.w3.org/2000/svg">
  <defs
     id="defs1" />
  <rect
     style="visibility:hidden;fill:none;stroke:none"
     y="0"
     x="0"
     height="9"
     width="9"
     id="rect1" />
  <path
     id="path1-7-5"
     style="fill:#000000"
     d="M 6.48047,0 C 6.35547,0 6.16572,0.0558 6.05079,0.22852 L 3.98047,3 h -3.5 l 1.5,5 h 5.5 L 9,3 H 5.17969 L 6.88086,0.78125 C 7.13371,0.40125 6.85547,0 6.48047,0 Z m -5.25,3.5 h 2.25 V 5 h -1.75 z m 2.75,0 h 1.5 V 5 h -1.5 z m 2,0 H 6.35547 6.5 6.98047 7.35547 8.25 L 7.75,5 H 7.35547 6.96094 6.48047 h -0.125 -0.375 z m -4.125,2 h 1.625 v 2 h -1 z m 2.125,0 h 1.5 v 2 h -1.5 z m 1.98047,0 h 0.26953 0.25 H 6.96094 7.625 L 7,7.5 H 6.9609 6.48043 6.23043 5.9609 Z" />
</svg>
