<?xml version="1.0" encoding="UTF-8" standalone="no"?>
<svg
   viewBox="0 0 6 12"
   height="12"
   width="6"
   version="1.1"
   id="svg1"
   xmlns="http://www.w3.org/2000/svg"
   xmlns:svg="http://www.w3.org/2000/svg">
  <defs
     id="defs1" />
  <rect
     style="visibility:hidden;fill:none;stroke:none"
     y="0"
     x="0"
     height="12"
     width="6"
     id="rect1" />
  <path
     id="circle4315"
     style="fill:#000000"
     d="M 3,1 A 1,1 0 0 0 2,2 1,1 0 0 0 3,3 1,1 0 0 0 4,2 1,1 0 0 0 3,1 Z M 2.375,3.75 A 0.375,0.375 0 0 0 2.3535,3.752 0.375,0.375 0 0 0 2.3164,3.756 0.375,0.375 0 0 0 2.2734,3.7677 0.375,0.375 0 0 0 2.2168,3.7872 0.375,0.375 0 0 0 2.1582,3.8184 0.375,0.375 0 0 0 2.1522,3.8224 0.375,0.375 0 0 0 2.0897,3.883 0.375,0.375 0 0 0 2.0817,3.891 0.375,0.375 0 0 0 2.0622,3.9164 L 0.58173,5.76601 a 0.375,0.375 0 0 0 -0.0195,0.0312 0.375,0.375 0 0 0 -0.0254,0.043 0.375,0.375 0 0 0 -0.0137,0.0391 0.375,0.375 0 0 0 -0.0117,0.0293 l -0.5,2 A 0.375,0.375 0 0 0 0.28291,8.36369 0.375,0.375 0 0 0 0.73799,8.0922 L 1.21875,6.17225 2,5.19569 V 6 8 10.25 12 H 4 V 6 5.19336 l 0.78711,0.98437 0.47851,1.55664 a 0.375,0.375 0 0 0 0.46876,0.25 0.375,0.375 0 0 0 0.25,-0.46875 L 5.49023,5.91211 a 0.375,0.375 0 0 0 -0.006,-0.0215 0.375,0.375 0 0 0 -0.004,-0.01 0.375,0.375 0 0 0 -0.0254,-0.0606 0.375,0.375 0 0 0 -0.004,-0.008 0.375,0.375 0 0 0 -0.0137,-0.0195 0.375,0.375 0 0 0 -0.0195,-0.0273 L 5.40203,5.74571 3.93133,3.90782 a 0.375,0.375 0 0 0 -0.0137,-0.0176 0.375,0.375 0 0 0 -0.002,-0.002 0.375,0.375 0 0 0 -0.0684,-0.0664 0.375,0.375 0 0 0 -0.006,-0.004 0.375,0.375 0 0 0 -0.0684,-0.0371 0.375,0.375 0 0 0 -0.004,-0.002 0.375,0.375 0 0 0 -0.008,-0.004 0.375,0.375 0 0 0 -0.0117,-0.004 0.375,0.375 0 0 0 -0.084,-0.0195 0.375,0.375 0 0 0 -0.002,0 0.375,0.375 0 0 0 -0.0391,-0.002 z" />
</svg>
