<?xml version="1.0" encoding="UTF-8" standalone="no"?>
<svg
   viewBox="0 0 6 6"
   height="6"
   width="6"
   version="1.1"
   id="svg1"
   xmlns="http://www.w3.org/2000/svg"
   xmlns:svg="http://www.w3.org/2000/svg">
  <defs
     id="defs1" />
  <rect
     style="visibility:hidden;fill:none;stroke:none"
     y="0"
     x="0"
     height="6"
     width="6"
     id="rect1" />
  <path
     id="path11-7-1"
     style="fill:#000000;"
     d="M 3.5,0 A 1.5,1.5 0 0 0 2,1.5 1.5,1.5 0 0 0 3,2.91016 V 4 H 2 V 5 H 3 V 6 H 4 V 5 H 5 V 4 H 4 V 2.91016 A 1.5,1.5 0 0 0 5,1.5 1.5,1.5 0 0 0 3.5,0 Z m 0,1 A 0.5,0.5 0 0 1 4,1.5 0.5,0.5 0 0 1 3.5,2 0.5,0.5 0 0 1 3,1.5 0.5,0.5 0 0 1 3.5,1 Z" />
</svg>
