<?xml version="1.0" encoding="UTF-8" standalone="no"?>
<svg
   id="Svg"
   width="64"
   height="64"
   version="1.1"
   xmlns="http://www.w3.org/2000/svg"
   xmlns:svg="http://www.w3.org/2000/svg">
  <rect style="fill:#fff3e3;fill-opacity:1;stroke:none" id="rect8566" y="0" x="0" rx="0" height="64" width="64"/>
  <path
     id="path1000"
     style="fill:#e5d8c9"
     d="M 0 0 L 0 0.48046875 L 0.27929688 0.75976562 L 0.75976562 0.27929688 L 0.48046875 0 L 0 0 z M 2.8730469 0 L 0 2.8730469 L 0 2.8808594 L 0.4765625 3.3574219 L 3.3574219 0.4765625 L 2.8808594 0 L 2.8730469 0 z M 4.7910156 0 L 4.5117188 0.27929688 L 4.9902344 0.75976562 L 5.75 0 L 4.7910156 0 z M 7.5839844 0 L 7.1074219 0.4765625 L 9.9882812 3.3574219 L 10.46875 2.8769531 L 7.5917969 0 L 7.5839844 0 z M 13.742188 0 L 14.501953 0.75976562 L 14.982422 0.27929688 L 14.703125 0 L 13.742188 0 z M 17.095703 0 L 14.21875 2.8769531 L 14.699219 3.3574219 L 17.578125 0.4765625 L 17.103516 0 L 17.095703 0 z M 20.853516 0 L 21.330078 0.4765625 L 24.210938 3.3574219 L 24.689453 2.8769531 L 22.09375 0.27929688 L 21.814453 0 L 20.853516 0 z M 27.964844 0 L 28.724609 0.75976562 L 29.205078 0.27929688 L 28.925781 0 L 27.964844 0 z M 31.316406 0 L 28.441406 2.8769531 L 28.921875 3.3574219 L 31.800781 0.4765625 L 31.324219 0 L 31.316406 0 z M 33.234375 0 L 32.955078 0.27929688 L 33.435547 0.75976562 L 34.195312 0 L 33.234375 0 z M 36.029297 0 L 35.552734 0.4765625 L 38.431641 3.3574219 L 38.912109 2.8769531 L 36.037109 0 L 36.029297 0 z M 40.345703 0 L 40.066406 0.27929688 L 40.546875 0.75976562 L 41.306641 0 L 40.345703 0 z M 45.539062 0 L 42.664062 2.8769531 L 43.142578 3.3574219 L 46.023438 0.4765625 L 45.546875 0 L 45.539062 0 z M 47.457031 0 L 47.177734 0.27929688 L 47.658203 0.75976562 L 48.417969 0 L 47.457031 0 z M 50.25 0 L 49.775391 0.4765625 L 52.654297 3.3574219 L 53.134766 2.8769531 L 50.257812 0 L 50.25 0 z M 56.408203 0 L 57.167969 0.75976562 L 57.648438 0.27929688 L 57.369141 0 L 56.408203 0 z M 59.761719 0 L 56.884766 2.8769531 L 57.365234 3.3574219 L 60.246094 0.4765625 L 59.769531 0 L 59.761719 0 z M 63.519531 0 L 64 0.48046875 L 64 0 L 63.519531 0 z M 6.4707031 0.95507812 L 3.8359375 3.5898438 L 3.5898438 3.8359375 L 0.95507812 6.4707031 L 1.4355469 6.9511719 L 4.0703125 4.3144531 L 4.1933594 4.1933594 L 4.3144531 4.0703125 L 6.9511719 1.4355469 L 6.4707031 0.95507812 z M 11.181641 0.95507812 L 10.701172 1.4355469 L 13.582031 4.3144531 L 14.0625 3.8359375 L 11.181641 0.95507812 z M 18.292969 0.95507812 L 17.8125 1.4355469 L 20.693359 4.3144531 L 21.171875 3.8359375 L 18.292969 0.95507812 z M 27.804688 0.95507812 L 24.923828 3.8359375 L 25.404297 4.3144531 L 28.283203 1.4355469 L 27.804688 0.95507812 z M 32.515625 0.95507812 L 32.035156 1.4355469 L 34.916016 4.3144531 L 35.394531 3.8359375 L 32.515625 0.95507812 z M 39.626953 0.95507812 L 39.146484 1.4355469 L 42.025391 4.3144531 L 42.505859 3.8359375 L 39.626953 0.95507812 z M 46.736328 0.95507812 L 46.257812 1.4355469 L 49.136719 4.3144531 L 49.617188 3.8359375 L 46.736328 0.95507812 z M 53.847656 0.95507812 L 53.369141 1.4355469 L 56.248047 4.3144531 L 56.728516 3.8359375 L 53.847656 0.95507812 z M 60.958984 0.95507812 L 60.480469 1.4355469 L 63.359375 4.3144531 L 63.839844 3.8359375 L 60.958984 0.95507812 z M 64 2.8730469 L 63.996094 2.8769531 L 64 2.8808594 L 64 2.8730469 z M 10.947266 3.5898438 L 8.0664062 6.4707031 L 8.546875 6.9511719 L 11.425781 4.0703125 L 10.947266 3.5898438 z M 15.658203 3.5898438 L 15.177734 4.0703125 L 18.056641 6.9511719 L 18.537109 6.4707031 L 15.658203 3.5898438 z M 22.769531 3.5898438 L 22.289062 4.0703125 L 25.167969 6.9511719 L 25.648438 6.4707031 L 22.769531 3.5898438 z M 29.878906 3.5898438 L 29.400391 4.0703125 L 32.279297 6.9511719 L 32.759766 6.4707031 L 29.878906 3.5898438 z M 39.390625 3.5898438 L 36.511719 6.4707031 L 36.990234 6.9511719 L 39.871094 4.0703125 L 39.390625 3.5898438 z M 44.101562 3.5898438 L 43.621094 4.0703125 L 46.501953 6.9511719 L 46.982422 6.4707031 L 44.101562 3.5898438 z M 51.212891 3.5898438 L 50.732422 4.0703125 L 53.613281 6.9511719 L 54.09375 6.4707031 L 51.212891 3.5898438 z M 58.324219 3.5898438 L 57.84375 4.0703125 L 60.724609 6.9511719 L 61.205078 6.4707031 L 58.324219 3.5898438 z M 4.9902344 4.5117188 L 4.5117188 4.9902344 L 7.390625 7.8710938 L 7.8710938 7.390625 L 4.9902344 4.5117188 z M 12.101562 4.5117188 L 11.621094 4.9902344 L 14.501953 7.8710938 L 14.982422 7.390625 L 12.101562 4.5117188 z M 19.212891 4.5117188 L 18.732422 4.9902344 L 21.613281 7.8710938 L 22.09375 7.390625 L 19.212891 4.5117188 z M 26.324219 4.5117188 L 25.84375 4.9902344 L 28.724609 7.8710938 L 29.205078 7.390625 L 26.324219 4.5117188 z M 33.435547 4.5117188 L 32.955078 4.9902344 L 35.835938 7.8710938 L 36.314453 7.390625 L 33.435547 4.5117188 z M 42.947266 4.5117188 L 40.066406 7.390625 L 40.546875 7.8710938 L 43.425781 4.9902344 L 42.947266 4.5117188 z M 50.056641 4.5117188 L 47.177734 7.390625 L 47.658203 7.8710938 L 50.537109 4.9902344 L 50.056641 4.5117188 z M 57.167969 4.5117188 L 54.289062 7.390625 L 54.769531 7.8710938 L 57.648438 4.9902344 L 57.167969 4.5117188 z M 61.878906 4.5117188 L 61.400391 4.9902344 L 64 7.5917969 L 64 6.6308594 L 61.878906 4.5117188 z M 0 6.6308594 L 0 7.5917969 L 0.27929688 7.8710938 L 0.75976562 7.390625 L 0 6.6308594 z M 2.8769531 7.1074219 L 0 9.984375 L 0 9.9921875 L 0.4765625 10.46875 L 3.3574219 7.5878906 L 2.8769531 7.1074219 z M 9.9882812 7.1074219 L 7.1074219 9.9882812 L 7.5878906 10.46875 L 10.46875 7.5878906 L 9.9882812 7.1074219 z M 17.099609 7.1074219 L 14.21875 9.9882812 L 14.699219 10.46875 L 17.578125 7.5878906 L 17.099609 7.1074219 z M 24.210938 7.1074219 L 21.330078 9.9882812 L 21.810547 10.46875 L 24.689453 7.5878906 L 24.210938 7.1074219 z M 31.320312 7.1074219 L 28.441406 9.9882812 L 28.921875 10.46875 L 31.800781 7.5878906 L 31.320312 7.1074219 z M 38.431641 7.1074219 L 35.552734 9.9882812 L 36.033203 10.46875 L 38.912109 7.5878906 L 38.431641 7.1074219 z M 43.142578 7.1074219 L 42.664062 7.5878906 L 45.542969 10.46875 L 46.023438 9.9882812 L 43.142578 7.1074219 z M 50.253906 7.1074219 L 49.775391 7.5878906 L 52.654297 10.46875 L 53.134766 9.9882812 L 50.253906 7.1074219 z M 59.765625 7.1074219 L 56.884766 9.9882812 L 57.365234 10.46875 L 60.246094 7.5878906 L 59.765625 7.1074219 z M 6.4707031 8.0664062 L 3.5898438 10.947266 L 4.0703125 11.425781 L 6.9511719 8.546875 L 6.4707031 8.0664062 z M 13.582031 8.0664062 L 10.701172 10.947266 L 11.181641 11.425781 L 14.0625 8.546875 L 13.582031 8.0664062 z M 18.292969 8.0664062 L 17.8125 8.546875 L 20.693359 11.425781 L 21.171875 10.947266 L 18.292969 8.0664062 z M 25.404297 8.0664062 L 24.923828 8.546875 L 27.804688 11.425781 L 28.283203 10.947266 L 25.404297 8.0664062 z M 32.515625 8.0664062 L 32.035156 8.546875 L 34.916016 11.425781 L 35.394531 10.947266 L 32.515625 8.0664062 z M 39.626953 8.0664062 L 39.146484 8.546875 L 42.025391 11.425781 L 42.505859 10.947266 L 39.626953 8.0664062 z M 46.736328 8.0664062 L 46.257812 8.546875 L 49.136719 11.425781 L 49.617188 10.947266 L 46.736328 8.0664062 z M 56.248047 8.0664062 L 53.369141 10.947266 L 53.847656 11.425781 L 56.728516 8.546875 L 56.248047 8.0664062 z M 63.359375 8.0664062 L 60.480469 10.947266 L 57.84375 13.582031 L 58.324219 14.0625 L 60.958984 11.425781 L 63.839844 8.546875 L 63.359375 8.0664062 z M 64 9.984375 L 63.996094 9.9882812 L 64 9.9921875 L 64 9.984375 z M 1.4355469 10.701172 L 0.95507812 11.181641 L 3.8359375 14.0625 L 4.3144531 13.582031 L 1.4355469 10.701172 z M 8.546875 10.701172 L 8.0664062 11.181641 L 10.947266 14.0625 L 11.425781 13.582031 L 8.546875 10.701172 z M 18.056641 10.701172 L 15.177734 13.582031 L 15.658203 14.0625 L 18.537109 11.181641 L 18.056641 10.701172 z M 22.769531 10.701172 L 22.289062 11.181641 L 25.167969 14.0625 L 25.648438 13.582031 L 22.769531 10.701172 z M 32.279297 10.701172 L 29.400391 13.582031 L 29.878906 14.0625 L 32.759766 11.181641 L 32.279297 10.701172 z M 39.390625 10.701172 L 36.511719 13.582031 L 36.990234 14.0625 L 39.871094 11.181641 L 39.390625 10.701172 z M 44.101562 10.701172 L 43.621094 11.181641 L 46.501953 14.0625 L 46.982422 13.582031 L 44.101562 10.701172 z M 51.212891 10.701172 L 50.732422 11.181641 L 53.613281 14.0625 L 54.09375 13.582031 L 51.212891 10.701172 z M 0.27929688 11.621094 L 0 11.900391 L 0 12.861328 L 0.75976562 12.101562 L 0.27929688 11.621094 z M 4.9902344 11.621094 L 4.5117188 12.101562 L 7.1074219 14.699219 L 9.9882812 17.578125 L 10.46875 17.099609 L 7.8710938 14.501953 L 4.9902344 11.621094 z M 12.101562 11.621094 L 11.621094 12.101562 L 14.501953 14.982422 L 14.982422 14.501953 L 12.101562 11.621094 z M 21.613281 11.621094 L 18.732422 14.501953 L 19.212891 14.982422 L 22.09375 12.101562 L 21.613281 11.621094 z M 28.724609 11.621094 L 25.84375 14.501953 L 26.324219 14.982422 L 29.205078 12.101562 L 28.724609 11.621094 z M 33.435547 11.621094 L 32.955078 12.101562 L 35.835938 14.982422 L 36.314453 14.501953 L 33.435547 11.621094 z M 42.947266 11.621094 L 40.066406 14.501953 L 40.546875 14.982422 L 43.425781 12.101562 L 42.947266 11.621094 z M 47.658203 11.621094 L 47.177734 12.101562 L 50.056641 14.982422 L 50.537109 14.501953 L 47.658203 11.621094 z M 57.167969 11.621094 L 54.289062 14.501953 L 54.769531 14.982422 L 57.648438 12.101562 L 57.167969 11.621094 z M 64 11.900391 L 61.400391 14.501953 L 61.878906 14.982422 L 64 12.861328 L 64 11.900391 z M 2.8769531 14.21875 L 0 17.095703 L 0 17.103516 L 0.4765625 17.578125 L 3.3574219 14.699219 L 2.8769531 14.21875 z M 17.099609 14.21875 L 14.21875 17.099609 L 14.699219 17.578125 L 17.578125 14.699219 L 17.099609 14.21875 z M 24.210938 14.21875 L 21.330078 17.099609 L 21.810547 17.578125 L 24.689453 14.699219 L 24.210938 14.21875 z M 28.921875 14.21875 L 28.441406 14.699219 L 31.320312 17.578125 L 31.800781 17.099609 L 28.921875 14.21875 z M 38.431641 14.21875 L 35.552734 17.099609 L 36.033203 17.578125 L 38.912109 14.699219 L 38.431641 14.21875 z M 43.142578 14.21875 L 42.664062 14.699219 L 45.542969 17.578125 L 46.023438 17.099609 L 43.142578 14.21875 z M 52.654297 14.21875 L 49.775391 17.099609 L 50.253906 17.578125 L 53.134766 14.699219 L 52.654297 14.21875 z M 57.365234 14.21875 L 56.884766 14.699219 L 59.765625 17.578125 L 60.246094 17.099609 L 57.365234 14.21875 z M 6.4707031 15.177734 L 3.5898438 18.056641 L 3.5898438 18.058594 L 0.95507812 20.693359 L 1.4355469 21.171875 L 4.0703125 18.537109 L 6.9511719 15.658203 L 6.4707031 15.177734 z M 13.582031 15.177734 L 10.701172 18.056641 L 10.703125 18.058594 L 8.0664062 20.693359 L 8.546875 21.171875 L 11.181641 18.537109 L 14.0625 15.658203 L 13.582031 15.177734 z M 20.693359 15.177734 L 17.8125 18.056641 L 18.292969 18.537109 L 21.171875 15.658203 L 20.693359 15.177734 z M 25.404297 15.177734 L 24.923828 15.658203 L 27.804688 18.537109 L 28.283203 18.056641 L 25.404297 15.177734 z M 34.916016 15.177734 L 32.035156 18.056641 L 32.515625 18.537109 L 35.394531 15.658203 L 34.916016 15.177734 z M 42.025391 15.177734 L 39.146484 18.056641 L 39.626953 18.537109 L 42.505859 15.658203 L 42.025391 15.177734 z M 46.736328 15.177734 L 46.257812 15.658203 L 49.136719 18.537109 L 49.617188 18.056641 L 46.736328 15.177734 z M 56.248047 15.177734 L 53.369141 18.056641 L 53.847656 18.537109 L 56.728516 15.658203 L 56.248047 15.177734 z M 60.958984 15.177734 L 60.480469 15.658203 L 63.359375 18.537109 L 63.839844 18.056641 L 60.958984 15.177734 z M 64 17.095703 L 63.996094 17.099609 L 64 17.103516 L 64 17.095703 z M 15.658203 17.8125 L 15.177734 18.292969 L 18.056641 21.171875 L 18.537109 20.693359 L 15.658203 17.8125 z M 22.769531 17.8125 L 22.289062 18.292969 L 25.167969 21.171875 L 25.648438 20.693359 L 22.769531 17.8125 z M 29.878906 17.8125 L 29.400391 18.292969 L 32.279297 21.171875 L 32.759766 20.693359 L 29.878906 17.8125 z M 36.990234 17.8125 L 36.511719 18.292969 L 39.390625 21.171875 L 39.871094 20.693359 L 36.990234 17.8125 z M 46.501953 17.8125 L 43.621094 20.693359 L 44.101562 21.171875 L 46.982422 18.292969 L 46.501953 17.8125 z M 51.212891 17.8125 L 50.732422 18.292969 L 53.613281 21.171875 L 54.09375 20.693359 L 51.212891 17.8125 z M 58.324219 17.8125 L 57.84375 18.292969 L 60.724609 21.171875 L 61.205078 20.693359 L 58.324219 17.8125 z M 0.27929688 18.732422 L 0 19.011719 L 0 19.972656 L 0.75976562 19.212891 L 0.27929688 18.732422 z M 7.390625 18.732422 L 4.5117188 21.613281 L 4.9902344 22.09375 L 7.8710938 19.212891 L 7.390625 18.732422 z M 14.501953 18.732422 L 11.621094 21.613281 L 12.101562 22.09375 L 14.982422 19.212891 L 14.501953 18.732422 z M 21.613281 18.732422 L 18.732422 21.613281 L 19.212891 22.09375 L 22.09375 19.212891 L 21.613281 18.732422 z M 26.324219 18.732422 L 25.84375 19.212891 L 28.724609 22.09375 L 29.205078 21.613281 L 26.324219 18.732422 z M 35.835938 18.732422 L 32.955078 21.613281 L 33.435547 22.09375 L 36.314453 19.212891 L 35.835938 18.732422 z M 42.947266 18.732422 L 40.066406 21.613281 L 40.546875 22.09375 L 43.425781 19.212891 L 42.947266 18.732422 z M 50.056641 18.732422 L 47.177734 21.613281 L 47.658203 22.09375 L 50.537109 19.212891 L 50.056641 18.732422 z M 54.769531 18.732422 L 54.289062 19.212891 L 56.884766 21.810547 L 59.765625 24.689453 L 60.246094 24.210938 L 57.648438 21.613281 L 54.769531 18.732422 z M 64 19.011719 L 61.400391 21.613281 L 61.878906 22.09375 L 64 19.972656 L 64 19.011719 z M 0.4765625 21.330078 L 0 21.806641 L 0 21.814453 L 2.8769531 24.689453 L 3.3574219 24.210938 L 0.4765625 21.330078 z M 9.9882812 21.330078 L 7.1074219 24.210938 L 7.5878906 24.689453 L 10.46875 21.810547 L 9.9882812 21.330078 z M 17.099609 21.330078 L 14.21875 24.210938 L 14.699219 24.689453 L 17.578125 21.810547 L 17.099609 21.330078 z M 24.210938 21.330078 L 21.330078 24.210938 L 21.810547 24.689453 L 24.689453 21.810547 L 24.210938 21.330078 z M 31.320312 21.330078 L 28.441406 24.210938 L 28.921875 24.689453 L 31.800781 21.810547 L 31.320312 21.330078 z M 36.033203 21.330078 L 35.552734 21.810547 L 38.431641 24.689453 L 38.912109 24.210938 L 36.033203 21.330078 z M 43.142578 21.330078 L 42.664062 21.810547 L 45.542969 24.689453 L 46.023438 24.210938 L 43.142578 21.330078 z M 52.654297 21.330078 L 49.775391 24.210938 L 50.253906 24.689453 L 53.134766 21.810547 L 52.654297 21.330078 z M 64 21.806641 L 63.996094 21.810547 L 64 21.814453 L 64 21.806641 z M 6.4707031 22.289062 L 3.5898438 25.167969 L 4.0703125 25.648438 L 6.9511719 22.769531 L 6.4707031 22.289062 z M 13.582031 22.289062 L 10.701172 25.167969 L 11.181641 25.648438 L 14.0625 22.769531 L 13.582031 22.289062 z M 20.693359 22.289062 L 17.8125 25.167969 L 18.292969 25.648438 L 21.171875 22.769531 L 20.693359 22.289062 z M 25.404297 22.289062 L 24.923828 22.769531 L 27.804688 25.648438 L 28.283203 25.167969 L 25.404297 22.289062 z M 32.515625 22.289062 L 32.035156 22.769531 L 34.916016 25.648438 L 35.394531 25.167969 L 32.515625 22.289062 z M 42.025391 22.289062 L 39.146484 25.167969 L 36.511719 27.804688 L 36.990234 28.283203 L 39.871094 25.404297 L 42.505859 22.769531 L 42.025391 22.289062 z M 46.736328 22.289062 L 46.257812 22.769531 L 49.136719 25.648438 L 49.617188 25.167969 L 46.736328 22.289062 z M 53.847656 22.289062 L 53.369141 22.769531 L 56.248047 25.648438 L 56.728516 25.167969 L 53.847656 22.289062 z M 63.359375 22.289062 L 60.480469 25.167969 L 57.84375 27.804688 L 58.324219 28.283203 L 60.958984 25.648438 L 63.839844 22.769531 L 63.359375 22.289062 z M 1.4355469 24.923828 L 0.95507812 25.404297 L 3.8359375 28.283203 L 4.3144531 27.804688 L 1.4355469 24.923828 z M 8.546875 24.923828 L 8.0664062 25.404297 L 10.947266 28.283203 L 11.425781 27.804688 L 8.546875 24.923828 z M 15.658203 24.923828 L 15.177734 25.404297 L 18.056641 28.283203 L 18.537109 27.804688 L 15.658203 24.923828 z M 22.769531 24.923828 L 22.289062 25.404297 L 25.167969 28.283203 L 25.648438 27.804688 L 22.769531 24.923828 z M 29.878906 24.923828 L 29.400391 25.404297 L 32.279297 28.283203 L 32.759766 27.804688 L 29.878906 24.923828 z M 44.101562 24.923828 L 43.621094 25.404297 L 46.501953 28.283203 L 46.982422 27.804688 L 44.101562 24.923828 z M 53.613281 24.923828 L 50.732422 27.804688 L 51.212891 28.283203 L 54.09375 25.404297 L 53.613281 24.923828 z M 0.27929688 25.84375 L 0 26.123047 L 0 27.083984 L 0.75976562 26.324219 L 0.27929688 25.84375 z M 7.390625 25.84375 L 4.5117188 28.724609 L 4.9902344 29.205078 L 7.8710938 26.324219 L 7.390625 25.84375 z M 12.101562 25.84375 L 11.621094 26.324219 L 14.501953 29.205078 L 14.982422 28.724609 L 12.101562 25.84375 z M 21.613281 25.84375 L 18.732422 28.724609 L 19.212891 29.205078 L 22.09375 26.324219 L 21.613281 25.84375 z M 26.324219 25.84375 L 25.84375 26.324219 L 28.441406 28.921875 L 31.320312 31.800781 L 31.800781 31.320312 L 29.205078 28.724609 L 26.324219 25.84375 z M 33.435547 25.84375 L 32.955078 26.324219 L 35.835938 29.205078 L 38.431641 31.800781 L 38.912109 31.320312 L 36.314453 28.724609 L 33.435547 25.84375 z M 42.947266 25.84375 L 40.066406 28.724609 L 40.546875 29.205078 L 43.425781 26.324219 L 42.947266 25.84375 z M 50.056641 25.84375 L 47.177734 28.724609 L 47.658203 29.205078 L 50.537109 26.324219 L 50.056641 25.84375 z M 57.167969 25.84375 L 54.289062 28.724609 L 54.769531 29.205078 L 57.648438 26.324219 L 57.167969 25.84375 z M 64 26.123047 L 61.400391 28.724609 L 61.878906 29.205078 L 64 27.083984 L 64 26.123047 z M 2.8769531 28.441406 L 0 31.316406 L 0 31.324219 L 0.4765625 31.800781 L 3.3574219 28.921875 L 2.8769531 28.441406 z M 7.5878906 28.441406 L 7.1074219 28.921875 L 9.9882812 31.800781 L 10.46875 31.320312 L 7.5878906 28.441406 z M 17.099609 28.441406 L 14.21875 31.320312 L 14.699219 31.800781 L 17.578125 28.921875 L 17.099609 28.441406 z M 21.810547 28.441406 L 21.330078 28.921875 L 24.210938 31.800781 L 24.689453 31.320312 L 21.810547 28.441406 z M 45.542969 28.441406 L 42.664062 31.320312 L 43.142578 31.800781 L 46.023438 28.921875 L 45.542969 28.441406 z M 50.253906 28.441406 L 49.775391 28.921875 L 52.654297 31.800781 L 53.134766 31.320312 L 50.253906 28.441406 z M 57.365234 28.441406 L 56.884766 28.921875 L 59.765625 31.800781 L 60.246094 31.320312 L 57.365234 28.441406 z M 6.4707031 29.400391 L 3.5898438 32.279297 L 3.5898438 32.28125 L 0.95507812 34.916016 L 1.4355469 35.394531 L 4.0703125 32.759766 L 6.9511719 29.878906 L 6.4707031 29.400391 z M 13.582031 29.400391 L 10.701172 32.279297 L 10.703125 32.28125 L 8.0664062 34.916016 L 8.546875 35.394531 L 11.181641 32.759766 L 14.0625 29.878906 L 13.582031 29.400391 z M 18.292969 29.400391 L 17.8125 29.878906 L 20.693359 32.759766 L 21.171875 32.279297 L 18.292969 29.400391 z M 27.804688 29.400391 L 25.167969 32.035156 L 25.046875 32.158203 L 24.923828 32.279297 L 22.289062 34.916016 L 22.769531 35.394531 L 25.404297 32.759766 L 28.283203 29.878906 L 27.804688 29.400391 z M 34.916016 29.400391 L 32.035156 32.279297 L 32.515625 32.759766 L 35.394531 29.878906 L 34.916016 29.400391 z M 39.626953 29.400391 L 39.146484 29.878906 L 42.025391 32.759766 L 42.505859 32.279297 L 39.626953 29.400391 z M 49.136719 29.400391 L 46.257812 32.279297 L 46.736328 32.759766 L 49.617188 29.878906 L 49.136719 29.400391 z M 53.847656 29.400391 L 53.369141 29.878906 L 56.248047 32.759766 L 56.728516 32.279297 L 53.847656 29.400391 z M 63.359375 29.400391 L 60.480469 32.279297 L 60.958984 32.759766 L 63.839844 29.878906 L 63.359375 29.400391 z M 64 31.316406 L 63.996094 31.320312 L 64 31.324219 L 64 31.316406 z M 15.658203 32.035156 L 15.177734 32.515625 L 18.056641 35.394531 L 18.537109 34.916016 L 15.658203 32.035156 z M 29.878906 32.035156 L 29.400391 32.515625 L 32.279297 35.394531 L 32.759766 34.916016 L 29.878906 32.035156 z M 39.390625 32.035156 L 36.511719 34.916016 L 36.990234 35.394531 L 39.871094 32.515625 L 39.390625 32.035156 z M 44.101562 32.035156 L 43.621094 32.515625 L 46.501953 35.394531 L 46.982422 34.916016 L 44.101562 32.035156 z M 51.212891 32.035156 L 50.732422 32.515625 L 53.613281 35.394531 L 54.09375 34.916016 L 51.212891 32.035156 z M 58.324219 32.035156 L 57.84375 32.515625 L 60.724609 35.394531 L 61.205078 34.916016 L 58.324219 32.035156 z M 7.390625 32.955078 L 4.5117188 35.835938 L 4.9902344 36.314453 L 7.8710938 33.435547 L 7.390625 32.955078 z M 14.501953 32.955078 L 11.621094 35.835938 L 12.101562 36.314453 L 14.982422 33.435547 L 14.501953 32.955078 z M 19.212891 32.955078 L 18.732422 33.435547 L 21.613281 36.314453 L 22.09375 35.835938 L 19.212891 32.955078 z M 26.324219 32.955078 L 25.84375 33.435547 L 28.724609 36.314453 L 29.205078 35.835938 L 26.324219 32.955078 z M 33.435547 32.955078 L 32.955078 33.435547 L 35.835938 36.314453 L 36.314453 35.835938 L 33.435547 32.955078 z M 42.947266 32.955078 L 40.066406 35.835938 L 40.546875 36.314453 L 43.425781 33.435547 L 42.947266 32.955078 z M 50.056641 32.955078 L 47.177734 35.835938 L 47.658203 36.314453 L 50.537109 33.435547 L 50.056641 32.955078 z M 57.167969 32.955078 L 54.289062 35.835938 L 54.769531 36.314453 L 57.648438 33.435547 L 57.167969 32.955078 z M 61.878906 32.955078 L 61.400391 33.435547 L 63.996094 36.03125 L 63.996094 36.033203 L 64 36.037109 L 64 35.076172 L 61.878906 32.955078 z M 0 35.076172 L 0 36.037109 L 0.27929688 36.314453 L 2.8769531 38.912109 L 3.3574219 38.431641 L 0.75976562 35.835938 L 0 35.076172 z M 9.9882812 35.552734 L 7.1074219 38.431641 L 7.5878906 38.912109 L 10.46875 36.033203 L 9.9882812 35.552734 z M 17.099609 35.552734 L 14.21875 38.431641 L 14.699219 38.912109 L 17.578125 36.033203 L 17.099609 35.552734 z M 24.210938 35.552734 L 21.330078 38.431641 L 21.810547 38.912109 L 24.689453 36.033203 L 24.210938 35.552734 z M 31.320312 35.552734 L 28.441406 38.431641 L 28.921875 38.912109 L 31.800781 36.033203 L 31.320312 35.552734 z M 38.431641 35.552734 L 35.552734 38.431641 L 36.033203 38.912109 L 38.912109 36.033203 L 38.431641 35.552734 z M 43.142578 35.552734 L 42.664062 36.033203 L 45.542969 38.912109 L 46.023438 38.431641 L 43.142578 35.552734 z M 52.654297 35.552734 L 49.775391 38.431641 L 50.253906 38.912109 L 53.134766 36.033203 L 52.654297 35.552734 z M 57.365234 35.552734 L 56.884766 36.033203 L 59.765625 38.912109 L 60.246094 38.431641 L 57.365234 35.552734 z M 4.0703125 36.511719 L 3.5898438 36.990234 L 6.4707031 39.871094 L 6.9511719 39.390625 L 4.0703125 36.511719 z M 13.582031 36.511719 L 10.701172 39.390625 L 8.0664062 42.025391 L 8.546875 42.505859 L 11.181641 39.871094 L 14.0625 36.990234 L 13.582031 36.511719 z M 20.693359 36.511719 L 17.8125 39.390625 L 15.177734 42.025391 L 15.658203 42.505859 L 18.292969 39.871094 L 21.171875 36.990234 L 20.693359 36.511719 z M 27.804688 36.511719 L 24.923828 39.390625 L 25.404297 39.871094 L 28.283203 36.990234 L 27.804688 36.511719 z M 32.515625 36.511719 L 32.035156 36.990234 L 34.916016 39.871094 L 35.394531 39.390625 L 32.515625 36.511719 z M 42.025391 36.511719 L 39.146484 39.390625 L 36.511719 42.025391 L 36.990234 42.505859 L 39.748047 39.748047 L 42.505859 36.990234 L 42.025391 36.511719 z M 46.736328 36.511719 L 46.257812 36.990234 L 49.136719 39.871094 L 49.617188 39.390625 L 46.736328 36.511719 z M 53.847656 36.511719 L 53.369141 36.990234 L 56.248047 39.871094 L 56.728516 39.390625 L 53.847656 36.511719 z M 63.359375 36.511719 L 60.724609 39.146484 L 57.84375 42.025391 L 58.324219 42.505859 L 60.958984 39.871094 L 61.205078 39.626953 L 61.203125 39.625 L 63.839844 36.990234 L 63.359375 36.511719 z M 3.8359375 39.146484 L 0.95507812 42.025391 L 1.4355469 42.505859 L 4.3144531 39.626953 L 3.8359375 39.146484 z M 22.769531 39.146484 L 22.289062 39.626953 L 25.167969 42.505859 L 25.648438 42.025391 L 22.769531 39.146484 z M 32.279297 39.146484 L 29.400391 42.025391 L 29.878906 42.505859 L 32.759766 39.626953 L 32.279297 39.146484 z M 44.101562 39.146484 L 43.621094 39.626953 L 46.501953 42.505859 L 46.982422 42.025391 L 44.101562 39.146484 z M 53.613281 39.146484 L 50.732422 42.025391 L 51.212891 42.505859 L 54.09375 39.626953 L 53.613281 39.146484 z M 0.27929688 40.066406 L 0 40.345703 L 0 41.306641 L 0.75976562 40.546875 L 0.27929688 40.066406 z M 7.390625 40.066406 L 4.5117188 42.947266 L 4.9902344 43.425781 L 7.8710938 40.546875 L 7.390625 40.066406 z M 12.101562 40.066406 L 11.621094 40.546875 L 14.501953 43.425781 L 14.982422 42.947266 L 12.101562 40.066406 z M 21.613281 40.066406 L 18.732422 42.947266 L 19.212891 43.425781 L 22.09375 40.546875 L 21.613281 40.066406 z M 28.724609 40.066406 L 25.84375 42.947266 L 26.324219 43.425781 L 29.205078 40.546875 L 28.724609 40.066406 z M 33.435547 40.066406 L 32.955078 40.546875 L 35.835938 43.425781 L 36.314453 42.947266 L 33.435547 40.066406 z M 42.947266 40.066406 L 40.066406 42.947266 L 40.546875 43.425781 L 43.425781 40.546875 L 42.947266 40.066406 z M 50.056641 40.066406 L 47.177734 42.947266 L 47.658203 43.425781 L 50.537109 40.546875 L 50.056641 40.066406 z M 57.167969 40.066406 L 54.289062 42.947266 L 54.769531 43.425781 L 57.648438 40.546875 L 57.167969 40.066406 z M 64 40.345703 L 61.400391 42.947266 L 61.878906 43.425781 L 64 41.306641 L 64 40.345703 z M 2.8769531 42.664062 L 0 45.539062 L 0 45.546875 L 0.4765625 46.023438 L 3.3574219 43.142578 L 2.8769531 42.664062 z M 9.9882812 42.664062 L 7.1074219 45.542969 L 7.5878906 46.023438 L 10.46875 43.142578 L 9.9882812 42.664062 z M 17.099609 42.664062 L 14.21875 45.542969 L 14.699219 46.023438 L 17.578125 43.142578 L 17.099609 42.664062 z M 21.810547 42.664062 L 21.330078 43.142578 L 24.210938 46.023438 L 24.689453 45.542969 L 21.810547 42.664062 z M 31.320312 42.664062 L 28.441406 45.542969 L 28.921875 46.023438 L 31.800781 43.142578 L 31.320312 42.664062 z M 38.431641 42.664062 L 35.552734 45.542969 L 36.033203 46.023438 L 38.912109 43.142578 L 38.431641 42.664062 z M 43.142578 42.664062 L 42.664062 43.142578 L 45.542969 46.023438 L 46.023438 45.542969 L 43.142578 42.664062 z M 52.654297 42.664062 L 49.775391 45.542969 L 50.253906 46.023438 L 53.134766 43.142578 L 52.654297 42.664062 z M 57.365234 42.664062 L 56.884766 43.142578 L 59.765625 46.023438 L 60.246094 45.542969 L 57.365234 42.664062 z M 4.0703125 43.621094 L 3.5898438 44.101562 L 6.4707031 46.982422 L 6.9511719 46.501953 L 4.0703125 43.621094 z M 11.181641 43.621094 L 10.701172 44.101562 L 13.582031 46.982422 L 14.0625 46.501953 L 11.181641 43.621094 z M 20.693359 43.621094 L 17.8125 46.501953 L 18.292969 46.982422 L 21.171875 44.101562 L 20.693359 43.621094 z M 25.404297 43.621094 L 24.923828 44.101562 L 27.804688 46.982422 L 28.283203 46.501953 L 25.404297 43.621094 z M 34.916016 43.621094 L 32.035156 46.501953 L 32.515625 46.982422 L 35.394531 44.101562 L 34.916016 43.621094 z M 39.626953 43.621094 L 39.146484 44.101562 L 42.025391 46.982422 L 42.505859 46.501953 L 39.626953 43.621094 z M 46.736328 43.621094 L 46.257812 44.101562 L 49.136719 46.982422 L 49.617188 46.501953 L 46.736328 43.621094 z M 56.248047 43.621094 L 53.490234 46.378906 L 50.732422 49.136719 L 51.212891 49.617188 L 53.847656 46.982422 L 56.728516 44.101562 L 56.248047 43.621094 z M 60.958984 43.621094 L 60.480469 44.101562 L 63.359375 46.982422 L 63.839844 46.501953 L 60.958984 43.621094 z M 64 45.539062 L 63.996094 45.542969 L 64 45.546875 L 64 45.539062 z M 1.4355469 46.257812 L 0.95507812 46.736328 L 3.8359375 49.617188 L 4.3144531 49.136719 L 1.4355469 46.257812 z M 8.546875 46.257812 L 8.0664062 46.736328 L 10.947266 49.617188 L 11.425781 49.136719 L 8.546875 46.257812 z M 15.658203 46.257812 L 15.177734 46.736328 L 18.056641 49.617188 L 18.537109 49.136719 L 15.658203 46.257812 z M 22.769531 46.257812 L 22.289062 46.736328 L 25.167969 49.617188 L 25.648438 49.136719 L 22.769531 46.257812 z M 29.878906 46.257812 L 29.400391 46.736328 L 32.279297 49.617188 L 32.759766 49.136719 L 29.878906 46.257812 z M 39.390625 46.257812 L 36.511719 49.136719 L 36.990234 49.617188 L 39.871094 46.736328 L 39.390625 46.257812 z M 44.101562 46.257812 L 43.621094 46.736328 L 46.501953 49.617188 L 46.982422 49.136719 L 44.101562 46.257812 z M 60.724609 46.257812 L 57.84375 49.136719 L 58.324219 49.617188 L 61.205078 46.736328 L 60.724609 46.257812 z M 0.27929688 47.177734 L 0 47.457031 L 0 48.417969 L 0.75976562 47.658203 L 0.27929688 47.177734 z M 4.9902344 47.177734 L 4.5117188 47.658203 L 7.1074219 50.253906 L 9.9882812 53.134766 L 10.46875 52.654297 L 7.8710938 50.056641 L 4.9902344 47.177734 z M 14.501953 47.177734 L 11.621094 50.056641 L 12.101562 50.537109 L 14.982422 47.658203 L 14.501953 47.177734 z M 21.613281 47.177734 L 18.732422 50.056641 L 19.212891 50.537109 L 22.09375 47.658203 L 21.613281 47.177734 z M 28.724609 47.177734 L 25.84375 50.056641 L 26.324219 50.537109 L 29.205078 47.658203 L 28.724609 47.177734 z M 35.835938 47.177734 L 32.955078 50.056641 L 33.435547 50.537109 L 36.314453 47.658203 L 35.835938 47.177734 z M 42.947266 47.177734 L 40.066406 50.056641 L 40.546875 50.537109 L 43.425781 47.658203 L 42.947266 47.177734 z M 47.658203 47.177734 L 47.177734 47.658203 L 50.056641 50.537109 L 50.537109 50.056641 L 47.658203 47.177734 z M 57.167969 47.177734 L 54.289062 50.056641 L 54.769531 50.537109 L 57.648438 47.658203 L 57.167969 47.177734 z M 64 47.457031 L 61.400391 50.056641 L 61.878906 50.537109 L 64 48.417969 L 64 47.457031 z M 2.8769531 49.775391 L 0 52.650391 L 0 52.658203 L 0.4765625 53.134766 L 3.3574219 50.253906 L 2.8769531 49.775391 z M 17.099609 49.775391 L 14.21875 52.654297 L 14.699219 53.134766 L 17.578125 50.253906 L 17.099609 49.775391 z M 21.810547 49.775391 L 21.330078 50.253906 L 24.210938 53.134766 L 24.689453 52.654297 L 21.810547 49.775391 z M 28.921875 49.775391 L 28.441406 50.253906 L 31.320312 53.134766 L 31.800781 52.654297 L 28.921875 49.775391 z M 36.033203 49.775391 L 35.552734 50.253906 L 38.431641 53.134766 L 38.912109 52.654297 L 36.033203 49.775391 z M 45.542969 49.775391 L 42.664062 52.654297 L 43.142578 53.134766 L 46.023438 50.253906 L 45.542969 49.775391 z M 52.654297 49.775391 L 49.775391 52.654297 L 50.253906 53.134766 L 53.134766 50.253906 L 52.654297 49.775391 z M 59.765625 49.775391 L 56.884766 52.654297 L 57.365234 53.134766 L 60.246094 50.253906 L 59.765625 49.775391 z M 4.0703125 50.732422 L 3.5898438 51.212891 L 6.4707031 54.09375 L 6.9511719 53.613281 L 4.0703125 50.732422 z M 11.181641 50.732422 L 10.701172 51.212891 L 13.582031 54.09375 L 14.0625 53.613281 L 11.181641 50.732422 z M 18.292969 50.732422 L 17.8125 51.212891 L 20.693359 54.09375 L 21.171875 53.613281 L 18.292969 50.732422 z M 27.804688 50.732422 L 24.923828 53.613281 L 25.404297 54.09375 L 28.283203 51.212891 L 27.804688 50.732422 z M 34.916016 50.732422 L 32.035156 53.613281 L 29.400391 56.248047 L 29.878906 56.728516 L 32.759766 53.847656 L 35.394531 51.212891 L 34.916016 50.732422 z M 42.025391 50.732422 L 39.146484 53.613281 L 36.511719 56.248047 L 36.990234 56.728516 L 39.625 54.09375 L 39.626953 54.09375 L 39.871094 53.847656 L 42.505859 51.212891 L 42.025391 50.732422 z M 46.736328 50.732422 L 46.257812 51.212891 L 49.136719 54.09375 L 49.617188 53.613281 L 46.736328 50.732422 z M 56.248047 50.732422 L 53.490234 53.490234 L 50.732422 56.248047 L 51.212891 56.728516 L 53.847656 54.09375 L 56.728516 51.212891 L 56.248047 50.732422 z M 60.958984 50.732422 L 60.480469 51.212891 L 63.359375 54.09375 L 63.839844 53.613281 L 60.958984 50.732422 z M 64 52.650391 L 63.996094 52.654297 L 64 52.658203 L 64 52.650391 z M 1.4355469 53.369141 L 0.95507812 53.847656 L 3.8359375 56.728516 L 4.3144531 56.248047 L 1.4355469 53.369141 z M 8.546875 53.369141 L 8.0664062 53.847656 L 10.947266 56.728516 L 11.425781 56.248047 L 8.546875 53.369141 z M 15.658203 53.369141 L 15.177734 53.847656 L 18.056641 56.728516 L 18.537109 56.248047 L 15.658203 53.369141 z M 22.769531 53.369141 L 22.289062 53.847656 L 25.167969 56.728516 L 25.648438 56.248047 L 22.769531 53.369141 z M 46.501953 53.369141 L 43.621094 56.248047 L 44.101562 56.728516 L 46.982422 53.847656 L 46.501953 53.369141 z M 60.724609 53.369141 L 57.84375 56.248047 L 58.324219 56.728516 L 61.205078 53.847656 L 60.724609 53.369141 z M 0.27929688 54.289062 L 0 54.568359 L 0 55.529297 L 0.75976562 54.769531 L 0.27929688 54.289062 z M 4.9902344 54.289062 L 4.5117188 54.769531 L 7.1074219 57.365234 L 9.9882812 60.246094 L 10.46875 59.765625 L 7.8710938 57.167969 L 4.9902344 54.289062 z M 14.501953 54.289062 L 11.621094 57.167969 L 12.101562 57.648438 L 14.982422 54.769531 L 14.501953 54.289062 z M 21.613281 54.289062 L 18.732422 57.167969 L 19.212891 57.648438 L 22.09375 54.769531 L 21.613281 54.289062 z M 26.324219 54.289062 L 25.84375 54.769531 L 28.724609 57.648438 L 29.205078 57.167969 L 26.324219 54.289062 z M 35.835938 54.289062 L 32.955078 57.167969 L 33.435547 57.648438 L 36.314453 54.769531 L 35.835938 54.289062 z M 42.947266 54.289062 L 40.066406 57.167969 L 40.546875 57.648438 L 43.425781 54.769531 L 42.947266 54.289062 z M 50.056641 54.289062 L 47.177734 57.167969 L 47.658203 57.648438 L 50.537109 54.769531 L 50.056641 54.289062 z M 54.769531 54.289062 L 54.289062 54.769531 L 57.167969 57.648438 L 57.648438 57.167969 L 54.769531 54.289062 z M 64 54.568359 L 61.400391 57.167969 L 61.878906 57.648438 L 64 55.529297 L 64 54.568359 z M 0.4765625 56.884766 L 0 57.361328 L 0 57.369141 L 2.8769531 60.246094 L 3.3574219 59.765625 L 0.4765625 56.884766 z M 17.099609 56.884766 L 14.21875 59.765625 L 14.699219 60.246094 L 17.578125 57.365234 L 17.099609 56.884766 z M 24.210938 56.884766 L 21.330078 59.765625 L 21.810547 60.246094 L 24.689453 57.365234 L 24.210938 56.884766 z M 31.320312 56.884766 L 28.441406 59.765625 L 28.921875 60.246094 L 31.800781 57.365234 L 31.320312 56.884766 z M 36.033203 56.884766 L 35.552734 57.365234 L 38.431641 60.246094 L 38.912109 59.765625 L 36.033203 56.884766 z M 43.142578 56.884766 L 42.664062 57.365234 L 45.542969 60.246094 L 46.023438 59.765625 L 43.142578 56.884766 z M 50.253906 56.884766 L 49.775391 57.365234 L 52.654297 60.246094 L 53.134766 59.765625 L 50.253906 56.884766 z M 59.765625 56.884766 L 56.884766 59.765625 L 57.365234 60.246094 L 60.246094 57.365234 L 59.765625 56.884766 z M 64 57.361328 L 63.996094 57.365234 L 64 57.369141 L 64 57.361328 z M 4.0703125 57.84375 L 3.5898438 58.324219 L 6.4707031 61.205078 L 6.9511719 60.724609 L 4.0703125 57.84375 z M 13.582031 57.84375 L 10.701172 60.724609 L 8.0664062 63.359375 L 8.546875 63.839844 L 11.425781 60.958984 L 14.0625 58.324219 L 13.582031 57.84375 z M 18.292969 57.84375 L 17.8125 58.324219 L 20.693359 61.205078 L 21.171875 60.724609 L 18.292969 57.84375 z M 27.804688 57.84375 L 24.923828 60.724609 L 25.404297 61.205078 L 28.283203 58.324219 L 27.804688 57.84375 z M 32.515625 57.84375 L 32.035156 58.324219 L 34.916016 61.205078 L 35.394531 60.724609 L 32.515625 57.84375 z M 42.025391 57.84375 L 39.146484 60.724609 L 39.626953 61.205078 L 42.505859 58.324219 L 42.025391 57.84375 z M 49.136719 57.84375 L 46.257812 60.724609 L 43.621094 63.359375 L 44.101562 63.839844 L 46.736328 61.205078 L 49.617188 58.324219 L 49.136719 57.84375 z M 53.847656 57.84375 L 53.369141 58.324219 L 56.248047 61.205078 L 56.728516 60.724609 L 53.847656 57.84375 z M 60.958984 57.84375 L 60.480469 58.324219 L 63.359375 61.205078 L 63.839844 60.724609 L 60.958984 57.84375 z M 3.8359375 60.480469 L 0.95507812 63.359375 L 1.4355469 63.839844 L 4.3144531 60.958984 L 3.8359375 60.480469 z M 18.056641 60.480469 L 15.177734 63.359375 L 15.658203 63.839844 L 18.537109 60.958984 L 18.056641 60.480469 z M 22.769531 60.480469 L 22.289062 60.958984 L 25.167969 63.839844 L 25.648438 63.359375 L 22.769531 60.480469 z M 29.878906 60.480469 L 29.400391 60.958984 L 32.279297 63.839844 L 32.759766 63.359375 L 29.878906 60.480469 z M 36.990234 60.480469 L 36.511719 60.958984 L 39.390625 63.839844 L 39.871094 63.359375 L 36.990234 60.480469 z M 51.212891 60.480469 L 50.732422 60.958984 L 53.613281 63.839844 L 54.09375 63.359375 L 51.212891 60.480469 z M 60.724609 60.480469 L 57.84375 63.359375 L 58.324219 63.839844 L 61.205078 60.958984 L 60.724609 60.480469 z M 7.390625 61.400391 L 4.7910156 64 L 5.75 64 L 7.8710938 61.878906 L 7.390625 61.400391 z M 12.101562 61.400391 L 11.621094 61.878906 L 13.742188 64 L 14.703125 64 L 12.101562 61.400391 z M 19.212891 61.400391 L 18.732422 61.878906 L 20.853516 64 L 21.814453 64 L 19.212891 61.400391 z M 26.324219 61.400391 L 25.84375 61.878906 L 27.964844 64 L 28.925781 64 L 26.324219 61.400391 z M 35.835938 61.400391 L 33.234375 64 L 34.195312 64 L 36.314453 61.878906 L 35.835938 61.400391 z M 42.947266 61.400391 L 40.345703 64 L 41.306641 64 L 43.425781 61.878906 L 42.947266 61.400391 z M 50.056641 61.400391 L 47.457031 64 L 48.417969 64 L 50.537109 61.878906 L 50.056641 61.400391 z M 54.769531 61.400391 L 54.289062 61.878906 L 56.408203 64 L 57.369141 64 L 54.769531 61.400391 z M 61.878906 61.400391 L 61.400391 61.878906 L 63.519531 64 L 64 64 L 64 63.519531 L 61.878906 61.400391 z M 0 63.519531 L 0 64 L 0.48046875 64 L 0 63.519531 z M 2.8769531 63.996094 L 2.8730469 64 L 2.8808594 64 L 2.8769531 63.996094 z M 7.5878906 63.996094 L 7.5839844 64 L 7.5917969 64 L 7.5878906 63.996094 z M 17.099609 63.996094 L 17.095703 64 L 17.103516 64 L 17.099609 63.996094 z M 31.320312 63.996094 L 31.316406 64 L 31.324219 64 L 31.320312 63.996094 z M 36.033203 63.996094 L 36.029297 64 L 36.037109 64 L 36.033203 63.996094 z M 45.542969 63.996094 L 45.539062 64 L 45.546875 64 L 45.542969 63.996094 z M 50.253906 63.996094 L 50.25 64 L 50.257812 64 L 50.253906 63.996094 z M 59.765625 63.996094 L 59.761719 64 L 59.769531 64 L 59.765625 63.996094 z " />
  <desc
     id="desc501">Created with Snap</desc>
</svg>
