<?xml version="1.0" encoding="UTF-8" standalone="no"?>
<svg
   xmlns:dc="http://purl.org/dc/elements/1.1/"
   xmlns:cc="http://creativecommons.org/ns#"
   xmlns:rdf="http://www.w3.org/1999/02/22-rdf-syntax-ns#"
   xmlns:svg="http://www.w3.org/2000/svg"
   xmlns="http://www.w3.org/2000/svg"
   version="1.1"
   height="128"
   width="128"
   id="Svg">
  <metadata
     id="metadata594">
    <rdf:RDF>
      <cc:Work
         rdf:about="">
        <dc:format>image/svg+xml</dc:format>
        <dc:type
           rdf:resource="http://purl.org/dc/dcmitype/StillImage" />
      </cc:Work>
    </rdf:RDF>
  </metadata>
  <defs
     id="defs3" />
  <path
     id="path2610"
     d="M 7.5 0 L 5.75 1.75 L 6.25 2.25 L 8 0.5 L 9.75 2.25 L 10.25 1.75 L 8.5 0 L 7.5 0 z M 23.5 0 L 21.75 1.75 L 22.25 2.25 L 24 0.5 L 25.75 2.25 L 26.25 1.75 L 24.5 0 L 23.5 0 z M 39.5 0 L 37.75 1.75 L 38.25 2.25 L 40 0.5 L 41.75 2.25 L 42.25 1.75 L 40.5 0 L 39.5 0 z M 55.5 0 L 53.75 1.75 L 54.25 2.25 L 56 0.5 L 57.75 2.25 L 58.25 1.75 L 56.5 0 L 55.5 0 z M 71.5 0 L 69.75 1.75 L 70.25 2.25 L 72 0.5 L 73.75 2.25 L 74.25 1.75 L 72.5 0 L 71.5 0 z M 87.5 0 L 85.75 1.75 L 86.25 2.25 L 88 0.5 L 89.75 2.25 L 90.25 1.75 L 88.5 0 L 87.5 0 z M 103.5 0 L 101.75 1.75 L 102.25 2.25 L 104 0.5 L 105.75 2.25 L 106.25 1.75 L 104.5 0 L 103.5 0 z M 119.5 0 L 117.75 1.75 L 118.25 2.25 L 120 0.5 L 121.75 2.25 L 122.25 1.75 L 120.5 0 L 119.5 0 z M 1.75 5.75 L 0 7.5 L 0 8.5 L 1.75 10.25 L 2.25 9.75 L 0.5 8 L 2.25 6.25 L 1.75 5.75 z M 14.25 5.75 L 13.75 6.25 L 15.5 8 L 13.75 9.75 L 14.25 10.25 L 16 8.5 L 17.75 10.25 L 18.25 9.75 L 16.5 8 L 18.25 6.25 L 17.75 5.75 L 16 7.5 L 14.25 5.75 z M 30.25 5.75 L 29.75 6.25 L 31.5 8 L 29.75 9.75 L 30.25 10.25 L 32 8.5 L 33.75 10.25 L 34.25 9.75 L 32.5 8 L 34.25 6.25 L 33.75 5.75 L 32 7.5 L 30.25 5.75 z M 46.25 5.75 L 45.75 6.25 L 47.5 8 L 45.75 9.75 L 46.25 10.25 L 48 8.5 L 49.75 10.25 L 50.25 9.75 L 48.5 8 L 50.25 6.25 L 49.75 5.75 L 48 7.5 L 46.25 5.75 z M 62.25 5.75 L 61.75 6.25 L 63.5 8 L 61.75 9.75 L 62.25 10.25 L 64 8.5 L 65.75 10.25 L 66.25 9.75 L 64.5 8 L 66.25 6.25 L 65.75 5.75 L 64 7.5 L 62.25 5.75 z M 78.25 5.75 L 77.75 6.25 L 79.5 8 L 77.75 9.75 L 78.25 10.25 L 80 8.5 L 81.75 10.25 L 82.25 9.75 L 80.5 8 L 82.25 6.25 L 81.75 5.75 L 80 7.5 L 78.25 5.75 z M 94.25 5.75 L 93.75 6.25 L 95.5 8 L 93.75 9.75 L 94.25 10.25 L 96 8.5 L 97.75 10.25 L 98.25 9.75 L 96.5 8 L 98.25 6.25 L 97.75 5.75 L 96 7.5 L 94.25 5.75 z M 110.25 5.75 L 109.75 6.25 L 111.5 8 L 109.75 9.75 L 110.25 10.25 L 112 8.5 L 113.75 10.25 L 114.25 9.75 L 112.5 8 L 114.25 6.25 L 113.75 5.75 L 112 7.5 L 110.25 5.75 z M 126.25 5.75 L 125.75 6.25 L 127.5 8 L 125.75 9.75 L 126.25 10.25 L 128 8.5 L 128 7.5 L 126.25 5.75 z M 6.25 13.75 L 5.75 14.25 L 7.5 16 L 5.75 17.75 L 6.25 18.25 L 8 16.5 L 9.75 18.25 L 10.25 17.75 L 8.5 16 L 10.25 14.25 L 9.75 13.75 L 8 15.5 L 6.25 13.75 z M 22.25 13.75 L 21.75 14.25 L 23.5 16 L 21.75 17.75 L 22.25 18.25 L 24 16.5 L 25.75 18.25 L 26.25 17.75 L 24.5 16 L 26.25 14.25 L 25.75 13.75 L 24 15.5 L 22.25 13.75 z M 38.25 13.75 L 37.75 14.25 L 39.5 16 L 37.75 17.75 L 38.25 18.25 L 40 16.5 L 41.75 18.25 L 42.25 17.75 L 40.5 16 L 42.25 14.25 L 41.75 13.75 L 40 15.5 L 38.25 13.75 z M 54.25 13.75 L 53.75 14.25 L 55.5 16 L 53.75 17.75 L 54.25 18.25 L 56 16.5 L 57.75 18.25 L 58.25 17.75 L 56.5 16 L 58.25 14.25 L 57.75 13.75 L 56 15.5 L 54.25 13.75 z M 70.25 13.75 L 69.75 14.25 L 71.5 16 L 69.75 17.75 L 70.25 18.25 L 72 16.5 L 73.75 18.25 L 74.25 17.75 L 72.5 16 L 74.25 14.25 L 73.75 13.75 L 72 15.5 L 70.25 13.75 z M 86.25 13.75 L 85.75 14.25 L 87.5 16 L 85.75 17.75 L 86.25 18.25 L 88 16.5 L 89.75 18.25 L 90.25 17.75 L 88.5 16 L 90.25 14.25 L 89.75 13.75 L 88 15.5 L 86.25 13.75 z M 102.25 13.75 L 101.75 14.25 L 103.5 16 L 101.75 17.75 L 102.25 18.25 L 104 16.5 L 105.75 18.25 L 106.25 17.75 L 104.5 16 L 106.25 14.25 L 105.75 13.75 L 104 15.5 L 102.25 13.75 z M 118.25 13.75 L 117.75 14.25 L 119.5 16 L 117.75 17.75 L 118.25 18.25 L 120 16.5 L 121.75 18.25 L 122.25 17.75 L 120.5 16 L 122.25 14.25 L 121.75 13.75 L 120 15.5 L 118.25 13.75 z M 1.75 21.75 L 0 23.5 L 0 24.5 L 1.75 26.25 L 2.25 25.75 L 0.5 24 L 2.25 22.25 L 1.75 21.75 z M 14.25 21.75 L 13.75 22.25 L 15.5 24 L 13.75 25.75 L 14.25 26.25 L 16 24.5 L 17.75 26.25 L 18.25 25.75 L 16.5 24 L 18.25 22.25 L 17.75 21.75 L 16 23.5 L 14.25 21.75 z M 30.25 21.75 L 29.75 22.25 L 31.5 24 L 29.75 25.75 L 30.25 26.25 L 32 24.5 L 33.75 26.25 L 34.25 25.75 L 32.5 24 L 34.25 22.25 L 33.75 21.75 L 32 23.5 L 30.25 21.75 z M 46.25 21.75 L 45.75 22.25 L 47.5 24 L 45.75 25.75 L 46.25 26.25 L 48 24.5 L 49.75 26.25 L 50.25 25.75 L 48.5 24 L 50.25 22.25 L 49.75 21.75 L 48 23.5 L 46.25 21.75 z M 62.25 21.75 L 61.75 22.25 L 63.5 24 L 61.75 25.75 L 62.25 26.25 L 64 24.5 L 65.75 26.25 L 66.25 25.75 L 64.5 24 L 66.25 22.25 L 65.75 21.75 L 64 23.5 L 62.25 21.75 z M 78.25 21.75 L 77.75 22.25 L 79.5 24 L 77.75 25.75 L 78.25 26.25 L 80 24.5 L 81.75 26.25 L 82.25 25.75 L 80.5 24 L 82.25 22.25 L 81.75 21.75 L 80 23.5 L 78.25 21.75 z M 94.25 21.75 L 93.75 22.25 L 95.5 24 L 93.75 25.75 L 94.25 26.25 L 96 24.5 L 97.75 26.25 L 98.25 25.75 L 96.5 24 L 98.25 22.25 L 97.75 21.75 L 96 23.5 L 94.25 21.75 z M 110.25 21.75 L 109.75 22.25 L 111.5 24 L 109.75 25.75 L 110.25 26.25 L 112 24.5 L 113.75 26.25 L 114.25 25.75 L 112.5 24 L 114.25 22.25 L 113.75 21.75 L 112 23.5 L 110.25 21.75 z M 126.25 21.75 L 125.75 22.25 L 127.5 24 L 125.75 25.75 L 126.25 26.25 L 128 24.5 L 128 23.5 L 126.25 21.75 z M 6.25 29.75 L 5.75 30.25 L 7.5 32 L 5.75 33.75 L 6.25 34.25 L 8 32.5 L 9.75 34.25 L 10.25 33.75 L 8.5 32 L 10.25 30.25 L 9.75 29.75 L 8 31.5 L 6.25 29.75 z M 22.25 29.75 L 21.75 30.25 L 23.5 32 L 21.75 33.75 L 22.25 34.25 L 24 32.5 L 25.75 34.25 L 26.25 33.75 L 24.5 32 L 26.25 30.25 L 25.75 29.75 L 24 31.5 L 22.25 29.75 z M 38.25 29.75 L 37.75 30.25 L 39.5 32 L 37.75 33.75 L 38.25 34.25 L 40 32.5 L 41.75 34.25 L 42.25 33.75 L 40.5 32 L 42.25 30.25 L 41.75 29.75 L 40 31.5 L 38.25 29.75 z M 54.25 29.75 L 53.75 30.25 L 55.5 32 L 53.75 33.75 L 54.25 34.25 L 56 32.5 L 57.75 34.25 L 58.25 33.75 L 56.5 32 L 58.25 30.25 L 57.75 29.75 L 56 31.5 L 54.25 29.75 z M 70.25 29.75 L 69.75 30.25 L 71.5 32 L 69.75 33.75 L 70.25 34.25 L 72 32.5 L 73.75 34.25 L 74.25 33.75 L 72.5 32 L 74.25 30.25 L 73.75 29.75 L 72 31.5 L 70.25 29.75 z M 86.25 29.75 L 85.75 30.25 L 87.5 32 L 85.75 33.75 L 86.25 34.25 L 88 32.5 L 89.75 34.25 L 90.25 33.75 L 88.5 32 L 90.25 30.25 L 89.75 29.75 L 88 31.5 L 86.25 29.75 z M 102.25 29.75 L 101.75 30.25 L 103.5 32 L 101.75 33.75 L 102.25 34.25 L 104 32.5 L 105.75 34.25 L 106.25 33.75 L 104.5 32 L 106.25 30.25 L 105.75 29.75 L 104 31.5 L 102.25 29.75 z M 118.25 29.75 L 117.75 30.25 L 119.5 32 L 117.75 33.75 L 118.25 34.25 L 120 32.5 L 121.75 34.25 L 122.25 33.75 L 120.5 32 L 122.25 30.25 L 121.75 29.75 L 120 31.5 L 118.25 29.75 z M 1.75 37.75 L 0 39.5 L 0 40.5 L 1.75 42.25 L 2.25 41.75 L 0.5 40 L 2.25 38.25 L 1.75 37.75 z M 14.25 37.75 L 13.75 38.25 L 15.5 40 L 13.75 41.75 L 14.25 42.25 L 16 40.5 L 17.75 42.25 L 18.25 41.75 L 16.5 40 L 18.25 38.25 L 17.75 37.75 L 16 39.5 L 14.25 37.75 z M 30.25 37.75 L 29.75 38.25 L 31.5 40 L 29.75 41.75 L 30.25 42.25 L 32 40.5 L 33.75 42.25 L 34.25 41.75 L 32.5 40 L 34.25 38.25 L 33.75 37.75 L 32 39.5 L 30.25 37.75 z M 46.25 37.75 L 45.75 38.25 L 47.5 40 L 45.75 41.75 L 46.25 42.25 L 48 40.5 L 49.75 42.25 L 50.25 41.75 L 48.5 40 L 50.25 38.25 L 49.75 37.75 L 48 39.5 L 46.25 37.75 z M 62.25 37.75 L 61.75 38.25 L 63.5 40 L 61.75 41.75 L 62.25 42.25 L 64 40.5 L 65.75 42.25 L 66.25 41.75 L 64.5 40 L 66.25 38.25 L 65.75 37.75 L 64 39.5 L 62.25 37.75 z M 78.25 37.75 L 77.75 38.25 L 79.5 40 L 77.75 41.75 L 78.25 42.25 L 80 40.5 L 81.75 42.25 L 82.25 41.75 L 80.5 40 L 82.25 38.25 L 81.75 37.75 L 80 39.5 L 78.25 37.75 z M 94.25 37.75 L 93.75 38.25 L 95.5 40 L 93.75 41.75 L 94.25 42.25 L 96 40.5 L 97.75 42.25 L 98.25 41.75 L 96.5 40 L 98.25 38.25 L 97.75 37.75 L 96 39.5 L 94.25 37.75 z M 110.25 37.75 L 109.75 38.25 L 111.5 40 L 109.75 41.75 L 110.25 42.25 L 112 40.5 L 113.75 42.25 L 114.25 41.75 L 112.5 40 L 114.25 38.25 L 113.75 37.75 L 112 39.5 L 110.25 37.75 z M 126.25 37.75 L 125.75 38.25 L 127.5 40 L 125.75 41.75 L 126.25 42.25 L 128 40.5 L 128 39.5 L 126.25 37.75 z M 6.25 45.75 L 5.75 46.25 L 7.5 48 L 5.75 49.75 L 6.25 50.25 L 8 48.5 L 9.75 50.25 L 10.25 49.75 L 8.5 48 L 10.25 46.25 L 9.75 45.75 L 8 47.5 L 6.25 45.75 z M 22.25 45.75 L 21.75 46.25 L 23.5 48 L 21.75 49.75 L 22.25 50.25 L 24 48.5 L 25.75 50.25 L 26.25 49.75 L 24.5 48 L 26.25 46.25 L 25.75 45.75 L 24 47.5 L 22.25 45.75 z M 38.25 45.75 L 37.75 46.25 L 39.5 48 L 37.75 49.75 L 38.25 50.25 L 40 48.5 L 41.75 50.25 L 42.25 49.75 L 40.5 48 L 42.25 46.25 L 41.75 45.75 L 40 47.5 L 38.25 45.75 z M 54.25 45.75 L 53.75 46.25 L 55.5 48 L 53.75 49.75 L 54.25 50.25 L 56 48.5 L 57.75 50.25 L 58.25 49.75 L 56.5 48 L 58.25 46.25 L 57.75 45.75 L 56 47.5 L 54.25 45.75 z M 70.25 45.75 L 69.75 46.25 L 71.5 48 L 69.75 49.75 L 70.25 50.25 L 72 48.5 L 73.75 50.25 L 74.25 49.75 L 72.5 48 L 74.25 46.25 L 73.75 45.75 L 72 47.5 L 70.25 45.75 z M 86.25 45.75 L 85.75 46.25 L 87.5 48 L 85.75 49.75 L 86.25 50.25 L 88 48.5 L 89.75 50.25 L 90.25 49.75 L 88.5 48 L 90.25 46.25 L 89.75 45.75 L 88 47.5 L 86.25 45.75 z M 102.25 45.75 L 101.75 46.25 L 103.5 48 L 101.75 49.75 L 102.25 50.25 L 104 48.5 L 105.75 50.25 L 106.25 49.75 L 104.5 48 L 106.25 46.25 L 105.75 45.75 L 104 47.5 L 102.25 45.75 z M 118.25 45.75 L 117.75 46.25 L 119.5 48 L 117.75 49.75 L 118.25 50.25 L 120 48.5 L 121.75 50.25 L 122.25 49.75 L 120.5 48 L 122.25 46.25 L 121.75 45.75 L 120 47.5 L 118.25 45.75 z M 1.75 53.75 L 0 55.5 L 0 56.5 L 1.75 58.25 L 2.25 57.75 L 0.5 56 L 2.25 54.25 L 1.75 53.75 z M 14.25 53.75 L 13.75 54.25 L 15.5 56 L 13.75 57.75 L 14.25 58.25 L 16 56.5 L 17.75 58.25 L 18.25 57.75 L 16.5 56 L 18.25 54.25 L 17.75 53.75 L 16 55.5 L 14.25 53.75 z M 30.25 53.75 L 29.75 54.25 L 31.5 56 L 29.75 57.75 L 30.25 58.25 L 32 56.5 L 33.75 58.25 L 34.25 57.75 L 32.5 56 L 34.25 54.25 L 33.75 53.75 L 32 55.5 L 30.25 53.75 z M 46.25 53.75 L 45.75 54.25 L 47.5 56 L 45.75 57.75 L 46.25 58.25 L 48 56.5 L 49.75 58.25 L 50.25 57.75 L 48.5 56 L 50.25 54.25 L 49.75 53.75 L 48 55.5 L 46.25 53.75 z M 62.25 53.75 L 61.75 54.25 L 63.5 56 L 61.75 57.75 L 62.25 58.25 L 64 56.5 L 65.75 58.25 L 66.25 57.75 L 64.5 56 L 66.25 54.25 L 65.75 53.75 L 64 55.5 L 62.25 53.75 z M 78.25 53.75 L 77.75 54.25 L 79.5 56 L 77.75 57.75 L 78.25 58.25 L 80 56.5 L 81.75 58.25 L 82.25 57.75 L 80.5 56 L 82.25 54.25 L 81.75 53.75 L 80 55.5 L 78.25 53.75 z M 94.25 53.75 L 93.75 54.25 L 95.5 56 L 93.75 57.75 L 94.25 58.25 L 96 56.5 L 97.75 58.25 L 98.25 57.75 L 96.5 56 L 98.25 54.25 L 97.75 53.75 L 96 55.5 L 94.25 53.75 z M 110.25 53.75 L 109.75 54.25 L 111.5 56 L 109.75 57.75 L 110.25 58.25 L 112 56.5 L 113.75 58.25 L 114.25 57.75 L 112.5 56 L 114.25 54.25 L 113.75 53.75 L 112 55.5 L 110.25 53.75 z M 126.25 53.75 L 125.75 54.25 L 127.5 56 L 125.75 57.75 L 126.25 58.25 L 128 56.5 L 128 55.5 L 126.25 53.75 z M 6.25 61.75 L 5.75 62.25 L 7.5 64 L 5.75 65.75 L 6.25 66.25 L 8 64.5 L 9.75 66.25 L 10.25 65.75 L 8.5 64 L 10.25 62.25 L 9.75 61.75 L 8 63.5 L 6.25 61.75 z M 22.25 61.75 L 21.75 62.25 L 23.5 64 L 21.75 65.75 L 22.25 66.25 L 24 64.5 L 25.75 66.25 L 26.25 65.75 L 24.5 64 L 26.25 62.25 L 25.75 61.75 L 24 63.5 L 22.25 61.75 z M 38.25 61.75 L 37.75 62.25 L 39.5 64 L 37.75 65.75 L 38.25 66.25 L 40 64.5 L 41.75 66.25 L 42.25 65.75 L 40.5 64 L 42.25 62.25 L 41.75 61.75 L 40 63.5 L 38.25 61.75 z M 54.25 61.75 L 53.75 62.25 L 55.5 64 L 53.75 65.75 L 54.25 66.25 L 56 64.5 L 57.75 66.25 L 58.25 65.75 L 56.5 64 L 58.25 62.25 L 57.75 61.75 L 56 63.5 L 54.25 61.75 z M 70.25 61.75 L 69.75 62.25 L 71.5 64 L 69.75 65.75 L 70.25 66.25 L 72 64.5 L 73.75 66.25 L 74.25 65.75 L 72.5 64 L 74.25 62.25 L 73.75 61.75 L 72 63.5 L 70.25 61.75 z M 86.25 61.75 L 85.75 62.25 L 87.5 64 L 85.75 65.75 L 86.25 66.25 L 88 64.5 L 89.75 66.25 L 90.25 65.75 L 88.5 64 L 90.25 62.25 L 89.75 61.75 L 88 63.5 L 86.25 61.75 z M 102.25 61.75 L 101.75 62.25 L 103.5 64 L 101.75 65.75 L 102.25 66.25 L 104 64.5 L 105.75 66.25 L 106.25 65.75 L 104.5 64 L 106.25 62.25 L 105.75 61.75 L 104 63.5 L 102.25 61.75 z M 118.25 61.75 L 117.75 62.25 L 119.5 64 L 117.75 65.75 L 118.25 66.25 L 120 64.5 L 121.75 66.25 L 122.25 65.75 L 120.5 64 L 122.25 62.25 L 121.75 61.75 L 120 63.5 L 118.25 61.75 z M 1.75 69.75 L 0 71.5 L 0 72.5 L 1.75 74.25 L 2.25 73.75 L 0.5 72 L 2.25 70.25 L 1.75 69.75 z M 14.25 69.75 L 13.75 70.25 L 15.5 72 L 13.75 73.75 L 14.25 74.25 L 16 72.5 L 17.75 74.25 L 18.25 73.75 L 16.5 72 L 18.25 70.25 L 17.75 69.75 L 16 71.5 L 14.25 69.75 z M 30.25 69.75 L 29.75 70.25 L 31.5 72 L 29.75 73.75 L 30.25 74.25 L 32 72.5 L 33.75 74.25 L 34.25 73.75 L 32.5 72 L 34.25 70.25 L 33.75 69.75 L 32 71.5 L 30.25 69.75 z M 46.25 69.75 L 45.75 70.25 L 47.5 72 L 45.75 73.75 L 46.25 74.25 L 48 72.5 L 49.75 74.25 L 50.25 73.75 L 48.5 72 L 50.25 70.25 L 49.75 69.75 L 48 71.5 L 46.25 69.75 z M 62.25 69.75 L 61.75 70.25 L 63.5 72 L 61.75 73.75 L 62.25 74.25 L 64 72.5 L 65.75 74.25 L 66.25 73.75 L 64.5 72 L 66.25 70.25 L 65.75 69.75 L 64 71.5 L 62.25 69.75 z M 78.25 69.75 L 77.75 70.25 L 79.5 72 L 77.75 73.75 L 78.25 74.25 L 80 72.5 L 81.75 74.25 L 82.25 73.75 L 80.5 72 L 82.25 70.25 L 81.75 69.75 L 80 71.5 L 78.25 69.75 z M 94.25 69.75 L 93.75 70.25 L 95.5 72 L 93.75 73.75 L 94.25 74.25 L 96 72.5 L 97.75 74.25 L 98.25 73.75 L 96.5 72 L 98.25 70.25 L 97.75 69.75 L 96 71.5 L 94.25 69.75 z M 110.25 69.75 L 109.75 70.25 L 111.5 72 L 109.75 73.75 L 110.25 74.25 L 112 72.5 L 113.75 74.25 L 114.25 73.75 L 112.5 72 L 114.25 70.25 L 113.75 69.75 L 112 71.5 L 110.25 69.75 z M 126.25 69.75 L 125.75 70.25 L 127.5 72 L 125.75 73.75 L 126.25 74.25 L 128 72.5 L 128 71.5 L 126.25 69.75 z M 6.25 77.75 L 5.75 78.25 L 7.5 80 L 5.75 81.75 L 6.25 82.25 L 8 80.5 L 9.75 82.25 L 10.25 81.75 L 8.5 80 L 10.25 78.25 L 9.75 77.75 L 8 79.5 L 6.25 77.75 z M 22.25 77.75 L 21.75 78.25 L 23.5 80 L 21.75 81.75 L 22.25 82.25 L 24 80.5 L 25.75 82.25 L 26.25 81.75 L 24.5 80 L 26.25 78.25 L 25.75 77.75 L 24 79.5 L 22.25 77.75 z M 38.25 77.75 L 37.75 78.25 L 39.5 80 L 37.75 81.75 L 38.25 82.25 L 40 80.5 L 41.75 82.25 L 42.25 81.75 L 40.5 80 L 42.25 78.25 L 41.75 77.75 L 40 79.5 L 38.25 77.75 z M 54.25 77.75 L 53.75 78.25 L 55.5 80 L 53.75 81.75 L 54.25 82.25 L 56 80.5 L 57.75 82.25 L 58.25 81.75 L 56.5 80 L 58.25 78.25 L 57.75 77.75 L 56 79.5 L 54.25 77.75 z M 70.25 77.75 L 69.75 78.25 L 71.5 80 L 69.75 81.75 L 70.25 82.25 L 72 80.5 L 73.75 82.25 L 74.25 81.75 L 72.5 80 L 74.25 78.25 L 73.75 77.75 L 72 79.5 L 70.25 77.75 z M 86.25 77.75 L 85.75 78.25 L 87.5 80 L 85.75 81.75 L 86.25 82.25 L 88 80.5 L 89.75 82.25 L 90.25 81.75 L 88.5 80 L 90.25 78.25 L 89.75 77.75 L 88 79.5 L 86.25 77.75 z M 102.25 77.75 L 101.75 78.25 L 103.5 80 L 101.75 81.75 L 102.25 82.25 L 104 80.5 L 105.75 82.25 L 106.25 81.75 L 104.5 80 L 106.25 78.25 L 105.75 77.75 L 104 79.5 L 102.25 77.75 z M 118.25 77.75 L 117.75 78.25 L 119.5 80 L 117.75 81.75 L 118.25 82.25 L 120 80.5 L 121.75 82.25 L 122.25 81.75 L 120.5 80 L 122.25 78.25 L 121.75 77.75 L 120 79.5 L 118.25 77.75 z M 1.75 85.75 L 0 87.5 L 0 88.5 L 1.75 90.25 L 2.25 89.75 L 0.5 88 L 2.25 86.25 L 1.75 85.75 z M 14.25 85.75 L 13.75 86.25 L 15.5 88 L 13.75 89.75 L 14.25 90.25 L 16 88.5 L 17.75 90.25 L 18.25 89.75 L 16.5 88 L 18.25 86.25 L 17.75 85.75 L 16 87.5 L 14.25 85.75 z M 30.25 85.75 L 29.75 86.25 L 31.5 88 L 29.75 89.75 L 30.25 90.25 L 32 88.5 L 33.75 90.25 L 34.25 89.75 L 32.5 88 L 34.25 86.25 L 33.75 85.75 L 32 87.5 L 30.25 85.75 z M 46.25 85.75 L 45.75 86.25 L 47.5 88 L 45.75 89.75 L 46.25 90.25 L 48 88.5 L 49.75 90.25 L 50.25 89.75 L 48.5 88 L 50.25 86.25 L 49.75 85.75 L 48 87.5 L 46.25 85.75 z M 62.25 85.75 L 61.75 86.25 L 63.5 88 L 61.75 89.75 L 62.25 90.25 L 64 88.5 L 65.75 90.25 L 66.25 89.75 L 64.5 88 L 66.25 86.25 L 65.75 85.75 L 64 87.5 L 62.25 85.75 z M 78.25 85.75 L 77.75 86.25 L 79.5 88 L 77.75 89.75 L 78.25 90.25 L 80 88.5 L 81.75 90.25 L 82.25 89.75 L 80.5 88 L 82.25 86.25 L 81.75 85.75 L 80 87.5 L 78.25 85.75 z M 94.25 85.75 L 93.75 86.25 L 95.5 88 L 93.75 89.75 L 94.25 90.25 L 96 88.5 L 97.75 90.25 L 98.25 89.75 L 96.5 88 L 98.25 86.25 L 97.75 85.75 L 96 87.5 L 94.25 85.75 z M 110.25 85.75 L 109.75 86.25 L 111.5 88 L 109.75 89.75 L 110.25 90.25 L 112 88.5 L 113.75 90.25 L 114.25 89.75 L 112.5 88 L 114.25 86.25 L 113.75 85.75 L 112 87.5 L 110.25 85.75 z M 126.25 85.75 L 125.75 86.25 L 127.5 88 L 125.75 89.75 L 126.25 90.25 L 128 88.5 L 128 87.5 L 126.25 85.75 z M 6.25 93.75 L 5.75 94.25 L 7.5 96 L 5.75 97.75 L 6.25 98.25 L 8 96.5 L 9.75 98.25 L 10.25 97.75 L 8.5 96 L 10.25 94.25 L 9.75 93.75 L 8 95.5 L 6.25 93.75 z M 22.25 93.75 L 21.75 94.25 L 23.5 96 L 21.75 97.75 L 22.25 98.25 L 24 96.5 L 25.75 98.25 L 26.25 97.75 L 24.5 96 L 26.25 94.25 L 25.75 93.75 L 24 95.5 L 22.25 93.75 z M 38.25 93.75 L 37.75 94.25 L 39.5 96 L 37.75 97.75 L 38.25 98.25 L 40 96.5 L 41.75 98.25 L 42.25 97.75 L 40.5 96 L 42.25 94.25 L 41.75 93.75 L 40 95.5 L 38.25 93.75 z M 54.25 93.75 L 53.75 94.25 L 55.5 96 L 53.75 97.75 L 54.25 98.25 L 56 96.5 L 57.75 98.25 L 58.25 97.75 L 56.5 96 L 58.25 94.25 L 57.75 93.75 L 56 95.5 L 54.25 93.75 z M 70.25 93.75 L 69.75 94.25 L 71.5 96 L 69.75 97.75 L 70.25 98.25 L 72 96.5 L 73.75 98.25 L 74.25 97.75 L 72.5 96 L 74.25 94.25 L 73.75 93.75 L 72 95.5 L 70.25 93.75 z M 86.25 93.75 L 85.75 94.25 L 87.5 96 L 85.75 97.75 L 86.25 98.25 L 88 96.5 L 89.75 98.25 L 90.25 97.75 L 88.5 96 L 90.25 94.25 L 89.75 93.75 L 88 95.5 L 86.25 93.75 z M 102.25 93.75 L 101.75 94.25 L 103.5 96 L 101.75 97.75 L 102.25 98.25 L 104 96.5 L 105.75 98.25 L 106.25 97.75 L 104.5 96 L 106.25 94.25 L 105.75 93.75 L 104 95.5 L 102.25 93.75 z M 118.25 93.75 L 117.75 94.25 L 119.5 96 L 117.75 97.75 L 118.25 98.25 L 120 96.5 L 121.75 98.25 L 122.25 97.75 L 120.5 96 L 122.25 94.25 L 121.75 93.75 L 120 95.5 L 118.25 93.75 z M 1.75 101.75 L 0 103.5 L 0 104.5 L 1.75 106.25 L 2.25 105.75 L 0.5 104 L 2.25 102.25 L 1.75 101.75 z M 14.25 101.75 L 13.75 102.25 L 15.5 104 L 13.75 105.75 L 14.25 106.25 L 16 104.5 L 17.75 106.25 L 18.25 105.75 L 16.5 104 L 18.25 102.25 L 17.75 101.75 L 16 103.5 L 14.25 101.75 z M 30.25 101.75 L 29.75 102.25 L 31.5 104 L 29.75 105.75 L 30.25 106.25 L 32 104.5 L 33.75 106.25 L 34.25 105.75 L 32.5 104 L 34.25 102.25 L 33.75 101.75 L 32 103.5 L 30.25 101.75 z M 46.25 101.75 L 45.75 102.25 L 47.5 104 L 45.75 105.75 L 46.25 106.25 L 48 104.5 L 49.75 106.25 L 50.25 105.75 L 48.5 104 L 50.25 102.25 L 49.75 101.75 L 48 103.5 L 46.25 101.75 z M 62.25 101.75 L 61.75 102.25 L 63.5 104 L 61.75 105.75 L 62.25 106.25 L 64 104.5 L 65.75 106.25 L 66.25 105.75 L 64.5 104 L 66.25 102.25 L 65.75 101.75 L 64 103.5 L 62.25 101.75 z M 78.25 101.75 L 77.75 102.25 L 79.5 104 L 77.75 105.75 L 78.25 106.25 L 80 104.5 L 81.75 106.25 L 82.25 105.75 L 80.5 104 L 82.25 102.25 L 81.75 101.75 L 80 103.5 L 78.25 101.75 z M 94.25 101.75 L 93.75 102.25 L 95.5 104 L 93.75 105.75 L 94.25 106.25 L 96 104.5 L 97.75 106.25 L 98.25 105.75 L 96.5 104 L 98.25 102.25 L 97.75 101.75 L 96 103.5 L 94.25 101.75 z M 110.25 101.75 L 109.75 102.25 L 111.5 104 L 109.75 105.75 L 110.25 106.25 L 112 104.5 L 113.75 106.25 L 114.25 105.75 L 112.5 104 L 114.25 102.25 L 113.75 101.75 L 112 103.5 L 110.25 101.75 z M 126.25 101.75 L 125.75 102.25 L 127.5 104 L 125.75 105.75 L 126.25 106.25 L 128 104.5 L 128 103.5 L 126.25 101.75 z M 6.25 109.75 L 5.75 110.25 L 7.5 112 L 5.75 113.75 L 6.25 114.25 L 8 112.5 L 9.75 114.25 L 10.25 113.75 L 8.5 112 L 10.25 110.25 L 9.75 109.75 L 8 111.5 L 6.25 109.75 z M 22.25 109.75 L 21.75 110.25 L 23.5 112 L 21.75 113.75 L 22.25 114.25 L 24 112.5 L 25.75 114.25 L 26.25 113.75 L 24.5 112 L 26.25 110.25 L 25.75 109.75 L 24 111.5 L 22.25 109.75 z M 38.25 109.75 L 37.75 110.25 L 39.5 112 L 37.75 113.75 L 38.25 114.25 L 40 112.5 L 41.75 114.25 L 42.25 113.75 L 40.5 112 L 42.25 110.25 L 41.75 109.75 L 40 111.5 L 38.25 109.75 z M 54.25 109.75 L 53.75 110.25 L 55.5 112 L 53.75 113.75 L 54.25 114.25 L 56 112.5 L 57.75 114.25 L 58.25 113.75 L 56.5 112 L 58.25 110.25 L 57.75 109.75 L 56 111.5 L 54.25 109.75 z M 70.25 109.75 L 69.75 110.25 L 71.5 112 L 69.75 113.75 L 70.25 114.25 L 72 112.5 L 73.75 114.25 L 74.25 113.75 L 72.5 112 L 74.25 110.25 L 73.75 109.75 L 72 111.5 L 70.25 109.75 z M 86.25 109.75 L 85.75 110.25 L 87.5 112 L 85.75 113.75 L 86.25 114.25 L 88 112.5 L 89.75 114.25 L 90.25 113.75 L 88.5 112 L 90.25 110.25 L 89.75 109.75 L 88 111.5 L 86.25 109.75 z M 102.25 109.75 L 101.75 110.25 L 103.5 112 L 101.75 113.75 L 102.25 114.25 L 104 112.5 L 105.75 114.25 L 106.25 113.75 L 104.5 112 L 106.25 110.25 L 105.75 109.75 L 104 111.5 L 102.25 109.75 z M 118.25 109.75 L 117.75 110.25 L 119.5 112 L 117.75 113.75 L 118.25 114.25 L 120 112.5 L 121.75 114.25 L 122.25 113.75 L 120.5 112 L 122.25 110.25 L 121.75 109.75 L 120 111.5 L 118.25 109.75 z M 1.75 117.75 L 0 119.5 L 0 120.5 L 1.75 122.25 L 2.25 121.75 L 0.5 120 L 2.25 118.25 L 1.75 117.75 z M 14.25 117.75 L 13.75 118.25 L 15.5 120 L 13.75 121.75 L 14.25 122.25 L 16 120.5 L 17.75 122.25 L 18.25 121.75 L 16.5 120 L 18.25 118.25 L 17.75 117.75 L 16 119.5 L 14.25 117.75 z M 30.25 117.75 L 29.75 118.25 L 31.5 120 L 29.75 121.75 L 30.25 122.25 L 32 120.5 L 33.75 122.25 L 34.25 121.75 L 32.5 120 L 34.25 118.25 L 33.75 117.75 L 32 119.5 L 30.25 117.75 z M 46.25 117.75 L 45.75 118.25 L 47.5 120 L 45.75 121.75 L 46.25 122.25 L 48 120.5 L 49.75 122.25 L 50.25 121.75 L 48.5 120 L 50.25 118.25 L 49.75 117.75 L 48 119.5 L 46.25 117.75 z M 62.25 117.75 L 61.75 118.25 L 63.5 120 L 61.75 121.75 L 62.25 122.25 L 64 120.5 L 65.75 122.25 L 66.25 121.75 L 64.5 120 L 66.25 118.25 L 65.75 117.75 L 64 119.5 L 62.25 117.75 z M 78.25 117.75 L 77.75 118.25 L 79.5 120 L 77.75 121.75 L 78.25 122.25 L 80 120.5 L 81.75 122.25 L 82.25 121.75 L 80.5 120 L 82.25 118.25 L 81.75 117.75 L 80 119.5 L 78.25 117.75 z M 94.25 117.75 L 93.75 118.25 L 95.5 120 L 93.75 121.75 L 94.25 122.25 L 96 120.5 L 97.75 122.25 L 98.25 121.75 L 96.5 120 L 98.25 118.25 L 97.75 117.75 L 96 119.5 L 94.25 117.75 z M 110.25 117.75 L 109.75 118.25 L 111.5 120 L 109.75 121.75 L 110.25 122.25 L 112 120.5 L 113.75 122.25 L 114.25 121.75 L 112.5 120 L 114.25 118.25 L 113.75 117.75 L 112 119.5 L 110.25 117.75 z M 126.25 117.75 L 125.75 118.25 L 127.5 120 L 125.75 121.75 L 126.25 122.25 L 128 120.5 L 128 119.5 L 126.25 117.75 z M 6.25 125.75 L 5.75 126.25 L 7.5 128 L 8.5 128 L 10.25 126.25 L 9.75 125.75 L 8 127.5 L 6.25 125.75 z M 22.25 125.75 L 21.75 126.25 L 23.5 128 L 24.5 128 L 26.25 126.25 L 25.75 125.75 L 24 127.5 L 22.25 125.75 z M 38.25 125.75 L 37.75 126.25 L 39.5 128 L 40.5 128 L 42.25 126.25 L 41.75 125.75 L 40 127.5 L 38.25 125.75 z M 54.25 125.75 L 53.75 126.25 L 55.5 128 L 56.5 128 L 58.25 126.25 L 57.75 125.75 L 56 127.5 L 54.25 125.75 z M 70.25 125.75 L 69.75 126.25 L 71.5 128 L 72.5 128 L 74.25 126.25 L 73.75 125.75 L 72 127.5 L 70.25 125.75 z M 86.25 125.75 L 85.75 126.25 L 87.5 128 L 88.5 128 L 90.25 126.25 L 89.75 125.75 L 88 127.5 L 86.25 125.75 z M 102.25 125.75 L 101.75 126.25 L 103.5 128 L 104.5 128 L 106.25 126.25 L 105.75 125.75 L 104 127.5 L 102.25 125.75 z M 118.25 125.75 L 117.75 126.25 L 119.5 128 L 120.5 128 L 122.25 126.25 L 121.75 125.75 L 120 127.5 L 118.25 125.75 z " style="fill:#c9d285" />
  <rect
     style="fill:none;fill-opacity:1;stroke:none"
     id="rect8566"
     y="0"
     x="0"
     rx="0"
     height="128"
     width="128" />
  <desc
     id="desc590">Created with Snap</desc>
</svg>
