<?xml version="1.0" encoding="UTF-8" standalone="no"?>
<svg
   id="Svg"
   width="128"
   height="128"
   version="1.1"
   xmlns="http://www.w3.org/2000/svg"
   xmlns:svg="http://www.w3.org/2000/svg">
  <defs
     id="defs12" />
  <path
     id="path3703"
     style="fill:#c9d285;fill-opacity:1"
     d="M 6.9277344 0 C 6.9761765 0.32453344 6.9987344 0.67970813 7 1.1894531 C 7.000244 1.2877531 7 1.39062 7 1.5 L 7 4 L 8 4 L 8 1.5 L 8 1.4667969 L 8 1 C 8 1 8.6340807 0.53052909 9.1972656 0 L 8.2363281 0 C 8.1665814 0.053071457 8.0925435 0.097856419 8.0253906 0.15039062 C 8.0301266 0.087069379 8.0466672 0.05858592 8.0527344 0 L 6.9277344 0 z M 22.927734 0 C 22.976176 0.32453344 22.998734 0.67970813 23 1.1894531 C 23.000244 1.2877531 23 1.39062 23 1.5 L 23 4 L 24 4 L 24 1.5 L 24 1.4667969 L 24 1 C 24 1 24.634081 0.53052909 25.197266 0 L 24.236328 0 C 24.166581 0.053071457 24.092544 0.097856419 24.025391 0.15039062 C 24.030127 0.087069379 24.046667 0.05858592 24.052734 0 L 22.927734 0 z M 38.927734 0 C 38.976176 0.32453344 38.998734 0.67970813 39 1.1894531 C 39.000244 1.2877531 39 1.39062 39 1.5 L 39 4 L 40 4 L 40 1.5 L 40 1.4667969 L 40 1 C 40 1 40.634081 0.53052909 41.197266 0 L 40.236328 0 C 40.166581 0.053071457 40.092544 0.097856419 40.025391 0.15039062 C 40.030127 0.087069379 40.046667 0.05858592 40.052734 0 L 38.927734 0 z M 54.927734 0 C 54.976176 0.32453344 54.998734 0.67970813 55 1.1894531 C 55.000244 1.2877531 55 1.39062 55 1.5 L 55 4 L 56 4 L 56 1.5 L 56 1.4667969 L 56 1 C 56 1 56.634081 0.53052909 57.197266 0 L 56.236328 0 C 56.166581 0.053071457 56.092544 0.097856419 56.025391 0.15039062 C 56.030127 0.087069379 56.046667 0.05858592 56.052734 0 L 54.927734 0 z M 70.927734 0 C 70.976176 0.32453344 70.998734 0.67970813 71 1.1894531 C 71.000244 1.2877531 71 1.39062 71 1.5 L 71 4 L 72 4 L 72 1.5 L 72 1.4667969 L 72 1 C 72 1 72.634081 0.53052909 73.197266 0 L 72.236328 0 C 72.166581 0.053071457 72.092544 0.097856419 72.025391 0.15039062 C 72.030127 0.087069379 72.046667 0.05858592 72.052734 0 L 70.927734 0 z M 86.927734 0 C 86.976176 0.32453344 86.998734 0.67970813 87 1.1894531 C 87.000244 1.2877531 87 1.39062 87 1.5 L 87 4 L 88 4 L 88 1.5 L 88 1.4667969 L 88 1 C 88 1 88.634081 0.53052909 89.197266 0 L 88.236328 0 C 88.166581 0.053071457 88.092544 0.097856419 88.025391 0.15039062 C 88.030127 0.087069379 88.046667 0.05858592 88.052734 0 L 86.927734 0 z M 102.92773 0 C 102.97618 0.32453344 102.99874 0.67970813 103 1.1894531 C 103.00024 1.2877531 103 1.39062 103 1.5 L 103 4 L 104 4 L 104 1.5 L 104 1.4667969 L 104 1 C 104 1 104.63408 0.53052909 105.19727 0 L 104.23633 0 C 104.16658 0.053071457 104.09254 0.097856419 104.02539 0.15039062 C 104.03013 0.087069379 104.04667 0.05858592 104.05273 0 L 102.92773 0 z M 118.92773 0 C 118.97618 0.32453344 118.99874 0.67970813 119 1.1894531 C 119.00024 1.2877531 119 1.39062 119 1.5 L 119 4 L 120 4 L 120 1.5 L 120 1.4667969 L 120 1 C 120 1 120.63408 0.53052909 121.19727 0 L 120.23633 0 C 120.16658 0.053071457 120.09254 0.097856419 120.02539 0.15039062 C 120.03013 0.087069379 120.04667 0.05858592 120.05273 0 L 118.92773 0 z M 2 5 C 1.0698569 5.1691142 0.44495365 5.6908656 0 6.2949219 L 0 9 C 0 9 1.75 7.75 2 7 C 1.587321 7 0.72163863 7.6057106 0.025390625 8.1503906 C 0.14645963 6.5316806 0.696098 6.52122 2 5 z M 18 5 C 16.610733 5.25259 15.86032 6.2709669 15.457031 7.2167969 C 15.161423 6.6610469 14.704108 6.17603 14 6 C 14.9375 7.40625 14.996338 7.7145431 15 9.1894531 C 15.000244 9.2877531 15 9.39062 15 9.5 L 15 12 L 16 12 L 16 9.5 L 16 9.4667969 L 16 9 C 16 9 17.75 7.75 18 7 C 17.587321 7 16.721639 7.6057106 16.025391 8.1503906 C 16.14646 6.5316806 16.696098 6.52122 18 5 z M 34 5 C 32.610733 5.25259 31.86032 6.2709669 31.457031 7.2167969 C 31.161423 6.6610469 30.704108 6.17603 30 6 C 30.9375 7.40625 30.996338 7.7145431 31 9.1894531 C 31.000244 9.2877531 31 9.39062 31 9.5 L 31 12 L 32 12 L 32 9.5 L 32 9.4667969 L 32 9 C 32 9 33.75 7.75 34 7 C 33.587321 7 32.721639 7.6057106 32.025391 8.1503906 C 32.14646 6.5316806 32.696098 6.52122 34 5 z M 50 5 C 48.610733 5.25259 47.86032 6.2709669 47.457031 7.2167969 C 47.161423 6.6610469 46.704108 6.17603 46 6 C 46.9375 7.40625 46.996338 7.7145431 47 9.1894531 C 47.000244 9.2877531 47 9.39062 47 9.5 L 47 12 L 48 12 L 48 9.5 L 48 9.4667969 L 48 9 C 48 9 49.75 7.75 50 7 C 49.587321 7 48.721639 7.6057106 48.025391 8.1503906 C 48.14646 6.5316806 48.696098 6.52122 50 5 z M 66 5 C 64.610733 5.25259 63.86032 6.2709669 63.457031 7.2167969 C 63.161423 6.6610469 62.704108 6.17603 62 6 C 62.9375 7.40625 62.996338 7.7145431 63 9.1894531 C 63.000244 9.2877531 63 9.39062 63 9.5 L 63 12 L 64 12 L 64 9.5 L 64 9.4667969 L 64 9 C 64 9 65.75 7.75 66 7 C 65.587321 7 64.721639 7.6057106 64.025391 8.1503906 C 64.14646 6.5316806 64.696098 6.52122 66 5 z M 82 5 C 80.610733 5.25259 79.86032 6.2709669 79.457031 7.2167969 C 79.161423 6.6610469 78.704108 6.17603 78 6 C 78.9375 7.40625 78.996338 7.7145431 79 9.1894531 C 79.000244 9.2877531 79 9.39062 79 9.5 L 79 12 L 80 12 L 80 9.5 L 80 9.4667969 L 80 9 C 80 9 81.75 7.75 82 7 C 81.587321 7 80.721639 7.6057106 80.025391 8.1503906 C 80.14646 6.5316806 80.696098 6.52122 82 5 z M 98 5 C 96.610733 5.25259 95.86032 6.2709669 95.457031 7.2167969 C 95.161423 6.6610469 94.704108 6.17603 94 6 C 94.9375 7.40625 94.996338 7.7145431 95 9.1894531 C 95.000244 9.2877531 95 9.39062 95 9.5 L 95 12 L 96 12 L 96 9.5 L 96 9.4667969 L 96 9 C 96 9 97.75 7.75 98 7 C 97.587321 7 96.721639 7.6057106 96.025391 8.1503906 C 96.14646 6.5316806 96.696098 6.52122 98 5 z M 114 5 C 112.61073 5.25259 111.86032 6.2709669 111.45703 7.2167969 C 111.16142 6.6610469 110.70411 6.17603 110 6 C 110.9375 7.40625 110.99634 7.7145431 111 9.1894531 C 111.00024 9.2877531 111 9.39062 111 9.5 L 111 12 L 112 12 L 112 9.5 L 112 9.4667969 L 112 9 C 112 9 113.75 7.75 114 7 C 113.58732 7 112.72164 7.6057106 112.02539 8.1503906 C 112.14646 6.5316806 112.6961 6.52122 114 5 z M 126 6 C 126.9375 7.40625 126.99634 7.7145431 127 9.1894531 C 127.00024 9.2877531 127 9.39062 127 9.5 L 127 12 L 128 12 L 128 9.4667969 L 128 9 L 128 6.2949219 C 127.78037 6.5930875 127.59031 6.9042197 127.45703 7.2167969 C 127.16142 6.6610469 126.70411 6.17603 126 6 z M 10 13 C 8.610733 13.25259 7.8603203 14.270967 7.4570312 15.216797 C 7.1614233 14.661047 6.704108 14.17603 6 14 C 6.9375 15.40625 6.996338 15.714543 7 17.189453 C 7.000244 17.287753 7 17.39062 7 17.5 L 7 20 L 8 20 L 8 17.5 L 8 17.466797 L 8 17 C 8 17 9.75 15.75 10 15 C 9.587321 15 8.7216386 15.605711 8.0253906 16.150391 C 8.1464596 14.531681 8.696098 14.52122 10 13 z M 26 13 C 24.610733 13.25259 23.86032 14.270967 23.457031 15.216797 C 23.161423 14.661047 22.704108 14.17603 22 14 C 22.9375 15.40625 22.996338 15.714543 23 17.189453 C 23.000244 17.287753 23 17.39062 23 17.5 L 23 20 L 24 20 L 24 17.5 L 24 17.466797 L 24 17 C 24 17 25.75 15.75 26 15 C 25.587321 15 24.721639 15.605711 24.025391 16.150391 C 24.14646 14.531681 24.696098 14.52122 26 13 z M 42 13 C 40.610733 13.25259 39.86032 14.270967 39.457031 15.216797 C 39.161423 14.661047 38.704108 14.17603 38 14 C 38.9375 15.40625 38.996338 15.714543 39 17.189453 C 39.000244 17.287753 39 17.39062 39 17.5 L 39 20 L 40 20 L 40 17.5 L 40 17.466797 L 40 17 C 40 17 41.75 15.75 42 15 C 41.587321 15 40.721639 15.605711 40.025391 16.150391 C 40.14646 14.531681 40.696098 14.52122 42 13 z M 58 13 C 56.610733 13.25259 55.86032 14.270967 55.457031 15.216797 C 55.161423 14.661047 54.704108 14.17603 54 14 C 54.9375 15.40625 54.996338 15.714543 55 17.189453 C 55.000244 17.287753 55 17.39062 55 17.5 L 55 20 L 56 20 L 56 17.5 L 56 17.466797 L 56 17 C 56 17 57.75 15.75 58 15 C 57.587321 15 56.721639 15.605711 56.025391 16.150391 C 56.14646 14.531681 56.696098 14.52122 58 13 z M 74 13 C 72.610733 13.25259 71.86032 14.270967 71.457031 15.216797 C 71.161423 14.661047 70.704108 14.17603 70 14 C 70.9375 15.40625 70.996338 15.714543 71 17.189453 C 71.000244 17.287753 71 17.39062 71 17.5 L 71 20 L 72 20 L 72 17.5 L 72 17.466797 L 72 17 C 72 17 73.75 15.75 74 15 C 73.587321 15 72.721639 15.605711 72.025391 16.150391 C 72.14646 14.531681 72.696098 14.52122 74 13 z M 90 13 C 88.610733 13.25259 87.86032 14.270967 87.457031 15.216797 C 87.161423 14.661047 86.704108 14.17603 86 14 C 86.9375 15.40625 86.996338 15.714543 87 17.189453 C 87.000244 17.287753 87 17.39062 87 17.5 L 87 20 L 88 20 L 88 17.5 L 88 17.466797 L 88 17 C 88 17 89.75 15.75 90 15 C 89.587321 15 88.721639 15.605711 88.025391 16.150391 C 88.14646 14.531681 88.696098 14.52122 90 13 z M 106 13 C 104.61073 13.25259 103.86032 14.270967 103.45703 15.216797 C 103.16142 14.661047 102.70411 14.17603 102 14 C 102.9375 15.40625 102.99634 15.714543 103 17.189453 C 103.00024 17.287753 103 17.39062 103 17.5 L 103 20 L 104 20 L 104 17.5 L 104 17.466797 L 104 17 C 104 17 105.75 15.75 106 15 C 105.58732 15 104.72164 15.605711 104.02539 16.150391 C 104.14646 14.531681 104.6961 14.52122 106 13 z M 122 13 C 120.61073 13.25259 119.86032 14.270967 119.45703 15.216797 C 119.16142 14.661047 118.70411 14.17603 118 14 C 118.9375 15.40625 118.99634 15.714543 119 17.189453 C 119.00024 17.287753 119 17.39062 119 17.5 L 119 20 L 120 20 L 120 17.5 L 120 17.466797 L 120 17 C 120 17 121.75 15.75 122 15 C 121.58732 15 120.72164 15.605711 120.02539 16.150391 C 120.14646 14.531681 120.6961 14.52122 122 13 z M 2 21 C 1.0698569 21.169114 0.44495365 21.690866 0 22.294922 L 0 25 C 0 25 1.75 23.75 2 23 C 1.587321 23 0.72163863 23.605711 0.025390625 24.150391 C 0.14645963 22.531681 0.696098 22.52122 2 21 z M 18 21 C 16.610733 21.25259 15.86032 22.270967 15.457031 23.216797 C 15.161423 22.661047 14.704108 22.17603 14 22 C 14.9375 23.40625 14.996338 23.714543 15 25.189453 C 15.000244 25.287753 15 25.39062 15 25.5 L 15 28 L 16 28 L 16 25.5 L 16 25.466797 L 16 25 C 16 25 17.75 23.75 18 23 C 17.587321 23 16.721639 23.605711 16.025391 24.150391 C 16.14646 22.531681 16.696098 22.52122 18 21 z M 34 21 C 32.610733 21.25259 31.86032 22.270967 31.457031 23.216797 C 31.161423 22.661047 30.704108 22.17603 30 22 C 30.9375 23.40625 30.996338 23.714543 31 25.189453 C 31.000244 25.287753 31 25.39062 31 25.5 L 31 28 L 32 28 L 32 25.5 L 32 25.466797 L 32 25 C 32 25 33.75 23.75 34 23 C 33.587321 23 32.721639 23.605711 32.025391 24.150391 C 32.14646 22.531681 32.696098 22.52122 34 21 z M 50 21 C 48.610733 21.25259 47.86032 22.270967 47.457031 23.216797 C 47.161423 22.661047 46.704108 22.17603 46 22 C 46.9375 23.40625 46.996338 23.714543 47 25.189453 C 47.000244 25.287753 47 25.39062 47 25.5 L 47 28 L 48 28 L 48 25.5 L 48 25.466797 L 48 25 C 48 25 49.75 23.75 50 23 C 49.587321 23 48.721639 23.605711 48.025391 24.150391 C 48.14646 22.531681 48.696098 22.52122 50 21 z M 66 21 C 64.610733 21.25259 63.86032 22.270967 63.457031 23.216797 C 63.161423 22.661047 62.704108 22.17603 62 22 C 62.9375 23.40625 62.996338 23.714543 63 25.189453 C 63.000244 25.287753 63 25.39062 63 25.5 L 63 28 L 64 28 L 64 25.5 L 64 25.466797 L 64 25 C 64 25 65.75 23.75 66 23 C 65.587321 23 64.721639 23.605711 64.025391 24.150391 C 64.14646 22.531681 64.696098 22.52122 66 21 z M 82 21 C 80.610733 21.25259 79.86032 22.270967 79.457031 23.216797 C 79.161423 22.661047 78.704108 22.17603 78 22 C 78.9375 23.40625 78.996338 23.714543 79 25.189453 C 79.000244 25.287753 79 25.39062 79 25.5 L 79 28 L 80 28 L 80 25.5 L 80 25.466797 L 80 25 C 80 25 81.75 23.75 82 23 C 81.587321 23 80.721639 23.605711 80.025391 24.150391 C 80.14646 22.531681 80.696098 22.52122 82 21 z M 98 21 C 96.610733 21.25259 95.86032 22.270967 95.457031 23.216797 C 95.161423 22.661047 94.704108 22.17603 94 22 C 94.9375 23.40625 94.996338 23.714543 95 25.189453 C 95.000244 25.287753 95 25.39062 95 25.5 L 95 28 L 96 28 L 96 25.5 L 96 25.466797 L 96 25 C 96 25 97.75 23.75 98 23 C 97.587321 23 96.721639 23.605711 96.025391 24.150391 C 96.14646 22.531681 96.696098 22.52122 98 21 z M 114 21 C 112.61073 21.25259 111.86032 22.270967 111.45703 23.216797 C 111.16142 22.661047 110.70411 22.17603 110 22 C 110.9375 23.40625 110.99634 23.714543 111 25.189453 C 111.00024 25.287753 111 25.39062 111 25.5 L 111 28 L 112 28 L 112 25.5 L 112 25.466797 L 112 25 C 112 25 113.75 23.75 114 23 C 113.58732 23 112.72164 23.605711 112.02539 24.150391 C 112.14646 22.531681 112.6961 22.52122 114 21 z M 126 22 C 126.9375 23.40625 126.99634 23.714543 127 25.189453 C 127.00024 25.287753 127 25.39062 127 25.5 L 127 28 L 128 28 L 128 25.466797 L 128 25 L 128 22.294922 C 127.78037 22.593088 127.59031 22.90422 127.45703 23.216797 C 127.16142 22.661047 126.70411 22.17603 126 22 z M 10 29 C 8.610733 29.25259 7.8603203 30.270967 7.4570312 31.216797 C 7.1614233 30.661047 6.704108 30.17603 6 30 C 6.9375 31.40625 6.996338 31.714543 7 33.189453 C 7.000244 33.287753 7 33.39062 7 33.5 L 7 36 L 8 36 L 8 33.5 L 8 33.466797 L 8 33 C 8 33 9.75 31.75 10 31 C 9.587321 31 8.7216386 31.605711 8.0253906 32.150391 C 8.1464596 30.531681 8.696098 30.52122 10 29 z M 26 29 C 24.610733 29.25259 23.86032 30.270967 23.457031 31.216797 C 23.161423 30.661047 22.704108 30.17603 22 30 C 22.9375 31.40625 22.996338 31.714543 23 33.189453 C 23.000244 33.287753 23 33.39062 23 33.5 L 23 36 L 24 36 L 24 33.5 L 24 33.466797 L 24 33 C 24 33 25.75 31.75 26 31 C 25.587321 31 24.721639 31.605711 24.025391 32.150391 C 24.14646 30.531681 24.696098 30.52122 26 29 z M 42 29 C 40.610733 29.25259 39.86032 30.270967 39.457031 31.216797 C 39.161423 30.661047 38.704108 30.17603 38 30 C 38.9375 31.40625 38.996338 31.714543 39 33.189453 C 39.000244 33.287753 39 33.39062 39 33.5 L 39 36 L 40 36 L 40 33.5 L 40 33.466797 L 40 33 C 40 33 41.75 31.75 42 31 C 41.587321 31 40.721639 31.605711 40.025391 32.150391 C 40.14646 30.531681 40.696098 30.52122 42 29 z M 58 29 C 56.610733 29.25259 55.86032 30.270967 55.457031 31.216797 C 55.161423 30.661047 54.704108 30.17603 54 30 C 54.9375 31.40625 54.996338 31.714543 55 33.189453 C 55.000244 33.287753 55 33.39062 55 33.5 L 55 36 L 56 36 L 56 33.5 L 56 33.466797 L 56 33 C 56 33 57.75 31.75 58 31 C 57.587321 31 56.721639 31.605711 56.025391 32.150391 C 56.14646 30.531681 56.696098 30.52122 58 29 z M 74 29 C 72.610733 29.25259 71.86032 30.270967 71.457031 31.216797 C 71.161423 30.661047 70.704108 30.17603 70 30 C 70.9375 31.40625 70.996338 31.714543 71 33.189453 C 71.000244 33.287753 71 33.39062 71 33.5 L 71 36 L 72 36 L 72 33.5 L 72 33.466797 L 72 33 C 72 33 73.75 31.75 74 31 C 73.587321 31 72.721639 31.605711 72.025391 32.150391 C 72.14646 30.531681 72.696098 30.52122 74 29 z M 90 29 C 88.610733 29.25259 87.86032 30.270967 87.457031 31.216797 C 87.161423 30.661047 86.704108 30.17603 86 30 C 86.9375 31.40625 86.996338 31.714543 87 33.189453 C 87.000244 33.287753 87 33.39062 87 33.5 L 87 36 L 88 36 L 88 33.5 L 88 33.466797 L 88 33 C 88 33 89.75 31.75 90 31 C 89.587321 31 88.721639 31.605711 88.025391 32.150391 C 88.14646 30.531681 88.696098 30.52122 90 29 z M 106 29 C 104.61073 29.25259 103.86032 30.270967 103.45703 31.216797 C 103.16142 30.661047 102.70411 30.17603 102 30 C 102.9375 31.40625 102.99634 31.714543 103 33.189453 C 103.00024 33.287753 103 33.39062 103 33.5 L 103 36 L 104 36 L 104 33.5 L 104 33.466797 L 104 33 C 104 33 105.75 31.75 106 31 C 105.58732 31 104.72164 31.605711 104.02539 32.150391 C 104.14646 30.531681 104.6961 30.52122 106 29 z M 122 29 C 120.61073 29.25259 119.86032 30.270967 119.45703 31.216797 C 119.16142 30.661047 118.70411 30.17603 118 30 C 118.9375 31.40625 118.99634 31.714543 119 33.189453 C 119.00024 33.287753 119 33.39062 119 33.5 L 119 36 L 120 36 L 120 33.5 L 120 33.466797 L 120 33 C 120 33 121.75 31.75 122 31 C 121.58732 31 120.72164 31.605711 120.02539 32.150391 C 120.14646 30.531681 120.6961 30.52122 122 29 z M 2 37 C 1.0698569 37.169114 0.44495365 37.690866 0 38.294922 L 0 41 C 0 41 1.75 39.75 2 39 C 1.587321 39 0.72163863 39.605711 0.025390625 40.150391 C 0.14645963 38.531681 0.696098 38.52122 2 37 z M 18 37 C 16.610733 37.25259 15.86032 38.270967 15.457031 39.216797 C 15.161423 38.661047 14.704108 38.17603 14 38 C 14.9375 39.40625 14.996338 39.714543 15 41.189453 C 15.000244 41.287753 15 41.39062 15 41.5 L 15 44 L 16 44 L 16 41.5 L 16 41.466797 L 16 41 C 16 41 17.75 39.75 18 39 C 17.587321 39 16.721639 39.605711 16.025391 40.150391 C 16.14646 38.531681 16.696098 38.52122 18 37 z M 34 37 C 32.610733 37.25259 31.86032 38.270967 31.457031 39.216797 C 31.161423 38.661047 30.704108 38.17603 30 38 C 30.9375 39.40625 30.996338 39.714543 31 41.189453 C 31.000244 41.287753 31 41.39062 31 41.5 L 31 44 L 32 44 L 32 41.5 L 32 41.466797 L 32 41 C 32 41 33.75 39.75 34 39 C 33.587321 39 32.721639 39.605711 32.025391 40.150391 C 32.14646 38.531681 32.696098 38.52122 34 37 z M 50 37 C 48.610733 37.25259 47.86032 38.270967 47.457031 39.216797 C 47.161423 38.661047 46.704108 38.17603 46 38 C 46.9375 39.40625 46.996338 39.714543 47 41.189453 C 47.000244 41.287753 47 41.39062 47 41.5 L 47 44 L 48 44 L 48 41.5 L 48 41.466797 L 48 41 C 48 41 49.75 39.75 50 39 C 49.587321 39 48.721639 39.605711 48.025391 40.150391 C 48.14646 38.531681 48.696098 38.52122 50 37 z M 66 37 C 64.610733 37.25259 63.86032 38.270967 63.457031 39.216797 C 63.161423 38.661047 62.704108 38.17603 62 38 C 62.9375 39.40625 62.996338 39.714543 63 41.189453 C 63.000244 41.287753 63 41.39062 63 41.5 L 63 44 L 64 44 L 64 41.5 L 64 41.466797 L 64 41 C 64 41 65.75 39.75 66 39 C 65.587321 39 64.721639 39.605711 64.025391 40.150391 C 64.14646 38.531681 64.696098 38.52122 66 37 z M 82 37 C 80.610733 37.25259 79.86032 38.270967 79.457031 39.216797 C 79.161423 38.661047 78.704108 38.17603 78 38 C 78.9375 39.40625 78.996338 39.714543 79 41.189453 C 79.000244 41.287753 79 41.39062 79 41.5 L 79 44 L 80 44 L 80 41.5 L 80 41.466797 L 80 41 C 80 41 81.75 39.75 82 39 C 81.587321 39 80.721639 39.605711 80.025391 40.150391 C 80.14646 38.531681 80.696098 38.52122 82 37 z M 98 37 C 96.610733 37.25259 95.86032 38.270967 95.457031 39.216797 C 95.161423 38.661047 94.704108 38.17603 94 38 C 94.9375 39.40625 94.996338 39.714543 95 41.189453 C 95.000244 41.287753 95 41.39062 95 41.5 L 95 44 L 96 44 L 96 41.5 L 96 41.466797 L 96 41 C 96 41 97.75 39.75 98 39 C 97.587321 39 96.721639 39.605711 96.025391 40.150391 C 96.14646 38.531681 96.696098 38.52122 98 37 z M 114 37 C 112.61073 37.25259 111.86032 38.270967 111.45703 39.216797 C 111.16142 38.661047 110.70411 38.17603 110 38 C 110.9375 39.40625 110.99634 39.714543 111 41.189453 C 111.00024 41.287753 111 41.39062 111 41.5 L 111 44 L 112 44 L 112 41.5 L 112 41.466797 L 112 41 C 112 41 113.75 39.75 114 39 C 113.58732 39 112.72164 39.605711 112.02539 40.150391 C 112.14646 38.531681 112.6961 38.52122 114 37 z M 126 38 C 126.9375 39.40625 126.99634 39.714543 127 41.189453 C 127.00024 41.287753 127 41.39062 127 41.5 L 127 44 L 128 44 L 128 41.466797 L 128 41 L 128 38.294922 C 127.78037 38.593088 127.59031 38.90422 127.45703 39.216797 C 127.16142 38.661047 126.70411 38.17603 126 38 z M 10 45 C 8.610733 45.25259 7.8603203 46.270967 7.4570312 47.216797 C 7.1614233 46.661047 6.704108 46.17603 6 46 C 6.9375 47.40625 6.996338 47.714543 7 49.189453 C 7.000244 49.287753 7 49.39062 7 49.5 L 7 52 L 8 52 L 8 49.5 L 8 49.466797 L 8 49 C 8 49 9.75 47.75 10 47 C 9.587321 47 8.7216386 47.605711 8.0253906 48.150391 C 8.1464596 46.531681 8.696098 46.52122 10 45 z M 26 45 C 24.610733 45.25259 23.86032 46.270967 23.457031 47.216797 C 23.161423 46.661047 22.704108 46.17603 22 46 C 22.9375 47.40625 22.996338 47.714543 23 49.189453 C 23.000244 49.287753 23 49.39062 23 49.5 L 23 52 L 24 52 L 24 49.5 L 24 49.466797 L 24 49 C 24 49 25.75 47.75 26 47 C 25.587321 47 24.721639 47.605711 24.025391 48.150391 C 24.14646 46.531681 24.696098 46.52122 26 45 z M 42 45 C 40.610733 45.25259 39.86032 46.270967 39.457031 47.216797 C 39.161423 46.661047 38.704108 46.17603 38 46 C 38.9375 47.40625 38.996338 47.714543 39 49.189453 C 39.000244 49.287753 39 49.39062 39 49.5 L 39 52 L 40 52 L 40 49.5 L 40 49.466797 L 40 49 C 40 49 41.75 47.75 42 47 C 41.587321 47 40.721639 47.605711 40.025391 48.150391 C 40.14646 46.531681 40.696098 46.52122 42 45 z M 58 45 C 56.610733 45.25259 55.86032 46.270967 55.457031 47.216797 C 55.161423 46.661047 54.704108 46.17603 54 46 C 54.9375 47.40625 54.996338 47.714543 55 49.189453 C 55.000244 49.287753 55 49.39062 55 49.5 L 55 52 L 56 52 L 56 49.5 L 56 49.466797 L 56 49 C 56 49 57.75 47.75 58 47 C 57.587321 47 56.721639 47.605711 56.025391 48.150391 C 56.14646 46.531681 56.696098 46.52122 58 45 z M 74 45 C 72.610733 45.25259 71.86032 46.270967 71.457031 47.216797 C 71.161423 46.661047 70.704108 46.17603 70 46 C 70.9375 47.40625 70.996338 47.714543 71 49.189453 C 71.000244 49.287753 71 49.39062 71 49.5 L 71 52 L 72 52 L 72 49.5 L 72 49.466797 L 72 49 C 72 49 73.75 47.75 74 47 C 73.587321 47 72.721639 47.605711 72.025391 48.150391 C 72.14646 46.531681 72.696098 46.52122 74 45 z M 90 45 C 88.610733 45.25259 87.86032 46.270967 87.457031 47.216797 C 87.161423 46.661047 86.704108 46.17603 86 46 C 86.9375 47.40625 86.996338 47.714543 87 49.189453 C 87.000244 49.287753 87 49.39062 87 49.5 L 87 52 L 88 52 L 88 49.5 L 88 49.466797 L 88 49 C 88 49 89.75 47.75 90 47 C 89.587321 47 88.721639 47.605711 88.025391 48.150391 C 88.14646 46.531681 88.696098 46.52122 90 45 z M 106 45 C 104.61073 45.25259 103.86032 46.270967 103.45703 47.216797 C 103.16142 46.661047 102.70411 46.17603 102 46 C 102.9375 47.40625 102.99634 47.714543 103 49.189453 C 103.00024 49.287753 103 49.39062 103 49.5 L 103 52 L 104 52 L 104 49.5 L 104 49.466797 L 104 49 C 104 49 105.75 47.75 106 47 C 105.58732 47 104.72164 47.605711 104.02539 48.150391 C 104.14646 46.531681 104.6961 46.52122 106 45 z M 122 45 C 120.61073 45.25259 119.86032 46.270967 119.45703 47.216797 C 119.16142 46.661047 118.70411 46.17603 118 46 C 118.9375 47.40625 118.99634 47.714543 119 49.189453 C 119.00024 49.287753 119 49.39062 119 49.5 L 119 52 L 120 52 L 120 49.5 L 120 49.466797 L 120 49 C 120 49 121.75 47.75 122 47 C 121.58732 47 120.72164 47.605711 120.02539 48.150391 C 120.14646 46.531681 120.6961 46.52122 122 45 z M 2 53 C 1.0698569 53.169114 0.44495365 53.690866 0 54.294922 L 0 57 C 0 57 1.75 55.75 2 55 C 1.587321 55 0.72163863 55.605711 0.025390625 56.150391 C 0.14645963 54.531681 0.696098 54.52122 2 53 z M 18 53 C 16.610733 53.25259 15.86032 54.270967 15.457031 55.216797 C 15.161423 54.661047 14.704108 54.17603 14 54 C 14.9375 55.40625 14.996338 55.714543 15 57.189453 C 15.000244 57.287753 15 57.39062 15 57.5 L 15 60 L 16 60 L 16 57.5 L 16 57.466797 L 16 57 C 16 57 17.75 55.75 18 55 C 17.587321 55 16.721639 55.605711 16.025391 56.150391 C 16.14646 54.531681 16.696098 54.52122 18 53 z M 34 53 C 32.610733 53.25259 31.86032 54.270967 31.457031 55.216797 C 31.161423 54.661047 30.704108 54.17603 30 54 C 30.9375 55.40625 30.996338 55.714543 31 57.189453 C 31.000244 57.287753 31 57.39062 31 57.5 L 31 60 L 32 60 L 32 57.5 L 32 57.466797 L 32 57 C 32 57 33.75 55.75 34 55 C 33.587321 55 32.721639 55.605711 32.025391 56.150391 C 32.14646 54.531681 32.696098 54.52122 34 53 z M 50 53 C 48.610733 53.25259 47.86032 54.270967 47.457031 55.216797 C 47.161423 54.661047 46.704108 54.17603 46 54 C 46.9375 55.40625 46.996338 55.714543 47 57.189453 C 47.000244 57.287753 47 57.39062 47 57.5 L 47 60 L 48 60 L 48 57.5 L 48 57.466797 L 48 57 C 48 57 49.75 55.75 50 55 C 49.587321 55 48.721639 55.605711 48.025391 56.150391 C 48.14646 54.531681 48.696098 54.52122 50 53 z M 66 53 C 64.610733 53.25259 63.86032 54.270967 63.457031 55.216797 C 63.161423 54.661047 62.704108 54.17603 62 54 C 62.9375 55.40625 62.996338 55.714543 63 57.189453 C 63.000244 57.287753 63 57.39062 63 57.5 L 63 60 L 64 60 L 64 57.5 L 64 57.466797 L 64 57 C 64 57 65.75 55.75 66 55 C 65.587321 55 64.721639 55.605711 64.025391 56.150391 C 64.14646 54.531681 64.696098 54.52122 66 53 z M 82 53 C 80.610733 53.25259 79.86032 54.270967 79.457031 55.216797 C 79.161423 54.661047 78.704108 54.17603 78 54 C 78.9375 55.40625 78.996338 55.714543 79 57.189453 C 79.000244 57.287753 79 57.39062 79 57.5 L 79 60 L 80 60 L 80 57.5 L 80 57.466797 L 80 57 C 80 57 81.75 55.75 82 55 C 81.587321 55 80.721639 55.605711 80.025391 56.150391 C 80.14646 54.531681 80.696098 54.52122 82 53 z M 98 53 C 96.610733 53.25259 95.86032 54.270967 95.457031 55.216797 C 95.161423 54.661047 94.704108 54.17603 94 54 C 94.9375 55.40625 94.996338 55.714543 95 57.189453 C 95.000244 57.287753 95 57.39062 95 57.5 L 95 60 L 96 60 L 96 57.5 L 96 57.466797 L 96 57 C 96 57 97.75 55.75 98 55 C 97.587321 55 96.721639 55.605711 96.025391 56.150391 C 96.14646 54.531681 96.696098 54.52122 98 53 z M 114 53 C 112.61073 53.25259 111.86032 54.270967 111.45703 55.216797 C 111.16142 54.661047 110.70411 54.17603 110 54 C 110.9375 55.40625 110.99634 55.714543 111 57.189453 C 111.00024 57.287753 111 57.39062 111 57.5 L 111 60 L 112 60 L 112 57.5 L 112 57.466797 L 112 57 C 112 57 113.75 55.75 114 55 C 113.58732 55 112.72164 55.605711 112.02539 56.150391 C 112.14646 54.531681 112.6961 54.52122 114 53 z M 126 54 C 126.9375 55.40625 126.99634 55.714543 127 57.189453 C 127.00024 57.287753 127 57.39062 127 57.5 L 127 60 L 128 60 L 128 57.466797 L 128 57 L 128 54.294922 C 127.78037 54.593088 127.59031 54.90422 127.45703 55.216797 C 127.16142 54.661047 126.70411 54.17603 126 54 z M 10 61 C 8.610733 61.25259 7.8603203 62.270967 7.4570312 63.216797 C 7.1614233 62.661047 6.704108 62.17603 6 62 C 6.9375 63.40625 6.996338 63.714543 7 65.189453 C 7.000244 65.287753 7 65.39062 7 65.5 L 7 68 L 8 68 L 8 65.5 L 8 65.466797 L 8 65 C 8 65 9.75 63.75 10 63 C 9.587321 63 8.7216386 63.605711 8.0253906 64.150391 C 8.1464596 62.531681 8.696098 62.52122 10 61 z M 26 61 C 24.610733 61.25259 23.86032 62.270967 23.457031 63.216797 C 23.161423 62.661047 22.704108 62.17603 22 62 C 22.9375 63.40625 22.996338 63.714543 23 65.189453 C 23.000244 65.287753 23 65.39062 23 65.5 L 23 68 L 24 68 L 24 65.5 L 24 65.466797 L 24 65 C 24 65 25.75 63.75 26 63 C 25.587321 63 24.721639 63.605711 24.025391 64.150391 C 24.14646 62.531681 24.696098 62.52122 26 61 z M 42 61 C 40.610733 61.25259 39.86032 62.270967 39.457031 63.216797 C 39.161423 62.661047 38.704108 62.17603 38 62 C 38.9375 63.40625 38.996338 63.714543 39 65.189453 C 39.000244 65.287753 39 65.39062 39 65.5 L 39 68 L 40 68 L 40 65.5 L 40 65.466797 L 40 65 C 40 65 41.75 63.75 42 63 C 41.587321 63 40.721639 63.605711 40.025391 64.150391 C 40.14646 62.531681 40.696098 62.52122 42 61 z M 58 61 C 56.610733 61.25259 55.86032 62.270967 55.457031 63.216797 C 55.161423 62.661047 54.704108 62.17603 54 62 C 54.9375 63.40625 54.996338 63.714543 55 65.189453 C 55.000244 65.287753 55 65.39062 55 65.5 L 55 68 L 56 68 L 56 65.5 L 56 65.466797 L 56 65 C 56 65 57.75 63.75 58 63 C 57.587321 63 56.721639 63.605711 56.025391 64.150391 C 56.14646 62.531681 56.696098 62.52122 58 61 z M 74 61 C 72.610733 61.25259 71.86032 62.270967 71.457031 63.216797 C 71.161423 62.661047 70.704108 62.17603 70 62 C 70.9375 63.40625 70.996338 63.714543 71 65.189453 C 71.000244 65.287753 71 65.39062 71 65.5 L 71 68 L 72 68 L 72 65.5 L 72 65.466797 L 72 65 C 72 65 73.75 63.75 74 63 C 73.587321 63 72.721639 63.605711 72.025391 64.150391 C 72.14646 62.531681 72.696098 62.52122 74 61 z M 90 61 C 88.610733 61.25259 87.86032 62.270967 87.457031 63.216797 C 87.161423 62.661047 86.704108 62.17603 86 62 C 86.9375 63.40625 86.996338 63.714543 87 65.189453 C 87.000244 65.287753 87 65.39062 87 65.5 L 87 68 L 88 68 L 88 65.5 L 88 65.466797 L 88 65 C 88 65 89.75 63.75 90 63 C 89.587321 63 88.721639 63.605711 88.025391 64.150391 C 88.14646 62.531681 88.696098 62.52122 90 61 z M 106 61 C 104.61073 61.25259 103.86032 62.270967 103.45703 63.216797 C 103.16142 62.661047 102.70411 62.17603 102 62 C 102.9375 63.40625 102.99634 63.714543 103 65.189453 C 103.00024 65.287753 103 65.39062 103 65.5 L 103 68 L 104 68 L 104 65.5 L 104 65.466797 L 104 65 C 104 65 105.75 63.75 106 63 C 105.58732 63 104.72164 63.605711 104.02539 64.150391 C 104.14646 62.531681 104.6961 62.52122 106 61 z M 122 61 C 120.61073 61.25259 119.86032 62.270967 119.45703 63.216797 C 119.16142 62.661047 118.70411 62.17603 118 62 C 118.9375 63.40625 118.99634 63.714543 119 65.189453 C 119.00024 65.287753 119 65.39062 119 65.5 L 119 68 L 120 68 L 120 65.5 L 120 65.466797 L 120 65 C 120 65 121.75 63.75 122 63 C 121.58732 63 120.72164 63.605711 120.02539 64.150391 C 120.14646 62.531681 120.6961 62.52122 122 61 z M 2 69 C 1.0698569 69.169114 0.44495365 69.690866 0 70.294922 L 0 73 C 0 73 1.75 71.75 2 71 C 1.587321 71 0.72163863 71.605711 0.025390625 72.150391 C 0.14645963 70.531681 0.696098 70.52122 2 69 z M 18 69 C 16.610733 69.25259 15.86032 70.270967 15.457031 71.216797 C 15.161423 70.661047 14.704108 70.17603 14 70 C 14.9375 71.40625 14.996338 71.714543 15 73.189453 C 15.000244 73.287753 15 73.39062 15 73.5 L 15 76 L 16 76 L 16 73.5 L 16 73.466797 L 16 73 C 16 73 17.75 71.75 18 71 C 17.587321 71 16.721639 71.605711 16.025391 72.150391 C 16.14646 70.531681 16.696098 70.52122 18 69 z M 34 69 C 32.610733 69.25259 31.86032 70.270967 31.457031 71.216797 C 31.161423 70.661047 30.704108 70.17603 30 70 C 30.9375 71.40625 30.996338 71.714543 31 73.189453 C 31.000244 73.287753 31 73.39062 31 73.5 L 31 76 L 32 76 L 32 73.5 L 32 73.466797 L 32 73 C 32 73 33.75 71.75 34 71 C 33.587321 71 32.721639 71.605711 32.025391 72.150391 C 32.14646 70.531681 32.696098 70.52122 34 69 z M 50 69 C 48.610733 69.25259 47.86032 70.270967 47.457031 71.216797 C 47.161423 70.661047 46.704108 70.17603 46 70 C 46.9375 71.40625 46.996338 71.714543 47 73.189453 C 47.000244 73.287753 47 73.39062 47 73.5 L 47 76 L 48 76 L 48 73.5 L 48 73.466797 L 48 73 C 48 73 49.75 71.75 50 71 C 49.587321 71 48.721639 71.605711 48.025391 72.150391 C 48.14646 70.531681 48.696098 70.52122 50 69 z M 66 69 C 64.610733 69.25259 63.86032 70.270967 63.457031 71.216797 C 63.161423 70.661047 62.704108 70.17603 62 70 C 62.9375 71.40625 62.996338 71.714543 63 73.189453 C 63.000244 73.287753 63 73.39062 63 73.5 L 63 76 L 64 76 L 64 73.5 L 64 73.466797 L 64 73 C 64 73 65.75 71.75 66 71 C 65.587321 71 64.721639 71.605711 64.025391 72.150391 C 64.14646 70.531681 64.696098 70.52122 66 69 z M 82 69 C 80.610733 69.25259 79.86032 70.270967 79.457031 71.216797 C 79.161423 70.661047 78.704108 70.17603 78 70 C 78.9375 71.40625 78.996338 71.714543 79 73.189453 C 79.000244 73.287753 79 73.39062 79 73.5 L 79 76 L 80 76 L 80 73.5 L 80 73.466797 L 80 73 C 80 73 81.75 71.75 82 71 C 81.587321 71 80.721639 71.605711 80.025391 72.150391 C 80.14646 70.531681 80.696098 70.52122 82 69 z M 98 69 C 96.610733 69.25259 95.86032 70.270967 95.457031 71.216797 C 95.161423 70.661047 94.704108 70.17603 94 70 C 94.9375 71.40625 94.996338 71.714543 95 73.189453 C 95.000244 73.287753 95 73.39062 95 73.5 L 95 76 L 96 76 L 96 73.5 L 96 73.466797 L 96 73 C 96 73 97.75 71.75 98 71 C 97.587321 71 96.721639 71.605711 96.025391 72.150391 C 96.14646 70.531681 96.696098 70.52122 98 69 z M 114 69 C 112.61073 69.25259 111.86032 70.270967 111.45703 71.216797 C 111.16142 70.661047 110.70411 70.17603 110 70 C 110.9375 71.40625 110.99634 71.714543 111 73.189453 C 111.00024 73.287753 111 73.39062 111 73.5 L 111 76 L 112 76 L 112 73.5 L 112 73.466797 L 112 73 C 112 73 113.75 71.75 114 71 C 113.58732 71 112.72164 71.605711 112.02539 72.150391 C 112.14646 70.531681 112.6961 70.52122 114 69 z M 126 70 C 126.9375 71.40625 126.99634 71.714543 127 73.189453 C 127.00024 73.287753 127 73.39062 127 73.5 L 127 76 L 128 76 L 128 73.466797 L 128 73 L 128 70.294922 C 127.78037 70.593088 127.59031 70.90422 127.45703 71.216797 C 127.16142 70.661047 126.70411 70.17603 126 70 z M 10 77 C 8.610733 77.25259 7.8603203 78.270967 7.4570312 79.216797 C 7.1614233 78.661047 6.704108 78.17603 6 78 C 6.9375 79.40625 6.996338 79.714543 7 81.189453 C 7.000244 81.287753 7 81.39062 7 81.5 L 7 84 L 8 84 L 8 81.5 L 8 81.466797 L 8 81 C 8 81 9.75 79.75 10 79 C 9.587321 79 8.7216386 79.605711 8.0253906 80.150391 C 8.1464596 78.531681 8.696098 78.52122 10 77 z M 26 77 C 24.610733 77.25259 23.86032 78.270967 23.457031 79.216797 C 23.161423 78.661047 22.704108 78.17603 22 78 C 22.9375 79.40625 22.996338 79.714543 23 81.189453 C 23.000244 81.287753 23 81.39062 23 81.5 L 23 84 L 24 84 L 24 81.5 L 24 81.466797 L 24 81 C 24 81 25.75 79.75 26 79 C 25.587321 79 24.721639 79.605711 24.025391 80.150391 C 24.14646 78.531681 24.696098 78.52122 26 77 z M 42 77 C 40.610733 77.25259 39.86032 78.270967 39.457031 79.216797 C 39.161423 78.661047 38.704108 78.17603 38 78 C 38.9375 79.40625 38.996338 79.714543 39 81.189453 C 39.000244 81.287753 39 81.39062 39 81.5 L 39 84 L 40 84 L 40 81.5 L 40 81.466797 L 40 81 C 40 81 41.75 79.75 42 79 C 41.587321 79 40.721639 79.605711 40.025391 80.150391 C 40.14646 78.531681 40.696098 78.52122 42 77 z M 58 77 C 56.610733 77.25259 55.86032 78.270967 55.457031 79.216797 C 55.161423 78.661047 54.704108 78.17603 54 78 C 54.9375 79.40625 54.996338 79.714543 55 81.189453 C 55.000244 81.287753 55 81.39062 55 81.5 L 55 84 L 56 84 L 56 81.5 L 56 81.466797 L 56 81 C 56 81 57.75 79.75 58 79 C 57.587321 79 56.721639 79.605711 56.025391 80.150391 C 56.14646 78.531681 56.696098 78.52122 58 77 z M 74 77 C 72.610733 77.25259 71.86032 78.270967 71.457031 79.216797 C 71.161423 78.661047 70.704108 78.17603 70 78 C 70.9375 79.40625 70.996338 79.714543 71 81.189453 C 71.000244 81.287753 71 81.39062 71 81.5 L 71 84 L 72 84 L 72 81.5 L 72 81.466797 L 72 81 C 72 81 73.75 79.75 74 79 C 73.587321 79 72.721639 79.605711 72.025391 80.150391 C 72.14646 78.531681 72.696098 78.52122 74 77 z M 90 77 C 88.610733 77.25259 87.86032 78.270967 87.457031 79.216797 C 87.161423 78.661047 86.704108 78.17603 86 78 C 86.9375 79.40625 86.996338 79.714543 87 81.189453 C 87.000244 81.287753 87 81.39062 87 81.5 L 87 84 L 88 84 L 88 81.5 L 88 81.466797 L 88 81 C 88 81 89.75 79.75 90 79 C 89.587321 79 88.721639 79.605711 88.025391 80.150391 C 88.14646 78.531681 88.696098 78.52122 90 77 z M 106 77 C 104.61073 77.25259 103.86032 78.270967 103.45703 79.216797 C 103.16142 78.661047 102.70411 78.17603 102 78 C 102.9375 79.40625 102.99634 79.714543 103 81.189453 C 103.00024 81.287753 103 81.39062 103 81.5 L 103 84 L 104 84 L 104 81.5 L 104 81.466797 L 104 81 C 104 81 105.75 79.75 106 79 C 105.58732 79 104.72164 79.605711 104.02539 80.150391 C 104.14646 78.531681 104.6961 78.52122 106 77 z M 122 77 C 120.61073 77.25259 119.86032 78.270967 119.45703 79.216797 C 119.16142 78.661047 118.70411 78.17603 118 78 C 118.9375 79.40625 118.99634 79.714543 119 81.189453 C 119.00024 81.287753 119 81.39062 119 81.5 L 119 84 L 120 84 L 120 81.5 L 120 81.466797 L 120 81 C 120 81 121.75 79.75 122 79 C 121.58732 79 120.72164 79.605711 120.02539 80.150391 C 120.14646 78.531681 120.6961 78.52122 122 77 z M 2 85 C 1.0698569 85.169114 0.44495365 85.690866 0 86.294922 L 0 89 C 0 89 1.75 87.75 2 87 C 1.587321 87 0.72163863 87.605711 0.025390625 88.150391 C 0.14645963 86.531681 0.696098 86.52122 2 85 z M 18 85 C 16.610733 85.25259 15.86032 86.270967 15.457031 87.216797 C 15.161423 86.661047 14.704108 86.17603 14 86 C 14.9375 87.40625 14.996338 87.714543 15 89.189453 C 15.000244 89.287753 15 89.39062 15 89.5 L 15 92 L 16 92 L 16 89.5 L 16 89.466797 L 16 89 C 16 89 17.75 87.75 18 87 C 17.587321 87 16.721639 87.605711 16.025391 88.150391 C 16.14646 86.531681 16.696098 86.52122 18 85 z M 34 85 C 32.610733 85.25259 31.86032 86.270967 31.457031 87.216797 C 31.161423 86.661047 30.704108 86.17603 30 86 C 30.9375 87.40625 30.996338 87.714543 31 89.189453 C 31.000244 89.287753 31 89.39062 31 89.5 L 31 92 L 32 92 L 32 89.5 L 32 89.466797 L 32 89 C 32 89 33.75 87.75 34 87 C 33.587321 87 32.721639 87.605711 32.025391 88.150391 C 32.14646 86.531681 32.696098 86.52122 34 85 z M 50 85 C 48.610733 85.25259 47.86032 86.270967 47.457031 87.216797 C 47.161423 86.661047 46.704108 86.17603 46 86 C 46.9375 87.40625 46.996338 87.714543 47 89.189453 C 47.000244 89.287753 47 89.39062 47 89.5 L 47 92 L 48 92 L 48 89.5 L 48 89.466797 L 48 89 C 48 89 49.75 87.75 50 87 C 49.587321 87 48.721639 87.605711 48.025391 88.150391 C 48.14646 86.531681 48.696098 86.52122 50 85 z M 66 85 C 64.610733 85.25259 63.86032 86.270967 63.457031 87.216797 C 63.161423 86.661047 62.704108 86.17603 62 86 C 62.9375 87.40625 62.996338 87.714543 63 89.189453 C 63.000244 89.287753 63 89.39062 63 89.5 L 63 92 L 64 92 L 64 89.5 L 64 89.466797 L 64 89 C 64 89 65.75 87.75 66 87 C 65.587321 87 64.721639 87.605711 64.025391 88.150391 C 64.14646 86.531681 64.696098 86.52122 66 85 z M 82 85 C 80.610733 85.25259 79.86032 86.270967 79.457031 87.216797 C 79.161423 86.661047 78.704108 86.17603 78 86 C 78.9375 87.40625 78.996338 87.714543 79 89.189453 C 79.000244 89.287753 79 89.39062 79 89.5 L 79 92 L 80 92 L 80 89.5 L 80 89.466797 L 80 89 C 80 89 81.75 87.75 82 87 C 81.587321 87 80.721639 87.605711 80.025391 88.150391 C 80.14646 86.531681 80.696098 86.52122 82 85 z M 98 85 C 96.610733 85.25259 95.86032 86.270967 95.457031 87.216797 C 95.161423 86.661047 94.704108 86.17603 94 86 C 94.9375 87.40625 94.996338 87.714543 95 89.189453 C 95.000244 89.287753 95 89.39062 95 89.5 L 95 92 L 96 92 L 96 89.5 L 96 89.466797 L 96 89 C 96 89 97.75 87.75 98 87 C 97.587321 87 96.721639 87.605711 96.025391 88.150391 C 96.14646 86.531681 96.696098 86.52122 98 85 z M 114 85 C 112.61073 85.25259 111.86032 86.270967 111.45703 87.216797 C 111.16142 86.661047 110.70411 86.17603 110 86 C 110.9375 87.40625 110.99634 87.714543 111 89.189453 C 111.00024 89.287753 111 89.39062 111 89.5 L 111 92 L 112 92 L 112 89.5 L 112 89.466797 L 112 89 C 112 89 113.75 87.75 114 87 C 113.58732 87 112.72164 87.605711 112.02539 88.150391 C 112.14646 86.531681 112.6961 86.52122 114 85 z M 126 86 C 126.9375 87.40625 126.99634 87.714543 127 89.189453 C 127.00024 89.287753 127 89.39062 127 89.5 L 127 92 L 128 92 L 128 89.466797 L 128 89 L 128 86.294922 C 127.78037 86.593088 127.59031 86.90422 127.45703 87.216797 C 127.16142 86.661047 126.70411 86.17603 126 86 z M 10 93 C 8.610733 93.25259 7.8603203 94.270967 7.4570312 95.216797 C 7.1614233 94.661047 6.704108 94.17603 6 94 C 6.9375 95.40625 6.996338 95.714543 7 97.189453 C 7.000244 97.287753 7 97.39062 7 97.5 L 7 100 L 8 100 L 8 97.5 L 8 97.466797 L 8 97 C 8 97 9.75 95.75 10 95 C 9.587321 95 8.7216386 95.605711 8.0253906 96.150391 C 8.1464596 94.531681 8.696098 94.52122 10 93 z M 26 93 C 24.610733 93.25259 23.86032 94.270967 23.457031 95.216797 C 23.161423 94.661047 22.704108 94.17603 22 94 C 22.9375 95.40625 22.996338 95.714543 23 97.189453 C 23.000244 97.287753 23 97.39062 23 97.5 L 23 100 L 24 100 L 24 97.5 L 24 97.466797 L 24 97 C 24 97 25.75 95.75 26 95 C 25.587321 95 24.721639 95.605711 24.025391 96.150391 C 24.14646 94.531681 24.696098 94.52122 26 93 z M 42 93 C 40.610733 93.25259 39.86032 94.270967 39.457031 95.216797 C 39.161423 94.661047 38.704108 94.17603 38 94 C 38.9375 95.40625 38.996338 95.714543 39 97.189453 C 39.000244 97.287753 39 97.39062 39 97.5 L 39 100 L 40 100 L 40 97.5 L 40 97.466797 L 40 97 C 40 97 41.75 95.75 42 95 C 41.587321 95 40.721639 95.605711 40.025391 96.150391 C 40.14646 94.531681 40.696098 94.52122 42 93 z M 58 93 C 56.610733 93.25259 55.86032 94.270967 55.457031 95.216797 C 55.161423 94.661047 54.704108 94.17603 54 94 C 54.9375 95.40625 54.996338 95.714543 55 97.189453 C 55.000244 97.287753 55 97.39062 55 97.5 L 55 100 L 56 100 L 56 97.5 L 56 97.466797 L 56 97 C 56 97 57.75 95.75 58 95 C 57.587321 95 56.721639 95.605711 56.025391 96.150391 C 56.14646 94.531681 56.696098 94.52122 58 93 z M 74 93 C 72.610733 93.25259 71.86032 94.270967 71.457031 95.216797 C 71.161423 94.661047 70.704108 94.17603 70 94 C 70.9375 95.40625 70.996338 95.714543 71 97.189453 C 71.000244 97.287753 71 97.39062 71 97.5 L 71 100 L 72 100 L 72 97.5 L 72 97.466797 L 72 97 C 72 97 73.75 95.75 74 95 C 73.587321 95 72.721639 95.605711 72.025391 96.150391 C 72.14646 94.531681 72.696098 94.52122 74 93 z M 90 93 C 88.610733 93.25259 87.86032 94.270967 87.457031 95.216797 C 87.161423 94.661047 86.704108 94.17603 86 94 C 86.9375 95.40625 86.996338 95.714543 87 97.189453 C 87.000244 97.287753 87 97.39062 87 97.5 L 87 100 L 88 100 L 88 97.5 L 88 97.466797 L 88 97 C 88 97 89.75 95.75 90 95 C 89.587321 95 88.721639 95.605711 88.025391 96.150391 C 88.14646 94.531681 88.696098 94.52122 90 93 z M 106 93 C 104.61073 93.25259 103.86032 94.270967 103.45703 95.216797 C 103.16142 94.661047 102.70411 94.17603 102 94 C 102.9375 95.40625 102.99634 95.714543 103 97.189453 C 103.00024 97.287753 103 97.39062 103 97.5 L 103 100 L 104 100 L 104 97.5 L 104 97.466797 L 104 97 C 104 97 105.75 95.75 106 95 C 105.58732 95 104.72164 95.605711 104.02539 96.150391 C 104.14646 94.531681 104.6961 94.52122 106 93 z M 122 93 C 120.61073 93.25259 119.86032 94.270967 119.45703 95.216797 C 119.16142 94.661047 118.70411 94.17603 118 94 C 118.9375 95.40625 118.99634 95.714543 119 97.189453 C 119.00024 97.287753 119 97.39062 119 97.5 L 119 100 L 120 100 L 120 97.5 L 120 97.466797 L 120 97 C 120 97 121.75 95.75 122 95 C 121.58732 95 120.72164 95.605711 120.02539 96.150391 C 120.14646 94.531681 120.6961 94.52122 122 93 z M 2 101 C 1.0698569 101.16911 0.44495365 101.69087 0 102.29492 L 0 105 C 0 105 1.75 103.75 2 103 C 1.587321 103 0.72163863 103.60571 0.025390625 104.15039 C 0.14645963 102.53168 0.696098 102.52122 2 101 z M 18 101 C 16.610733 101.25259 15.86032 102.27097 15.457031 103.2168 C 15.161423 102.66105 14.704108 102.17603 14 102 C 14.9375 103.40625 14.996338 103.71454 15 105.18945 C 15.000244 105.28775 15 105.39062 15 105.5 L 15 108 L 16 108 L 16 105.5 L 16 105.4668 L 16 105 C 16 105 17.75 103.75 18 103 C 17.587321 103 16.721639 103.60571 16.025391 104.15039 C 16.14646 102.53168 16.696098 102.52122 18 101 z M 34 101 C 32.610733 101.25259 31.86032 102.27097 31.457031 103.2168 C 31.161423 102.66105 30.704108 102.17603 30 102 C 30.9375 103.40625 30.996338 103.71454 31 105.18945 C 31.000244 105.28775 31 105.39062 31 105.5 L 31 108 L 32 108 L 32 105.5 L 32 105.4668 L 32 105 C 32 105 33.75 103.75 34 103 C 33.587321 103 32.721639 103.60571 32.025391 104.15039 C 32.14646 102.53168 32.696098 102.52122 34 101 z M 50 101 C 48.610733 101.25259 47.86032 102.27097 47.457031 103.2168 C 47.161423 102.66105 46.704108 102.17603 46 102 C 46.9375 103.40625 46.996338 103.71454 47 105.18945 C 47.000244 105.28775 47 105.39062 47 105.5 L 47 108 L 48 108 L 48 105.5 L 48 105.4668 L 48 105 C 48 105 49.75 103.75 50 103 C 49.587321 103 48.721639 103.60571 48.025391 104.15039 C 48.14646 102.53168 48.696098 102.52122 50 101 z M 66 101 C 64.610733 101.25259 63.86032 102.27097 63.457031 103.2168 C 63.161423 102.66105 62.704108 102.17603 62 102 C 62.9375 103.40625 62.996338 103.71454 63 105.18945 C 63.000244 105.28775 63 105.39062 63 105.5 L 63 108 L 64 108 L 64 105.5 L 64 105.4668 L 64 105 C 64 105 65.75 103.75 66 103 C 65.587321 103 64.721639 103.60571 64.025391 104.15039 C 64.14646 102.53168 64.696098 102.52122 66 101 z M 82 101 C 80.610733 101.25259 79.86032 102.27097 79.457031 103.2168 C 79.161423 102.66105 78.704108 102.17603 78 102 C 78.9375 103.40625 78.996338 103.71454 79 105.18945 C 79.000244 105.28775 79 105.39062 79 105.5 L 79 108 L 80 108 L 80 105.5 L 80 105.4668 L 80 105 C 80 105 81.75 103.75 82 103 C 81.587321 103 80.721639 103.60571 80.025391 104.15039 C 80.14646 102.53168 80.696098 102.52122 82 101 z M 98 101 C 96.610733 101.25259 95.86032 102.27097 95.457031 103.2168 C 95.161423 102.66105 94.704108 102.17603 94 102 C 94.9375 103.40625 94.996338 103.71454 95 105.18945 C 95.000244 105.28775 95 105.39062 95 105.5 L 95 108 L 96 108 L 96 105.5 L 96 105.4668 L 96 105 C 96 105 97.75 103.75 98 103 C 97.587321 103 96.721639 103.60571 96.025391 104.15039 C 96.14646 102.53168 96.696098 102.52122 98 101 z M 114 101 C 112.61073 101.25259 111.86032 102.27097 111.45703 103.2168 C 111.16142 102.66105 110.70411 102.17603 110 102 C 110.9375 103.40625 110.99634 103.71454 111 105.18945 C 111.00024 105.28775 111 105.39062 111 105.5 L 111 108 L 112 108 L 112 105.5 L 112 105.4668 L 112 105 C 112 105 113.75 103.75 114 103 C 113.58732 103 112.72164 103.60571 112.02539 104.15039 C 112.14646 102.53168 112.6961 102.52122 114 101 z M 126 102 C 126.9375 103.40625 126.99634 103.71454 127 105.18945 C 127.00024 105.28775 127 105.39062 127 105.5 L 127 108 L 128 108 L 128 105.4668 L 128 105 L 128 102.29492 C 127.78037 102.59309 127.59031 102.90422 127.45703 103.2168 C 127.16142 102.66105 126.70411 102.17603 126 102 z M 10 109 C 8.610733 109.25259 7.8603202 110.27097 7.4570312 111.2168 C 7.1614232 110.66105 6.704108 110.17603 6 110 C 6.9375 111.40625 6.996338 111.71454 7 113.18945 C 7.000244 113.28775 7 113.39062 7 113.5 L 7 116 L 8 116 L 8 113.5 L 8 113.4668 L 8 113 C 8 113 9.75 111.75 10 111 C 9.587321 111 8.7216386 111.60571 8.0253906 112.15039 C 8.1464596 110.53168 8.696098 110.52122 10 109 z M 26 109 C 24.610733 109.25259 23.86032 110.27097 23.457031 111.2168 C 23.161423 110.66105 22.704108 110.17603 22 110 C 22.9375 111.40625 22.996338 111.71454 23 113.18945 C 23.000244 113.28775 23 113.39062 23 113.5 L 23 116 L 24 116 L 24 113.5 L 24 113.4668 L 24 113 C 24 113 25.75 111.75 26 111 C 25.587321 111 24.721639 111.60571 24.025391 112.15039 C 24.14646 110.53168 24.696098 110.52122 26 109 z M 42 109 C 40.610733 109.25259 39.86032 110.27097 39.457031 111.2168 C 39.161423 110.66105 38.704108 110.17603 38 110 C 38.9375 111.40625 38.996338 111.71454 39 113.18945 C 39.000244 113.28775 39 113.39062 39 113.5 L 39 116 L 40 116 L 40 113.5 L 40 113.4668 L 40 113 C 40 113 41.75 111.75 42 111 C 41.587321 111 40.721639 111.60571 40.025391 112.15039 C 40.14646 110.53168 40.696098 110.52122 42 109 z M 58 109 C 56.610733 109.25259 55.86032 110.27097 55.457031 111.2168 C 55.161423 110.66105 54.704108 110.17603 54 110 C 54.9375 111.40625 54.996338 111.71454 55 113.18945 C 55.000244 113.28775 55 113.39062 55 113.5 L 55 116 L 56 116 L 56 113.5 L 56 113.4668 L 56 113 C 56 113 57.75 111.75 58 111 C 57.587321 111 56.721639 111.60571 56.025391 112.15039 C 56.14646 110.53168 56.696098 110.52122 58 109 z M 74 109 C 72.610733 109.25259 71.86032 110.27097 71.457031 111.2168 C 71.161423 110.66105 70.704108 110.17603 70 110 C 70.9375 111.40625 70.996338 111.71454 71 113.18945 C 71.000244 113.28775 71 113.39062 71 113.5 L 71 116 L 72 116 L 72 113.5 L 72 113.4668 L 72 113 C 72 113 73.75 111.75 74 111 C 73.587321 111 72.721639 111.60571 72.025391 112.15039 C 72.14646 110.53168 72.696098 110.52122 74 109 z M 90 109 C 88.610733 109.25259 87.86032 110.27097 87.457031 111.2168 C 87.161423 110.66105 86.704108 110.17603 86 110 C 86.9375 111.40625 86.996338 111.71454 87 113.18945 C 87.000244 113.28775 87 113.39062 87 113.5 L 87 116 L 88 116 L 88 113.5 L 88 113.4668 L 88 113 C 88 113 89.75 111.75 90 111 C 89.587321 111 88.721639 111.60571 88.025391 112.15039 C 88.14646 110.53168 88.696098 110.52122 90 109 z M 106 109 C 104.61073 109.25259 103.86032 110.27097 103.45703 111.2168 C 103.16142 110.66105 102.70411 110.17603 102 110 C 102.9375 111.40625 102.99634 111.71454 103 113.18945 C 103.00024 113.28775 103 113.39062 103 113.5 L 103 116 L 104 116 L 104 113.5 L 104 113.4668 L 104 113 C 104 113 105.75 111.75 106 111 C 105.58732 111 104.72164 111.60571 104.02539 112.15039 C 104.14646 110.53168 104.6961 110.52122 106 109 z M 122 109 C 120.61073 109.25259 119.86032 110.27097 119.45703 111.2168 C 119.16142 110.66105 118.70411 110.17603 118 110 C 118.9375 111.40625 118.99634 111.71454 119 113.18945 C 119.00024 113.28775 119 113.39062 119 113.5 L 119 116 L 120 116 L 120 113.5 L 120 113.4668 L 120 113 C 120 113 121.75 111.75 122 111 C 121.58732 111 120.72164 111.60571 120.02539 112.15039 C 120.14646 110.53168 120.6961 110.52122 122 109 z M 2 117 C 1.0698569 117.16911 0.44495365 117.69087 0 118.29492 L 0 121 C 0 121 1.75 119.75 2 119 C 1.587321 119 0.72163863 119.60571 0.025390625 120.15039 C 0.14645963 118.53168 0.696098 118.52122 2 117 z M 18 117 C 16.610733 117.25259 15.86032 118.27097 15.457031 119.2168 C 15.161423 118.66105 14.704108 118.17603 14 118 C 14.9375 119.40625 14.996338 119.71454 15 121.18945 C 15.000244 121.28775 15 121.39062 15 121.5 L 15 124 L 16 124 L 16 121.5 L 16 121.4668 L 16 121 C 16 121 17.75 119.75 18 119 C 17.587321 119 16.721639 119.60571 16.025391 120.15039 C 16.14646 118.53168 16.696098 118.52122 18 117 z M 34 117 C 32.610733 117.25259 31.86032 118.27097 31.457031 119.2168 C 31.161423 118.66105 30.704108 118.17603 30 118 C 30.9375 119.40625 30.996338 119.71454 31 121.18945 C 31.000244 121.28775 31 121.39062 31 121.5 L 31 124 L 32 124 L 32 121.5 L 32 121.4668 L 32 121 C 32 121 33.75 119.75 34 119 C 33.587321 119 32.721639 119.60571 32.025391 120.15039 C 32.14646 118.53168 32.696098 118.52122 34 117 z M 50 117 C 48.610733 117.25259 47.86032 118.27097 47.457031 119.2168 C 47.161423 118.66105 46.704108 118.17603 46 118 C 46.9375 119.40625 46.996338 119.71454 47 121.18945 C 47.000244 121.28775 47 121.39062 47 121.5 L 47 124 L 48 124 L 48 121.5 L 48 121.4668 L 48 121 C 48 121 49.75 119.75 50 119 C 49.587321 119 48.721639 119.60571 48.025391 120.15039 C 48.14646 118.53168 48.696098 118.52122 50 117 z M 66 117 C 64.610733 117.25259 63.86032 118.27097 63.457031 119.2168 C 63.161423 118.66105 62.704108 118.17603 62 118 C 62.9375 119.40625 62.996338 119.71454 63 121.18945 C 63.000244 121.28775 63 121.39062 63 121.5 L 63 124 L 64 124 L 64 121.5 L 64 121.4668 L 64 121 C 64 121 65.75 119.75 66 119 C 65.587321 119 64.721639 119.60571 64.025391 120.15039 C 64.14646 118.53168 64.696098 118.52122 66 117 z M 82 117 C 80.610733 117.25259 79.86032 118.27097 79.457031 119.2168 C 79.161423 118.66105 78.704108 118.17603 78 118 C 78.9375 119.40625 78.996338 119.71454 79 121.18945 C 79.000244 121.28775 79 121.39062 79 121.5 L 79 124 L 80 124 L 80 121.5 L 80 121.4668 L 80 121 C 80 121 81.75 119.75 82 119 C 81.587321 119 80.721639 119.60571 80.025391 120.15039 C 80.14646 118.53168 80.696098 118.52122 82 117 z M 98 117 C 96.610733 117.25259 95.86032 118.27097 95.457031 119.2168 C 95.161423 118.66105 94.704108 118.17603 94 118 C 94.9375 119.40625 94.996338 119.71454 95 121.18945 C 95.000244 121.28775 95 121.39062 95 121.5 L 95 124 L 96 124 L 96 121.5 L 96 121.4668 L 96 121 C 96 121 97.75 119.75 98 119 C 97.587321 119 96.721639 119.60571 96.025391 120.15039 C 96.14646 118.53168 96.696098 118.52122 98 117 z M 114 117 C 112.61073 117.25259 111.86032 118.27097 111.45703 119.2168 C 111.16142 118.66105 110.70411 118.17603 110 118 C 110.9375 119.40625 110.99634 119.71454 111 121.18945 C 111.00024 121.28775 111 121.39062 111 121.5 L 111 124 L 112 124 L 112 121.5 L 112 121.4668 L 112 121 C 112 121 113.75 119.75 114 119 C 113.58732 119 112.72164 119.60571 112.02539 120.15039 C 112.14646 118.53168 112.6961 118.52122 114 117 z M 126 118 C 126.9375 119.40625 126.99634 119.71454 127 121.18945 C 127.00024 121.28775 127 121.39062 127 121.5 L 127 124 L 128 124 L 128 121.4668 L 128 121 L 128 118.29492 C 127.78037 118.59309 127.59031 118.90422 127.45703 119.2168 C 127.16142 118.66105 126.70411 118.17603 126 118 z M 10 125 C 8.610733 125.25259 7.8603202 126.27097 7.4570312 127.2168 C 7.1614232 126.66105 6.704108 126.17603 6 126 C 6.6134898 126.92023 6.8360128 127.38552 6.9277344 128 L 8.0527344 128 C 8.2017644 126.56093 8.7471045 126.46171 10 125 z M 26 125 C 24.610733 125.25259 23.86032 126.27097 23.457031 127.2168 C 23.161423 126.66105 22.704108 126.17603 22 126 C 22.61349 126.92023 22.836013 127.38552 22.927734 128 L 24.052734 128 C 24.201764 126.56093 24.747104 126.46171 26 125 z M 42 125 C 40.610733 125.25259 39.86032 126.27097 39.457031 127.2168 C 39.161423 126.66105 38.704108 126.17603 38 126 C 38.61349 126.92023 38.836013 127.38552 38.927734 128 L 40.052734 128 C 40.201764 126.56093 40.747104 126.46171 42 125 z M 58 125 C 56.610733 125.25259 55.86032 126.27097 55.457031 127.2168 C 55.161423 126.66105 54.704108 126.17603 54 126 C 54.61349 126.92023 54.836013 127.38552 54.927734 128 L 56.052734 128 C 56.201764 126.56093 56.747104 126.46171 58 125 z M 74 125 C 72.610733 125.25259 71.86032 126.27097 71.457031 127.2168 C 71.161423 126.66105 70.704108 126.17603 70 126 C 70.61349 126.92023 70.836013 127.38552 70.927734 128 L 72.052734 128 C 72.201764 126.56093 72.747104 126.46171 74 125 z M 90 125 C 88.610733 125.25259 87.86032 126.27097 87.457031 127.2168 C 87.161423 126.66105 86.704108 126.17603 86 126 C 86.61349 126.92023 86.836013 127.38552 86.927734 128 L 88.052734 128 C 88.201764 126.56093 88.747104 126.46171 90 125 z M 106 125 C 104.61073 125.25259 103.86032 126.27097 103.45703 127.2168 C 103.16142 126.66105 102.70411 126.17603 102 126 C 102.61349 126.92023 102.83601 127.38552 102.92773 128 L 104.05273 128 C 104.20177 126.56093 104.74711 126.46171 106 125 z M 122 125 C 120.61073 125.25259 119.86032 126.27097 119.45703 127.2168 C 119.16142 126.66105 118.70411 126.17603 118 126 C 118.61349 126.92023 118.83601 127.38552 118.92773 128 L 120.05273 128 C 120.20177 126.56093 120.74711 126.46171 122 125 z M 10 127 C 9.6271238 127 8.8897228 127.50282 8.2363281 128 L 9.1972656 128 C 9.5607993 127.65755 9.9019299 127.29421 10 127 z M 26 127 C 25.627124 127 24.889723 127.50282 24.236328 128 L 25.197266 128 C 25.560799 127.65755 25.90193 127.29421 26 127 z M 42 127 C 41.627124 127 40.889723 127.50282 40.236328 128 L 41.197266 128 C 41.560799 127.65755 41.90193 127.29421 42 127 z M 58 127 C 57.627124 127 56.889723 127.50282 56.236328 128 L 57.197266 128 C 57.560799 127.65755 57.90193 127.29421 58 127 z M 74 127 C 73.627124 127 72.889723 127.50282 72.236328 128 L 73.197266 128 C 73.560799 127.65755 73.90193 127.29421 74 127 z M 90 127 C 89.627124 127 88.889723 127.50282 88.236328 128 L 89.197266 128 C 89.560799 127.65755 89.90193 127.29421 90 127 z M 106 127 C 105.62712 127 104.88972 127.50282 104.23633 128 L 105.19727 128 C 105.5608 127.65755 105.90193 127.29421 106 127 z M 122 127 C 121.62712 127 120.88972 127.50282 120.23633 128 L 121.19727 128 C 121.5608 127.65755 121.90193 127.29421 122 127 z " />
  <rect
     width="128"
     height="128"
     rx="0"
     x="0"
     y="0"
     id="rect8566"
     style="fill:none;fill-opacity:1;stroke:none" />
  <desc
     id="desc594">Created with Snap</desc>
</svg>
