<?xml version="1.0" encoding="UTF-8" standalone="no"?>
<svg
   xmlns:dc="http://purl.org/dc/elements/1.1/"
   xmlns:cc="http://creativecommons.org/ns#"
   xmlns:rdf="http://www.w3.org/1999/02/22-rdf-syntax-ns#"
   xmlns:svg="http://www.w3.org/2000/svg"
   xmlns="http://www.w3.org/2000/svg"
   version="1.1"
   height="128"
   width="128"
   id="Svg">
  <metadata
     id="metadata594">
    <rdf:RDF>
      <cc:Work
         rdf:about="">
        <dc:format>image/svg+xml</dc:format>
        <dc:type
           rdf:resource="http://purl.org/dc/dcmitype/StillImage" />
      </cc:Work>
    </rdf:RDF>
  </metadata>
  <defs
     id="defs3" />
  <path
     id="path2610"
     d="M 6 0 A 2 2 0 0 0 8 2 A 2 2 0 0 0 10 0 L 9.25 0 A 1.25 1.25 0 0 1 8 1.25 A 1.25 1.25 0 0 1 6.75 0 L 6 0 z M 22 0 A 2 2 0 0 0 24 2 A 2 2 0 0 0 26 0 L 25.25 0 A 1.25 1.25 0 0 1 24 1.25 A 1.25 1.25 0 0 1 22.75 0 L 22 0 z M 38 0 A 2 2 0 0 0 40 2 A 2 2 0 0 0 42 0 L 41.25 0 A 1.25 1.25 0 0 1 40 1.25 A 1.25 1.25 0 0 1 38.75 0 L 38 0 z M 54 0 A 2 2 0 0 0 56 2 A 2 2 0 0 0 58 0 L 57.25 0 A 1.25 1.25 0 0 1 56 1.25 A 1.25 1.25 0 0 1 54.75 0 L 54 0 z M 70 0 A 2 2 0 0 0 72 2 A 2 2 0 0 0 74 0 L 73.25 0 A 1.25 1.25 0 0 1 72 1.25 A 1.25 1.25 0 0 1 70.75 0 L 70 0 z M 86 0 A 2 2 0 0 0 88 2 A 2 2 0 0 0 90 0 L 89.25 0 A 1.25 1.25 0 0 1 88 1.25 A 1.25 1.25 0 0 1 86.75 0 L 86 0 z M 102 0 A 2 2 0 0 0 104 2 A 2 2 0 0 0 106 0 L 105.25 0 A 1.25 1.25 0 0 1 104 1.25 A 1.25 1.25 0 0 1 102.75 0 L 102 0 z M 118 0 A 2 2 0 0 0 120 2 A 2 2 0 0 0 122 0 L 121.25 0 A 1.25 1.25 0 0 1 120 1.25 A 1.25 1.25 0 0 1 118.75 0 L 118 0 z M 0 6 L 0 6.75 A 1.25 1.25 0 0 1 1.25 8 A 1.25 1.25 0 0 1 0 9.25 L 0 10 A 2 2 0 0 0 2 8 A 2 2 0 0 0 0 6 z M 16 6 A 2 2 0 0 0 14 8 A 2 2 0 0 0 16 10 A 2 2 0 0 0 18 8 A 2 2 0 0 0 16 6 z M 32 6 A 2 2 0 0 0 30 8 A 2 2 0 0 0 32 10 A 2 2 0 0 0 34 8 A 2 2 0 0 0 32 6 z M 48 6 A 2 2 0 0 0 46 8 A 2 2 0 0 0 48 10 A 2 2 0 0 0 50 8 A 2 2 0 0 0 48 6 z M 64 6 A 2 2 0 0 0 62 8 A 2 2 0 0 0 64 10 A 2 2 0 0 0 66 8 A 2 2 0 0 0 64 6 z M 80 6 A 2 2 0 0 0 78 8 A 2 2 0 0 0 80 10 A 2 2 0 0 0 82 8 A 2 2 0 0 0 80 6 z M 96 6 A 2 2 0 0 0 94 8 A 2 2 0 0 0 96 10 A 2 2 0 0 0 98 8 A 2 2 0 0 0 96 6 z M 112 6 A 2 2 0 0 0 110 8 A 2 2 0 0 0 112 10 A 2 2 0 0 0 114 8 A 2 2 0 0 0 112 6 z M 128 6 A 2 2 0 0 0 126 8 A 2 2 0 0 0 128 10 L 128 9.25 A 1.25 1.25 0 0 1 126.75 8 A 1.25 1.25 0 0 1 128 6.75 L 128 6 z M 16 6.75 A 1.25 1.25 0 0 1 17.25 8 A 1.25 1.25 0 0 1 16 9.25 A 1.25 1.25 0 0 1 14.75 8 A 1.25 1.25 0 0 1 16 6.75 z M 32 6.75 A 1.25 1.25 0 0 1 33.25 8 A 1.25 1.25 0 0 1 32 9.25 A 1.25 1.25 0 0 1 30.75 8 A 1.25 1.25 0 0 1 32 6.75 z M 48 6.75 A 1.25 1.25 0 0 1 49.25 8 A 1.25 1.25 0 0 1 48 9.25 A 1.25 1.25 0 0 1 46.75 8 A 1.25 1.25 0 0 1 48 6.75 z M 64 6.75 A 1.25 1.25 0 0 1 65.25 8 A 1.25 1.25 0 0 1 64 9.25 A 1.25 1.25 0 0 1 62.75 8 A 1.25 1.25 0 0 1 64 6.75 z M 80 6.75 A 1.25 1.25 0 0 1 81.25 8 A 1.25 1.25 0 0 1 80 9.25 A 1.25 1.25 0 0 1 78.75 8 A 1.25 1.25 0 0 1 80 6.75 z M 96 6.75 A 1.25 1.25 0 0 1 97.25 8 A 1.25 1.25 0 0 1 96 9.25 A 1.25 1.25 0 0 1 94.75 8 A 1.25 1.25 0 0 1 96 6.75 z M 112 6.75 A 1.25 1.25 0 0 1 113.25 8 A 1.25 1.25 0 0 1 112 9.25 A 1.25 1.25 0 0 1 110.75 8 A 1.25 1.25 0 0 1 112 6.75 z M 8 14 A 2 2 0 0 0 6 16 A 2 2 0 0 0 8 18 A 2 2 0 0 0 10 16 A 2 2 0 0 0 8 14 z M 24 14 A 2 2 0 0 0 22 16 A 2 2 0 0 0 24 18 A 2 2 0 0 0 26 16 A 2 2 0 0 0 24 14 z M 40 14 A 2 2 0 0 0 38 16 A 2 2 0 0 0 40 18 A 2 2 0 0 0 42 16 A 2 2 0 0 0 40 14 z M 56 14 A 2 2 0 0 0 54 16 A 2 2 0 0 0 56 18 A 2 2 0 0 0 58 16 A 2 2 0 0 0 56 14 z M 72 14 A 2 2 0 0 0 70 16 A 2 2 0 0 0 72 18 A 2 2 0 0 0 74 16 A 2 2 0 0 0 72 14 z M 88 14 A 2 2 0 0 0 86 16 A 2 2 0 0 0 88 18 A 2 2 0 0 0 90 16 A 2 2 0 0 0 88 14 z M 104 14 A 2 2 0 0 0 102 16 A 2 2 0 0 0 104 18 A 2 2 0 0 0 106 16 A 2 2 0 0 0 104 14 z M 120 14 A 2 2 0 0 0 118 16 A 2 2 0 0 0 120 18 A 2 2 0 0 0 122 16 A 2 2 0 0 0 120 14 z M 8 14.75 A 1.25 1.25 0 0 1 9.25 16 A 1.25 1.25 0 0 1 8 17.25 A 1.25 1.25 0 0 1 6.75 16 A 1.25 1.25 0 0 1 8 14.75 z M 24 14.75 A 1.25 1.25 0 0 1 25.25 16 A 1.25 1.25 0 0 1 24 17.25 A 1.25 1.25 0 0 1 22.75 16 A 1.25 1.25 0 0 1 24 14.75 z M 40 14.75 A 1.25 1.25 0 0 1 41.25 16 A 1.25 1.25 0 0 1 40 17.25 A 1.25 1.25 0 0 1 38.75 16 A 1.25 1.25 0 0 1 40 14.75 z M 56 14.75 A 1.25 1.25 0 0 1 57.25 16 A 1.25 1.25 0 0 1 56 17.25 A 1.25 1.25 0 0 1 54.75 16 A 1.25 1.25 0 0 1 56 14.75 z M 72 14.75 A 1.25 1.25 0 0 1 73.25 16 A 1.25 1.25 0 0 1 72 17.25 A 1.25 1.25 0 0 1 70.75 16 A 1.25 1.25 0 0 1 72 14.75 z M 88 14.75 A 1.25 1.25 0 0 1 89.25 16 A 1.25 1.25 0 0 1 88 17.25 A 1.25 1.25 0 0 1 86.75 16 A 1.25 1.25 0 0 1 88 14.75 z M 104 14.75 A 1.25 1.25 0 0 1 105.25 16 A 1.25 1.25 0 0 1 104 17.25 A 1.25 1.25 0 0 1 102.75 16 A 1.25 1.25 0 0 1 104 14.75 z M 120 14.75 A 1.25 1.25 0 0 1 121.25 16 A 1.25 1.25 0 0 1 120 17.25 A 1.25 1.25 0 0 1 118.75 16 A 1.25 1.25 0 0 1 120 14.75 z M 0 22 L 0 22.75 A 1.25 1.25 0 0 1 1.25 24 A 1.25 1.25 0 0 1 0 25.25 L 0 26 A 2 2 0 0 0 2 24 A 2 2 0 0 0 0 22 z M 16 22 A 2 2 0 0 0 14 24 A 2 2 0 0 0 16 26 A 2 2 0 0 0 18 24 A 2 2 0 0 0 16 22 z M 32 22 A 2 2 0 0 0 30 24 A 2 2 0 0 0 32 26 A 2 2 0 0 0 34 24 A 2 2 0 0 0 32 22 z M 48 22 A 2 2 0 0 0 46 24 A 2 2 0 0 0 48 26 A 2 2 0 0 0 50 24 A 2 2 0 0 0 48 22 z M 64 22 A 2 2 0 0 0 62 24 A 2 2 0 0 0 64 26 A 2 2 0 0 0 66 24 A 2 2 0 0 0 64 22 z M 80 22 A 2 2 0 0 0 78 24 A 2 2 0 0 0 80 26 A 2 2 0 0 0 82 24 A 2 2 0 0 0 80 22 z M 96 22 A 2 2 0 0 0 94 24 A 2 2 0 0 0 96 26 A 2 2 0 0 0 98 24 A 2 2 0 0 0 96 22 z M 112 22 A 2 2 0 0 0 110 24 A 2 2 0 0 0 112 26 A 2 2 0 0 0 114 24 A 2 2 0 0 0 112 22 z M 128 22 A 2 2 0 0 0 126 24 A 2 2 0 0 0 128 26 L 128 25.25 A 1.25 1.25 0 0 1 126.75 24 A 1.25 1.25 0 0 1 128 22.75 L 128 22 z M 16 22.75 A 1.25 1.25 0 0 1 17.25 24 A 1.25 1.25 0 0 1 16 25.25 A 1.25 1.25 0 0 1 14.75 24 A 1.25 1.25 0 0 1 16 22.75 z M 32 22.75 A 1.25 1.25 0 0 1 33.25 24 A 1.25 1.25 0 0 1 32 25.25 A 1.25 1.25 0 0 1 30.75 24 A 1.25 1.25 0 0 1 32 22.75 z M 48 22.75 A 1.25 1.25 0 0 1 49.25 24 A 1.25 1.25 0 0 1 48 25.25 A 1.25 1.25 0 0 1 46.75 24 A 1.25 1.25 0 0 1 48 22.75 z M 64 22.75 A 1.25 1.25 0 0 1 65.25 24 A 1.25 1.25 0 0 1 64 25.25 A 1.25 1.25 0 0 1 62.75 24 A 1.25 1.25 0 0 1 64 22.75 z M 80 22.75 A 1.25 1.25 0 0 1 81.25 24 A 1.25 1.25 0 0 1 80 25.25 A 1.25 1.25 0 0 1 78.75 24 A 1.25 1.25 0 0 1 80 22.75 z M 96 22.75 A 1.25 1.25 0 0 1 97.25 24 A 1.25 1.25 0 0 1 96 25.25 A 1.25 1.25 0 0 1 94.75 24 A 1.25 1.25 0 0 1 96 22.75 z M 112 22.75 A 1.25 1.25 0 0 1 113.25 24 A 1.25 1.25 0 0 1 112 25.25 A 1.25 1.25 0 0 1 110.75 24 A 1.25 1.25 0 0 1 112 22.75 z M 8 30 A 2 2 0 0 0 6 32 A 2 2 0 0 0 8 34 A 2 2 0 0 0 10 32 A 2 2 0 0 0 8 30 z M 24 30 A 2 2 0 0 0 22 32 A 2 2 0 0 0 24 34 A 2 2 0 0 0 26 32 A 2 2 0 0 0 24 30 z M 40 30 A 2 2 0 0 0 38 32 A 2 2 0 0 0 40 34 A 2 2 0 0 0 42 32 A 2 2 0 0 0 40 30 z M 56 30 A 2 2 0 0 0 54 32 A 2 2 0 0 0 56 34 A 2 2 0 0 0 58 32 A 2 2 0 0 0 56 30 z M 72 30 A 2 2 0 0 0 70 32 A 2 2 0 0 0 72 34 A 2 2 0 0 0 74 32 A 2 2 0 0 0 72 30 z M 88 30 A 2 2 0 0 0 86 32 A 2 2 0 0 0 88 34 A 2 2 0 0 0 90 32 A 2 2 0 0 0 88 30 z M 104 30 A 2 2 0 0 0 102 32 A 2 2 0 0 0 104 34 A 2 2 0 0 0 106 32 A 2 2 0 0 0 104 30 z M 120 30 A 2 2 0 0 0 118 32 A 2 2 0 0 0 120 34 A 2 2 0 0 0 122 32 A 2 2 0 0 0 120 30 z M 8 30.75 A 1.25 1.25 0 0 1 9.25 32 A 1.25 1.25 0 0 1 8 33.25 A 1.25 1.25 0 0 1 6.75 32 A 1.25 1.25 0 0 1 8 30.75 z M 24 30.75 A 1.25 1.25 0 0 1 25.25 32 A 1.25 1.25 0 0 1 24 33.25 A 1.25 1.25 0 0 1 22.75 32 A 1.25 1.25 0 0 1 24 30.75 z M 40 30.75 A 1.25 1.25 0 0 1 41.25 32 A 1.25 1.25 0 0 1 40 33.25 A 1.25 1.25 0 0 1 38.75 32 A 1.25 1.25 0 0 1 40 30.75 z M 56 30.75 A 1.25 1.25 0 0 1 57.25 32 A 1.25 1.25 0 0 1 56 33.25 A 1.25 1.25 0 0 1 54.75 32 A 1.25 1.25 0 0 1 56 30.75 z M 72 30.75 A 1.25 1.25 0 0 1 73.25 32 A 1.25 1.25 0 0 1 72 33.25 A 1.25 1.25 0 0 1 70.75 32 A 1.25 1.25 0 0 1 72 30.75 z M 88 30.75 A 1.25 1.25 0 0 1 89.25 32 A 1.25 1.25 0 0 1 88 33.25 A 1.25 1.25 0 0 1 86.75 32 A 1.25 1.25 0 0 1 88 30.75 z M 104 30.75 A 1.25 1.25 0 0 1 105.25 32 A 1.25 1.25 0 0 1 104 33.25 A 1.25 1.25 0 0 1 102.75 32 A 1.25 1.25 0 0 1 104 30.75 z M 120 30.75 A 1.25 1.25 0 0 1 121.25 32 A 1.25 1.25 0 0 1 120 33.25 A 1.25 1.25 0 0 1 118.75 32 A 1.25 1.25 0 0 1 120 30.75 z M 0 38 L 0 38.75 A 1.25 1.25 0 0 1 1.25 40 A 1.25 1.25 0 0 1 0 41.25 L 0 42 A 2 2 0 0 0 2 40 A 2 2 0 0 0 0 38 z M 16 38 A 2 2 0 0 0 14 40 A 2 2 0 0 0 16 42 A 2 2 0 0 0 18 40 A 2 2 0 0 0 16 38 z M 32 38 A 2 2 0 0 0 30 40 A 2 2 0 0 0 32 42 A 2 2 0 0 0 34 40 A 2 2 0 0 0 32 38 z M 48 38 A 2 2 0 0 0 46 40 A 2 2 0 0 0 48 42 A 2 2 0 0 0 50 40 A 2 2 0 0 0 48 38 z M 64 38 A 2 2 0 0 0 62 40 A 2 2 0 0 0 64 42 A 2 2 0 0 0 66 40 A 2 2 0 0 0 64 38 z M 80 38 A 2 2 0 0 0 78 40 A 2 2 0 0 0 80 42 A 2 2 0 0 0 82 40 A 2 2 0 0 0 80 38 z M 96 38 A 2 2 0 0 0 94 40 A 2 2 0 0 0 96 42 A 2 2 0 0 0 98 40 A 2 2 0 0 0 96 38 z M 112 38 A 2 2 0 0 0 110 40 A 2 2 0 0 0 112 42 A 2 2 0 0 0 114 40 A 2 2 0 0 0 112 38 z M 128 38 A 2 2 0 0 0 126 40 A 2 2 0 0 0 128 42 L 128 41.25 A 1.25 1.25 0 0 1 126.75 40 A 1.25 1.25 0 0 1 128 38.75 L 128 38 z M 16 38.75 A 1.25 1.25 0 0 1 17.25 40 A 1.25 1.25 0 0 1 16 41.25 A 1.25 1.25 0 0 1 14.75 40 A 1.25 1.25 0 0 1 16 38.75 z M 32 38.75 A 1.25 1.25 0 0 1 33.25 40 A 1.25 1.25 0 0 1 32 41.25 A 1.25 1.25 0 0 1 30.75 40 A 1.25 1.25 0 0 1 32 38.75 z M 48 38.75 A 1.25 1.25 0 0 1 49.25 40 A 1.25 1.25 0 0 1 48 41.25 A 1.25 1.25 0 0 1 46.75 40 A 1.25 1.25 0 0 1 48 38.75 z M 64 38.75 A 1.25 1.25 0 0 1 65.25 40 A 1.25 1.25 0 0 1 64 41.25 A 1.25 1.25 0 0 1 62.75 40 A 1.25 1.25 0 0 1 64 38.75 z M 80 38.75 A 1.25 1.25 0 0 1 81.25 40 A 1.25 1.25 0 0 1 80 41.25 A 1.25 1.25 0 0 1 78.75 40 A 1.25 1.25 0 0 1 80 38.75 z M 96 38.75 A 1.25 1.25 0 0 1 97.25 40 A 1.25 1.25 0 0 1 96 41.25 A 1.25 1.25 0 0 1 94.75 40 A 1.25 1.25 0 0 1 96 38.75 z M 112 38.75 A 1.25 1.25 0 0 1 113.25 40 A 1.25 1.25 0 0 1 112 41.25 A 1.25 1.25 0 0 1 110.75 40 A 1.25 1.25 0 0 1 112 38.75 z M 8 46 A 2 2 0 0 0 6 48 A 2 2 0 0 0 8 50 A 2 2 0 0 0 10 48 A 2 2 0 0 0 8 46 z M 24 46 A 2 2 0 0 0 22 48 A 2 2 0 0 0 24 50 A 2 2 0 0 0 26 48 A 2 2 0 0 0 24 46 z M 40 46 A 2 2 0 0 0 38 48 A 2 2 0 0 0 40 50 A 2 2 0 0 0 42 48 A 2 2 0 0 0 40 46 z M 56 46 A 2 2 0 0 0 54 48 A 2 2 0 0 0 56 50 A 2 2 0 0 0 58 48 A 2 2 0 0 0 56 46 z M 72 46 A 2 2 0 0 0 70 48 A 2 2 0 0 0 72 50 A 2 2 0 0 0 74 48 A 2 2 0 0 0 72 46 z M 88 46 A 2 2 0 0 0 86 48 A 2 2 0 0 0 88 50 A 2 2 0 0 0 90 48 A 2 2 0 0 0 88 46 z M 104 46 A 2 2 0 0 0 102 48 A 2 2 0 0 0 104 50 A 2 2 0 0 0 106 48 A 2 2 0 0 0 104 46 z M 120 46 A 2 2 0 0 0 118 48 A 2 2 0 0 0 120 50 A 2 2 0 0 0 122 48 A 2 2 0 0 0 120 46 z M 8 46.75 A 1.25 1.25 0 0 1 9.25 48 A 1.25 1.25 0 0 1 8 49.25 A 1.25 1.25 0 0 1 6.75 48 A 1.25 1.25 0 0 1 8 46.75 z M 24 46.75 A 1.25 1.25 0 0 1 25.25 48 A 1.25 1.25 0 0 1 24 49.25 A 1.25 1.25 0 0 1 22.75 48 A 1.25 1.25 0 0 1 24 46.75 z M 40 46.75 A 1.25 1.25 0 0 1 41.25 48 A 1.25 1.25 0 0 1 40 49.25 A 1.25 1.25 0 0 1 38.75 48 A 1.25 1.25 0 0 1 40 46.75 z M 56 46.75 A 1.25 1.25 0 0 1 57.25 48 A 1.25 1.25 0 0 1 56 49.25 A 1.25 1.25 0 0 1 54.75 48 A 1.25 1.25 0 0 1 56 46.75 z M 72 46.75 A 1.25 1.25 0 0 1 73.25 48 A 1.25 1.25 0 0 1 72 49.25 A 1.25 1.25 0 0 1 70.75 48 A 1.25 1.25 0 0 1 72 46.75 z M 88 46.75 A 1.25 1.25 0 0 1 89.25 48 A 1.25 1.25 0 0 1 88 49.25 A 1.25 1.25 0 0 1 86.75 48 A 1.25 1.25 0 0 1 88 46.75 z M 104 46.75 A 1.25 1.25 0 0 1 105.25 48 A 1.25 1.25 0 0 1 104 49.25 A 1.25 1.25 0 0 1 102.75 48 A 1.25 1.25 0 0 1 104 46.75 z M 120 46.75 A 1.25 1.25 0 0 1 121.25 48 A 1.25 1.25 0 0 1 120 49.25 A 1.25 1.25 0 0 1 118.75 48 A 1.25 1.25 0 0 1 120 46.75 z M 0 54 L 0 54.75 A 1.25 1.25 0 0 1 1.25 56 A 1.25 1.25 0 0 1 0 57.25 L 0 58 A 2 2 0 0 0 2 56 A 2 2 0 0 0 0 54 z M 16 54 A 2 2 0 0 0 14 56 A 2 2 0 0 0 16 58 A 2 2 0 0 0 18 56 A 2 2 0 0 0 16 54 z M 32 54 A 2 2 0 0 0 30 56 A 2 2 0 0 0 32 58 A 2 2 0 0 0 34 56 A 2 2 0 0 0 32 54 z M 48 54 A 2 2 0 0 0 46 56 A 2 2 0 0 0 48 58 A 2 2 0 0 0 50 56 A 2 2 0 0 0 48 54 z M 64 54 A 2 2 0 0 0 62 56 A 2 2 0 0 0 64 58 A 2 2 0 0 0 66 56 A 2 2 0 0 0 64 54 z M 80 54 A 2 2 0 0 0 78 56 A 2 2 0 0 0 80 58 A 2 2 0 0 0 82 56 A 2 2 0 0 0 80 54 z M 96 54 A 2 2 0 0 0 94 56 A 2 2 0 0 0 96 58 A 2 2 0 0 0 98 56 A 2 2 0 0 0 96 54 z M 112 54 A 2 2 0 0 0 110 56 A 2 2 0 0 0 112 58 A 2 2 0 0 0 114 56 A 2 2 0 0 0 112 54 z M 128 54 A 2 2 0 0 0 126 56 A 2 2 0 0 0 128 58 L 128 57.25 A 1.25 1.25 0 0 1 126.75 56 A 1.25 1.25 0 0 1 128 54.75 L 128 54 z M 16 54.75 A 1.25 1.25 0 0 1 17.25 56 A 1.25 1.25 0 0 1 16 57.25 A 1.25 1.25 0 0 1 14.75 56 A 1.25 1.25 0 0 1 16 54.75 z M 32 54.75 A 1.25 1.25 0 0 1 33.25 56 A 1.25 1.25 0 0 1 32 57.25 A 1.25 1.25 0 0 1 30.75 56 A 1.25 1.25 0 0 1 32 54.75 z M 48 54.75 A 1.25 1.25 0 0 1 49.25 56 A 1.25 1.25 0 0 1 48 57.25 A 1.25 1.25 0 0 1 46.75 56 A 1.25 1.25 0 0 1 48 54.75 z M 64 54.75 A 1.25 1.25 0 0 1 65.25 56 A 1.25 1.25 0 0 1 64 57.25 A 1.25 1.25 0 0 1 62.75 56 A 1.25 1.25 0 0 1 64 54.75 z M 80 54.75 A 1.25 1.25 0 0 1 81.25 56 A 1.25 1.25 0 0 1 80 57.25 A 1.25 1.25 0 0 1 78.75 56 A 1.25 1.25 0 0 1 80 54.75 z M 96 54.75 A 1.25 1.25 0 0 1 97.25 56 A 1.25 1.25 0 0 1 96 57.25 A 1.25 1.25 0 0 1 94.75 56 A 1.25 1.25 0 0 1 96 54.75 z M 112 54.75 A 1.25 1.25 0 0 1 113.25 56 A 1.25 1.25 0 0 1 112 57.25 A 1.25 1.25 0 0 1 110.75 56 A 1.25 1.25 0 0 1 112 54.75 z M 8 62 A 2 2 0 0 0 6 64 A 2 2 0 0 0 8 66 A 2 2 0 0 0 10 64 A 2 2 0 0 0 8 62 z M 24 62 A 2 2 0 0 0 22 64 A 2 2 0 0 0 24 66 A 2 2 0 0 0 26 64 A 2 2 0 0 0 24 62 z M 40 62 A 2 2 0 0 0 38 64 A 2 2 0 0 0 40 66 A 2 2 0 0 0 42 64 A 2 2 0 0 0 40 62 z M 56 62 A 2 2 0 0 0 54 64 A 2 2 0 0 0 56 66 A 2 2 0 0 0 58 64 A 2 2 0 0 0 56 62 z M 72 62 A 2 2 0 0 0 70 64 A 2 2 0 0 0 72 66 A 2 2 0 0 0 74 64 A 2 2 0 0 0 72 62 z M 88 62 A 2 2 0 0 0 86 64 A 2 2 0 0 0 88 66 A 2 2 0 0 0 90 64 A 2 2 0 0 0 88 62 z M 104 62 A 2 2 0 0 0 102 64 A 2 2 0 0 0 104 66 A 2 2 0 0 0 106 64 A 2 2 0 0 0 104 62 z M 120 62 A 2 2 0 0 0 118 64 A 2 2 0 0 0 120 66 A 2 2 0 0 0 122 64 A 2 2 0 0 0 120 62 z M 8 62.75 A 1.25 1.25 0 0 1 9.25 64 A 1.25 1.25 0 0 1 8 65.25 A 1.25 1.25 0 0 1 6.75 64 A 1.25 1.25 0 0 1 8 62.75 z M 24 62.75 A 1.25 1.25 0 0 1 25.25 64 A 1.25 1.25 0 0 1 24 65.25 A 1.25 1.25 0 0 1 22.75 64 A 1.25 1.25 0 0 1 24 62.75 z M 40 62.75 A 1.25 1.25 0 0 1 41.25 64 A 1.25 1.25 0 0 1 40 65.25 A 1.25 1.25 0 0 1 38.75 64 A 1.25 1.25 0 0 1 40 62.75 z M 56 62.75 A 1.25 1.25 0 0 1 57.25 64 A 1.25 1.25 0 0 1 56 65.25 A 1.25 1.25 0 0 1 54.75 64 A 1.25 1.25 0 0 1 56 62.75 z M 72 62.75 A 1.25 1.25 0 0 1 73.25 64 A 1.25 1.25 0 0 1 72 65.25 A 1.25 1.25 0 0 1 70.75 64 A 1.25 1.25 0 0 1 72 62.75 z M 88 62.75 A 1.25 1.25 0 0 1 89.25 64 A 1.25 1.25 0 0 1 88 65.25 A 1.25 1.25 0 0 1 86.75 64 A 1.25 1.25 0 0 1 88 62.75 z M 104 62.75 A 1.25 1.25 0 0 1 105.25 64 A 1.25 1.25 0 0 1 104 65.25 A 1.25 1.25 0 0 1 102.75 64 A 1.25 1.25 0 0 1 104 62.75 z M 120 62.75 A 1.25 1.25 0 0 1 121.25 64 A 1.25 1.25 0 0 1 120 65.25 A 1.25 1.25 0 0 1 118.75 64 A 1.25 1.25 0 0 1 120 62.75 z M 0 70 L 0 70.75 A 1.25 1.25 0 0 1 1.25 72 A 1.25 1.25 0 0 1 0 73.25 L 0 74 A 2 2 0 0 0 2 72 A 2 2 0 0 0 0 70 z M 16 70 A 2 2 0 0 0 14 72 A 2 2 0 0 0 16 74 A 2 2 0 0 0 18 72 A 2 2 0 0 0 16 70 z M 32 70 A 2 2 0 0 0 30 72 A 2 2 0 0 0 32 74 A 2 2 0 0 0 34 72 A 2 2 0 0 0 32 70 z M 48 70 A 2 2 0 0 0 46 72 A 2 2 0 0 0 48 74 A 2 2 0 0 0 50 72 A 2 2 0 0 0 48 70 z M 64 70 A 2 2 0 0 0 62 72 A 2 2 0 0 0 64 74 A 2 2 0 0 0 66 72 A 2 2 0 0 0 64 70 z M 80 70 A 2 2 0 0 0 78 72 A 2 2 0 0 0 80 74 A 2 2 0 0 0 82 72 A 2 2 0 0 0 80 70 z M 96 70 A 2 2 0 0 0 94 72 A 2 2 0 0 0 96 74 A 2 2 0 0 0 98 72 A 2 2 0 0 0 96 70 z M 112 70 A 2 2 0 0 0 110 72 A 2 2 0 0 0 112 74 A 2 2 0 0 0 114 72 A 2 2 0 0 0 112 70 z M 128 70 A 2 2 0 0 0 126 72 A 2 2 0 0 0 128 74 L 128 73.25 A 1.25 1.25 0 0 1 126.75 72 A 1.25 1.25 0 0 1 128 70.75 L 128 70 z M 16 70.75 A 1.25 1.25 0 0 1 17.25 72 A 1.25 1.25 0 0 1 16 73.25 A 1.25 1.25 0 0 1 14.75 72 A 1.25 1.25 0 0 1 16 70.75 z M 32 70.75 A 1.25 1.25 0 0 1 33.25 72 A 1.25 1.25 0 0 1 32 73.25 A 1.25 1.25 0 0 1 30.75 72 A 1.25 1.25 0 0 1 32 70.75 z M 48 70.75 A 1.25 1.25 0 0 1 49.25 72 A 1.25 1.25 0 0 1 48 73.25 A 1.25 1.25 0 0 1 46.75 72 A 1.25 1.25 0 0 1 48 70.75 z M 64 70.75 A 1.25 1.25 0 0 1 65.25 72 A 1.25 1.25 0 0 1 64 73.25 A 1.25 1.25 0 0 1 62.75 72 A 1.25 1.25 0 0 1 64 70.75 z M 80 70.75 A 1.25 1.25 0 0 1 81.25 72 A 1.25 1.25 0 0 1 80 73.25 A 1.25 1.25 0 0 1 78.75 72 A 1.25 1.25 0 0 1 80 70.75 z M 96 70.75 A 1.25 1.25 0 0 1 97.25 72 A 1.25 1.25 0 0 1 96 73.25 A 1.25 1.25 0 0 1 94.75 72 A 1.25 1.25 0 0 1 96 70.75 z M 112 70.75 A 1.25 1.25 0 0 1 113.25 72 A 1.25 1.25 0 0 1 112 73.25 A 1.25 1.25 0 0 1 110.75 72 A 1.25 1.25 0 0 1 112 70.75 z M 8 78 A 2 2 0 0 0 6 80 A 2 2 0 0 0 8 82 A 2 2 0 0 0 10 80 A 2 2 0 0 0 8 78 z M 24 78 A 2 2 0 0 0 22 80 A 2 2 0 0 0 24 82 A 2 2 0 0 0 26 80 A 2 2 0 0 0 24 78 z M 40 78 A 2 2 0 0 0 38 80 A 2 2 0 0 0 40 82 A 2 2 0 0 0 42 80 A 2 2 0 0 0 40 78 z M 56 78 A 2 2 0 0 0 54 80 A 2 2 0 0 0 56 82 A 2 2 0 0 0 58 80 A 2 2 0 0 0 56 78 z M 72 78 A 2 2 0 0 0 70 80 A 2 2 0 0 0 72 82 A 2 2 0 0 0 74 80 A 2 2 0 0 0 72 78 z M 88 78 A 2 2 0 0 0 86 80 A 2 2 0 0 0 88 82 A 2 2 0 0 0 90 80 A 2 2 0 0 0 88 78 z M 104 78 A 2 2 0 0 0 102 80 A 2 2 0 0 0 104 82 A 2 2 0 0 0 106 80 A 2 2 0 0 0 104 78 z M 120 78 A 2 2 0 0 0 118 80 A 2 2 0 0 0 120 82 A 2 2 0 0 0 122 80 A 2 2 0 0 0 120 78 z M 8 78.75 A 1.25 1.25 0 0 1 9.25 80 A 1.25 1.25 0 0 1 8 81.25 A 1.25 1.25 0 0 1 6.75 80 A 1.25 1.25 0 0 1 8 78.75 z M 24 78.75 A 1.25 1.25 0 0 1 25.25 80 A 1.25 1.25 0 0 1 24 81.25 A 1.25 1.25 0 0 1 22.75 80 A 1.25 1.25 0 0 1 24 78.75 z M 40 78.75 A 1.25 1.25 0 0 1 41.25 80 A 1.25 1.25 0 0 1 40 81.25 A 1.25 1.25 0 0 1 38.75 80 A 1.25 1.25 0 0 1 40 78.75 z M 56 78.75 A 1.25 1.25 0 0 1 57.25 80 A 1.25 1.25 0 0 1 56 81.25 A 1.25 1.25 0 0 1 54.75 80 A 1.25 1.25 0 0 1 56 78.75 z M 72 78.75 A 1.25 1.25 0 0 1 73.25 80 A 1.25 1.25 0 0 1 72 81.25 A 1.25 1.25 0 0 1 70.75 80 A 1.25 1.25 0 0 1 72 78.75 z M 88 78.75 A 1.25 1.25 0 0 1 89.25 80 A 1.25 1.25 0 0 1 88 81.25 A 1.25 1.25 0 0 1 86.75 80 A 1.25 1.25 0 0 1 88 78.75 z M 104 78.75 A 1.25 1.25 0 0 1 105.25 80 A 1.25 1.25 0 0 1 104 81.25 A 1.25 1.25 0 0 1 102.75 80 A 1.25 1.25 0 0 1 104 78.75 z M 120 78.75 A 1.25 1.25 0 0 1 121.25 80 A 1.25 1.25 0 0 1 120 81.25 A 1.25 1.25 0 0 1 118.75 80 A 1.25 1.25 0 0 1 120 78.75 z M 0 86 L 0 86.75 A 1.25 1.25 0 0 1 1.25 88 A 1.25 1.25 0 0 1 0 89.25 L 0 90 A 2 2 0 0 0 2 88 A 2 2 0 0 0 0 86 z M 16 86 A 2 2 0 0 0 14 88 A 2 2 0 0 0 16 90 A 2 2 0 0 0 18 88 A 2 2 0 0 0 16 86 z M 32 86 A 2 2 0 0 0 30 88 A 2 2 0 0 0 32 90 A 2 2 0 0 0 34 88 A 2 2 0 0 0 32 86 z M 48 86 A 2 2 0 0 0 46 88 A 2 2 0 0 0 48 90 A 2 2 0 0 0 50 88 A 2 2 0 0 0 48 86 z M 64 86 A 2 2 0 0 0 62 88 A 2 2 0 0 0 64 90 A 2 2 0 0 0 66 88 A 2 2 0 0 0 64 86 z M 80 86 A 2 2 0 0 0 78 88 A 2 2 0 0 0 80 90 A 2 2 0 0 0 82 88 A 2 2 0 0 0 80 86 z M 96 86 A 2 2 0 0 0 94 88 A 2 2 0 0 0 96 90 A 2 2 0 0 0 98 88 A 2 2 0 0 0 96 86 z M 112 86 A 2 2 0 0 0 110 88 A 2 2 0 0 0 112 90 A 2 2 0 0 0 114 88 A 2 2 0 0 0 112 86 z M 128 86 A 2 2 0 0 0 126 88 A 2 2 0 0 0 128 90 L 128 89.25 A 1.25 1.25 0 0 1 126.75 88 A 1.25 1.25 0 0 1 128 86.75 L 128 86 z M 16 86.75 A 1.25 1.25 0 0 1 17.25 88 A 1.25 1.25 0 0 1 16 89.25 A 1.25 1.25 0 0 1 14.75 88 A 1.25 1.25 0 0 1 16 86.75 z M 32 86.75 A 1.25 1.25 0 0 1 33.25 88 A 1.25 1.25 0 0 1 32 89.25 A 1.25 1.25 0 0 1 30.75 88 A 1.25 1.25 0 0 1 32 86.75 z M 48 86.75 A 1.25 1.25 0 0 1 49.25 88 A 1.25 1.25 0 0 1 48 89.25 A 1.25 1.25 0 0 1 46.75 88 A 1.25 1.25 0 0 1 48 86.75 z M 64 86.75 A 1.25 1.25 0 0 1 65.25 88 A 1.25 1.25 0 0 1 64 89.25 A 1.25 1.25 0 0 1 62.75 88 A 1.25 1.25 0 0 1 64 86.75 z M 80 86.75 A 1.25 1.25 0 0 1 81.25 88 A 1.25 1.25 0 0 1 80 89.25 A 1.25 1.25 0 0 1 78.75 88 A 1.25 1.25 0 0 1 80 86.75 z M 96 86.75 A 1.25 1.25 0 0 1 97.25 88 A 1.25 1.25 0 0 1 96 89.25 A 1.25 1.25 0 0 1 94.75 88 A 1.25 1.25 0 0 1 96 86.75 z M 112 86.75 A 1.25 1.25 0 0 1 113.25 88 A 1.25 1.25 0 0 1 112 89.25 A 1.25 1.25 0 0 1 110.75 88 A 1.25 1.25 0 0 1 112 86.75 z M 8 94 A 2 2 0 0 0 6 96 A 2 2 0 0 0 8 98 A 2 2 0 0 0 10 96 A 2 2 0 0 0 8 94 z M 24 94 A 2 2 0 0 0 22 96 A 2 2 0 0 0 24 98 A 2 2 0 0 0 26 96 A 2 2 0 0 0 24 94 z M 40 94 A 2 2 0 0 0 38 96 A 2 2 0 0 0 40 98 A 2 2 0 0 0 42 96 A 2 2 0 0 0 40 94 z M 56 94 A 2 2 0 0 0 54 96 A 2 2 0 0 0 56 98 A 2 2 0 0 0 58 96 A 2 2 0 0 0 56 94 z M 72 94 A 2 2 0 0 0 70 96 A 2 2 0 0 0 72 98 A 2 2 0 0 0 74 96 A 2 2 0 0 0 72 94 z M 88 94 A 2 2 0 0 0 86 96 A 2 2 0 0 0 88 98 A 2 2 0 0 0 90 96 A 2 2 0 0 0 88 94 z M 104 94 A 2 2 0 0 0 102 96 A 2 2 0 0 0 104 98 A 2 2 0 0 0 106 96 A 2 2 0 0 0 104 94 z M 120 94 A 2 2 0 0 0 118 96 A 2 2 0 0 0 120 98 A 2 2 0 0 0 122 96 A 2 2 0 0 0 120 94 z M 8 94.75 A 1.25 1.25 0 0 1 9.25 96 A 1.25 1.25 0 0 1 8 97.25 A 1.25 1.25 0 0 1 6.75 96 A 1.25 1.25 0 0 1 8 94.75 z M 24 94.75 A 1.25 1.25 0 0 1 25.25 96 A 1.25 1.25 0 0 1 24 97.25 A 1.25 1.25 0 0 1 22.75 96 A 1.25 1.25 0 0 1 24 94.75 z M 40 94.75 A 1.25 1.25 0 0 1 41.25 96 A 1.25 1.25 0 0 1 40 97.25 A 1.25 1.25 0 0 1 38.75 96 A 1.25 1.25 0 0 1 40 94.75 z M 56 94.75 A 1.25 1.25 0 0 1 57.25 96 A 1.25 1.25 0 0 1 56 97.25 A 1.25 1.25 0 0 1 54.75 96 A 1.25 1.25 0 0 1 56 94.75 z M 72 94.75 A 1.25 1.25 0 0 1 73.25 96 A 1.25 1.25 0 0 1 72 97.25 A 1.25 1.25 0 0 1 70.75 96 A 1.25 1.25 0 0 1 72 94.75 z M 88 94.75 A 1.25 1.25 0 0 1 89.25 96 A 1.25 1.25 0 0 1 88 97.25 A 1.25 1.25 0 0 1 86.75 96 A 1.25 1.25 0 0 1 88 94.75 z M 104 94.75 A 1.25 1.25 0 0 1 105.25 96 A 1.25 1.25 0 0 1 104 97.25 A 1.25 1.25 0 0 1 102.75 96 A 1.25 1.25 0 0 1 104 94.75 z M 120 94.75 A 1.25 1.25 0 0 1 121.25 96 A 1.25 1.25 0 0 1 120 97.25 A 1.25 1.25 0 0 1 118.75 96 A 1.25 1.25 0 0 1 120 94.75 z M 0 102 L 0 102.75 A 1.25 1.25 0 0 1 1.25 104 A 1.25 1.25 0 0 1 0 105.25 L 0 106 A 2 2 0 0 0 2 104 A 2 2 0 0 0 0 102 z M 16 102 A 2 2 0 0 0 14 104 A 2 2 0 0 0 16 106 A 2 2 0 0 0 18 104 A 2 2 0 0 0 16 102 z M 32 102 A 2 2 0 0 0 30 104 A 2 2 0 0 0 32 106 A 2 2 0 0 0 34 104 A 2 2 0 0 0 32 102 z M 48 102 A 2 2 0 0 0 46 104 A 2 2 0 0 0 48 106 A 2 2 0 0 0 50 104 A 2 2 0 0 0 48 102 z M 64 102 A 2 2 0 0 0 62 104 A 2 2 0 0 0 64 106 A 2 2 0 0 0 66 104 A 2 2 0 0 0 64 102 z M 80 102 A 2 2 0 0 0 78 104 A 2 2 0 0 0 80 106 A 2 2 0 0 0 82 104 A 2 2 0 0 0 80 102 z M 96 102 A 2 2 0 0 0 94 104 A 2 2 0 0 0 96 106 A 2 2 0 0 0 98 104 A 2 2 0 0 0 96 102 z M 112 102 A 2 2 0 0 0 110 104 A 2 2 0 0 0 112 106 A 2 2 0 0 0 114 104 A 2 2 0 0 0 112 102 z M 128 102 A 2 2 0 0 0 126 104 A 2 2 0 0 0 128 106 L 128 105.25 A 1.25 1.25 0 0 1 126.75 104 A 1.25 1.25 0 0 1 128 102.75 L 128 102 z M 16 102.75 A 1.25 1.25 0 0 1 17.25 104 A 1.25 1.25 0 0 1 16 105.25 A 1.25 1.25 0 0 1 14.75 104 A 1.25 1.25 0 0 1 16 102.75 z M 32 102.75 A 1.25 1.25 0 0 1 33.25 104 A 1.25 1.25 0 0 1 32 105.25 A 1.25 1.25 0 0 1 30.75 104 A 1.25 1.25 0 0 1 32 102.75 z M 48 102.75 A 1.25 1.25 0 0 1 49.25 104 A 1.25 1.25 0 0 1 48 105.25 A 1.25 1.25 0 0 1 46.75 104 A 1.25 1.25 0 0 1 48 102.75 z M 64 102.75 A 1.25 1.25 0 0 1 65.25 104 A 1.25 1.25 0 0 1 64 105.25 A 1.25 1.25 0 0 1 62.75 104 A 1.25 1.25 0 0 1 64 102.75 z M 80 102.75 A 1.25 1.25 0 0 1 81.25 104 A 1.25 1.25 0 0 1 80 105.25 A 1.25 1.25 0 0 1 78.75 104 A 1.25 1.25 0 0 1 80 102.75 z M 96 102.75 A 1.25 1.25 0 0 1 97.25 104 A 1.25 1.25 0 0 1 96 105.25 A 1.25 1.25 0 0 1 94.75 104 A 1.25 1.25 0 0 1 96 102.75 z M 112 102.75 A 1.25 1.25 0 0 1 113.25 104 A 1.25 1.25 0 0 1 112 105.25 A 1.25 1.25 0 0 1 110.75 104 A 1.25 1.25 0 0 1 112 102.75 z M 8 110 A 2 2 0 0 0 6 112 A 2 2 0 0 0 8 114 A 2 2 0 0 0 10 112 A 2 2 0 0 0 8 110 z M 24 110 A 2 2 0 0 0 22 112 A 2 2 0 0 0 24 114 A 2 2 0 0 0 26 112 A 2 2 0 0 0 24 110 z M 40 110 A 2 2 0 0 0 38 112 A 2 2 0 0 0 40 114 A 2 2 0 0 0 42 112 A 2 2 0 0 0 40 110 z M 56 110 A 2 2 0 0 0 54 112 A 2 2 0 0 0 56 114 A 2 2 0 0 0 58 112 A 2 2 0 0 0 56 110 z M 72 110 A 2 2 0 0 0 70 112 A 2 2 0 0 0 72 114 A 2 2 0 0 0 74 112 A 2 2 0 0 0 72 110 z M 88 110 A 2 2 0 0 0 86 112 A 2 2 0 0 0 88 114 A 2 2 0 0 0 90 112 A 2 2 0 0 0 88 110 z M 104 110 A 2 2 0 0 0 102 112 A 2 2 0 0 0 104 114 A 2 2 0 0 0 106 112 A 2 2 0 0 0 104 110 z M 120 110 A 2 2 0 0 0 118 112 A 2 2 0 0 0 120 114 A 2 2 0 0 0 122 112 A 2 2 0 0 0 120 110 z M 8 110.75 A 1.25 1.25 0 0 1 9.25 112 A 1.25 1.25 0 0 1 8 113.25 A 1.25 1.25 0 0 1 6.75 112 A 1.25 1.25 0 0 1 8 110.75 z M 24 110.75 A 1.25 1.25 0 0 1 25.25 112 A 1.25 1.25 0 0 1 24 113.25 A 1.25 1.25 0 0 1 22.75 112 A 1.25 1.25 0 0 1 24 110.75 z M 40 110.75 A 1.25 1.25 0 0 1 41.25 112 A 1.25 1.25 0 0 1 40 113.25 A 1.25 1.25 0 0 1 38.75 112 A 1.25 1.25 0 0 1 40 110.75 z M 56 110.75 A 1.25 1.25 0 0 1 57.25 112 A 1.25 1.25 0 0 1 56 113.25 A 1.25 1.25 0 0 1 54.75 112 A 1.25 1.25 0 0 1 56 110.75 z M 72 110.75 A 1.25 1.25 0 0 1 73.25 112 A 1.25 1.25 0 0 1 72 113.25 A 1.25 1.25 0 0 1 70.75 112 A 1.25 1.25 0 0 1 72 110.75 z M 88 110.75 A 1.25 1.25 0 0 1 89.25 112 A 1.25 1.25 0 0 1 88 113.25 A 1.25 1.25 0 0 1 86.75 112 A 1.25 1.25 0 0 1 88 110.75 z M 104 110.75 A 1.25 1.25 0 0 1 105.25 112 A 1.25 1.25 0 0 1 104 113.25 A 1.25 1.25 0 0 1 102.75 112 A 1.25 1.25 0 0 1 104 110.75 z M 120 110.75 A 1.25 1.25 0 0 1 121.25 112 A 1.25 1.25 0 0 1 120 113.25 A 1.25 1.25 0 0 1 118.75 112 A 1.25 1.25 0 0 1 120 110.75 z M 0 118 L 0 118.75 A 1.25 1.25 0 0 1 1.25 120 A 1.25 1.25 0 0 1 0 121.25 L 0 122 A 2 2 0 0 0 2 120 A 2 2 0 0 0 0 118 z M 16 118 A 2 2 0 0 0 14 120 A 2 2 0 0 0 16 122 A 2 2 0 0 0 18 120 A 2 2 0 0 0 16 118 z M 32 118 A 2 2 0 0 0 30 120 A 2 2 0 0 0 32 122 A 2 2 0 0 0 34 120 A 2 2 0 0 0 32 118 z M 48 118 A 2 2 0 0 0 46 120 A 2 2 0 0 0 48 122 A 2 2 0 0 0 50 120 A 2 2 0 0 0 48 118 z M 64 118 A 2 2 0 0 0 62 120 A 2 2 0 0 0 64 122 A 2 2 0 0 0 66 120 A 2 2 0 0 0 64 118 z M 80 118 A 2 2 0 0 0 78 120 A 2 2 0 0 0 80 122 A 2 2 0 0 0 82 120 A 2 2 0 0 0 80 118 z M 96 118 A 2 2 0 0 0 94 120 A 2 2 0 0 0 96 122 A 2 2 0 0 0 98 120 A 2 2 0 0 0 96 118 z M 112 118 A 2 2 0 0 0 110 120 A 2 2 0 0 0 112 122 A 2 2 0 0 0 114 120 A 2 2 0 0 0 112 118 z M 128 118 A 2 2 0 0 0 126 120 A 2 2 0 0 0 128 122 L 128 121.25 A 1.25 1.25 0 0 1 126.75 120 A 1.25 1.25 0 0 1 128 118.75 L 128 118 z M 16 118.75 A 1.25 1.25 0 0 1 17.25 120 A 1.25 1.25 0 0 1 16 121.25 A 1.25 1.25 0 0 1 14.75 120 A 1.25 1.25 0 0 1 16 118.75 z M 32 118.75 A 1.25 1.25 0 0 1 33.25 120 A 1.25 1.25 0 0 1 32 121.25 A 1.25 1.25 0 0 1 30.75 120 A 1.25 1.25 0 0 1 32 118.75 z M 48 118.75 A 1.25 1.25 0 0 1 49.25 120 A 1.25 1.25 0 0 1 48 121.25 A 1.25 1.25 0 0 1 46.75 120 A 1.25 1.25 0 0 1 48 118.75 z M 64 118.75 A 1.25 1.25 0 0 1 65.25 120 A 1.25 1.25 0 0 1 64 121.25 A 1.25 1.25 0 0 1 62.75 120 A 1.25 1.25 0 0 1 64 118.75 z M 80 118.75 A 1.25 1.25 0 0 1 81.25 120 A 1.25 1.25 0 0 1 80 121.25 A 1.25 1.25 0 0 1 78.75 120 A 1.25 1.25 0 0 1 80 118.75 z M 96 118.75 A 1.25 1.25 0 0 1 97.25 120 A 1.25 1.25 0 0 1 96 121.25 A 1.25 1.25 0 0 1 94.75 120 A 1.25 1.25 0 0 1 96 118.75 z M 112 118.75 A 1.25 1.25 0 0 1 113.25 120 A 1.25 1.25 0 0 1 112 121.25 A 1.25 1.25 0 0 1 110.75 120 A 1.25 1.25 0 0 1 112 118.75 z M 8 126 A 2 2 0 0 0 6 128 L 6.75 128 A 1.25 1.25 0 0 1 8 126.75 A 1.25 1.25 0 0 1 9.25 128 L 10 128 A 2 2 0 0 0 8 126 z M 24 126 A 2 2 0 0 0 22 128 L 22.75 128 A 1.25 1.25 0 0 1 24 126.75 A 1.25 1.25 0 0 1 25.25 128 L 26 128 A 2 2 0 0 0 24 126 z M 40 126 A 2 2 0 0 0 38 128 L 38.75 128 A 1.25 1.25 0 0 1 40 126.75 A 1.25 1.25 0 0 1 41.25 128 L 42 128 A 2 2 0 0 0 40 126 z M 56 126 A 2 2 0 0 0 54 128 L 54.75 128 A 1.25 1.25 0 0 1 56 126.75 A 1.25 1.25 0 0 1 57.25 128 L 58 128 A 2 2 0 0 0 56 126 z M 72 126 A 2 2 0 0 0 70 128 L 70.75 128 A 1.25 1.25 0 0 1 72 126.75 A 1.25 1.25 0 0 1 73.25 128 L 74 128 A 2 2 0 0 0 72 126 z M 88 126 A 2 2 0 0 0 86 128 L 86.75 128 A 1.25 1.25 0 0 1 88 126.75 A 1.25 1.25 0 0 1 89.25 128 L 90 128 A 2 2 0 0 0 88 126 z M 104 126 A 2 2 0 0 0 102 128 L 102.75 128 A 1.25 1.25 0 0 1 104 126.75 A 1.25 1.25 0 0 1 105.25 128 L 106 128 A 2 2 0 0 0 104 126 z M 120 126 A 2 2 0 0 0 118 128 L 118.75 128 A 1.25 1.25 0 0 1 120 126.75 A 1.25 1.25 0 0 1 121.25 128 L 122 128 A 2 2 0 0 0 120 126 z " style="fill:#c9d285" />
  <rect
     style="fill:none;fill-opacity:1;stroke:none"
     id="rect8566"
     y="0"
     x="0"
     rx="0"
     height="128"
     width="128" />
  <desc
     id="desc590">Created with Snap</desc>
</svg>
