<?xml version="1.0" encoding="UTF-8" standalone="no"?>
<svg
   id="Svg"
   width="128"
   height="128"
   version="1.1"
   xmlns="http://www.w3.org/2000/svg"
   xmlns:svg="http://www.w3.org/2000/svg">
  <defs
     id="defs10" />
  <path
     id="path3419"
     d="M 5.2695312 0 C 5.7694194 1.0263518 7 3 7 3 L 7 4 L 8 4 L 8 3 C 8 3 9.2305806 1.0263518 9.7304688 0 L 9.2832031 0 C 8.7975504 0.48397724 8.2250428 1.2252545 7.7675781 1.8710938 C 7.7873671 1.1864655 7.8542955 0.61666555 7.90625 0 L 7.3417969 0 C 7.2903437 0.6926078 7.2600959 1.3637742 7.2519531 1.8964844 C 6.7918744 1.2456304 6.209308 0.49032437 5.7167969 0 L 5.2695312 0 z M 21.269531 0 C 21.769419 1.0263518 23 3 23 3 L 23 4 L 24 4 L 24 3 C 24 3 25.230581 1.0263518 25.730469 0 L 25.283203 0 C 24.79755 0.48397724 24.225043 1.2252545 23.767578 1.8710938 C 23.787367 1.1864655 23.854295 0.61666555 23.90625 0 L 23.341797 0 C 23.290344 0.6926078 23.260096 1.3637742 23.251953 1.8964844 C 22.791874 1.2456304 22.209308 0.49032437 21.716797 0 L 21.269531 0 z M 37.269531 0 C 37.769419 1.0263518 39 3 39 3 L 39 4 L 40 4 L 40 3 C 40 3 41.230581 1.0263518 41.730469 0 L 41.283203 0 C 40.79755 0.48397724 40.225043 1.2252545 39.767578 1.8710938 C 39.787367 1.1864655 39.854295 0.61666555 39.90625 0 L 39.341797 0 C 39.290344 0.6926078 39.260096 1.3637742 39.251953 1.8964844 C 38.791874 1.2456304 38.209308 0.49032437 37.716797 0 L 37.269531 0 z M 53.269531 0 C 53.769419 1.0263518 55 3 55 3 L 55 4 L 56 4 L 56 3 C 56 3 57.230581 1.0263518 57.730469 0 L 57.283203 0 C 56.79755 0.48397724 56.225043 1.2252545 55.767578 1.8710938 C 55.787367 1.1864655 55.854295 0.61666555 55.90625 0 L 55.341797 0 C 55.290344 0.6926078 55.260096 1.3637742 55.251953 1.8964844 C 54.791874 1.2456304 54.209308 0.49032437 53.716797 0 L 53.269531 0 z M 69.269531 0 C 69.769419 1.0263518 71 3 71 3 L 71 4 L 72 4 L 72 3 C 72 3 73.230581 1.0263518 73.730469 0 L 73.283203 0 C 72.79755 0.48397724 72.225043 1.2252545 71.767578 1.8710938 C 71.787367 1.1864655 71.854295 0.61666555 71.90625 0 L 71.341797 0 C 71.290344 0.6926078 71.260096 1.3637742 71.251953 1.8964844 C 70.791874 1.2456304 70.209308 0.49032437 69.716797 0 L 69.269531 0 z M 85.269531 0 C 85.769419 1.0263518 87 3 87 3 L 87 4 L 88 4 L 88 3 C 88 3 89.230581 1.0263518 89.730469 0 L 89.283203 0 C 88.79755 0.48397724 88.225043 1.2252545 87.767578 1.8710938 C 87.787367 1.1864655 87.854295 0.61666555 87.90625 0 L 87.341797 0 C 87.290344 0.6926078 87.260096 1.3637742 87.251953 1.8964844 C 86.791874 1.2456304 86.209308 0.49032437 85.716797 0 L 85.269531 0 z M 101.26953 0 C 101.76942 1.0263518 103 3 103 3 L 103 4 L 104 4 L 104 3 C 104 3 105.23058 1.0263518 105.73047 0 L 105.2832 0 C 104.79755 0.48397724 104.22504 1.2252545 103.76758 1.8710938 C 103.78736 1.1864655 103.85429 0.61666555 103.90625 0 L 103.3418 0 C 103.29034 0.6926078 103.2601 1.3637742 103.25195 1.8964844 C 102.79188 1.2456304 102.20931 0.49032437 101.7168 0 L 101.26953 0 z M 117.26953 0 C 117.76942 1.0263518 119 3 119 3 L 119 4 L 120 4 L 120 3 C 120 3 121.23058 1.0263518 121.73047 0 L 121.2832 0 C 120.79755 0.48397724 120.22504 1.2252545 119.76758 1.8710938 C 119.78736 1.1864655 119.85429 0.61666555 119.90625 0 L 119.3418 0 C 119.29034 0.6926078 119.2601 1.3637742 119.25195 1.8964844 C 118.79188 1.2456304 118.20931 0.49032437 117.7168 0 L 117.26953 0 z M 0 3 L 0 6.75 C 0.05898 6.32 0.75 5.5 0.75 5 C 0.75 3 0.5 3 0 3 z M 16 3 C 15.5 3 15.25 4 15.25 5.25 C 15.25 5.75 15.54677 6.20597 15.5 6.5 C 15.318245 7.64262 15.266018 8.9763344 15.251953 9.8964844 C 14.52676 8.8705844 13.469458 7.5 13 7.5 C 13.25 8.25 15 11 15 11 L 15 12 L 16 12 L 16 11 C 16 11 17.75 8.25 18 7.5 C 17.53445 7.5 16.492153 8.8481538 15.767578 9.8710938 C 15.800588 8.7290637 15.880914 7.61813 16 6.75 C 16.05898 6.32 16.75 5.5 16.75 5 C 16.75 3 16.5 3 16 3 z M 32 3 C 31.5 3 31.25 4 31.25 5.25 C 31.25 5.75 31.54677 6.20597 31.5 6.5 C 31.318245 7.64262 31.266018 8.9763344 31.251953 9.8964844 C 30.52676 8.8705844 29.469458 7.5 29 7.5 C 29.25 8.25 31 11 31 11 L 31 12 L 32 12 L 32 11 C 32 11 33.75 8.25 34 7.5 C 33.53445 7.5 32.492153 8.8481538 31.767578 9.8710938 C 31.800588 8.7290637 31.880914 7.61813 32 6.75 C 32.05898 6.32 32.75 5.5 32.75 5 C 32.75 3 32.5 3 32 3 z M 48 3 C 47.5 3 47.25 4 47.25 5.25 C 47.25 5.75 47.54677 6.20597 47.5 6.5 C 47.318245 7.64262 47.266018 8.9763344 47.251953 9.8964844 C 46.52676 8.8705844 45.469458 7.5 45 7.5 C 45.25 8.25 47 11 47 11 L 47 12 L 48 12 L 48 11 C 48 11 49.75 8.25 50 7.5 C 49.53445 7.5 48.492153 8.8481538 47.767578 9.8710938 C 47.800588 8.7290637 47.880914 7.61813 48 6.75 C 48.05898 6.32 48.75 5.5 48.75 5 C 48.75 3 48.5 3 48 3 z M 64 3 C 63.5 3 63.25 4 63.25 5.25 C 63.25 5.75 63.54677 6.20597 63.5 6.5 C 63.318245 7.64262 63.266018 8.9763344 63.251953 9.8964844 C 62.52676 8.8705844 61.469458 7.5 61 7.5 C 61.25 8.25 63 11 63 11 L 63 12 L 64 12 L 64 11 C 64 11 65.75 8.25 66 7.5 C 65.53445 7.5 64.492153 8.8481538 63.767578 9.8710938 C 63.800588 8.7290637 63.880914 7.61813 64 6.75 C 64.05898 6.32 64.75 5.5 64.75 5 C 64.75 3 64.5 3 64 3 z M 80 3 C 79.5 3 79.25 4 79.25 5.25 C 79.25 5.75 79.54677 6.20597 79.5 6.5 C 79.318245 7.64262 79.266018 8.9763344 79.251953 9.8964844 C 78.52676 8.8705844 77.469458 7.5 77 7.5 C 77.25 8.25 79 11 79 11 L 79 12 L 80 12 L 80 11 C 80 11 81.75 8.25 82 7.5 C 81.53445 7.5 80.492153 8.8481538 79.767578 9.8710938 C 79.800588 8.7290637 79.880914 7.61813 80 6.75 C 80.05898 6.32 80.75 5.5 80.75 5 C 80.75 3 80.5 3 80 3 z M 96 3 C 95.5 3 95.25 4 95.25 5.25 C 95.25 5.75 95.54677 6.20597 95.5 6.5 C 95.318245 7.64262 95.266018 8.9763344 95.251953 9.8964844 C 94.52676 8.8705844 93.469458 7.5 93 7.5 C 93.25 8.25 95 11 95 11 L 95 12 L 96 12 L 96 11 C 96 11 97.75 8.25 98 7.5 C 97.53445 7.5 96.492153 8.8481538 95.767578 9.8710938 C 95.800588 8.7290637 95.880914 7.61813 96 6.75 C 96.05898 6.32 96.75 5.5 96.75 5 C 96.75 3 96.5 3 96 3 z M 112 3 C 111.5 3 111.25 4 111.25 5.25 C 111.25 5.75 111.54677 6.20597 111.5 6.5 C 111.31825 7.64262 111.26602 8.9763344 111.25195 9.8964844 C 110.52676 8.8705844 109.46946 7.5 109 7.5 C 109.25 8.25 111 11 111 11 L 111 12 L 112 12 L 112 11 C 112 11 113.75 8.25 114 7.5 C 113.53445 7.5 112.49215 8.8481538 111.76758 9.8710938 C 111.80059 8.7290637 111.88091 7.61813 112 6.75 C 112.05898 6.32 112.75 5.5 112.75 5 C 112.75 3 112.5 3 112 3 z M 128 3 C 127.5 3 127.25 4 127.25 5.25 C 127.25 5.75 127.54677 6.20597 127.5 6.5 C 127.31825 7.64262 127.26602 8.9763344 127.25195 9.8964844 C 126.52676 8.8705844 125.46946 7.5 125 7.5 C 125.25 8.25 127 11 127 11 L 127 12 L 128 12 L 128 11 L 128 9.5703125 C 127.92549 9.672876 127.83704 9.7730332 127.76758 9.8710938 C 127.80059 8.7290637 127.88091 7.61813 128 6.75 L 128 3 z M 2 7.5 C 1.5790783 7.5 0.70275969 8.602963 0 9.5703125 L 0 11 C 0 11 1.75 8.25 2 7.5 z M 8 11 C 7.5 11 7.25 12 7.25 13.25 C 7.25 13.75 7.54677 14.20597 7.5 14.5 C 7.318245 15.64262 7.2660181 16.976334 7.2519531 17.896484 C 6.5267601 16.870584 5.469458 15.5 5 15.5 C 5.25 16.25 7 19 7 19 L 7 20 L 8 20 L 8 19 C 8 19 9.75 16.25 10 15.5 C 9.53445 15.5 8.4921531 16.848154 7.7675781 17.871094 C 7.8005881 16.729064 7.880914 15.61813 8 14.75 C 8.05898 14.32 8.75 13.5 8.75 13 C 8.75 11 8.5 11 8 11 z M 24 11 C 23.5 11 23.25 12 23.25 13.25 C 23.25 13.75 23.54677 14.20597 23.5 14.5 C 23.318245 15.64262 23.266018 16.976334 23.251953 17.896484 C 22.52676 16.870584 21.469458 15.5 21 15.5 C 21.25 16.25 23 19 23 19 L 23 20 L 24 20 L 24 19 C 24 19 25.75 16.25 26 15.5 C 25.53445 15.5 24.492153 16.848154 23.767578 17.871094 C 23.800588 16.729064 23.880914 15.61813 24 14.75 C 24.05898 14.32 24.75 13.5 24.75 13 C 24.75 11 24.5 11 24 11 z M 40 11 C 39.5 11 39.25 12 39.25 13.25 C 39.25 13.75 39.54677 14.20597 39.5 14.5 C 39.318245 15.64262 39.266018 16.976334 39.251953 17.896484 C 38.52676 16.870584 37.469458 15.5 37 15.5 C 37.25 16.25 39 19 39 19 L 39 20 L 40 20 L 40 19 C 40 19 41.75 16.25 42 15.5 C 41.53445 15.5 40.492153 16.848154 39.767578 17.871094 C 39.800588 16.729064 39.880914 15.61813 40 14.75 C 40.05898 14.32 40.75 13.5 40.75 13 C 40.75 11 40.5 11 40 11 z M 56 11 C 55.5 11 55.25 12 55.25 13.25 C 55.25 13.75 55.54677 14.20597 55.5 14.5 C 55.318245 15.64262 55.266018 16.976334 55.251953 17.896484 C 54.52676 16.870584 53.469458 15.5 53 15.5 C 53.25 16.25 55 19 55 19 L 55 20 L 56 20 L 56 19 C 56 19 57.75 16.25 58 15.5 C 57.53445 15.5 56.492153 16.848154 55.767578 17.871094 C 55.800588 16.729064 55.880914 15.61813 56 14.75 C 56.05898 14.32 56.75 13.5 56.75 13 C 56.75 11 56.5 11 56 11 z M 72 11 C 71.5 11 71.25 12 71.25 13.25 C 71.25 13.75 71.54677 14.20597 71.5 14.5 C 71.318245 15.64262 71.266018 16.976334 71.251953 17.896484 C 70.52676 16.870584 69.469458 15.5 69 15.5 C 69.25 16.25 71 19 71 19 L 71 20 L 72 20 L 72 19 C 72 19 73.75 16.25 74 15.5 C 73.53445 15.5 72.492153 16.848154 71.767578 17.871094 C 71.800588 16.729064 71.880914 15.61813 72 14.75 C 72.05898 14.32 72.75 13.5 72.75 13 C 72.75 11 72.5 11 72 11 z M 88 11 C 87.5 11 87.25 12 87.25 13.25 C 87.25 13.75 87.54677 14.20597 87.5 14.5 C 87.318245 15.64262 87.266018 16.976334 87.251953 17.896484 C 86.52676 16.870584 85.469458 15.5 85 15.5 C 85.25 16.25 87 19 87 19 L 87 20 L 88 20 L 88 19 C 88 19 89.75 16.25 90 15.5 C 89.53445 15.5 88.492153 16.848154 87.767578 17.871094 C 87.800588 16.729064 87.880914 15.61813 88 14.75 C 88.05898 14.32 88.75 13.5 88.75 13 C 88.75 11 88.5 11 88 11 z M 104 11 C 103.5 11 103.25 12 103.25 13.25 C 103.25 13.75 103.54677 14.20597 103.5 14.5 C 103.31825 15.64262 103.26602 16.976334 103.25195 17.896484 C 102.52676 16.870584 101.46946 15.5 101 15.5 C 101.25 16.25 103 19 103 19 L 103 20 L 104 20 L 104 19 C 104 19 105.75 16.25 106 15.5 C 105.53445 15.5 104.49215 16.848154 103.76758 17.871094 C 103.80058 16.729064 103.88091 15.61813 104 14.75 C 104.059 14.32 104.75 13.5 104.75 13 C 104.75 11 104.5 11 104 11 z M 120 11 C 119.5 11 119.25 12 119.25 13.25 C 119.25 13.75 119.54677 14.20597 119.5 14.5 C 119.31825 15.64262 119.26602 16.976334 119.25195 17.896484 C 118.52676 16.870584 117.46946 15.5 117 15.5 C 117.25 16.25 119 19 119 19 L 119 20 L 120 20 L 120 19 C 120 19 121.75 16.25 122 15.5 C 121.53445 15.5 120.49215 16.848154 119.76758 17.871094 C 119.80058 16.729064 119.88091 15.61813 120 14.75 C 120.059 14.32 120.75 13.5 120.75 13 C 120.75 11 120.5 11 120 11 z M 0 19 L 0 22.75 C 0.05898 22.32 0.75 21.5 0.75 21 C 0.75 19 0.5 19 0 19 z M 16 19 C 15.5 19 15.25 20 15.25 21.25 C 15.25 21.75 15.54677 22.20597 15.5 22.5 C 15.318245 23.64262 15.266018 24.976334 15.251953 25.896484 C 14.52676 24.870584 13.469458 23.5 13 23.5 C 13.25 24.25 15 27 15 27 L 15 28 L 16 28 L 16 27 C 16 27 17.75 24.25 18 23.5 C 17.53445 23.5 16.492153 24.848154 15.767578 25.871094 C 15.800588 24.729064 15.880914 23.61813 16 22.75 C 16.05898 22.32 16.75 21.5 16.75 21 C 16.75 19 16.5 19 16 19 z M 32 19 C 31.5 19 31.25 20 31.25 21.25 C 31.25 21.75 31.54677 22.20597 31.5 22.5 C 31.318245 23.64262 31.266018 24.976334 31.251953 25.896484 C 30.52676 24.870584 29.469458 23.5 29 23.5 C 29.25 24.25 31 27 31 27 L 31 28 L 32 28 L 32 27 C 32 27 33.75 24.25 34 23.5 C 33.53445 23.5 32.492153 24.848154 31.767578 25.871094 C 31.800588 24.729064 31.880914 23.61813 32 22.75 C 32.05898 22.32 32.75 21.5 32.75 21 C 32.75 19 32.5 19 32 19 z M 48 19 C 47.5 19 47.25 20 47.25 21.25 C 47.25 21.75 47.54677 22.20597 47.5 22.5 C 47.318245 23.64262 47.266018 24.976334 47.251953 25.896484 C 46.52676 24.870584 45.469458 23.5 45 23.5 C 45.25 24.25 47 27 47 27 L 47 28 L 48 28 L 48 27 C 48 27 49.75 24.25 50 23.5 C 49.53445 23.5 48.492153 24.848154 47.767578 25.871094 C 47.800588 24.729064 47.880914 23.61813 48 22.75 C 48.05898 22.32 48.75 21.5 48.75 21 C 48.75 19 48.5 19 48 19 z M 64 19 C 63.5 19 63.25 20 63.25 21.25 C 63.25 21.75 63.54677 22.20597 63.5 22.5 C 63.318245 23.64262 63.266018 24.976334 63.251953 25.896484 C 62.52676 24.870584 61.469458 23.5 61 23.5 C 61.25 24.25 63 27 63 27 L 63 28 L 64 28 L 64 27 C 64 27 65.75 24.25 66 23.5 C 65.53445 23.5 64.492153 24.848154 63.767578 25.871094 C 63.800588 24.729064 63.880914 23.61813 64 22.75 C 64.05898 22.32 64.75 21.5 64.75 21 C 64.75 19 64.5 19 64 19 z M 80 19 C 79.5 19 79.25 20 79.25 21.25 C 79.25 21.75 79.54677 22.20597 79.5 22.5 C 79.318245 23.64262 79.266018 24.976334 79.251953 25.896484 C 78.52676 24.870584 77.469458 23.5 77 23.5 C 77.25 24.25 79 27 79 27 L 79 28 L 80 28 L 80 27 C 80 27 81.75 24.25 82 23.5 C 81.53445 23.5 80.492153 24.848154 79.767578 25.871094 C 79.800588 24.729064 79.880914 23.61813 80 22.75 C 80.05898 22.32 80.75 21.5 80.75 21 C 80.75 19 80.5 19 80 19 z M 96 19 C 95.5 19 95.25 20 95.25 21.25 C 95.25 21.75 95.54677 22.20597 95.5 22.5 C 95.318245 23.64262 95.266018 24.976334 95.251953 25.896484 C 94.52676 24.870584 93.469458 23.5 93 23.5 C 93.25 24.25 95 27 95 27 L 95 28 L 96 28 L 96 27 C 96 27 97.75 24.25 98 23.5 C 97.53445 23.5 96.492153 24.848154 95.767578 25.871094 C 95.800588 24.729064 95.880914 23.61813 96 22.75 C 96.05898 22.32 96.75 21.5 96.75 21 C 96.75 19 96.5 19 96 19 z M 112 19 C 111.5 19 111.25 20 111.25 21.25 C 111.25 21.75 111.54677 22.20597 111.5 22.5 C 111.31825 23.64262 111.26602 24.976334 111.25195 25.896484 C 110.52676 24.870584 109.46946 23.5 109 23.5 C 109.25 24.25 111 27 111 27 L 111 28 L 112 28 L 112 27 C 112 27 113.75 24.25 114 23.5 C 113.53445 23.5 112.49215 24.848154 111.76758 25.871094 C 111.80058 24.729064 111.88091 23.61813 112 22.75 C 112.059 22.32 112.75 21.5 112.75 21 C 112.75 19 112.5 19 112 19 z M 128 19 C 127.5 19 127.25 20 127.25 21.25 C 127.25 21.75 127.54677 22.20597 127.5 22.5 C 127.31825 23.64262 127.26602 24.976334 127.25195 25.896484 C 126.52676 24.870584 125.46946 23.5 125 23.5 C 125.25 24.25 127 27 127 27 L 127 28 L 128 28 L 128 27 L 128 25.570312 C 127.92549 25.672876 127.83704 25.773033 127.76758 25.871094 C 127.80058 24.729064 127.88091 23.61813 128 22.75 L 128 19 z M 2 23.5 C 1.5790783 23.5 0.70275969 24.602963 0 25.570312 L 0 27 C 0 27 1.75 24.25 2 23.5 z M 8 27 C 7.5 27 7.25 28 7.25 29.25 C 7.25 29.75 7.54677 30.20597 7.5 30.5 C 7.318245 31.64262 7.2660181 32.976334 7.2519531 33.896484 C 6.5267601 32.870584 5.469458 31.5 5 31.5 C 5.25 32.25 7 35 7 35 L 7 36 L 8 36 L 8 35 C 8 35 9.75 32.25 10 31.5 C 9.53445 31.5 8.4921531 32.848154 7.7675781 33.871094 C 7.8005881 32.729064 7.880914 31.61813 8 30.75 C 8.05898 30.32 8.75 29.5 8.75 29 C 8.75 27 8.5 27 8 27 z M 24 27 C 23.5 27 23.25 28 23.25 29.25 C 23.25 29.75 23.54677 30.20597 23.5 30.5 C 23.318245 31.64262 23.266018 32.976334 23.251953 33.896484 C 22.52676 32.870584 21.469458 31.5 21 31.5 C 21.25 32.25 23 35 23 35 L 23 36 L 24 36 L 24 35 C 24 35 25.75 32.25 26 31.5 C 25.53445 31.5 24.492153 32.848154 23.767578 33.871094 C 23.800588 32.729064 23.880914 31.61813 24 30.75 C 24.05898 30.32 24.75 29.5 24.75 29 C 24.75 27 24.5 27 24 27 z M 40 27 C 39.5 27 39.25 28 39.25 29.25 C 39.25 29.75 39.54677 30.20597 39.5 30.5 C 39.318245 31.64262 39.266018 32.976334 39.251953 33.896484 C 38.52676 32.870584 37.469458 31.5 37 31.5 C 37.25 32.25 39 35 39 35 L 39 36 L 40 36 L 40 35 C 40 35 41.75 32.25 42 31.5 C 41.53445 31.5 40.492153 32.848154 39.767578 33.871094 C 39.800588 32.729064 39.880914 31.61813 40 30.75 C 40.05898 30.32 40.75 29.5 40.75 29 C 40.75 27 40.5 27 40 27 z M 56 27 C 55.5 27 55.25 28 55.25 29.25 C 55.25 29.75 55.54677 30.20597 55.5 30.5 C 55.318245 31.64262 55.266018 32.976334 55.251953 33.896484 C 54.52676 32.870584 53.469458 31.5 53 31.5 C 53.25 32.25 55 35 55 35 L 55 36 L 56 36 L 56 35 C 56 35 57.75 32.25 58 31.5 C 57.53445 31.5 56.492153 32.848154 55.767578 33.871094 C 55.800588 32.729064 55.880914 31.61813 56 30.75 C 56.05898 30.32 56.75 29.5 56.75 29 C 56.75 27 56.5 27 56 27 z M 72 27 C 71.5 27 71.25 28 71.25 29.25 C 71.25 29.75 71.54677 30.20597 71.5 30.5 C 71.318245 31.64262 71.266018 32.976334 71.251953 33.896484 C 70.52676 32.870584 69.469458 31.5 69 31.5 C 69.25 32.25 71 35 71 35 L 71 36 L 72 36 L 72 35 C 72 35 73.75 32.25 74 31.5 C 73.53445 31.5 72.492153 32.848154 71.767578 33.871094 C 71.800588 32.729064 71.880914 31.61813 72 30.75 C 72.05898 30.32 72.75 29.5 72.75 29 C 72.75 27 72.5 27 72 27 z M 88 27 C 87.5 27 87.25 28 87.25 29.25 C 87.25 29.75 87.54677 30.20597 87.5 30.5 C 87.318245 31.64262 87.266018 32.976334 87.251953 33.896484 C 86.52676 32.870584 85.469458 31.5 85 31.5 C 85.25 32.25 87 35 87 35 L 87 36 L 88 36 L 88 35 C 88 35 89.75 32.25 90 31.5 C 89.53445 31.5 88.492153 32.848154 87.767578 33.871094 C 87.800588 32.729064 87.880914 31.61813 88 30.75 C 88.05898 30.32 88.75 29.5 88.75 29 C 88.75 27 88.5 27 88 27 z M 104 27 C 103.5 27 103.25 28 103.25 29.25 C 103.25 29.75 103.54677 30.20597 103.5 30.5 C 103.31825 31.64262 103.26602 32.976334 103.25195 33.896484 C 102.52676 32.870584 101.46946 31.5 101 31.5 C 101.25 32.25 103 35 103 35 L 103 36 L 104 36 L 104 35 C 104 35 105.75 32.25 106 31.5 C 105.53445 31.5 104.49215 32.848154 103.76758 33.871094 C 103.80058 32.729064 103.88091 31.61813 104 30.75 C 104.059 30.32 104.75 29.5 104.75 29 C 104.75 27 104.5 27 104 27 z M 120 27 C 119.5 27 119.25 28 119.25 29.25 C 119.25 29.75 119.54677 30.20597 119.5 30.5 C 119.31825 31.64262 119.26602 32.976334 119.25195 33.896484 C 118.52676 32.870584 117.46946 31.5 117 31.5 C 117.25 32.25 119 35 119 35 L 119 36 L 120 36 L 120 35 C 120 35 121.75 32.25 122 31.5 C 121.53445 31.5 120.49215 32.848154 119.76758 33.871094 C 119.80058 32.729064 119.88091 31.61813 120 30.75 C 120.059 30.32 120.75 29.5 120.75 29 C 120.75 27 120.5 27 120 27 z M 0 35 L 0 38.75 C 0.05898 38.32 0.75 37.5 0.75 37 C 0.75 35 0.5 35 0 35 z M 16 35 C 15.5 35 15.25 36 15.25 37.25 C 15.25 37.75 15.54677 38.20597 15.5 38.5 C 15.318245 39.64262 15.266018 40.976334 15.251953 41.896484 C 14.52676 40.870584 13.469458 39.5 13 39.5 C 13.25 40.25 15 43 15 43 L 15 44 L 16 44 L 16 43 C 16 43 17.75 40.25 18 39.5 C 17.53445 39.5 16.492153 40.848154 15.767578 41.871094 C 15.800588 40.729064 15.880914 39.61813 16 38.75 C 16.05898 38.32 16.75 37.5 16.75 37 C 16.75 35 16.5 35 16 35 z M 32 35 C 31.5 35 31.25 36 31.25 37.25 C 31.25 37.75 31.54677 38.20597 31.5 38.5 C 31.318245 39.64262 31.266018 40.976334 31.251953 41.896484 C 30.52676 40.870584 29.469458 39.5 29 39.5 C 29.25 40.25 31 43 31 43 L 31 44 L 32 44 L 32 43 C 32 43 33.75 40.25 34 39.5 C 33.53445 39.5 32.492153 40.848154 31.767578 41.871094 C 31.800588 40.729064 31.880914 39.61813 32 38.75 C 32.05898 38.32 32.75 37.5 32.75 37 C 32.75 35 32.5 35 32 35 z M 48 35 C 47.5 35 47.25 36 47.25 37.25 C 47.25 37.75 47.54677 38.20597 47.5 38.5 C 47.318245 39.64262 47.266018 40.976334 47.251953 41.896484 C 46.52676 40.870584 45.469458 39.5 45 39.5 C 45.25 40.25 47 43 47 43 L 47 44 L 48 44 L 48 43 C 48 43 49.75 40.25 50 39.5 C 49.53445 39.5 48.492153 40.848154 47.767578 41.871094 C 47.800588 40.729064 47.880914 39.61813 48 38.75 C 48.05898 38.32 48.75 37.5 48.75 37 C 48.75 35 48.5 35 48 35 z M 64 35 C 63.5 35 63.25 36 63.25 37.25 C 63.25 37.75 63.54677 38.20597 63.5 38.5 C 63.318245 39.64262 63.266018 40.976334 63.251953 41.896484 C 62.52676 40.870584 61.469458 39.5 61 39.5 C 61.25 40.25 63 43 63 43 L 63 44 L 64 44 L 64 43 C 64 43 65.75 40.25 66 39.5 C 65.53445 39.5 64.492153 40.848154 63.767578 41.871094 C 63.800588 40.729064 63.880914 39.61813 64 38.75 C 64.05898 38.32 64.75 37.5 64.75 37 C 64.75 35 64.5 35 64 35 z M 80 35 C 79.5 35 79.25 36 79.25 37.25 C 79.25 37.75 79.54677 38.20597 79.5 38.5 C 79.318245 39.64262 79.266018 40.976334 79.251953 41.896484 C 78.52676 40.870584 77.469458 39.5 77 39.5 C 77.25 40.25 79 43 79 43 L 79 44 L 80 44 L 80 43 C 80 43 81.75 40.25 82 39.5 C 81.53445 39.5 80.492153 40.848154 79.767578 41.871094 C 79.800588 40.729064 79.880914 39.61813 80 38.75 C 80.05898 38.32 80.75 37.5 80.75 37 C 80.75 35 80.5 35 80 35 z M 96 35 C 95.5 35 95.25 36 95.25 37.25 C 95.25 37.75 95.54677 38.20597 95.5 38.5 C 95.318245 39.64262 95.266018 40.976334 95.251953 41.896484 C 94.52676 40.870584 93.469458 39.5 93 39.5 C 93.25 40.25 95 43 95 43 L 95 44 L 96 44 L 96 43 C 96 43 97.75 40.25 98 39.5 C 97.53445 39.5 96.492153 40.848154 95.767578 41.871094 C 95.800588 40.729064 95.880914 39.61813 96 38.75 C 96.05898 38.32 96.75 37.5 96.75 37 C 96.75 35 96.5 35 96 35 z M 112 35 C 111.5 35 111.25 36 111.25 37.25 C 111.25 37.75 111.54677 38.20597 111.5 38.5 C 111.31825 39.64262 111.26602 40.976334 111.25195 41.896484 C 110.52676 40.870584 109.46946 39.5 109 39.5 C 109.25 40.25 111 43 111 43 L 111 44 L 112 44 L 112 43 C 112 43 113.75 40.25 114 39.5 C 113.53445 39.5 112.49215 40.848154 111.76758 41.871094 C 111.80058 40.729064 111.88091 39.61813 112 38.75 C 112.059 38.32 112.75 37.5 112.75 37 C 112.75 35 112.5 35 112 35 z M 128 35 C 127.5 35 127.25 36 127.25 37.25 C 127.25 37.75 127.54677 38.20597 127.5 38.5 C 127.31825 39.64262 127.26602 40.976334 127.25195 41.896484 C 126.52676 40.870584 125.46946 39.5 125 39.5 C 125.25 40.25 127 43 127 43 L 127 44 L 128 44 L 128 43 L 128 41.570312 C 127.92549 41.672876 127.83704 41.773033 127.76758 41.871094 C 127.80058 40.729064 127.88091 39.61813 128 38.75 L 128 35 z M 2 39.5 C 1.5790783 39.5 0.70275969 40.602963 0 41.570312 L 0 43 C 0 43 1.75 40.25 2 39.5 z M 8 43 C 7.5 43 7.25 44 7.25 45.25 C 7.25 45.75 7.54677 46.20597 7.5 46.5 C 7.318245 47.64262 7.2660181 48.976334 7.2519531 49.896484 C 6.5267601 48.870584 5.469458 47.5 5 47.5 C 5.25 48.25 7 51 7 51 L 7 52 L 8 52 L 8 51 C 8 51 9.75 48.25 10 47.5 C 9.53445 47.5 8.4921531 48.848154 7.7675781 49.871094 C 7.8005881 48.729064 7.880914 47.61813 8 46.75 C 8.05898 46.32 8.75 45.5 8.75 45 C 8.75 43 8.5 43 8 43 z M 24 43 C 23.5 43 23.25 44 23.25 45.25 C 23.25 45.75 23.54677 46.20597 23.5 46.5 C 23.318245 47.64262 23.266018 48.976334 23.251953 49.896484 C 22.52676 48.870584 21.469458 47.5 21 47.5 C 21.25 48.25 23 51 23 51 L 23 52 L 24 52 L 24 51 C 24 51 25.75 48.25 26 47.5 C 25.53445 47.5 24.492153 48.848154 23.767578 49.871094 C 23.800588 48.729064 23.880914 47.61813 24 46.75 C 24.05898 46.32 24.75 45.5 24.75 45 C 24.75 43 24.5 43 24 43 z M 40 43 C 39.5 43 39.25 44 39.25 45.25 C 39.25 45.75 39.54677 46.20597 39.5 46.5 C 39.318245 47.64262 39.266018 48.976334 39.251953 49.896484 C 38.52676 48.870584 37.469458 47.5 37 47.5 C 37.25 48.25 39 51 39 51 L 39 52 L 40 52 L 40 51 C 40 51 41.75 48.25 42 47.5 C 41.53445 47.5 40.492153 48.848154 39.767578 49.871094 C 39.800588 48.729064 39.880914 47.61813 40 46.75 C 40.05898 46.32 40.75 45.5 40.75 45 C 40.75 43 40.5 43 40 43 z M 56 43 C 55.5 43 55.25 44 55.25 45.25 C 55.25 45.75 55.54677 46.20597 55.5 46.5 C 55.318245 47.64262 55.266018 48.976334 55.251953 49.896484 C 54.52676 48.870584 53.469458 47.5 53 47.5 C 53.25 48.25 55 51 55 51 L 55 52 L 56 52 L 56 51 C 56 51 57.75 48.25 58 47.5 C 57.53445 47.5 56.492153 48.848154 55.767578 49.871094 C 55.800588 48.729064 55.880914 47.61813 56 46.75 C 56.05898 46.32 56.75 45.5 56.75 45 C 56.75 43 56.5 43 56 43 z M 72 43 C 71.5 43 71.25 44 71.25 45.25 C 71.25 45.75 71.54677 46.20597 71.5 46.5 C 71.318245 47.64262 71.266018 48.976334 71.251953 49.896484 C 70.52676 48.870584 69.469458 47.5 69 47.5 C 69.25 48.25 71 51 71 51 L 71 52 L 72 52 L 72 51 C 72 51 73.75 48.25 74 47.5 C 73.53445 47.5 72.492153 48.848154 71.767578 49.871094 C 71.800588 48.729064 71.880914 47.61813 72 46.75 C 72.05898 46.32 72.75 45.5 72.75 45 C 72.75 43 72.5 43 72 43 z M 88 43 C 87.5 43 87.25 44 87.25 45.25 C 87.25 45.75 87.54677 46.20597 87.5 46.5 C 87.318245 47.64262 87.266018 48.976334 87.251953 49.896484 C 86.52676 48.870584 85.469458 47.5 85 47.5 C 85.25 48.25 87 51 87 51 L 87 52 L 88 52 L 88 51 C 88 51 89.75 48.25 90 47.5 C 89.53445 47.5 88.492153 48.848154 87.767578 49.871094 C 87.800588 48.729064 87.880914 47.61813 88 46.75 C 88.05898 46.32 88.75 45.5 88.75 45 C 88.75 43 88.5 43 88 43 z M 104 43 C 103.5 43 103.25 44 103.25 45.25 C 103.25 45.75 103.54677 46.20597 103.5 46.5 C 103.31825 47.64262 103.26602 48.976334 103.25195 49.896484 C 102.52676 48.870584 101.46946 47.5 101 47.5 C 101.25 48.25 103 51 103 51 L 103 52 L 104 52 L 104 51 C 104 51 105.75 48.25 106 47.5 C 105.53445 47.5 104.49215 48.848154 103.76758 49.871094 C 103.80058 48.729064 103.88091 47.61813 104 46.75 C 104.059 46.32 104.75 45.5 104.75 45 C 104.75 43 104.5 43 104 43 z M 120 43 C 119.5 43 119.25 44 119.25 45.25 C 119.25 45.75 119.54677 46.20597 119.5 46.5 C 119.31825 47.64262 119.26602 48.976334 119.25195 49.896484 C 118.52676 48.870584 117.46946 47.5 117 47.5 C 117.25 48.25 119 51 119 51 L 119 52 L 120 52 L 120 51 C 120 51 121.75 48.25 122 47.5 C 121.53445 47.5 120.49215 48.848154 119.76758 49.871094 C 119.80058 48.729064 119.88091 47.61813 120 46.75 C 120.059 46.32 120.75 45.5 120.75 45 C 120.75 43 120.5 43 120 43 z M 0 51 L 0 54.75 C 0.05898 54.32 0.75 53.5 0.75 53 C 0.75 51 0.5 51 0 51 z M 16 51 C 15.5 51 15.25 52 15.25 53.25 C 15.25 53.75 15.54677 54.20597 15.5 54.5 C 15.318245 55.64262 15.266018 56.976334 15.251953 57.896484 C 14.52676 56.870584 13.469458 55.5 13 55.5 C 13.25 56.25 15 59 15 59 L 15 60 L 16 60 L 16 59 C 16 59 17.75 56.25 18 55.5 C 17.53445 55.5 16.492153 56.848154 15.767578 57.871094 C 15.800588 56.729064 15.880914 55.61813 16 54.75 C 16.05898 54.32 16.75 53.5 16.75 53 C 16.75 51 16.5 51 16 51 z M 32 51 C 31.5 51 31.25 52 31.25 53.25 C 31.25 53.75 31.54677 54.20597 31.5 54.5 C 31.318245 55.64262 31.266018 56.976334 31.251953 57.896484 C 30.52676 56.870584 29.469458 55.5 29 55.5 C 29.25 56.25 31 59 31 59 L 31 60 L 32 60 L 32 59 C 32 59 33.75 56.25 34 55.5 C 33.53445 55.5 32.492153 56.848154 31.767578 57.871094 C 31.800588 56.729064 31.880914 55.61813 32 54.75 C 32.05898 54.32 32.75 53.5 32.75 53 C 32.75 51 32.5 51 32 51 z M 48 51 C 47.5 51 47.25 52 47.25 53.25 C 47.25 53.75 47.54677 54.20597 47.5 54.5 C 47.318245 55.64262 47.266018 56.976334 47.251953 57.896484 C 46.52676 56.870584 45.469458 55.5 45 55.5 C 45.25 56.25 47 59 47 59 L 47 60 L 48 60 L 48 59 C 48 59 49.75 56.25 50 55.5 C 49.53445 55.5 48.492153 56.848154 47.767578 57.871094 C 47.800588 56.729064 47.880914 55.61813 48 54.75 C 48.05898 54.32 48.75 53.5 48.75 53 C 48.75 51 48.5 51 48 51 z M 64 51 C 63.5 51 63.25 52 63.25 53.25 C 63.25 53.75 63.54677 54.20597 63.5 54.5 C 63.318245 55.64262 63.266018 56.976334 63.251953 57.896484 C 62.52676 56.870584 61.469458 55.5 61 55.5 C 61.25 56.25 63 59 63 59 L 63 60 L 64 60 L 64 59 C 64 59 65.75 56.25 66 55.5 C 65.53445 55.5 64.492153 56.848154 63.767578 57.871094 C 63.800588 56.729064 63.880914 55.61813 64 54.75 C 64.05898 54.32 64.75 53.5 64.75 53 C 64.75 51 64.5 51 64 51 z M 80 51 C 79.5 51 79.25 52 79.25 53.25 C 79.25 53.75 79.54677 54.20597 79.5 54.5 C 79.318245 55.64262 79.266018 56.976334 79.251953 57.896484 C 78.52676 56.870584 77.469458 55.5 77 55.5 C 77.25 56.25 79 59 79 59 L 79 60 L 80 60 L 80 59 C 80 59 81.75 56.25 82 55.5 C 81.53445 55.5 80.492153 56.848154 79.767578 57.871094 C 79.800588 56.729064 79.880914 55.61813 80 54.75 C 80.05898 54.32 80.75 53.5 80.75 53 C 80.75 51 80.5 51 80 51 z M 96 51 C 95.5 51 95.25 52 95.25 53.25 C 95.25 53.75 95.54677 54.20597 95.5 54.5 C 95.318245 55.64262 95.266018 56.976334 95.251953 57.896484 C 94.52676 56.870584 93.469458 55.5 93 55.5 C 93.25 56.25 95 59 95 59 L 95 60 L 96 60 L 96 59 C 96 59 97.75 56.25 98 55.5 C 97.53445 55.5 96.492153 56.848154 95.767578 57.871094 C 95.800588 56.729064 95.880914 55.61813 96 54.75 C 96.05898 54.32 96.75 53.5 96.75 53 C 96.75 51 96.5 51 96 51 z M 112 51 C 111.5 51 111.25 52 111.25 53.25 C 111.25 53.75 111.54677 54.20597 111.5 54.5 C 111.31825 55.64262 111.26602 56.976334 111.25195 57.896484 C 110.52676 56.870584 109.46946 55.5 109 55.5 C 109.25 56.25 111 59 111 59 L 111 60 L 112 60 L 112 59 C 112 59 113.75 56.25 114 55.5 C 113.53445 55.5 112.49215 56.848154 111.76758 57.871094 C 111.80058 56.729064 111.88091 55.61813 112 54.75 C 112.059 54.32 112.75 53.5 112.75 53 C 112.75 51 112.5 51 112 51 z M 128 51 C 127.5 51 127.25 52 127.25 53.25 C 127.25 53.75 127.54677 54.20597 127.5 54.5 C 127.31825 55.64262 127.26602 56.976334 127.25195 57.896484 C 126.52676 56.870584 125.46946 55.5 125 55.5 C 125.25 56.25 127 59 127 59 L 127 60 L 128 60 L 128 59 L 128 57.570312 C 127.92549 57.672876 127.83704 57.773033 127.76758 57.871094 C 127.80058 56.729064 127.88091 55.61813 128 54.75 L 128 51 z M 2 55.5 C 1.5790783 55.5 0.70275969 56.602963 0 57.570312 L 0 59 C 0 59 1.75 56.25 2 55.5 z M 8 59 C 7.5 59 7.25 60 7.25 61.25 C 7.25 61.75 7.54677 62.20597 7.5 62.5 C 7.318245 63.64262 7.2660181 64.976334 7.2519531 65.896484 C 6.5267601 64.870584 5.469458 63.5 5 63.5 C 5.25 64.25 7 67 7 67 L 7 68 L 8 68 L 8 67 C 8 67 9.75 64.25 10 63.5 C 9.53445 63.5 8.4921531 64.848154 7.7675781 65.871094 C 7.8005881 64.729064 7.880914 63.61813 8 62.75 C 8.05898 62.32 8.75 61.5 8.75 61 C 8.75 59 8.5 59 8 59 z M 24 59 C 23.5 59 23.25 60 23.25 61.25 C 23.25 61.75 23.54677 62.20597 23.5 62.5 C 23.318245 63.64262 23.266018 64.976334 23.251953 65.896484 C 22.52676 64.870584 21.469458 63.5 21 63.5 C 21.25 64.25 23 67 23 67 L 23 68 L 24 68 L 24 67 C 24 67 25.75 64.25 26 63.5 C 25.53445 63.5 24.492153 64.848154 23.767578 65.871094 C 23.800588 64.729064 23.880914 63.61813 24 62.75 C 24.05898 62.32 24.75 61.5 24.75 61 C 24.75 59 24.5 59 24 59 z M 40 59 C 39.5 59 39.25 60 39.25 61.25 C 39.25 61.75 39.54677 62.20597 39.5 62.5 C 39.318245 63.64262 39.266018 64.976334 39.251953 65.896484 C 38.52676 64.870584 37.469458 63.5 37 63.5 C 37.25 64.25 39 67 39 67 L 39 68 L 40 68 L 40 67 C 40 67 41.75 64.25 42 63.5 C 41.53445 63.5 40.492153 64.848154 39.767578 65.871094 C 39.800588 64.729064 39.880914 63.61813 40 62.75 C 40.05898 62.32 40.75 61.5 40.75 61 C 40.75 59 40.5 59 40 59 z M 56 59 C 55.5 59 55.25 60 55.25 61.25 C 55.25 61.75 55.54677 62.20597 55.5 62.5 C 55.318245 63.64262 55.266018 64.976334 55.251953 65.896484 C 54.52676 64.870584 53.469458 63.5 53 63.5 C 53.25 64.25 55 67 55 67 L 55 68 L 56 68 L 56 67 C 56 67 57.75 64.25 58 63.5 C 57.53445 63.5 56.492153 64.848154 55.767578 65.871094 C 55.800588 64.729064 55.880914 63.61813 56 62.75 C 56.05898 62.32 56.75 61.5 56.75 61 C 56.75 59 56.5 59 56 59 z M 72 59 C 71.5 59 71.25 60 71.25 61.25 C 71.25 61.75 71.54677 62.20597 71.5 62.5 C 71.318245 63.64262 71.266018 64.976334 71.251953 65.896484 C 70.52676 64.870584 69.469458 63.5 69 63.5 C 69.25 64.25 71 67 71 67 L 71 68 L 72 68 L 72 67 C 72 67 73.75 64.25 74 63.5 C 73.53445 63.5 72.492153 64.848154 71.767578 65.871094 C 71.800588 64.729064 71.880914 63.61813 72 62.75 C 72.05898 62.32 72.75 61.5 72.75 61 C 72.75 59 72.5 59 72 59 z M 88 59 C 87.5 59 87.25 60 87.25 61.25 C 87.25 61.75 87.54677 62.20597 87.5 62.5 C 87.318245 63.64262 87.266018 64.976334 87.251953 65.896484 C 86.52676 64.870584 85.469458 63.5 85 63.5 C 85.25 64.25 87 67 87 67 L 87 68 L 88 68 L 88 67 C 88 67 89.75 64.25 90 63.5 C 89.53445 63.5 88.492153 64.848154 87.767578 65.871094 C 87.800588 64.729064 87.880914 63.61813 88 62.75 C 88.05898 62.32 88.75 61.5 88.75 61 C 88.75 59 88.5 59 88 59 z M 104 59 C 103.5 59 103.25 60 103.25 61.25 C 103.25 61.75 103.54677 62.20597 103.5 62.5 C 103.31825 63.64262 103.26602 64.976334 103.25195 65.896484 C 102.52676 64.870584 101.46946 63.5 101 63.5 C 101.25 64.25 103 67 103 67 L 103 68 L 104 68 L 104 67 C 104 67 105.75 64.25 106 63.5 C 105.53445 63.5 104.49215 64.848154 103.76758 65.871094 C 103.80058 64.729064 103.88091 63.61813 104 62.75 C 104.059 62.32 104.75 61.5 104.75 61 C 104.75 59 104.5 59 104 59 z M 120 59 C 119.5 59 119.25 60 119.25 61.25 C 119.25 61.75 119.54677 62.20597 119.5 62.5 C 119.31825 63.64262 119.26602 64.976334 119.25195 65.896484 C 118.52676 64.870584 117.46946 63.5 117 63.5 C 117.25 64.25 119 67 119 67 L 119 68 L 120 68 L 120 67 C 120 67 121.75 64.25 122 63.5 C 121.53445 63.5 120.49215 64.848154 119.76758 65.871094 C 119.80058 64.729064 119.88091 63.61813 120 62.75 C 120.059 62.32 120.75 61.5 120.75 61 C 120.75 59 120.5 59 120 59 z M 0 67 L 0 70.75 C 0.05898 70.32 0.75 69.5 0.75 69 C 0.75 67 0.5 67 0 67 z M 16 67 C 15.5 67 15.25 68 15.25 69.25 C 15.25 69.75 15.54677 70.20597 15.5 70.5 C 15.318245 71.64262 15.266018 72.976334 15.251953 73.896484 C 14.52676 72.870584 13.469458 71.5 13 71.5 C 13.25 72.25 15 75 15 75 L 15 76 L 16 76 L 16 75 C 16 75 17.75 72.25 18 71.5 C 17.53445 71.5 16.492153 72.848154 15.767578 73.871094 C 15.800588 72.729064 15.880914 71.61813 16 70.75 C 16.05898 70.32 16.75 69.5 16.75 69 C 16.75 67 16.5 67 16 67 z M 32 67 C 31.5 67 31.25 68 31.25 69.25 C 31.25 69.75 31.54677 70.20597 31.5 70.5 C 31.318245 71.64262 31.266018 72.976334 31.251953 73.896484 C 30.52676 72.870584 29.469458 71.5 29 71.5 C 29.25 72.25 31 75 31 75 L 31 76 L 32 76 L 32 75 C 32 75 33.75 72.25 34 71.5 C 33.53445 71.5 32.492153 72.848154 31.767578 73.871094 C 31.800588 72.729064 31.880914 71.61813 32 70.75 C 32.05898 70.32 32.75 69.5 32.75 69 C 32.75 67 32.5 67 32 67 z M 48 67 C 47.5 67 47.25 68 47.25 69.25 C 47.25 69.75 47.54677 70.20597 47.5 70.5 C 47.318245 71.64262 47.266018 72.976334 47.251953 73.896484 C 46.52676 72.870584 45.469458 71.5 45 71.5 C 45.25 72.25 47 75 47 75 L 47 76 L 48 76 L 48 75 C 48 75 49.75 72.25 50 71.5 C 49.53445 71.5 48.492153 72.848154 47.767578 73.871094 C 47.800588 72.729064 47.880914 71.61813 48 70.75 C 48.05898 70.32 48.75 69.5 48.75 69 C 48.75 67 48.5 67 48 67 z M 64 67 C 63.5 67 63.25 68 63.25 69.25 C 63.25 69.75 63.54677 70.20597 63.5 70.5 C 63.318245 71.64262 63.266018 72.976334 63.251953 73.896484 C 62.52676 72.870584 61.469458 71.5 61 71.5 C 61.25 72.25 63 75 63 75 L 63 76 L 64 76 L 64 75 C 64 75 65.75 72.25 66 71.5 C 65.53445 71.5 64.492153 72.848154 63.767578 73.871094 C 63.800588 72.729064 63.880914 71.61813 64 70.75 C 64.05898 70.32 64.75 69.5 64.75 69 C 64.75 67 64.5 67 64 67 z M 80 67 C 79.5 67 79.25 68 79.25 69.25 C 79.25 69.75 79.54677 70.20597 79.5 70.5 C 79.318245 71.64262 79.266018 72.976334 79.251953 73.896484 C 78.52676 72.870584 77.469458 71.5 77 71.5 C 77.25 72.25 79 75 79 75 L 79 76 L 80 76 L 80 75 C 80 75 81.75 72.25 82 71.5 C 81.53445 71.5 80.492153 72.848154 79.767578 73.871094 C 79.800588 72.729064 79.880914 71.61813 80 70.75 C 80.05898 70.32 80.75 69.5 80.75 69 C 80.75 67 80.5 67 80 67 z M 96 67 C 95.5 67 95.25 68 95.25 69.25 C 95.25 69.75 95.54677 70.20597 95.5 70.5 C 95.318245 71.64262 95.266018 72.976334 95.251953 73.896484 C 94.52676 72.870584 93.469458 71.5 93 71.5 C 93.25 72.25 95 75 95 75 L 95 76 L 96 76 L 96 75 C 96 75 97.75 72.25 98 71.5 C 97.53445 71.5 96.492153 72.848154 95.767578 73.871094 C 95.800588 72.729064 95.880914 71.61813 96 70.75 C 96.05898 70.32 96.75 69.5 96.75 69 C 96.75 67 96.5 67 96 67 z M 112 67 C 111.5 67 111.25 68 111.25 69.25 C 111.25 69.75 111.54677 70.20597 111.5 70.5 C 111.31825 71.64262 111.26602 72.976334 111.25195 73.896484 C 110.52676 72.870584 109.46946 71.5 109 71.5 C 109.25 72.25 111 75 111 75 L 111 76 L 112 76 L 112 75 C 112 75 113.75 72.25 114 71.5 C 113.53445 71.5 112.49215 72.848154 111.76758 73.871094 C 111.80058 72.729064 111.88091 71.61813 112 70.75 C 112.059 70.32 112.75 69.5 112.75 69 C 112.75 67 112.5 67 112 67 z M 128 67 C 127.5 67 127.25 68 127.25 69.25 C 127.25 69.75 127.54677 70.20597 127.5 70.5 C 127.31825 71.64262 127.26602 72.976334 127.25195 73.896484 C 126.52676 72.870584 125.46946 71.5 125 71.5 C 125.25 72.25 127 75 127 75 L 127 76 L 128 76 L 128 75 L 128 73.570312 C 127.92549 73.672876 127.83704 73.773033 127.76758 73.871094 C 127.80058 72.729064 127.88091 71.61813 128 70.75 L 128 67 z M 2 71.5 C 1.5790783 71.5 0.70275969 72.602963 0 73.570312 L 0 75 C 0 75 1.75 72.25 2 71.5 z M 8 75 C 7.5 75 7.25 76 7.25 77.25 C 7.25 77.75 7.54677 78.20597 7.5 78.5 C 7.318245 79.64262 7.2660181 80.976334 7.2519531 81.896484 C 6.5267601 80.870584 5.469458 79.5 5 79.5 C 5.25 80.25 7 83 7 83 L 7 84 L 8 84 L 8 83 C 8 83 9.75 80.25 10 79.5 C 9.53445 79.5 8.4921531 80.848154 7.7675781 81.871094 C 7.8005881 80.729064 7.880914 79.61813 8 78.75 C 8.05898 78.32 8.75 77.5 8.75 77 C 8.75 75 8.5 75 8 75 z M 24 75 C 23.5 75 23.25 76 23.25 77.25 C 23.25 77.75 23.54677 78.20597 23.5 78.5 C 23.318245 79.64262 23.266018 80.976334 23.251953 81.896484 C 22.52676 80.870584 21.469458 79.5 21 79.5 C 21.25 80.25 23 83 23 83 L 23 84 L 24 84 L 24 83 C 24 83 25.75 80.25 26 79.5 C 25.53445 79.5 24.492153 80.848154 23.767578 81.871094 C 23.800588 80.729064 23.880914 79.61813 24 78.75 C 24.05898 78.32 24.75 77.5 24.75 77 C 24.75 75 24.5 75 24 75 z M 40 75 C 39.5 75 39.25 76 39.25 77.25 C 39.25 77.75 39.54677 78.20597 39.5 78.5 C 39.318245 79.64262 39.266018 80.976334 39.251953 81.896484 C 38.52676 80.870584 37.469458 79.5 37 79.5 C 37.25 80.25 39 83 39 83 L 39 84 L 40 84 L 40 83 C 40 83 41.75 80.25 42 79.5 C 41.53445 79.5 40.492153 80.848154 39.767578 81.871094 C 39.800588 80.729064 39.880914 79.61813 40 78.75 C 40.05898 78.32 40.75 77.5 40.75 77 C 40.75 75 40.5 75 40 75 z M 56 75 C 55.5 75 55.25 76 55.25 77.25 C 55.25 77.75 55.54677 78.20597 55.5 78.5 C 55.318245 79.64262 55.266018 80.976334 55.251953 81.896484 C 54.52676 80.870584 53.469458 79.5 53 79.5 C 53.25 80.25 55 83 55 83 L 55 84 L 56 84 L 56 83 C 56 83 57.75 80.25 58 79.5 C 57.53445 79.5 56.492153 80.848154 55.767578 81.871094 C 55.800588 80.729064 55.880914 79.61813 56 78.75 C 56.05898 78.32 56.75 77.5 56.75 77 C 56.75 75 56.5 75 56 75 z M 72 75 C 71.5 75 71.25 76 71.25 77.25 C 71.25 77.75 71.54677 78.20597 71.5 78.5 C 71.318245 79.64262 71.266018 80.976334 71.251953 81.896484 C 70.52676 80.870584 69.469458 79.5 69 79.5 C 69.25 80.25 71 83 71 83 L 71 84 L 72 84 L 72 83 C 72 83 73.75 80.25 74 79.5 C 73.53445 79.5 72.492153 80.848154 71.767578 81.871094 C 71.800588 80.729064 71.880914 79.61813 72 78.75 C 72.05898 78.32 72.75 77.5 72.75 77 C 72.75 75 72.5 75 72 75 z M 88 75 C 87.5 75 87.25 76 87.25 77.25 C 87.25 77.75 87.54677 78.20597 87.5 78.5 C 87.318245 79.64262 87.266018 80.976334 87.251953 81.896484 C 86.52676 80.870584 85.469458 79.5 85 79.5 C 85.25 80.25 87 83 87 83 L 87 84 L 88 84 L 88 83 C 88 83 89.75 80.25 90 79.5 C 89.53445 79.5 88.492153 80.848154 87.767578 81.871094 C 87.800588 80.729064 87.880914 79.61813 88 78.75 C 88.05898 78.32 88.75 77.5 88.75 77 C 88.75 75 88.5 75 88 75 z M 104 75 C 103.5 75 103.25 76 103.25 77.25 C 103.25 77.75 103.54677 78.20597 103.5 78.5 C 103.31825 79.64262 103.26602 80.976334 103.25195 81.896484 C 102.52676 80.870584 101.46946 79.5 101 79.5 C 101.25 80.25 103 83 103 83 L 103 84 L 104 84 L 104 83 C 104 83 105.75 80.25 106 79.5 C 105.53445 79.5 104.49215 80.848154 103.76758 81.871094 C 103.80058 80.729064 103.88091 79.61813 104 78.75 C 104.059 78.32 104.75 77.5 104.75 77 C 104.75 75 104.5 75 104 75 z M 120 75 C 119.5 75 119.25 76 119.25 77.25 C 119.25 77.75 119.54677 78.20597 119.5 78.5 C 119.31825 79.64262 119.26602 80.976334 119.25195 81.896484 C 118.52676 80.870584 117.46946 79.5 117 79.5 C 117.25 80.25 119 83 119 83 L 119 84 L 120 84 L 120 83 C 120 83 121.75 80.25 122 79.5 C 121.53445 79.5 120.49215 80.848154 119.76758 81.871094 C 119.80058 80.729064 119.88091 79.61813 120 78.75 C 120.059 78.32 120.75 77.5 120.75 77 C 120.75 75 120.5 75 120 75 z M 0 83 L 0 86.75 C 0.05898 86.32 0.75 85.5 0.75 85 C 0.75 83 0.5 83 0 83 z M 16 83 C 15.5 83 15.25 84 15.25 85.25 C 15.25 85.75 15.54677 86.20597 15.5 86.5 C 15.318245 87.64262 15.266018 88.976334 15.251953 89.896484 C 14.52676 88.870584 13.469458 87.5 13 87.5 C 13.25 88.25 15 91 15 91 L 15 92 L 16 92 L 16 91 C 16 91 17.75 88.25 18 87.5 C 17.53445 87.5 16.492153 88.848154 15.767578 89.871094 C 15.800588 88.729064 15.880914 87.61813 16 86.75 C 16.05898 86.32 16.75 85.5 16.75 85 C 16.75 83 16.5 83 16 83 z M 32 83 C 31.5 83 31.25 84 31.25 85.25 C 31.25 85.75 31.54677 86.20597 31.5 86.5 C 31.318245 87.64262 31.266018 88.976334 31.251953 89.896484 C 30.52676 88.870584 29.469458 87.5 29 87.5 C 29.25 88.25 31 91 31 91 L 31 92 L 32 92 L 32 91 C 32 91 33.75 88.25 34 87.5 C 33.53445 87.5 32.492153 88.848154 31.767578 89.871094 C 31.800588 88.729064 31.880914 87.61813 32 86.75 C 32.05898 86.32 32.75 85.5 32.75 85 C 32.75 83 32.5 83 32 83 z M 48 83 C 47.5 83 47.25 84 47.25 85.25 C 47.25 85.75 47.54677 86.20597 47.5 86.5 C 47.318245 87.64262 47.266018 88.976334 47.251953 89.896484 C 46.52676 88.870584 45.469458 87.5 45 87.5 C 45.25 88.25 47 91 47 91 L 47 92 L 48 92 L 48 91 C 48 91 49.75 88.25 50 87.5 C 49.53445 87.5 48.492153 88.848154 47.767578 89.871094 C 47.800588 88.729064 47.880914 87.61813 48 86.75 C 48.05898 86.32 48.75 85.5 48.75 85 C 48.75 83 48.5 83 48 83 z M 64 83 C 63.5 83 63.25 84 63.25 85.25 C 63.25 85.75 63.54677 86.20597 63.5 86.5 C 63.318245 87.64262 63.266018 88.976334 63.251953 89.896484 C 62.52676 88.870584 61.469458 87.5 61 87.5 C 61.25 88.25 63 91 63 91 L 63 92 L 64 92 L 64 91 C 64 91 65.75 88.25 66 87.5 C 65.53445 87.5 64.492153 88.848154 63.767578 89.871094 C 63.800588 88.729064 63.880914 87.61813 64 86.75 C 64.05898 86.32 64.75 85.5 64.75 85 C 64.75 83 64.5 83 64 83 z M 80 83 C 79.5 83 79.25 84 79.25 85.25 C 79.25 85.75 79.54677 86.20597 79.5 86.5 C 79.318245 87.64262 79.266018 88.976334 79.251953 89.896484 C 78.52676 88.870584 77.469458 87.5 77 87.5 C 77.25 88.25 79 91 79 91 L 79 92 L 80 92 L 80 91 C 80 91 81.75 88.25 82 87.5 C 81.53445 87.5 80.492153 88.848154 79.767578 89.871094 C 79.800588 88.729064 79.880914 87.61813 80 86.75 C 80.05898 86.32 80.75 85.5 80.75 85 C 80.75 83 80.5 83 80 83 z M 96 83 C 95.5 83 95.25 84 95.25 85.25 C 95.25 85.75 95.54677 86.20597 95.5 86.5 C 95.318245 87.64262 95.266018 88.976334 95.251953 89.896484 C 94.52676 88.870584 93.469458 87.5 93 87.5 C 93.25 88.25 95 91 95 91 L 95 92 L 96 92 L 96 91 C 96 91 97.75 88.25 98 87.5 C 97.53445 87.5 96.492153 88.848154 95.767578 89.871094 C 95.800588 88.729064 95.880914 87.61813 96 86.75 C 96.05898 86.32 96.75 85.5 96.75 85 C 96.75 83 96.5 83 96 83 z M 112 83 C 111.5 83 111.25 84 111.25 85.25 C 111.25 85.75 111.54677 86.20597 111.5 86.5 C 111.31825 87.64262 111.26602 88.976334 111.25195 89.896484 C 110.52676 88.870584 109.46946 87.5 109 87.5 C 109.25 88.25 111 91 111 91 L 111 92 L 112 92 L 112 91 C 112 91 113.75 88.25 114 87.5 C 113.53445 87.5 112.49215 88.848154 111.76758 89.871094 C 111.80058 88.729064 111.88091 87.61813 112 86.75 C 112.059 86.32 112.75 85.5 112.75 85 C 112.75 83 112.5 83 112 83 z M 128 83 C 127.5 83 127.25 84 127.25 85.25 C 127.25 85.75 127.54677 86.20597 127.5 86.5 C 127.31825 87.64262 127.26602 88.976334 127.25195 89.896484 C 126.52676 88.870584 125.46946 87.5 125 87.5 C 125.25 88.25 127 91 127 91 L 127 92 L 128 92 L 128 91 L 128 89.570312 C 127.92549 89.672876 127.83704 89.773033 127.76758 89.871094 C 127.80058 88.729064 127.88091 87.61813 128 86.75 L 128 83 z M 2 87.5 C 1.5790783 87.5 0.70275969 88.602963 0 89.570312 L 0 91 C 0 91 1.75 88.25 2 87.5 z M 8 91 C 7.5 91 7.25 92 7.25 93.25 C 7.25 93.75 7.54677 94.20597 7.5 94.5 C 7.318245 95.64262 7.2660181 96.976334 7.2519531 97.896484 C 6.5267601 96.870584 5.469458 95.5 5 95.5 C 5.25 96.25 7 99 7 99 L 7 100 L 8 100 L 8 99 C 8 99 9.75 96.25 10 95.5 C 9.53445 95.5 8.4921531 96.848154 7.7675781 97.871094 C 7.8005881 96.729064 7.880914 95.61813 8 94.75 C 8.05898 94.32 8.75 93.5 8.75 93 C 8.75 91 8.5 91 8 91 z M 24 91 C 23.5 91 23.25 92 23.25 93.25 C 23.25 93.75 23.54677 94.20597 23.5 94.5 C 23.318245 95.64262 23.266018 96.976334 23.251953 97.896484 C 22.52676 96.870584 21.469458 95.5 21 95.5 C 21.25 96.25 23 99 23 99 L 23 100 L 24 100 L 24 99 C 24 99 25.75 96.25 26 95.5 C 25.53445 95.5 24.492153 96.848154 23.767578 97.871094 C 23.800588 96.729064 23.880914 95.61813 24 94.75 C 24.05898 94.32 24.75 93.5 24.75 93 C 24.75 91 24.5 91 24 91 z M 40 91 C 39.5 91 39.25 92 39.25 93.25 C 39.25 93.75 39.54677 94.20597 39.5 94.5 C 39.318245 95.64262 39.266018 96.976334 39.251953 97.896484 C 38.52676 96.870584 37.469458 95.5 37 95.5 C 37.25 96.25 39 99 39 99 L 39 100 L 40 100 L 40 99 C 40 99 41.75 96.25 42 95.5 C 41.53445 95.5 40.492153 96.848154 39.767578 97.871094 C 39.800588 96.729064 39.880914 95.61813 40 94.75 C 40.05898 94.32 40.75 93.5 40.75 93 C 40.75 91 40.5 91 40 91 z M 56 91 C 55.5 91 55.25 92 55.25 93.25 C 55.25 93.75 55.54677 94.20597 55.5 94.5 C 55.318245 95.64262 55.266018 96.976334 55.251953 97.896484 C 54.52676 96.870584 53.469458 95.5 53 95.5 C 53.25 96.25 55 99 55 99 L 55 100 L 56 100 L 56 99 C 56 99 57.75 96.25 58 95.5 C 57.53445 95.5 56.492153 96.848154 55.767578 97.871094 C 55.800588 96.729064 55.880914 95.61813 56 94.75 C 56.05898 94.32 56.75 93.5 56.75 93 C 56.75 91 56.5 91 56 91 z M 72 91 C 71.5 91 71.25 92 71.25 93.25 C 71.25 93.75 71.54677 94.20597 71.5 94.5 C 71.318245 95.64262 71.266018 96.976334 71.251953 97.896484 C 70.52676 96.870584 69.469458 95.5 69 95.5 C 69.25 96.25 71 99 71 99 L 71 100 L 72 100 L 72 99 C 72 99 73.75 96.25 74 95.5 C 73.53445 95.5 72.492153 96.848154 71.767578 97.871094 C 71.800588 96.729064 71.880914 95.61813 72 94.75 C 72.05898 94.32 72.75 93.5 72.75 93 C 72.75 91 72.5 91 72 91 z M 88 91 C 87.5 91 87.25 92 87.25 93.25 C 87.25 93.75 87.54677 94.20597 87.5 94.5 C 87.318245 95.64262 87.266018 96.976334 87.251953 97.896484 C 86.52676 96.870584 85.469458 95.5 85 95.5 C 85.25 96.25 87 99 87 99 L 87 100 L 88 100 L 88 99 C 88 99 89.75 96.25 90 95.5 C 89.53445 95.5 88.492153 96.848154 87.767578 97.871094 C 87.800588 96.729064 87.880914 95.61813 88 94.75 C 88.05898 94.32 88.75 93.5 88.75 93 C 88.75 91 88.5 91 88 91 z M 104 91 C 103.5 91 103.25 92 103.25 93.25 C 103.25 93.75 103.54677 94.20597 103.5 94.5 C 103.31825 95.64262 103.26602 96.976334 103.25195 97.896484 C 102.52676 96.870584 101.46946 95.5 101 95.5 C 101.25 96.25 103 99 103 99 L 103 100 L 104 100 L 104 99 C 104 99 105.75 96.25 106 95.5 C 105.53445 95.5 104.49215 96.848154 103.76758 97.871094 C 103.80058 96.729064 103.88091 95.61813 104 94.75 C 104.059 94.32 104.75 93.5 104.75 93 C 104.75 91 104.5 91 104 91 z M 120 91 C 119.5 91 119.25 92 119.25 93.25 C 119.25 93.75 119.54677 94.20597 119.5 94.5 C 119.31825 95.64262 119.26602 96.976334 119.25195 97.896484 C 118.52676 96.870584 117.46946 95.5 117 95.5 C 117.25 96.25 119 99 119 99 L 119 100 L 120 100 L 120 99 C 120 99 121.75 96.25 122 95.5 C 121.53445 95.5 120.49215 96.848154 119.76758 97.871094 C 119.80058 96.729064 119.88091 95.61813 120 94.75 C 120.059 94.32 120.75 93.5 120.75 93 C 120.75 91 120.5 91 120 91 z M 0 99 L 0 102.75 C 0.05898 102.32 0.75 101.5 0.75 101 C 0.75 99 0.5 99 0 99 z M 16 99 C 15.5 99 15.25 100 15.25 101.25 C 15.25 101.75 15.54677 102.20597 15.5 102.5 C 15.318245 103.64262 15.266018 104.97633 15.251953 105.89648 C 14.52676 104.87058 13.469458 103.5 13 103.5 C 13.25 104.25 15 107 15 107 L 15 108 L 16 108 L 16 107 C 16 107 17.75 104.25 18 103.5 C 17.53445 103.5 16.492153 104.84815 15.767578 105.87109 C 15.800588 104.72906 15.880914 103.61813 16 102.75 C 16.05898 102.32 16.75 101.5 16.75 101 C 16.75 99 16.5 99 16 99 z M 32 99 C 31.5 99 31.25 100 31.25 101.25 C 31.25 101.75 31.54677 102.20597 31.5 102.5 C 31.318245 103.64262 31.266018 104.97633 31.251953 105.89648 C 30.52676 104.87058 29.469458 103.5 29 103.5 C 29.25 104.25 31 107 31 107 L 31 108 L 32 108 L 32 107 C 32 107 33.75 104.25 34 103.5 C 33.53445 103.5 32.492153 104.84815 31.767578 105.87109 C 31.800588 104.72906 31.880914 103.61813 32 102.75 C 32.05898 102.32 32.75 101.5 32.75 101 C 32.75 99 32.5 99 32 99 z M 48 99 C 47.5 99 47.25 100 47.25 101.25 C 47.25 101.75 47.54677 102.20597 47.5 102.5 C 47.318245 103.64262 47.266018 104.97633 47.251953 105.89648 C 46.52676 104.87058 45.469458 103.5 45 103.5 C 45.25 104.25 47 107 47 107 L 47 108 L 48 108 L 48 107 C 48 107 49.75 104.25 50 103.5 C 49.53445 103.5 48.492153 104.84815 47.767578 105.87109 C 47.800588 104.72906 47.880914 103.61813 48 102.75 C 48.05898 102.32 48.75 101.5 48.75 101 C 48.75 99 48.5 99 48 99 z M 64 99 C 63.5 99 63.25 100 63.25 101.25 C 63.25 101.75 63.54677 102.20597 63.5 102.5 C 63.318245 103.64262 63.266018 104.97633 63.251953 105.89648 C 62.52676 104.87058 61.469458 103.5 61 103.5 C 61.25 104.25 63 107 63 107 L 63 108 L 64 108 L 64 107 C 64 107 65.75 104.25 66 103.5 C 65.53445 103.5 64.492153 104.84815 63.767578 105.87109 C 63.800588 104.72906 63.880914 103.61813 64 102.75 C 64.05898 102.32 64.75 101.5 64.75 101 C 64.75 99 64.5 99 64 99 z M 80 99 C 79.5 99 79.25 100 79.25 101.25 C 79.25 101.75 79.54677 102.20597 79.5 102.5 C 79.318245 103.64262 79.266018 104.97633 79.251953 105.89648 C 78.52676 104.87058 77.469458 103.5 77 103.5 C 77.25 104.25 79 107 79 107 L 79 108 L 80 108 L 80 107 C 80 107 81.75 104.25 82 103.5 C 81.53445 103.5 80.492153 104.84815 79.767578 105.87109 C 79.800588 104.72906 79.880914 103.61813 80 102.75 C 80.05898 102.32 80.75 101.5 80.75 101 C 80.75 99 80.5 99 80 99 z M 96 99 C 95.5 99 95.25 100 95.25 101.25 C 95.25 101.75 95.54677 102.20597 95.5 102.5 C 95.318245 103.64262 95.266018 104.97633 95.251953 105.89648 C 94.52676 104.87058 93.469458 103.5 93 103.5 C 93.25 104.25 95 107 95 107 L 95 108 L 96 108 L 96 107 C 96 107 97.75 104.25 98 103.5 C 97.53445 103.5 96.492153 104.84815 95.767578 105.87109 C 95.800588 104.72906 95.880914 103.61813 96 102.75 C 96.05898 102.32 96.75 101.5 96.75 101 C 96.75 99 96.5 99 96 99 z M 112 99 C 111.5 99 111.25 100 111.25 101.25 C 111.25 101.75 111.54677 102.20597 111.5 102.5 C 111.31825 103.64262 111.26602 104.97633 111.25195 105.89648 C 110.52676 104.87058 109.46946 103.5 109 103.5 C 109.25 104.25 111 107 111 107 L 111 108 L 112 108 L 112 107 C 112 107 113.75 104.25 114 103.5 C 113.53445 103.5 112.49215 104.84815 111.76758 105.87109 C 111.80058 104.72906 111.88091 103.61813 112 102.75 C 112.059 102.32 112.75 101.5 112.75 101 C 112.75 99 112.5 99 112 99 z M 128 99 C 127.5 99 127.25 100 127.25 101.25 C 127.25 101.75 127.54677 102.20597 127.5 102.5 C 127.31825 103.64262 127.26602 104.97633 127.25195 105.89648 C 126.52676 104.87058 125.46946 103.5 125 103.5 C 125.25 104.25 127 107 127 107 L 127 108 L 128 108 L 128 107 L 128 105.57031 C 127.92549 105.67288 127.83704 105.77303 127.76758 105.87109 C 127.80058 104.72906 127.88091 103.61813 128 102.75 L 128 99 z M 2 103.5 C 1.5790783 103.5 0.70275969 104.60296 0 105.57031 L 0 107 C 0 107 1.75 104.25 2 103.5 z M 8 107 C 7.5 107 7.25 108 7.25 109.25 C 7.25 109.75 7.54677 110.20597 7.5 110.5 C 7.318245 111.64262 7.2660181 112.97633 7.2519531 113.89648 C 6.5267601 112.87058 5.469458 111.5 5 111.5 C 5.25 112.25 7 115 7 115 L 7 116 L 8 116 L 8 115 C 8 115 9.75 112.25 10 111.5 C 9.53445 111.5 8.4921531 112.84815 7.7675781 113.87109 C 7.8005881 112.72906 7.880914 111.61813 8 110.75 C 8.05898 110.32 8.75 109.5 8.75 109 C 8.75 107 8.5 107 8 107 z M 24 107 C 23.5 107 23.25 108 23.25 109.25 C 23.25 109.75 23.54677 110.20597 23.5 110.5 C 23.318245 111.64262 23.266018 112.97633 23.251953 113.89648 C 22.52676 112.87058 21.469458 111.5 21 111.5 C 21.25 112.25 23 115 23 115 L 23 116 L 24 116 L 24 115 C 24 115 25.75 112.25 26 111.5 C 25.53445 111.5 24.492153 112.84815 23.767578 113.87109 C 23.800588 112.72906 23.880914 111.61813 24 110.75 C 24.05898 110.32 24.75 109.5 24.75 109 C 24.75 107 24.5 107 24 107 z M 40 107 C 39.5 107 39.25 108 39.25 109.25 C 39.25 109.75 39.54677 110.20597 39.5 110.5 C 39.318245 111.64262 39.266018 112.97633 39.251953 113.89648 C 38.52676 112.87058 37.469458 111.5 37 111.5 C 37.25 112.25 39 115 39 115 L 39 116 L 40 116 L 40 115 C 40 115 41.75 112.25 42 111.5 C 41.53445 111.5 40.492153 112.84815 39.767578 113.87109 C 39.800588 112.72906 39.880914 111.61813 40 110.75 C 40.05898 110.32 40.75 109.5 40.75 109 C 40.75 107 40.5 107 40 107 z M 56 107 C 55.5 107 55.25 108 55.25 109.25 C 55.25 109.75 55.54677 110.20597 55.5 110.5 C 55.318245 111.64262 55.266018 112.97633 55.251953 113.89648 C 54.52676 112.87058 53.469458 111.5 53 111.5 C 53.25 112.25 55 115 55 115 L 55 116 L 56 116 L 56 115 C 56 115 57.75 112.25 58 111.5 C 57.53445 111.5 56.492153 112.84815 55.767578 113.87109 C 55.800588 112.72906 55.880914 111.61813 56 110.75 C 56.05898 110.32 56.75 109.5 56.75 109 C 56.75 107 56.5 107 56 107 z M 72 107 C 71.5 107 71.25 108 71.25 109.25 C 71.25 109.75 71.54677 110.20597 71.5 110.5 C 71.318245 111.64262 71.266018 112.97633 71.251953 113.89648 C 70.52676 112.87058 69.469458 111.5 69 111.5 C 69.25 112.25 71 115 71 115 L 71 116 L 72 116 L 72 115 C 72 115 73.75 112.25 74 111.5 C 73.53445 111.5 72.492153 112.84815 71.767578 113.87109 C 71.800588 112.72906 71.880914 111.61813 72 110.75 C 72.05898 110.32 72.75 109.5 72.75 109 C 72.75 107 72.5 107 72 107 z M 88 107 C 87.5 107 87.25 108 87.25 109.25 C 87.25 109.75 87.54677 110.20597 87.5 110.5 C 87.318245 111.64262 87.266018 112.97633 87.251953 113.89648 C 86.52676 112.87058 85.469458 111.5 85 111.5 C 85.25 112.25 87 115 87 115 L 87 116 L 88 116 L 88 115 C 88 115 89.75 112.25 90 111.5 C 89.53445 111.5 88.492153 112.84815 87.767578 113.87109 C 87.800588 112.72906 87.880914 111.61813 88 110.75 C 88.05898 110.32 88.75 109.5 88.75 109 C 88.75 107 88.5 107 88 107 z M 104 107 C 103.5 107 103.25 108 103.25 109.25 C 103.25 109.75 103.54677 110.20597 103.5 110.5 C 103.31825 111.64262 103.26602 112.97633 103.25195 113.89648 C 102.52676 112.87058 101.46946 111.5 101 111.5 C 101.25 112.25 103 115 103 115 L 103 116 L 104 116 L 104 115 C 104 115 105.75 112.25 106 111.5 C 105.53445 111.5 104.49215 112.84815 103.76758 113.87109 C 103.80058 112.72906 103.88091 111.61813 104 110.75 C 104.059 110.32 104.75 109.5 104.75 109 C 104.75 107 104.5 107 104 107 z M 120 107 C 119.5 107 119.25 108 119.25 109.25 C 119.25 109.75 119.54677 110.20597 119.5 110.5 C 119.31825 111.64262 119.26602 112.97633 119.25195 113.89648 C 118.52676 112.87058 117.46946 111.5 117 111.5 C 117.25 112.25 119 115 119 115 L 119 116 L 120 116 L 120 115 C 120 115 121.75 112.25 122 111.5 C 121.53445 111.5 120.49215 112.84815 119.76758 113.87109 C 119.80058 112.72906 119.88091 111.61813 120 110.75 C 120.059 110.32 120.75 109.5 120.75 109 C 120.75 107 120.5 107 120 107 z M 0 115 L 0 118.75 C 0.05898 118.32 0.75 117.5 0.75 117 C 0.75 115 0.5 115 0 115 z M 16 115 C 15.5 115 15.25 116 15.25 117.25 C 15.25 117.75 15.54677 118.20597 15.5 118.5 C 15.318245 119.64262 15.266018 120.97633 15.251953 121.89648 C 14.52676 120.87058 13.469458 119.5 13 119.5 C 13.25 120.25 15 123 15 123 L 15 124 L 16 124 L 16 123 C 16 123 17.75 120.25 18 119.5 C 17.53445 119.5 16.492153 120.84815 15.767578 121.87109 C 15.800588 120.72906 15.880914 119.61813 16 118.75 C 16.05898 118.32 16.75 117.5 16.75 117 C 16.75 115 16.5 115 16 115 z M 32 115 C 31.5 115 31.25 116 31.25 117.25 C 31.25 117.75 31.54677 118.20597 31.5 118.5 C 31.318245 119.64262 31.266018 120.97633 31.251953 121.89648 C 30.52676 120.87058 29.469458 119.5 29 119.5 C 29.25 120.25 31 123 31 123 L 31 124 L 32 124 L 32 123 C 32 123 33.75 120.25 34 119.5 C 33.53445 119.5 32.492153 120.84815 31.767578 121.87109 C 31.800588 120.72906 31.880914 119.61813 32 118.75 C 32.05898 118.32 32.75 117.5 32.75 117 C 32.75 115 32.5 115 32 115 z M 48 115 C 47.5 115 47.25 116 47.25 117.25 C 47.25 117.75 47.54677 118.20597 47.5 118.5 C 47.318245 119.64262 47.266018 120.97633 47.251953 121.89648 C 46.52676 120.87058 45.469458 119.5 45 119.5 C 45.25 120.25 47 123 47 123 L 47 124 L 48 124 L 48 123 C 48 123 49.75 120.25 50 119.5 C 49.53445 119.5 48.492153 120.84815 47.767578 121.87109 C 47.800588 120.72906 47.880914 119.61813 48 118.75 C 48.05898 118.32 48.75 117.5 48.75 117 C 48.75 115 48.5 115 48 115 z M 64 115 C 63.5 115 63.25 116 63.25 117.25 C 63.25 117.75 63.54677 118.20597 63.5 118.5 C 63.318245 119.64262 63.266018 120.97633 63.251953 121.89648 C 62.52676 120.87058 61.469458 119.5 61 119.5 C 61.25 120.25 63 123 63 123 L 63 124 L 64 124 L 64 123 C 64 123 65.75 120.25 66 119.5 C 65.53445 119.5 64.492153 120.84815 63.767578 121.87109 C 63.800588 120.72906 63.880914 119.61813 64 118.75 C 64.05898 118.32 64.75 117.5 64.75 117 C 64.75 115 64.5 115 64 115 z M 80 115 C 79.5 115 79.25 116 79.25 117.25 C 79.25 117.75 79.54677 118.20597 79.5 118.5 C 79.318245 119.64262 79.266018 120.97633 79.251953 121.89648 C 78.52676 120.87058 77.469458 119.5 77 119.5 C 77.25 120.25 79 123 79 123 L 79 124 L 80 124 L 80 123 C 80 123 81.75 120.25 82 119.5 C 81.53445 119.5 80.492153 120.84815 79.767578 121.87109 C 79.800588 120.72906 79.880914 119.61813 80 118.75 C 80.05898 118.32 80.75 117.5 80.75 117 C 80.75 115 80.5 115 80 115 z M 96 115 C 95.5 115 95.25 116 95.25 117.25 C 95.25 117.75 95.54677 118.20597 95.5 118.5 C 95.318245 119.64262 95.266018 120.97633 95.251953 121.89648 C 94.52676 120.87058 93.469458 119.5 93 119.5 C 93.25 120.25 95 123 95 123 L 95 124 L 96 124 L 96 123 C 96 123 97.75 120.25 98 119.5 C 97.53445 119.5 96.492153 120.84815 95.767578 121.87109 C 95.800588 120.72906 95.880914 119.61813 96 118.75 C 96.05898 118.32 96.75 117.5 96.75 117 C 96.75 115 96.5 115 96 115 z M 112 115 C 111.5 115 111.25 116 111.25 117.25 C 111.25 117.75 111.54677 118.20597 111.5 118.5 C 111.31825 119.64262 111.26602 120.97633 111.25195 121.89648 C 110.52676 120.87058 109.46946 119.5 109 119.5 C 109.25 120.25 111 123 111 123 L 111 124 L 112 124 L 112 123 C 112 123 113.75 120.25 114 119.5 C 113.53445 119.5 112.49215 120.84815 111.76758 121.87109 C 111.80058 120.72906 111.88091 119.61813 112 118.75 C 112.059 118.32 112.75 117.5 112.75 117 C 112.75 115 112.5 115 112 115 z M 128 115 C 127.5 115 127.25 116 127.25 117.25 C 127.25 117.75 127.54677 118.20597 127.5 118.5 C 127.31825 119.64262 127.26602 120.97633 127.25195 121.89648 C 126.52676 120.87058 125.46946 119.5 125 119.5 C 125.25 120.25 127 123 127 123 L 127 124 L 128 124 L 128 123 L 128 121.57031 C 127.92549 121.67288 127.83704 121.77303 127.76758 121.87109 C 127.80058 120.72906 127.88091 119.61813 128 118.75 L 128 115 z M 2 119.5 C 1.5790783 119.5 0.70275969 120.60296 0 121.57031 L 0 123 C 0 123 1.75 120.25 2 119.5 z M 8 123 C 7.5 123 7.25 124 7.25 125.25 C 7.25 125.75 7.54677 126.20597 7.5 126.5 C 7.4234699 126.98111 7.3792187 127.49627 7.3417969 128 L 7.90625 128 C 7.9409609 127.588 7.9523041 127.0977 8 126.75 C 8.05898 126.32 8.75 125.5 8.75 125 C 8.75 123 8.5 123 8 123 z M 24 123 C 23.5 123 23.25 124 23.25 125.25 C 23.25 125.75 23.54677 126.20597 23.5 126.5 C 23.42347 126.98111 23.379219 127.49627 23.341797 128 L 23.90625 128 C 23.940961 127.588 23.952304 127.0977 24 126.75 C 24.05898 126.32 24.75 125.5 24.75 125 C 24.75 123 24.5 123 24 123 z M 40 123 C 39.5 123 39.25 124 39.25 125.25 C 39.25 125.75 39.54677 126.20597 39.5 126.5 C 39.42347 126.98111 39.379219 127.49627 39.341797 128 L 39.90625 128 C 39.940961 127.588 39.952304 127.0977 40 126.75 C 40.05898 126.32 40.75 125.5 40.75 125 C 40.75 123 40.5 123 40 123 z M 56 123 C 55.5 123 55.25 124 55.25 125.25 C 55.25 125.75 55.54677 126.20597 55.5 126.5 C 55.42347 126.98111 55.379219 127.49627 55.341797 128 L 55.90625 128 C 55.940961 127.588 55.952304 127.0977 56 126.75 C 56.05898 126.32 56.75 125.5 56.75 125 C 56.75 123 56.5 123 56 123 z M 72 123 C 71.5 123 71.25 124 71.25 125.25 C 71.25 125.75 71.54677 126.20597 71.5 126.5 C 71.42347 126.98111 71.379219 127.49627 71.341797 128 L 71.90625 128 C 71.940961 127.588 71.952304 127.0977 72 126.75 C 72.05898 126.32 72.75 125.5 72.75 125 C 72.75 123 72.5 123 72 123 z M 88 123 C 87.5 123 87.25 124 87.25 125.25 C 87.25 125.75 87.54677 126.20597 87.5 126.5 C 87.42347 126.98111 87.379219 127.49627 87.341797 128 L 87.90625 128 C 87.940961 127.588 87.952304 127.0977 88 126.75 C 88.05898 126.32 88.75 125.5 88.75 125 C 88.75 123 88.5 123 88 123 z M 104 123 C 103.5 123 103.25 124 103.25 125.25 C 103.25 125.75 103.54677 126.20597 103.5 126.5 C 103.42347 126.98111 103.37922 127.49627 103.3418 128 L 103.90625 128 C 103.94096 127.588 103.9523 127.0977 104 126.75 C 104.059 126.32 104.75 125.5 104.75 125 C 104.75 123 104.5 123 104 123 z M 120 123 C 119.5 123 119.25 124 119.25 125.25 C 119.25 125.75 119.54677 126.20597 119.5 126.5 C 119.42347 126.98111 119.37922 127.49627 119.3418 128 L 119.90625 128 C 119.94096 127.588 119.9523 127.0977 120 126.75 C 120.059 126.32 120.75 125.5 120.75 125 C 120.75 123 120.5 123 120 123 z M 5 127.5 C 5.0307769 127.59233 5.1993514 127.85591 5.2695312 128 L 5.7167969 128 C 5.4329938 127.71746 5.1716233 127.5 5 127.5 z M 10 127.5 C 9.8283778 127.5 9.5667722 127.71741 9.2832031 128 L 9.7304688 128 C 9.8006486 127.85591 9.9692231 127.59233 10 127.5 z M 21 127.5 C 21.030777 127.59233 21.199351 127.85591 21.269531 128 L 21.716797 128 C 21.432994 127.71746 21.171623 127.5 21 127.5 z M 26 127.5 C 25.828378 127.5 25.566772 127.71741 25.283203 128 L 25.730469 128 C 25.800649 127.85591 25.969223 127.59233 26 127.5 z M 37 127.5 C 37.030777 127.59233 37.199351 127.85591 37.269531 128 L 37.716797 128 C 37.432994 127.71746 37.171623 127.5 37 127.5 z M 42 127.5 C 41.828378 127.5 41.566772 127.71741 41.283203 128 L 41.730469 128 C 41.800649 127.85591 41.969223 127.59233 42 127.5 z M 53 127.5 C 53.030777 127.59233 53.199351 127.85591 53.269531 128 L 53.716797 128 C 53.432994 127.71746 53.171623 127.5 53 127.5 z M 58 127.5 C 57.828378 127.5 57.566772 127.71741 57.283203 128 L 57.730469 128 C 57.800649 127.85591 57.969223 127.59233 58 127.5 z M 69 127.5 C 69.030777 127.59233 69.199351 127.85591 69.269531 128 L 69.716797 128 C 69.432994 127.71746 69.171623 127.5 69 127.5 z M 74 127.5 C 73.828378 127.5 73.566772 127.71741 73.283203 128 L 73.730469 128 C 73.800649 127.85591 73.969223 127.59233 74 127.5 z M 85 127.5 C 85.030777 127.59233 85.199351 127.85591 85.269531 128 L 85.716797 128 C 85.432994 127.71746 85.171623 127.5 85 127.5 z M 90 127.5 C 89.828378 127.5 89.566772 127.71741 89.283203 128 L 89.730469 128 C 89.800649 127.85591 89.969223 127.59233 90 127.5 z M 101 127.5 C 101.03078 127.59233 101.19935 127.85591 101.26953 128 L 101.7168 128 C 101.43299 127.71746 101.17162 127.5 101 127.5 z M 106 127.5 C 105.82838 127.5 105.56677 127.71741 105.2832 128 L 105.73047 128 C 105.80065 127.85591 105.96922 127.59233 106 127.5 z M 117 127.5 C 117.03078 127.59233 117.19935 127.85591 117.26953 128 L 117.7168 128 C 117.43299 127.71746 117.17162 127.5 117 127.5 z M 122 127.5 C 121.82838 127.5 121.56677 127.71741 121.2832 128 L 121.73047 128 C 121.80065 127.85591 121.96922 127.59233 122 127.5 z " style="fill:#cfd792" />
  <rect
     width="128"
     height="128"
     rx="0"
     x="0"
     y="0"
     id="rect8566"
     style="fill:none;fill-opacity:1;stroke:none" />
  <desc
     id="desc589">Created with Snap</desc>
</svg>
