<?xml version="1.0" encoding="UTF-8" standalone="no"?>
<svg
   xmlns:dc="http://purl.org/dc/elements/1.1/"
   xmlns:cc="http://creativecommons.org/ns#"
   xmlns:rdf="http://www.w3.org/1999/02/22-rdf-syntax-ns#"
   xmlns:svg="http://www.w3.org/2000/svg"
   xmlns="http://www.w3.org/2000/svg"
   version="1.1"
   height="128"
   width="128"
   id="Svg">
  <metadata
     id="metadata594">
    <rdf:RDF>
      <cc:Work
         rdf:about="">
        <dc:format>image/svg+xml</dc:format>
        <dc:type
           rdf:resource="http://purl.org/dc/dcmitype/StillImage" />
      </cc:Work>
    </rdf:RDF>
  </metadata>
  <defs
     id="defs3" />
  <path
     id="path2610"
     d="M 7.0800781 0 C 7.0483384 0.97885815 7.0289865 1.9361343 7.0234375 2.5917969 C 6.3152295 1.6127649 5.428205 0.5 5 0.5 C 5.25 1.25 7 4 7 4 L 8 4 C 8 4 9.75 1.25 10 0.5 C 9.571795 0.5 8.6847705 1.6127649 7.9765625 2.5917969 C 7.9710135 1.9361343 7.9516616 0.97885815 7.9199219 0 L 7.0800781 0 z M 23.080078 0 C 23.048338 0.97885815 23.028986 1.9361343 23.023438 2.5917969 C 22.31523 1.6127649 21.428205 0.5 21 0.5 C 21.25 1.25 23 4 23 4 L 24 4 C 24 4 25.75 1.25 26 0.5 C 25.571795 0.5 24.68477 1.6127649 23.976562 2.5917969 C 23.971014 1.9361343 23.951662 0.97885815 23.919922 0 L 23.080078 0 z M 39.080078 0 C 39.048338 0.97885815 39.028986 1.9361343 39.023438 2.5917969 C 38.31523 1.6127649 37.428205 0.5 37 0.5 C 37.25 1.25 39 4 39 4 L 40 4 C 40 4 41.75 1.25 42 0.5 C 41.571795 0.5 40.68477 1.6127649 39.976562 2.5917969 C 39.971014 1.9361343 39.951662 0.97885815 39.919922 0 L 39.080078 0 z M 55.080078 0 C 55.048338 0.97885815 55.028986 1.9361343 55.023438 2.5917969 C 54.31523 1.6127649 53.428205 0.5 53 0.5 C 53.25 1.25 55 4 55 4 L 56 4 C 56 4 57.75 1.25 58 0.5 C 57.571795 0.5 56.68477 1.6127649 55.976562 2.5917969 C 55.971014 1.9361343 55.951662 0.97885815 55.919922 0 L 55.080078 0 z M 71.080078 0 C 71.048338 0.97885815 71.028986 1.9361343 71.023438 2.5917969 C 70.31523 1.6127649 69.428205 0.5 69 0.5 C 69.25 1.25 71 4 71 4 L 72 4 C 72 4 73.75 1.25 74 0.5 C 73.571795 0.5 72.68477 1.6127649 71.976562 2.5917969 C 71.971014 1.9361343 71.951662 0.97885815 71.919922 0 L 71.080078 0 z M 87.080078 0 C 87.048338 0.97885815 87.028986 1.9361343 87.023438 2.5917969 C 86.31523 1.6127649 85.428205 0.5 85 0.5 C 85.25 1.25 87 4 87 4 L 88 4 C 88 4 89.75 1.25 90 0.5 C 89.571795 0.5 88.68477 1.6127649 87.976562 2.5917969 C 87.971014 1.9361343 87.951662 0.97885815 87.919922 0 L 87.080078 0 z M 103.08008 0 C 103.04834 0.97885815 103.02899 1.9361343 103.02344 2.5917969 C 102.31523 1.6127649 101.42821 0.5 101 0.5 C 101.25 1.25 103 4 103 4 L 104 4 C 104 4 105.75 1.25 106 0.5 C 105.57179 0.5 104.68477 1.6127649 103.97656 2.5917969 C 103.97101 1.9361343 103.95166 0.97885815 103.91992 0 L 103.08008 0 z M 119.08008 0 C 119.04834 0.97885815 119.02899 1.9361343 119.02344 2.5917969 C 118.31523 1.6127649 117.42821 0.5 117 0.5 C 117.25 1.25 119 4 119 4 L 120 4 C 120 4 121.75 1.25 122 0.5 C 121.57179 0.5 120.68477 1.6127649 119.97656 2.5917969 C 119.97101 1.9361343 119.95166 0.97885815 119.91992 0 L 119.08008 0 z M 15.5 4 C 15.097116 4.805767 15.038637 8.7958889 15.023438 10.591797 C 14.315229 9.6127649 13.428205 8.5 13 8.5 C 13.25 9.25 15 12 15 12 L 16 12 C 16 12 17.75 9.25 18 8.5 C 17.571795 8.5 16.68477 9.6127649 15.976562 10.591797 C 15.961364 8.7958889 15.902884 4.805767 15.5 4 z M 31.5 4 C 31.097116 4.805767 31.038636 8.7958889 31.023438 10.591797 C 30.31523 9.6127649 29.428205 8.5 29 8.5 C 29.25 9.25 31 12 31 12 L 32 12 C 32 12 33.75 9.25 34 8.5 C 33.571795 8.5 32.68477 9.6127649 31.976562 10.591797 C 31.961363 8.7958889 31.902884 4.805767 31.5 4 z M 47.5 4 C 47.097116 4.805767 47.038637 8.7958889 47.023438 10.591797 C 46.31523 9.6127649 45.428205 8.5 45 8.5 C 45.25 9.25 47 12 47 12 L 48 12 C 48 12 49.75 9.25 50 8.5 C 49.571795 8.5 48.68477 9.6127649 47.976562 10.591797 C 47.961363 8.7958889 47.902884 4.805767 47.5 4 z M 63.5 4 C 63.097116 4.805767 63.038637 8.7958889 63.023438 10.591797 C 62.31523 9.6127649 61.428205 8.5 61 8.5 C 61.25 9.25 63 12 63 12 L 64 12 C 64 12 65.75 9.25 66 8.5 C 65.571795 8.5 64.68477 9.6127649 63.976562 10.591797 C 63.961363 8.7958889 63.902884 4.805767 63.5 4 z M 79.5 4 C 79.097116 4.805767 79.038636 8.7958889 79.023438 10.591797 C 78.31523 9.6127649 77.428205 8.5 77 8.5 C 77.25 9.25 79 12 79 12 L 80 12 C 80 12 81.75 9.25 82 8.5 C 81.571795 8.5 80.68477 9.6127649 79.976562 10.591797 C 79.961364 8.7958889 79.902884 4.805767 79.5 4 z M 95.5 4 C 95.097116 4.805767 95.038636 8.7958889 95.023438 10.591797 C 94.31523 9.6127649 93.428205 8.5 93 8.5 C 93.25 9.25 95 12 95 12 L 96 12 C 96 12 97.75 9.25 98 8.5 C 97.571795 8.5 96.68477 9.6127649 95.976562 10.591797 C 95.961364 8.7958889 95.902884 4.805767 95.5 4 z M 111.5 4 C 111.09712 4.805767 111.03864 8.7958889 111.02344 10.591797 C 110.31523 9.6127649 109.42821 8.5 109 8.5 C 109.25 9.25 111 12 111 12 L 112 12 C 112 12 113.75 9.25 114 8.5 C 113.57179 8.5 112.68477 9.6127649 111.97656 10.591797 C 111.96136 8.7958889 111.90288 4.805767 111.5 4 z M 127.5 4 C 127.09712 4.805767 127.03864 8.7958889 127.02344 10.591797 C 126.31523 9.6127649 125.42821 8.5 125 8.5 C 125.25 9.25 127 12 127 12 L 128 12 L 128 10.560547 C 127.99248 10.570911 127.98404 10.581461 127.97656 10.591797 C 127.96136 8.7958889 127.90288 4.805767 127.5 4 z M 2 8.5 C 1.5763157 8.5 0.70439666 9.5891945 0 10.560547 L 0 12 C 0 12 1.75 9.25 2 8.5 z M 7.5 12 C 7.097116 12.805767 7.0386365 16.795889 7.0234375 18.591797 C 6.3152295 17.612765 5.428205 16.5 5 16.5 C 5.25 17.25 7 20 7 20 L 8 20 C 8 20 9.75 17.25 10 16.5 C 9.571795 16.5 8.6847705 17.612765 7.9765625 18.591797 C 7.9613635 16.795889 7.902884 12.805767 7.5 12 z M 23.5 12 C 23.097116 12.805767 23.038636 16.795889 23.023438 18.591797 C 22.31523 17.612765 21.428205 16.5 21 16.5 C 21.25 17.25 23 20 23 20 L 24 20 C 24 20 25.75 17.25 26 16.5 C 25.571795 16.5 24.68477 17.612765 23.976562 18.591797 C 23.961363 16.795889 23.902884 12.805767 23.5 12 z M 39.5 12 C 39.097116 12.805767 39.038637 16.795889 39.023438 18.591797 C 38.31523 17.612765 37.428205 16.5 37 16.5 C 37.25 17.25 39 20 39 20 L 40 20 C 40 20 41.75 17.25 42 16.5 C 41.571795 16.5 40.68477 17.612765 39.976562 18.591797 C 39.961363 16.795889 39.902884 12.805767 39.5 12 z M 55.5 12 C 55.097116 12.805767 55.038637 16.795889 55.023438 18.591797 C 54.31523 17.612765 53.428205 16.5 53 16.5 C 53.25 17.25 55 20 55 20 L 56 20 C 56 20 57.75 17.25 58 16.5 C 57.571795 16.5 56.68477 17.612765 55.976562 18.591797 C 55.961363 16.795889 55.902884 12.805767 55.5 12 z M 71.5 12 C 71.097116 12.805767 71.038636 16.795889 71.023438 18.591797 C 70.31523 17.612765 69.428205 16.5 69 16.5 C 69.25 17.25 71 20 71 20 L 72 20 C 72 20 73.75 17.25 74 16.5 C 73.571795 16.5 72.68477 17.612765 71.976562 18.591797 C 71.961364 16.795889 71.902884 12.805767 71.5 12 z M 87.5 12 C 87.097116 12.805767 87.038636 16.795889 87.023438 18.591797 C 86.31523 17.612765 85.428205 16.5 85 16.5 C 85.25 17.25 87 20 87 20 L 88 20 C 88 20 89.75 17.25 90 16.5 C 89.571795 16.5 88.68477 17.612765 87.976562 18.591797 C 87.961364 16.795889 87.902884 12.805767 87.5 12 z M 103.5 12 C 103.09712 12.805767 103.03864 16.795889 103.02344 18.591797 C 102.31523 17.612765 101.42821 16.5 101 16.5 C 101.25 17.25 103 20 103 20 L 104 20 C 104 20 105.75 17.25 106 16.5 C 105.57179 16.5 104.68477 17.612765 103.97656 18.591797 C 103.96136 16.795889 103.90288 12.805767 103.5 12 z M 119.5 12 C 119.09712 12.805767 119.03864 16.795889 119.02344 18.591797 C 118.31523 17.612765 117.42821 16.5 117 16.5 C 117.25 17.25 119 20 119 20 L 120 20 C 120 20 121.75 17.25 122 16.5 C 121.57179 16.5 120.68477 17.612765 119.97656 18.591797 C 119.96136 16.795889 119.90288 12.805767 119.5 12 z M 15.5 20 C 15.097116 20.805767 15.038637 24.795889 15.023438 26.591797 C 14.315229 25.612765 13.428205 24.5 13 24.5 C 13.25 25.25 15 28 15 28 L 16 28 C 16 28 17.75 25.25 18 24.5 C 17.571795 24.5 16.68477 25.612765 15.976562 26.591797 C 15.961364 24.795889 15.902884 20.805767 15.5 20 z M 31.5 20 C 31.097116 20.805767 31.038636 24.795889 31.023438 26.591797 C 30.31523 25.612765 29.428205 24.5 29 24.5 C 29.25 25.25 31 28 31 28 L 32 28 C 32 28 33.75 25.25 34 24.5 C 33.571795 24.5 32.68477 25.612765 31.976562 26.591797 C 31.961363 24.795889 31.902884 20.805767 31.5 20 z M 47.5 20 C 47.097116 20.805767 47.038637 24.795889 47.023438 26.591797 C 46.31523 25.612765 45.428205 24.5 45 24.5 C 45.25 25.25 47 28 47 28 L 48 28 C 48 28 49.75 25.25 50 24.5 C 49.571795 24.5 48.68477 25.612765 47.976562 26.591797 C 47.961363 24.795889 47.902884 20.805767 47.5 20 z M 63.5 20 C 63.097116 20.805767 63.038637 24.795889 63.023438 26.591797 C 62.31523 25.612765 61.428205 24.5 61 24.5 C 61.25 25.25 63 28 63 28 L 64 28 C 64 28 65.75 25.25 66 24.5 C 65.571795 24.5 64.68477 25.612765 63.976562 26.591797 C 63.961363 24.795889 63.902884 20.805767 63.5 20 z M 79.5 20 C 79.097116 20.805767 79.038636 24.795889 79.023438 26.591797 C 78.31523 25.612765 77.428205 24.5 77 24.5 C 77.25 25.25 79 28 79 28 L 80 28 C 80 28 81.75 25.25 82 24.5 C 81.571795 24.5 80.68477 25.612765 79.976562 26.591797 C 79.961364 24.795889 79.902884 20.805767 79.5 20 z M 95.5 20 C 95.097116 20.805767 95.038636 24.795889 95.023438 26.591797 C 94.31523 25.612765 93.428205 24.5 93 24.5 C 93.25 25.25 95 28 95 28 L 96 28 C 96 28 97.75 25.25 98 24.5 C 97.571795 24.5 96.68477 25.612765 95.976562 26.591797 C 95.961364 24.795889 95.902884 20.805767 95.5 20 z M 111.5 20 C 111.09712 20.805767 111.03864 24.795889 111.02344 26.591797 C 110.31523 25.612765 109.42821 24.5 109 24.5 C 109.25 25.25 111 28 111 28 L 112 28 C 112 28 113.75 25.25 114 24.5 C 113.57179 24.5 112.68477 25.612765 111.97656 26.591797 C 111.96136 24.795889 111.90288 20.805767 111.5 20 z M 127.5 20 C 127.09712 20.805767 127.03864 24.795889 127.02344 26.591797 C 126.31523 25.612765 125.42821 24.5 125 24.5 C 125.25 25.25 127 28 127 28 L 128 28 L 128 26.560547 C 127.99248 26.570911 127.98404 26.581461 127.97656 26.591797 C 127.96136 24.795889 127.90288 20.805767 127.5 20 z M 2 24.5 C 1.5763157 24.5 0.70439666 25.589194 0 26.560547 L 0 28 C 0 28 1.75 25.25 2 24.5 z M 7.5 28 C 7.097116 28.805767 7.0386365 32.795889 7.0234375 34.591797 C 6.3152295 33.612765 5.428205 32.5 5 32.5 C 5.25 33.25 7 36 7 36 L 8 36 C 8 36 9.75 33.25 10 32.5 C 9.571795 32.5 8.6847705 33.612765 7.9765625 34.591797 C 7.9613635 32.795889 7.902884 28.805767 7.5 28 z M 23.5 28 C 23.097116 28.805767 23.038636 32.795889 23.023438 34.591797 C 22.31523 33.612765 21.428205 32.5 21 32.5 C 21.25 33.25 23 36 23 36 L 24 36 C 24 36 25.75 33.25 26 32.5 C 25.571795 32.5 24.68477 33.612765 23.976562 34.591797 C 23.961363 32.795889 23.902884 28.805767 23.5 28 z M 39.5 28 C 39.097116 28.805767 39.038637 32.795889 39.023438 34.591797 C 38.31523 33.612765 37.428205 32.5 37 32.5 C 37.25 33.25 39 36 39 36 L 40 36 C 40 36 41.75 33.25 42 32.5 C 41.571795 32.5 40.68477 33.612765 39.976562 34.591797 C 39.961363 32.795889 39.902884 28.805767 39.5 28 z M 55.5 28 C 55.097116 28.805767 55.038637 32.795889 55.023438 34.591797 C 54.31523 33.612765 53.428205 32.5 53 32.5 C 53.25 33.25 55 36 55 36 L 56 36 C 56 36 57.75 33.25 58 32.5 C 57.571795 32.5 56.68477 33.612765 55.976562 34.591797 C 55.961363 32.795889 55.902884 28.805767 55.5 28 z M 71.5 28 C 71.097116 28.805767 71.038636 32.795889 71.023438 34.591797 C 70.31523 33.612765 69.428205 32.5 69 32.5 C 69.25 33.25 71 36 71 36 L 72 36 C 72 36 73.75 33.25 74 32.5 C 73.571795 32.5 72.68477 33.612765 71.976562 34.591797 C 71.961364 32.795889 71.902884 28.805767 71.5 28 z M 87.5 28 C 87.097116 28.805767 87.038636 32.795889 87.023438 34.591797 C 86.31523 33.612765 85.428205 32.5 85 32.5 C 85.25 33.25 87 36 87 36 L 88 36 C 88 36 89.75 33.25 90 32.5 C 89.571795 32.5 88.68477 33.612765 87.976562 34.591797 C 87.961364 32.795889 87.902884 28.805767 87.5 28 z M 103.5 28 C 103.09712 28.805767 103.03864 32.795889 103.02344 34.591797 C 102.31523 33.612765 101.42821 32.5 101 32.5 C 101.25 33.25 103 36 103 36 L 104 36 C 104 36 105.75 33.25 106 32.5 C 105.57179 32.5 104.68477 33.612765 103.97656 34.591797 C 103.96136 32.795889 103.90288 28.805767 103.5 28 z M 119.5 28 C 119.09712 28.805767 119.03864 32.795889 119.02344 34.591797 C 118.31523 33.612765 117.42821 32.5 117 32.5 C 117.25 33.25 119 36 119 36 L 120 36 C 120 36 121.75 33.25 122 32.5 C 121.57179 32.5 120.68477 33.612765 119.97656 34.591797 C 119.96136 32.795889 119.90288 28.805767 119.5 28 z M 15.5 36 C 15.097116 36.805767 15.038637 40.795889 15.023438 42.591797 C 14.315229 41.612765 13.428205 40.5 13 40.5 C 13.25 41.25 15 44 15 44 L 16 44 C 16 44 17.75 41.25 18 40.5 C 17.571795 40.5 16.68477 41.612765 15.976562 42.591797 C 15.961364 40.795889 15.902884 36.805767 15.5 36 z M 31.5 36 C 31.097116 36.805767 31.038636 40.795889 31.023438 42.591797 C 30.31523 41.612765 29.428205 40.5 29 40.5 C 29.25 41.25 31 44 31 44 L 32 44 C 32 44 33.75 41.25 34 40.5 C 33.571795 40.5 32.68477 41.612765 31.976562 42.591797 C 31.961363 40.795889 31.902884 36.805767 31.5 36 z M 47.5 36 C 47.097116 36.805767 47.038637 40.795889 47.023438 42.591797 C 46.31523 41.612765 45.428205 40.5 45 40.5 C 45.25 41.25 47 44 47 44 L 48 44 C 48 44 49.75 41.25 50 40.5 C 49.571795 40.5 48.68477 41.612765 47.976562 42.591797 C 47.961363 40.795889 47.902884 36.805767 47.5 36 z M 63.5 36 C 63.097116 36.805767 63.038637 40.795889 63.023438 42.591797 C 62.31523 41.612765 61.428205 40.5 61 40.5 C 61.25 41.25 63 44 63 44 L 64 44 C 64 44 65.75 41.25 66 40.5 C 65.571795 40.5 64.68477 41.612765 63.976562 42.591797 C 63.961363 40.795889 63.902884 36.805767 63.5 36 z M 79.5 36 C 79.097116 36.805767 79.038636 40.795889 79.023438 42.591797 C 78.31523 41.612765 77.428205 40.5 77 40.5 C 77.25 41.25 79 44 79 44 L 80 44 C 80 44 81.75 41.25 82 40.5 C 81.571795 40.5 80.68477 41.612765 79.976562 42.591797 C 79.961364 40.795889 79.902884 36.805767 79.5 36 z M 95.5 36 C 95.097116 36.805767 95.038636 40.795889 95.023438 42.591797 C 94.31523 41.612765 93.428205 40.5 93 40.5 C 93.25 41.25 95 44 95 44 L 96 44 C 96 44 97.75 41.25 98 40.5 C 97.571795 40.5 96.68477 41.612765 95.976562 42.591797 C 95.961364 40.795889 95.902884 36.805767 95.5 36 z M 111.5 36 C 111.09712 36.805767 111.03864 40.795889 111.02344 42.591797 C 110.31523 41.612765 109.42821 40.5 109 40.5 C 109.25 41.25 111 44 111 44 L 112 44 C 112 44 113.75 41.25 114 40.5 C 113.57179 40.5 112.68477 41.612765 111.97656 42.591797 C 111.96136 40.795889 111.90288 36.805767 111.5 36 z M 127.5 36 C 127.09712 36.805767 127.03864 40.795889 127.02344 42.591797 C 126.31523 41.612765 125.42821 40.5 125 40.5 C 125.25 41.25 127 44 127 44 L 128 44 L 128 42.560547 C 127.99248 42.570911 127.98404 42.581461 127.97656 42.591797 C 127.96136 40.795889 127.90288 36.805767 127.5 36 z M 2 40.5 C 1.5763157 40.5 0.70439666 41.589194 0 42.560547 L 0 44 C 0 44 1.75 41.25 2 40.5 z M 7.5 44 C 7.097116 44.805767 7.0386365 48.795889 7.0234375 50.591797 C 6.3152295 49.612765 5.428205 48.5 5 48.5 C 5.25 49.25 7 52 7 52 L 8 52 C 8 52 9.75 49.25 10 48.5 C 9.571795 48.5 8.6847705 49.612765 7.9765625 50.591797 C 7.9613635 48.795889 7.902884 44.805767 7.5 44 z M 23.5 44 C 23.097116 44.805767 23.038636 48.795889 23.023438 50.591797 C 22.31523 49.612765 21.428205 48.5 21 48.5 C 21.25 49.25 23 52 23 52 L 24 52 C 24 52 25.75 49.25 26 48.5 C 25.571795 48.5 24.68477 49.612765 23.976562 50.591797 C 23.961363 48.795889 23.902884 44.805767 23.5 44 z M 39.5 44 C 39.097116 44.805767 39.038637 48.795889 39.023438 50.591797 C 38.31523 49.612765 37.428205 48.5 37 48.5 C 37.25 49.25 39 52 39 52 L 40 52 C 40 52 41.75 49.25 42 48.5 C 41.571795 48.5 40.68477 49.612765 39.976562 50.591797 C 39.961363 48.795889 39.902884 44.805767 39.5 44 z M 55.5 44 C 55.097116 44.805767 55.038637 48.795889 55.023438 50.591797 C 54.31523 49.612765 53.428205 48.5 53 48.5 C 53.25 49.25 55 52 55 52 L 56 52 C 56 52 57.75 49.25 58 48.5 C 57.571795 48.5 56.68477 49.612765 55.976562 50.591797 C 55.961363 48.795889 55.902884 44.805767 55.5 44 z M 71.5 44 C 71.097116 44.805767 71.038636 48.795889 71.023438 50.591797 C 70.31523 49.612765 69.428205 48.5 69 48.5 C 69.25 49.25 71 52 71 52 L 72 52 C 72 52 73.75 49.25 74 48.5 C 73.571795 48.5 72.68477 49.612765 71.976562 50.591797 C 71.961364 48.795889 71.902884 44.805767 71.5 44 z M 87.5 44 C 87.097116 44.805767 87.038636 48.795889 87.023438 50.591797 C 86.31523 49.612765 85.428205 48.5 85 48.5 C 85.25 49.25 87 52 87 52 L 88 52 C 88 52 89.75 49.25 90 48.5 C 89.571795 48.5 88.68477 49.612765 87.976562 50.591797 C 87.961364 48.795889 87.902884 44.805767 87.5 44 z M 103.5 44 C 103.09712 44.805767 103.03864 48.795889 103.02344 50.591797 C 102.31523 49.612765 101.42821 48.5 101 48.5 C 101.25 49.25 103 52 103 52 L 104 52 C 104 52 105.75 49.25 106 48.5 C 105.57179 48.5 104.68477 49.612765 103.97656 50.591797 C 103.96136 48.795889 103.90288 44.805767 103.5 44 z M 119.5 44 C 119.09712 44.805767 119.03864 48.795889 119.02344 50.591797 C 118.31523 49.612765 117.42821 48.5 117 48.5 C 117.25 49.25 119 52 119 52 L 120 52 C 120 52 121.75 49.25 122 48.5 C 121.57179 48.5 120.68477 49.612765 119.97656 50.591797 C 119.96136 48.795889 119.90288 44.805767 119.5 44 z M 15.5 52 C 15.097116 52.805767 15.038637 56.795889 15.023438 58.591797 C 14.315229 57.612765 13.428205 56.5 13 56.5 C 13.25 57.25 15 60 15 60 L 16 60 C 16 60 17.75 57.25 18 56.5 C 17.571795 56.5 16.68477 57.612765 15.976562 58.591797 C 15.961364 56.795889 15.902884 52.805767 15.5 52 z M 31.5 52 C 31.097116 52.805767 31.038636 56.795889 31.023438 58.591797 C 30.31523 57.612765 29.428205 56.5 29 56.5 C 29.25 57.25 31 60 31 60 L 32 60 C 32 60 33.75 57.25 34 56.5 C 33.571795 56.5 32.68477 57.612765 31.976562 58.591797 C 31.961363 56.795889 31.902884 52.805767 31.5 52 z M 47.5 52 C 47.097116 52.805767 47.038637 56.795889 47.023438 58.591797 C 46.31523 57.612765 45.428205 56.5 45 56.5 C 45.25 57.25 47 60 47 60 L 48 60 C 48 60 49.75 57.25 50 56.5 C 49.571795 56.5 48.68477 57.612765 47.976562 58.591797 C 47.961363 56.795889 47.902884 52.805767 47.5 52 z M 63.5 52 C 63.097116 52.805767 63.038637 56.795889 63.023438 58.591797 C 62.31523 57.612765 61.428205 56.5 61 56.5 C 61.25 57.25 63 60 63 60 L 64 60 C 64 60 65.75 57.25 66 56.5 C 65.571795 56.5 64.68477 57.612765 63.976562 58.591797 C 63.961363 56.795889 63.902884 52.805767 63.5 52 z M 79.5 52 C 79.097116 52.805767 79.038636 56.795889 79.023438 58.591797 C 78.31523 57.612765 77.428205 56.5 77 56.5 C 77.25 57.25 79 60 79 60 L 80 60 C 80 60 81.75 57.25 82 56.5 C 81.571795 56.5 80.68477 57.612765 79.976562 58.591797 C 79.961364 56.795889 79.902884 52.805767 79.5 52 z M 95.5 52 C 95.097116 52.805767 95.038636 56.795889 95.023438 58.591797 C 94.31523 57.612765 93.428205 56.5 93 56.5 C 93.25 57.25 95 60 95 60 L 96 60 C 96 60 97.75 57.25 98 56.5 C 97.571795 56.5 96.68477 57.612765 95.976562 58.591797 C 95.961364 56.795889 95.902884 52.805767 95.5 52 z M 111.5 52 C 111.09712 52.805767 111.03864 56.795889 111.02344 58.591797 C 110.31523 57.612765 109.42821 56.5 109 56.5 C 109.25 57.25 111 60 111 60 L 112 60 C 112 60 113.75 57.25 114 56.5 C 113.57179 56.5 112.68477 57.612765 111.97656 58.591797 C 111.96136 56.795889 111.90288 52.805767 111.5 52 z M 127.5 52 C 127.09712 52.805767 127.03864 56.795889 127.02344 58.591797 C 126.31523 57.612765 125.42821 56.5 125 56.5 C 125.25 57.25 127 60 127 60 L 128 60 L 128 58.560547 C 127.99248 58.570911 127.98404 58.581461 127.97656 58.591797 C 127.96136 56.795889 127.90288 52.805767 127.5 52 z M 2 56.5 C 1.5763157 56.5 0.70439666 57.589194 0 58.560547 L 0 60 C 0 60 1.75 57.25 2 56.5 z M 7.5 60 C 7.097116 60.805767 7.0386365 64.795889 7.0234375 66.591797 C 6.3152295 65.612765 5.428205 64.5 5 64.5 C 5.25 65.25 7 68 7 68 L 8 68 C 8 68 9.75 65.25 10 64.5 C 9.571795 64.5 8.6847705 65.612765 7.9765625 66.591797 C 7.9613635 64.795889 7.902884 60.805767 7.5 60 z M 23.5 60 C 23.097116 60.805767 23.038636 64.795889 23.023438 66.591797 C 22.31523 65.612765 21.428205 64.5 21 64.5 C 21.25 65.25 23 68 23 68 L 24 68 C 24 68 25.75 65.25 26 64.5 C 25.571795 64.5 24.68477 65.612765 23.976562 66.591797 C 23.961363 64.795889 23.902884 60.805767 23.5 60 z M 39.5 60 C 39.097116 60.805767 39.038637 64.795889 39.023438 66.591797 C 38.31523 65.612765 37.428205 64.5 37 64.5 C 37.25 65.25 39 68 39 68 L 40 68 C 40 68 41.75 65.25 42 64.5 C 41.571795 64.5 40.68477 65.612765 39.976562 66.591797 C 39.961363 64.795889 39.902884 60.805767 39.5 60 z M 55.5 60 C 55.097116 60.805767 55.038637 64.795889 55.023438 66.591797 C 54.31523 65.612765 53.428205 64.5 53 64.5 C 53.25 65.25 55 68 55 68 L 56 68 C 56 68 57.75 65.25 58 64.5 C 57.571795 64.5 56.68477 65.612765 55.976562 66.591797 C 55.961363 64.795889 55.902884 60.805767 55.5 60 z M 71.5 60 C 71.097116 60.805767 71.038636 64.795889 71.023438 66.591797 C 70.31523 65.612765 69.428205 64.5 69 64.5 C 69.25 65.25 71 68 71 68 L 72 68 C 72 68 73.75 65.25 74 64.5 C 73.571795 64.5 72.68477 65.612765 71.976562 66.591797 C 71.961364 64.795889 71.902884 60.805767 71.5 60 z M 87.5 60 C 87.097116 60.805767 87.038636 64.795889 87.023438 66.591797 C 86.31523 65.612765 85.428205 64.5 85 64.5 C 85.25 65.25 87 68 87 68 L 88 68 C 88 68 89.75 65.25 90 64.5 C 89.571795 64.5 88.68477 65.612765 87.976562 66.591797 C 87.961364 64.795889 87.902884 60.805767 87.5 60 z M 103.5 60 C 103.09712 60.805767 103.03864 64.795889 103.02344 66.591797 C 102.31523 65.612765 101.42821 64.5 101 64.5 C 101.25 65.25 103 68 103 68 L 104 68 C 104 68 105.75 65.25 106 64.5 C 105.57179 64.5 104.68477 65.612765 103.97656 66.591797 C 103.96136 64.795889 103.90288 60.805767 103.5 60 z M 119.5 60 C 119.09712 60.805767 119.03864 64.795889 119.02344 66.591797 C 118.31523 65.612765 117.42821 64.5 117 64.5 C 117.25 65.25 119 68 119 68 L 120 68 C 120 68 121.75 65.25 122 64.5 C 121.57179 64.5 120.68477 65.612765 119.97656 66.591797 C 119.96136 64.795889 119.90288 60.805767 119.5 60 z M 15.5 68 C 15.097116 68.805767 15.038637 72.795889 15.023438 74.591797 C 14.315229 73.612765 13.428205 72.5 13 72.5 C 13.25 73.25 15 76 15 76 L 16 76 C 16 76 17.75 73.25 18 72.5 C 17.571795 72.5 16.68477 73.612765 15.976562 74.591797 C 15.961364 72.795889 15.902884 68.805767 15.5 68 z M 31.5 68 C 31.097116 68.805767 31.038636 72.795889 31.023438 74.591797 C 30.31523 73.612765 29.428205 72.5 29 72.5 C 29.25 73.25 31 76 31 76 L 32 76 C 32 76 33.75 73.25 34 72.5 C 33.571795 72.5 32.68477 73.612765 31.976562 74.591797 C 31.961363 72.795889 31.902884 68.805767 31.5 68 z M 47.5 68 C 47.097116 68.805767 47.038637 72.795889 47.023438 74.591797 C 46.31523 73.612765 45.428205 72.5 45 72.5 C 45.25 73.25 47 76 47 76 L 48 76 C 48 76 49.75 73.25 50 72.5 C 49.571795 72.5 48.68477 73.612765 47.976562 74.591797 C 47.961363 72.795889 47.902884 68.805767 47.5 68 z M 63.5 68 C 63.097116 68.805767 63.038637 72.795889 63.023438 74.591797 C 62.31523 73.612765 61.428205 72.5 61 72.5 C 61.25 73.25 63 76 63 76 L 64 76 C 64 76 65.75 73.25 66 72.5 C 65.571795 72.5 64.68477 73.612765 63.976562 74.591797 C 63.961363 72.795889 63.902884 68.805767 63.5 68 z M 79.5 68 C 79.097116 68.805767 79.038636 72.795889 79.023438 74.591797 C 78.31523 73.612765 77.428205 72.5 77 72.5 C 77.25 73.25 79 76 79 76 L 80 76 C 80 76 81.75 73.25 82 72.5 C 81.571795 72.5 80.68477 73.612765 79.976562 74.591797 C 79.961364 72.795889 79.902884 68.805767 79.5 68 z M 95.5 68 C 95.097116 68.805767 95.038636 72.795889 95.023438 74.591797 C 94.31523 73.612765 93.428205 72.5 93 72.5 C 93.25 73.25 95 76 95 76 L 96 76 C 96 76 97.75 73.25 98 72.5 C 97.571795 72.5 96.68477 73.612765 95.976562 74.591797 C 95.961364 72.795889 95.902884 68.805767 95.5 68 z M 111.5 68 C 111.09712 68.805767 111.03864 72.795889 111.02344 74.591797 C 110.31523 73.612765 109.42821 72.5 109 72.5 C 109.25 73.25 111 76 111 76 L 112 76 C 112 76 113.75 73.25 114 72.5 C 113.57179 72.5 112.68477 73.612765 111.97656 74.591797 C 111.96136 72.795889 111.90288 68.805767 111.5 68 z M 127.5 68 C 127.09712 68.805767 127.03864 72.795889 127.02344 74.591797 C 126.31523 73.612765 125.42821 72.5 125 72.5 C 125.25 73.25 127 76 127 76 L 128 76 L 128 74.560547 C 127.99248 74.570911 127.98404 74.581461 127.97656 74.591797 C 127.96136 72.795889 127.90288 68.805767 127.5 68 z M 2 72.5 C 1.5763157 72.5 0.70439666 73.589194 0 74.560547 L 0 76 C 0 76 1.75 73.25 2 72.5 z M 7.5 76 C 7.097116 76.805767 7.0386365 80.795889 7.0234375 82.591797 C 6.3152295 81.612765 5.428205 80.5 5 80.5 C 5.25 81.25 7 84 7 84 L 8 84 C 8 84 9.75 81.25 10 80.5 C 9.571795 80.5 8.6847705 81.612765 7.9765625 82.591797 C 7.9613635 80.795889 7.902884 76.805767 7.5 76 z M 23.5 76 C 23.097116 76.805767 23.038636 80.795889 23.023438 82.591797 C 22.31523 81.612765 21.428205 80.5 21 80.5 C 21.25 81.25 23 84 23 84 L 24 84 C 24 84 25.75 81.25 26 80.5 C 25.571795 80.5 24.68477 81.612765 23.976562 82.591797 C 23.961363 80.795889 23.902884 76.805767 23.5 76 z M 39.5 76 C 39.097116 76.805767 39.038637 80.795889 39.023438 82.591797 C 38.31523 81.612765 37.428205 80.5 37 80.5 C 37.25 81.25 39 84 39 84 L 40 84 C 40 84 41.75 81.25 42 80.5 C 41.571795 80.5 40.68477 81.612765 39.976562 82.591797 C 39.961363 80.795889 39.902884 76.805767 39.5 76 z M 55.5 76 C 55.097116 76.805767 55.038637 80.795889 55.023438 82.591797 C 54.31523 81.612765 53.428205 80.5 53 80.5 C 53.25 81.25 55 84 55 84 L 56 84 C 56 84 57.75 81.25 58 80.5 C 57.571795 80.5 56.68477 81.612765 55.976562 82.591797 C 55.961363 80.795889 55.902884 76.805767 55.5 76 z M 71.5 76 C 71.097116 76.805767 71.038636 80.795889 71.023438 82.591797 C 70.31523 81.612765 69.428205 80.5 69 80.5 C 69.25 81.25 71 84 71 84 L 72 84 C 72 84 73.75 81.25 74 80.5 C 73.571795 80.5 72.68477 81.612765 71.976562 82.591797 C 71.961364 80.795889 71.902884 76.805767 71.5 76 z M 87.5 76 C 87.097116 76.805767 87.038636 80.795889 87.023438 82.591797 C 86.31523 81.612765 85.428205 80.5 85 80.5 C 85.25 81.25 87 84 87 84 L 88 84 C 88 84 89.75 81.25 90 80.5 C 89.571795 80.5 88.68477 81.612765 87.976562 82.591797 C 87.961364 80.795889 87.902884 76.805767 87.5 76 z M 103.5 76 C 103.09712 76.805767 103.03864 80.795889 103.02344 82.591797 C 102.31523 81.612765 101.42821 80.5 101 80.5 C 101.25 81.25 103 84 103 84 L 104 84 C 104 84 105.75 81.25 106 80.5 C 105.57179 80.5 104.68477 81.612765 103.97656 82.591797 C 103.96136 80.795889 103.90288 76.805767 103.5 76 z M 119.5 76 C 119.09712 76.805767 119.03864 80.795889 119.02344 82.591797 C 118.31523 81.612765 117.42821 80.5 117 80.5 C 117.25 81.25 119 84 119 84 L 120 84 C 120 84 121.75 81.25 122 80.5 C 121.57179 80.5 120.68477 81.612765 119.97656 82.591797 C 119.96136 80.795889 119.90288 76.805767 119.5 76 z M 15.5 84 C 15.097116 84.805767 15.038637 88.795889 15.023438 90.591797 C 14.315229 89.612765 13.428205 88.5 13 88.5 C 13.25 89.25 15 92 15 92 L 16 92 C 16 92 17.75 89.25 18 88.5 C 17.571795 88.5 16.68477 89.612765 15.976562 90.591797 C 15.961364 88.795889 15.902884 84.805767 15.5 84 z M 31.5 84 C 31.097116 84.805767 31.038636 88.795889 31.023438 90.591797 C 30.31523 89.612765 29.428205 88.5 29 88.5 C 29.25 89.25 31 92 31 92 L 32 92 C 32 92 33.75 89.25 34 88.5 C 33.571795 88.5 32.68477 89.612765 31.976562 90.591797 C 31.961363 88.795889 31.902884 84.805767 31.5 84 z M 47.5 84 C 47.097116 84.805767 47.038637 88.795889 47.023438 90.591797 C 46.31523 89.612765 45.428205 88.5 45 88.5 C 45.25 89.25 47 92 47 92 L 48 92 C 48 92 49.75 89.25 50 88.5 C 49.571795 88.5 48.68477 89.612765 47.976562 90.591797 C 47.961363 88.795889 47.902884 84.805767 47.5 84 z M 63.5 84 C 63.097116 84.805767 63.038637 88.795889 63.023438 90.591797 C 62.31523 89.612765 61.428205 88.5 61 88.5 C 61.25 89.25 63 92 63 92 L 64 92 C 64 92 65.75 89.25 66 88.5 C 65.571795 88.5 64.68477 89.612765 63.976562 90.591797 C 63.961363 88.795889 63.902884 84.805767 63.5 84 z M 79.5 84 C 79.097116 84.805767 79.038636 88.795889 79.023438 90.591797 C 78.31523 89.612765 77.428205 88.5 77 88.5 C 77.25 89.25 79 92 79 92 L 80 92 C 80 92 81.75 89.25 82 88.5 C 81.571795 88.5 80.68477 89.612765 79.976562 90.591797 C 79.961364 88.795889 79.902884 84.805767 79.5 84 z M 95.5 84 C 95.097116 84.805767 95.038636 88.795889 95.023438 90.591797 C 94.31523 89.612765 93.428205 88.5 93 88.5 C 93.25 89.25 95 92 95 92 L 96 92 C 96 92 97.75 89.25 98 88.5 C 97.571795 88.5 96.68477 89.612765 95.976562 90.591797 C 95.961364 88.795889 95.902884 84.805767 95.5 84 z M 111.5 84 C 111.09712 84.805767 111.03864 88.795889 111.02344 90.591797 C 110.31523 89.612765 109.42821 88.5 109 88.5 C 109.25 89.25 111 92 111 92 L 112 92 C 112 92 113.75 89.25 114 88.5 C 113.57179 88.5 112.68477 89.612765 111.97656 90.591797 C 111.96136 88.795889 111.90288 84.805767 111.5 84 z M 127.5 84 C 127.09712 84.805767 127.03864 88.795889 127.02344 90.591797 C 126.31523 89.612765 125.42821 88.5 125 88.5 C 125.25 89.25 127 92 127 92 L 128 92 L 128 90.560547 C 127.99248 90.570911 127.98404 90.581461 127.97656 90.591797 C 127.96136 88.795889 127.90288 84.805767 127.5 84 z M 2 88.5 C 1.5763157 88.5 0.70439666 89.589194 0 90.560547 L 0 92 C 0 92 1.75 89.25 2 88.5 z M 7.5 92 C 7.097116 92.805767 7.0386365 96.795889 7.0234375 98.591797 C 6.3152295 97.612765 5.428205 96.5 5 96.5 C 5.25 97.25 7 100 7 100 L 8 100 C 8 100 9.75 97.25 10 96.5 C 9.571795 96.5 8.6847705 97.612765 7.9765625 98.591797 C 7.9613635 96.795889 7.902884 92.805767 7.5 92 z M 23.5 92 C 23.097116 92.805767 23.038636 96.795889 23.023438 98.591797 C 22.31523 97.612765 21.428205 96.5 21 96.5 C 21.25 97.25 23 100 23 100 L 24 100 C 24 100 25.75 97.25 26 96.5 C 25.571795 96.5 24.68477 97.612765 23.976562 98.591797 C 23.961363 96.795889 23.902884 92.805767 23.5 92 z M 39.5 92 C 39.097116 92.805767 39.038637 96.795889 39.023438 98.591797 C 38.31523 97.612765 37.428205 96.5 37 96.5 C 37.25 97.25 39 100 39 100 L 40 100 C 40 100 41.75 97.25 42 96.5 C 41.571795 96.5 40.68477 97.612765 39.976562 98.591797 C 39.961363 96.795889 39.902884 92.805767 39.5 92 z M 55.5 92 C 55.097116 92.805767 55.038637 96.795889 55.023438 98.591797 C 54.31523 97.612765 53.428205 96.5 53 96.5 C 53.25 97.25 55 100 55 100 L 56 100 C 56 100 57.75 97.25 58 96.5 C 57.571795 96.5 56.68477 97.612765 55.976562 98.591797 C 55.961363 96.795889 55.902884 92.805767 55.5 92 z M 71.5 92 C 71.097116 92.805767 71.038636 96.795889 71.023438 98.591797 C 70.31523 97.612765 69.428205 96.5 69 96.5 C 69.25 97.25 71 100 71 100 L 72 100 C 72 100 73.75 97.25 74 96.5 C 73.571795 96.5 72.68477 97.612765 71.976562 98.591797 C 71.961364 96.795889 71.902884 92.805767 71.5 92 z M 87.5 92 C 87.097116 92.805767 87.038636 96.795889 87.023438 98.591797 C 86.31523 97.612765 85.428205 96.5 85 96.5 C 85.25 97.25 87 100 87 100 L 88 100 C 88 100 89.75 97.25 90 96.5 C 89.571795 96.5 88.68477 97.612765 87.976562 98.591797 C 87.961364 96.795889 87.902884 92.805767 87.5 92 z M 103.5 92 C 103.09712 92.805767 103.03864 96.795889 103.02344 98.591797 C 102.31523 97.612765 101.42821 96.5 101 96.5 C 101.25 97.25 103 100 103 100 L 104 100 C 104 100 105.75 97.25 106 96.5 C 105.57179 96.5 104.68477 97.612765 103.97656 98.591797 C 103.96136 96.795889 103.90288 92.805767 103.5 92 z M 119.5 92 C 119.09712 92.805767 119.03864 96.795889 119.02344 98.591797 C 118.31523 97.612765 117.42821 96.5 117 96.5 C 117.25 97.25 119 100 119 100 L 120 100 C 120 100 121.75 97.25 122 96.5 C 121.57179 96.5 120.68477 97.612765 119.97656 98.591797 C 119.96136 96.795889 119.90288 92.805767 119.5 92 z M 15.5 100 C 15.097116 100.80577 15.038637 104.79589 15.023438 106.5918 C 14.315229 105.61276 13.428205 104.5 13 104.5 C 13.25 105.25 15 108 15 108 L 16 108 C 16 108 17.75 105.25 18 104.5 C 17.571795 104.5 16.68477 105.61276 15.976562 106.5918 C 15.961364 104.79589 15.902884 100.80577 15.5 100 z M 31.5 100 C 31.097116 100.80577 31.038636 104.79589 31.023438 106.5918 C 30.31523 105.61276 29.428205 104.5 29 104.5 C 29.25 105.25 31 108 31 108 L 32 108 C 32 108 33.75 105.25 34 104.5 C 33.571795 104.5 32.68477 105.61276 31.976562 106.5918 C 31.961363 104.79589 31.902884 100.80577 31.5 100 z M 47.5 100 C 47.097116 100.80577 47.038637 104.79589 47.023438 106.5918 C 46.31523 105.61276 45.428205 104.5 45 104.5 C 45.25 105.25 47 108 47 108 L 48 108 C 48 108 49.75 105.25 50 104.5 C 49.571795 104.5 48.68477 105.61276 47.976562 106.5918 C 47.961363 104.79589 47.902884 100.80577 47.5 100 z M 63.5 100 C 63.097116 100.80577 63.038637 104.79589 63.023438 106.5918 C 62.31523 105.61276 61.428205 104.5 61 104.5 C 61.25 105.25 63 108 63 108 L 64 108 C 64 108 65.75 105.25 66 104.5 C 65.571795 104.5 64.68477 105.61276 63.976562 106.5918 C 63.961363 104.79589 63.902884 100.80577 63.5 100 z M 79.5 100 C 79.097116 100.80577 79.038636 104.79589 79.023438 106.5918 C 78.31523 105.61276 77.428205 104.5 77 104.5 C 77.25 105.25 79 108 79 108 L 80 108 C 80 108 81.75 105.25 82 104.5 C 81.571795 104.5 80.68477 105.61276 79.976562 106.5918 C 79.961364 104.79589 79.902884 100.80577 79.5 100 z M 95.5 100 C 95.097116 100.80577 95.038636 104.79589 95.023438 106.5918 C 94.31523 105.61276 93.428205 104.5 93 104.5 C 93.25 105.25 95 108 95 108 L 96 108 C 96 108 97.75 105.25 98 104.5 C 97.571795 104.5 96.68477 105.61276 95.976562 106.5918 C 95.961364 104.79589 95.902884 100.80577 95.5 100 z M 111.5 100 C 111.09712 100.80577 111.03864 104.79589 111.02344 106.5918 C 110.31523 105.61276 109.42821 104.5 109 104.5 C 109.25 105.25 111 108 111 108 L 112 108 C 112 108 113.75 105.25 114 104.5 C 113.57179 104.5 112.68477 105.61276 111.97656 106.5918 C 111.96136 104.79589 111.90286 100.80577 111.5 100 z M 127.5 100 C 127.09712 100.80577 127.03864 104.79589 127.02344 106.5918 C 126.31523 105.61276 125.42821 104.5 125 104.5 C 125.25 105.25 127 108 127 108 L 128 108 L 128 106.56055 C 127.99248 106.57091 127.98404 106.58146 127.97656 106.5918 C 127.96136 104.79589 127.90286 100.80577 127.5 100 z M 2 104.5 C 1.5763157 104.5 0.70439666 105.58919 0 106.56055 L 0 108 C 0 108 1.75 105.25 2 104.5 z M 7.5 108 C 7.097116 108.80577 7.0386365 112.79589 7.0234375 114.5918 C 6.3152295 113.61276 5.428205 112.5 5 112.5 C 5.25 113.25 7 116 7 116 L 8 116 C 8 116 9.75 113.25 10 112.5 C 9.571795 112.5 8.6847705 113.61276 7.9765625 114.5918 C 7.9613635 112.79589 7.902884 108.80577 7.5 108 z M 23.5 108 C 23.097116 108.80577 23.038636 112.79589 23.023438 114.5918 C 22.31523 113.61276 21.428205 112.5 21 112.5 C 21.25 113.25 23 116 23 116 L 24 116 C 24 116 25.75 113.25 26 112.5 C 25.571795 112.5 24.68477 113.61276 23.976562 114.5918 C 23.961363 112.79589 23.902884 108.80577 23.5 108 z M 39.5 108 C 39.097116 108.80577 39.038637 112.79589 39.023438 114.5918 C 38.31523 113.61276 37.428205 112.5 37 112.5 C 37.25 113.25 39 116 39 116 L 40 116 C 40 116 41.75 113.25 42 112.5 C 41.571795 112.5 40.68477 113.61276 39.976562 114.5918 C 39.961363 112.79589 39.902884 108.80577 39.5 108 z M 55.5 108 C 55.097116 108.80577 55.038637 112.79589 55.023438 114.5918 C 54.31523 113.61276 53.428205 112.5 53 112.5 C 53.25 113.25 55 116 55 116 L 56 116 C 56 116 57.75 113.25 58 112.5 C 57.571795 112.5 56.68477 113.61276 55.976562 114.5918 C 55.961363 112.79589 55.902884 108.80577 55.5 108 z M 71.5 108 C 71.097116 108.80577 71.038636 112.79589 71.023438 114.5918 C 70.31523 113.61276 69.428205 112.5 69 112.5 C 69.25 113.25 71 116 71 116 L 72 116 C 72 116 73.75 113.25 74 112.5 C 73.571795 112.5 72.68477 113.61276 71.976562 114.5918 C 71.961364 112.79589 71.902884 108.80577 71.5 108 z M 87.5 108 C 87.097116 108.80577 87.038636 112.79589 87.023438 114.5918 C 86.31523 113.61276 85.428205 112.5 85 112.5 C 85.25 113.25 87 116 87 116 L 88 116 C 88 116 89.75 113.25 90 112.5 C 89.571795 112.5 88.68477 113.61276 87.976562 114.5918 C 87.961364 112.79589 87.902884 108.80577 87.5 108 z M 103.5 108 C 103.09712 108.80577 103.03864 112.79589 103.02344 114.5918 C 102.31523 113.61276 101.42821 112.5 101 112.5 C 101.25 113.25 103 116 103 116 L 104 116 C 104 116 105.75 113.25 106 112.5 C 105.57179 112.5 104.68477 113.61276 103.97656 114.5918 C 103.96136 112.79589 103.90286 108.80577 103.5 108 z M 119.5 108 C 119.09712 108.80577 119.03864 112.79589 119.02344 114.5918 C 118.31523 113.61276 117.42821 112.5 117 112.5 C 117.25 113.25 119 116 119 116 L 120 116 C 120 116 121.75 113.25 122 112.5 C 121.57179 112.5 120.68477 113.61276 119.97656 114.5918 C 119.96136 112.79589 119.90286 108.80577 119.5 108 z M 15.5 116 C 15.097116 116.80577 15.038637 120.79589 15.023438 122.5918 C 14.315229 121.61276 13.428205 120.5 13 120.5 C 13.25 121.25 15 124 15 124 L 16 124 C 16 124 17.75 121.25 18 120.5 C 17.571795 120.5 16.68477 121.61276 15.976562 122.5918 C 15.961364 120.79589 15.902884 116.80577 15.5 116 z M 31.5 116 C 31.097116 116.80577 31.038636 120.79589 31.023438 122.5918 C 30.31523 121.61276 29.428205 120.5 29 120.5 C 29.25 121.25 31 124 31 124 L 32 124 C 32 124 33.75 121.25 34 120.5 C 33.571795 120.5 32.68477 121.61276 31.976562 122.5918 C 31.961363 120.79589 31.902884 116.80577 31.5 116 z M 47.5 116 C 47.097116 116.80577 47.038637 120.79589 47.023438 122.5918 C 46.31523 121.61276 45.428205 120.5 45 120.5 C 45.25 121.25 47 124 47 124 L 48 124 C 48 124 49.75 121.25 50 120.5 C 49.571795 120.5 48.68477 121.61276 47.976562 122.5918 C 47.961363 120.79589 47.902884 116.80577 47.5 116 z M 63.5 116 C 63.097116 116.80577 63.038637 120.79589 63.023438 122.5918 C 62.31523 121.61276 61.428205 120.5 61 120.5 C 61.25 121.25 63 124 63 124 L 64 124 C 64 124 65.75 121.25 66 120.5 C 65.571795 120.5 64.68477 121.61276 63.976562 122.5918 C 63.961363 120.79589 63.902884 116.80577 63.5 116 z M 79.5 116 C 79.097116 116.80577 79.038636 120.79589 79.023438 122.5918 C 78.31523 121.61276 77.428205 120.5 77 120.5 C 77.25 121.25 79 124 79 124 L 80 124 C 80 124 81.75 121.25 82 120.5 C 81.571795 120.5 80.68477 121.61276 79.976562 122.5918 C 79.961364 120.79589 79.902884 116.80577 79.5 116 z M 95.5 116 C 95.097116 116.80577 95.038636 120.79589 95.023438 122.5918 C 94.31523 121.61276 93.428205 120.5 93 120.5 C 93.25 121.25 95 124 95 124 L 96 124 C 96 124 97.75 121.25 98 120.5 C 97.571795 120.5 96.68477 121.61276 95.976562 122.5918 C 95.961364 120.79589 95.902884 116.80577 95.5 116 z M 111.5 116 C 111.09712 116.80577 111.03864 120.79589 111.02344 122.5918 C 110.31523 121.61276 109.42821 120.5 109 120.5 C 109.25 121.25 111 124 111 124 L 112 124 C 112 124 113.75 121.25 114 120.5 C 113.57179 120.5 112.68477 121.61276 111.97656 122.5918 C 111.96136 120.79589 111.90286 116.80577 111.5 116 z M 127.5 116 C 127.09712 116.80577 127.03864 120.79589 127.02344 122.5918 C 126.31523 121.61276 125.42821 120.5 125 120.5 C 125.25 121.25 127 124 127 124 L 128 124 L 128 122.56055 C 127.99248 122.57091 127.98404 122.58146 127.97656 122.5918 C 127.96136 120.79589 127.90286 116.80577 127.5 116 z M 2 120.5 C 1.5763157 120.5 0.70439666 121.58919 0 122.56055 L 0 124 C 0 124 1.75 121.25 2 120.5 z M 7.5 124 C 7.2442037 124.51159 7.1352758 126.29769 7.0800781 128 L 7.9199219 128 C 7.8647242 126.29769 7.7557963 124.51159 7.5 124 z M 23.5 124 C 23.244204 124.51159 23.135276 126.29769 23.080078 128 L 23.919922 128 C 23.864724 126.29769 23.755796 124.51159 23.5 124 z M 39.5 124 C 39.244204 124.51159 39.135276 126.29769 39.080078 128 L 39.919922 128 C 39.864724 126.29769 39.755796 124.51159 39.5 124 z M 55.5 124 C 55.244204 124.51159 55.135276 126.29769 55.080078 128 L 55.919922 128 C 55.864724 126.29769 55.755796 124.51159 55.5 124 z M 71.5 124 C 71.244204 124.51159 71.135276 126.29769 71.080078 128 L 71.919922 128 C 71.864724 126.29769 71.755796 124.51159 71.5 124 z M 87.5 124 C 87.244204 124.51159 87.135276 126.29769 87.080078 128 L 87.919922 128 C 87.864724 126.29769 87.755796 124.51159 87.5 124 z M 103.5 124 C 103.24421 124.51159 103.13528 126.29769 103.08008 128 L 103.91992 128 C 103.86472 126.29769 103.75578 124.51159 103.5 124 z M 119.5 124 C 119.24421 124.51159 119.13528 126.29769 119.08008 128 L 119.91992 128 C 119.86472 126.29769 119.75578 124.51159 119.5 124 z " style="fill:#c9d285" />
  <rect
     style="fill:none;fill-opacity:1;stroke:none"
     id="rect8566"
     y="0"
     x="0"
     rx="0"
     height="128"
     width="128" />
  <desc
     id="desc590">Created with Snap</desc>
</svg>
