<?xml version="1.0" encoding="UTF-8" standalone="no"?>
<svg
   xmlns:dc="http://purl.org/dc/elements/1.1/"
   xmlns:cc="http://creativecommons.org/ns#"
   xmlns:rdf="http://www.w3.org/1999/02/22-rdf-syntax-ns#"
   xmlns:svg="http://www.w3.org/2000/svg"
   xmlns="http://www.w3.org/2000/svg"
   version="1.1"
   height="128"
   width="128"
   id="Svg">
  <metadata
     id="metadata2864">
    <rdf:RDF>
      <cc:Work
         rdf:about="">
        <dc:format>image/svg+xml</dc:format>
        <dc:type
           rdf:resource="http://purl.org/dc/dcmitype/StillImage" />
      </cc:Work>
    </rdf:RDF>
  </metadata>
  <defs
     id="defs3" />
  <path
     id="path12825"
     d="M 10 0 L 10 1 L 11 1 L 11 0 L 10 0 z M 31 0 L 31 1 L 32 1 L 32 0 L 31 0 z M 46 0 L 46 1 L 47 1 L 47 0 L 46 0 z M 66 0 L 66 1 L 67 1 L 67 0 L 66 0 z M 102 0 L 102 1 L 103 1 L 103 0 L 102 0 z M 15 1 L 15 2 L 16 2 L 16 1 L 15 1 z M 51 1 L 51 2 L 52 2 L 52 1 L 51 1 z M 87 1 L 87 2 L 88 2 L 88 1 L 87 1 z M 108 1 L 108 2 L 109 2 L 109 1 L 108 1 z M 123 1 L 123 2 L 124 2 L 124 1 L 123 1 z M 1 2 L 1 3 L 2 3 L 2 2 L 1 2 z M 36 2 L 36 3 L 37 3 L 37 2 L 36 2 z M 72 2 L 72 3 L 73 3 L 73 2 L 72 2 z M 92 2 L 92 3 L 93 3 L 93 2 L 92 2 z M 21 3 L 21 4 L 22 4 L 22 3 L 21 3 z M 57 3 L 57 4 L 58 4 L 58 3 L 57 3 z M 77 3 L 77 4 L 78 4 L 78 3 L 77 3 z M 113 3 L 113 4 L 114 4 L 114 3 L 113 3 z M 6 4 L 6 5 L 7 5 L 7 4 L 6 4 z M 42 4 L 42 5 L 43 5 L 43 4 L 42 4 z M 62 4 L 62 5 L 63 5 L 63 4 L 62 4 z M 98 4 L 98 5 L 99 5 L 99 4 L 98 4 z M 11 5 L 11 6 L 12 6 L 12 5 L 11 5 z M 26 5 L 26 6 L 27 6 L 27 5 L 26 5 z M 47 5 L 47 6 L 48 6 L 48 5 L 47 5 z M 83 5 L 83 6 L 84 6 L 84 5 L 83 5 z M 119 5 L 119 6 L 120 6 L 120 5 L 119 5 z M 32 6 L 32 7 L 33 7 L 33 6 L 32 6 z M 68 6 L 68 7 L 69 7 L 69 6 L 68 6 z M 88 6 L 88 7 L 89 7 L 89 6 L 88 6 z M 104 6 L 104 7 L 105 7 L 105 6 L 104 6 z M 124 6 L 124 7 L 125 7 L 125 6 L 124 6 z M 17 7 L 17 8 L 18 8 L 18 7 L 17 7 z M 53 7 L 53 8 L 54 8 L 54 7 L 53 7 z M 73 7 L 73 8 L 74 8 L 74 7 L 73 7 z M 109 7 L 109 8 L 110 8 L 110 7 L 109 7 z M 2 8 L 2 9 L 3 9 L 3 8 L 2 8 z M 38 8 L 38 9 L 39 9 L 39 8 L 38 8 z M 58 8 L 58 9 L 59 9 L 59 8 L 58 8 z M 94 8 L 94 9 L 95 9 L 95 8 L 94 8 z M 23 9 L 23 10 L 24 10 L 24 9 L 23 9 z M 43 9 L 43 10 L 44 10 L 44 9 L 43 9 z M 79 9 L 79 10 L 80 10 L 80 9 L 79 9 z M 115 9 L 115 10 L 116 10 L 116 9 L 115 9 z M 7 10 L 7 11 L 8 11 L 8 10 L 7 10 z M 28 10 L 28 11 L 29 11 L 29 10 L 28 10 z M 64 10 L 64 11 L 65 11 L 65 10 L 64 10 z M 100 10 L 100 11 L 101 11 L 101 10 L 100 10 z M 120 10 L 120 11 L 121 11 L 121 10 L 120 10 z M 13 11 L 13 12 L 14 12 L 14 11 L 13 11 z M 49 11 L 49 12 L 50 12 L 50 11 L 49 11 z M 69 11 L 69 12 L 70 12 L 70 11 L 69 11 z M 84 11 L 84 12 L 85 12 L 85 11 L 84 11 z M 105 11 L 105 12 L 106 12 L 106 11 L 105 11 z M 34 12 L 34 13 L 35 13 L 35 12 L 34 12 z M 54 12 L 54 13 L 55 13 L 55 12 L 54 12 z M 90 12 L 90 13 L 91 13 L 91 12 L 90 12 z M 126 12 L 126 13 L 127 13 L 127 12 L 126 12 z M 18 13 L 18 14 L 19 14 L 19 13 L 18 13 z M 39 13 L 39 14 L 40 14 L 40 13 L 39 13 z M 75 13 L 75 14 L 76 14 L 76 13 L 75 13 z M 111 13 L 111 14 L 112 14 L 112 13 L 111 13 z M 3 14 L 3 15 L 4 15 L 4 14 L 3 14 z M 24 14 L 24 15 L 25 15 L 25 14 L 24 14 z M 60 14 L 60 15 L 61 15 L 61 14 L 60 14 z M 80 14 L 80 15 L 81 15 L 81 14 L 80 14 z M 96 14 L 96 15 L 97 15 L 97 14 L 96 14 z M 116 14 L 116 15 L 117 15 L 117 14 L 116 14 z M 9 15 L 9 16 L 10 16 L 10 15 L 9 15 z M 45 15 L 45 16 L 46 16 L 46 15 L 45 15 z M 101 15 L 101 16 L 102 16 L 102 15 L 101 15 z M 15 16 L 15 17 L 16 17 L 16 16 L 15 16 z M 29 16 L 29 17 L 30 17 L 30 16 L 29 16 z M 50 16 L 50 17 L 51 17 L 51 16 L 50 16 z M 65 16 L 65 17 L 66 17 L 66 16 L 65 16 z M 86 16 L 86 17 L 87 17 L 87 16 L 86 16 z M 122 16 L 122 17 L 123 17 L 123 16 L 122 16 z M 35 17 L 35 18 L 36 18 L 36 17 L 35 17 z M 71 17 L 71 18 L 72 18 L 72 17 L 71 17 z M 92 17 L 92 18 L 93 18 L 93 17 L 92 17 z M 107 17 L 107 18 L 108 18 L 108 17 L 107 17 z M 127 17 L 127 18 L 128 18 L 128 17 L 127 17 z M 20 18 L 20 19 L 21 19 L 21 18 L 20 18 z M 56 18 L 56 19 L 57 19 L 57 18 L 56 18 z M 76 18 L 76 19 L 77 19 L 77 18 L 76 18 z M 5 19 L 5 20 L 6 20 L 6 19 L 5 19 z M 41 19 L 41 20 L 42 20 L 42 19 L 41 19 z M 62 19 L 62 20 L 63 20 L 63 19 L 62 19 z M 97 19 L 97 20 L 98 20 L 98 19 L 97 19 z M 112 19 L 112 20 L 113 20 L 113 19 L 112 19 z M 10 20 L 10 21 L 11 21 L 11 20 L 10 20 z M 26 20 L 26 21 L 27 21 L 27 20 L 26 20 z M 82 20 L 82 21 L 83 21 L 83 20 L 82 20 z M 118 20 L 118 21 L 119 21 L 119 20 L 118 20 z M 31 21 L 31 22 L 32 22 L 32 21 L 31 21 z M 46 21 L 46 22 L 47 22 L 47 21 L 46 21 z M 67 21 L 67 22 L 68 22 L 68 21 L 67 21 z M 103 21 L 103 22 L 104 22 L 104 21 L 103 21 z M 123 21 L 123 22 L 124 22 L 124 21 L 123 21 z M 16 22 L 16 23 L 17 23 L 17 22 L 16 22 z M 52 22 L 52 23 L 53 23 L 53 22 L 52 22 z M 73 22 L 73 23 L 74 23 L 74 22 L 73 22 z M 88 22 L 88 23 L 89 23 L 89 22 L 88 22 z M 108 22 L 108 23 L 109 23 L 109 22 L 108 22 z M 1 23 L 1 24 L 2 24 L 2 23 L 1 23 z M 37 23 L 37 24 L 38 24 L 38 23 L 37 23 z M 57 23 L 57 24 L 58 24 L 58 23 L 57 23 z M 93 23 L 93 24 L 94 24 L 94 23 L 93 23 z M 7 24 L 7 25 L 8 25 L 8 24 L 7 24 z M 22 24 L 22 25 L 23 25 L 23 24 L 22 24 z M 42 24 L 42 25 L 43 25 L 43 24 L 42 24 z M 78 24 L 78 25 L 79 25 L 79 24 L 78 24 z M 114 24 L 114 25 L 115 25 L 115 24 L 114 24 z M 27 25 L 27 26 L 28 26 L 28 25 L 27 25 z M 63 25 L 63 26 L 64 26 L 64 25 L 63 25 z M 99 25 L 99 26 L 100 26 L 100 25 L 99 25 z M 119 25 L 119 26 L 120 26 L 120 25 L 119 25 z M 12 26 L 12 27 L 13 27 L 13 26 L 12 26 z M 48 26 L 48 27 L 49 27 L 49 26 L 48 26 z M 68 26 L 68 27 L 69 27 L 69 26 L 68 26 z M 84 26 L 84 27 L 85 27 L 85 26 L 84 26 z M 104 26 L 104 27 L 105 27 L 105 26 L 104 26 z M 18 27 L 18 28 L 19 28 L 19 27 L 18 27 z M 33 27 L 33 28 L 34 28 L 34 27 L 33 27 z M 53 27 L 53 28 L 54 28 L 54 27 L 53 27 z M 89 27 L 89 28 L 90 28 L 90 27 L 89 27 z M 125 27 L 125 28 L 126 28 L 126 27 L 125 27 z M 74 28 L 74 29 L 75 29 L 75 28 L 74 28 z M 110 28 L 110 29 L 111 29 L 111 28 L 110 28 z M 2 29 L 2 30 L 3 30 L 3 29 L 2 29 z M 23 29 L 23 30 L 24 30 L 24 29 L 23 29 z M 38 29 L 38 30 L 39 30 L 39 29 L 38 29 z M 59 29 L 59 30 L 60 30 L 60 29 L 59 29 z M 95 29 L 95 30 L 96 30 L 96 29 L 95 29 z M 115 29 L 115 30 L 116 30 L 116 29 L 115 29 z M 8 30 L 8 31 L 9 31 L 9 30 L 8 30 z M 44 30 L 44 31 L 45 31 L 45 30 L 44 30 z M 64 30 L 64 31 L 65 31 L 65 30 L 64 30 z M 80 30 L 80 31 L 81 31 L 81 30 L 80 30 z M 100 30 L 100 31 L 101 31 L 101 30 L 100 30 z M 14 31 L 14 32 L 15 32 L 15 31 L 14 31 z M 29 31 L 29 32 L 30 32 L 30 31 L 29 31 z M 85 31 L 85 32 L 86 32 L 86 31 L 85 31 z M 121 31 L 121 32 L 122 32 L 122 31 L 121 31 z M 34 32 L 34 33 L 35 33 L 35 32 L 34 32 z M 49 32 L 49 33 L 50 33 L 50 32 L 49 32 z M 70 32 L 70 33 L 71 33 L 71 32 L 70 32 z M 106 32 L 106 33 L 107 33 L 107 32 L 106 32 z M 19 33 L 19 34 L 20 34 L 20 33 L 19 33 z M 55 33 L 55 34 L 56 34 L 56 33 L 55 33 z M 91 33 L 91 34 L 92 34 L 92 33 L 91 33 z M 112 33 L 112 34 L 113 34 L 113 33 L 112 33 z M 126 33 L 126 34 L 127 34 L 127 33 L 126 33 z M 4 34 L 4 35 L 5 35 L 5 34 L 4 34 z M 40 34 L 40 35 L 41 35 L 41 34 L 40 34 z M 76 34 L 76 35 L 77 35 L 77 34 L 76 34 z M 96 34 L 96 35 L 97 35 L 97 34 L 96 34 z M 10 35 L 10 36 L 11 36 L 11 35 L 10 35 z M 25 35 L 25 36 L 26 36 L 26 35 L 25 35 z M 46 35 L 46 36 L 47 36 L 47 35 L 46 35 z M 61 35 L 61 36 L 62 36 L 62 35 L 61 35 z M 81 35 L 81 36 L 82 36 L 82 35 L 81 35 z M 117 35 L 117 36 L 118 36 L 118 35 L 117 35 z M 30 36 L 30 37 L 31 37 L 31 36 L 30 36 z M 66 36 L 66 37 L 67 37 L 67 36 L 66 36 z M 102 36 L 102 37 L 103 37 L 103 36 L 102 36 z M 15 37 L 15 38 L 16 38 L 16 37 L 15 37 z M 51 37 L 51 38 L 52 38 L 52 37 L 51 37 z M 87 37 L 87 38 L 88 38 L 88 37 L 87 37 z M 123 37 L 123 38 L 124 38 L 124 37 L 123 37 z M 0 38 L 0 39 L 1 39 L 1 38 L 0 38 z M 36 38 L 36 39 L 37 39 L 37 38 L 36 38 z M 71 38 L 71 39 L 72 39 L 72 38 L 71 38 z M 92 38 L 92 39 L 93 39 L 93 38 L 92 38 z M 107 38 L 107 39 L 108 39 L 108 38 L 107 38 z M 21 39 L 21 40 L 22 40 L 22 39 L 21 39 z M 41 39 L 41 40 L 42 40 L 42 39 L 41 39 z M 56 39 L 56 40 L 57 40 L 57 39 L 56 39 z M 77 39 L 77 40 L 78 40 L 78 39 L 77 39 z M 113 39 L 113 40 L 114 40 L 114 39 L 113 39 z M 6 40 L 6 41 L 7 41 L 7 40 L 6 40 z M 26 40 L 26 41 L 27 41 L 27 40 L 26 40 z M 62 40 L 62 41 L 63 41 L 63 40 L 62 40 z M 98 40 L 98 41 L 99 41 L 99 40 L 98 40 z M 119 40 L 119 41 L 120 41 L 120 40 L 119 40 z M 11 41 L 11 42 L 12 42 L 12 41 L 11 41 z M 47 41 L 47 42 L 48 42 L 48 41 L 47 41 z M 83 41 L 83 42 L 84 42 L 84 41 L 83 41 z M 104 41 L 104 42 L 105 42 L 105 41 L 104 41 z M 32 42 L 32 43 L 33 43 L 33 42 L 32 42 z M 67 42 L 67 43 L 68 43 L 68 42 L 67 42 z M 88 42 L 88 43 L 89 43 L 89 42 L 88 42 z M 124 42 L 124 43 L 125 43 L 125 42 L 124 42 z M 17 43 L 17 44 L 18 44 L 18 43 L 17 43 z M 37 43 L 37 44 L 38 44 L 38 43 L 37 43 z M 53 43 L 53 44 L 54 44 L 54 43 L 53 43 z M 73 43 L 73 44 L 74 44 L 74 43 L 73 43 z M 109 43 L 109 44 L 110 44 L 110 43 L 109 43 z M 2 44 L 2 45 L 3 45 L 3 44 L 2 44 z M 22 44 L 22 45 L 23 45 L 23 44 L 22 44 z M 58 44 L 58 45 L 59 45 L 59 44 L 58 44 z M 78 44 L 78 45 L 79 45 L 79 44 L 78 44 z M 94 44 L 94 45 L 95 45 L 95 44 L 94 44 z M 7 45 L 7 46 L 8 46 L 8 45 L 7 45 z M 43 45 L 43 46 L 44 46 L 44 45 L 43 45 z M 64 45 L 64 46 L 65 46 L 65 45 L 64 45 z M 99 45 L 99 46 L 100 46 L 100 45 L 99 45 z M 114 45 L 114 46 L 115 46 L 115 45 L 114 45 z M 28 46 L 28 47 L 29 47 L 29 46 L 28 46 z M 49 46 L 49 47 L 50 47 L 50 46 L 49 46 z M 84 46 L 84 47 L 85 47 L 85 46 L 84 46 z M 120 46 L 120 47 L 121 47 L 121 46 L 120 46 z M 13 47 L 13 48 L 14 48 L 14 47 L 13 47 z M 33 47 L 33 48 L 34 48 L 34 47 L 33 47 z M 69 47 L 69 48 L 70 48 L 70 47 L 69 47 z M 105 47 L 105 48 L 106 48 L 106 47 L 105 47 z M 126 47 L 126 48 L 127 48 L 127 47 L 126 47 z M 18 48 L 18 49 L 19 49 L 19 48 L 18 48 z M 54 48 L 54 49 L 55 49 L 55 48 L 54 48 z M 90 48 L 90 49 L 91 49 L 91 48 L 90 48 z M 3 49 L 3 50 L 4 50 L 4 49 L 3 49 z M 39 49 L 39 50 L 40 50 L 40 49 L 39 49 z M 75 49 L 75 50 L 76 50 L 76 49 L 75 49 z M 95 49 L 95 50 L 96 50 L 96 49 L 95 49 z M 110 49 L 110 50 L 111 50 L 111 49 L 110 49 z M 24 50 L 24 51 L 25 51 L 25 50 L 24 50 z M 45 50 L 45 51 L 46 51 L 46 50 L 45 50 z M 60 50 L 60 51 L 61 51 L 61 50 L 60 50 z M 80 50 L 80 51 L 81 51 L 81 50 L 80 50 z M 116 50 L 116 51 L 117 51 L 117 50 L 116 50 z M 9 51 L 9 52 L 10 52 L 10 51 L 9 51 z M 29 51 L 29 52 L 30 52 L 30 51 L 29 51 z M 65 51 L 65 52 L 66 52 L 66 51 L 65 51 z M 101 51 L 101 52 L 102 52 L 102 51 L 101 51 z M 14 52 L 14 53 L 15 53 L 15 52 L 14 52 z M 50 52 L 50 53 L 51 53 L 51 52 L 50 52 z M 86 52 L 86 53 L 87 53 L 87 52 L 86 52 z M 122 52 L 122 53 L 123 53 L 123 52 L 122 52 z M 35 53 L 35 54 L 36 54 L 36 53 L 35 53 z M 71 53 L 71 54 L 72 54 L 72 53 L 71 53 z M 107 53 L 107 54 L 108 54 L 108 53 L 107 53 z M 127 53 L 127 54 L 128 54 L 128 53 L 127 53 z M 20 54 L 20 55 L 21 55 L 21 54 L 20 54 z M 56 54 L 56 55 L 57 55 L 57 54 L 56 54 z M 76 54 L 76 55 L 77 55 L 77 54 L 76 54 z M 91 54 L 91 55 L 92 55 L 92 54 L 91 54 z M 112 54 L 112 55 L 113 55 L 113 54 L 112 54 z M 5 55 L 5 56 L 6 56 L 6 55 L 5 55 z M 25 55 L 25 56 L 26 56 L 26 55 L 25 55 z M 41 55 L 41 56 L 42 56 L 42 55 L 41 55 z M 61 55 L 61 56 L 62 56 L 62 55 L 61 55 z M 97 55 L 97 56 L 98 56 L 98 55 L 97 55 z M 10 56 L 10 57 L 11 57 L 11 56 L 10 56 z M 46 56 L 46 57 L 47 57 L 47 56 L 46 56 z M 82 56 L 82 57 L 83 57 L 83 56 L 82 56 z M 102 56 L 102 57 L 103 57 L 103 56 L 102 56 z M 118 56 L 118 57 L 119 57 L 119 56 L 118 56 z M 31 57 L 31 58 L 32 58 L 32 57 L 31 57 z M 67 57 L 67 58 L 68 58 L 68 57 L 67 57 z M 87 57 L 87 58 L 88 58 L 88 57 L 87 57 z M 123 57 L 123 58 L 124 58 L 124 57 L 123 57 z M 16 58 L 16 59 L 17 59 L 17 58 L 16 58 z M 36 58 L 36 59 L 37 59 L 37 58 L 36 58 z M 52 58 L 52 59 L 53 59 L 53 58 L 52 58 z M 72 58 L 72 59 L 73 59 L 73 58 L 72 58 z M 108 58 L 108 59 L 109 59 L 109 58 L 108 58 z M 1 59 L 1 60 L 2 60 L 2 59 L 1 59 z M 21 59 L 21 60 L 22 60 L 22 59 L 21 59 z M 57 59 L 57 60 L 58 60 L 58 59 L 57 59 z M 93 59 L 93 60 L 94 60 L 94 59 L 93 59 z M 6 60 L 6 61 L 7 61 L 7 60 L 6 60 z M 42 60 L 42 61 L 43 61 L 43 60 L 42 60 z M 78 60 L 78 61 L 79 61 L 79 60 L 78 60 z M 99 60 L 99 61 L 100 61 L 100 60 L 99 60 z M 113 60 L 113 61 L 114 61 L 114 60 L 113 60 z M 27 61 L 27 62 L 28 62 L 28 61 L 27 61 z M 47 61 L 47 62 L 48 62 L 48 61 L 47 61 z M 63 61 L 63 62 L 64 62 L 64 61 L 63 61 z M 119 61 L 119 62 L 120 62 L 120 61 L 119 61 z M 12 62 L 12 63 L 13 63 L 13 62 L 12 62 z M 32 62 L 32 63 L 33 63 L 33 62 L 32 62 z M 84 62 L 84 63 L 85 63 L 85 62 L 84 62 z M 104 62 L 104 63 L 105 63 L 105 62 L 104 62 z M 18 63 L 18 64 L 19 64 L 19 63 L 18 63 z M 53 63 L 53 64 L 54 64 L 54 63 L 53 63 z M 68 63 L 68 64 L 69 64 L 69 63 L 68 63 z M 89 63 L 89 64 L 90 64 L 90 63 L 89 63 z M 125 63 L 125 64 L 126 64 L 126 63 L 125 63 z M 2 64 L 2 65 L 3 65 L 3 64 L 2 64 z M 38 64 L 38 65 L 39 65 L 39 64 L 38 64 z M 74 64 L 74 65 L 75 65 L 75 64 L 74 64 z M 94 64 L 94 65 L 95 65 L 95 64 L 94 64 z M 110 64 L 110 65 L 111 65 L 111 64 L 110 64 z M 23 65 L 23 66 L 24 66 L 24 65 L 23 65 z M 59 65 L 59 66 L 60 66 L 60 65 L 59 65 z M 79 65 L 79 66 L 80 66 L 80 65 L 79 65 z M 115 65 L 115 66 L 116 66 L 116 65 L 115 65 z M 8 66 L 8 67 L 9 67 L 9 66 L 8 66 z M 29 66 L 29 67 L 30 67 L 30 66 L 29 66 z M 44 66 L 44 67 L 45 67 L 45 66 L 44 66 z M 64 66 L 64 67 L 65 67 L 65 66 L 64 66 z M 100 66 L 100 67 L 101 67 L 101 66 L 100 66 z M 49 67 L 49 68 L 50 68 L 50 67 L 49 67 z M 85 67 L 85 68 L 86 68 L 86 67 L 85 67 z M 121 67 L 121 68 L 122 68 L 122 67 L 121 67 z M 13 68 L 13 69 L 14 69 L 14 68 L 13 68 z M 34 68 L 34 69 L 35 69 L 35 68 L 34 68 z M 70 68 L 70 69 L 71 69 L 71 68 L 70 68 z M 106 68 L 106 69 L 107 69 L 107 68 L 106 68 z M 126 68 L 126 69 L 127 69 L 127 68 L 126 68 z M 19 69 L 19 70 L 20 70 L 20 69 L 19 69 z M 40 69 L 40 70 L 41 70 L 41 69 L 40 69 z M 55 69 L 55 70 L 56 70 L 56 69 L 55 69 z M 75 69 L 75 70 L 76 70 L 76 69 L 75 69 z M 90 69 L 90 70 L 91 70 L 91 69 L 90 69 z M 111 69 L 111 70 L 112 70 L 112 69 L 111 69 z M 4 70 L 4 71 L 5 71 L 5 70 L 4 70 z M 60 70 L 60 71 L 61 71 L 61 70 L 60 70 z M 96 70 L 96 71 L 97 71 L 97 70 L 96 70 z M 9 71 L 9 72 L 10 72 L 10 71 L 9 71 z M 25 71 L 25 72 L 26 72 L 26 71 L 25 71 z M 45 71 L 45 72 L 46 72 L 46 71 L 45 71 z M 81 71 L 81 72 L 82 72 L 82 71 L 81 71 z M 102 71 L 102 72 L 103 72 L 103 71 L 102 71 z M 117 71 L 117 72 L 118 72 L 118 71 L 117 71 z M 30 72 L 30 73 L 31 73 L 31 72 L 30 72 z M 51 72 L 51 73 L 52 73 L 52 72 L 51 72 z M 66 72 L 66 73 L 67 73 L 67 72 L 66 72 z M 122 72 L 122 73 L 123 73 L 123 72 L 122 72 z M 15 73 L 15 74 L 16 74 L 16 73 L 15 73 z M 71 73 L 71 74 L 72 74 L 72 73 L 71 73 z M 86 73 L 86 74 L 87 74 L 87 73 L 86 73 z M 107 73 L 107 74 L 108 74 L 108 73 L 107 73 z M 0 74 L 0 75 L 1 75 L 1 74 L 0 74 z M 36 74 L 36 75 L 37 75 L 37 74 L 36 74 z M 56 74 L 56 75 L 57 75 L 57 74 L 56 74 z M 92 74 L 92 75 L 93 75 L 93 74 L 92 74 z M 5 75 L 5 76 L 6 76 L 6 75 L 5 75 z M 20 75 L 20 76 L 21 76 L 21 75 L 20 75 z M 41 75 L 41 76 L 42 76 L 42 75 L 41 75 z M 77 75 L 77 76 L 78 76 L 78 75 L 77 75 z M 113 75 L 113 76 L 114 76 L 114 75 L 113 75 z M 26 76 L 26 77 L 27 77 L 27 76 L 26 76 z M 62 76 L 62 77 L 63 77 L 63 76 L 62 76 z M 98 76 L 98 77 L 99 77 L 99 76 L 98 76 z M 118 76 L 118 77 L 119 77 L 119 76 L 118 76 z M 11 77 L 11 78 L 12 78 L 12 77 L 11 77 z M 47 77 L 47 78 L 48 78 L 48 77 L 47 77 z M 67 77 L 67 78 L 68 78 L 68 77 L 67 77 z M 83 77 L 83 78 L 84 78 L 84 77 L 83 77 z M 103 77 L 103 78 L 104 78 L 104 77 L 103 77 z M 32 78 L 32 79 L 33 79 L 33 78 L 32 78 z M 52 78 L 52 79 L 53 79 L 53 78 L 52 78 z M 88 78 L 88 79 L 89 79 L 89 78 L 88 78 z M 124 78 L 124 79 L 125 79 L 125 78 L 124 78 z M 16 79 L 16 80 L 17 80 L 17 79 L 16 79 z M 37 79 L 37 80 L 38 80 L 38 79 L 37 79 z M 73 79 L 73 80 L 74 80 L 74 79 L 73 79 z M 109 79 L 109 80 L 110 80 L 110 79 L 109 79 z M 1 80 L 1 81 L 2 81 L 2 80 L 1 80 z M 22 80 L 22 81 L 23 81 L 23 80 L 22 80 z M 58 80 L 58 81 L 59 81 L 59 80 L 58 80 z M 79 80 L 79 81 L 80 81 L 80 80 L 79 80 z M 94 80 L 94 81 L 95 81 L 95 80 L 94 80 z M 114 80 L 114 81 L 115 81 L 115 80 L 114 80 z M 7 81 L 7 82 L 8 82 L 8 81 L 7 81 z M 43 81 L 43 82 L 44 82 L 44 81 L 43 81 z M 63 81 L 63 82 L 64 82 L 64 81 L 63 81 z M 99 81 L 99 82 L 100 82 L 100 81 L 99 81 z M 12 82 L 12 83 L 13 83 L 13 82 L 12 82 z M 27 82 L 27 83 L 28 83 L 28 82 L 27 82 z M 48 82 L 48 83 L 49 83 L 49 82 L 48 82 z M 84 82 L 84 83 L 85 83 L 85 82 L 84 82 z M 120 82 L 120 83 L 121 83 L 121 82 L 120 82 z M 33 83 L 33 84 L 34 84 L 34 83 L 33 83 z M 69 83 L 69 84 L 70 84 L 70 83 L 69 83 z M 105 83 L 105 84 L 106 84 L 106 83 L 105 83 z M 125 83 L 125 84 L 126 84 L 126 83 L 125 83 z M 18 84 L 18 85 L 19 85 L 19 84 L 18 84 z M 54 84 L 54 85 L 55 85 L 55 84 L 54 84 z M 90 84 L 90 85 L 91 85 L 91 84 L 90 84 z M 110 84 L 110 85 L 111 85 L 111 84 L 110 84 z M 3 85 L 3 86 L 4 86 L 4 85 L 3 85 z M 24 85 L 24 86 L 25 86 L 25 85 L 24 85 z M 39 85 L 39 86 L 40 86 L 40 85 L 39 85 z M 59 85 L 59 86 L 60 86 L 60 85 L 59 85 z M 74 85 L 74 86 L 75 86 L 75 85 L 74 85 z M 95 85 L 95 86 L 96 86 L 96 85 L 95 85 z M 8 86 L 8 87 L 9 87 L 9 86 L 8 86 z M 44 86 L 44 87 L 45 87 L 45 86 L 44 86 z M 80 86 L 80 87 L 81 87 L 81 86 L 80 86 z M 116 86 L 116 87 L 117 87 L 117 86 L 116 86 z M 29 87 L 29 88 L 30 88 L 30 87 L 29 87 z M 65 87 L 65 88 L 66 88 L 66 87 L 65 87 z M 101 87 L 101 88 L 102 88 L 102 87 L 101 87 z M 14 88 L 14 89 L 15 89 L 15 88 L 14 88 z M 50 88 L 50 89 L 51 89 L 51 88 L 50 88 z M 86 88 L 86 89 L 87 89 L 87 88 L 86 88 z M 106 88 L 106 89 L 107 89 L 107 88 L 106 88 z M 121 88 L 121 89 L 122 89 L 122 88 L 121 88 z M 35 89 L 35 90 L 36 90 L 36 89 L 35 89 z M 71 89 L 71 90 L 72 90 L 72 89 L 71 89 z M 91 89 L 91 90 L 92 90 L 92 89 L 91 89 z M 127 89 L 127 90 L 128 90 L 128 89 L 127 89 z M 19 90 L 19 91 L 20 91 L 20 90 L 19 90 z M 40 90 L 40 91 L 41 91 L 41 90 L 40 90 z M 55 90 L 55 91 L 56 91 L 56 90 L 55 90 z M 76 90 L 76 91 L 77 91 L 77 90 L 76 90 z M 112 90 L 112 91 L 113 91 L 113 90 L 112 90 z M 5 91 L 5 92 L 6 92 L 6 91 L 5 91 z M 25 91 L 25 92 L 26 92 L 26 91 L 25 91 z M 61 91 L 61 92 L 62 92 L 62 91 L 61 91 z M 97 91 L 97 92 L 98 92 L 98 91 L 97 91 z M 10 92 L 10 93 L 11 93 L 11 92 L 10 92 z M 31 92 L 31 93 L 32 93 L 32 92 L 31 92 z M 46 92 L 46 93 L 47 93 L 47 92 L 46 92 z M 67 92 L 67 93 L 68 93 L 68 92 L 67 92 z M 82 92 L 82 93 L 83 93 L 83 92 L 82 92 z M 102 92 L 102 93 L 103 93 L 103 92 L 102 92 z M 118 92 L 118 93 L 119 93 L 119 92 L 118 92 z M 87 93 L 87 94 L 88 94 L 88 93 L 87 93 z M 123 93 L 123 94 L 124 94 L 124 93 L 123 93 z M 0 94 L 0 95 L 1 95 L 1 94 L 0 94 z M 16 94 L 16 95 L 17 95 L 17 94 L 16 94 z M 36 94 L 36 95 L 37 95 L 37 94 L 36 94 z M 51 94 L 51 95 L 52 95 L 52 94 L 51 94 z M 72 94 L 72 95 L 73 95 L 73 94 L 72 94 z M 108 94 L 108 95 L 109 95 L 109 94 L 108 94 z M 21 95 L 21 96 L 22 96 L 22 95 L 21 95 z M 57 95 L 57 96 L 58 96 L 58 95 L 57 95 z M 93 95 L 93 96 L 94 96 L 94 95 L 93 95 z M 6 96 L 6 97 L 7 97 L 7 96 L 6 96 z M 42 96 L 42 97 L 43 97 L 43 96 L 42 96 z M 78 96 L 78 97 L 79 97 L 79 96 L 78 96 z M 99 96 L 99 97 L 100 97 L 100 96 L 99 96 z M 113 96 L 113 97 L 114 97 L 114 96 L 113 96 z M 27 97 L 27 98 L 28 98 L 28 97 L 27 97 z M 48 97 L 48 98 L 49 98 L 49 97 L 48 97 z M 62 97 L 62 98 L 63 98 L 63 97 L 62 97 z M 83 97 L 83 98 L 84 98 L 84 97 L 83 97 z M 119 97 L 119 98 L 120 98 L 120 97 L 119 97 z M 12 98 L 12 99 L 13 99 L 13 98 L 12 98 z M 32 98 L 32 99 L 33 99 L 33 98 L 32 98 z M 68 98 L 68 99 L 69 99 L 69 98 L 68 98 z M 104 98 L 104 99 L 105 99 L 105 98 L 104 98 z M 124 98 L 124 99 L 125 99 L 125 98 L 124 98 z M 17 99 L 17 100 L 18 100 L 18 99 L 17 99 z M 53 99 L 53 100 L 54 100 L 54 99 L 53 99 z M 74 99 L 74 100 L 75 100 L 75 99 L 74 99 z M 89 99 L 89 100 L 90 100 L 90 99 L 89 99 z M 109 99 L 109 100 L 110 100 L 110 99 L 109 99 z M 2 100 L 2 101 L 3 101 L 3 100 L 2 100 z M 38 100 L 38 101 L 39 101 L 39 100 L 38 100 z M 94 100 L 94 101 L 95 101 L 95 100 L 94 100 z M 23 101 L 23 102 L 24 102 L 24 101 L 23 101 z M 59 101 L 59 102 L 60 102 L 60 101 L 59 101 z M 79 101 L 79 102 L 80 102 L 80 101 L 79 101 z M 115 101 L 115 102 L 116 102 L 116 101 L 115 101 z M 8 102 L 8 103 L 9 103 L 9 102 L 8 102 z M 28 102 L 28 103 L 29 103 L 29 102 L 28 102 z M 44 102 L 44 103 L 45 103 L 45 102 L 44 102 z M 64 102 L 64 103 L 65 103 L 65 102 L 64 102 z M 100 102 L 100 103 L 101 103 L 101 102 L 100 102 z M 121 102 L 121 103 L 122 103 L 122 102 L 121 102 z M 13 103 L 13 104 L 14 104 L 14 103 L 13 103 z M 49 103 L 49 104 L 50 104 L 50 103 L 49 103 z M 69 103 L 69 104 L 70 104 L 70 103 L 69 103 z M 85 103 L 85 104 L 86 104 L 86 103 L 85 103 z M 106 103 L 106 104 L 107 104 L 107 103 L 106 103 z M 34 104 L 34 105 L 35 105 L 35 104 L 34 104 z M 90 104 L 90 105 L 91 105 L 91 104 L 90 104 z M 126 104 L 126 105 L 127 105 L 127 104 L 126 104 z M 19 105 L 19 106 L 20 106 L 20 105 L 19 105 z M 54 105 L 54 106 L 55 106 L 55 105 L 54 105 z M 75 105 L 75 106 L 76 106 L 76 105 L 75 105 z M 111 105 L 111 106 L 112 106 L 112 105 L 111 105 z M 4 106 L 4 107 L 5 107 L 5 106 L 4 106 z M 24 106 L 24 107 L 25 107 L 25 106 L 24 106 z M 39 106 L 39 107 L 40 107 L 40 106 L 39 106 z M 60 106 L 60 107 L 61 107 L 61 106 L 60 106 z M 96 106 L 96 107 L 97 107 L 97 106 L 96 106 z M 9 107 L 9 108 L 10 108 L 10 107 L 9 107 z M 45 107 L 45 108 L 46 108 L 46 107 L 45 107 z M 81 107 L 81 108 L 82 108 L 82 107 L 81 107 z M 102 107 L 102 108 L 103 108 L 103 107 L 102 107 z M 116 107 L 116 108 L 117 108 L 117 107 L 116 107 z M 30 108 L 30 109 L 31 109 L 31 108 L 30 108 z M 50 108 L 50 109 L 51 109 L 51 108 L 50 108 z M 66 108 L 66 109 L 67 109 L 67 108 L 66 108 z M 86 108 L 86 109 L 87 109 L 87 108 L 86 108 z M 122 108 L 122 109 L 123 109 L 123 108 L 122 108 z M 15 109 L 15 110 L 16 110 L 16 109 L 15 109 z M 36 109 L 36 110 L 37 110 L 37 109 L 36 109 z M 71 109 L 71 110 L 72 110 L 72 109 L 71 109 z M 107 109 L 107 110 L 108 110 L 108 109 L 107 109 z M 0 110 L 0 111 L 1 111 L 1 110 L 0 110 z M 21 110 L 21 111 L 22 111 L 22 110 L 21 110 z M 56 110 L 56 111 L 57 111 L 57 110 L 56 110 z M 92 110 L 92 111 L 93 111 L 93 110 L 92 110 z M 5 111 L 5 112 L 6 112 L 6 111 L 5 111 z M 41 111 L 41 112 L 42 112 L 42 111 L 41 111 z M 77 111 L 77 112 L 78 112 L 78 111 L 77 111 z M 97 111 L 97 112 L 98 112 L 98 111 L 97 111 z M 113 111 L 113 112 L 114 112 L 114 111 L 113 111 z M 26 112 L 26 113 L 27 113 L 27 112 L 26 112 z M 46 112 L 46 113 L 47 113 L 47 112 L 46 112 z M 61 112 L 61 113 L 62 113 L 62 112 L 61 112 z M 82 112 L 82 113 L 83 113 L 83 112 L 82 112 z M 118 112 L 118 113 L 119 113 L 119 112 L 118 112 z M 11 113 L 11 114 L 12 114 L 12 113 L 11 113 z M 67 113 L 67 114 L 68 114 L 68 113 L 67 113 z M 103 113 L 103 114 L 104 114 L 104 113 L 103 113 z M 16 114 L 16 115 L 17 115 L 17 114 L 16 114 z M 31 114 L 31 115 L 32 115 L 32 114 L 31 114 z M 52 114 L 52 115 L 53 115 L 53 114 L 52 114 z M 88 114 L 88 115 L 89 115 L 89 114 L 88 114 z M 124 114 L 124 115 L 125 115 L 125 114 L 124 114 z M 1 115 L 1 116 L 2 116 L 2 115 L 1 115 z M 37 115 L 37 116 L 38 116 L 38 115 L 37 115 z M 73 115 L 73 116 L 74 116 L 74 115 L 73 115 z M 94 115 L 94 116 L 95 116 L 95 115 L 94 115 z M 108 115 L 108 116 L 109 116 L 109 115 L 108 115 z M 22 116 L 22 117 L 23 117 L 23 116 L 22 116 z M 58 116 L 58 117 L 59 117 L 59 116 L 58 116 z M 78 116 L 78 117 L 79 117 L 79 116 L 78 116 z M 114 116 L 114 117 L 115 117 L 115 116 L 114 116 z M 7 117 L 7 118 L 8 118 L 8 117 L 7 117 z M 27 117 L 27 118 L 28 118 L 28 117 L 27 117 z M 42 117 L 42 118 L 43 118 L 43 117 L 42 117 z M 63 117 L 63 118 L 64 118 L 64 117 L 63 117 z M 99 117 L 99 118 L 100 118 L 100 117 L 99 117 z M 12 118 L 12 119 L 13 119 L 13 118 L 12 118 z M 48 118 L 48 119 L 49 119 L 49 118 L 48 118 z M 84 118 L 84 119 L 85 119 L 85 118 L 84 118 z M 120 118 L 120 119 L 121 119 L 121 118 L 120 118 z M 33 119 L 33 120 L 34 120 L 34 119 L 33 119 z M 69 119 L 69 120 L 70 120 L 70 119 L 69 119 z M 90 119 L 90 120 L 91 120 L 91 119 L 90 119 z M 104 119 L 104 120 L 105 120 L 105 119 L 104 119 z M 125 119 L 125 120 L 126 120 L 126 119 L 125 119 z M 18 120 L 18 121 L 19 121 L 19 120 L 18 120 z M 39 120 L 39 121 L 40 121 L 40 120 L 39 120 z M 53 120 L 53 121 L 54 121 L 54 120 L 53 120 z M 74 120 L 74 121 L 75 121 L 75 120 L 74 120 z M 110 120 L 110 121 L 111 121 L 111 120 L 110 120 z M 3 121 L 3 122 L 4 122 L 4 121 L 3 121 z M 23 121 L 23 122 L 24 122 L 24 121 L 23 121 z M 59 121 L 59 122 L 60 122 L 60 121 L 59 121 z M 95 121 L 95 122 L 96 122 L 96 121 L 95 121 z M 8 122 L 8 123 L 9 123 L 9 122 L 8 122 z M 44 122 L 44 123 L 45 123 L 45 122 L 44 122 z M 80 122 L 80 123 L 81 123 L 81 122 L 80 122 z M 116 122 L 116 123 L 117 123 L 117 122 L 116 122 z M 29 123 L 29 124 L 30 124 L 30 123 L 29 123 z M 65 123 L 65 124 L 66 124 L 66 123 L 65 123 z M 85 123 L 85 124 L 86 124 L 86 123 L 85 123 z M 100 123 L 100 124 L 101 124 L 101 123 L 100 123 z M 121 123 L 121 124 L 122 124 L 122 123 L 121 123 z M 14 124 L 14 125 L 15 125 L 15 124 L 14 124 z M 49 124 L 49 125 L 50 125 L 50 124 L 49 124 z M 70 124 L 70 125 L 71 125 L 71 124 L 70 124 z M 106 124 L 106 125 L 107 125 L 107 124 L 106 124 z M 34 125 L 34 126 L 35 126 L 35 125 L 34 125 z M 55 125 L 55 126 L 56 126 L 56 125 L 55 125 z M 91 125 L 91 126 L 92 126 L 92 125 L 91 125 z M 112 125 L 112 126 L 113 126 L 113 125 L 112 125 z M 127 125 L 127 126 L 128 126 L 128 125 L 127 125 z M 4 126 L 4 127 L 5 127 L 5 126 L 4 126 z M 20 126 L 20 127 L 21 127 L 21 126 L 20 126 z M 40 126 L 40 127 L 41 127 L 41 126 L 40 126 z M 61 126 L 61 127 L 62 127 L 62 126 L 61 126 z M 76 126 L 76 127 L 77 127 L 77 126 L 76 126 z M 25 127 L 25 128 L 26 128 L 26 127 L 25 127 z M 81 127 L 81 128 L 82 128 L 82 127 L 81 127 z M 96 127 L 96 128 L 97 128 L 97 127 L 96 127 z M 117 127 L 117 128 L 118 128 L 118 127 L 117 127 z "
     style="fill:#95b973" />
  <rect
     style="fill:none;fill-opacity:1;stroke:none"
     id="rect8566"
     y="0"
     x="0"
     rx="0"
     height="128"
     width="128" />
  <desc
     id="desc2860">Created with Snap</desc>
</svg>
