<?xml version="1.0" encoding="UTF-8" standalone="no"?>
<svg
   xmlns:dc="http://purl.org/dc/elements/1.1/"
   xmlns:cc="http://creativecommons.org/ns#"
   xmlns:rdf="http://www.w3.org/1999/02/22-rdf-syntax-ns#"
   xmlns:svg="http://www.w3.org/2000/svg"
   xmlns="http://www.w3.org/2000/svg"
   version="1.1"
   height="64"
   width="64"
   id="Svg">
  <metadata
     id="metadata178">
    <rdf:RDF>
      <cc:Work
         rdf:about="">
        <dc:format>image/svg+xml</dc:format>
        <dc:type
           rdf:resource="http://purl.org/dc/dcmitype/StillImage" />
      </cc:Work>
    </rdf:RDF>
  </metadata>
  <defs
     id="defs3" />
  <path
     id="path738"
     d="M 7.3007812 3.8007812 C 4.9274908 3.8007812 3.0996094 5.62672 3.0996094 8 C 3.0996094 10.37328 4.9274908 12.199219 7.3007812 12.199219 C 8.6277432 12.199219 10.012519 11.745991 10.800781 10.800781 C 10.285721 11.136081 9.3596009 11.5 8.6992188 11.5 C 6.8843497 11.5 5.1992187 9.81489 5.1992188 8 C 5.1992188 6.18511 6.8843498 4.5 8.6992188 4.5 C 9.3596009 4.5 10.285721 4.8639888 10.800781 5.1992188 C 10.012519 4.2540787 8.6277433 3.8007813 7.3007812 3.8007812 z M 23.300781 3.8007812 C 20.92749 3.8007812 19.099609 5.62672 19.099609 8 C 19.099609 10.37328 20.92749 12.199219 23.300781 12.199219 C 24.627743 12.199219 26.012519 11.745991 26.800781 10.800781 C 26.285721 11.136081 25.359601 11.5 24.699219 11.5 C 22.88435 11.5 21.199219 9.81489 21.199219 8 C 21.199219 6.18511 22.88435 4.5 24.699219 4.5 C 25.359601 4.5 26.285721 4.8639888 26.800781 5.1992188 C 26.012519 4.2540788 24.627743 3.8007812 23.300781 3.8007812 z M 39.300781 3.8007812 C 36.92749 3.8007812 35.099609 5.62672 35.099609 8 C 35.099609 10.37328 36.92749 12.199219 39.300781 12.199219 C 40.627743 12.199219 42.012519 11.745991 42.800781 10.800781 C 42.285721 11.136081 41.359601 11.5 40.699219 11.5 C 38.88435 11.5 37.199219 9.81489 37.199219 8 C 37.199219 6.18511 38.88435 4.5 40.699219 4.5 C 41.359601 4.5 42.285721 4.8639888 42.800781 5.1992188 C 42.012519 4.2540788 40.627743 3.8007812 39.300781 3.8007812 z M 55.300781 3.8007812 C 52.92749 3.8007812 51.099609 5.62672 51.099609 8 C 51.099609 10.37328 52.92749 12.199219 55.300781 12.199219 C 56.627743 12.199219 58.012519 11.745991 58.800781 10.800781 C 58.285721 11.136081 57.359601 11.5 56.699219 11.5 C 54.88435 11.5 53.199219 9.81489 53.199219 8 C 53.199219 6.18511 54.88435 4.5 56.699219 4.5 C 57.359601 4.5 58.285721 4.8639888 58.800781 5.1992188 C 58.012519 4.2540788 56.627743 3.8007812 55.300781 3.8007812 z M 10.449219 5.9003906 L 9.75 7.3007812 L 8 7.3007812 L 9.4003906 8.3496094 L 8.6992188 10.099609 L 10.449219 9.0507812 L 12.199219 10.099609 L 11.5 8.3496094 L 12.900391 7.3007812 L 11.150391 7.3007812 L 10.449219 5.9003906 z M 26.449219 5.9003906 L 25.75 7.3007812 L 24 7.3007812 L 25.400391 8.3496094 L 24.699219 10.099609 L 26.449219 9.0507812 L 28.199219 10.099609 L 27.5 8.3496094 L 28.900391 7.3007812 L 27.150391 7.3007812 L 26.449219 5.9003906 z M 42.449219 5.9003906 L 41.75 7.3007812 L 40 7.3007812 L 41.400391 8.3496094 L 40.699219 10.099609 L 42.449219 9.0507812 L 44.199219 10.099609 L 43.5 8.3496094 L 44.900391 7.3007812 L 43.150391 7.3007812 L 42.449219 5.9003906 z M 58.449219 5.9003906 L 57.75 7.3007812 L 56 7.3007812 L 57.400391 8.3496094 L 56.699219 10.099609 L 58.449219 9.0507812 L 60.199219 10.099609 L 59.5 8.3496094 L 60.900391 7.3007812 L 59.150391 7.3007812 L 58.449219 5.9003906 z M 7.3007812 19.800781 C 4.9274907 19.800781 3.0996094 21.62672 3.0996094 24 C 3.0996094 26.37328 4.9274908 28.199219 7.3007812 28.199219 C 8.6277432 28.199219 10.012519 27.745991 10.800781 26.800781 C 10.285721 27.136081 9.3596009 27.5 8.6992188 27.5 C 6.8843498 27.5 5.1992187 25.81489 5.1992188 24 C 5.1992188 22.18511 6.8843498 20.5 8.6992188 20.5 C 9.3596008 20.5 10.285721 20.863989 10.800781 21.199219 C 10.012519 20.254079 8.6277432 19.800781 7.3007812 19.800781 z M 23.300781 19.800781 C 20.92749 19.800781 19.099609 21.62672 19.099609 24 C 19.099609 26.37328 20.92749 28.199219 23.300781 28.199219 C 24.627743 28.199219 26.012519 27.745991 26.800781 26.800781 C 26.285721 27.136081 25.359601 27.5 24.699219 27.5 C 22.88435 27.5 21.199219 25.81489 21.199219 24 C 21.199219 22.18511 22.88435 20.5 24.699219 20.5 C 25.359601 20.5 26.285721 20.863989 26.800781 21.199219 C 26.012519 20.254079 24.627743 19.800781 23.300781 19.800781 z M 39.300781 19.800781 C 36.92749 19.800781 35.099609 21.62672 35.099609 24 C 35.099609 26.37328 36.92749 28.199219 39.300781 28.199219 C 40.627743 28.199219 42.012519 27.745991 42.800781 26.800781 C 42.285721 27.136081 41.359601 27.5 40.699219 27.5 C 38.88435 27.5 37.199219 25.81489 37.199219 24 C 37.199219 22.18511 38.88435 20.5 40.699219 20.5 C 41.359601 20.5 42.285721 20.863989 42.800781 21.199219 C 42.012519 20.254079 40.627743 19.800781 39.300781 19.800781 z M 55.300781 19.800781 C 52.92749 19.800781 51.099609 21.62672 51.099609 24 C 51.099609 26.37328 52.92749 28.199219 55.300781 28.199219 C 56.627743 28.199219 58.012519 27.745991 58.800781 26.800781 C 58.285721 27.136081 57.359601 27.5 56.699219 27.5 C 54.88435 27.5 53.199219 25.81489 53.199219 24 C 53.199219 22.18511 54.88435 20.5 56.699219 20.5 C 57.359601 20.5 58.285721 20.863989 58.800781 21.199219 C 58.012519 20.254079 56.627743 19.800781 55.300781 19.800781 z M 10.449219 21.900391 L 9.75 23.300781 L 8 23.300781 L 9.4003906 24.349609 L 8.6992188 26.099609 L 10.449219 25.050781 L 12.199219 26.099609 L 11.5 24.349609 L 12.900391 23.300781 L 11.150391 23.300781 L 10.449219 21.900391 z M 26.449219 21.900391 L 25.75 23.300781 L 24 23.300781 L 25.400391 24.349609 L 24.699219 26.099609 L 26.449219 25.050781 L 28.199219 26.099609 L 27.5 24.349609 L 28.900391 23.300781 L 27.150391 23.300781 L 26.449219 21.900391 z M 42.449219 21.900391 L 41.75 23.300781 L 40 23.300781 L 41.400391 24.349609 L 40.699219 26.099609 L 42.449219 25.050781 L 44.199219 26.099609 L 43.5 24.349609 L 44.900391 23.300781 L 43.150391 23.300781 L 42.449219 21.900391 z M 58.449219 21.900391 L 57.75 23.300781 L 56 23.300781 L 57.400391 24.349609 L 56.699219 26.099609 L 58.449219 25.050781 L 60.199219 26.099609 L 59.5 24.349609 L 60.900391 23.300781 L 59.150391 23.300781 L 58.449219 21.900391 z M 7.3007812 35.800781 C 4.9274907 35.800781 3.0996094 37.62672 3.0996094 40 C 3.0996094 42.37328 4.9274908 44.199219 7.3007812 44.199219 C 8.6277432 44.199219 10.012519 43.745991 10.800781 42.800781 C 10.285721 43.136081 9.3596009 43.5 8.6992188 43.5 C 6.8843498 43.5 5.1992187 41.81489 5.1992188 40 C 5.1992188 38.18511 6.8843498 36.5 8.6992188 36.5 C 9.3596008 36.5 10.285721 36.863989 10.800781 37.199219 C 10.012519 36.254079 8.6277432 35.800781 7.3007812 35.800781 z M 23.300781 35.800781 C 20.92749 35.800781 19.099609 37.62672 19.099609 40 C 19.099609 42.37328 20.92749 44.199219 23.300781 44.199219 C 24.627743 44.199219 26.012519 43.745991 26.800781 42.800781 C 26.285721 43.136081 25.359601 43.5 24.699219 43.5 C 22.88435 43.5 21.199219 41.81489 21.199219 40 C 21.199219 38.18511 22.88435 36.5 24.699219 36.5 C 25.359601 36.5 26.285721 36.863989 26.800781 37.199219 C 26.012519 36.254079 24.627743 35.800781 23.300781 35.800781 z M 39.300781 35.800781 C 36.92749 35.800781 35.099609 37.62672 35.099609 40 C 35.099609 42.37328 36.92749 44.199219 39.300781 44.199219 C 40.627743 44.199219 42.012519 43.745991 42.800781 42.800781 C 42.285721 43.136081 41.359601 43.5 40.699219 43.5 C 38.88435 43.5 37.199219 41.81489 37.199219 40 C 37.199219 38.18511 38.88435 36.5 40.699219 36.5 C 41.359601 36.5 42.285721 36.863989 42.800781 37.199219 C 42.012519 36.254079 40.627743 35.800781 39.300781 35.800781 z M 55.300781 35.800781 C 52.92749 35.800781 51.099609 37.62672 51.099609 40 C 51.099609 42.37328 52.92749 44.199219 55.300781 44.199219 C 56.627743 44.199219 58.012519 43.745991 58.800781 42.800781 C 58.285721 43.136081 57.359601 43.5 56.699219 43.5 C 54.88435 43.5 53.199219 41.81489 53.199219 40 C 53.199219 38.18511 54.88435 36.5 56.699219 36.5 C 57.359601 36.5 58.285721 36.863989 58.800781 37.199219 C 58.012519 36.254079 56.627743 35.800781 55.300781 35.800781 z M 10.449219 37.900391 L 9.75 39.300781 L 8 39.300781 L 9.4003906 40.349609 L 8.6992188 42.099609 L 10.449219 41.050781 L 12.199219 42.099609 L 11.5 40.349609 L 12.900391 39.300781 L 11.150391 39.300781 L 10.449219 37.900391 z M 26.449219 37.900391 L 25.75 39.300781 L 24 39.300781 L 25.400391 40.349609 L 24.699219 42.099609 L 26.449219 41.050781 L 28.199219 42.099609 L 27.5 40.349609 L 28.900391 39.300781 L 27.150391 39.300781 L 26.449219 37.900391 z M 42.449219 37.900391 L 41.75 39.300781 L 40 39.300781 L 41.400391 40.349609 L 40.699219 42.099609 L 42.449219 41.050781 L 44.199219 42.099609 L 43.5 40.349609 L 44.900391 39.300781 L 43.150391 39.300781 L 42.449219 37.900391 z M 58.449219 37.900391 L 57.75 39.300781 L 56 39.300781 L 57.400391 40.349609 L 56.699219 42.099609 L 58.449219 41.050781 L 60.199219 42.099609 L 59.5 40.349609 L 60.900391 39.300781 L 59.150391 39.300781 L 58.449219 37.900391 z M 7.3007812 51.800781 C 4.9274907 51.800781 3.0996094 53.62672 3.0996094 56 C 3.0996094 58.37328 4.9274908 60.199219 7.3007812 60.199219 C 8.6277432 60.199219 10.012519 59.745991 10.800781 58.800781 C 10.285721 59.136081 9.3596009 59.5 8.6992188 59.5 C 6.8843498 59.5 5.1992187 57.81489 5.1992188 56 C 5.1992188 54.18511 6.8843498 52.5 8.6992188 52.5 C 9.3596008 52.5 10.285721 52.863989 10.800781 53.199219 C 10.012519 52.254079 8.6277432 51.800781 7.3007812 51.800781 z M 23.300781 51.800781 C 20.92749 51.800781 19.099609 53.62672 19.099609 56 C 19.099609 58.37328 20.92749 60.199219 23.300781 60.199219 C 24.627743 60.199219 26.012519 59.745991 26.800781 58.800781 C 26.285721 59.136081 25.359601 59.5 24.699219 59.5 C 22.88435 59.5 21.199219 57.81489 21.199219 56 C 21.199219 54.18511 22.88435 52.5 24.699219 52.5 C 25.359601 52.5 26.285721 52.863989 26.800781 53.199219 C 26.012519 52.254079 24.627743 51.800781 23.300781 51.800781 z M 39.300781 51.800781 C 36.92749 51.800781 35.099609 53.62672 35.099609 56 C 35.099609 58.37328 36.92749 60.199219 39.300781 60.199219 C 40.627743 60.199219 42.012519 59.745991 42.800781 58.800781 C 42.285721 59.136081 41.359601 59.5 40.699219 59.5 C 38.88435 59.5 37.199219 57.81489 37.199219 56 C 37.199219 54.18511 38.88435 52.5 40.699219 52.5 C 41.359601 52.5 42.285721 52.863989 42.800781 53.199219 C 42.012519 52.254079 40.627743 51.800781 39.300781 51.800781 z M 55.300781 51.800781 C 52.92749 51.800781 51.099609 53.62672 51.099609 56 C 51.099609 58.37328 52.92749 60.199219 55.300781 60.199219 C 56.627743 60.199219 58.012519 59.745991 58.800781 58.800781 C 58.285721 59.136081 57.359601 59.5 56.699219 59.5 C 54.88435 59.5 53.199219 57.81489 53.199219 56 C 53.199219 54.18511 54.88435 52.5 56.699219 52.5 C 57.359601 52.5 58.285721 52.863989 58.800781 53.199219 C 58.012519 52.254079 56.627743 51.800781 55.300781 51.800781 z M 10.449219 53.900391 L 9.75 55.300781 L 8 55.300781 L 9.4003906 56.349609 L 8.6992188 58.099609 L 10.449219 57.050781 L 12.199219 58.099609 L 11.5 56.349609 L 12.900391 55.300781 L 11.150391 55.300781 L 10.449219 53.900391 z M 26.449219 53.900391 L 25.75 55.300781 L 24 55.300781 L 25.400391 56.349609 L 24.699219 58.099609 L 26.449219 57.050781 L 28.199219 58.099609 L 27.5 56.349609 L 28.900391 55.300781 L 27.150391 55.300781 L 26.449219 53.900391 z M 42.449219 53.900391 L 41.75 55.300781 L 40 55.300781 L 41.400391 56.349609 L 40.699219 58.099609 L 42.449219 57.050781 L 44.199219 58.099609 L 43.5 56.349609 L 44.900391 55.300781 L 43.150391 55.300781 L 42.449219 53.900391 z M 58.449219 53.900391 L 57.75 55.300781 L 56 55.300781 L 57.400391 56.349609 L 56.699219 58.099609 L 58.449219 57.050781 L 60.199219 58.099609 L 59.5 56.349609 L 60.900391 55.300781 L 59.150391 55.300781 L 58.449219 53.900391 z " style="fill:#8fbb97" />
  <rect
     style="fill:none;fill-opacity:1;stroke:none"
     id="rect8566"
     y="0"
     x="0"
     rx="0"
     height="64"
     width="64" />
  <desc
     id="desc174">Created with Snap</desc>
</svg>
