<?xml version="1.0" encoding="UTF-8" standalone="no"?>
<svg
   xmlns:dc="http://purl.org/dc/elements/1.1/"
   xmlns:cc="http://creativecommons.org/ns#"
   xmlns:rdf="http://www.w3.org/1999/02/22-rdf-syntax-ns#"
   xmlns:svg="http://www.w3.org/2000/svg"
   xmlns="http://www.w3.org/2000/svg"
   version="1.1"
   height="64"
   width="64"
   id="Svg">
  <metadata
     id="metadata178">
    <rdf:RDF>
      <cc:Work
         rdf:about="">
        <dc:format>image/svg+xml</dc:format>
        <dc:type
           rdf:resource="http://purl.org/dc/dcmitype/StillImage" />
      </cc:Work>
    </rdf:RDF>
  </metadata>
  <defs
     id="defs3" />
  <path
     id="path738"
     d="M 8 3 A 2 2 0 0 0 6 5 L 6 10 L 4 10 L 4 11 L 12 11 L 12 10 L 10 10 L 10 5 A 2 2 0 0 0 8 3 z M 24 3 A 2 2 0 0 0 22 5 L 22 10 L 20 10 L 20 11 L 28 11 L 28 10 L 26 10 L 26 5 A 2 2 0 0 0 24 3 z M 40 3 A 2 2 0 0 0 38 5 L 38 10 L 36 10 L 36 11 L 44 11 L 44 10 L 42 10 L 42 5 A 2 2 0 0 0 40 3 z M 56 3 A 2 2 0 0 0 54 5 L 54 10 L 52 10 L 52 11 L 60 11 L 60 10 L 58 10 L 58 5 A 2 2 0 0 0 56 3 z M 8 19 A 2 2 0 0 0 6 21 L 6 26 L 4 26 L 4 27 L 12 27 L 12 26 L 10 26 L 10 21 A 2 2 0 0 0 8 19 z M 24 19 A 2 2 0 0 0 22 21 L 22 26 L 20 26 L 20 27 L 28 27 L 28 26 L 26 26 L 26 21 A 2 2 0 0 0 24 19 z M 40 19 A 2 2 0 0 0 38 21 L 38 26 L 36 26 L 36 27 L 44 27 L 44 26 L 42 26 L 42 21 A 2 2 0 0 0 40 19 z M 56 19 A 2 2 0 0 0 54 21 L 54 26 L 52 26 L 52 27 L 60 27 L 60 26 L 58 26 L 58 21 A 2 2 0 0 0 56 19 z M 8 35 A 2 2 0 0 0 6 37 L 6 42 L 4 42 L 4 43 L 12 43 L 12 42 L 10 42 L 10 37 A 2 2 0 0 0 8 35 z M 24 35 A 2 2 0 0 0 22 37 L 22 42 L 20 42 L 20 43 L 28 43 L 28 42 L 26 42 L 26 37 A 2 2 0 0 0 24 35 z M 40 35 A 2 2 0 0 0 38 37 L 38 42 L 36 42 L 36 43 L 44 43 L 44 42 L 42 42 L 42 37 A 2 2 0 0 0 40 35 z M 56 35 A 2 2 0 0 0 54 37 L 54 42 L 52 42 L 52 43 L 60 43 L 60 42 L 58 42 L 58 37 A 2 2 0 0 0 56 35 z M 8 51 A 2 2 0 0 0 6 53 L 6 58 L 4 58 L 4 59 L 12 59 L 12 58 L 10 58 L 10 53 A 2 2 0 0 0 8 51 z M 24 51 A 2 2 0 0 0 22 53 L 22 58 L 20 58 L 20 59 L 28 59 L 28 58 L 26 58 L 26 53 A 2 2 0 0 0 24 51 z M 40 51 A 2 2 0 0 0 38 53 L 38 58 L 36 58 L 36 59 L 44 59 L 44 58 L 42 58 L 42 53 A 2 2 0 0 0 40 51 z M 56 51 A 2 2 0 0 0 54 53 L 54 58 L 52 58 L 52 59 L 60 59 L 60 58 L 58 58 L 58 53 A 2 2 0 0 0 56 51 z " style="fill:#8fbb97" />
  <rect
     style="fill:none;fill-opacity:1;stroke:none"
     id="rect8566"
     y="0"
     x="0"
     rx="0"
     height="64"
     width="64" />
  <desc
     id="desc174">Created with Snap</desc>
</svg>
