<?xml version="1.0" encoding="UTF-8" standalone="no"?>
<svg
   xmlns:dc="http://purl.org/dc/elements/1.1/"
   xmlns:cc="http://creativecommons.org/ns#"
   xmlns:rdf="http://www.w3.org/1999/02/22-rdf-syntax-ns#"
   xmlns:svg="http://www.w3.org/2000/svg"
   xmlns="http://www.w3.org/2000/svg"
   version="1.1"
   height="64"
   width="64"
   id="Svg">
  <metadata
     id="metadata178">
    <rdf:RDF>
      <cc:Work
         rdf:about="">
        <dc:format>image/svg+xml</dc:format>
        <dc:type
           rdf:resource="http://purl.org/dc/dcmitype/StillImage" />
      </cc:Work>
    </rdf:RDF>
  </metadata>
  <defs
     id="defs3" />
  <path
     id="path738"
     d="M 8 2.1992188 L 6.1523438 5.4003906 L 2.4570312 5.4003906 L 4.3046875 8.5996094 L 2.4570312 11.800781 L 6.1523438 11.800781 L 8 15 L 9.8476562 11.800781 L 13.542969 11.800781 L 11.695312 8.5996094 L 13.542969 5.4003906 L 9.8476562 5.4003906 L 8 2.1992188 z M 24 2.1992188 L 22.152344 5.4003906 L 18.457031 5.4003906 L 20.304688 8.5996094 L 18.457031 11.800781 L 22.152344 11.800781 L 24 15 L 25.847656 11.800781 L 29.542969 11.800781 L 27.695312 8.5996094 L 29.542969 5.4003906 L 25.847656 5.4003906 L 24 2.1992188 z M 40 2.1992188 L 38.152344 5.4003906 L 34.457031 5.4003906 L 36.304688 8.5996094 L 34.457031 11.800781 L 38.152344 11.800781 L 40 15 L 41.847656 11.800781 L 45.542969 11.800781 L 43.695312 8.5996094 L 45.542969 5.4003906 L 41.847656 5.4003906 L 40 2.1992188 z M 56 2.1992188 L 54.152344 5.4003906 L 50.457031 5.4003906 L 52.304688 8.5996094 L 50.457031 11.800781 L 54.152344 11.800781 L 56 15 L 57.847656 11.800781 L 61.542969 11.800781 L 59.695312 8.5996094 L 61.542969 5.4003906 L 57.847656 5.4003906 L 56 2.1992188 z M 8 3.8007812 L 8.9238281 5.4003906 L 7.0761719 5.4003906 L 8 3.8007812 z M 24 3.8007812 L 24.923828 5.4003906 L 23.076172 5.4003906 L 24 3.8007812 z M 40 3.8007812 L 40.923828 5.4003906 L 39.076172 5.4003906 L 40 3.8007812 z M 56 3.8007812 L 56.923828 5.4003906 L 55.076172 5.4003906 L 56 3.8007812 z M 3.84375 6.1992188 L 5.6914062 6.1992188 L 4.7675781 7.7988281 L 3.84375 6.1992188 z M 6.6152344 6.1992188 L 9.3847656 6.1992188 L 10.769531 8.5996094 L 9.3847656 11 L 6.6152344 11 L 5.2304688 8.5996094 L 6.6152344 6.1992188 z M 10.308594 6.1992188 L 12.15625 6.1992188 L 11.232422 7.7988281 L 10.308594 6.1992188 z M 19.84375 6.1992188 L 21.691406 6.1992188 L 20.767578 7.7988281 L 19.84375 6.1992188 z M 22.615234 6.1992188 L 25.384766 6.1992188 L 26.769531 8.5996094 L 25.384766 11 L 22.615234 11 L 21.230469 8.5996094 L 22.615234 6.1992188 z M 26.308594 6.1992188 L 28.15625 6.1992188 L 27.232422 7.7988281 L 26.308594 6.1992188 z M 35.84375 6.1992188 L 37.691406 6.1992188 L 36.767578 7.7988281 L 35.84375 6.1992188 z M 38.615234 6.1992188 L 41.384766 6.1992188 L 42.769531 8.5996094 L 41.384766 11 L 38.615234 11 L 37.230469 8.5996094 L 38.615234 6.1992188 z M 42.308594 6.1992188 L 44.15625 6.1992188 L 43.232422 7.7988281 L 42.308594 6.1992188 z M 51.84375 6.1992188 L 53.691406 6.1992188 L 52.767578 7.7988281 L 51.84375 6.1992188 z M 54.615234 6.1992188 L 57.384766 6.1992188 L 58.769531 8.5996094 L 57.384766 11 L 54.615234 11 L 53.230469 8.5996094 L 54.615234 6.1992188 z M 58.308594 6.1992188 L 60.15625 6.1992188 L 59.232422 7.7988281 L 58.308594 6.1992188 z M 4.7675781 9.4023438 L 5.6914062 11 L 3.84375 11 L 4.7675781 9.4023438 z M 11.232422 9.4023438 L 12.15625 11 L 10.308594 11 L 11.232422 9.4023438 z M 20.767578 9.4023438 L 21.691406 11 L 19.84375 11 L 20.767578 9.4023438 z M 27.232422 9.4023438 L 28.15625 11 L 26.308594 11 L 27.232422 9.4023438 z M 36.767578 9.4023438 L 37.691406 11 L 35.84375 11 L 36.767578 9.4023438 z M 43.232422 9.4023438 L 44.15625 11 L 42.308594 11 L 43.232422 9.4023438 z M 52.767578 9.4023438 L 53.691406 11 L 51.84375 11 L 52.767578 9.4023438 z M 59.232422 9.4023438 L 60.15625 11 L 58.308594 11 L 59.232422 9.4023438 z M 7.0761719 11.800781 L 8.9238281 11.800781 L 8 13.398438 L 7.0761719 11.800781 z M 23.076172 11.800781 L 24.923828 11.800781 L 24 13.398438 L 23.076172 11.800781 z M 39.076172 11.800781 L 40.923828 11.800781 L 40 13.398438 L 39.076172 11.800781 z M 55.076172 11.800781 L 56.923828 11.800781 L 56 13.398438 L 55.076172 11.800781 z M 8 18.199219 L 6.1523438 21.400391 L 2.4570312 21.400391 L 4.3046875 24.599609 L 2.4570312 27.800781 L 6.1523438 27.800781 L 8 31 L 9.8476562 27.800781 L 13.542969 27.800781 L 11.695312 24.599609 L 13.542969 21.400391 L 9.8476562 21.400391 L 8 18.199219 z M 24 18.199219 L 22.152344 21.400391 L 18.457031 21.400391 L 20.304688 24.599609 L 18.457031 27.800781 L 22.152344 27.800781 L 24 31 L 25.847656 27.800781 L 29.542969 27.800781 L 27.695312 24.599609 L 29.542969 21.400391 L 25.847656 21.400391 L 24 18.199219 z M 40 18.199219 L 38.152344 21.400391 L 34.457031 21.400391 L 36.304688 24.599609 L 34.457031 27.800781 L 38.152344 27.800781 L 40 31 L 41.847656 27.800781 L 45.542969 27.800781 L 43.695312 24.599609 L 45.542969 21.400391 L 41.847656 21.400391 L 40 18.199219 z M 56 18.199219 L 54.152344 21.400391 L 50.457031 21.400391 L 52.304688 24.599609 L 50.457031 27.800781 L 54.152344 27.800781 L 56 31 L 57.847656 27.800781 L 61.542969 27.800781 L 59.695312 24.599609 L 61.542969 21.400391 L 57.847656 21.400391 L 56 18.199219 z M 8 19.800781 L 8.9238281 21.400391 L 7.0761719 21.400391 L 8 19.800781 z M 24 19.800781 L 24.923828 21.400391 L 23.076172 21.400391 L 24 19.800781 z M 40 19.800781 L 40.923828 21.400391 L 39.076172 21.400391 L 40 19.800781 z M 56 19.800781 L 56.923828 21.400391 L 55.076172 21.400391 L 56 19.800781 z M 3.84375 22.199219 L 5.6914062 22.199219 L 4.7675781 23.798828 L 3.84375 22.199219 z M 6.6152344 22.199219 L 9.3847656 22.199219 L 10.769531 24.599609 L 9.3847656 27 L 6.6152344 27 L 5.2304688 24.599609 L 6.6152344 22.199219 z M 10.308594 22.199219 L 12.15625 22.199219 L 11.232422 23.798828 L 10.308594 22.199219 z M 19.84375 22.199219 L 21.691406 22.199219 L 20.767578 23.798828 L 19.84375 22.199219 z M 22.615234 22.199219 L 25.384766 22.199219 L 26.769531 24.599609 L 25.384766 27 L 22.615234 27 L 21.230469 24.599609 L 22.615234 22.199219 z M 26.308594 22.199219 L 28.15625 22.199219 L 27.232422 23.798828 L 26.308594 22.199219 z M 35.84375 22.199219 L 37.691406 22.199219 L 36.767578 23.798828 L 35.84375 22.199219 z M 38.615234 22.199219 L 41.384766 22.199219 L 42.769531 24.599609 L 41.384766 27 L 38.615234 27 L 37.230469 24.599609 L 38.615234 22.199219 z M 42.308594 22.199219 L 44.15625 22.199219 L 43.232422 23.798828 L 42.308594 22.199219 z M 51.84375 22.199219 L 53.691406 22.199219 L 52.767578 23.798828 L 51.84375 22.199219 z M 54.615234 22.199219 L 57.384766 22.199219 L 58.769531 24.599609 L 57.384766 27 L 54.615234 27 L 53.230469 24.599609 L 54.615234 22.199219 z M 58.308594 22.199219 L 60.15625 22.199219 L 59.232422 23.798828 L 58.308594 22.199219 z M 4.7675781 25.402344 L 5.6914062 27 L 3.84375 27 L 4.7675781 25.402344 z M 11.232422 25.402344 L 12.15625 27 L 10.308594 27 L 11.232422 25.402344 z M 20.767578 25.402344 L 21.691406 27 L 19.84375 27 L 20.767578 25.402344 z M 27.232422 25.402344 L 28.15625 27 L 26.308594 27 L 27.232422 25.402344 z M 36.767578 25.402344 L 37.691406 27 L 35.84375 27 L 36.767578 25.402344 z M 43.232422 25.402344 L 44.15625 27 L 42.308594 27 L 43.232422 25.402344 z M 52.767578 25.402344 L 53.691406 27 L 51.84375 27 L 52.767578 25.402344 z M 59.232422 25.402344 L 60.15625 27 L 58.308594 27 L 59.232422 25.402344 z M 7.0761719 27.800781 L 8.9238281 27.800781 L 8 29.398438 L 7.0761719 27.800781 z M 23.076172 27.800781 L 24.923828 27.800781 L 24 29.398438 L 23.076172 27.800781 z M 39.076172 27.800781 L 40.923828 27.800781 L 40 29.398438 L 39.076172 27.800781 z M 55.076172 27.800781 L 56.923828 27.800781 L 56 29.398438 L 55.076172 27.800781 z M 8 34.199219 L 6.1523438 37.400391 L 2.4570312 37.400391 L 4.3046875 40.599609 L 2.4570312 43.800781 L 6.1523438 43.800781 L 8 47 L 9.8476562 43.800781 L 13.542969 43.800781 L 11.695312 40.599609 L 13.542969 37.400391 L 9.8476562 37.400391 L 8 34.199219 z M 24 34.199219 L 22.152344 37.400391 L 18.457031 37.400391 L 20.304688 40.599609 L 18.457031 43.800781 L 22.152344 43.800781 L 24 47 L 25.847656 43.800781 L 29.542969 43.800781 L 27.695312 40.599609 L 29.542969 37.400391 L 25.847656 37.400391 L 24 34.199219 z M 40 34.199219 L 38.152344 37.400391 L 34.457031 37.400391 L 36.304688 40.599609 L 34.457031 43.800781 L 38.152344 43.800781 L 40 47 L 41.847656 43.800781 L 45.542969 43.800781 L 43.695312 40.599609 L 45.542969 37.400391 L 41.847656 37.400391 L 40 34.199219 z M 56 34.199219 L 54.152344 37.400391 L 50.457031 37.400391 L 52.304688 40.599609 L 50.457031 43.800781 L 54.152344 43.800781 L 56 47 L 57.847656 43.800781 L 61.542969 43.800781 L 59.695312 40.599609 L 61.542969 37.400391 L 57.847656 37.400391 L 56 34.199219 z M 8 35.800781 L 8.9238281 37.400391 L 7.0761719 37.400391 L 8 35.800781 z M 24 35.800781 L 24.923828 37.400391 L 23.076172 37.400391 L 24 35.800781 z M 40 35.800781 L 40.923828 37.400391 L 39.076172 37.400391 L 40 35.800781 z M 56 35.800781 L 56.923828 37.400391 L 55.076172 37.400391 L 56 35.800781 z M 3.84375 38.199219 L 5.6914062 38.199219 L 4.7675781 39.798828 L 3.84375 38.199219 z M 6.6152344 38.199219 L 9.3847656 38.199219 L 10.769531 40.599609 L 9.3847656 43 L 6.6152344 43 L 5.2304688 40.599609 L 6.6152344 38.199219 z M 10.308594 38.199219 L 12.15625 38.199219 L 11.232422 39.798828 L 10.308594 38.199219 z M 19.84375 38.199219 L 21.691406 38.199219 L 20.767578 39.798828 L 19.84375 38.199219 z M 22.615234 38.199219 L 25.384766 38.199219 L 26.769531 40.599609 L 25.384766 43 L 22.615234 43 L 21.230469 40.599609 L 22.615234 38.199219 z M 26.308594 38.199219 L 28.15625 38.199219 L 27.232422 39.798828 L 26.308594 38.199219 z M 35.84375 38.199219 L 37.691406 38.199219 L 36.767578 39.798828 L 35.84375 38.199219 z M 38.615234 38.199219 L 41.384766 38.199219 L 42.769531 40.599609 L 41.384766 43 L 38.615234 43 L 37.230469 40.599609 L 38.615234 38.199219 z M 42.308594 38.199219 L 44.15625 38.199219 L 43.232422 39.798828 L 42.308594 38.199219 z M 51.84375 38.199219 L 53.691406 38.199219 L 52.767578 39.798828 L 51.84375 38.199219 z M 54.615234 38.199219 L 57.384766 38.199219 L 58.769531 40.599609 L 57.384766 43 L 54.615234 43 L 53.230469 40.599609 L 54.615234 38.199219 z M 58.308594 38.199219 L 60.15625 38.199219 L 59.232422 39.798828 L 58.308594 38.199219 z M 4.7675781 41.402344 L 5.6914062 43 L 3.84375 43 L 4.7675781 41.402344 z M 11.232422 41.402344 L 12.15625 43 L 10.308594 43 L 11.232422 41.402344 z M 20.767578 41.402344 L 21.691406 43 L 19.84375 43 L 20.767578 41.402344 z M 27.232422 41.402344 L 28.15625 43 L 26.308594 43 L 27.232422 41.402344 z M 36.767578 41.402344 L 37.691406 43 L 35.84375 43 L 36.767578 41.402344 z M 43.232422 41.402344 L 44.15625 43 L 42.308594 43 L 43.232422 41.402344 z M 52.767578 41.402344 L 53.691406 43 L 51.84375 43 L 52.767578 41.402344 z M 59.232422 41.402344 L 60.15625 43 L 58.308594 43 L 59.232422 41.402344 z M 7.0761719 43.800781 L 8.9238281 43.800781 L 8 45.398438 L 7.0761719 43.800781 z M 23.076172 43.800781 L 24.923828 43.800781 L 24 45.398438 L 23.076172 43.800781 z M 39.076172 43.800781 L 40.923828 43.800781 L 40 45.398438 L 39.076172 43.800781 z M 55.076172 43.800781 L 56.923828 43.800781 L 56 45.398438 L 55.076172 43.800781 z M 8 50.199219 L 6.1523438 53.400391 L 2.4570312 53.400391 L 4.3046875 56.599609 L 2.4570312 59.800781 L 6.1523438 59.800781 L 8 63 L 9.8476562 59.800781 L 13.542969 59.800781 L 11.695312 56.599609 L 13.542969 53.400391 L 9.8476562 53.400391 L 8 50.199219 z M 24 50.199219 L 22.152344 53.400391 L 18.457031 53.400391 L 20.304688 56.599609 L 18.457031 59.800781 L 22.152344 59.800781 L 24 63 L 25.847656 59.800781 L 29.542969 59.800781 L 27.695312 56.599609 L 29.542969 53.400391 L 25.847656 53.400391 L 24 50.199219 z M 40 50.199219 L 38.152344 53.400391 L 34.457031 53.400391 L 36.304688 56.599609 L 34.457031 59.800781 L 38.152344 59.800781 L 40 63 L 41.847656 59.800781 L 45.542969 59.800781 L 43.695312 56.599609 L 45.542969 53.400391 L 41.847656 53.400391 L 40 50.199219 z M 56 50.199219 L 54.152344 53.400391 L 50.457031 53.400391 L 52.304688 56.599609 L 50.457031 59.800781 L 54.152344 59.800781 L 56 63 L 57.847656 59.800781 L 61.542969 59.800781 L 59.695312 56.599609 L 61.542969 53.400391 L 57.847656 53.400391 L 56 50.199219 z M 8 51.800781 L 8.9238281 53.400391 L 7.0761719 53.400391 L 8 51.800781 z M 24 51.800781 L 24.923828 53.400391 L 23.076172 53.400391 L 24 51.800781 z M 40 51.800781 L 40.923828 53.400391 L 39.076172 53.400391 L 40 51.800781 z M 56 51.800781 L 56.923828 53.400391 L 55.076172 53.400391 L 56 51.800781 z M 3.84375 54.199219 L 5.6914062 54.199219 L 4.7675781 55.798828 L 3.84375 54.199219 z M 6.6152344 54.199219 L 9.3847656 54.199219 L 10.769531 56.599609 L 9.3847656 59 L 6.6152344 59 L 5.2304688 56.599609 L 6.6152344 54.199219 z M 10.308594 54.199219 L 12.15625 54.199219 L 11.232422 55.798828 L 10.308594 54.199219 z M 19.84375 54.199219 L 21.691406 54.199219 L 20.767578 55.798828 L 19.84375 54.199219 z M 22.615234 54.199219 L 25.384766 54.199219 L 26.769531 56.599609 L 25.384766 59 L 22.615234 59 L 21.230469 56.599609 L 22.615234 54.199219 z M 26.308594 54.199219 L 28.15625 54.199219 L 27.232422 55.798828 L 26.308594 54.199219 z M 35.84375 54.199219 L 37.691406 54.199219 L 36.767578 55.798828 L 35.84375 54.199219 z M 38.615234 54.199219 L 41.384766 54.199219 L 42.769531 56.599609 L 41.384766 59 L 38.615234 59 L 37.230469 56.599609 L 38.615234 54.199219 z M 42.308594 54.199219 L 44.15625 54.199219 L 43.232422 55.798828 L 42.308594 54.199219 z M 51.84375 54.199219 L 53.691406 54.199219 L 52.767578 55.798828 L 51.84375 54.199219 z M 54.615234 54.199219 L 57.384766 54.199219 L 58.769531 56.599609 L 57.384766 59 L 54.615234 59 L 53.230469 56.599609 L 54.615234 54.199219 z M 58.308594 54.199219 L 60.15625 54.199219 L 59.232422 55.798828 L 58.308594 54.199219 z M 4.7675781 57.402344 L 5.6914062 59 L 3.84375 59 L 4.7675781 57.402344 z M 11.232422 57.402344 L 12.15625 59 L 10.308594 59 L 11.232422 57.402344 z M 20.767578 57.402344 L 21.691406 59 L 19.84375 59 L 20.767578 57.402344 z M 27.232422 57.402344 L 28.15625 59 L 26.308594 59 L 27.232422 57.402344 z M 36.767578 57.402344 L 37.691406 59 L 35.84375 59 L 36.767578 57.402344 z M 43.232422 57.402344 L 44.15625 59 L 42.308594 59 L 43.232422 57.402344 z M 52.767578 57.402344 L 53.691406 59 L 51.84375 59 L 52.767578 57.402344 z M 59.232422 57.402344 L 60.15625 59 L 58.308594 59 L 59.232422 57.402344 z M 7.0761719 59.800781 L 8.9238281 59.800781 L 8 61.398438 L 7.0761719 59.800781 z M 23.076172 59.800781 L 24.923828 59.800781 L 24 61.398438 L 23.076172 59.800781 z M 39.076172 59.800781 L 40.923828 59.800781 L 40 61.398438 L 39.076172 59.800781 z M 55.076172 59.800781 L 56.923828 59.800781 L 56 61.398438 L 55.076172 59.800781 z " style="fill:#8fbb97" />
  <rect
     style="fill:none;fill-opacity:1;stroke:none"
     id="rect8566"
     y="0"
     x="0"
     rx="0"
     height="64"
     width="64" />
  <desc
     id="desc174">Created with Snap</desc>
</svg>
