<?xml version="1.0" encoding="UTF-8" standalone="no"?>
<svg
   xmlns:dc="http://purl.org/dc/elements/1.1/"
   xmlns:cc="http://creativecommons.org/ns#"
   xmlns:rdf="http://www.w3.org/1999/02/22-rdf-syntax-ns#"
   xmlns:svg="http://www.w3.org/2000/svg"
   xmlns="http://www.w3.org/2000/svg"
   version="1.1"
   height="64"
   width="64"
   id="Svg">
  <metadata
     id="metadata378">
    <rdf:RDF>
      <cc:Work
         rdf:about="">
        <dc:format>image/svg+xml</dc:format>
        <dc:type
           rdf:resource="http://purl.org/dc/dcmitype/StillImage" />
      </cc:Work>
    </rdf:RDF>
  </metadata>
  <defs
     id="defs3" />
  <path
     id="path5764"
     d="M 1.953125 0 L 1.0546875 0.8984375 L 1.8339844 1.6757812 L 3.5097656 0 L 1.953125 0 z M 6.6015625 0 L 11.166016 4.5644531 L 11.945312 3.7871094 L 8.15625 0 L 6.6015625 0 z M 12.621094 0 L 11.722656 0.8984375 L 12.5 1.6757812 L 14.175781 0 L 12.621094 0 z M 17.267578 0 L 21.833984 4.5644531 L 22.611328 3.7871094 L 18.824219 0 L 17.267578 0 z M 23.287109 0 L 22.388672 0.8984375 L 23.166016 1.6757812 L 24.841797 0 L 23.287109 0 z M 27.935547 0 L 32.5 4.5644531 L 33.277344 3.7871094 L 29.490234 0 L 27.935547 0 z M 33.953125 0 L 33.054688 0.8984375 L 33.833984 1.6757812 L 35.509766 0 L 33.953125 0 z M 38.601562 0 L 43.166016 4.5644531 L 43.945312 3.7871094 L 40.15625 0 L 38.601562 0 z M 44.621094 0 L 43.722656 0.8984375 L 44.5 1.6757812 L 46.175781 0 L 44.621094 0 z M 49.267578 0 L 53.833984 4.5644531 L 54.611328 3.7871094 L 50.824219 0 L 49.267578 0 z M 55.287109 0 L 54.388672 0.8984375 L 55.166016 1.6757812 L 56.841797 0 L 55.287109 0 z M 59.935547 0 L 64 4.0644531 L 64 2.5097656 L 61.490234 0 L 59.935547 0 z M 4.9453125 1.453125 L 4.1660156 2.2324219 L 8.8339844 6.8984375 L 9.6113281 6.1210938 L 4.9453125 1.453125 z M 15.611328 1.453125 L 14.833984 2.2324219 L 19.5 6.8984375 L 20.277344 6.1210938 L 15.611328 1.453125 z M 26.277344 1.453125 L 25.5 2.2324219 L 30.166016 6.8984375 L 30.945312 6.1210938 L 26.277344 1.453125 z M 36.945312 1.453125 L 36.166016 2.2324219 L 40.833984 6.8984375 L 41.611328 6.1210938 L 36.945312 1.453125 z M 47.611328 1.453125 L 46.833984 2.2324219 L 51.5 6.8984375 L 52.277344 6.1210938 L 47.611328 1.453125 z M 58.277344 1.453125 L 57.5 2.2324219 L 62.166016 6.8984375 L 62.945312 6.1210938 L 58.277344 1.453125 z M 0 2.5097656 L 0 4.0644531 L 0.5 4.5644531 L 1.2773438 3.7871094 L 0 2.5097656 z M 3.3886719 4.5644531 L 0 7.9550781 L 0 9.5097656 L 4.1660156 5.34375 L 3.3886719 4.5644531 z M 14.054688 4.5644531 L 9.3886719 9.2324219 L 10.166016 10.009766 L 14.833984 5.34375 L 14.054688 4.5644531 z M 24.722656 4.5644531 L 20.054688 9.2324219 L 20.833984 10.009766 L 25.5 5.34375 L 24.722656 4.5644531 z M 35.388672 4.5644531 L 30.722656 9.2324219 L 31.5 10.009766 L 36.166016 5.34375 L 35.388672 4.5644531 z M 46.054688 4.5644531 L 41.388672 9.2324219 L 42.166016 10.009766 L 46.833984 5.34375 L 46.054688 4.5644531 z M 56.722656 4.5644531 L 52.054688 9.2324219 L 52.833984 10.009766 L 57.5 5.34375 L 56.722656 4.5644531 z M 5.7226562 6.8984375 L 1.0546875 11.564453 L 1.8339844 12.34375 L 6.5 7.6757812 L 5.7226562 6.8984375 z M 16.388672 6.8984375 L 11.722656 11.564453 L 12.5 12.34375 L 17.166016 7.6757812 L 16.388672 6.8984375 z M 27.054688 6.8984375 L 22.388672 11.564453 L 23.166016 12.34375 L 27.833984 7.6757812 L 27.054688 6.8984375 z M 37.722656 6.8984375 L 33.054688 11.564453 L 33.833984 12.34375 L 38.5 7.6757812 L 37.722656 6.8984375 z M 48.388672 6.8984375 L 43.722656 11.564453 L 44.5 12.34375 L 49.166016 7.6757812 L 48.388672 6.8984375 z M 59.054688 6.8984375 L 54.388672 11.564453 L 55.166016 12.34375 L 59.833984 7.6757812 L 59.054688 6.8984375 z M 64 7.9550781 L 62.722656 9.2324219 L 63.5 10.009766 L 64 9.5097656 L 64 7.9550781 z M 7.2773438 9.7871094 L 6.5 10.564453 L 11.166016 15.232422 L 11.945312 14.453125 L 7.2773438 9.7871094 z M 17.945312 9.7871094 L 17.166016 10.564453 L 21.833984 15.232422 L 22.611328 14.453125 L 17.945312 9.7871094 z M 28.611328 9.7871094 L 27.833984 10.564453 L 32.5 15.232422 L 33.277344 14.453125 L 28.611328 9.7871094 z M 39.277344 9.7871094 L 38.5 10.564453 L 43.166016 15.232422 L 43.945312 14.453125 L 39.277344 9.7871094 z M 49.945312 9.7871094 L 49.166016 10.564453 L 53.833984 15.232422 L 54.611328 14.453125 L 49.945312 9.7871094 z M 60.611328 9.7871094 L 59.833984 10.564453 L 64 14.732422 L 64 13.175781 L 60.611328 9.7871094 z M 4.9453125 12.121094 L 4.1660156 12.898438 L 8.8339844 17.564453 L 9.6113281 16.787109 L 4.9453125 12.121094 z M 15.611328 12.121094 L 14.833984 12.898438 L 19.5 17.564453 L 20.277344 16.787109 L 15.611328 12.121094 z M 26.277344 12.121094 L 25.5 12.898438 L 30.166016 17.564453 L 30.945312 16.787109 L 26.277344 12.121094 z M 36.945312 12.121094 L 36.166016 12.898438 L 40.833984 17.564453 L 41.611328 16.787109 L 36.945312 12.121094 z M 47.611328 12.121094 L 46.833984 12.898438 L 51.5 17.564453 L 52.277344 16.787109 L 47.611328 12.121094 z M 58.277344 12.121094 L 57.5 12.898438 L 62.166016 17.564453 L 62.945312 16.787109 L 58.277344 12.121094 z M 0 13.175781 L 0 14.732422 L 0.5 15.232422 L 1.2773438 14.453125 L 0 13.175781 z M 3.3886719 15.232422 L 0 18.621094 L 0 20.175781 L 4.1660156 16.009766 L 3.3886719 15.232422 z M 14.054688 15.232422 L 9.3886719 19.898438 L 10.166016 20.675781 L 14.833984 16.009766 L 14.054688 15.232422 z M 24.722656 15.232422 L 20.054688 19.898438 L 20.833984 20.675781 L 25.5 16.009766 L 24.722656 15.232422 z M 35.388672 15.232422 L 30.722656 19.898438 L 31.5 20.675781 L 36.166016 16.009766 L 35.388672 15.232422 z M 46.054688 15.232422 L 41.388672 19.898438 L 42.166016 20.675781 L 46.833984 16.009766 L 46.054688 15.232422 z M 56.722656 15.232422 L 52.054688 19.898438 L 52.833984 20.675781 L 57.5 16.009766 L 56.722656 15.232422 z M 5.7226562 17.564453 L 1.0546875 22.232422 L 1.8339844 23.009766 L 6.5 18.34375 L 5.7226562 17.564453 z M 16.388672 17.564453 L 11.722656 22.232422 L 12.5 23.009766 L 17.166016 18.34375 L 16.388672 17.564453 z M 27.054688 17.564453 L 22.388672 22.232422 L 23.166016 23.009766 L 27.833984 18.34375 L 27.054688 17.564453 z M 37.722656 17.564453 L 33.054688 22.232422 L 33.833984 23.009766 L 38.5 18.34375 L 37.722656 17.564453 z M 48.388672 17.564453 L 43.722656 22.232422 L 44.5 23.009766 L 49.166016 18.34375 L 48.388672 17.564453 z M 59.054688 17.564453 L 54.388672 22.232422 L 55.166016 23.009766 L 59.833984 18.34375 L 59.054688 17.564453 z M 64 18.621094 L 62.722656 19.898438 L 63.5 20.675781 L 64 20.175781 L 64 18.621094 z M 7.2773438 20.453125 L 6.5 21.232422 L 11.166016 25.898438 L 11.945312 25.121094 L 7.2773438 20.453125 z M 17.945312 20.453125 L 17.166016 21.232422 L 21.833984 25.898438 L 22.611328 25.121094 L 17.945312 20.453125 z M 28.611328 20.453125 L 27.833984 21.232422 L 32.5 25.898438 L 33.277344 25.121094 L 28.611328 20.453125 z M 39.277344 20.453125 L 38.5 21.232422 L 43.166016 25.898438 L 43.945312 25.121094 L 39.277344 20.453125 z M 49.945312 20.453125 L 49.166016 21.232422 L 53.833984 25.898438 L 54.611328 25.121094 L 49.945312 20.453125 z M 60.611328 20.453125 L 59.833984 21.232422 L 64 25.398438 L 64 23.84375 L 60.611328 20.453125 z M 4.9453125 22.787109 L 4.1660156 23.564453 L 8.8339844 28.232422 L 9.6113281 27.453125 L 4.9453125 22.787109 z M 15.611328 22.787109 L 14.833984 23.564453 L 19.5 28.232422 L 20.277344 27.453125 L 15.611328 22.787109 z M 26.277344 22.787109 L 25.5 23.564453 L 30.166016 28.232422 L 30.945312 27.453125 L 26.277344 22.787109 z M 36.945312 22.787109 L 36.166016 23.564453 L 40.833984 28.232422 L 41.611328 27.453125 L 36.945312 22.787109 z M 47.611328 22.787109 L 46.833984 23.564453 L 51.5 28.232422 L 52.277344 27.453125 L 47.611328 22.787109 z M 58.277344 22.787109 L 57.5 23.564453 L 62.166016 28.232422 L 62.945312 27.453125 L 58.277344 22.787109 z M 0 23.84375 L 0 25.398438 L 0.5 25.898438 L 1.2773438 25.121094 L 0 23.84375 z M 3.3886719 25.898438 L 0 29.287109 L 0 30.84375 L 4.1660156 26.675781 L 3.3886719 25.898438 z M 14.054688 25.898438 L 9.3886719 30.564453 L 10.166016 31.34375 L 14.833984 26.675781 L 14.054688 25.898438 z M 24.722656 25.898438 L 20.054688 30.564453 L 20.833984 31.34375 L 25.5 26.675781 L 24.722656 25.898438 z M 35.388672 25.898438 L 30.722656 30.564453 L 31.5 31.34375 L 36.166016 26.675781 L 35.388672 25.898438 z M 46.054688 25.898438 L 41.388672 30.564453 L 42.166016 31.34375 L 46.833984 26.675781 L 46.054688 25.898438 z M 56.722656 25.898438 L 52.054688 30.564453 L 52.833984 31.34375 L 57.5 26.675781 L 56.722656 25.898438 z M 5.7226562 28.232422 L 1.0546875 32.898438 L 1.8339844 33.675781 L 6.5 29.009766 L 5.7226562 28.232422 z M 16.388672 28.232422 L 11.722656 32.898438 L 12.5 33.675781 L 17.166016 29.009766 L 16.388672 28.232422 z M 27.054688 28.232422 L 22.388672 32.898438 L 23.166016 33.675781 L 27.833984 29.009766 L 27.054688 28.232422 z M 37.722656 28.232422 L 33.054688 32.898438 L 33.833984 33.675781 L 38.5 29.009766 L 37.722656 28.232422 z M 48.388672 28.232422 L 43.722656 32.898438 L 44.5 33.675781 L 49.166016 29.009766 L 48.388672 28.232422 z M 59.054688 28.232422 L 54.388672 32.898438 L 55.166016 33.675781 L 59.833984 29.009766 L 59.054688 28.232422 z M 64 29.287109 L 62.722656 30.564453 L 63.5 31.34375 L 64 30.84375 L 64 29.287109 z M 7.2773438 31.121094 L 6.5 31.898438 L 11.166016 36.564453 L 11.945312 35.787109 L 7.2773438 31.121094 z M 17.945312 31.121094 L 17.166016 31.898438 L 21.833984 36.564453 L 22.611328 35.787109 L 17.945312 31.121094 z M 28.611328 31.121094 L 27.833984 31.898438 L 32.5 36.564453 L 33.277344 35.787109 L 28.611328 31.121094 z M 39.277344 31.121094 L 38.5 31.898438 L 43.166016 36.564453 L 43.945312 35.787109 L 39.277344 31.121094 z M 49.945312 31.121094 L 49.166016 31.898438 L 53.833984 36.564453 L 54.611328 35.787109 L 49.945312 31.121094 z M 60.611328 31.121094 L 59.833984 31.898438 L 64 36.064453 L 64 34.509766 L 60.611328 31.121094 z M 4.9453125 33.453125 L 4.1660156 34.232422 L 8.8339844 38.898438 L 9.6113281 38.121094 L 4.9453125 33.453125 z M 15.611328 33.453125 L 14.833984 34.232422 L 19.5 38.898438 L 20.277344 38.121094 L 15.611328 33.453125 z M 26.277344 33.453125 L 25.5 34.232422 L 30.166016 38.898438 L 30.945312 38.121094 L 26.277344 33.453125 z M 36.945312 33.453125 L 36.166016 34.232422 L 40.833984 38.898438 L 41.611328 38.121094 L 36.945312 33.453125 z M 47.611328 33.453125 L 46.833984 34.232422 L 51.5 38.898438 L 52.277344 38.121094 L 47.611328 33.453125 z M 58.277344 33.453125 L 57.5 34.232422 L 62.166016 38.898438 L 62.945312 38.121094 L 58.277344 33.453125 z M 0 34.509766 L 0 36.064453 L 0.5 36.564453 L 1.2773438 35.787109 L 0 34.509766 z M 3.3886719 36.564453 L 0 39.955078 L 0 41.509766 L 4.1660156 37.34375 L 3.3886719 36.564453 z M 14.054688 36.564453 L 9.3886719 41.232422 L 10.166016 42.009766 L 14.833984 37.34375 L 14.054688 36.564453 z M 24.722656 36.564453 L 20.054688 41.232422 L 20.833984 42.009766 L 25.5 37.34375 L 24.722656 36.564453 z M 35.388672 36.564453 L 30.722656 41.232422 L 31.5 42.009766 L 36.166016 37.34375 L 35.388672 36.564453 z M 46.054688 36.564453 L 41.388672 41.232422 L 42.166016 42.009766 L 46.833984 37.34375 L 46.054688 36.564453 z M 56.722656 36.564453 L 52.054688 41.232422 L 52.833984 42.009766 L 57.5 37.34375 L 56.722656 36.564453 z M 5.7226562 38.898438 L 1.0546875 43.564453 L 1.8339844 44.34375 L 6.5 39.675781 L 5.7226562 38.898438 z M 16.388672 38.898438 L 11.722656 43.564453 L 12.5 44.34375 L 17.166016 39.675781 L 16.388672 38.898438 z M 27.054688 38.898438 L 22.388672 43.564453 L 23.166016 44.34375 L 27.833984 39.675781 L 27.054688 38.898438 z M 37.722656 38.898438 L 33.054688 43.564453 L 33.833984 44.34375 L 38.5 39.675781 L 37.722656 38.898438 z M 48.388672 38.898438 L 43.722656 43.564453 L 44.5 44.34375 L 49.166016 39.675781 L 48.388672 38.898438 z M 59.054688 38.898438 L 54.388672 43.564453 L 55.166016 44.34375 L 59.833984 39.675781 L 59.054688 38.898438 z M 64 39.955078 L 62.722656 41.232422 L 63.5 42.009766 L 64 41.509766 L 64 39.955078 z M 7.2773438 41.787109 L 6.5 42.564453 L 11.166016 47.232422 L 11.945312 46.453125 L 7.2773438 41.787109 z M 17.945312 41.787109 L 17.166016 42.564453 L 21.833984 47.232422 L 22.611328 46.453125 L 17.945312 41.787109 z M 28.611328 41.787109 L 27.833984 42.564453 L 32.5 47.232422 L 33.277344 46.453125 L 28.611328 41.787109 z M 39.277344 41.787109 L 38.5 42.564453 L 43.166016 47.232422 L 43.945312 46.453125 L 39.277344 41.787109 z M 49.945312 41.787109 L 49.166016 42.564453 L 53.833984 47.232422 L 54.611328 46.453125 L 49.945312 41.787109 z M 60.611328 41.787109 L 59.833984 42.564453 L 64 46.732422 L 64 45.175781 L 60.611328 41.787109 z M 4.9453125 44.121094 L 4.1660156 44.898438 L 8.8339844 49.564453 L 9.6113281 48.787109 L 4.9453125 44.121094 z M 15.611328 44.121094 L 14.833984 44.898438 L 19.5 49.564453 L 20.277344 48.787109 L 15.611328 44.121094 z M 26.277344 44.121094 L 25.5 44.898438 L 30.166016 49.564453 L 30.945312 48.787109 L 26.277344 44.121094 z M 36.945312 44.121094 L 36.166016 44.898438 L 40.833984 49.564453 L 41.611328 48.787109 L 36.945312 44.121094 z M 47.611328 44.121094 L 46.833984 44.898438 L 51.5 49.564453 L 52.277344 48.787109 L 47.611328 44.121094 z M 58.277344 44.121094 L 57.5 44.898438 L 62.166016 49.564453 L 62.945312 48.787109 L 58.277344 44.121094 z M 0 45.175781 L 0 46.732422 L 0.5 47.232422 L 1.2773438 46.453125 L 0 45.175781 z M 3.3886719 47.232422 L 0 50.621094 L 0 52.175781 L 4.1660156 48.009766 L 3.3886719 47.232422 z M 14.054688 47.232422 L 9.3886719 51.898438 L 10.166016 52.675781 L 14.833984 48.009766 L 14.054688 47.232422 z M 24.722656 47.232422 L 20.054688 51.898438 L 20.833984 52.675781 L 25.5 48.009766 L 24.722656 47.232422 z M 35.388672 47.232422 L 30.722656 51.898438 L 31.5 52.675781 L 36.166016 48.009766 L 35.388672 47.232422 z M 46.054688 47.232422 L 41.388672 51.898438 L 42.166016 52.675781 L 46.833984 48.009766 L 46.054688 47.232422 z M 56.722656 47.232422 L 52.054688 51.898438 L 52.833984 52.675781 L 57.5 48.009766 L 56.722656 47.232422 z M 5.7226562 49.564453 L 1.0546875 54.232422 L 1.8339844 55.009766 L 6.5 50.34375 L 5.7226562 49.564453 z M 16.388672 49.564453 L 11.722656 54.232422 L 12.5 55.009766 L 17.166016 50.34375 L 16.388672 49.564453 z M 27.054688 49.564453 L 22.388672 54.232422 L 23.166016 55.009766 L 27.833984 50.34375 L 27.054688 49.564453 z M 37.722656 49.564453 L 33.054688 54.232422 L 33.833984 55.009766 L 38.5 50.34375 L 37.722656 49.564453 z M 48.388672 49.564453 L 43.722656 54.232422 L 44.5 55.009766 L 49.166016 50.34375 L 48.388672 49.564453 z M 59.054688 49.564453 L 54.388672 54.232422 L 55.166016 55.009766 L 59.833984 50.34375 L 59.054688 49.564453 z M 64 50.621094 L 62.722656 51.898438 L 63.5 52.675781 L 64 52.175781 L 64 50.621094 z M 7.2773438 52.453125 L 6.5 53.232422 L 11.166016 57.898438 L 11.945312 57.121094 L 7.2773438 52.453125 z M 17.945312 52.453125 L 17.166016 53.232422 L 21.833984 57.898438 L 22.611328 57.121094 L 17.945312 52.453125 z M 28.611328 52.453125 L 27.833984 53.232422 L 32.5 57.898438 L 33.277344 57.121094 L 28.611328 52.453125 z M 39.277344 52.453125 L 38.5 53.232422 L 43.166016 57.898438 L 43.945312 57.121094 L 39.277344 52.453125 z M 49.945312 52.453125 L 49.166016 53.232422 L 53.833984 57.898438 L 54.611328 57.121094 L 49.945312 52.453125 z M 60.611328 52.453125 L 59.833984 53.232422 L 64 57.398438 L 64 55.84375 L 60.611328 52.453125 z M 4.9453125 54.787109 L 4.1660156 55.564453 L 8.8339844 60.232422 L 9.6113281 59.453125 L 4.9453125 54.787109 z M 15.611328 54.787109 L 14.833984 55.564453 L 19.5 60.232422 L 20.277344 59.453125 L 15.611328 54.787109 z M 26.277344 54.787109 L 25.5 55.564453 L 30.166016 60.232422 L 30.945312 59.453125 L 26.277344 54.787109 z M 36.945312 54.787109 L 36.166016 55.564453 L 40.833984 60.232422 L 41.611328 59.453125 L 36.945312 54.787109 z M 47.611328 54.787109 L 46.833984 55.564453 L 51.5 60.232422 L 52.277344 59.453125 L 47.611328 54.787109 z M 58.277344 54.787109 L 57.5 55.564453 L 62.166016 60.232422 L 62.945312 59.453125 L 58.277344 54.787109 z M 0 55.84375 L 0 57.398438 L 0.5 57.898438 L 1.2773438 57.121094 L 0 55.84375 z M 3.3886719 57.898438 L 0 61.287109 L 0 62.84375 L 4.1660156 58.675781 L 3.3886719 57.898438 z M 14.054688 57.898438 L 9.3886719 62.564453 L 10.166016 63.34375 L 14.833984 58.675781 L 14.054688 57.898438 z M 24.722656 57.898438 L 20.054688 62.564453 L 20.833984 63.34375 L 25.5 58.675781 L 24.722656 57.898438 z M 35.388672 57.898438 L 30.722656 62.564453 L 31.5 63.34375 L 36.166016 58.675781 L 35.388672 57.898438 z M 46.054688 57.898438 L 41.388672 62.564453 L 42.166016 63.34375 L 46.833984 58.675781 L 46.054688 57.898438 z M 56.722656 57.898438 L 52.054688 62.564453 L 52.833984 63.34375 L 57.5 58.675781 L 56.722656 57.898438 z M 5.7226562 60.232422 L 1.953125 64 L 3.5097656 64 L 6.5 61.009766 L 5.7226562 60.232422 z M 16.388672 60.232422 L 12.621094 64 L 14.175781 64 L 17.166016 61.009766 L 16.388672 60.232422 z M 27.054688 60.232422 L 23.287109 64 L 24.841797 64 L 27.833984 61.009766 L 27.054688 60.232422 z M 37.722656 60.232422 L 33.953125 64 L 35.509766 64 L 38.5 61.009766 L 37.722656 60.232422 z M 48.388672 60.232422 L 44.621094 64 L 46.175781 64 L 49.166016 61.009766 L 48.388672 60.232422 z M 59.054688 60.232422 L 55.287109 64 L 56.841797 64 L 59.833984 61.009766 L 59.054688 60.232422 z M 64 61.287109 L 62.722656 62.564453 L 63.5 63.34375 L 64 62.84375 L 64 61.287109 z M 7.2773438 63.121094 L 6.5 63.898438 L 6.6015625 64 L 8.15625 64 L 7.2773438 63.121094 z M 17.945312 63.121094 L 17.166016 63.898438 L 17.267578 64 L 18.824219 64 L 17.945312 63.121094 z M 28.611328 63.121094 L 27.833984 63.898438 L 27.935547 64 L 29.490234 64 L 28.611328 63.121094 z M 39.277344 63.121094 L 38.5 63.898438 L 38.601562 64 L 40.15625 64 L 39.277344 63.121094 z M 49.945312 63.121094 L 49.166016 63.898438 L 49.267578 64 L 50.824219 64 L 49.945312 63.121094 z M 60.611328 63.121094 L 59.833984 63.898438 L 59.935547 64 L 61.490234 64 L 60.611328 63.121094 z "
     style="fill:#aba388" />
  <rect
     style="fill:none;fill-opacity:1;stroke:none"
     id="rect8566"
     y="0"
     x="0"
     rx="0"
     height="64"
     width="64" />
  <desc
     id="desc374">Created with Snap</desc>
</svg>
