<?xml version="1.0" encoding="UTF-8" standalone="no"?>
<svg
   id="Svg"
   width="128"
   height="128"
   version="1.1"
   xmlns="http://www.w3.org/2000/svg"
   xmlns:svg="http://www.w3.org/2000/svg">
  <defs
     id="defs10" />
  <path
     id="path1961"
     d="M 0.10742188 0 C 0.35613213 0.19790066 0.59721743 0.43285026 0.8515625 0.578125 L 0.072265625 1.2714844 L 0 1.1894531 L 0 4.015625 L 2.484375 4.015625 C 1.579281 3.789355 1.085899 2.54137 1 1.75 L 1.7753906 0.97460938 C 2.7405666 1.2494573 3.5888361 1.0003231 3.9882812 0 L 0.10742188 0 z M 20.986328 0 C 21.340448 0.85887146 22.02563 0.96746078 22.710938 0.7421875 L 23.9375 1.96875 C 23.793125 2.75354 23.309375 3.809375 22.484375 4.015625 L 27.484375 4.015625 C 26.579281 3.789355 26.085899 2.54137 26 1.75 L 26.775391 0.97460938 C 27.740567 1.2494573 28.588836 1.0003231 28.988281 0 L 25.107422 0 C 25.356132 0.19790066 25.597217 0.43285026 25.851562 0.578125 L 25.072266 1.2714844 L 23.970703 0.03125 C 23.98698 0.018319496 23.986237 0.012814309 24.001953 0 L 20.986328 0 z M 46.986328 0 C 47.340448 0.85887146 48.02563 0.96746078 48.710938 0.7421875 L 49.9375 1.96875 C 49.793125 2.75354 49.309375 3.809375 48.484375 4.015625 L 53.484375 4.015625 C 52.579281 3.789355 52.085899 2.54137 52 1.75 L 52.775391 0.97460938 C 53.740567 1.2494573 54.588836 1.0003231 54.988281 0 L 51.107422 0 C 51.356132 0.19790066 51.597217 0.43285026 51.851562 0.578125 L 51.072266 1.2714844 L 49.970703 0.03125 C 49.98698 0.018319496 49.986237 0.012814309 50.001953 0 L 46.986328 0 z M 71.986328 0 C 72.340448 0.85887146 73.02563 0.96746078 73.710938 0.7421875 L 74.9375 1.96875 C 74.793125 2.75354 74.309375 3.809375 73.484375 4.015625 L 78.484375 4.015625 C 77.579281 3.789355 77.085899 2.54137 77 1.75 L 77.775391 0.97460938 C 78.740567 1.2494573 79.588836 1.0003231 79.988281 0 L 76.107422 0 C 76.356132 0.19790066 76.597217 0.43285026 76.851562 0.578125 L 76.072266 1.2714844 L 74.970703 0.03125 C 74.98698 0.018319496 74.986237 0.012814309 75.001953 0 L 71.986328 0 z M 97.986328 0 C 98.340448 0.85887146 99.02563 0.96746078 99.710938 0.7421875 L 100.9375 1.96875 C 100.79313 2.75354 100.30938 3.809375 99.484375 4.015625 L 104.48438 4.015625 C 103.57927 3.789355 103.0859 2.54137 103 1.75 L 103.77539 0.97460938 C 104.74056 1.2494573 105.58883 1.0003231 105.98828 0 L 102.10742 0 C 102.35613 0.19790066 102.59722 0.43285026 102.85156 0.578125 L 102.07227 1.2714844 L 100.9707 0.03125 C 100.98698 0.018319496 100.98624 0.012814309 101.00195 0 L 97.986328 0 z M 123.98633 0 C 124.34045 0.85887146 125.02563 0.96746078 125.71094 0.7421875 L 126.9375 1.96875 C 126.79313 2.75354 126.30937 3.809375 125.48438 4.015625 L 128 4.015625 L 128 1.1894531 L 126.9707 0.03125 C 126.98698 0.018319496 126.98624 0.012814309 127.00195 0 L 123.98633 0 z M 3.984375 3.015625 A 1 0.5 0 0 0 2.984375 3.515625 A 1 0.5 0 0 0 3.984375 4.015625 A 1 0.5 0 0 0 4.984375 3.515625 A 1 0.5 0 0 0 3.984375 3.015625 z M 28.984375 3.015625 A 1 0.5 0 0 0 27.984375 3.515625 A 1 0.5 0 0 0 28.984375 4.015625 A 1 0.5 0 0 0 29.984375 3.515625 A 1 0.5 0 0 0 28.984375 3.015625 z M 54.984375 3.015625 A 1 0.5 0 0 0 53.984375 3.515625 A 1 0.5 0 0 0 54.984375 4.015625 A 1 0.5 0 0 0 55.984375 3.515625 A 1 0.5 0 0 0 54.984375 3.015625 z M 79.984375 3.015625 A 1 0.5 0 0 0 78.984375 3.515625 A 1 0.5 0 0 0 79.984375 4.015625 A 1 0.5 0 0 0 80.984375 3.515625 A 1 0.5 0 0 0 79.984375 3.015625 z M 105.98438 3.015625 A 1 0.5 0 0 0 104.98438 3.515625 A 1 0.5 0 0 0 105.98438 4.015625 A 1 0.5 0 0 0 106.98438 3.515625 A 1 0.5 0 0 0 105.98438 3.015625 z M 6.234375 3.265625 A 0.75 0.375 0 0 0 5.484375 3.640625 A 0.75 0.375 0 0 0 6.234375 4.015625 A 0.75 0.375 0 0 0 6.984375 3.640625 A 0.75 0.375 0 0 0 6.234375 3.265625 z M 31.234375 3.265625 A 0.75 0.375 0 0 0 30.484375 3.640625 A 0.75 0.375 0 0 0 31.234375 4.015625 A 0.75 0.375 0 0 0 31.984375 3.640625 A 0.75 0.375 0 0 0 31.234375 3.265625 z M 57.234375 3.265625 A 0.75 0.375 0 0 0 56.484375 3.640625 A 0.75 0.375 0 0 0 57.234375 4.015625 A 0.75 0.375 0 0 0 57.984375 3.640625 A 0.75 0.375 0 0 0 57.234375 3.265625 z M 82.234375 3.265625 A 0.75 0.375 0 0 0 81.484375 3.640625 A 0.75 0.375 0 0 0 82.234375 4.015625 A 0.75 0.375 0 0 0 82.984375 3.640625 A 0.75 0.375 0 0 0 82.234375 3.265625 z M 108.23438 3.265625 A 0.75 0.375 0 0 0 107.48438 3.640625 A 0.75 0.375 0 0 0 108.23438 4.015625 A 0.75 0.375 0 0 0 108.98438 3.640625 A 0.75 0.375 0 0 0 108.23438 3.265625 z M 9.984375 8.015625 C 8.971102 8.015625 7.734375 8.843765 7.734375 10.515625 C 7.734375 12.792975 8.7395595 13.061497 9.7109375 12.742188 L 10.9375 13.96875 C 10.793125 14.75354 10.309375 15.809375 9.484375 16.015625 L 14.484375 16.015625 C 13.579281 15.789355 13.085899 14.54137 13 13.75 L 13.775391 12.974609 C 15.109546 13.354529 16.234375 12.754165 16.234375 10.515625 C 16.234375 7.765625 13.234375 7.765625 12.484375 8.765625 C 11.700275 8.275565 10.984375 8.015625 9.984375 8.015625 z M 35.984375 8.015625 C 34.971102 8.015625 33.734375 8.843765 33.734375 10.515625 C 33.734375 12.792975 34.739559 13.061498 35.710938 12.742188 L 36.9375 13.96875 C 36.793125 14.75354 36.309375 15.809375 35.484375 16.015625 L 40.484375 16.015625 C 39.579281 15.789355 39.085899 14.54137 39 13.75 L 39.775391 12.974609 C 41.109546 13.354529 42.234375 12.754165 42.234375 10.515625 C 42.234375 7.765625 39.234375 7.765625 38.484375 8.765625 C 37.700275 8.275565 36.984375 8.015625 35.984375 8.015625 z M 61.984375 8.015625 C 60.971102 8.015625 59.734375 8.843765 59.734375 10.515625 C 59.734375 12.792975 60.739559 13.061498 61.710938 12.742188 L 62.9375 13.96875 C 62.793125 14.75354 62.309375 15.809375 61.484375 16.015625 L 66.484375 16.015625 C 65.579281 15.789355 65.085899 14.54137 65 13.75 L 65.775391 12.974609 C 67.109546 13.354529 68.234375 12.754165 68.234375 10.515625 C 68.234375 7.765625 65.234375 7.765625 64.484375 8.765625 C 63.700275 8.275565 62.984375 8.015625 61.984375 8.015625 z M 86.984375 8.015625 C 85.971102 8.015625 84.734375 8.843765 84.734375 10.515625 C 84.734375 12.792975 85.739559 13.061498 86.710938 12.742188 L 87.9375 13.96875 C 87.793125 14.75354 87.309375 15.809375 86.484375 16.015625 L 91.484375 16.015625 C 90.579281 15.789355 90.085899 14.54137 90 13.75 L 90.775391 12.974609 C 92.109546 13.354529 93.234375 12.754165 93.234375 10.515625 C 93.234375 7.765625 90.234375 7.765625 89.484375 8.765625 C 88.700275 8.275565 87.984375 8.015625 86.984375 8.015625 z M 112.98438 8.015625 C 111.9711 8.015625 110.73438 8.843765 110.73438 10.515625 C 110.73438 12.792975 111.73956 13.061498 112.71094 12.742188 L 113.9375 13.96875 C 113.79313 14.75354 113.30937 15.809375 112.48438 16.015625 L 117.48438 16.015625 C 116.57927 15.789355 116.0859 14.54137 116 13.75 L 116.77539 12.974609 C 118.10954 13.354529 119.23437 12.754165 119.23438 10.515625 C 119.23438 7.765625 116.23438 7.765625 115.48438 8.765625 C 114.70028 8.275565 113.98437 8.015625 112.98438 8.015625 z M 9.734375 8.515625 C 10.234375 8.515625 11.484375 8.515625 12.234375 9.265625 C 12.484375 9.515625 13.484375 10.765625 13.484375 10.765625 C 13.484375 10.015625 13.234375 9.765625 13.234375 9.515625 C 13.234375 8.515625 14.507012 8.538265 14.984375 9.015625 C 15.234375 9.265625 15.234375 9.735465 15.234375 10.265625 C 15.234375 13.015625 11.984375 10.765625 11.234375 10.015625 C 10.984375 10.765625 8.234375 13.557005 8.234375 10.515625 C 8.234375 9.765625 8.734375 8.515625 9.734375 8.515625 z M 35.734375 8.515625 C 36.234375 8.515625 37.484375 8.515625 38.234375 9.265625 C 38.484375 9.515625 39.484375 10.765625 39.484375 10.765625 C 39.484375 10.015625 39.234375 9.765625 39.234375 9.515625 C 39.234375 8.515625 40.507012 8.538265 40.984375 9.015625 C 41.234375 9.265625 41.234375 9.735465 41.234375 10.265625 C 41.234375 13.015625 37.984375 10.765625 37.234375 10.015625 C 36.984375 10.765625 34.234375 13.557005 34.234375 10.515625 C 34.234375 9.765625 34.734375 8.515625 35.734375 8.515625 z M 61.734375 8.515625 C 62.234375 8.515625 63.484375 8.515625 64.234375 9.265625 C 64.484375 9.515625 65.484375 10.765625 65.484375 10.765625 C 65.484375 10.015625 65.234375 9.765625 65.234375 9.515625 C 65.234375 8.515625 66.507012 8.538265 66.984375 9.015625 C 67.234375 9.265625 67.234375 9.735465 67.234375 10.265625 C 67.234375 13.015625 63.984375 10.765625 63.234375 10.015625 C 62.984375 10.765625 60.234375 13.557005 60.234375 10.515625 C 60.234375 9.765625 60.734375 8.515625 61.734375 8.515625 z M 86.734375 8.515625 C 87.234375 8.515625 88.484375 8.515625 89.234375 9.265625 C 89.484375 9.515625 90.484375 10.765625 90.484375 10.765625 C 90.484375 10.015625 90.234375 9.765625 90.234375 9.515625 C 90.234375 8.515625 91.507012 8.538265 91.984375 9.015625 C 92.234375 9.265625 92.234375 9.735465 92.234375 10.265625 C 92.234375 13.015625 88.984375 10.765625 88.234375 10.015625 C 87.984375 10.765625 85.234375 13.557005 85.234375 10.515625 C 85.234375 9.765625 85.734375 8.515625 86.734375 8.515625 z M 112.73438 8.515625 C 113.23438 8.515625 114.48438 8.515625 115.23438 9.265625 C 115.48438 9.515625 116.48438 10.765625 116.48438 10.765625 C 116.48438 10.015625 116.23438 9.765625 116.23438 9.515625 C 116.23438 8.515625 117.50701 8.538265 117.98438 9.015625 C 118.23438 9.265625 118.23438 9.735465 118.23438 10.265625 C 118.23438 13.015625 114.98438 10.765625 114.23438 10.015625 C 113.98438 10.765625 111.23438 13.557005 111.23438 10.515625 C 111.23438 9.765625 111.73438 8.515625 112.73438 8.515625 z M 11.484375 11.515625 C 11.916971 11.948225 12.384208 12.311185 12.851562 12.578125 L 12.072266 13.271484 L 10.970703 12.03125 C 11.238766 11.8183 11.432907 11.618565 11.484375 11.515625 z M 37.484375 11.515625 C 37.916971 11.948225 38.384208 12.311185 38.851562 12.578125 L 38.072266 13.271484 L 36.970703 12.03125 C 37.238766 11.8183 37.432907 11.618565 37.484375 11.515625 z M 63.484375 11.515625 C 63.916971 11.948225 64.384208 12.311185 64.851562 12.578125 L 64.072266 13.271484 L 62.970703 12.03125 C 63.238766 11.8183 63.432907 11.618565 63.484375 11.515625 z M 88.484375 11.515625 C 88.916971 11.948225 89.384208 12.311185 89.851562 12.578125 L 89.072266 13.271484 L 87.970703 12.03125 C 88.238766 11.8183 88.432907 11.618565 88.484375 11.515625 z M 114.48438 11.515625 C 114.91697 11.948225 115.38421 12.311185 115.85156 12.578125 L 115.07227 13.271484 L 113.9707 12.03125 C 114.23877 11.8183 114.4329 11.618565 114.48438 11.515625 z M 15.984375 15.015625 A 1 0.5 0 0 0 14.984375 15.515625 A 1 0.5 0 0 0 15.984375 16.015625 A 1 0.5 0 0 0 16.984375 15.515625 A 1 0.5 0 0 0 15.984375 15.015625 z M 41.984375 15.015625 A 1 0.5 0 0 0 40.984375 15.515625 A 1 0.5 0 0 0 41.984375 16.015625 A 1 0.5 0 0 0 42.984375 15.515625 A 1 0.5 0 0 0 41.984375 15.015625 z M 67.984375 15.015625 A 1 0.5 0 0 0 66.984375 15.515625 A 1 0.5 0 0 0 67.984375 16.015625 A 1 0.5 0 0 0 68.984375 15.515625 A 1 0.5 0 0 0 67.984375 15.015625 z M 92.984375 15.015625 A 1 0.5 0 0 0 91.984375 15.515625 A 1 0.5 0 0 0 92.984375 16.015625 A 1 0.5 0 0 0 93.984375 15.515625 A 1 0.5 0 0 0 92.984375 15.015625 z M 118.98438 15.015625 A 1 0.5 0 0 0 117.98438 15.515625 A 1 0.5 0 0 0 118.98438 16.015625 A 1 0.5 0 0 0 119.98438 15.515625 A 1 0.5 0 0 0 118.98438 15.015625 z M 18.234375 15.265625 A 0.75 0.375 0 0 0 17.484375 15.640625 A 0.75 0.375 0 0 0 18.234375 16.015625 A 0.75 0.375 0 0 0 18.984375 15.640625 A 0.75 0.375 0 0 0 18.234375 15.265625 z M 44.234375 15.265625 A 0.75 0.375 0 0 0 43.484375 15.640625 A 0.75 0.375 0 0 0 44.234375 16.015625 A 0.75 0.375 0 0 0 44.984375 15.640625 A 0.75 0.375 0 0 0 44.234375 15.265625 z M 70.234375 15.265625 A 0.75 0.375 0 0 0 69.484375 15.640625 A 0.75 0.375 0 0 0 70.234375 16.015625 A 0.75 0.375 0 0 0 70.984375 15.640625 A 0.75 0.375 0 0 0 70.234375 15.265625 z M 95.234375 15.265625 A 0.75 0.375 0 0 0 94.484375 15.640625 A 0.75 0.375 0 0 0 95.234375 16.015625 A 0.75 0.375 0 0 0 95.984375 15.640625 A 0.75 0.375 0 0 0 95.234375 15.265625 z M 121.23438 15.265625 A 0.75 0.375 0 0 0 120.48438 15.640625 A 0.75 0.375 0 0 0 121.23438 16.015625 A 0.75 0.375 0 0 0 121.98438 15.640625 A 0.75 0.375 0 0 0 121.23438 15.265625 z M 22.984375 21.015625 C 21.971102 21.015625 20.734375 21.843765 20.734375 23.515625 C 20.734375 25.792975 21.739559 26.061498 22.710938 25.742188 L 23.9375 26.96875 C 23.793125 27.75354 23.309375 28.809375 22.484375 29.015625 L 27.484375 29.015625 C 26.579281 28.789355 26.085899 27.54137 26 26.75 L 26.775391 25.974609 C 28.109546 26.354529 29.234375 25.754165 29.234375 23.515625 C 29.234375 20.765625 26.234375 20.765625 25.484375 21.765625 C 24.700275 21.275565 23.984375 21.015625 22.984375 21.015625 z M 48.984375 21.015625 C 47.971102 21.015625 46.734375 21.843765 46.734375 23.515625 C 46.734375 25.792975 47.739559 26.061498 48.710938 25.742188 L 49.9375 26.96875 C 49.793125 27.75354 49.309375 28.809375 48.484375 29.015625 L 53.484375 29.015625 C 52.579281 28.789355 52.085899 27.54137 52 26.75 L 52.775391 25.974609 C 54.109546 26.354529 55.234375 25.754165 55.234375 23.515625 C 55.234375 20.765625 52.234375 20.765625 51.484375 21.765625 C 50.700275 21.275565 49.984375 21.015625 48.984375 21.015625 z M 73.984375 21.015625 C 72.971102 21.015625 71.734375 21.843765 71.734375 23.515625 C 71.734375 25.792975 72.739559 26.061498 73.710938 25.742188 L 74.9375 26.96875 C 74.793125 27.75354 74.309375 28.809375 73.484375 29.015625 L 78.484375 29.015625 C 77.579281 28.789355 77.085899 27.54137 77 26.75 L 77.775391 25.974609 C 79.109546 26.354529 80.234375 25.754165 80.234375 23.515625 C 80.234375 20.765625 77.234375 20.765625 76.484375 21.765625 C 75.700275 21.275565 74.984375 21.015625 73.984375 21.015625 z M 99.984375 21.015625 C 98.971102 21.015625 97.734375 21.843765 97.734375 23.515625 C 97.734375 25.792975 98.739559 26.061498 99.710938 25.742188 L 100.9375 26.96875 C 100.79313 27.75354 100.30938 28.809375 99.484375 29.015625 L 104.48438 29.015625 C 103.57927 28.789355 103.0859 27.54137 103 26.75 L 103.77539 25.974609 C 105.10954 26.354529 106.23437 25.754165 106.23438 23.515625 C 106.23438 20.765625 103.23438 20.765625 102.48438 21.765625 C 101.70028 21.275565 100.98438 21.015625 99.984375 21.015625 z M 125.98438 21.015625 C 124.9711 21.015625 123.73438 21.843765 123.73438 23.515625 C 123.73438 25.792975 124.73956 26.061498 125.71094 25.742188 L 126.9375 26.96875 C 126.79313 27.75354 126.30937 28.809375 125.48438 29.015625 L 128 29.015625 L 128 26.189453 L 126.9707 25.03125 C 127.23877 24.8183 127.4329 24.618565 127.48438 24.515625 C 127.64747 24.678727 127.8289 24.774126 128 24.916016 L 128 23.619141 C 127.68917 23.39728 127.38686 23.168106 127.23438 23.015625 C 126.98438 23.765625 124.23438 26.557005 124.23438 23.515625 C 124.23438 22.765625 124.73438 21.515625 125.73438 21.515625 C 126.18831 21.515625 127.24509 21.544241 128 22.105469 L 128 21.535156 C 127.38854 21.223007 126.7775 21.015625 125.98438 21.015625 z M 2 21.154297 C 1.362793 21.155762 0.765625 21.390625 0.484375 21.765625 C 0.32216165 21.664242 0.15949492 21.616577 0 21.535156 L 0 22.105469 C 0.076603636 22.162418 0.16528108 22.196531 0.234375 22.265625 C 0.484375 22.515625 1.484375 23.765625 1.484375 23.765625 C 1.484375 23.015625 1.234375 22.765625 1.234375 22.515625 C 1.234375 21.515625 2.507012 21.538265 2.984375 22.015625 C 3.234375 22.265625 3.234375 22.735465 3.234375 23.265625 C 3.234375 25.456528 1.2180374 24.488532 0 23.619141 L 0 24.916016 C 0.28271044 25.150463 0.56041349 25.411829 0.8515625 25.578125 L 0.072265625 26.271484 L 0 26.189453 L 0 29.015625 L 2.484375 29.015625 C 1.579281 28.789355 1.085899 27.54137 1 26.75 L 1.7753906 25.974609 C 3.1095456 26.354529 4.234375 25.754165 4.234375 23.515625 C 4.234375 21.796875 3.0620117 21.151855 2 21.154297 z M 22.734375 21.515625 C 23.234375 21.515625 24.484375 21.515625 25.234375 22.265625 C 25.484375 22.515625 26.484375 23.765625 26.484375 23.765625 C 26.484375 23.015625 26.234375 22.765625 26.234375 22.515625 C 26.234375 21.515625 27.507012 21.538265 27.984375 22.015625 C 28.234375 22.265625 28.234375 22.735465 28.234375 23.265625 C 28.234375 26.015625 24.984375 23.765625 24.234375 23.015625 C 23.984375 23.765625 21.234375 26.557005 21.234375 23.515625 C 21.234375 22.765625 21.734375 21.515625 22.734375 21.515625 z M 48.734375 21.515625 C 49.234375 21.515625 50.484375 21.515625 51.234375 22.265625 C 51.484375 22.515625 52.484375 23.765625 52.484375 23.765625 C 52.484375 23.015625 52.234375 22.765625 52.234375 22.515625 C 52.234375 21.515625 53.507012 21.538265 53.984375 22.015625 C 54.234375 22.265625 54.234375 22.735465 54.234375 23.265625 C 54.234375 26.015625 50.984375 23.765625 50.234375 23.015625 C 49.984375 23.765625 47.234375 26.557005 47.234375 23.515625 C 47.234375 22.765625 47.734375 21.515625 48.734375 21.515625 z M 73.734375 21.515625 C 74.234375 21.515625 75.484375 21.515625 76.234375 22.265625 C 76.484375 22.515625 77.484375 23.765625 77.484375 23.765625 C 77.484375 23.015625 77.234375 22.765625 77.234375 22.515625 C 77.234375 21.515625 78.507012 21.538265 78.984375 22.015625 C 79.234375 22.265625 79.234375 22.735465 79.234375 23.265625 C 79.234375 26.015625 75.984375 23.765625 75.234375 23.015625 C 74.984375 23.765625 72.234375 26.557005 72.234375 23.515625 C 72.234375 22.765625 72.734375 21.515625 73.734375 21.515625 z M 99.734375 21.515625 C 100.23438 21.515625 101.48438 21.515625 102.23438 22.265625 C 102.48438 22.515625 103.48438 23.765625 103.48438 23.765625 C 103.48438 23.015625 103.23438 22.765625 103.23438 22.515625 C 103.23438 21.515625 104.50701 21.538265 104.98438 22.015625 C 105.23438 22.265625 105.23438 22.735465 105.23438 23.265625 C 105.23438 26.015625 101.98438 23.765625 101.23438 23.015625 C 100.98438 23.765625 98.234375 26.557005 98.234375 23.515625 C 98.234375 22.765625 98.734375 21.515625 99.734375 21.515625 z M 24.484375 24.515625 C 24.916971 24.948225 25.384208 25.311185 25.851562 25.578125 L 25.072266 26.271484 L 23.970703 25.03125 C 24.238766 24.8183 24.432907 24.618565 24.484375 24.515625 z M 50.484375 24.515625 C 50.916971 24.948225 51.384208 25.311185 51.851562 25.578125 L 51.072266 26.271484 L 49.970703 25.03125 C 50.238766 24.8183 50.432907 24.618565 50.484375 24.515625 z M 75.484375 24.515625 C 75.916971 24.948225 76.384208 25.311185 76.851562 25.578125 L 76.072266 26.271484 L 74.970703 25.03125 C 75.238766 24.8183 75.432907 24.618565 75.484375 24.515625 z M 101.48438 24.515625 C 101.91697 24.948225 102.38421 25.311185 102.85156 25.578125 L 102.07227 26.271484 L 100.9707 25.03125 C 101.23877 24.8183 101.4329 24.618565 101.48438 24.515625 z M 3.984375 28.015625 A 1 0.5 0 0 0 2.984375 28.515625 A 1 0.5 0 0 0 3.984375 29.015625 A 1 0.5 0 0 0 4.984375 28.515625 A 1 0.5 0 0 0 3.984375 28.015625 z M 28.984375 28.015625 A 1 0.5 0 0 0 27.984375 28.515625 A 1 0.5 0 0 0 28.984375 29.015625 A 1 0.5 0 0 0 29.984375 28.515625 A 1 0.5 0 0 0 28.984375 28.015625 z M 54.984375 28.015625 A 1 0.5 0 0 0 53.984375 28.515625 A 1 0.5 0 0 0 54.984375 29.015625 A 1 0.5 0 0 0 55.984375 28.515625 A 1 0.5 0 0 0 54.984375 28.015625 z M 79.984375 28.015625 A 1 0.5 0 0 0 78.984375 28.515625 A 1 0.5 0 0 0 79.984375 29.015625 A 1 0.5 0 0 0 80.984375 28.515625 A 1 0.5 0 0 0 79.984375 28.015625 z M 105.98438 28.015625 A 1 0.5 0 0 0 104.98438 28.515625 A 1 0.5 0 0 0 105.98438 29.015625 A 1 0.5 0 0 0 106.98438 28.515625 A 1 0.5 0 0 0 105.98438 28.015625 z M 6.234375 28.265625 A 0.75 0.375 0 0 0 5.484375 28.640625 A 0.75 0.375 0 0 0 6.234375 29.015625 A 0.75 0.375 0 0 0 6.984375 28.640625 A 0.75 0.375 0 0 0 6.234375 28.265625 z M 31.234375 28.265625 A 0.75 0.375 0 0 0 30.484375 28.640625 A 0.75 0.375 0 0 0 31.234375 29.015625 A 0.75 0.375 0 0 0 31.984375 28.640625 A 0.75 0.375 0 0 0 31.234375 28.265625 z M 57.234375 28.265625 A 0.75 0.375 0 0 0 56.484375 28.640625 A 0.75 0.375 0 0 0 57.234375 29.015625 A 0.75 0.375 0 0 0 57.984375 28.640625 A 0.75 0.375 0 0 0 57.234375 28.265625 z M 82.234375 28.265625 A 0.75 0.375 0 0 0 81.484375 28.640625 A 0.75 0.375 0 0 0 82.234375 29.015625 A 0.75 0.375 0 0 0 82.984375 28.640625 A 0.75 0.375 0 0 0 82.234375 28.265625 z M 108.23438 28.265625 A 0.75 0.375 0 0 0 107.48438 28.640625 A 0.75 0.375 0 0 0 108.23438 29.015625 A 0.75 0.375 0 0 0 108.98438 28.640625 A 0.75 0.375 0 0 0 108.23438 28.265625 z M 9.984375 34.015625 C 8.971102 34.015625 7.734375 34.843765 7.734375 36.515625 C 7.734375 38.792975 8.7395595 39.061498 9.7109375 38.742188 L 10.9375 39.96875 C 10.793125 40.75354 10.309375 41.809375 9.484375 42.015625 L 14.484375 42.015625 C 13.579281 41.789355 13.085899 40.54137 13 39.75 L 13.775391 38.974609 C 15.109546 39.354529 16.234375 38.754165 16.234375 36.515625 C 16.234375 33.765625 13.234375 33.765625 12.484375 34.765625 C 11.700275 34.275565 10.984375 34.015625 9.984375 34.015625 z M 35.984375 34.015625 C 34.971102 34.015625 33.734375 34.843765 33.734375 36.515625 C 33.734375 38.792975 34.739559 39.061498 35.710938 38.742188 L 36.9375 39.96875 C 36.793125 40.75354 36.309375 41.809375 35.484375 42.015625 L 40.484375 42.015625 C 39.579281 41.789355 39.085899 40.54137 39 39.75 L 39.775391 38.974609 C 41.109546 39.354529 42.234375 38.754165 42.234375 36.515625 C 42.234375 33.765625 39.234375 33.765625 38.484375 34.765625 C 37.700275 34.275565 36.984375 34.015625 35.984375 34.015625 z M 61.984375 34.015625 C 60.971102 34.015625 59.734375 34.843765 59.734375 36.515625 C 59.734375 38.792975 60.739559 39.061498 61.710938 38.742188 L 62.9375 39.96875 C 62.793125 40.75354 62.309375 41.809375 61.484375 42.015625 L 66.484375 42.015625 C 65.579281 41.789355 65.085899 40.54137 65 39.75 L 65.775391 38.974609 C 67.109546 39.354529 68.234375 38.754165 68.234375 36.515625 C 68.234375 33.765625 65.234375 33.765625 64.484375 34.765625 C 63.700275 34.275565 62.984375 34.015625 61.984375 34.015625 z M 86.984375 34.015625 C 85.971102 34.015625 84.734375 34.843765 84.734375 36.515625 C 84.734375 38.792975 85.739559 39.061498 86.710938 38.742188 L 87.9375 39.96875 C 87.793125 40.75354 87.309375 41.809375 86.484375 42.015625 L 91.484375 42.015625 C 90.579281 41.789355 90.085899 40.54137 90 39.75 L 90.775391 38.974609 C 92.109546 39.354529 93.234375 38.754165 93.234375 36.515625 C 93.234375 33.765625 90.234375 33.765625 89.484375 34.765625 C 88.700275 34.275565 87.984375 34.015625 86.984375 34.015625 z M 112.98438 34.015625 C 111.9711 34.015625 110.73437 34.843765 110.73438 36.515625 C 110.73438 38.792975 111.73956 39.061497 112.71094 38.742188 L 113.9375 39.96875 C 113.79313 40.75354 113.30937 41.809375 112.48438 42.015625 L 117.48438 42.015625 C 116.57927 41.789355 116.0859 40.54137 116 39.75 L 116.77539 38.974609 C 118.10954 39.354529 119.23437 38.754165 119.23438 36.515625 C 119.23438 33.765625 116.23438 33.765625 115.48438 34.765625 C 114.70028 34.275565 113.98438 34.015625 112.98438 34.015625 z M 9.734375 34.515625 C 10.234375 34.515625 11.484375 34.515625 12.234375 35.265625 C 12.484375 35.515625 13.484375 36.765625 13.484375 36.765625 C 13.484375 36.015625 13.234375 35.765625 13.234375 35.515625 C 13.234375 34.515625 14.507012 34.538265 14.984375 35.015625 C 15.234375 35.265625 15.234375 35.735465 15.234375 36.265625 C 15.234375 39.015625 11.984375 36.765625 11.234375 36.015625 C 10.984375 36.765625 8.234375 39.557005 8.234375 36.515625 C 8.234375 35.765625 8.734375 34.515625 9.734375 34.515625 z M 35.734375 34.515625 C 36.234375 34.515625 37.484375 34.515625 38.234375 35.265625 C 38.484375 35.515625 39.484375 36.765625 39.484375 36.765625 C 39.484375 36.015625 39.234375 35.765625 39.234375 35.515625 C 39.234375 34.515625 40.507012 34.538265 40.984375 35.015625 C 41.234375 35.265625 41.234375 35.735465 41.234375 36.265625 C 41.234375 39.015625 37.984375 36.765625 37.234375 36.015625 C 36.984375 36.765625 34.234375 39.557005 34.234375 36.515625 C 34.234375 35.765625 34.734375 34.515625 35.734375 34.515625 z M 61.734375 34.515625 C 62.234375 34.515625 63.484375 34.515625 64.234375 35.265625 C 64.484375 35.515625 65.484375 36.765625 65.484375 36.765625 C 65.484375 36.015625 65.234375 35.765625 65.234375 35.515625 C 65.234375 34.515625 66.507012 34.538265 66.984375 35.015625 C 67.234375 35.265625 67.234375 35.735465 67.234375 36.265625 C 67.234375 39.015625 63.984375 36.765625 63.234375 36.015625 C 62.984375 36.765625 60.234375 39.557005 60.234375 36.515625 C 60.234375 35.765625 60.734375 34.515625 61.734375 34.515625 z M 86.734375 34.515625 C 87.234375 34.515625 88.484375 34.515625 89.234375 35.265625 C 89.484375 35.515625 90.484375 36.765625 90.484375 36.765625 C 90.484375 36.015625 90.234375 35.765625 90.234375 35.515625 C 90.234375 34.515625 91.507012 34.538265 91.984375 35.015625 C 92.234375 35.265625 92.234375 35.735465 92.234375 36.265625 C 92.234375 39.015625 88.984375 36.765625 88.234375 36.015625 C 87.984375 36.765625 85.234375 39.557005 85.234375 36.515625 C 85.234375 35.765625 85.734375 34.515625 86.734375 34.515625 z M 112.73438 34.515625 C 113.23438 34.515625 114.48438 34.515625 115.23438 35.265625 C 115.48438 35.515625 116.48438 36.765625 116.48438 36.765625 C 116.48438 36.015625 116.23438 35.765625 116.23438 35.515625 C 116.23438 34.515625 117.507 34.538265 117.98438 35.015625 C 118.23438 35.265625 118.23438 35.735465 118.23438 36.265625 C 118.23438 39.015625 114.98438 36.765625 114.23438 36.015625 C 113.98438 36.765625 111.23438 39.557005 111.23438 36.515625 C 111.23438 35.765625 111.73438 34.515625 112.73438 34.515625 z M 11.484375 37.515625 C 11.916971 37.948225 12.384208 38.311185 12.851562 38.578125 L 12.072266 39.271484 L 10.970703 38.03125 C 11.238766 37.8183 11.432907 37.618565 11.484375 37.515625 z M 37.484375 37.515625 C 37.916971 37.948225 38.384208 38.311185 38.851562 38.578125 L 38.072266 39.271484 L 36.970703 38.03125 C 37.238766 37.8183 37.432907 37.618565 37.484375 37.515625 z M 63.484375 37.515625 C 63.916971 37.948225 64.384208 38.311185 64.851562 38.578125 L 64.072266 39.271484 L 62.970703 38.03125 C 63.238766 37.8183 63.432907 37.618565 63.484375 37.515625 z M 88.484375 37.515625 C 88.916971 37.948225 89.384207 38.311185 89.851562 38.578125 L 89.072266 39.271484 L 87.970703 38.03125 C 88.238766 37.8183 88.432907 37.618565 88.484375 37.515625 z M 114.48438 37.515625 C 114.91697 37.948225 115.38421 38.311185 115.85156 38.578125 L 115.07227 39.271484 L 113.9707 38.03125 C 114.23877 37.8183 114.4329 37.618565 114.48438 37.515625 z M 15.984375 41.015625 A 1 0.5 0 0 0 14.984375 41.515625 A 1 0.5 0 0 0 15.984375 42.015625 A 1 0.5 0 0 0 16.984375 41.515625 A 1 0.5 0 0 0 15.984375 41.015625 z M 41.984375 41.015625 A 1 0.5 0 0 0 40.984375 41.515625 A 1 0.5 0 0 0 41.984375 42.015625 A 1 0.5 0 0 0 42.984375 41.515625 A 1 0.5 0 0 0 41.984375 41.015625 z M 67.984375 41.015625 A 1 0.5 0 0 0 66.984375 41.515625 A 1 0.5 0 0 0 67.984375 42.015625 A 1 0.5 0 0 0 68.984375 41.515625 A 1 0.5 0 0 0 67.984375 41.015625 z M 92.984375 41.015625 A 1 0.5 0 0 0 91.984375 41.515625 A 1 0.5 0 0 0 92.984375 42.015625 A 1 0.5 0 0 0 93.984375 41.515625 A 1 0.5 0 0 0 92.984375 41.015625 z M 118.98438 41.015625 A 1 0.5 0 0 0 117.98438 41.515625 A 1 0.5 0 0 0 118.98438 42.015625 A 1 0.5 0 0 0 119.98438 41.515625 A 1 0.5 0 0 0 118.98438 41.015625 z M 18.234375 41.265625 A 0.75 0.375 0 0 0 17.484375 41.640625 A 0.75 0.375 0 0 0 18.234375 42.015625 A 0.75 0.375 0 0 0 18.984375 41.640625 A 0.75 0.375 0 0 0 18.234375 41.265625 z M 44.234375 41.265625 A 0.75 0.375 0 0 0 43.484375 41.640625 A 0.75 0.375 0 0 0 44.234375 42.015625 A 0.75 0.375 0 0 0 44.984375 41.640625 A 0.75 0.375 0 0 0 44.234375 41.265625 z M 70.234375 41.265625 A 0.75 0.375 0 0 0 69.484375 41.640625 A 0.75 0.375 0 0 0 70.234375 42.015625 A 0.75 0.375 0 0 0 70.984375 41.640625 A 0.75 0.375 0 0 0 70.234375 41.265625 z M 95.234375 41.265625 A 0.75 0.375 0 0 0 94.484375 41.640625 A 0.75 0.375 0 0 0 95.234375 42.015625 A 0.75 0.375 0 0 0 95.984375 41.640625 A 0.75 0.375 0 0 0 95.234375 41.265625 z M 121.23438 41.265625 A 0.75 0.375 0 0 0 120.48438 41.640625 A 0.75 0.375 0 0 0 121.23438 42.015625 A 0.75 0.375 0 0 0 121.98438 41.640625 A 0.75 0.375 0 0 0 121.23438 41.265625 z M 22.984375 47.015625 C 21.971102 47.015625 20.734375 47.843765 20.734375 49.515625 C 20.734375 51.792975 21.739559 52.061498 22.710938 51.742188 L 23.9375 52.96875 C 23.793125 53.75354 23.309375 54.809375 22.484375 55.015625 L 27.484375 55.015625 C 26.579281 54.789355 26.085899 53.54137 26 52.75 L 26.775391 51.974609 C 28.109546 52.354529 29.234375 51.754165 29.234375 49.515625 C 29.234375 46.765625 26.234375 46.765625 25.484375 47.765625 C 24.700275 47.275565 23.984375 47.015625 22.984375 47.015625 z M 48.984375 47.015625 C 47.971102 47.015625 46.734375 47.843765 46.734375 49.515625 C 46.734375 51.792975 47.739559 52.061498 48.710938 51.742188 L 49.9375 52.96875 C 49.793125 53.75354 49.309375 54.809375 48.484375 55.015625 L 53.484375 55.015625 C 52.579281 54.789355 52.085899 53.54137 52 52.75 L 52.775391 51.974609 C 54.109546 52.354529 55.234375 51.754165 55.234375 49.515625 C 55.234375 46.765625 52.234375 46.765625 51.484375 47.765625 C 50.700275 47.275565 49.984375 47.015625 48.984375 47.015625 z M 73.984375 47.015625 C 72.971102 47.015625 71.734375 47.843765 71.734375 49.515625 C 71.734375 51.792975 72.739559 52.061498 73.710938 51.742188 L 74.9375 52.96875 C 74.793125 53.75354 74.309375 54.809375 73.484375 55.015625 L 78.484375 55.015625 C 77.579281 54.789355 77.085899 53.54137 77 52.75 L 77.775391 51.974609 C 79.109546 52.354529 80.234375 51.754165 80.234375 49.515625 C 80.234375 46.765625 77.234375 46.765625 76.484375 47.765625 C 75.700275 47.275565 74.984375 47.015625 73.984375 47.015625 z M 99.984375 47.015625 C 98.971102 47.015625 97.734375 47.843765 97.734375 49.515625 C 97.734375 51.792975 98.739559 52.061498 99.710938 51.742188 L 100.9375 52.96875 C 100.79313 53.75354 100.30938 54.809375 99.484375 55.015625 L 104.48438 55.015625 C 103.57927 54.789355 103.0859 53.54137 103 52.75 L 103.77539 51.974609 C 105.10954 52.354529 106.23437 51.754165 106.23438 49.515625 C 106.23438 46.765625 103.23438 46.765625 102.48438 47.765625 C 101.70028 47.275565 100.98438 47.015625 99.984375 47.015625 z M 125.98438 47.015625 C 124.9711 47.015625 123.73437 47.843765 123.73438 49.515625 C 123.73438 51.792975 124.73956 52.061498 125.71094 51.742188 L 126.9375 52.96875 C 126.79313 53.75354 126.30937 54.809375 125.48438 55.015625 L 128 55.015625 L 128 52.189453 L 126.9707 51.03125 C 127.23877 50.8183 127.43291 50.618565 127.48438 50.515625 C 127.64747 50.678727 127.8289 50.774126 128 50.916016 L 128 49.619141 C 127.68917 49.39728 127.38686 49.168106 127.23438 49.015625 C 126.98438 49.765625 124.23438 52.557005 124.23438 49.515625 C 124.23438 48.765625 124.73438 47.515625 125.73438 47.515625 C 126.18831 47.515625 127.24509 47.544241 128 48.105469 L 128 47.535156 C 127.38854 47.223007 126.7775 47.015625 125.98438 47.015625 z M 2 47.154297 C 1.362793 47.155762 0.765625 47.390625 0.484375 47.765625 C 0.32216165 47.664242 0.15949492 47.616577 0 47.535156 L 0 48.105469 C 0.076603636 48.162418 0.16528108 48.196531 0.234375 48.265625 C 0.484375 48.515625 1.484375 49.765625 1.484375 49.765625 C 1.484375 49.015625 1.234375 48.765625 1.234375 48.515625 C 1.234375 47.515625 2.507012 47.538265 2.984375 48.015625 C 3.234375 48.265625 3.234375 48.735465 3.234375 49.265625 C 3.234375 51.456528 1.2180374 50.488532 0 49.619141 L 0 50.916016 C 0.28271044 51.150463 0.56041349 51.411829 0.8515625 51.578125 L 0.072265625 52.271484 L 0 52.189453 L 0 55.015625 L 2.484375 55.015625 C 1.579281 54.789355 1.085899 53.54137 1 52.75 L 1.7753906 51.974609 C 3.1095456 52.354529 4.234375 51.754165 4.234375 49.515625 C 4.234375 47.796875 3.0620117 47.151855 2 47.154297 z M 22.734375 47.515625 C 23.234375 47.515625 24.484375 47.515625 25.234375 48.265625 C 25.484375 48.515625 26.484375 49.765625 26.484375 49.765625 C 26.484375 49.015625 26.234375 48.765625 26.234375 48.515625 C 26.234375 47.515625 27.507012 47.538265 27.984375 48.015625 C 28.234375 48.265625 28.234375 48.735465 28.234375 49.265625 C 28.234375 52.015625 24.984375 49.765625 24.234375 49.015625 C 23.984375 49.765625 21.234375 52.557005 21.234375 49.515625 C 21.234375 48.765625 21.734375 47.515625 22.734375 47.515625 z M 48.734375 47.515625 C 49.234375 47.515625 50.484375 47.515625 51.234375 48.265625 C 51.484375 48.515625 52.484375 49.765625 52.484375 49.765625 C 52.484375 49.015625 52.234375 48.765625 52.234375 48.515625 C 52.234375 47.515625 53.507012 47.538265 53.984375 48.015625 C 54.234375 48.265625 54.234375 48.735465 54.234375 49.265625 C 54.234375 52.015625 50.984375 49.765625 50.234375 49.015625 C 49.984375 49.765625 47.234375 52.557005 47.234375 49.515625 C 47.234375 48.765625 47.734375 47.515625 48.734375 47.515625 z M 73.734375 47.515625 C 74.234375 47.515625 75.484375 47.515625 76.234375 48.265625 C 76.484375 48.515625 77.484375 49.765625 77.484375 49.765625 C 77.484375 49.015625 77.234375 48.765625 77.234375 48.515625 C 77.234375 47.515625 78.507012 47.538265 78.984375 48.015625 C 79.234375 48.265625 79.234375 48.735465 79.234375 49.265625 C 79.234375 52.015625 75.984375 49.765625 75.234375 49.015625 C 74.984375 49.765625 72.234375 52.557005 72.234375 49.515625 C 72.234375 48.765625 72.734375 47.515625 73.734375 47.515625 z M 99.734375 47.515625 C 100.23438 47.515625 101.48437 47.515625 102.23438 48.265625 C 102.48438 48.515625 103.48438 49.765625 103.48438 49.765625 C 103.48438 49.015625 103.23438 48.765625 103.23438 48.515625 C 103.23438 47.515625 104.507 47.538265 104.98438 48.015625 C 105.23438 48.265625 105.23438 48.735465 105.23438 49.265625 C 105.23438 52.015625 101.98438 49.765625 101.23438 49.015625 C 100.98438 49.765625 98.234375 52.557005 98.234375 49.515625 C 98.234375 48.765625 98.734375 47.515625 99.734375 47.515625 z M 24.484375 50.515625 C 24.916971 50.948225 25.384208 51.311185 25.851562 51.578125 L 25.072266 52.271484 L 23.970703 51.03125 C 24.238766 50.8183 24.432907 50.618565 24.484375 50.515625 z M 50.484375 50.515625 C 50.916971 50.948225 51.384208 51.311185 51.851562 51.578125 L 51.072266 52.271484 L 49.970703 51.03125 C 50.238766 50.8183 50.432907 50.618565 50.484375 50.515625 z M 75.484375 50.515625 C 75.916971 50.948225 76.384208 51.311185 76.851562 51.578125 L 76.072266 52.271484 L 74.970703 51.03125 C 75.238766 50.8183 75.432907 50.618565 75.484375 50.515625 z M 101.48438 50.515625 C 101.91697 50.948225 102.38421 51.311185 102.85156 51.578125 L 102.07227 52.271484 L 100.9707 51.03125 C 101.23877 50.8183 101.4329 50.618565 101.48438 50.515625 z M 3.984375 54.015625 A 1 0.5 0 0 0 2.984375 54.515625 A 1 0.5 0 0 0 3.984375 55.015625 A 1 0.5 0 0 0 4.984375 54.515625 A 1 0.5 0 0 0 3.984375 54.015625 z M 28.984375 54.015625 A 1 0.5 0 0 0 27.984375 54.515625 A 1 0.5 0 0 0 28.984375 55.015625 A 1 0.5 0 0 0 29.984375 54.515625 A 1 0.5 0 0 0 28.984375 54.015625 z M 54.984375 54.015625 A 1 0.5 0 0 0 53.984375 54.515625 A 1 0.5 0 0 0 54.984375 55.015625 A 1 0.5 0 0 0 55.984375 54.515625 A 1 0.5 0 0 0 54.984375 54.015625 z M 79.984375 54.015625 A 1 0.5 0 0 0 78.984375 54.515625 A 1 0.5 0 0 0 79.984375 55.015625 A 1 0.5 0 0 0 80.984375 54.515625 A 1 0.5 0 0 0 79.984375 54.015625 z M 105.98438 54.015625 A 1 0.5 0 0 0 104.98438 54.515625 A 1 0.5 0 0 0 105.98438 55.015625 A 1 0.5 0 0 0 106.98438 54.515625 A 1 0.5 0 0 0 105.98438 54.015625 z M 6.234375 54.265625 A 0.75 0.375 0 0 0 5.484375 54.640625 A 0.75 0.375 0 0 0 6.234375 55.015625 A 0.75 0.375 0 0 0 6.984375 54.640625 A 0.75 0.375 0 0 0 6.234375 54.265625 z M 31.234375 54.265625 A 0.75 0.375 0 0 0 30.484375 54.640625 A 0.75 0.375 0 0 0 31.234375 55.015625 A 0.75 0.375 0 0 0 31.984375 54.640625 A 0.75 0.375 0 0 0 31.234375 54.265625 z M 57.234375 54.265625 A 0.75 0.375 0 0 0 56.484375 54.640625 A 0.75 0.375 0 0 0 57.234375 55.015625 A 0.75 0.375 0 0 0 57.984375 54.640625 A 0.75 0.375 0 0 0 57.234375 54.265625 z M 82.234375 54.265625 A 0.75 0.375 0 0 0 81.484375 54.640625 A 0.75 0.375 0 0 0 82.234375 55.015625 A 0.75 0.375 0 0 0 82.984375 54.640625 A 0.75 0.375 0 0 0 82.234375 54.265625 z M 108.23438 54.265625 A 0.75 0.375 0 0 0 107.48438 54.640625 A 0.75 0.375 0 0 0 108.23438 55.015625 A 0.75 0.375 0 0 0 108.98438 54.640625 A 0.75 0.375 0 0 0 108.23438 54.265625 z M 9.984375 60.015625 C 8.971102 60.015625 7.734375 60.843765 7.734375 62.515625 C 7.734375 64.792975 8.7395595 65.061497 9.7109375 64.742188 L 10.9375 65.96875 C 10.793125 66.75354 10.309375 67.809375 9.484375 68.015625 L 14.484375 68.015625 C 13.579281 67.789355 13.085899 66.54137 13 65.75 L 13.775391 64.974609 C 15.109546 65.354529 16.234375 64.754165 16.234375 62.515625 C 16.234375 59.765625 13.234375 59.765625 12.484375 60.765625 C 11.700275 60.275565 10.984375 60.015625 9.984375 60.015625 z M 35.984375 60.015625 C 34.971102 60.015625 33.734375 60.843765 33.734375 62.515625 C 33.734375 64.792975 34.739559 65.061497 35.710938 64.742188 L 36.9375 65.96875 C 36.793125 66.75354 36.309375 67.809375 35.484375 68.015625 L 40.484375 68.015625 C 39.579281 67.789355 39.085899 66.54137 39 65.75 L 39.775391 64.974609 C 41.109546 65.354529 42.234375 64.754165 42.234375 62.515625 C 42.234375 59.765625 39.234375 59.765625 38.484375 60.765625 C 37.700275 60.275565 36.984375 60.015625 35.984375 60.015625 z M 61.984375 60.015625 C 60.971102 60.015625 59.734375 60.843765 59.734375 62.515625 C 59.734375 64.792975 60.739559 65.061497 61.710938 64.742188 L 62.9375 65.96875 C 62.793125 66.75354 62.309375 67.809375 61.484375 68.015625 L 66.484375 68.015625 C 65.579281 67.789355 65.085899 66.54137 65 65.75 L 65.775391 64.974609 C 67.109546 65.354529 68.234375 64.754165 68.234375 62.515625 C 68.234375 59.765625 65.234375 59.765625 64.484375 60.765625 C 63.700275 60.275565 62.984375 60.015625 61.984375 60.015625 z M 86.984375 60.015625 C 85.971102 60.015625 84.734375 60.843765 84.734375 62.515625 C 84.734375 64.792975 85.739559 65.061497 86.710938 64.742188 L 87.9375 65.96875 C 87.793125 66.75354 87.309375 67.809375 86.484375 68.015625 L 91.484375 68.015625 C 90.579281 67.789355 90.085899 66.54137 90 65.75 L 90.775391 64.974609 C 92.109546 65.354529 93.234375 64.754165 93.234375 62.515625 C 93.234375 59.765625 90.234375 59.765625 89.484375 60.765625 C 88.700275 60.275565 87.984375 60.015625 86.984375 60.015625 z M 112.98438 60.015625 C 111.9711 60.015625 110.73437 60.843765 110.73438 62.515625 C 110.73438 64.792975 111.73956 65.061497 112.71094 64.742188 L 113.9375 65.96875 C 113.79313 66.75354 113.30937 67.809375 112.48438 68.015625 L 117.48438 68.015625 C 116.57927 67.789355 116.0859 66.54137 116 65.75 L 116.77539 64.974609 C 118.10954 65.354529 119.23437 64.754165 119.23438 62.515625 C 119.23438 59.765625 116.23438 59.765625 115.48438 60.765625 C 114.70028 60.275565 113.98437 60.015625 112.98438 60.015625 z M 9.734375 60.515625 C 10.234375 60.515625 11.484375 60.515625 12.234375 61.265625 C 12.484375 61.515625 13.484375 62.765625 13.484375 62.765625 C 13.484375 62.015625 13.234375 61.765625 13.234375 61.515625 C 13.234375 60.515625 14.507012 60.538265 14.984375 61.015625 C 15.234375 61.265625 15.234375 61.735465 15.234375 62.265625 C 15.234375 65.015625 11.984375 62.765625 11.234375 62.015625 C 10.984375 62.765625 8.234375 65.557005 8.234375 62.515625 C 8.234375 61.765625 8.734375 60.515625 9.734375 60.515625 z M 35.734375 60.515625 C 36.234375 60.515625 37.484375 60.515625 38.234375 61.265625 C 38.484375 61.515625 39.484375 62.765625 39.484375 62.765625 C 39.484375 62.015625 39.234375 61.765625 39.234375 61.515625 C 39.234375 60.515625 40.507012 60.538265 40.984375 61.015625 C 41.234375 61.265625 41.234375 61.735465 41.234375 62.265625 C 41.234375 65.015625 37.984375 62.765625 37.234375 62.015625 C 36.984375 62.765625 34.234375 65.557005 34.234375 62.515625 C 34.234375 61.765625 34.734375 60.515625 35.734375 60.515625 z M 61.734375 60.515625 C 62.234375 60.515625 63.484375 60.515625 64.234375 61.265625 C 64.484375 61.515625 65.484375 62.765625 65.484375 62.765625 C 65.484375 62.015625 65.234375 61.765625 65.234375 61.515625 C 65.234375 60.515625 66.507012 60.538265 66.984375 61.015625 C 67.234375 61.265625 67.234375 61.735465 67.234375 62.265625 C 67.234375 65.015625 63.984375 62.765625 63.234375 62.015625 C 62.984375 62.765625 60.234375 65.557005 60.234375 62.515625 C 60.234375 61.765625 60.734375 60.515625 61.734375 60.515625 z M 86.734375 60.515625 C 87.234375 60.515625 88.484375 60.515625 89.234375 61.265625 C 89.484375 61.515625 90.484375 62.765625 90.484375 62.765625 C 90.484375 62.015625 90.234375 61.765625 90.234375 61.515625 C 90.234375 60.515625 91.507012 60.538265 91.984375 61.015625 C 92.234375 61.265625 92.234375 61.735465 92.234375 62.265625 C 92.234375 65.015625 88.984375 62.765625 88.234375 62.015625 C 87.984375 62.765625 85.234375 65.557005 85.234375 62.515625 C 85.234375 61.765625 85.734375 60.515625 86.734375 60.515625 z M 112.73438 60.515625 C 113.23438 60.515625 114.48438 60.515625 115.23438 61.265625 C 115.48438 61.515625 116.48438 62.765625 116.48438 62.765625 C 116.48438 62.015625 116.23438 61.765625 116.23438 61.515625 C 116.23438 60.515625 117.50701 60.538265 117.98438 61.015625 C 118.23438 61.265625 118.23438 61.735465 118.23438 62.265625 C 118.23438 65.015625 114.98438 62.765625 114.23438 62.015625 C 113.98438 62.765625 111.23438 65.557005 111.23438 62.515625 C 111.23438 61.765625 111.73438 60.515625 112.73438 60.515625 z M 11.484375 63.515625 C 11.916971 63.948225 12.384208 64.311185 12.851562 64.578125 L 12.072266 65.271484 L 10.970703 64.03125 C 11.238766 63.8183 11.432907 63.618565 11.484375 63.515625 z M 37.484375 63.515625 C 37.916971 63.948225 38.384208 64.311185 38.851562 64.578125 L 38.072266 65.271484 L 36.970703 64.03125 C 37.238766 63.8183 37.432907 63.618565 37.484375 63.515625 z M 63.484375 63.515625 C 63.916971 63.948225 64.384208 64.311185 64.851562 64.578125 L 64.072266 65.271484 L 62.970703 64.03125 C 63.238766 63.8183 63.432907 63.618565 63.484375 63.515625 z M 88.484375 63.515625 C 88.916971 63.948225 89.384208 64.311185 89.851562 64.578125 L 89.072266 65.271484 L 87.970703 64.03125 C 88.238766 63.8183 88.432907 63.618565 88.484375 63.515625 z M 114.48438 63.515625 C 114.91697 63.948225 115.38421 64.311185 115.85156 64.578125 L 115.07227 65.271484 L 113.9707 64.03125 C 114.23877 63.8183 114.4329 63.618565 114.48438 63.515625 z M 15.984375 67.015625 A 1 0.5 0 0 0 14.984375 67.515625 A 1 0.5 0 0 0 15.984375 68.015625 A 1 0.5 0 0 0 16.984375 67.515625 A 1 0.5 0 0 0 15.984375 67.015625 z M 41.984375 67.015625 A 1 0.5 0 0 0 40.984375 67.515625 A 1 0.5 0 0 0 41.984375 68.015625 A 1 0.5 0 0 0 42.984375 67.515625 A 1 0.5 0 0 0 41.984375 67.015625 z M 67.984375 67.015625 A 1 0.5 0 0 0 66.984375 67.515625 A 1 0.5 0 0 0 67.984375 68.015625 A 1 0.5 0 0 0 68.984375 67.515625 A 1 0.5 0 0 0 67.984375 67.015625 z M 92.984375 67.015625 A 1 0.5 0 0 0 91.984375 67.515625 A 1 0.5 0 0 0 92.984375 68.015625 A 1 0.5 0 0 0 93.984375 67.515625 A 1 0.5 0 0 0 92.984375 67.015625 z M 118.98438 67.015625 A 1 0.5 0 0 0 117.98438 67.515625 A 1 0.5 0 0 0 118.98438 68.015625 A 1 0.5 0 0 0 119.98438 67.515625 A 1 0.5 0 0 0 118.98438 67.015625 z M 18.234375 67.265625 A 0.75 0.375 0 0 0 17.484375 67.640625 A 0.75 0.375 0 0 0 18.234375 68.015625 A 0.75 0.375 0 0 0 18.984375 67.640625 A 0.75 0.375 0 0 0 18.234375 67.265625 z M 44.234375 67.265625 A 0.75 0.375 0 0 0 43.484375 67.640625 A 0.75 0.375 0 0 0 44.234375 68.015625 A 0.75 0.375 0 0 0 44.984375 67.640625 A 0.75 0.375 0 0 0 44.234375 67.265625 z M 70.234375 67.265625 A 0.75 0.375 0 0 0 69.484375 67.640625 A 0.75 0.375 0 0 0 70.234375 68.015625 A 0.75 0.375 0 0 0 70.984375 67.640625 A 0.75 0.375 0 0 0 70.234375 67.265625 z M 95.234375 67.265625 A 0.75 0.375 0 0 0 94.484375 67.640625 A 0.75 0.375 0 0 0 95.234375 68.015625 A 0.75 0.375 0 0 0 95.984375 67.640625 A 0.75 0.375 0 0 0 95.234375 67.265625 z M 121.23438 67.265625 A 0.75 0.375 0 0 0 120.48438 67.640625 A 0.75 0.375 0 0 0 121.23438 68.015625 A 0.75 0.375 0 0 0 121.98438 67.640625 A 0.75 0.375 0 0 0 121.23438 67.265625 z M 22.984375 72.015625 C 21.971102 72.015625 20.734375 72.843765 20.734375 74.515625 C 20.734375 76.792975 21.739559 77.061497 22.710938 76.742188 L 23.9375 77.96875 C 23.793125 78.75354 23.309375 79.809375 22.484375 80.015625 L 27.484375 80.015625 C 26.579281 79.789355 26.085899 78.54137 26 77.75 L 26.775391 76.974609 C 28.109546 77.354529 29.234375 76.754165 29.234375 74.515625 C 29.234375 71.765625 26.234375 71.765625 25.484375 72.765625 C 24.700275 72.275565 23.984375 72.015625 22.984375 72.015625 z M 48.984375 72.015625 C 47.971102 72.015625 46.734375 72.843765 46.734375 74.515625 C 46.734375 76.792975 47.739559 77.061497 48.710938 76.742188 L 49.9375 77.96875 C 49.793125 78.75354 49.309375 79.809375 48.484375 80.015625 L 53.484375 80.015625 C 52.579281 79.789355 52.085899 78.54137 52 77.75 L 52.775391 76.974609 C 54.109546 77.354529 55.234375 76.754165 55.234375 74.515625 C 55.234375 71.765625 52.234375 71.765625 51.484375 72.765625 C 50.700275 72.275565 49.984375 72.015625 48.984375 72.015625 z M 73.984375 72.015625 C 72.971102 72.015625 71.734375 72.843765 71.734375 74.515625 C 71.734375 76.792975 72.739559 77.061497 73.710938 76.742188 L 74.9375 77.96875 C 74.793125 78.75354 74.309375 79.809375 73.484375 80.015625 L 78.484375 80.015625 C 77.579281 79.789355 77.085899 78.54137 77 77.75 L 77.775391 76.974609 C 79.109546 77.354529 80.234375 76.754165 80.234375 74.515625 C 80.234375 71.765625 77.234375 71.765625 76.484375 72.765625 C 75.700275 72.275565 74.984375 72.015625 73.984375 72.015625 z M 99.984375 72.015625 C 98.971102 72.015625 97.734375 72.843765 97.734375 74.515625 C 97.734375 76.792975 98.739559 77.061497 99.710938 76.742188 L 100.9375 77.96875 C 100.79313 78.75354 100.30938 79.809375 99.484375 80.015625 L 104.48438 80.015625 C 103.57927 79.789355 103.0859 78.54137 103 77.75 L 103.77539 76.974609 C 105.10954 77.354529 106.23437 76.754165 106.23438 74.515625 C 106.23438 71.765625 103.23438 71.765625 102.48438 72.765625 C 101.70028 72.275565 100.98438 72.015625 99.984375 72.015625 z M 125.98438 72.015625 C 124.9711 72.015625 123.73437 72.843765 123.73438 74.515625 C 123.73438 76.792975 124.73956 77.061497 125.71094 76.742188 L 126.9375 77.96875 C 126.79313 78.75354 126.30937 79.809375 125.48438 80.015625 L 128 80.015625 L 128 77.189453 L 126.9707 76.03125 C 127.23877 75.8183 127.4329 75.618565 127.48438 75.515625 C 127.64747 75.678727 127.8289 75.774126 128 75.916016 L 128 74.619141 C 127.68917 74.39728 127.38686 74.168106 127.23438 74.015625 C 126.98438 74.765625 124.23438 77.557005 124.23438 74.515625 C 124.23438 73.765625 124.73438 72.515625 125.73438 72.515625 C 126.18831 72.515625 127.24509 72.544241 128 73.105469 L 128 72.535156 C 127.38854 72.223007 126.7775 72.015625 125.98438 72.015625 z M 2 72.154297 C 1.362793 72.155762 0.765625 72.390625 0.484375 72.765625 C 0.32216165 72.664242 0.15949492 72.616577 0 72.535156 L 0 73.105469 C 0.076603636 73.162418 0.16528108 73.196531 0.234375 73.265625 C 0.484375 73.515625 1.484375 74.765625 1.484375 74.765625 C 1.484375 74.015625 1.234375 73.765625 1.234375 73.515625 C 1.234375 72.515625 2.507012 72.538265 2.984375 73.015625 C 3.234375 73.265625 3.234375 73.735465 3.234375 74.265625 C 3.234375 76.456528 1.2180374 75.488532 0 74.619141 L 0 75.916016 C 0.28271044 76.150463 0.56041349 76.411829 0.8515625 76.578125 L 0.072265625 77.271484 L 0 77.189453 L 0 80.015625 L 2.484375 80.015625 C 1.579281 79.789355 1.085899 78.54137 1 77.75 L 1.7753906 76.974609 C 3.1095456 77.354529 4.234375 76.754165 4.234375 74.515625 C 4.234375 72.796875 3.0620117 72.151855 2 72.154297 z M 22.734375 72.515625 C 23.234375 72.515625 24.484375 72.515625 25.234375 73.265625 C 25.484375 73.515625 26.484375 74.765625 26.484375 74.765625 C 26.484375 74.015625 26.234375 73.765625 26.234375 73.515625 C 26.234375 72.515625 27.507012 72.538265 27.984375 73.015625 C 28.234375 73.265625 28.234375 73.735465 28.234375 74.265625 C 28.234375 77.015625 24.984375 74.765625 24.234375 74.015625 C 23.984375 74.765625 21.234375 77.557005 21.234375 74.515625 C 21.234375 73.765625 21.734375 72.515625 22.734375 72.515625 z M 48.734375 72.515625 C 49.234375 72.515625 50.484375 72.515625 51.234375 73.265625 C 51.484375 73.515625 52.484375 74.765625 52.484375 74.765625 C 52.484375 74.015625 52.234375 73.765625 52.234375 73.515625 C 52.234375 72.515625 53.507012 72.538265 53.984375 73.015625 C 54.234375 73.265625 54.234375 73.735465 54.234375 74.265625 C 54.234375 77.015625 50.984375 74.765625 50.234375 74.015625 C 49.984375 74.765625 47.234375 77.557005 47.234375 74.515625 C 47.234375 73.765625 47.734375 72.515625 48.734375 72.515625 z M 73.734375 72.515625 C 74.234375 72.515625 75.484375 72.515625 76.234375 73.265625 C 76.484375 73.515625 77.484375 74.765625 77.484375 74.765625 C 77.484375 74.015625 77.234375 73.765625 77.234375 73.515625 C 77.234375 72.515625 78.507012 72.538265 78.984375 73.015625 C 79.234375 73.265625 79.234375 73.735465 79.234375 74.265625 C 79.234375 77.015625 75.984375 74.765625 75.234375 74.015625 C 74.984375 74.765625 72.234375 77.557005 72.234375 74.515625 C 72.234375 73.765625 72.734375 72.515625 73.734375 72.515625 z M 99.734375 72.515625 C 100.23438 72.515625 101.48437 72.515625 102.23438 73.265625 C 102.48438 73.515625 103.48438 74.765625 103.48438 74.765625 C 103.48438 74.015625 103.23438 73.765625 103.23438 73.515625 C 103.23438 72.515625 104.507 72.538265 104.98438 73.015625 C 105.23438 73.265625 105.23438 73.735465 105.23438 74.265625 C 105.23438 77.015625 101.98438 74.765625 101.23438 74.015625 C 100.98438 74.765625 98.234375 77.557005 98.234375 74.515625 C 98.234375 73.765625 98.734375 72.515625 99.734375 72.515625 z M 24.484375 75.515625 C 24.916971 75.948225 25.384208 76.311185 25.851562 76.578125 L 25.072266 77.271484 L 23.970703 76.03125 C 24.238766 75.8183 24.432907 75.618565 24.484375 75.515625 z M 50.484375 75.515625 C 50.916971 75.948225 51.384208 76.311185 51.851562 76.578125 L 51.072266 77.271484 L 49.970703 76.03125 C 50.238766 75.8183 50.432907 75.618565 50.484375 75.515625 z M 75.484375 75.515625 C 75.916971 75.948225 76.384208 76.311185 76.851562 76.578125 L 76.072266 77.271484 L 74.970703 76.03125 C 75.238766 75.8183 75.432907 75.618565 75.484375 75.515625 z M 101.48438 75.515625 C 101.91697 75.948225 102.38421 76.311185 102.85156 76.578125 L 102.07227 77.271484 L 100.9707 76.03125 C 101.23877 75.8183 101.4329 75.618565 101.48438 75.515625 z M 3.984375 79.015625 A 1 0.5 0 0 0 2.984375 79.515625 A 1 0.5 0 0 0 3.984375 80.015625 A 1 0.5 0 0 0 4.984375 79.515625 A 1 0.5 0 0 0 3.984375 79.015625 z M 28.984375 79.015625 A 1 0.5 0 0 0 27.984375 79.515625 A 1 0.5 0 0 0 28.984375 80.015625 A 1 0.5 0 0 0 29.984375 79.515625 A 1 0.5 0 0 0 28.984375 79.015625 z M 54.984375 79.015625 A 1 0.5 0 0 0 53.984375 79.515625 A 1 0.5 0 0 0 54.984375 80.015625 A 1 0.5 0 0 0 55.984375 79.515625 A 1 0.5 0 0 0 54.984375 79.015625 z M 79.984375 79.015625 A 1 0.5 0 0 0 78.984375 79.515625 A 1 0.5 0 0 0 79.984375 80.015625 A 1 0.5 0 0 0 80.984375 79.515625 A 1 0.5 0 0 0 79.984375 79.015625 z M 105.98438 79.015625 A 1 0.5 0 0 0 104.98438 79.515625 A 1 0.5 0 0 0 105.98438 80.015625 A 1 0.5 0 0 0 106.98438 79.515625 A 1 0.5 0 0 0 105.98438 79.015625 z M 6.234375 79.265625 A 0.75 0.375 0 0 0 5.484375 79.640625 A 0.75 0.375 0 0 0 6.234375 80.015625 A 0.75 0.375 0 0 0 6.984375 79.640625 A 0.75 0.375 0 0 0 6.234375 79.265625 z M 31.234375 79.265625 A 0.75 0.375 0 0 0 30.484375 79.640625 A 0.75 0.375 0 0 0 31.234375 80.015625 A 0.75 0.375 0 0 0 31.984375 79.640625 A 0.75 0.375 0 0 0 31.234375 79.265625 z M 57.234375 79.265625 A 0.75 0.375 0 0 0 56.484375 79.640625 A 0.75 0.375 0 0 0 57.234375 80.015625 A 0.75 0.375 0 0 0 57.984375 79.640625 A 0.75 0.375 0 0 0 57.234375 79.265625 z M 82.234375 79.265625 A 0.75 0.375 0 0 0 81.484375 79.640625 A 0.75 0.375 0 0 0 82.234375 80.015625 A 0.75 0.375 0 0 0 82.984375 79.640625 A 0.75 0.375 0 0 0 82.234375 79.265625 z M 108.23438 79.265625 A 0.75 0.375 0 0 0 107.48438 79.640625 A 0.75 0.375 0 0 0 108.23438 80.015625 A 0.75 0.375 0 0 0 108.98438 79.640625 A 0.75 0.375 0 0 0 108.23438 79.265625 z M 9.984375 85.015625 C 8.971102 85.015625 7.734375 85.843765 7.734375 87.515625 C 7.734375 89.792975 8.7395595 90.061497 9.7109375 89.742188 L 10.9375 90.96875 C 10.793125 91.75354 10.309375 92.809375 9.484375 93.015625 L 14.484375 93.015625 C 13.579281 92.789355 13.085899 91.54137 13 90.75 L 13.775391 89.974609 C 15.109546 90.354529 16.234375 89.754165 16.234375 87.515625 C 16.234375 84.765625 13.234375 84.765625 12.484375 85.765625 C 11.700275 85.275565 10.984375 85.015625 9.984375 85.015625 z M 35.984375 85.015625 C 34.971102 85.015625 33.734375 85.843765 33.734375 87.515625 C 33.734375 89.792975 34.739559 90.061497 35.710938 89.742188 L 36.9375 90.96875 C 36.793125 91.75354 36.309375 92.809375 35.484375 93.015625 L 40.484375 93.015625 C 39.579281 92.789355 39.085899 91.54137 39 90.75 L 39.775391 89.974609 C 41.109546 90.354529 42.234375 89.754165 42.234375 87.515625 C 42.234375 84.765625 39.234375 84.765625 38.484375 85.765625 C 37.700275 85.275565 36.984375 85.015625 35.984375 85.015625 z M 61.984375 85.015625 C 60.971102 85.015625 59.734375 85.843765 59.734375 87.515625 C 59.734375 89.792975 60.739559 90.061497 61.710938 89.742188 L 62.9375 90.96875 C 62.793125 91.75354 62.309375 92.809375 61.484375 93.015625 L 66.484375 93.015625 C 65.579281 92.789355 65.085899 91.54137 65 90.75 L 65.775391 89.974609 C 67.109546 90.354529 68.234375 89.754165 68.234375 87.515625 C 68.234375 84.765625 65.234375 84.765625 64.484375 85.765625 C 63.700275 85.275565 62.984375 85.015625 61.984375 85.015625 z M 86.984375 85.015625 C 85.971102 85.015625 84.734375 85.843765 84.734375 87.515625 C 84.734375 89.792975 85.739559 90.061497 86.710938 89.742188 L 87.9375 90.96875 C 87.793125 91.75354 87.309375 92.809375 86.484375 93.015625 L 91.484375 93.015625 C 90.579281 92.789355 90.085899 91.54137 90 90.75 L 90.775391 89.974609 C 92.109546 90.354529 93.234375 89.754165 93.234375 87.515625 C 93.234375 84.765625 90.234375 84.765625 89.484375 85.765625 C 88.700275 85.275565 87.984375 85.015625 86.984375 85.015625 z M 112.98438 85.015625 C 111.9711 85.015625 110.73437 85.843765 110.73438 87.515625 C 110.73438 89.792975 111.73956 90.061497 112.71094 89.742188 L 113.9375 90.96875 C 113.79313 91.75354 113.30937 92.809375 112.48438 93.015625 L 117.48438 93.015625 C 116.57927 92.789355 116.0859 91.54137 116 90.75 L 116.77539 89.974609 C 118.10954 90.354529 119.23437 89.754165 119.23438 87.515625 C 119.23438 84.765625 116.23438 84.765625 115.48438 85.765625 C 114.70028 85.275565 113.98438 85.015625 112.98438 85.015625 z M 9.734375 85.515625 C 10.234375 85.515625 11.484375 85.515625 12.234375 86.265625 C 12.484375 86.515625 13.484375 87.765625 13.484375 87.765625 C 13.484375 87.015625 13.234375 86.765625 13.234375 86.515625 C 13.234375 85.515625 14.507012 85.538265 14.984375 86.015625 C 15.234375 86.265625 15.234375 86.735465 15.234375 87.265625 C 15.234375 90.015625 11.984375 87.765625 11.234375 87.015625 C 10.984375 87.765625 8.234375 90.557005 8.234375 87.515625 C 8.234375 86.765625 8.734375 85.515625 9.734375 85.515625 z M 35.734375 85.515625 C 36.234375 85.515625 37.484375 85.515625 38.234375 86.265625 C 38.484375 86.515625 39.484375 87.765625 39.484375 87.765625 C 39.484375 87.015625 39.234375 86.765625 39.234375 86.515625 C 39.234375 85.515625 40.507012 85.538265 40.984375 86.015625 C 41.234375 86.265625 41.234375 86.735465 41.234375 87.265625 C 41.234375 90.015625 37.984375 87.765625 37.234375 87.015625 C 36.984375 87.765625 34.234375 90.557005 34.234375 87.515625 C 34.234375 86.765625 34.734375 85.515625 35.734375 85.515625 z M 61.734375 85.515625 C 62.234375 85.515625 63.484375 85.515625 64.234375 86.265625 C 64.484375 86.515625 65.484375 87.765625 65.484375 87.765625 C 65.484375 87.015625 65.234375 86.765625 65.234375 86.515625 C 65.234375 85.515625 66.507012 85.538265 66.984375 86.015625 C 67.234375 86.265625 67.234375 86.735465 67.234375 87.265625 C 67.234375 90.015625 63.984375 87.765625 63.234375 87.015625 C 62.984375 87.765625 60.234375 90.557005 60.234375 87.515625 C 60.234375 86.765625 60.734375 85.515625 61.734375 85.515625 z M 86.734375 85.515625 C 87.234375 85.515625 88.484375 85.515625 89.234375 86.265625 C 89.484375 86.515625 90.484375 87.765625 90.484375 87.765625 C 90.484375 87.015625 90.234375 86.765625 90.234375 86.515625 C 90.234375 85.515625 91.507012 85.538265 91.984375 86.015625 C 92.234375 86.265625 92.234375 86.735465 92.234375 87.265625 C 92.234375 90.015625 88.984375 87.765625 88.234375 87.015625 C 87.984375 87.765625 85.234375 90.557005 85.234375 87.515625 C 85.234375 86.765625 85.734375 85.515625 86.734375 85.515625 z M 112.73438 85.515625 C 113.23438 85.515625 114.48438 85.515625 115.23438 86.265625 C 115.48438 86.515625 116.48438 87.765625 116.48438 87.765625 C 116.48438 87.015625 116.23438 86.765625 116.23438 86.515625 C 116.23438 85.515625 117.507 85.538265 117.98438 86.015625 C 118.23438 86.265625 118.23438 86.735465 118.23438 87.265625 C 118.23438 90.015625 114.98438 87.765625 114.23438 87.015625 C 113.98438 87.765625 111.23438 90.557005 111.23438 87.515625 C 111.23438 86.765625 111.73438 85.515625 112.73438 85.515625 z M 11.484375 88.515625 C 11.916971 88.948225 12.384208 89.311185 12.851562 89.578125 L 12.072266 90.271484 L 10.970703 89.03125 C 11.238766 88.8183 11.432907 88.618565 11.484375 88.515625 z M 37.484375 88.515625 C 37.916971 88.948225 38.384208 89.311185 38.851562 89.578125 L 38.072266 90.271484 L 36.970703 89.03125 C 37.238766 88.8183 37.432907 88.618565 37.484375 88.515625 z M 63.484375 88.515625 C 63.916971 88.948225 64.384208 89.311185 64.851562 89.578125 L 64.072266 90.271484 L 62.970703 89.03125 C 63.238766 88.8183 63.432907 88.618565 63.484375 88.515625 z M 88.484375 88.515625 C 88.916971 88.948225 89.384207 89.311185 89.851562 89.578125 L 89.072266 90.271484 L 87.970703 89.03125 C 88.238766 88.8183 88.432907 88.618565 88.484375 88.515625 z M 114.48438 88.515625 C 114.91697 88.948225 115.38421 89.311185 115.85156 89.578125 L 115.07227 90.271484 L 113.9707 89.03125 C 114.23877 88.8183 114.4329 88.618565 114.48438 88.515625 z M 15.984375 92.015625 A 1 0.5 0 0 0 14.984375 92.515625 A 1 0.5 0 0 0 15.984375 93.015625 A 1 0.5 0 0 0 16.984375 92.515625 A 1 0.5 0 0 0 15.984375 92.015625 z M 41.984375 92.015625 A 1 0.5 0 0 0 40.984375 92.515625 A 1 0.5 0 0 0 41.984375 93.015625 A 1 0.5 0 0 0 42.984375 92.515625 A 1 0.5 0 0 0 41.984375 92.015625 z M 67.984375 92.015625 A 1 0.5 0 0 0 66.984375 92.515625 A 1 0.5 0 0 0 67.984375 93.015625 A 1 0.5 0 0 0 68.984375 92.515625 A 1 0.5 0 0 0 67.984375 92.015625 z M 92.984375 92.015625 A 1 0.5 0 0 0 91.984375 92.515625 A 1 0.5 0 0 0 92.984375 93.015625 A 1 0.5 0 0 0 93.984375 92.515625 A 1 0.5 0 0 0 92.984375 92.015625 z M 118.98438 92.015625 A 1 0.5 0 0 0 117.98438 92.515625 A 1 0.5 0 0 0 118.98438 93.015625 A 1 0.5 0 0 0 119.98438 92.515625 A 1 0.5 0 0 0 118.98438 92.015625 z M 18.234375 92.265625 A 0.75 0.375 0 0 0 17.484375 92.640625 A 0.75 0.375 0 0 0 18.234375 93.015625 A 0.75 0.375 0 0 0 18.984375 92.640625 A 0.75 0.375 0 0 0 18.234375 92.265625 z M 44.234375 92.265625 A 0.75 0.375 0 0 0 43.484375 92.640625 A 0.75 0.375 0 0 0 44.234375 93.015625 A 0.75 0.375 0 0 0 44.984375 92.640625 A 0.75 0.375 0 0 0 44.234375 92.265625 z M 70.234375 92.265625 A 0.75 0.375 0 0 0 69.484375 92.640625 A 0.75 0.375 0 0 0 70.234375 93.015625 A 0.75 0.375 0 0 0 70.984375 92.640625 A 0.75 0.375 0 0 0 70.234375 92.265625 z M 95.234375 92.265625 A 0.75 0.375 0 0 0 94.484375 92.640625 A 0.75 0.375 0 0 0 95.234375 93.015625 A 0.75 0.375 0 0 0 95.984375 92.640625 A 0.75 0.375 0 0 0 95.234375 92.265625 z M 121.23438 92.265625 A 0.75 0.375 0 0 0 120.48438 92.640625 A 0.75 0.375 0 0 0 121.23438 93.015625 A 0.75 0.375 0 0 0 121.98438 92.640625 A 0.75 0.375 0 0 0 121.23438 92.265625 z M 22.984375 98.015625 C 21.971102 98.015625 20.734375 98.843765 20.734375 100.51562 C 20.734375 102.79297 21.739559 103.0615 22.710938 102.74219 L 23.9375 103.96875 C 23.793125 104.75354 23.309375 105.80937 22.484375 106.01562 L 27.484375 106.01562 C 26.579281 105.78936 26.085899 104.54137 26 103.75 L 26.775391 102.97461 C 28.109546 103.35453 29.234375 102.75417 29.234375 100.51562 C 29.234375 97.765625 26.234375 97.765625 25.484375 98.765625 C 24.700275 98.275565 23.984375 98.015625 22.984375 98.015625 z M 48.984375 98.015625 C 47.971102 98.015625 46.734375 98.843765 46.734375 100.51562 C 46.734375 102.79297 47.739559 103.0615 48.710938 102.74219 L 49.9375 103.96875 C 49.793125 104.75354 49.309375 105.80937 48.484375 106.01562 L 53.484375 106.01562 C 52.579281 105.78936 52.085899 104.54137 52 103.75 L 52.775391 102.97461 C 54.109546 103.35453 55.234375 102.75417 55.234375 100.51562 C 55.234375 97.765625 52.234375 97.765625 51.484375 98.765625 C 50.700275 98.275565 49.984375 98.015625 48.984375 98.015625 z M 73.984375 98.015625 C 72.971102 98.015625 71.734375 98.843765 71.734375 100.51562 C 71.734375 102.79297 72.739559 103.0615 73.710938 102.74219 L 74.9375 103.96875 C 74.793125 104.75354 74.309375 105.80938 73.484375 106.01562 L 78.484375 106.01562 C 77.579281 105.78935 77.085899 104.54137 77 103.75 L 77.775391 102.97461 C 79.109546 103.35453 80.234375 102.75417 80.234375 100.51562 C 80.234375 97.765625 77.234375 97.765625 76.484375 98.765625 C 75.700275 98.275565 74.984375 98.015625 73.984375 98.015625 z M 99.984375 98.015625 C 98.971102 98.015625 97.734375 98.843765 97.734375 100.51562 C 97.734375 102.79297 98.739559 103.0615 99.710938 102.74219 L 100.9375 103.96875 C 100.79313 104.75354 100.30938 105.80937 99.484375 106.01562 L 104.48438 106.01562 C 103.57927 105.78936 103.0859 104.54137 103 103.75 L 103.77539 102.97461 C 105.10954 103.35453 106.23437 102.75417 106.23438 100.51562 C 106.23438 97.765625 103.23438 97.765625 102.48438 98.765625 C 101.70028 98.275565 100.98438 98.015625 99.984375 98.015625 z M 125.98438 98.015625 C 124.9711 98.015625 123.73438 98.843765 123.73438 100.51562 C 123.73438 102.79297 124.73956 103.0615 125.71094 102.74219 L 126.9375 103.96875 C 126.79313 104.75354 126.30937 105.80937 125.48438 106.01562 L 128 106.01562 L 128 103.18945 L 126.9707 102.03125 C 127.23877 101.8183 127.4329 101.61857 127.48438 101.51562 C 127.64747 101.67873 127.8289 101.77413 128 101.91602 L 128 100.61914 C 127.68917 100.39728 127.38686 100.16811 127.23438 100.01562 C 126.98438 100.76562 124.23438 103.55701 124.23438 100.51562 C 124.23438 99.765625 124.73438 98.515625 125.73438 98.515625 C 126.18831 98.515625 127.24509 98.544241 128 99.105469 L 128 98.535156 C 127.38854 98.223007 126.7775 98.015625 125.98438 98.015625 z M 2 98.154297 C 1.362793 98.155762 0.765625 98.390625 0.484375 98.765625 C 0.32216165 98.664242 0.15949492 98.616577 0 98.535156 L 0 99.105469 C 0.076603636 99.162418 0.16528108 99.196531 0.234375 99.265625 C 0.484375 99.515625 1.484375 100.76562 1.484375 100.76562 C 1.484375 100.01562 1.234375 99.765625 1.234375 99.515625 C 1.234375 98.515625 2.507012 98.538265 2.984375 99.015625 C 3.234375 99.265625 3.234375 99.735465 3.234375 100.26562 C 3.234375 102.45653 1.2180374 101.48853 0 100.61914 L 0 101.91602 C 0.28271044 102.15046 0.56041349 102.41183 0.8515625 102.57812 L 0.072265625 103.27148 L 0 103.18945 L 0 106.01562 L 2.484375 106.01562 C 1.579281 105.78936 1.085899 104.54137 1 103.75 L 1.7753906 102.97461 C 3.1095456 103.35453 4.234375 102.75417 4.234375 100.51562 C 4.234375 98.796875 3.0620117 98.151855 2 98.154297 z M 22.734375 98.515625 C 23.234375 98.515625 24.484375 98.515625 25.234375 99.265625 C 25.484375 99.515625 26.484375 100.76562 26.484375 100.76562 C 26.484375 100.01562 26.234375 99.765625 26.234375 99.515625 C 26.234375 98.515625 27.507012 98.538265 27.984375 99.015625 C 28.234375 99.265625 28.234375 99.735465 28.234375 100.26562 C 28.234375 103.01562 24.984375 100.76562 24.234375 100.01562 C 23.984375 100.76562 21.234375 103.55701 21.234375 100.51562 C 21.234375 99.765625 21.734375 98.515625 22.734375 98.515625 z M 48.734375 98.515625 C 49.234375 98.515625 50.484375 98.515625 51.234375 99.265625 C 51.484375 99.515625 52.484375 100.76562 52.484375 100.76562 C 52.484375 100.01562 52.234375 99.765625 52.234375 99.515625 C 52.234375 98.515625 53.507012 98.538265 53.984375 99.015625 C 54.234375 99.265625 54.234375 99.735465 54.234375 100.26562 C 54.234375 103.01562 50.984375 100.76562 50.234375 100.01562 C 49.984375 100.76562 47.234375 103.55701 47.234375 100.51562 C 47.234375 99.765625 47.734375 98.515625 48.734375 98.515625 z M 73.734375 98.515625 C 74.234375 98.515625 75.484375 98.515625 76.234375 99.265625 C 76.484375 99.515625 77.484375 100.76562 77.484375 100.76562 C 77.484375 100.01562 77.234375 99.765625 77.234375 99.515625 C 77.234375 98.515625 78.507012 98.538265 78.984375 99.015625 C 79.234375 99.265625 79.234375 99.735465 79.234375 100.26562 C 79.234375 103.01562 75.984375 100.76562 75.234375 100.01562 C 74.984375 100.76562 72.234375 103.55701 72.234375 100.51562 C 72.234375 99.765625 72.734375 98.515625 73.734375 98.515625 z M 99.734375 98.515625 C 100.23438 98.515625 101.48437 98.515625 102.23438 99.265625 C 102.48438 99.515625 103.48438 100.76562 103.48438 100.76562 C 103.48438 100.01562 103.23438 99.765625 103.23438 99.515625 C 103.23438 98.515625 104.50701 98.538265 104.98438 99.015625 C 105.23438 99.265625 105.23438 99.735465 105.23438 100.26562 C 105.23438 103.01562 101.98438 100.76562 101.23438 100.01562 C 100.98438 100.76562 98.234375 103.55701 98.234375 100.51562 C 98.234375 99.765625 98.734375 98.515625 99.734375 98.515625 z M 24.484375 101.51562 C 24.916971 101.94822 25.384208 102.31119 25.851562 102.57812 L 25.072266 103.27148 L 23.970703 102.03125 C 24.238766 101.8183 24.432907 101.61857 24.484375 101.51562 z M 50.484375 101.51562 C 50.916971 101.94822 51.384208 102.31119 51.851562 102.57812 L 51.072266 103.27148 L 49.970703 102.03125 C 50.238766 101.8183 50.432907 101.61857 50.484375 101.51562 z M 75.484375 101.51562 C 75.916971 101.94822 76.384208 102.31118 76.851562 102.57812 L 76.072266 103.27148 L 74.970703 102.03125 C 75.238766 101.8183 75.432907 101.61856 75.484375 101.51562 z M 101.48438 101.51562 C 101.91697 101.94822 102.38421 102.31119 102.85156 102.57812 L 102.07227 103.27148 L 100.9707 102.03125 C 101.23877 101.8183 101.4329 101.61857 101.48438 101.51562 z M 3.984375 105.01562 A 1 0.5 0 0 0 2.984375 105.51562 A 1 0.5 0 0 0 3.984375 106.01562 A 1 0.5 0 0 0 4.984375 105.51562 A 1 0.5 0 0 0 3.984375 105.01562 z M 28.984375 105.01562 A 1 0.5 0 0 0 27.984375 105.51562 A 1 0.5 0 0 0 28.984375 106.01562 A 1 0.5 0 0 0 29.984375 105.51562 A 1 0.5 0 0 0 28.984375 105.01562 z M 54.984375 105.01562 A 1 0.5 0 0 0 53.984375 105.51562 A 1 0.5 0 0 0 54.984375 106.01562 A 1 0.5 0 0 0 55.984375 105.51562 A 1 0.5 0 0 0 54.984375 105.01562 z M 79.984375 105.01562 A 1 0.5 0 0 0 78.984375 105.51562 A 1 0.5 0 0 0 79.984375 106.01562 A 1 0.5 0 0 0 80.984375 105.51562 A 1 0.5 0 0 0 79.984375 105.01562 z M 105.98438 105.01562 A 1 0.5 0 0 0 104.98438 105.51562 A 1 0.5 0 0 0 105.98438 106.01562 A 1 0.5 0 0 0 106.98438 105.51562 A 1 0.5 0 0 0 105.98438 105.01562 z M 6.234375 105.26562 A 0.75 0.375 0 0 0 5.484375 105.64062 A 0.75 0.375 0 0 0 6.234375 106.01562 A 0.75 0.375 0 0 0 6.984375 105.64062 A 0.75 0.375 0 0 0 6.234375 105.26562 z M 31.234375 105.26562 A 0.75 0.375 0 0 0 30.484375 105.64062 A 0.75 0.375 0 0 0 31.234375 106.01562 A 0.75 0.375 0 0 0 31.984375 105.64062 A 0.75 0.375 0 0 0 31.234375 105.26562 z M 57.234375 105.26562 A 0.75 0.375 0 0 0 56.484375 105.64062 A 0.75 0.375 0 0 0 57.234375 106.01562 A 0.75 0.375 0 0 0 57.984375 105.64062 A 0.75 0.375 0 0 0 57.234375 105.26562 z M 82.234375 105.26562 A 0.75 0.375 0 0 0 81.484375 105.64062 A 0.75 0.375 0 0 0 82.234375 106.01562 A 0.75 0.375 0 0 0 82.984375 105.64062 A 0.75 0.375 0 0 0 82.234375 105.26562 z M 108.23438 105.26562 A 0.75 0.375 0 0 0 107.48438 105.64062 A 0.75 0.375 0 0 0 108.23438 106.01562 A 0.75 0.375 0 0 0 108.98438 105.64062 A 0.75 0.375 0 0 0 108.23438 105.26562 z M 9.984375 111.01562 C 8.971102 111.01562 7.734375 111.84377 7.734375 113.51562 C 7.734375 115.79297 8.7395595 116.0615 9.7109375 115.74219 L 10.9375 116.96875 C 10.793125 117.75354 10.309375 118.80937 9.484375 119.01562 L 14.484375 119.01562 C 13.579281 118.78936 13.085899 117.54137 13 116.75 L 13.775391 115.97461 C 15.109546 116.35453 16.234375 115.75417 16.234375 113.51562 C 16.234375 110.76562 13.234375 110.76562 12.484375 111.76562 C 11.700275 111.27557 10.984375 111.01563 9.984375 111.01562 z M 35.984375 111.01562 C 34.971102 111.01562 33.734375 111.84377 33.734375 113.51562 C 33.734375 115.79297 34.739559 116.0615 35.710938 115.74219 L 36.9375 116.96875 C 36.793125 117.75354 36.309375 118.80937 35.484375 119.01562 L 40.484375 119.01562 C 39.579281 118.78936 39.085899 117.54137 39 116.75 L 39.775391 115.97461 C 41.109546 116.35453 42.234375 115.75417 42.234375 113.51562 C 42.234375 110.76562 39.234375 110.76562 38.484375 111.76562 C 37.700275 111.27557 36.984375 111.01563 35.984375 111.01562 z M 61.984375 111.01562 C 60.971102 111.01562 59.734375 111.84377 59.734375 113.51562 C 59.734375 115.79297 60.739559 116.0615 61.710938 115.74219 L 62.9375 116.96875 C 62.793125 117.75354 62.309375 118.80937 61.484375 119.01562 L 66.484375 119.01562 C 65.579281 118.78936 65.085899 117.54137 65 116.75 L 65.775391 115.97461 C 67.109546 116.35453 68.234375 115.75417 68.234375 113.51562 C 68.234375 110.76562 65.234375 110.76562 64.484375 111.76562 C 63.700275 111.27557 62.984375 111.01563 61.984375 111.01562 z M 86.984375 111.01562 C 85.971102 111.01562 84.734375 111.84377 84.734375 113.51562 C 84.734375 115.79297 85.739559 116.0615 86.710938 115.74219 L 87.9375 116.96875 C 87.793125 117.75354 87.309375 118.80937 86.484375 119.01562 L 91.484375 119.01562 C 90.579281 118.78936 90.085899 117.54137 90 116.75 L 90.775391 115.97461 C 92.109546 116.35453 93.234375 115.75417 93.234375 113.51562 C 93.234375 110.76562 90.234375 110.76562 89.484375 111.76562 C 88.700275 111.27557 87.984375 111.01563 86.984375 111.01562 z M 112.98438 111.01562 C 111.9711 111.01562 110.73438 111.84377 110.73438 113.51562 C 110.73438 115.79297 111.73956 116.0615 112.71094 115.74219 L 113.9375 116.96875 C 113.79313 117.75354 113.30937 118.80937 112.48438 119.01562 L 117.48438 119.01562 C 116.57927 118.78936 116.0859 117.54137 116 116.75 L 116.77539 115.97461 C 118.10954 116.35453 119.23437 115.75417 119.23438 113.51562 C 119.23438 110.76562 116.23438 110.76562 115.48438 111.76562 C 114.70028 111.27557 113.98437 111.01563 112.98438 111.01562 z M 9.734375 111.51562 C 10.234375 111.51562 11.484375 111.51562 12.234375 112.26562 C 12.484375 112.51562 13.484375 113.76562 13.484375 113.76562 C 13.484375 113.01562 13.234375 112.76562 13.234375 112.51562 C 13.234375 111.51562 14.507012 111.53827 14.984375 112.01562 C 15.234375 112.26562 15.234375 112.73546 15.234375 113.26562 C 15.234375 116.01562 11.984375 113.76562 11.234375 113.01562 C 10.984375 113.76562 8.234375 116.55701 8.234375 113.51562 C 8.234375 112.76562 8.734375 111.51562 9.734375 111.51562 z M 35.734375 111.51562 C 36.234375 111.51562 37.484375 111.51562 38.234375 112.26562 C 38.484375 112.51562 39.484375 113.76562 39.484375 113.76562 C 39.484375 113.01562 39.234375 112.76562 39.234375 112.51562 C 39.234375 111.51562 40.507012 111.53827 40.984375 112.01562 C 41.234375 112.26562 41.234375 112.73546 41.234375 113.26562 C 41.234375 116.01562 37.984375 113.76562 37.234375 113.01562 C 36.984375 113.76562 34.234375 116.55701 34.234375 113.51562 C 34.234375 112.76562 34.734375 111.51562 35.734375 111.51562 z M 61.734375 111.51562 C 62.234375 111.51562 63.484375 111.51562 64.234375 112.26562 C 64.484375 112.51562 65.484375 113.76562 65.484375 113.76562 C 65.484375 113.01562 65.234375 112.76562 65.234375 112.51562 C 65.234375 111.51562 66.507012 111.53827 66.984375 112.01562 C 67.234375 112.26562 67.234375 112.73546 67.234375 113.26562 C 67.234375 116.01562 63.984375 113.76562 63.234375 113.01562 C 62.984375 113.76562 60.234375 116.55701 60.234375 113.51562 C 60.234375 112.76562 60.734375 111.51562 61.734375 111.51562 z M 86.734375 111.51562 C 87.234375 111.51562 88.484375 111.51562 89.234375 112.26562 C 89.484375 112.51562 90.484375 113.76562 90.484375 113.76562 C 90.484375 113.01562 90.234375 112.76562 90.234375 112.51562 C 90.234375 111.51562 91.507012 111.53827 91.984375 112.01562 C 92.234375 112.26562 92.234375 112.73546 92.234375 113.26562 C 92.234375 116.01562 88.984375 113.76562 88.234375 113.01562 C 87.984375 113.76562 85.234375 116.55701 85.234375 113.51562 C 85.234375 112.76562 85.734375 111.51562 86.734375 111.51562 z M 112.73438 111.51562 C 113.23438 111.51562 114.48438 111.51562 115.23438 112.26562 C 115.48438 112.51562 116.48438 113.76562 116.48438 113.76562 C 116.48438 113.01562 116.23438 112.76562 116.23438 112.51562 C 116.23438 111.51562 117.50701 111.53827 117.98438 112.01562 C 118.23438 112.26562 118.23438 112.73546 118.23438 113.26562 C 118.23438 116.01562 114.98438 113.76562 114.23438 113.01562 C 113.98438 113.76562 111.23438 116.55701 111.23438 113.51562 C 111.23438 112.76562 111.73438 111.51562 112.73438 111.51562 z M 11.484375 114.51562 C 11.916971 114.94822 12.384208 115.31119 12.851562 115.57812 L 12.072266 116.27148 L 10.970703 115.03125 C 11.238766 114.8183 11.432907 114.61857 11.484375 114.51562 z M 37.484375 114.51562 C 37.916971 114.94822 38.384208 115.31119 38.851562 115.57812 L 38.072266 116.27148 L 36.970703 115.03125 C 37.238766 114.8183 37.432907 114.61857 37.484375 114.51562 z M 63.484375 114.51562 C 63.916971 114.94822 64.384208 115.31119 64.851562 115.57812 L 64.072266 116.27148 L 62.970703 115.03125 C 63.238766 114.8183 63.432907 114.61857 63.484375 114.51562 z M 88.484375 114.51562 C 88.916971 114.94822 89.384207 115.31119 89.851562 115.57812 L 89.072266 116.27148 L 87.970703 115.03125 C 88.238766 114.8183 88.432907 114.61857 88.484375 114.51562 z M 114.48438 114.51562 C 114.91697 114.94822 115.38421 115.31119 115.85156 115.57812 L 115.07227 116.27148 L 113.9707 115.03125 C 114.23877 114.8183 114.4329 114.61857 114.48438 114.51562 z M 15.984375 118.01562 A 1 0.5 0 0 0 14.984375 118.51562 A 1 0.5 0 0 0 15.984375 119.01562 A 1 0.5 0 0 0 16.984375 118.51562 A 1 0.5 0 0 0 15.984375 118.01562 z M 41.984375 118.01562 A 1 0.5 0 0 0 40.984375 118.51562 A 1 0.5 0 0 0 41.984375 119.01562 A 1 0.5 0 0 0 42.984375 118.51562 A 1 0.5 0 0 0 41.984375 118.01562 z M 67.984375 118.01562 A 1 0.5 0 0 0 66.984375 118.51562 A 1 0.5 0 0 0 67.984375 119.01562 A 1 0.5 0 0 0 68.984375 118.51562 A 1 0.5 0 0 0 67.984375 118.01562 z M 92.984375 118.01562 A 1 0.5 0 0 0 91.984375 118.51562 A 1 0.5 0 0 0 92.984375 119.01562 A 1 0.5 0 0 0 93.984375 118.51562 A 1 0.5 0 0 0 92.984375 118.01562 z M 118.98438 118.01562 A 1 0.5 0 0 0 117.98438 118.51562 A 1 0.5 0 0 0 118.98438 119.01562 A 1 0.5 0 0 0 119.98438 118.51562 A 1 0.5 0 0 0 118.98438 118.01562 z M 18.234375 118.26562 A 0.75 0.375 0 0 0 17.484375 118.64062 A 0.75 0.375 0 0 0 18.234375 119.01562 A 0.75 0.375 0 0 0 18.984375 118.64062 A 0.75 0.375 0 0 0 18.234375 118.26562 z M 44.234375 118.26562 A 0.75 0.375 0 0 0 43.484375 118.64062 A 0.75 0.375 0 0 0 44.234375 119.01562 A 0.75 0.375 0 0 0 44.984375 118.64062 A 0.75 0.375 0 0 0 44.234375 118.26562 z M 70.234375 118.26562 A 0.75 0.375 0 0 0 69.484375 118.64062 A 0.75 0.375 0 0 0 70.234375 119.01562 A 0.75 0.375 0 0 0 70.984375 118.64062 A 0.75 0.375 0 0 0 70.234375 118.26562 z M 95.234375 118.26562 A 0.75 0.375 0 0 0 94.484375 118.64062 A 0.75 0.375 0 0 0 95.234375 119.01562 A 0.75 0.375 0 0 0 95.984375 118.64062 A 0.75 0.375 0 0 0 95.234375 118.26562 z M 121.23438 118.26562 A 0.75 0.375 0 0 0 120.48438 118.64062 A 0.75 0.375 0 0 0 121.23438 119.01562 A 0.75 0.375 0 0 0 121.98438 118.64062 A 0.75 0.375 0 0 0 121.23438 118.26562 z M 22.984375 124.01562 C 21.971102 124.01562 20.734375 124.84377 20.734375 126.51562 C 20.734375 127.1863 20.838507 127.64148 20.986328 128 L 24.001953 128 C 24.245069 127.80178 24.436032 127.61231 24.484375 127.51562 C 24.681543 127.71279 24.899131 127.83426 25.107422 128 L 28.988281 128 C 29.140986 127.61758 29.234375 127.13472 29.234375 126.51562 C 29.234375 123.76562 26.234375 123.76562 25.484375 124.76562 C 24.700275 124.27557 23.984375 124.01563 22.984375 124.01562 z M 48.984375 124.01562 C 47.971102 124.01562 46.734375 124.84377 46.734375 126.51562 C 46.734375 127.1863 46.838507 127.64148 46.986328 128 L 50.001953 128 C 50.245069 127.80178 50.436032 127.61231 50.484375 127.51562 C 50.681543 127.71279 50.899131 127.83426 51.107422 128 L 54.988281 128 C 55.140986 127.61758 55.234375 127.13472 55.234375 126.51562 C 55.234375 123.76562 52.234375 123.76562 51.484375 124.76562 C 50.700275 124.27557 49.984375 124.01563 48.984375 124.01562 z M 73.984375 124.01562 C 72.971102 124.01562 71.734375 124.84377 71.734375 126.51562 C 71.734375 127.1863 71.838507 127.64148 71.986328 128 L 75.001953 128 C 75.245069 127.80178 75.436032 127.61231 75.484375 127.51562 C 75.681543 127.71279 75.899131 127.83426 76.107422 128 L 79.988281 128 C 80.140986 127.61758 80.234375 127.13472 80.234375 126.51562 C 80.234375 123.76562 77.234375 123.76562 76.484375 124.76562 C 75.700275 124.27557 74.984375 124.01563 73.984375 124.01562 z M 99.984375 124.01562 C 98.971102 124.01562 97.734375 124.84377 97.734375 126.51562 C 97.734375 127.1863 97.838507 127.64148 97.986328 128 L 101.00195 128 C 101.24507 127.80178 101.43603 127.61231 101.48438 127.51562 C 101.68154 127.71279 101.89913 127.83426 102.10742 128 L 105.98828 128 C 106.14099 127.61758 106.23438 127.13472 106.23438 126.51562 C 106.23438 123.76562 103.23438 123.76562 102.48438 124.76562 C 101.70028 124.27557 100.98438 124.01563 99.984375 124.01562 z M 125.98438 124.01562 C 125.22442 124.01562 124.33868 124.48169 123.94336 125.41992 C 123.81158 125.73267 123.73438 126.09766 123.73438 126.51562 C 123.73438 127.1863 123.83851 127.64148 123.98633 128 L 127.00195 128 C 127.24507 127.80178 127.43603 127.61231 127.48438 127.51562 C 127.64747 127.67873 127.8289 127.77413 128 127.91602 L 128 126.61914 C 127.68917 126.39728 127.38686 126.16811 127.23438 126.01562 C 127.01562 126.67188 124.8833 128.89138 124.35352 127.39844 C 124.27783 127.18516 124.23438 126.8958 124.23438 126.51562 C 124.23438 126.32812 124.26562 126.10938 124.32812 125.88672 C 124.51562 125.21875 124.98438 124.51562 125.73438 124.51562 C 126.18831 124.51562 127.24509 124.54424 128 125.10547 L 128 124.53516 C 127.38854 124.22301 126.7775 124.01563 125.98438 124.01562 z M 2 124.1543 C 1.362793 124.15576 0.765625 124.39062 0.484375 124.76562 C 0.32216165 124.66424 0.15949492 124.61658 0 124.53516 L 0 125.10547 C 0.076603636 125.16242 0.16528108 125.19653 0.234375 125.26562 C 0.484375 125.51562 1.484375 126.76562 1.484375 126.76562 C 1.484375 126.01562 1.234375 125.76562 1.234375 125.51562 C 1.234375 124.51562 2.507012 124.53827 2.984375 125.01562 C 3.234375 125.26562 3.234375 125.73546 3.234375 126.26562 C 3.234375 128.45653 1.2180374 127.48853 0 126.61914 L 0 127.91602 C 0.03573722 127.94565 0.071433305 127.97136 0.10742188 128 L 3.9882812 128 C 4.1409859 127.61758 4.234375 127.13472 4.234375 126.51562 C 4.234375 124.79688 3.0620117 124.15186 2 124.1543 z M 22.734375 124.51562 C 23.234375 124.51562 24.484375 124.51562 25.234375 125.26562 C 25.484375 125.51562 26.484375 126.76562 26.484375 126.76562 C 26.484375 126.01562 26.234375 125.76562 26.234375 125.51562 C 26.234375 124.51562 27.507012 124.53827 27.984375 125.01562 C 28.234375 125.26562 28.234375 125.73546 28.234375 126.26562 C 28.234375 129.01562 24.984375 126.76562 24.234375 126.01562 C 23.984375 126.76562 21.234375 129.55701 21.234375 126.51562 C 21.234375 125.76562 21.734375 124.51562 22.734375 124.51562 z M 48.734375 124.51562 C 49.234375 124.51562 50.484375 124.51562 51.234375 125.26562 C 51.484375 125.51562 52.484375 126.76562 52.484375 126.76562 C 52.484375 126.01562 52.234375 125.76562 52.234375 125.51562 C 52.234375 124.51562 53.507012 124.53827 53.984375 125.01562 C 54.234375 125.26562 54.234375 125.73546 54.234375 126.26562 C 54.234375 129.01562 50.984375 126.76562 50.234375 126.01562 C 49.984375 126.76562 47.234375 129.55701 47.234375 126.51562 C 47.234375 125.76562 47.734375 124.51562 48.734375 124.51562 z M 73.734375 124.51562 C 74.234375 124.51562 75.484375 124.51562 76.234375 125.26562 C 76.484375 125.51562 77.484375 126.76562 77.484375 126.76562 C 77.484375 126.01562 77.234375 125.76562 77.234375 125.51562 C 77.234375 124.51562 78.507012 124.53827 78.984375 125.01562 C 79.234375 125.26562 79.234375 125.73546 79.234375 126.26562 C 79.234375 129.01562 75.984375 126.76562 75.234375 126.01562 C 74.984375 126.76562 72.234375 129.55701 72.234375 126.51562 C 72.234375 125.76562 72.734375 124.51562 73.734375 124.51562 z M 99.734375 124.51562 C 100.23438 124.51562 101.48437 124.51562 102.23438 125.26562 C 102.48438 125.51562 103.48438 126.76562 103.48438 126.76562 C 103.48438 126.01562 103.23438 125.76562 103.23438 125.51562 C 103.23438 124.51562 104.507 124.53827 104.98438 125.01562 C 105.23438 125.26562 105.23438 125.73546 105.23438 126.26562 C 105.23438 129.01562 101.98438 126.76562 101.23438 126.01562 C 100.98438 126.76562 98.234375 129.55701 98.234375 126.51562 C 98.234375 125.76562 98.734375 124.51562 99.734375 124.51562 z " />
  <rect
     width="128"
     height="128"
     rx="0"
     x="0"
     y="0"
     id="rect8566"
     style="fill:none;fill-opacity:1;stroke:none" />
  <desc
     id="desc265">Created with Snap</desc>
</svg>
