<?xml version="1.0" encoding="UTF-8" standalone="no"?>
<svg
   xmlns:dc="http://purl.org/dc/elements/1.1/"
   xmlns:cc="http://creativecommons.org/ns#"
   xmlns:rdf="http://www.w3.org/1999/02/22-rdf-syntax-ns#"
   xmlns:svg="http://www.w3.org/2000/svg"
   xmlns="http://www.w3.org/2000/svg"
   version="1.1"
   height="128"
   width="128"
   id="Svg">
  <metadata
     id="metadata270">
    <rdf:RDF>
      <cc:Work
         rdf:about="">
        <dc:format>image/svg+xml</dc:format>
        <dc:type
           rdf:resource="http://purl.org/dc/dcmitype/StillImage" />
      </cc:Work>
    </rdf:RDF>
  </metadata>
  <defs
     id="defs3" />
  <path
     id="path1152"
     d="M 0 0 L 0 0.13476562 C 0.20877271 0.28771661 0.41923146 0.4306713 0.63085938 0.55078125 L 0 1.1113281 L 0 4 L 2.5 4 C 1.51822 3.754555 1.0256995 2.3113431 1.0078125 1.5488281 L 1.640625 0.98632812 C 2.5592806 1.2159336 3.3577023 0.95148435 3.7460938 0 L 0 0 z M 20.738281 0 C 21.063607 0.79694573 21.680656 0.93243625 22.314453 0.76953125 L 23.464844 1.7558594 C 23.378726 2.5472614 22.904824 3.773794 22 4 L 27.5 4 C 26.51822 3.754555 26.0257 2.3113431 26.007812 1.5488281 L 26.640625 0.98632812 C 27.559281 1.2159336 28.357702 0.95148435 28.746094 0 L 24.826172 0 C 25.090953 0.20814076 25.359817 0.39695031 25.630859 0.55078125 L 24.978516 1.1308594 L 23.972656 0 L 20.738281 0 z M 46.738281 0 C 47.063607 0.79694573 47.680656 0.93243625 48.314453 0.76953125 L 49.464844 1.7558594 C 49.378726 2.5472614 48.904824 3.773794 48 4 L 53.5 4 C 52.51822 3.754555 52.0257 2.3113431 52.007812 1.5488281 L 52.640625 0.98632812 C 53.559281 1.2159336 54.357702 0.95148435 54.746094 0 L 50.826172 0 C 51.090953 0.20814076 51.359817 0.39695031 51.630859 0.55078125 L 50.978516 1.1308594 L 49.972656 0 L 46.738281 0 z M 71.738281 0 C 72.063607 0.79694573 72.680656 0.93243625 73.314453 0.76953125 L 74.464844 1.7558594 C 74.378726 2.5472614 73.904824 3.773794 73 4 L 78.5 4 C 77.51822 3.754555 77.0257 2.3113431 77.007812 1.5488281 L 77.640625 0.98632812 C 78.559281 1.2159336 79.357702 0.95148435 79.746094 0 L 75.826172 0 C 76.090953 0.20814076 76.359817 0.39695031 76.630859 0.55078125 L 75.978516 1.1308594 L 74.972656 0 L 71.738281 0 z M 97.738281 0 C 98.063607 0.79694573 98.680656 0.93243625 99.314453 0.76953125 L 100.46484 1.7558594 C 100.37873 2.5472614 99.904824 3.773794 99 4 L 104.5 4 C 103.51822 3.754555 103.0257 2.3113431 103.00781 1.5488281 L 103.64062 0.98632812 C 104.55927 1.2159336 105.3577 0.95148435 105.74609 0 L 101.82617 0 C 102.09095 0.20814076 102.35982 0.39695031 102.63086 0.55078125 L 101.97852 1.1308594 L 100.97266 0 L 97.738281 0 z M 123.73828 0 C 124.06361 0.79694573 124.68066 0.93243625 125.31445 0.76953125 L 126.46484 1.7558594 C 126.37873 2.5472614 125.90482 3.773794 125 4 L 128 4 L 128 1.1113281 L 127.97852 1.1308594 L 126.97266 0 L 123.73828 0 z M 127.82617 0 C 127.88421 0.045626148 127.94139 0.091824475 128 0.13476562 L 128 0 L 127.82617 0 z M 9.75 8 C 8.736727 8 7.5 8.828137 7.5 10.5 C 7.5 12.650983 8.3964761 13.005479 9.3144531 12.769531 L 10.464844 13.755859 C 10.378726 14.547261 9.904824 15.773794 9 16 L 14.5 16 C 13.51822 15.754555 13.0257 14.311343 13.007812 13.548828 L 13.640625 12.986328 C 14.930953 13.308828 16 12.682938 16 10.5 C 16 7.75 13 7.75 12.25 8.75 C 11.4659 8.259938 10.75 8 9.75 8 z M 35.75 8 C 34.736727 8 33.5 8.828137 33.5 10.5 C 33.5 12.650983 34.396476 13.005479 35.314453 12.769531 L 36.464844 13.755859 C 36.378726 14.547261 35.904824 15.773794 35 16 L 40.5 16 C 39.51822 15.754555 39.0257 14.311343 39.007812 13.548828 L 39.640625 12.986328 C 40.930953 13.308828 42 12.682938 42 10.5 C 42 7.75 39 7.75 38.25 8.75 C 37.4659 8.259938 36.75 8 35.75 8 z M 61.75 8 C 60.736727 8 59.5 8.828137 59.5 10.5 C 59.5 12.650983 60.396476 13.005479 61.314453 12.769531 L 62.464844 13.755859 C 62.378726 14.547261 61.904824 15.773794 61 16 L 66.5 16 C 65.51822 15.754555 65.0257 14.311343 65.007812 13.548828 L 65.640625 12.986328 C 66.930953 13.308828 68 12.682938 68 10.5 C 68 7.75 65 7.75 64.25 8.75 C 63.4659 8.259938 62.75 8 61.75 8 z M 86.75 8 C 85.736727 8 84.5 8.828137 84.5 10.5 C 84.5 12.650983 85.396476 13.005479 86.314453 12.769531 L 87.464844 13.755859 C 87.378726 14.547261 86.904824 15.773794 86 16 L 91.5 16 C 90.51822 15.754555 90.0257 14.311343 90.007812 13.548828 L 90.640625 12.986328 C 91.930953 13.308828 93 12.682938 93 10.5 C 93 7.75 90 7.75 89.25 8.75 C 88.4659 8.259938 87.75 8 86.75 8 z M 112.75 8 C 111.73673 8 110.5 8.828137 110.5 10.5 C 110.5 12.650983 111.39648 13.005479 112.31445 12.769531 L 113.46484 13.755859 C 113.37873 14.547261 112.90482 15.773794 112 16 L 117.5 16 C 116.51822 15.754555 116.0257 14.311343 116.00781 13.548828 L 116.64062 12.986328 C 117.93094 13.308828 119 12.682938 119 10.5 C 119 7.75 116 7.75 115.25 8.75 C 114.4659 8.259938 113.75 8 112.75 8 z M 9.5 8.5 C 10 8.5 11.25 8.5 12 9.25 C 12.25 9.5 13.25 10.75 13.25 10.75 C 13.25 10 13 9.75 13 9.5 C 13 8.5 14.272637 8.522637 14.75 9 C 15 9.25 15 9.719836 15 10.25 C 15 13 11.75 10.75 11 10 C 10.75 10.75 8 13.541381 8 10.5 C 8 9.75 8.5 8.5 9.5 8.5 z M 35.5 8.5 C 36 8.5 37.25 8.5 38 9.25 C 38.25 9.5 39.25 10.75 39.25 10.75 C 39.25 10 39 9.75 39 9.5 C 39 8.5 40.272637 8.522637 40.75 9 C 41 9.25 41 9.719836 41 10.25 C 41 13 37.75 10.75 37 10 C 36.75 10.75 34 13.541381 34 10.5 C 34 9.75 34.5 8.5 35.5 8.5 z M 61.5 8.5 C 62 8.5 63.25 8.5 64 9.25 C 64.25 9.5 65.25 10.75 65.25 10.75 C 65.25 10 65 9.75 65 9.5 C 65 8.5 66.272637 8.522637 66.75 9 C 67 9.25 67 9.719836 67 10.25 C 67 13 63.75 10.75 63 10 C 62.75 10.75 60 13.541381 60 10.5 C 60 9.75 60.5 8.5 61.5 8.5 z M 86.5 8.5 C 87 8.5 88.25 8.5 89 9.25 C 89.25 9.5 90.25 10.75 90.25 10.75 C 90.25 10 90 9.75 90 9.5 C 90 8.5 91.272637 8.522637 91.75 9 C 92 9.25 92 9.719836 92 10.25 C 92 13 88.75 10.75 88 10 C 87.75 10.75 85 13.541381 85 10.5 C 85 9.75 85.5 8.5 86.5 8.5 z M 112.5 8.5 C 113 8.5 114.25 8.5 115 9.25 C 115.25 9.5 116.25 10.75 116.25 10.75 C 116.25 10 116 9.75 116 9.5 C 116 8.5 117.27264 8.522637 117.75 9 C 118 9.25 118 9.719836 118 10.25 C 118 13 114.75 10.75 114 10 C 113.75 10.75 111 13.541381 111 10.5 C 111 9.75 111.5 8.5 112.5 8.5 z M 11.25 11.5 C 11.686441 11.936441 12.159359 12.28318 12.630859 12.550781 L 11.978516 13.130859 L 10.876953 11.892578 C 11.06213 11.730932 11.209119 11.581762 11.25 11.5 z M 37.25 11.5 C 37.686441 11.936441 38.159359 12.28318 38.630859 12.550781 L 37.978516 13.130859 L 36.876953 11.892578 C 37.06213 11.730932 37.209119 11.581762 37.25 11.5 z M 63.25 11.5 C 63.686441 11.936441 64.159359 12.28318 64.630859 12.550781 L 63.978516 13.130859 L 62.876953 11.892578 C 63.06213 11.730932 63.209119 11.581762 63.25 11.5 z M 88.25 11.5 C 88.686441 11.936441 89.159359 12.28318 89.630859 12.550781 L 88.978516 13.130859 L 87.876953 11.892578 C 88.06213 11.730932 88.209119 11.581762 88.25 11.5 z M 114.25 11.5 C 114.68644 11.936441 115.15936 12.28318 115.63086 12.550781 L 114.97852 13.130859 L 113.87695 11.892578 C 114.06213 11.730932 114.20912 11.581762 114.25 11.5 z M 22.75 21 C 21.736727 21 20.5 21.828137 20.5 23.5 C 20.5 25.650983 21.396476 26.005479 22.314453 25.769531 L 23.464844 26.755859 C 23.378726 27.547261 22.904824 28.773794 22 29 L 27.5 29 C 26.51822 28.754555 26.0257 27.311343 26.007812 26.548828 L 26.640625 25.986328 C 27.930953 26.308828 29 25.682938 29 23.5 C 29 20.75 26 20.75 25.25 21.75 C 24.4659 21.259938 23.75 21 22.75 21 z M 48.75 21 C 47.736727 21 46.5 21.828137 46.5 23.5 C 46.5 25.650983 47.396476 26.005479 48.314453 25.769531 L 49.464844 26.755859 C 49.378726 27.547261 48.904824 28.773794 48 29 L 53.5 29 C 52.51822 28.754555 52.0257 27.311343 52.007812 26.548828 L 52.640625 25.986328 C 53.930953 26.308828 55 25.682938 55 23.5 C 55 20.75 52 20.75 51.25 21.75 C 50.4659 21.259938 49.75 21 48.75 21 z M 73.75 21 C 72.736727 21 71.5 21.828137 71.5 23.5 C 71.5 25.650983 72.396476 26.005479 73.314453 25.769531 L 74.464844 26.755859 C 74.378726 27.547261 73.904824 28.773794 73 29 L 78.5 29 C 77.51822 28.754555 77.0257 27.311343 77.007812 26.548828 L 77.640625 25.986328 C 78.930953 26.308828 80 25.682938 80 23.5 C 80 20.75 77 20.75 76.25 21.75 C 75.4659 21.259938 74.75 21 73.75 21 z M 99.75 21 C 98.736727 21 97.5 21.828137 97.5 23.5 C 97.5 25.650983 98.396476 26.005479 99.314453 25.769531 L 100.46484 26.755859 C 100.37873 27.547261 99.904824 28.773794 99 29 L 104.5 29 C 103.51822 28.754555 103.0257 27.311343 103.00781 26.548828 L 103.64062 25.986328 C 104.93094 26.308828 106 25.682938 106 23.5 C 106 20.75 103 20.75 102.25 21.75 C 101.4659 21.259938 100.75 21 99.75 21 z M 125.75 21 C 124.73673 21 123.5 21.828137 123.5 23.5 C 123.5 25.650983 124.39648 26.005479 125.31445 25.769531 L 126.46484 26.755859 C 126.37873 27.547261 125.90482 28.773794 125 29 L 128 29 L 128 26.111328 L 127.97852 26.130859 L 126.87695 24.892578 C 127.06213 24.730932 127.20912 24.581762 127.25 24.5 C 127.49055 24.740549 127.74363 24.946947 128 25.134766 L 128 23.777344 C 127.56542 23.492592 127.19591 23.195907 127 23 C 126.75 23.75 124 26.541381 124 23.5 C 124 22.75 124.5 21.5 125.5 21.5 C 126 21.5 127.25 21.5 128 22.25 L 128 21.609375 C 127.30998 21.21681 126.64209 21 125.75 21 z M 1.765625 21.138672 C 1.128418 21.140137 0.53125 21.375 0.25 21.75 C 0.16538913 21.697118 0.083465267 21.65686 0 21.609375 L 0 22.25 C 0.25 22.5 1.25 23.75 1.25 23.75 C 1.25 23 1 22.75 1 22.5 C 1 21.5 2.272637 21.522637 2.75 22 C 3 22.25 3 22.719836 3 23.25 C 3 25.281676 1.2291427 24.582723 0 23.777344 L 0 25.134766 C 0.20877271 25.287717 0.41923146 25.430671 0.63085938 25.550781 L 0 26.111328 L 0 29 L 2.5 29 C 1.51822 28.754555 1.0256995 27.311343 1.0078125 26.548828 L 1.640625 25.986328 C 2.930953 26.308828 4 25.682938 4 23.5 C 4 21.78125 2.8276367 21.13623 1.765625 21.138672 z M 22.5 21.5 C 23 21.5 24.25 21.5 25 22.25 C 25.25 22.5 26.25 23.75 26.25 23.75 C 26.25 23 26 22.75 26 22.5 C 26 21.5 27.272637 21.522637 27.75 22 C 28 22.25 28 22.719836 28 23.25 C 28 26 24.75 23.75 24 23 C 23.75 23.75 21 26.541381 21 23.5 C 21 22.75 21.5 21.5 22.5 21.5 z M 48.5 21.5 C 49 21.5 50.25 21.5 51 22.25 C 51.25 22.5 52.25 23.75 52.25 23.75 C 52.25 23 52 22.75 52 22.5 C 52 21.5 53.272637 21.522637 53.75 22 C 54 22.25 54 22.719836 54 23.25 C 54 26 50.75 23.75 50 23 C 49.75 23.75 47 26.541381 47 23.5 C 47 22.75 47.5 21.5 48.5 21.5 z M 73.5 21.5 C 74 21.5 75.25 21.5 76 22.25 C 76.25 22.5 77.25 23.75 77.25 23.75 C 77.25 23 77 22.75 77 22.5 C 77 21.5 78.272637 21.522637 78.75 22 C 79 22.25 79 22.719836 79 23.25 C 79 26 75.75 23.75 75 23 C 74.75 23.75 72 26.541381 72 23.5 C 72 22.75 72.5 21.5 73.5 21.5 z M 99.5 21.5 C 100 21.5 101.25 21.5 102 22.25 C 102.25 22.5 103.25 23.75 103.25 23.75 C 103.25 23 103 22.75 103 22.5 C 103 21.5 104.27264 21.522637 104.75 22 C 105 22.25 105 22.719836 105 23.25 C 105 26 101.75 23.75 101 23 C 100.75 23.75 98 26.541381 98 23.5 C 98 22.75 98.5 21.5 99.5 21.5 z M 24.25 24.5 C 24.686441 24.936441 25.159359 25.28318 25.630859 25.550781 L 24.978516 26.130859 L 23.876953 24.892578 C 24.06213 24.730932 24.209119 24.581762 24.25 24.5 z M 50.25 24.5 C 50.686441 24.936441 51.159359 25.28318 51.630859 25.550781 L 50.978516 26.130859 L 49.876953 24.892578 C 50.06213 24.730932 50.209119 24.581762 50.25 24.5 z M 75.25 24.5 C 75.686441 24.936441 76.159359 25.28318 76.630859 25.550781 L 75.978516 26.130859 L 74.876953 24.892578 C 75.06213 24.730932 75.209119 24.581762 75.25 24.5 z M 101.25 24.5 C 101.68644 24.936441 102.15936 25.28318 102.63086 25.550781 L 101.97852 26.130859 L 100.87695 24.892578 C 101.06213 24.730932 101.20912 24.581762 101.25 24.5 z M 9.75 34 C 8.736727 34 7.5 34.828137 7.5 36.5 C 7.5 38.650983 8.3964761 39.005479 9.3144531 38.769531 L 10.464844 39.755859 C 10.378726 40.547261 9.904824 41.773794 9 42 L 14.5 42 C 13.51822 41.754555 13.0257 40.311343 13.007812 39.548828 L 13.640625 38.986328 C 14.930953 39.308828 16 38.682938 16 36.5 C 16 33.75 13 33.75 12.25 34.75 C 11.4659 34.259938 10.75 34 9.75 34 z M 35.75 34 C 34.736727 34 33.5 34.828137 33.5 36.5 C 33.5 38.650983 34.396476 39.005479 35.314453 38.769531 L 36.464844 39.755859 C 36.378726 40.547261 35.904824 41.773794 35 42 L 40.5 42 C 39.51822 41.754555 39.0257 40.311343 39.007812 39.548828 L 39.640625 38.986328 C 40.930953 39.308828 42 38.682938 42 36.5 C 42 33.75 39 33.75 38.25 34.75 C 37.4659 34.259938 36.75 34 35.75 34 z M 61.75 34 C 60.736727 34 59.5 34.828137 59.5 36.5 C 59.5 38.650983 60.396476 39.005479 61.314453 38.769531 L 62.464844 39.755859 C 62.378726 40.547261 61.904824 41.773794 61 42 L 66.5 42 C 65.51822 41.754555 65.0257 40.311343 65.007812 39.548828 L 65.640625 38.986328 C 66.930953 39.308828 68 38.682938 68 36.5 C 68 33.75 65 33.75 64.25 34.75 C 63.4659 34.259938 62.75 34 61.75 34 z M 86.75 34 C 85.736727 34 84.5 34.828137 84.5 36.5 C 84.5 38.650983 85.396476 39.005479 86.314453 38.769531 L 87.464844 39.755859 C 87.378726 40.547261 86.904824 41.773794 86 42 L 91.5 42 C 90.51822 41.754555 90.0257 40.311343 90.007812 39.548828 L 90.640625 38.986328 C 91.930953 39.308828 93 38.682938 93 36.5 C 93 33.75 90 33.75 89.25 34.75 C 88.4659 34.259938 87.75 34 86.75 34 z M 112.75 34 C 111.73673 34 110.5 34.828137 110.5 36.5 C 110.5 38.650983 111.39648 39.005479 112.31445 38.769531 L 113.46484 39.755859 C 113.37873 40.547261 112.90482 41.773794 112 42 L 117.5 42 C 116.51822 41.754555 116.0257 40.311343 116.00781 39.548828 L 116.64062 38.986328 C 117.93094 39.308828 119 38.682938 119 36.5 C 119 33.75 116 33.75 115.25 34.75 C 114.4659 34.259938 113.75 34 112.75 34 z M 9.5 34.5 C 10 34.5 11.25 34.5 12 35.25 C 12.25 35.5 13.25 36.75 13.25 36.75 C 13.25 36 13 35.75 13 35.5 C 13 34.5 14.272637 34.522637 14.75 35 C 15 35.25 15 35.719836 15 36.25 C 15 39 11.75 36.75 11 36 C 10.75 36.75 8 39.541381 8 36.5 C 8 35.75 8.5 34.5 9.5 34.5 z M 35.5 34.5 C 36 34.5 37.25 34.5 38 35.25 C 38.25 35.5 39.25 36.75 39.25 36.75 C 39.25 36 39 35.75 39 35.5 C 39 34.5 40.272637 34.522637 40.75 35 C 41 35.25 41 35.719836 41 36.25 C 41 39 37.75 36.75 37 36 C 36.75 36.75 34 39.541381 34 36.5 C 34 35.75 34.5 34.5 35.5 34.5 z M 61.5 34.5 C 62 34.5 63.25 34.5 64 35.25 C 64.25 35.5 65.25 36.75 65.25 36.75 C 65.25 36 65 35.75 65 35.5 C 65 34.5 66.272637 34.522637 66.75 35 C 67 35.25 67 35.719836 67 36.25 C 67 39 63.75 36.75 63 36 C 62.75 36.75 60 39.541381 60 36.5 C 60 35.75 60.5 34.5 61.5 34.5 z M 86.5 34.5 C 87 34.5 88.25 34.5 89 35.25 C 89.25 35.5 90.25 36.75 90.25 36.75 C 90.25 36 90 35.75 90 35.5 C 90 34.5 91.272637 34.522637 91.75 35 C 92 35.25 92 35.719836 92 36.25 C 92 39 88.75 36.75 88 36 C 87.75 36.75 85 39.541381 85 36.5 C 85 35.75 85.5 34.5 86.5 34.5 z M 112.5 34.5 C 113 34.5 114.25 34.5 115 35.25 C 115.25 35.5 116.25 36.75 116.25 36.75 C 116.25 36 116 35.75 116 35.5 C 116 34.5 117.27264 34.522637 117.75 35 C 118 35.25 118 35.719836 118 36.25 C 118 39 114.75 36.75 114 36 C 113.75 36.75 111 39.541381 111 36.5 C 111 35.75 111.5 34.5 112.5 34.5 z M 11.25 37.5 C 11.686441 37.936441 12.159359 38.28318 12.630859 38.550781 L 11.978516 39.130859 L 10.876953 37.892578 C 11.06213 37.730932 11.209119 37.581762 11.25 37.5 z M 37.25 37.5 C 37.686441 37.936441 38.159359 38.28318 38.630859 38.550781 L 37.978516 39.130859 L 36.876953 37.892578 C 37.06213 37.730932 37.209119 37.581762 37.25 37.5 z M 63.25 37.5 C 63.686441 37.936441 64.159359 38.28318 64.630859 38.550781 L 63.978516 39.130859 L 62.876953 37.892578 C 63.06213 37.730932 63.209119 37.581762 63.25 37.5 z M 88.25 37.5 C 88.686441 37.936441 89.159359 38.28318 89.630859 38.550781 L 88.978516 39.130859 L 87.876953 37.892578 C 88.06213 37.730932 88.209119 37.581762 88.25 37.5 z M 114.25 37.5 C 114.68644 37.936441 115.15936 38.28318 115.63086 38.550781 L 114.97852 39.130859 L 113.87695 37.892578 C 114.06213 37.730932 114.20912 37.581762 114.25 37.5 z M 22.75 47 C 21.736727 47 20.5 47.828137 20.5 49.5 C 20.5 51.650983 21.396476 52.005479 22.314453 51.769531 L 23.464844 52.755859 C 23.378726 53.547261 22.904824 54.773794 22 55 L 27.5 55 C 26.51822 54.754555 26.0257 53.311343 26.007812 52.548828 L 26.640625 51.986328 C 27.930953 52.308828 29 51.682938 29 49.5 C 29 46.75 26 46.75 25.25 47.75 C 24.4659 47.259938 23.75 47 22.75 47 z M 48.75 47 C 47.736727 47 46.5 47.828137 46.5 49.5 C 46.5 51.650983 47.396476 52.005479 48.314453 51.769531 L 49.464844 52.755859 C 49.378726 53.547261 48.904824 54.773794 48 55 L 53.5 55 C 52.51822 54.754555 52.0257 53.311343 52.007812 52.548828 L 52.640625 51.986328 C 53.930953 52.308828 55 51.682938 55 49.5 C 55 46.75 52 46.75 51.25 47.75 C 50.4659 47.259938 49.75 47 48.75 47 z M 73.75 47 C 72.736727 47 71.5 47.828137 71.5 49.5 C 71.5 51.650983 72.396476 52.005479 73.314453 51.769531 L 74.464844 52.755859 C 74.378726 53.547261 73.904824 54.773794 73 55 L 78.5 55 C 77.51822 54.754555 77.0257 53.311343 77.007812 52.548828 L 77.640625 51.986328 C 78.930953 52.308828 80 51.682938 80 49.5 C 80 46.75 77 46.75 76.25 47.75 C 75.4659 47.259938 74.75 47 73.75 47 z M 99.75 47 C 98.736727 47 97.5 47.828137 97.5 49.5 C 97.5 51.650983 98.396476 52.005479 99.314453 51.769531 L 100.46484 52.755859 C 100.37873 53.547261 99.904824 54.773794 99 55 L 104.5 55 C 103.51822 54.754555 103.0257 53.311343 103.00781 52.548828 L 103.64062 51.986328 C 104.93094 52.308828 106 51.682938 106 49.5 C 106 46.75 103 46.75 102.25 47.75 C 101.4659 47.259938 100.75 47 99.75 47 z M 125.75 47 C 124.73673 47 123.5 47.828137 123.5 49.5 C 123.5 51.650983 124.39648 52.005479 125.31445 51.769531 L 126.46484 52.755859 C 126.37873 53.547261 125.90482 54.773794 125 55 L 128 55 L 128 52.111328 L 127.97852 52.130859 L 126.87695 50.892578 C 127.06213 50.730932 127.20912 50.581762 127.25 50.5 C 127.49055 50.740549 127.74363 50.946947 128 51.134766 L 128 49.777344 C 127.56542 49.492592 127.19591 49.195907 127 49 C 126.75 49.75 124 52.541381 124 49.5 C 124 48.75 124.5 47.5 125.5 47.5 C 126 47.5 127.25 47.5 128 48.25 L 128 47.609375 C 127.30998 47.21681 126.64209 47 125.75 47 z M 1.765625 47.138672 C 1.128418 47.140137 0.53125 47.375 0.25 47.75 C 0.16538913 47.697118 0.083465267 47.65686 0 47.609375 L 0 48.25 C 0.25 48.5 1.25 49.75 1.25 49.75 C 1.25 49 1 48.75 1 48.5 C 1 47.5 2.272637 47.522637 2.75 48 C 3 48.25 3 48.719836 3 49.25 C 3 51.281676 1.2291427 50.582723 0 49.777344 L 0 51.134766 C 0.20877271 51.287717 0.41923146 51.430671 0.63085938 51.550781 L 0 52.111328 L 0 55 L 2.5 55 C 1.51822 54.754555 1.0256995 53.311343 1.0078125 52.548828 L 1.640625 51.986328 C 2.930953 52.308828 4 51.682938 4 49.5 C 4 47.78125 2.8276367 47.13623 1.765625 47.138672 z M 22.5 47.5 C 23 47.5 24.25 47.5 25 48.25 C 25.25 48.5 26.25 49.75 26.25 49.75 C 26.25 49 26 48.75 26 48.5 C 26 47.5 27.272637 47.522637 27.75 48 C 28 48.25 28 48.719836 28 49.25 C 28 52 24.75 49.75 24 49 C 23.75 49.75 21 52.541381 21 49.5 C 21 48.75 21.5 47.5 22.5 47.5 z M 48.5 47.5 C 49 47.5 50.25 47.5 51 48.25 C 51.25 48.5 52.25 49.75 52.25 49.75 C 52.25 49 52 48.75 52 48.5 C 52 47.5 53.272637 47.522637 53.75 48 C 54 48.25 54 48.719836 54 49.25 C 54 52 50.75 49.75 50 49 C 49.75 49.75 47 52.541381 47 49.5 C 47 48.75 47.5 47.5 48.5 47.5 z M 73.5 47.5 C 74 47.5 75.25 47.5 76 48.25 C 76.25 48.5 77.25 49.75 77.25 49.75 C 77.25 49 77 48.75 77 48.5 C 77 47.5 78.272637 47.522637 78.75 48 C 79 48.25 79 48.719836 79 49.25 C 79 52 75.75 49.75 75 49 C 74.75 49.75 72 52.541381 72 49.5 C 72 48.75 72.5 47.5 73.5 47.5 z M 99.5 47.5 C 100 47.5 101.25 47.5 102 48.25 C 102.25 48.5 103.25 49.75 103.25 49.75 C 103.25 49 103 48.75 103 48.5 C 103 47.5 104.27264 47.522637 104.75 48 C 105 48.25 105 48.719836 105 49.25 C 105 52 101.75 49.75 101 49 C 100.75 49.75 98 52.541381 98 49.5 C 98 48.75 98.5 47.5 99.5 47.5 z M 24.25 50.5 C 24.686441 50.936441 25.159359 51.28318 25.630859 51.550781 L 24.978516 52.130859 L 23.876953 50.892578 C 24.06213 50.730932 24.209119 50.581762 24.25 50.5 z M 50.25 50.5 C 50.686441 50.936441 51.159359 51.28318 51.630859 51.550781 L 50.978516 52.130859 L 49.876953 50.892578 C 50.06213 50.730932 50.209119 50.581762 50.25 50.5 z M 75.25 50.5 C 75.686441 50.936441 76.159359 51.28318 76.630859 51.550781 L 75.978516 52.130859 L 74.876953 50.892578 C 75.06213 50.730932 75.209119 50.581762 75.25 50.5 z M 101.25 50.5 C 101.68644 50.936441 102.15936 51.28318 102.63086 51.550781 L 101.97852 52.130859 L 100.87695 50.892578 C 101.06213 50.730932 101.20912 50.581762 101.25 50.5 z M 9.75 60 C 8.736727 60 7.5 60.828137 7.5 62.5 C 7.5 64.650983 8.3964761 65.005479 9.3144531 64.769531 L 10.464844 65.755859 C 10.378726 66.547261 9.904824 67.773794 9 68 L 14.5 68 C 13.51822 67.754555 13.0257 66.311343 13.007812 65.548828 L 13.640625 64.986328 C 14.930953 65.308828 16 64.682938 16 62.5 C 16 59.75 13 59.75 12.25 60.75 C 11.4659 60.259938 10.75 60 9.75 60 z M 35.75 60 C 34.736727 60 33.5 60.828137 33.5 62.5 C 33.5 64.650983 34.396476 65.005479 35.314453 64.769531 L 36.464844 65.755859 C 36.378726 66.547261 35.904824 67.773794 35 68 L 40.5 68 C 39.51822 67.754555 39.0257 66.311343 39.007812 65.548828 L 39.640625 64.986328 C 40.930953 65.308828 42 64.682938 42 62.5 C 42 59.75 39 59.75 38.25 60.75 C 37.4659 60.259938 36.75 60 35.75 60 z M 61.75 60 C 60.736727 60 59.5 60.828137 59.5 62.5 C 59.5 64.650983 60.396476 65.005479 61.314453 64.769531 L 62.464844 65.755859 C 62.378726 66.547261 61.904824 67.773794 61 68 L 66.5 68 C 65.51822 67.754555 65.0257 66.311343 65.007812 65.548828 L 65.640625 64.986328 C 66.930953 65.308828 68 64.682938 68 62.5 C 68 59.75 65 59.75 64.25 60.75 C 63.4659 60.259938 62.75 60 61.75 60 z M 86.75 60 C 85.736727 60 84.5 60.828137 84.5 62.5 C 84.5 64.650983 85.396476 65.005479 86.314453 64.769531 L 87.464844 65.755859 C 87.378726 66.547261 86.904824 67.773794 86 68 L 91.5 68 C 90.51822 67.754555 90.0257 66.311343 90.007812 65.548828 L 90.640625 64.986328 C 91.930953 65.308828 93 64.682938 93 62.5 C 93 59.75 90 59.75 89.25 60.75 C 88.4659 60.259938 87.75 60 86.75 60 z M 112.75 60 C 111.73673 60 110.5 60.828137 110.5 62.5 C 110.5 64.650983 111.39648 65.005479 112.31445 64.769531 L 113.46484 65.755859 C 113.37873 66.547261 112.90482 67.773794 112 68 L 117.5 68 C 116.51822 67.754555 116.0257 66.311343 116.00781 65.548828 L 116.64062 64.986328 C 117.93094 65.308828 119 64.682938 119 62.5 C 119 59.75 116 59.75 115.25 60.75 C 114.4659 60.259938 113.75 60 112.75 60 z M 9.5 60.5 C 10 60.5 11.25 60.5 12 61.25 C 12.25 61.5 13.25 62.75 13.25 62.75 C 13.25 62 13 61.75 13 61.5 C 13 60.5 14.272637 60.522637 14.75 61 C 15 61.25 15 61.719836 15 62.25 C 15 65 11.75 62.75 11 62 C 10.75 62.75 8 65.541381 8 62.5 C 8 61.75 8.5 60.5 9.5 60.5 z M 35.5 60.5 C 36 60.5 37.25 60.5 38 61.25 C 38.25 61.5 39.25 62.75 39.25 62.75 C 39.25 62 39 61.75 39 61.5 C 39 60.5 40.272637 60.522637 40.75 61 C 41 61.25 41 61.719836 41 62.25 C 41 65 37.75 62.75 37 62 C 36.75 62.75 34 65.541381 34 62.5 C 34 61.75 34.5 60.5 35.5 60.5 z M 61.5 60.5 C 62 60.5 63.25 60.5 64 61.25 C 64.25 61.5 65.25 62.75 65.25 62.75 C 65.25 62 65 61.75 65 61.5 C 65 60.5 66.272637 60.522637 66.75 61 C 67 61.25 67 61.719836 67 62.25 C 67 65 63.75 62.75 63 62 C 62.75 62.75 60 65.541381 60 62.5 C 60 61.75 60.5 60.5 61.5 60.5 z M 86.5 60.5 C 87 60.5 88.25 60.5 89 61.25 C 89.25 61.5 90.25 62.75 90.25 62.75 C 90.25 62 90 61.75 90 61.5 C 90 60.5 91.272637 60.522637 91.75 61 C 92 61.25 92 61.719836 92 62.25 C 92 65 88.75 62.75 88 62 C 87.75 62.75 85 65.541381 85 62.5 C 85 61.75 85.5 60.5 86.5 60.5 z M 112.5 60.5 C 113 60.5 114.25 60.5 115 61.25 C 115.25 61.5 116.25 62.75 116.25 62.75 C 116.25 62 116 61.75 116 61.5 C 116 60.5 117.27264 60.522637 117.75 61 C 118 61.25 118 61.719836 118 62.25 C 118 65 114.75 62.75 114 62 C 113.75 62.75 111 65.541381 111 62.5 C 111 61.75 111.5 60.5 112.5 60.5 z M 11.25 63.5 C 11.686441 63.936441 12.159359 64.28318 12.630859 64.550781 L 11.978516 65.130859 L 10.876953 63.892578 C 11.06213 63.730932 11.209119 63.581762 11.25 63.5 z M 37.25 63.5 C 37.686441 63.936441 38.159359 64.28318 38.630859 64.550781 L 37.978516 65.130859 L 36.876953 63.892578 C 37.06213 63.730932 37.209119 63.581762 37.25 63.5 z M 63.25 63.5 C 63.686441 63.936441 64.159359 64.28318 64.630859 64.550781 L 63.978516 65.130859 L 62.876953 63.892578 C 63.06213 63.730932 63.209119 63.581762 63.25 63.5 z M 88.25 63.5 C 88.686441 63.936441 89.159359 64.28318 89.630859 64.550781 L 88.978516 65.130859 L 87.876953 63.892578 C 88.06213 63.730932 88.209119 63.581762 88.25 63.5 z M 114.25 63.5 C 114.68644 63.936441 115.15936 64.28318 115.63086 64.550781 L 114.97852 65.130859 L 113.87695 63.892578 C 114.06213 63.730932 114.20912 63.581762 114.25 63.5 z M 22.75 72 C 21.736727 72 20.5 72.828137 20.5 74.5 C 20.5 76.650983 21.396476 77.005479 22.314453 76.769531 L 23.464844 77.755859 C 23.378726 78.547261 22.904824 79.773794 22 80 L 27.5 80 C 26.51822 79.754555 26.0257 78.311343 26.007812 77.548828 L 26.640625 76.986328 C 27.930953 77.308828 29 76.682938 29 74.5 C 29 71.75 26 71.75 25.25 72.75 C 24.4659 72.259938 23.75 72 22.75 72 z M 48.75 72 C 47.736727 72 46.5 72.828137 46.5 74.5 C 46.5 76.650983 47.396476 77.005479 48.314453 76.769531 L 49.464844 77.755859 C 49.378726 78.547261 48.904824 79.773794 48 80 L 53.5 80 C 52.51822 79.754555 52.0257 78.311343 52.007812 77.548828 L 52.640625 76.986328 C 53.930953 77.308828 55 76.682938 55 74.5 C 55 71.75 52 71.75 51.25 72.75 C 50.4659 72.259938 49.75 72 48.75 72 z M 73.75 72 C 72.736727 72 71.5 72.828137 71.5 74.5 C 71.5 76.650983 72.396476 77.005479 73.314453 76.769531 L 74.464844 77.755859 C 74.378726 78.547261 73.904824 79.773794 73 80 L 78.5 80 C 77.51822 79.754555 77.0257 78.311343 77.007812 77.548828 L 77.640625 76.986328 C 78.930953 77.308828 80 76.682938 80 74.5 C 80 71.75 77 71.75 76.25 72.75 C 75.4659 72.259938 74.75 72 73.75 72 z M 99.75 72 C 98.736727 72 97.5 72.828137 97.5 74.5 C 97.5 76.650983 98.396476 77.005479 99.314453 76.769531 L 100.46484 77.755859 C 100.37873 78.547261 99.904824 79.773794 99 80 L 104.5 80 C 103.51822 79.754555 103.0257 78.311343 103.00781 77.548828 L 103.64062 76.986328 C 104.93094 77.308828 106 76.682938 106 74.5 C 106 71.75 103 71.75 102.25 72.75 C 101.4659 72.259938 100.75 72 99.75 72 z M 125.75 72 C 124.73673 72 123.5 72.828137 123.5 74.5 C 123.5 76.650983 124.39648 77.005479 125.31445 76.769531 L 126.46484 77.755859 C 126.37873 78.547261 125.90482 79.773794 125 80 L 128 80 L 128 77.111328 L 127.97852 77.130859 L 126.87695 75.892578 C 127.06213 75.730932 127.20912 75.581762 127.25 75.5 C 127.49055 75.740549 127.74363 75.946947 128 76.134766 L 128 74.777344 C 127.56542 74.492592 127.19591 74.195907 127 74 C 126.75 74.75 124 77.541381 124 74.5 C 124 73.75 124.5 72.5 125.5 72.5 C 126 72.5 127.25 72.5 128 73.25 L 128 72.609375 C 127.30998 72.21681 126.64209 72 125.75 72 z M 1.765625 72.138672 C 1.128418 72.140137 0.53125 72.375 0.25 72.75 C 0.16538913 72.697118 0.083465267 72.65686 0 72.609375 L 0 73.25 C 0.25 73.5 1.25 74.75 1.25 74.75 C 1.25 74 1 73.75 1 73.5 C 1 72.5 2.272637 72.522637 2.75 73 C 3 73.25 3 73.719836 3 74.25 C 3 76.281676 1.2291427 75.582723 0 74.777344 L 0 76.134766 C 0.20877271 76.287717 0.41923146 76.430671 0.63085938 76.550781 L 0 77.111328 L 0 80 L 2.5 80 C 1.51822 79.754555 1.0256995 78.311343 1.0078125 77.548828 L 1.640625 76.986328 C 2.930953 77.308828 4 76.682938 4 74.5 C 4 72.78125 2.8276367 72.13623 1.765625 72.138672 z M 22.5 72.5 C 23 72.5 24.25 72.5 25 73.25 C 25.25 73.5 26.25 74.75 26.25 74.75 C 26.25 74 26 73.75 26 73.5 C 26 72.5 27.272637 72.522637 27.75 73 C 28 73.25 28 73.719836 28 74.25 C 28 77 24.75 74.75 24 74 C 23.75 74.75 21 77.541381 21 74.5 C 21 73.75 21.5 72.5 22.5 72.5 z M 48.5 72.5 C 49 72.5 50.25 72.5 51 73.25 C 51.25 73.5 52.25 74.75 52.25 74.75 C 52.25 74 52 73.75 52 73.5 C 52 72.5 53.272637 72.522637 53.75 73 C 54 73.25 54 73.719836 54 74.25 C 54 77 50.75 74.75 50 74 C 49.75 74.75 47 77.541381 47 74.5 C 47 73.75 47.5 72.5 48.5 72.5 z M 73.5 72.5 C 74 72.5 75.25 72.5 76 73.25 C 76.25 73.5 77.25 74.75 77.25 74.75 C 77.25 74 77 73.75 77 73.5 C 77 72.5 78.272637 72.522637 78.75 73 C 79 73.25 79 73.719836 79 74.25 C 79 77 75.75 74.75 75 74 C 74.75 74.75 72 77.541381 72 74.5 C 72 73.75 72.5 72.5 73.5 72.5 z M 99.5 72.5 C 100 72.5 101.25 72.5 102 73.25 C 102.25 73.5 103.25 74.75 103.25 74.75 C 103.25 74 103 73.75 103 73.5 C 103 72.5 104.27264 72.522637 104.75 73 C 105 73.25 105 73.719836 105 74.25 C 105 77 101.75 74.75 101 74 C 100.75 74.75 98 77.541381 98 74.5 C 98 73.75 98.5 72.5 99.5 72.5 z M 24.25 75.5 C 24.686441 75.936441 25.159359 76.28318 25.630859 76.550781 L 24.978516 77.130859 L 23.876953 75.892578 C 24.06213 75.730932 24.209119 75.581762 24.25 75.5 z M 50.25 75.5 C 50.686441 75.936441 51.159359 76.28318 51.630859 76.550781 L 50.978516 77.130859 L 49.876953 75.892578 C 50.06213 75.730932 50.209119 75.581762 50.25 75.5 z M 75.25 75.5 C 75.686441 75.936441 76.159359 76.28318 76.630859 76.550781 L 75.978516 77.130859 L 74.876953 75.892578 C 75.06213 75.730932 75.209119 75.581762 75.25 75.5 z M 101.25 75.5 C 101.68644 75.936441 102.15936 76.28318 102.63086 76.550781 L 101.97852 77.130859 L 100.87695 75.892578 C 101.06213 75.730932 101.20912 75.581762 101.25 75.5 z M 9.75 85 C 8.736727 85 7.5 85.828137 7.5 87.5 C 7.5 89.650983 8.3964761 90.005479 9.3144531 89.769531 L 10.464844 90.755859 C 10.378726 91.547261 9.904824 92.773794 9 93 L 14.5 93 C 13.51822 92.754555 13.0257 91.311343 13.007812 90.548828 L 13.640625 89.986328 C 14.930953 90.308828 16 89.682938 16 87.5 C 16 84.75 13 84.75 12.25 85.75 C 11.4659 85.259938 10.75 85 9.75 85 z M 35.75 85 C 34.736727 85 33.5 85.828137 33.5 87.5 C 33.5 89.650983 34.396476 90.005479 35.314453 89.769531 L 36.464844 90.755859 C 36.378726 91.547261 35.904824 92.773794 35 93 L 40.5 93 C 39.51822 92.754555 39.0257 91.311343 39.007812 90.548828 L 39.640625 89.986328 C 40.930953 90.308828 42 89.682938 42 87.5 C 42 84.75 39 84.75 38.25 85.75 C 37.4659 85.259938 36.75 85 35.75 85 z M 61.75 85 C 60.736727 85 59.5 85.828137 59.5 87.5 C 59.5 89.650983 60.396476 90.005479 61.314453 89.769531 L 62.464844 90.755859 C 62.378726 91.547261 61.904824 92.773794 61 93 L 66.5 93 C 65.51822 92.754555 65.0257 91.311343 65.007812 90.548828 L 65.640625 89.986328 C 66.930953 90.308828 68 89.682938 68 87.5 C 68 84.75 65 84.75 64.25 85.75 C 63.4659 85.259938 62.75 85 61.75 85 z M 86.75 85 C 85.736727 85 84.5 85.828137 84.5 87.5 C 84.5 89.650983 85.396476 90.005479 86.314453 89.769531 L 87.464844 90.755859 C 87.378726 91.547261 86.904824 92.773794 86 93 L 91.5 93 C 90.51822 92.754555 90.0257 91.311343 90.007812 90.548828 L 90.640625 89.986328 C 91.930953 90.308828 93 89.682938 93 87.5 C 93 84.75 90 84.75 89.25 85.75 C 88.4659 85.259938 87.75 85 86.75 85 z M 112.75 85 C 111.73673 85 110.5 85.828137 110.5 87.5 C 110.5 89.650983 111.39648 90.005479 112.31445 89.769531 L 113.46484 90.755859 C 113.37873 91.547261 112.90482 92.773794 112 93 L 117.5 93 C 116.51822 92.754555 116.0257 91.311343 116.00781 90.548828 L 116.64062 89.986328 C 117.93094 90.308828 119 89.682938 119 87.5 C 119 84.75 116 84.75 115.25 85.75 C 114.4659 85.259938 113.75 85 112.75 85 z M 9.5 85.5 C 10 85.5 11.25 85.5 12 86.25 C 12.25 86.5 13.25 87.75 13.25 87.75 C 13.25 87 13 86.75 13 86.5 C 13 85.5 14.272637 85.522637 14.75 86 C 15 86.25 15 86.719836 15 87.25 C 15 90 11.75 87.75 11 87 C 10.75 87.75 8 90.541381 8 87.5 C 8 86.75 8.5 85.5 9.5 85.5 z M 35.5 85.5 C 36 85.5 37.25 85.5 38 86.25 C 38.25 86.5 39.25 87.75 39.25 87.75 C 39.25 87 39 86.75 39 86.5 C 39 85.5 40.272637 85.522637 40.75 86 C 41 86.25 41 86.719836 41 87.25 C 41 90 37.75 87.75 37 87 C 36.75 87.75 34 90.541381 34 87.5 C 34 86.75 34.5 85.5 35.5 85.5 z M 61.5 85.5 C 62 85.5 63.25 85.5 64 86.25 C 64.25 86.5 65.25 87.75 65.25 87.75 C 65.25 87 65 86.75 65 86.5 C 65 85.5 66.272637 85.522637 66.75 86 C 67 86.25 67 86.719836 67 87.25 C 67 90 63.75 87.75 63 87 C 62.75 87.75 60 90.541381 60 87.5 C 60 86.75 60.5 85.5 61.5 85.5 z M 86.5 85.5 C 87 85.5 88.25 85.5 89 86.25 C 89.25 86.5 90.25 87.75 90.25 87.75 C 90.25 87 90 86.75 90 86.5 C 90 85.5 91.272637 85.522637 91.75 86 C 92 86.25 92 86.719836 92 87.25 C 92 90 88.75 87.75 88 87 C 87.75 87.75 85 90.541381 85 87.5 C 85 86.75 85.5 85.5 86.5 85.5 z M 112.5 85.5 C 113 85.5 114.25 85.5 115 86.25 C 115.25 86.5 116.25 87.75 116.25 87.75 C 116.25 87 116 86.75 116 86.5 C 116 85.5 117.27264 85.522637 117.75 86 C 118 86.25 118 86.719836 118 87.25 C 118 90 114.75 87.75 114 87 C 113.75 87.75 111 90.541381 111 87.5 C 111 86.75 111.5 85.5 112.5 85.5 z M 11.25 88.5 C 11.686441 88.936441 12.159359 89.28318 12.630859 89.550781 L 11.978516 90.130859 L 10.876953 88.892578 C 11.06213 88.730932 11.209119 88.581762 11.25 88.5 z M 37.25 88.5 C 37.686441 88.936441 38.159359 89.28318 38.630859 89.550781 L 37.978516 90.130859 L 36.876953 88.892578 C 37.06213 88.730932 37.209119 88.581762 37.25 88.5 z M 63.25 88.5 C 63.686441 88.936441 64.159359 89.28318 64.630859 89.550781 L 63.978516 90.130859 L 62.876953 88.892578 C 63.06213 88.730932 63.209119 88.581762 63.25 88.5 z M 88.25 88.5 C 88.686441 88.936441 89.159359 89.28318 89.630859 89.550781 L 88.978516 90.130859 L 87.876953 88.892578 C 88.06213 88.730932 88.209119 88.581762 88.25 88.5 z M 114.25 88.5 C 114.68644 88.936441 115.15936 89.28318 115.63086 89.550781 L 114.97852 90.130859 L 113.87695 88.892578 C 114.06213 88.730932 114.20912 88.581762 114.25 88.5 z M 22.75 98 C 21.736727 98 20.5 98.828137 20.5 100.5 C 20.5 102.65098 21.396476 103.00548 22.314453 102.76953 L 23.464844 103.75586 C 23.378726 104.54726 22.904824 105.77379 22 106 L 27.5 106 C 26.51822 105.75455 26.0257 104.31134 26.007812 103.54883 L 26.640625 102.98633 C 27.930953 103.30883 29 102.68294 29 100.5 C 29 97.75 26 97.75 25.25 98.75 C 24.4659 98.259938 23.75 98 22.75 98 z M 48.75 98 C 47.736727 98 46.5 98.828137 46.5 100.5 C 46.5 102.65098 47.396476 103.00548 48.314453 102.76953 L 49.464844 103.75586 C 49.378726 104.54726 48.904824 105.77379 48 106 L 53.5 106 C 52.51822 105.75455 52.0257 104.31134 52.007812 103.54883 L 52.640625 102.98633 C 53.930953 103.30883 55 102.68294 55 100.5 C 55 97.75 52 97.75 51.25 98.75 C 50.4659 98.259938 49.75 98 48.75 98 z M 73.75 98 C 72.736727 98 71.5 98.828137 71.5 100.5 C 71.5 102.65098 72.396476 103.00548 73.314453 102.76953 L 74.464844 103.75586 C 74.378726 104.54726 73.904824 105.77379 73 106 L 78.5 106 C 77.51822 105.75455 77.0257 104.31134 77.007812 103.54883 L 77.640625 102.98633 C 78.930953 103.30883 80 102.68294 80 100.5 C 80 97.75 77 97.75 76.25 98.75 C 75.4659 98.259938 74.75 98 73.75 98 z M 99.75 98 C 98.736727 98 97.5 98.828137 97.5 100.5 C 97.5 102.65098 98.396476 103.00548 99.314453 102.76953 L 100.46484 103.75586 C 100.37873 104.54726 99.904824 105.77379 99 106 L 104.5 106 C 103.51822 105.75455 103.0257 104.31134 103.00781 103.54883 L 103.64062 102.98633 C 104.93094 103.30883 106 102.68294 106 100.5 C 106 97.75 103 97.75 102.25 98.75 C 101.4659 98.259938 100.75 98 99.75 98 z M 125.75 98 C 124.73673 98 123.5 98.828137 123.5 100.5 C 123.5 102.65098 124.39648 103.00548 125.31445 102.76953 L 126.46484 103.75586 C 126.37873 104.54726 125.90482 105.77379 125 106 L 128 106 L 128 103.11133 L 127.97852 103.13086 L 126.87695 101.89258 C 127.06213 101.73093 127.20912 101.58176 127.25 101.5 C 127.49055 101.74055 127.74363 101.94695 128 102.13477 L 128 100.77734 C 127.56542 100.49259 127.19591 100.19591 127 100 C 126.75 100.75 124 103.54138 124 100.5 C 124 99.75 124.5 98.5 125.5 98.5 C 126 98.5 127.25 98.5 128 99.25 L 128 98.609375 C 127.30998 98.21681 126.64209 98 125.75 98 z M 1.765625 98.138672 C 1.128418 98.140137 0.53125 98.375 0.25 98.75 C 0.16538913 98.697118 0.083465267 98.65686 0 98.609375 L 0 99.25 C 0.25 99.5 1.25 100.75 1.25 100.75 C 1.25 100 1 99.75 1 99.5 C 1 98.5 2.272637 98.522637 2.75 99 C 3 99.25 3 99.719836 3 100.25 C 3 102.28168 1.2291427 101.58272 0 100.77734 L 0 102.13477 C 0.20877271 102.28772 0.41923146 102.43067 0.63085938 102.55078 L 0 103.11133 L 0 106 L 2.5 106 C 1.51822 105.75455 1.0256995 104.31134 1.0078125 103.54883 L 1.640625 102.98633 C 2.930953 103.30883 4 102.68294 4 100.5 C 4 98.78125 2.8276367 98.13623 1.765625 98.138672 z M 22.5 98.5 C 23 98.5 24.25 98.5 25 99.25 C 25.25 99.5 26.25 100.75 26.25 100.75 C 26.25 100 26 99.75 26 99.5 C 26 98.5 27.272637 98.522637 27.75 99 C 28 99.25 28 99.719836 28 100.25 C 28 103 24.75 100.75 24 100 C 23.75 100.75 21 103.54138 21 100.5 C 21 99.75 21.5 98.5 22.5 98.5 z M 48.5 98.5 C 49 98.5 50.25 98.5 51 99.25 C 51.25 99.5 52.25 100.75 52.25 100.75 C 52.25 100 52 99.75 52 99.5 C 52 98.5 53.272637 98.522637 53.75 99 C 54 99.25 54 99.719836 54 100.25 C 54 103 50.75 100.75 50 100 C 49.75 100.75 47 103.54138 47 100.5 C 47 99.75 47.5 98.5 48.5 98.5 z M 73.5 98.5 C 74 98.5 75.25 98.5 76 99.25 C 76.25 99.5 77.25 100.75 77.25 100.75 C 77.25 100 77 99.75 77 99.5 C 77 98.5 78.272637 98.522637 78.75 99 C 79 99.25 79 99.719836 79 100.25 C 79 103 75.75 100.75 75 100 C 74.75 100.75 72 103.54138 72 100.5 C 72 99.75 72.5 98.5 73.5 98.5 z M 99.5 98.5 C 100 98.5 101.25 98.5 102 99.25 C 102.25 99.5 103.25 100.75 103.25 100.75 C 103.25 100 103 99.75 103 99.5 C 103 98.5 104.27264 98.522637 104.75 99 C 105 99.25 105 99.719836 105 100.25 C 105 103 101.75 100.75 101 100 C 100.75 100.75 98 103.54138 98 100.5 C 98 99.75 98.5 98.5 99.5 98.5 z M 24.25 101.5 C 24.686441 101.93644 25.159359 102.28318 25.630859 102.55078 L 24.978516 103.13086 L 23.876953 101.89258 C 24.06213 101.73093 24.209119 101.58176 24.25 101.5 z M 50.25 101.5 C 50.686441 101.93644 51.159359 102.28318 51.630859 102.55078 L 50.978516 103.13086 L 49.876953 101.89258 C 50.06213 101.73093 50.209119 101.58176 50.25 101.5 z M 75.25 101.5 C 75.686441 101.93644 76.159359 102.28318 76.630859 102.55078 L 75.978516 103.13086 L 74.876953 101.89258 C 75.06213 101.73093 75.209119 101.58176 75.25 101.5 z M 101.25 101.5 C 101.68644 101.93644 102.15936 102.28318 102.63086 102.55078 L 101.97852 103.13086 L 100.87695 101.89258 C 101.06213 101.73093 101.20912 101.58176 101.25 101.5 z M 9.75 111 C 8.736727 111 7.5 111.82814 7.5 113.5 C 7.5 115.65098 8.3964761 116.00548 9.3144531 115.76953 L 10.464844 116.75586 C 10.378726 117.54726 9.904824 118.77379 9 119 L 14.5 119 C 13.51822 118.75455 13.0257 117.31134 13.007812 116.54883 L 13.640625 115.98633 C 14.930953 116.30883 16 115.68294 16 113.5 C 16 110.75 13 110.75 12.25 111.75 C 11.4659 111.25994 10.75 111 9.75 111 z M 35.75 111 C 34.736727 111 33.5 111.82814 33.5 113.5 C 33.5 115.65098 34.396476 116.00548 35.314453 115.76953 L 36.464844 116.75586 C 36.378726 117.54726 35.904824 118.77379 35 119 L 40.5 119 C 39.51822 118.75455 39.0257 117.31134 39.007812 116.54883 L 39.640625 115.98633 C 40.930953 116.30883 42 115.68294 42 113.5 C 42 110.75 39 110.75 38.25 111.75 C 37.4659 111.25994 36.75 111 35.75 111 z M 61.75 111 C 60.736727 111 59.5 111.82814 59.5 113.5 C 59.5 115.65098 60.396476 116.00548 61.314453 115.76953 L 62.464844 116.75586 C 62.378726 117.54726 61.904824 118.77379 61 119 L 66.5 119 C 65.51822 118.75455 65.0257 117.31134 65.007812 116.54883 L 65.640625 115.98633 C 66.930953 116.30883 68 115.68294 68 113.5 C 68 110.75 65 110.75 64.25 111.75 C 63.4659 111.25994 62.75 111 61.75 111 z M 86.75 111 C 85.736727 111 84.5 111.82814 84.5 113.5 C 84.5 115.65098 85.396476 116.00548 86.314453 115.76953 L 87.464844 116.75586 C 87.378726 117.54726 86.904824 118.77379 86 119 L 91.5 119 C 90.51822 118.75455 90.0257 117.31134 90.007812 116.54883 L 90.640625 115.98633 C 91.930953 116.30883 93 115.68294 93 113.5 C 93 110.75 90 110.75 89.25 111.75 C 88.4659 111.25994 87.75 111 86.75 111 z M 112.75 111 C 111.73673 111 110.5 111.82814 110.5 113.5 C 110.5 115.65098 111.39648 116.00548 112.31445 115.76953 L 113.46484 116.75586 C 113.37873 117.54726 112.90482 118.77379 112 119 L 117.5 119 C 116.51822 118.75455 116.0257 117.31134 116.00781 116.54883 L 116.64062 115.98633 C 117.93094 116.30883 119 115.68294 119 113.5 C 119 110.75 116 110.75 115.25 111.75 C 114.4659 111.25994 113.75 111 112.75 111 z M 9.5 111.5 C 10 111.5 11.25 111.5 12 112.25 C 12.25 112.5 13.25 113.75 13.25 113.75 C 13.25 113 13 112.75 13 112.5 C 13 111.5 14.272637 111.52264 14.75 112 C 15 112.25 15 112.71984 15 113.25 C 15 116 11.75 113.75 11 113 C 10.75 113.75 8 116.54138 8 113.5 C 8 112.75 8.5 111.5 9.5 111.5 z M 35.5 111.5 C 36 111.5 37.25 111.5 38 112.25 C 38.25 112.5 39.25 113.75 39.25 113.75 C 39.25 113 39 112.75 39 112.5 C 39 111.5 40.272637 111.52264 40.75 112 C 41 112.25 41 112.71984 41 113.25 C 41 116 37.75 113.75 37 113 C 36.75 113.75 34 116.54138 34 113.5 C 34 112.75 34.5 111.5 35.5 111.5 z M 61.5 111.5 C 62 111.5 63.25 111.5 64 112.25 C 64.25 112.5 65.25 113.75 65.25 113.75 C 65.25 113 65 112.75 65 112.5 C 65 111.5 66.272637 111.52264 66.75 112 C 67 112.25 67 112.71984 67 113.25 C 67 116 63.75 113.75 63 113 C 62.75 113.75 60 116.54138 60 113.5 C 60 112.75 60.5 111.5 61.5 111.5 z M 86.5 111.5 C 87 111.5 88.25 111.5 89 112.25 C 89.25 112.5 90.25 113.75 90.25 113.75 C 90.25 113 90 112.75 90 112.5 C 90 111.5 91.272637 111.52264 91.75 112 C 92 112.25 92 112.71984 92 113.25 C 92 116 88.75 113.75 88 113 C 87.75 113.75 85 116.54138 85 113.5 C 85 112.75 85.5 111.5 86.5 111.5 z M 112.5 111.5 C 113 111.5 114.25 111.5 115 112.25 C 115.25 112.5 116.25 113.75 116.25 113.75 C 116.25 113 116 112.75 116 112.5 C 116 111.5 117.27264 111.52264 117.75 112 C 118 112.25 118 112.71984 118 113.25 C 118 116 114.75 113.75 114 113 C 113.75 113.75 111 116.54138 111 113.5 C 111 112.75 111.5 111.5 112.5 111.5 z M 11.25 114.5 C 11.686441 114.93644 12.159359 115.28318 12.630859 115.55078 L 11.978516 116.13086 L 10.876953 114.89258 C 11.06213 114.73093 11.209119 114.58176 11.25 114.5 z M 37.25 114.5 C 37.686441 114.93644 38.159359 115.28318 38.630859 115.55078 L 37.978516 116.13086 L 36.876953 114.89258 C 37.06213 114.73093 37.209119 114.58176 37.25 114.5 z M 63.25 114.5 C 63.686441 114.93644 64.159359 115.28318 64.630859 115.55078 L 63.978516 116.13086 L 62.876953 114.89258 C 63.06213 114.73093 63.209119 114.58176 63.25 114.5 z M 88.25 114.5 C 88.686441 114.93644 89.159359 115.28318 89.630859 115.55078 L 88.978516 116.13086 L 87.876953 114.89258 C 88.06213 114.73093 88.209119 114.58176 88.25 114.5 z M 114.25 114.5 C 114.68644 114.93644 115.15936 115.28318 115.63086 115.55078 L 114.97852 116.13086 L 113.87695 114.89258 C 114.06213 114.73093 114.20912 114.58176 114.25 114.5 z M 22.75 124 C 21.736727 124 20.5 124.82814 20.5 126.5 C 20.5 127.16588 20.592412 127.64267 20.738281 128 L 23.972656 128 L 23.876953 127.89258 C 24.06213 127.73093 24.209119 127.58176 24.25 127.5 C 24.435552 127.68555 24.630345 127.84606 24.826172 128 L 28.746094 128 C 28.90323 127.61505 29 127.12878 29 126.5 C 29 123.75 26 123.75 25.25 124.75 C 24.4659 124.25994 23.75 124 22.75 124 z M 48.75 124 C 47.736727 124 46.5 124.82814 46.5 126.5 C 46.5 127.16588 46.592412 127.64267 46.738281 128 L 49.972656 128 L 49.876953 127.89258 C 50.06213 127.73093 50.209119 127.58176 50.25 127.5 C 50.435552 127.68555 50.630345 127.84606 50.826172 128 L 54.746094 128 C 54.90323 127.61505 55 127.12878 55 126.5 C 55 123.75 52 123.75 51.25 124.75 C 50.4659 124.25994 49.75 124 48.75 124 z M 73.75 124 C 72.736727 124 71.5 124.82814 71.5 126.5 C 71.5 127.16588 71.592412 127.64267 71.738281 128 L 74.972656 128 L 74.876953 127.89258 C 75.06213 127.73093 75.209119 127.58176 75.25 127.5 C 75.435552 127.68555 75.630345 127.84606 75.826172 128 L 79.746094 128 C 79.90323 127.61505 80 127.12878 80 126.5 C 80 123.75 77 123.75 76.25 124.75 C 75.4659 124.25994 74.75 124 73.75 124 z M 99.75 124 C 98.736727 124 97.5 124.82814 97.5 126.5 C 97.5 127.16588 97.592412 127.64267 97.738281 128 L 100.97266 128 L 100.87695 127.89258 C 101.06213 127.73093 101.20912 127.58176 101.25 127.5 C 101.43555 127.68555 101.63035 127.84606 101.82617 128 L 105.74609 128 C 105.90323 127.61505 106 127.12878 106 126.5 C 106 123.75 103 123.75 102.25 124.75 C 101.4659 124.25994 100.75 124 99.75 124 z M 125.75 124 C 125.62334 124 125.49407 124.01315 125.36328 124.03906 C 124.97091 124.11679 124.57102 124.31103 124.24414 124.62305 C 123.91726 124.93506 123.66208 125.36417 123.55469 125.91211 C 123.51889 126.09476 123.5 126.29102 123.5 126.5 C 123.5 127.03775 123.55591 127.46289 123.6543 127.79492 C 123.67774 127.87404 123.71021 127.93124 123.73828 128 L 126.97266 128 L 126.87695 127.89258 C 127.06213 127.73093 127.20912 127.58176 127.25 127.5 C 127.43555 127.68555 127.63035 127.84606 127.82617 128 L 128 128 L 128 126.77734 C 127.77339 126.62886 127.56177 126.47924 127.38672 126.33984 C 127.22607 126.21191 127.09375 126.09375 127 126 C 126.9375 126.1875 126.71875 126.50263 126.42578 126.82227 C 126.13281 127.1419 125.76562 127.46616 125.40625 127.67188 C 125.31641 127.7233 125.22626 127.76804 125.13867 127.80273 C 125.05109 127.83743 124.96558 127.86284 124.88281 127.87695 C 124.80005 127.89107 124.71991 127.89312 124.64453 127.88281 C 124.49377 127.8622 124.36169 127.7898 124.25586 127.64844 C 124.20294 127.57775 124.15698 127.48945 124.11914 127.38281 C 124.0813 127.27617 124.05145 127.15035 124.03125 127.00391 C 124.01105 126.85747 124 126.69009 124 126.5 C 124 126.3125 124.03125 126.09375 124.09375 125.87109 C 124.125 125.75977 124.16406 125.64697 124.21094 125.53711 C 124.39844 125.09766 124.71094 124.69727 125.14844 124.55469 C 125.25781 124.51904 125.375 124.5 125.5 124.5 C 125.75 124.5 126.1875 124.5 126.65625 124.59375 C 127.00781 124.66406 127.37646 124.78662 127.69727 125.00195 C 127.8042 125.07373 127.90625 125.15625 128 125.25 L 128 124.60938 C 127.50335 124.32682 127.01815 124.13108 126.45312 124.04883 C 126.23313 124.0168 126 124 125.75 124 z M 1.765625 124.13867 C 1.128418 124.14014 0.53125 124.375 0.25 124.75 C 0.16538913 124.69712 0.083465267 124.65686 0 124.60938 L 0 125.25 C 0.25 125.5 1.25 126.75 1.25 126.75 C 1.25 126 1 125.75 1 125.5 C 1 124.5 2.272637 124.52264 2.75 125 C 3 125.25 3 125.71984 3 126.25 C 3 128.28168 1.2291427 127.58272 0 126.77734 L 0 128 L 3.7460938 128 C 3.9032303 127.61505 4 127.12878 4 126.5 C 4 124.78125 2.8276367 124.13623 1.765625 124.13867 z M 22.5 124.5 C 23 124.5 24.25 124.5 25 125.25 C 25.25 125.5 26.25 126.75 26.25 126.75 C 26.25 126 26 125.75 26 125.5 C 26 124.5 27.272637 124.52264 27.75 125 C 28 125.25 28 125.71984 28 126.25 C 28 129 24.75 126.75 24 126 C 23.75 126.75 21 129.54138 21 126.5 C 21 125.75 21.5 124.5 22.5 124.5 z M 48.5 124.5 C 49 124.5 50.25 124.5 51 125.25 C 51.25 125.5 52.25 126.75 52.25 126.75 C 52.25 126 52 125.75 52 125.5 C 52 124.5 53.272637 124.52264 53.75 125 C 54 125.25 54 125.71984 54 126.25 C 54 129 50.75 126.75 50 126 C 49.75 126.75 47 129.54138 47 126.5 C 47 125.75 47.5 124.5 48.5 124.5 z M 73.5 124.5 C 74 124.5 75.25 124.5 76 125.25 C 76.25 125.5 77.25 126.75 77.25 126.75 C 77.25 126 77 125.75 77 125.5 C 77 124.5 78.272637 124.52264 78.75 125 C 79 125.25 79 125.71984 79 126.25 C 79 129 75.75 126.75 75 126 C 74.75 126.75 72 129.54138 72 126.5 C 72 125.75 72.5 124.5 73.5 124.5 z M 99.5 124.5 C 100 124.5 101.25 124.5 102 125.25 C 102.25 125.5 103.25 126.75 103.25 126.75 C 103.25 126 103 125.75 103 125.5 C 103 124.5 104.27264 124.52264 104.75 125 C 105 125.25 105 125.71984 105 126.25 C 105 129 101.75 126.75 101 126 C 100.75 126.75 98 129.54138 98 126.5 C 98 125.75 98.5 124.5 99.5 124.5 z " style="fill:#96cc8b" />
  <rect
     style="fill:none;fill-opacity:1;stroke:none"
     id="rect8566"
     y="0"
     x="0"
     rx="0"
     height="128"
     width="128" />
  <desc
     id="desc266">Created with Snap</desc>
</svg>
