<?xml version="1.0" encoding="UTF-8" standalone="no"?>
<svg
   xmlns:dc="http://purl.org/dc/elements/1.1/"
   xmlns:cc="http://creativecommons.org/ns#"
   xmlns:rdf="http://www.w3.org/1999/02/22-rdf-syntax-ns#"
   xmlns:svg="http://www.w3.org/2000/svg"
   xmlns="http://www.w3.org/2000/svg"
   version="1.1"
   height="128"
   width="128"
   id="Svg">
  <metadata
     id="metadata2450">
    <rdf:RDF>
      <cc:Work
         rdf:about="">
        <dc:format>image/svg+xml</dc:format>
        <dc:type
           rdf:resource="http://purl.org/dc/dcmitype/StillImage" />
      </cc:Work>
    </rdf:RDF>
  </metadata>
  <defs
     id="defs3" />
  <path
     id="path10962"
     d="M 4 0 L 4 1 L 5 1 L 5 0 L 4 0 z M 12 0 L 12 1 L 13 1 L 13 0 L 12 0 z M 20 0 L 20 1 L 21 1 L 21 0 L 20 0 z M 28 0 L 28 1 L 29 1 L 29 0 L 28 0 z M 36 0 L 36 1 L 37 1 L 37 0 L 36 0 z M 44 0 L 44 1 L 45 1 L 45 0 L 44 0 z M 52 0 L 52 1 L 53 1 L 53 0 L 52 0 z M 60 0 L 60 1 L 61 1 L 61 0 L 60 0 z M 68 0 L 68 1 L 69 1 L 69 0 L 68 0 z M 76 0 L 76 1 L 77 1 L 77 0 L 76 0 z M 84 0 L 84 1 L 85 1 L 85 0 L 84 0 z M 92 0 L 92 1 L 93 1 L 93 0 L 92 0 z M 100 0 L 100 1 L 101 1 L 101 0 L 100 0 z M 108 0 L 108 1 L 109 1 L 109 0 L 108 0 z M 116 0 L 116 1 L 117 1 L 117 0 L 116 0 z M 124 0 L 124 1 L 125 1 L 125 0 L 124 0 z M 0 4 L 0 5 L 1 5 L 1 4 L 0 4 z M 8 4 L 8 5 L 9 5 L 9 4 L 8 4 z M 16 4 L 16 5 L 17 5 L 17 4 L 16 4 z M 24 4 L 24 5 L 25 5 L 25 4 L 24 4 z M 32 4 L 32 5 L 33 5 L 33 4 L 32 4 z M 40 4 L 40 5 L 41 5 L 41 4 L 40 4 z M 48 4 L 48 5 L 49 5 L 49 4 L 48 4 z M 56 4 L 56 5 L 57 5 L 57 4 L 56 4 z M 64 4 L 64 5 L 65 5 L 65 4 L 64 4 z M 72 4 L 72 5 L 73 5 L 73 4 L 72 4 z M 80 4 L 80 5 L 81 5 L 81 4 L 80 4 z M 88 4 L 88 5 L 89 5 L 89 4 L 88 4 z M 96 4 L 96 5 L 97 5 L 97 4 L 96 4 z M 104 4 L 104 5 L 105 5 L 105 4 L 104 4 z M 112 4 L 112 5 L 113 5 L 113 4 L 112 4 z M 120 4 L 120 5 L 121 5 L 121 4 L 120 4 z M 4 8 L 4 9 L 5 9 L 5 8 L 4 8 z M 12 8 L 12 9 L 13 9 L 13 8 L 12 8 z M 20 8 L 20 9 L 21 9 L 21 8 L 20 8 z M 28 8 L 28 9 L 29 9 L 29 8 L 28 8 z M 36 8 L 36 9 L 37 9 L 37 8 L 36 8 z M 44 8 L 44 9 L 45 9 L 45 8 L 44 8 z M 52 8 L 52 9 L 53 9 L 53 8 L 52 8 z M 60 8 L 60 9 L 61 9 L 61 8 L 60 8 z M 68 8 L 68 9 L 69 9 L 69 8 L 68 8 z M 76 8 L 76 9 L 77 9 L 77 8 L 76 8 z M 84 8 L 84 9 L 85 9 L 85 8 L 84 8 z M 92 8 L 92 9 L 93 9 L 93 8 L 92 8 z M 100 8 L 100 9 L 101 9 L 101 8 L 100 8 z M 108 8 L 108 9 L 109 9 L 109 8 L 108 8 z M 116 8 L 116 9 L 117 9 L 117 8 L 116 8 z M 124 8 L 124 9 L 125 9 L 125 8 L 124 8 z M 0 12 L 0 13 L 1 13 L 1 12 L 0 12 z M 8 12 L 8 13 L 9 13 L 9 12 L 8 12 z M 16 12 L 16 13 L 17 13 L 17 12 L 16 12 z M 24 12 L 24 13 L 25 13 L 25 12 L 24 12 z M 32 12 L 32 13 L 33 13 L 33 12 L 32 12 z M 40 12 L 40 13 L 41 13 L 41 12 L 40 12 z M 48 12 L 48 13 L 49 13 L 49 12 L 48 12 z M 56 12 L 56 13 L 57 13 L 57 12 L 56 12 z M 64 12 L 64 13 L 65 13 L 65 12 L 64 12 z M 72 12 L 72 13 L 73 13 L 73 12 L 72 12 z M 80 12 L 80 13 L 81 13 L 81 12 L 80 12 z M 88 12 L 88 13 L 89 13 L 89 12 L 88 12 z M 96 12 L 96 13 L 97 13 L 97 12 L 96 12 z M 104 12 L 104 13 L 105 13 L 105 12 L 104 12 z M 112 12 L 112 13 L 113 13 L 113 12 L 112 12 z M 120 12 L 120 13 L 121 13 L 121 12 L 120 12 z M 4 16 L 4 17 L 5 17 L 5 16 L 4 16 z M 12 16 L 12 17 L 13 17 L 13 16 L 12 16 z M 20 16 L 20 17 L 21 17 L 21 16 L 20 16 z M 28 16 L 28 17 L 29 17 L 29 16 L 28 16 z M 36 16 L 36 17 L 37 17 L 37 16 L 36 16 z M 44 16 L 44 17 L 45 17 L 45 16 L 44 16 z M 52 16 L 52 17 L 53 17 L 53 16 L 52 16 z M 60 16 L 60 17 L 61 17 L 61 16 L 60 16 z M 68 16 L 68 17 L 69 17 L 69 16 L 68 16 z M 76 16 L 76 17 L 77 17 L 77 16 L 76 16 z M 84 16 L 84 17 L 85 17 L 85 16 L 84 16 z M 92 16 L 92 17 L 93 17 L 93 16 L 92 16 z M 100 16 L 100 17 L 101 17 L 101 16 L 100 16 z M 108 16 L 108 17 L 109 17 L 109 16 L 108 16 z M 116 16 L 116 17 L 117 17 L 117 16 L 116 16 z M 124 16 L 124 17 L 125 17 L 125 16 L 124 16 z M 0 20 L 0 21 L 1 21 L 1 20 L 0 20 z M 8 20 L 8 21 L 9 21 L 9 20 L 8 20 z M 16 20 L 16 21 L 17 21 L 17 20 L 16 20 z M 24 20 L 24 21 L 25 21 L 25 20 L 24 20 z M 32 20 L 32 21 L 33 21 L 33 20 L 32 20 z M 40 20 L 40 21 L 41 21 L 41 20 L 40 20 z M 48 20 L 48 21 L 49 21 L 49 20 L 48 20 z M 56 20 L 56 21 L 57 21 L 57 20 L 56 20 z M 64 20 L 64 21 L 65 21 L 65 20 L 64 20 z M 72 20 L 72 21 L 73 21 L 73 20 L 72 20 z M 80 20 L 80 21 L 81 21 L 81 20 L 80 20 z M 88 20 L 88 21 L 89 21 L 89 20 L 88 20 z M 96 20 L 96 21 L 97 21 L 97 20 L 96 20 z M 104 20 L 104 21 L 105 21 L 105 20 L 104 20 z M 112 20 L 112 21 L 113 21 L 113 20 L 112 20 z M 120 20 L 120 21 L 121 21 L 121 20 L 120 20 z M 4 24 L 4 25 L 5 25 L 5 24 L 4 24 z M 12 24 L 12 25 L 13 25 L 13 24 L 12 24 z M 20 24 L 20 25 L 21 25 L 21 24 L 20 24 z M 28 24 L 28 25 L 29 25 L 29 24 L 28 24 z M 36 24 L 36 25 L 37 25 L 37 24 L 36 24 z M 44 24 L 44 25 L 45 25 L 45 24 L 44 24 z M 52 24 L 52 25 L 53 25 L 53 24 L 52 24 z M 60 24 L 60 25 L 61 25 L 61 24 L 60 24 z M 68 24 L 68 25 L 69 25 L 69 24 L 68 24 z M 76 24 L 76 25 L 77 25 L 77 24 L 76 24 z M 84 24 L 84 25 L 85 25 L 85 24 L 84 24 z M 92 24 L 92 25 L 93 25 L 93 24 L 92 24 z M 100 24 L 100 25 L 101 25 L 101 24 L 100 24 z M 108 24 L 108 25 L 109 25 L 109 24 L 108 24 z M 116 24 L 116 25 L 117 25 L 117 24 L 116 24 z M 124 24 L 124 25 L 125 25 L 125 24 L 124 24 z M 0 28 L 0 29 L 1 29 L 1 28 L 0 28 z M 8 28 L 8 29 L 9 29 L 9 28 L 8 28 z M 16 28 L 16 29 L 17 29 L 17 28 L 16 28 z M 24 28 L 24 29 L 25 29 L 25 28 L 24 28 z M 32 28 L 32 29 L 33 29 L 33 28 L 32 28 z M 40 28 L 40 29 L 41 29 L 41 28 L 40 28 z M 48 28 L 48 29 L 49 29 L 49 28 L 48 28 z M 56 28 L 56 29 L 57 29 L 57 28 L 56 28 z M 64 28 L 64 29 L 65 29 L 65 28 L 64 28 z M 72 28 L 72 29 L 73 29 L 73 28 L 72 28 z M 80 28 L 80 29 L 81 29 L 81 28 L 80 28 z M 88 28 L 88 29 L 89 29 L 89 28 L 88 28 z M 96 28 L 96 29 L 97 29 L 97 28 L 96 28 z M 104 28 L 104 29 L 105 29 L 105 28 L 104 28 z M 112 28 L 112 29 L 113 29 L 113 28 L 112 28 z M 120 28 L 120 29 L 121 29 L 121 28 L 120 28 z M 4 32 L 4 33 L 5 33 L 5 32 L 4 32 z M 12 32 L 12 33 L 13 33 L 13 32 L 12 32 z M 20 32 L 20 33 L 21 33 L 21 32 L 20 32 z M 28 32 L 28 33 L 29 33 L 29 32 L 28 32 z M 36 32 L 36 33 L 37 33 L 37 32 L 36 32 z M 44 32 L 44 33 L 45 33 L 45 32 L 44 32 z M 52 32 L 52 33 L 53 33 L 53 32 L 52 32 z M 60 32 L 60 33 L 61 33 L 61 32 L 60 32 z M 68 32 L 68 33 L 69 33 L 69 32 L 68 32 z M 76 32 L 76 33 L 77 33 L 77 32 L 76 32 z M 84 32 L 84 33 L 85 33 L 85 32 L 84 32 z M 92 32 L 92 33 L 93 33 L 93 32 L 92 32 z M 100 32 L 100 33 L 101 33 L 101 32 L 100 32 z M 108 32 L 108 33 L 109 33 L 109 32 L 108 32 z M 116 32 L 116 33 L 117 33 L 117 32 L 116 32 z M 124 32 L 124 33 L 125 33 L 125 32 L 124 32 z M 0 36 L 0 37 L 1 37 L 1 36 L 0 36 z M 8 36 L 8 37 L 9 37 L 9 36 L 8 36 z M 16 36 L 16 37 L 17 37 L 17 36 L 16 36 z M 24 36 L 24 37 L 25 37 L 25 36 L 24 36 z M 32 36 L 32 37 L 33 37 L 33 36 L 32 36 z M 40 36 L 40 37 L 41 37 L 41 36 L 40 36 z M 48 36 L 48 37 L 49 37 L 49 36 L 48 36 z M 56 36 L 56 37 L 57 37 L 57 36 L 56 36 z M 64 36 L 64 37 L 65 37 L 65 36 L 64 36 z M 72 36 L 72 37 L 73 37 L 73 36 L 72 36 z M 80 36 L 80 37 L 81 37 L 81 36 L 80 36 z M 88 36 L 88 37 L 89 37 L 89 36 L 88 36 z M 96 36 L 96 37 L 97 37 L 97 36 L 96 36 z M 104 36 L 104 37 L 105 37 L 105 36 L 104 36 z M 112 36 L 112 37 L 113 37 L 113 36 L 112 36 z M 120 36 L 120 37 L 121 37 L 121 36 L 120 36 z M 4 40 L 4 41 L 5 41 L 5 40 L 4 40 z M 12 40 L 12 41 L 13 41 L 13 40 L 12 40 z M 20 40 L 20 41 L 21 41 L 21 40 L 20 40 z M 28 40 L 28 41 L 29 41 L 29 40 L 28 40 z M 36 40 L 36 41 L 37 41 L 37 40 L 36 40 z M 44 40 L 44 41 L 45 41 L 45 40 L 44 40 z M 52 40 L 52 41 L 53 41 L 53 40 L 52 40 z M 60 40 L 60 41 L 61 41 L 61 40 L 60 40 z M 68 40 L 68 41 L 69 41 L 69 40 L 68 40 z M 76 40 L 76 41 L 77 41 L 77 40 L 76 40 z M 84 40 L 84 41 L 85 41 L 85 40 L 84 40 z M 92 40 L 92 41 L 93 41 L 93 40 L 92 40 z M 100 40 L 100 41 L 101 41 L 101 40 L 100 40 z M 108 40 L 108 41 L 109 41 L 109 40 L 108 40 z M 116 40 L 116 41 L 117 41 L 117 40 L 116 40 z M 124 40 L 124 41 L 125 41 L 125 40 L 124 40 z M 0 44 L 0 45 L 1 45 L 1 44 L 0 44 z M 8 44 L 8 45 L 9 45 L 9 44 L 8 44 z M 16 44 L 16 45 L 17 45 L 17 44 L 16 44 z M 24 44 L 24 45 L 25 45 L 25 44 L 24 44 z M 32 44 L 32 45 L 33 45 L 33 44 L 32 44 z M 40 44 L 40 45 L 41 45 L 41 44 L 40 44 z M 48 44 L 48 45 L 49 45 L 49 44 L 48 44 z M 56 44 L 56 45 L 57 45 L 57 44 L 56 44 z M 64 44 L 64 45 L 65 45 L 65 44 L 64 44 z M 72 44 L 72 45 L 73 45 L 73 44 L 72 44 z M 80 44 L 80 45 L 81 45 L 81 44 L 80 44 z M 88 44 L 88 45 L 89 45 L 89 44 L 88 44 z M 96 44 L 96 45 L 97 45 L 97 44 L 96 44 z M 104 44 L 104 45 L 105 45 L 105 44 L 104 44 z M 112 44 L 112 45 L 113 45 L 113 44 L 112 44 z M 120 44 L 120 45 L 121 45 L 121 44 L 120 44 z M 4 48 L 4 49 L 5 49 L 5 48 L 4 48 z M 12 48 L 12 49 L 13 49 L 13 48 L 12 48 z M 20 48 L 20 49 L 21 49 L 21 48 L 20 48 z M 28 48 L 28 49 L 29 49 L 29 48 L 28 48 z M 36 48 L 36 49 L 37 49 L 37 48 L 36 48 z M 44 48 L 44 49 L 45 49 L 45 48 L 44 48 z M 52 48 L 52 49 L 53 49 L 53 48 L 52 48 z M 60 48 L 60 49 L 61 49 L 61 48 L 60 48 z M 68 48 L 68 49 L 69 49 L 69 48 L 68 48 z M 76 48 L 76 49 L 77 49 L 77 48 L 76 48 z M 84 48 L 84 49 L 85 49 L 85 48 L 84 48 z M 92 48 L 92 49 L 93 49 L 93 48 L 92 48 z M 100 48 L 100 49 L 101 49 L 101 48 L 100 48 z M 108 48 L 108 49 L 109 49 L 109 48 L 108 48 z M 116 48 L 116 49 L 117 49 L 117 48 L 116 48 z M 124 48 L 124 49 L 125 49 L 125 48 L 124 48 z M 0 52 L 0 53 L 1 53 L 1 52 L 0 52 z M 8 52 L 8 53 L 9 53 L 9 52 L 8 52 z M 16 52 L 16 53 L 17 53 L 17 52 L 16 52 z M 24 52 L 24 53 L 25 53 L 25 52 L 24 52 z M 32 52 L 32 53 L 33 53 L 33 52 L 32 52 z M 40 52 L 40 53 L 41 53 L 41 52 L 40 52 z M 48 52 L 48 53 L 49 53 L 49 52 L 48 52 z M 56 52 L 56 53 L 57 53 L 57 52 L 56 52 z M 64 52 L 64 53 L 65 53 L 65 52 L 64 52 z M 72 52 L 72 53 L 73 53 L 73 52 L 72 52 z M 80 52 L 80 53 L 81 53 L 81 52 L 80 52 z M 88 52 L 88 53 L 89 53 L 89 52 L 88 52 z M 96 52 L 96 53 L 97 53 L 97 52 L 96 52 z M 104 52 L 104 53 L 105 53 L 105 52 L 104 52 z M 112 52 L 112 53 L 113 53 L 113 52 L 112 52 z M 120 52 L 120 53 L 121 53 L 121 52 L 120 52 z M 4 56 L 4 57 L 5 57 L 5 56 L 4 56 z M 12 56 L 12 57 L 13 57 L 13 56 L 12 56 z M 20 56 L 20 57 L 21 57 L 21 56 L 20 56 z M 28 56 L 28 57 L 29 57 L 29 56 L 28 56 z M 36 56 L 36 57 L 37 57 L 37 56 L 36 56 z M 44 56 L 44 57 L 45 57 L 45 56 L 44 56 z M 52 56 L 52 57 L 53 57 L 53 56 L 52 56 z M 60 56 L 60 57 L 61 57 L 61 56 L 60 56 z M 68 56 L 68 57 L 69 57 L 69 56 L 68 56 z M 76 56 L 76 57 L 77 57 L 77 56 L 76 56 z M 84 56 L 84 57 L 85 57 L 85 56 L 84 56 z M 92 56 L 92 57 L 93 57 L 93 56 L 92 56 z M 100 56 L 100 57 L 101 57 L 101 56 L 100 56 z M 108 56 L 108 57 L 109 57 L 109 56 L 108 56 z M 116 56 L 116 57 L 117 57 L 117 56 L 116 56 z M 124 56 L 124 57 L 125 57 L 125 56 L 124 56 z M 0 60 L 0 61 L 1 61 L 1 60 L 0 60 z M 8 60 L 8 61 L 9 61 L 9 60 L 8 60 z M 16 60 L 16 61 L 17 61 L 17 60 L 16 60 z M 24 60 L 24 61 L 25 61 L 25 60 L 24 60 z M 32 60 L 32 61 L 33 61 L 33 60 L 32 60 z M 40 60 L 40 61 L 41 61 L 41 60 L 40 60 z M 48 60 L 48 61 L 49 61 L 49 60 L 48 60 z M 56 60 L 56 61 L 57 61 L 57 60 L 56 60 z M 64 60 L 64 61 L 65 61 L 65 60 L 64 60 z M 72 60 L 72 61 L 73 61 L 73 60 L 72 60 z M 80 60 L 80 61 L 81 61 L 81 60 L 80 60 z M 88 60 L 88 61 L 89 61 L 89 60 L 88 60 z M 96 60 L 96 61 L 97 61 L 97 60 L 96 60 z M 104 60 L 104 61 L 105 61 L 105 60 L 104 60 z M 112 60 L 112 61 L 113 61 L 113 60 L 112 60 z M 120 60 L 120 61 L 121 61 L 121 60 L 120 60 z M 4 64 L 4 65 L 5 65 L 5 64 L 4 64 z M 12 64 L 12 65 L 13 65 L 13 64 L 12 64 z M 20 64 L 20 65 L 21 65 L 21 64 L 20 64 z M 28 64 L 28 65 L 29 65 L 29 64 L 28 64 z M 36 64 L 36 65 L 37 65 L 37 64 L 36 64 z M 44 64 L 44 65 L 45 65 L 45 64 L 44 64 z M 52 64 L 52 65 L 53 65 L 53 64 L 52 64 z M 60 64 L 60 65 L 61 65 L 61 64 L 60 64 z M 68 64 L 68 65 L 69 65 L 69 64 L 68 64 z M 76 64 L 76 65 L 77 65 L 77 64 L 76 64 z M 84 64 L 84 65 L 85 65 L 85 64 L 84 64 z M 92 64 L 92 65 L 93 65 L 93 64 L 92 64 z M 100 64 L 100 65 L 101 65 L 101 64 L 100 64 z M 108 64 L 108 65 L 109 65 L 109 64 L 108 64 z M 116 64 L 116 65 L 117 65 L 117 64 L 116 64 z M 124 64 L 124 65 L 125 65 L 125 64 L 124 64 z M 0 68 L 0 69 L 1 69 L 1 68 L 0 68 z M 8 68 L 8 69 L 9 69 L 9 68 L 8 68 z M 16 68 L 16 69 L 17 69 L 17 68 L 16 68 z M 24 68 L 24 69 L 25 69 L 25 68 L 24 68 z M 32 68 L 32 69 L 33 69 L 33 68 L 32 68 z M 40 68 L 40 69 L 41 69 L 41 68 L 40 68 z M 48 68 L 48 69 L 49 69 L 49 68 L 48 68 z M 56 68 L 56 69 L 57 69 L 57 68 L 56 68 z M 64 68 L 64 69 L 65 69 L 65 68 L 64 68 z M 72 68 L 72 69 L 73 69 L 73 68 L 72 68 z M 80 68 L 80 69 L 81 69 L 81 68 L 80 68 z M 88 68 L 88 69 L 89 69 L 89 68 L 88 68 z M 96 68 L 96 69 L 97 69 L 97 68 L 96 68 z M 104 68 L 104 69 L 105 69 L 105 68 L 104 68 z M 112 68 L 112 69 L 113 69 L 113 68 L 112 68 z M 120 68 L 120 69 L 121 69 L 121 68 L 120 68 z M 4 72 L 4 73 L 5 73 L 5 72 L 4 72 z M 12 72 L 12 73 L 13 73 L 13 72 L 12 72 z M 20 72 L 20 73 L 21 73 L 21 72 L 20 72 z M 28 72 L 28 73 L 29 73 L 29 72 L 28 72 z M 36 72 L 36 73 L 37 73 L 37 72 L 36 72 z M 44 72 L 44 73 L 45 73 L 45 72 L 44 72 z M 52 72 L 52 73 L 53 73 L 53 72 L 52 72 z M 60 72 L 60 73 L 61 73 L 61 72 L 60 72 z M 68 72 L 68 73 L 69 73 L 69 72 L 68 72 z M 76 72 L 76 73 L 77 73 L 77 72 L 76 72 z M 84 72 L 84 73 L 85 73 L 85 72 L 84 72 z M 92 72 L 92 73 L 93 73 L 93 72 L 92 72 z M 100 72 L 100 73 L 101 73 L 101 72 L 100 72 z M 108 72 L 108 73 L 109 73 L 109 72 L 108 72 z M 116 72 L 116 73 L 117 73 L 117 72 L 116 72 z M 124 72 L 124 73 L 125 73 L 125 72 L 124 72 z M 0 76 L 0 77 L 1 77 L 1 76 L 0 76 z M 8 76 L 8 77 L 9 77 L 9 76 L 8 76 z M 16 76 L 16 77 L 17 77 L 17 76 L 16 76 z M 24 76 L 24 77 L 25 77 L 25 76 L 24 76 z M 32 76 L 32 77 L 33 77 L 33 76 L 32 76 z M 40 76 L 40 77 L 41 77 L 41 76 L 40 76 z M 48 76 L 48 77 L 49 77 L 49 76 L 48 76 z M 56 76 L 56 77 L 57 77 L 57 76 L 56 76 z M 64 76 L 64 77 L 65 77 L 65 76 L 64 76 z M 72 76 L 72 77 L 73 77 L 73 76 L 72 76 z M 80 76 L 80 77 L 81 77 L 81 76 L 80 76 z M 88 76 L 88 77 L 89 77 L 89 76 L 88 76 z M 96 76 L 96 77 L 97 77 L 97 76 L 96 76 z M 104 76 L 104 77 L 105 77 L 105 76 L 104 76 z M 112 76 L 112 77 L 113 77 L 113 76 L 112 76 z M 120 76 L 120 77 L 121 77 L 121 76 L 120 76 z M 4 80 L 4 81 L 5 81 L 5 80 L 4 80 z M 12 80 L 12 81 L 13 81 L 13 80 L 12 80 z M 20 80 L 20 81 L 21 81 L 21 80 L 20 80 z M 28 80 L 28 81 L 29 81 L 29 80 L 28 80 z M 36 80 L 36 81 L 37 81 L 37 80 L 36 80 z M 44 80 L 44 81 L 45 81 L 45 80 L 44 80 z M 52 80 L 52 81 L 53 81 L 53 80 L 52 80 z M 60 80 L 60 81 L 61 81 L 61 80 L 60 80 z M 68 80 L 68 81 L 69 81 L 69 80 L 68 80 z M 76 80 L 76 81 L 77 81 L 77 80 L 76 80 z M 84 80 L 84 81 L 85 81 L 85 80 L 84 80 z M 92 80 L 92 81 L 93 81 L 93 80 L 92 80 z M 100 80 L 100 81 L 101 81 L 101 80 L 100 80 z M 108 80 L 108 81 L 109 81 L 109 80 L 108 80 z M 116 80 L 116 81 L 117 81 L 117 80 L 116 80 z M 124 80 L 124 81 L 125 81 L 125 80 L 124 80 z M 0 84 L 0 85 L 1 85 L 1 84 L 0 84 z M 8 84 L 8 85 L 9 85 L 9 84 L 8 84 z M 16 84 L 16 85 L 17 85 L 17 84 L 16 84 z M 24 84 L 24 85 L 25 85 L 25 84 L 24 84 z M 32 84 L 32 85 L 33 85 L 33 84 L 32 84 z M 40 84 L 40 85 L 41 85 L 41 84 L 40 84 z M 48 84 L 48 85 L 49 85 L 49 84 L 48 84 z M 56 84 L 56 85 L 57 85 L 57 84 L 56 84 z M 64 84 L 64 85 L 65 85 L 65 84 L 64 84 z M 72 84 L 72 85 L 73 85 L 73 84 L 72 84 z M 80 84 L 80 85 L 81 85 L 81 84 L 80 84 z M 88 84 L 88 85 L 89 85 L 89 84 L 88 84 z M 96 84 L 96 85 L 97 85 L 97 84 L 96 84 z M 104 84 L 104 85 L 105 85 L 105 84 L 104 84 z M 112 84 L 112 85 L 113 85 L 113 84 L 112 84 z M 120 84 L 120 85 L 121 85 L 121 84 L 120 84 z M 4 88 L 4 89 L 5 89 L 5 88 L 4 88 z M 12 88 L 12 89 L 13 89 L 13 88 L 12 88 z M 20 88 L 20 89 L 21 89 L 21 88 L 20 88 z M 28 88 L 28 89 L 29 89 L 29 88 L 28 88 z M 36 88 L 36 89 L 37 89 L 37 88 L 36 88 z M 44 88 L 44 89 L 45 89 L 45 88 L 44 88 z M 52 88 L 52 89 L 53 89 L 53 88 L 52 88 z M 60 88 L 60 89 L 61 89 L 61 88 L 60 88 z M 68 88 L 68 89 L 69 89 L 69 88 L 68 88 z M 76 88 L 76 89 L 77 89 L 77 88 L 76 88 z M 84 88 L 84 89 L 85 89 L 85 88 L 84 88 z M 92 88 L 92 89 L 93 89 L 93 88 L 92 88 z M 100 88 L 100 89 L 101 89 L 101 88 L 100 88 z M 108 88 L 108 89 L 109 89 L 109 88 L 108 88 z M 116 88 L 116 89 L 117 89 L 117 88 L 116 88 z M 124 88 L 124 89 L 125 89 L 125 88 L 124 88 z M 0 92 L 0 93 L 1 93 L 1 92 L 0 92 z M 8 92 L 8 93 L 9 93 L 9 92 L 8 92 z M 16 92 L 16 93 L 17 93 L 17 92 L 16 92 z M 24 92 L 24 93 L 25 93 L 25 92 L 24 92 z M 32 92 L 32 93 L 33 93 L 33 92 L 32 92 z M 40 92 L 40 93 L 41 93 L 41 92 L 40 92 z M 48 92 L 48 93 L 49 93 L 49 92 L 48 92 z M 56 92 L 56 93 L 57 93 L 57 92 L 56 92 z M 64 92 L 64 93 L 65 93 L 65 92 L 64 92 z M 72 92 L 72 93 L 73 93 L 73 92 L 72 92 z M 80 92 L 80 93 L 81 93 L 81 92 L 80 92 z M 88 92 L 88 93 L 89 93 L 89 92 L 88 92 z M 96 92 L 96 93 L 97 93 L 97 92 L 96 92 z M 104 92 L 104 93 L 105 93 L 105 92 L 104 92 z M 112 92 L 112 93 L 113 93 L 113 92 L 112 92 z M 120 92 L 120 93 L 121 93 L 121 92 L 120 92 z M 4 96 L 4 97 L 5 97 L 5 96 L 4 96 z M 12 96 L 12 97 L 13 97 L 13 96 L 12 96 z M 20 96 L 20 97 L 21 97 L 21 96 L 20 96 z M 28 96 L 28 97 L 29 97 L 29 96 L 28 96 z M 36 96 L 36 97 L 37 97 L 37 96 L 36 96 z M 44 96 L 44 97 L 45 97 L 45 96 L 44 96 z M 52 96 L 52 97 L 53 97 L 53 96 L 52 96 z M 60 96 L 60 97 L 61 97 L 61 96 L 60 96 z M 68 96 L 68 97 L 69 97 L 69 96 L 68 96 z M 76 96 L 76 97 L 77 97 L 77 96 L 76 96 z M 84 96 L 84 97 L 85 97 L 85 96 L 84 96 z M 92 96 L 92 97 L 93 97 L 93 96 L 92 96 z M 100 96 L 100 97 L 101 97 L 101 96 L 100 96 z M 108 96 L 108 97 L 109 97 L 109 96 L 108 96 z M 116 96 L 116 97 L 117 97 L 117 96 L 116 96 z M 124 96 L 124 97 L 125 97 L 125 96 L 124 96 z M 0 100 L 0 101 L 1 101 L 1 100 L 0 100 z M 8 100 L 8 101 L 9 101 L 9 100 L 8 100 z M 16 100 L 16 101 L 17 101 L 17 100 L 16 100 z M 24 100 L 24 101 L 25 101 L 25 100 L 24 100 z M 32 100 L 32 101 L 33 101 L 33 100 L 32 100 z M 40 100 L 40 101 L 41 101 L 41 100 L 40 100 z M 48 100 L 48 101 L 49 101 L 49 100 L 48 100 z M 56 100 L 56 101 L 57 101 L 57 100 L 56 100 z M 64 100 L 64 101 L 65 101 L 65 100 L 64 100 z M 72 100 L 72 101 L 73 101 L 73 100 L 72 100 z M 80 100 L 80 101 L 81 101 L 81 100 L 80 100 z M 88 100 L 88 101 L 89 101 L 89 100 L 88 100 z M 96 100 L 96 101 L 97 101 L 97 100 L 96 100 z M 104 100 L 104 101 L 105 101 L 105 100 L 104 100 z M 112 100 L 112 101 L 113 101 L 113 100 L 112 100 z M 120 100 L 120 101 L 121 101 L 121 100 L 120 100 z M 4 104 L 4 105 L 5 105 L 5 104 L 4 104 z M 12 104 L 12 105 L 13 105 L 13 104 L 12 104 z M 20 104 L 20 105 L 21 105 L 21 104 L 20 104 z M 28 104 L 28 105 L 29 105 L 29 104 L 28 104 z M 36 104 L 36 105 L 37 105 L 37 104 L 36 104 z M 44 104 L 44 105 L 45 105 L 45 104 L 44 104 z M 52 104 L 52 105 L 53 105 L 53 104 L 52 104 z M 60 104 L 60 105 L 61 105 L 61 104 L 60 104 z M 68 104 L 68 105 L 69 105 L 69 104 L 68 104 z M 76 104 L 76 105 L 77 105 L 77 104 L 76 104 z M 84 104 L 84 105 L 85 105 L 85 104 L 84 104 z M 92 104 L 92 105 L 93 105 L 93 104 L 92 104 z M 100 104 L 100 105 L 101 105 L 101 104 L 100 104 z M 108 104 L 108 105 L 109 105 L 109 104 L 108 104 z M 116 104 L 116 105 L 117 105 L 117 104 L 116 104 z M 124 104 L 124 105 L 125 105 L 125 104 L 124 104 z M 0 108 L 0 109 L 1 109 L 1 108 L 0 108 z M 8 108 L 8 109 L 9 109 L 9 108 L 8 108 z M 16 108 L 16 109 L 17 109 L 17 108 L 16 108 z M 24 108 L 24 109 L 25 109 L 25 108 L 24 108 z M 32 108 L 32 109 L 33 109 L 33 108 L 32 108 z M 40 108 L 40 109 L 41 109 L 41 108 L 40 108 z M 48 108 L 48 109 L 49 109 L 49 108 L 48 108 z M 56 108 L 56 109 L 57 109 L 57 108 L 56 108 z M 64 108 L 64 109 L 65 109 L 65 108 L 64 108 z M 72 108 L 72 109 L 73 109 L 73 108 L 72 108 z M 80 108 L 80 109 L 81 109 L 81 108 L 80 108 z M 88 108 L 88 109 L 89 109 L 89 108 L 88 108 z M 96 108 L 96 109 L 97 109 L 97 108 L 96 108 z M 104 108 L 104 109 L 105 109 L 105 108 L 104 108 z M 112 108 L 112 109 L 113 109 L 113 108 L 112 108 z M 120 108 L 120 109 L 121 109 L 121 108 L 120 108 z M 4 112 L 4 113 L 5 113 L 5 112 L 4 112 z M 12 112 L 12 113 L 13 113 L 13 112 L 12 112 z M 20 112 L 20 113 L 21 113 L 21 112 L 20 112 z M 28 112 L 28 113 L 29 113 L 29 112 L 28 112 z M 36 112 L 36 113 L 37 113 L 37 112 L 36 112 z M 44 112 L 44 113 L 45 113 L 45 112 L 44 112 z M 52 112 L 52 113 L 53 113 L 53 112 L 52 112 z M 60 112 L 60 113 L 61 113 L 61 112 L 60 112 z M 68 112 L 68 113 L 69 113 L 69 112 L 68 112 z M 76 112 L 76 113 L 77 113 L 77 112 L 76 112 z M 84 112 L 84 113 L 85 113 L 85 112 L 84 112 z M 92 112 L 92 113 L 93 113 L 93 112 L 92 112 z M 100 112 L 100 113 L 101 113 L 101 112 L 100 112 z M 108 112 L 108 113 L 109 113 L 109 112 L 108 112 z M 116 112 L 116 113 L 117 113 L 117 112 L 116 112 z M 124 112 L 124 113 L 125 113 L 125 112 L 124 112 z M 0 116 L 0 117 L 1 117 L 1 116 L 0 116 z M 8 116 L 8 117 L 9 117 L 9 116 L 8 116 z M 16 116 L 16 117 L 17 117 L 17 116 L 16 116 z M 24 116 L 24 117 L 25 117 L 25 116 L 24 116 z M 32 116 L 32 117 L 33 117 L 33 116 L 32 116 z M 40 116 L 40 117 L 41 117 L 41 116 L 40 116 z M 48 116 L 48 117 L 49 117 L 49 116 L 48 116 z M 56 116 L 56 117 L 57 117 L 57 116 L 56 116 z M 64 116 L 64 117 L 65 117 L 65 116 L 64 116 z M 72 116 L 72 117 L 73 117 L 73 116 L 72 116 z M 80 116 L 80 117 L 81 117 L 81 116 L 80 116 z M 88 116 L 88 117 L 89 117 L 89 116 L 88 116 z M 96 116 L 96 117 L 97 117 L 97 116 L 96 116 z M 104 116 L 104 117 L 105 117 L 105 116 L 104 116 z M 112 116 L 112 117 L 113 117 L 113 116 L 112 116 z M 120 116 L 120 117 L 121 117 L 121 116 L 120 116 z M 4 120 L 4 121 L 5 121 L 5 120 L 4 120 z M 12 120 L 12 121 L 13 121 L 13 120 L 12 120 z M 20 120 L 20 121 L 21 121 L 21 120 L 20 120 z M 28 120 L 28 121 L 29 121 L 29 120 L 28 120 z M 36 120 L 36 121 L 37 121 L 37 120 L 36 120 z M 44 120 L 44 121 L 45 121 L 45 120 L 44 120 z M 52 120 L 52 121 L 53 121 L 53 120 L 52 120 z M 60 120 L 60 121 L 61 121 L 61 120 L 60 120 z M 68 120 L 68 121 L 69 121 L 69 120 L 68 120 z M 76 120 L 76 121 L 77 121 L 77 120 L 76 120 z M 84 120 L 84 121 L 85 121 L 85 120 L 84 120 z M 92 120 L 92 121 L 93 121 L 93 120 L 92 120 z M 100 120 L 100 121 L 101 121 L 101 120 L 100 120 z M 108 120 L 108 121 L 109 121 L 109 120 L 108 120 z M 116 120 L 116 121 L 117 121 L 117 120 L 116 120 z M 124 120 L 124 121 L 125 121 L 125 120 L 124 120 z M 0 124 L 0 125 L 1 125 L 1 124 L 0 124 z M 8 124 L 8 125 L 9 125 L 9 124 L 8 124 z M 16 124 L 16 125 L 17 125 L 17 124 L 16 124 z M 24 124 L 24 125 L 25 125 L 25 124 L 24 124 z M 32 124 L 32 125 L 33 125 L 33 124 L 32 124 z M 40 124 L 40 125 L 41 125 L 41 124 L 40 124 z M 48 124 L 48 125 L 49 125 L 49 124 L 48 124 z M 56 124 L 56 125 L 57 125 L 57 124 L 56 124 z M 64 124 L 64 125 L 65 125 L 65 124 L 64 124 z M 72 124 L 72 125 L 73 125 L 73 124 L 72 124 z M 80 124 L 80 125 L 81 125 L 81 124 L 80 124 z M 88 124 L 88 125 L 89 125 L 89 124 L 88 124 z M 96 124 L 96 125 L 97 125 L 97 124 L 96 124 z M 104 124 L 104 125 L 105 125 L 105 124 L 104 124 z M 112 124 L 112 125 L 113 125 L 113 124 L 112 124 z M 120 124 L 120 125 L 121 125 L 121 124 L 120 124 z "
     style="fill:#749d6c" />
  <rect
     style="fill:none;fill-opacity:1;stroke:none"
     id="rect8566"
     y="0"
     x="0"
     rx="0"
     height="128"
     width="128" />
  <desc
     id="desc2446">Created with Snap</desc>
</svg>
