<?xml version="1.0" encoding="UTF-8" standalone="no"?>
<svg
   xmlns:dc="http://purl.org/dc/elements/1.1/"
   xmlns:cc="http://creativecommons.org/ns#"
   xmlns:rdf="http://www.w3.org/1999/02/22-rdf-syntax-ns#"
   xmlns:svg="http://www.w3.org/2000/svg"
   xmlns="http://www.w3.org/2000/svg"
   version="1.1"
   height="512"
   width="512"
   id="Svg">
  <metadata
     id="metadata1596">
    <rdf:RDF>
      <cc:Work
         rdf:about="">
        <dc:format>image/svg+xml</dc:format>
        <dc:type
           rdf:resource="http://purl.org/dc/dcmitype/StillImage" />
      </cc:Work>
    </rdf:RDF>
  </metadata>
  <defs
     id="defs3" />
  <path
     id="path7119"
     d="M 4.75 2 L 3 9 L 3.8007812 9 L 5 4 L 6.25 9 L 8 9 L 6 2 L 4.75 2 z M 197.75 2 L 196 9 L 196.80078 9 L 198 4 L 199.25 9 L 201 9 L 199 2 L 197.75 2 z M 106.75 3 L 105 10 L 105.80078 10 L 107 5 L 108.25 10 L 110 10 L 108 3 L 106.75 3 z M 288.75 3 L 287 10 L 287.80078 10 L 289 5 L 290.25 10 L 292 10 L 290 3 L 288.75 3 z M 479.75 4 L 478 11 L 478.80078 11 L 480 6 L 481.25 11 L 483 11 L 481 4 L 479.75 4 z M 146.75 6 L 145 13 L 145.80078 13 L 147 8 L 148.25 13 L 150 13 L 148 6 L 146.75 6 z M 380.75 6 L 379 13 L 379.80078 13 L 381 8 L 382.25 13 L 384 13 L 382 6 L 380.75 6 z M 238.75 7 L 237 14 L 237.80078 14 L 239 9 L 240.25 14 L 242 14 L 240 7 L 238.75 7 z M 331.75 7 L 330 14 L 330.80078 14 L 332 9 L 333.25 14 L 335 14 L 333 7 L 331.75 7 z M 51.75 9 L 50 16 L 50.800781 16 L 52 11 L 53.25 16 L 55 16 L 53 9 L 51.75 9 z M 423.75 10 L 422 17 L 422.80078 17 L 424 12 L 425.25 17 L 427 17 L 425 10 L 423.75 10 z M 30.75 11 L 29 18 L 29.800781 18 L 31 13 L 32.25 18 L 34 18 L 32 11 L 30.75 11 z M 356.75 11 L 355 18 L 355.80078 18 L 357 13 L 358.25 18 L 360 18 L 358 11 L 356.75 11 z M 79.75 12 L 78 19 L 78.800781 19 L 80 14 L 81.25 19 L 83 19 L 81 12 L 79.75 12 z M 126.75 12 L 125 19 L 125.80078 19 L 127 14 L 128.25 19 L 130 19 L 128 12 L 126.75 12 z M 401.75 12 L 400 19 L 400.80078 19 L 402 14 L 403.25 19 L 405 19 L 403 12 L 401.75 12 z M 451.75 12 L 450 19 L 450.80078 19 L 452 14 L 453.25 19 L 455 19 L 453 12 L 451.75 12 z M 216.75 14 L 215 21 L 215.80078 21 L 217 16 L 218.25 21 L 220 21 L 218 14 L 216.75 14 z M 312.75 14 L 311 21 L 311.80078 21 L 313 16 L 314.25 21 L 316 21 L 314 14 L 312.75 14 z M 174.75 15 L 173 22 L 173.80078 22 L 175 17 L 176.25 22 L 178 22 L 176 15 L 174.75 15 z M 267.75 15 L 266 22 L 266.80078 22 L 268 17 L 269.25 22 L 271 22 L 269 15 L 267.75 15 z M 500.75 17 L 499 24 L 499.80078 24 L 501 19 L 502.25 24 L 504 24 L 502 17 L 500.75 17 z M 91.75 25 L 90 32 L 90.800781 32 L 92 27 L 93.25 32 L 95 32 L 93 25 L 91.75 25 z M 155.75 25 L 154 32 L 154.80078 32 L 156 27 L 157.25 32 L 159 32 L 157 25 L 155.75 25 z M 63.75 26 L 62 33 L 62.800781 33 L 64 28 L 65.25 33 L 67 33 L 65 26 L 63.75 26 z M 249.75 27 L 248 34 L 248.80078 34 L 250 29 L 251.25 34 L 253 34 L 251 27 L 249.75 27 z M 480.75 27 L 479 34 L 479.80078 34 L 481 29 L 482.25 34 L 484 34 L 482 27 L 480.75 27 z M 296.75 28 L 295 35 L 295.80078 35 L 297 30 L 298.25 35 L 300 35 L 298 28 L 296.75 28 z M 343.75 28 L 342 35 L 342.80078 35 L 344 30 L 345.25 35 L 347 35 L 345 28 L 343.75 28 z M 389.75 29 L 388 36 L 388.80078 36 L 390 31 L 391.25 36 L 393 36 L 391 29 L 389.75 29 z M 112.75 30 L 111 37 L 111.80078 37 L 113 32 L 114.25 37 L 116 37 L 114 30 L 112.75 30 z M 205.75 32 L 204 39 L 204.80078 39 L 206 34 L 207.25 39 L 209 39 L 207 32 L 205.75 32 z M 438.75 32 L 437 39 L 437.80078 39 L 439 34 L 440.25 39 L 442 39 L 440 32 L 438.75 32 z M 0.75 34 L 0 37 L 0 40.169922 L 1 36 L 2.25 41 L 4 41 L 2 34 L 0.75 34 z M 180.75 36 L 179 43 L 179.80078 43 L 181 38 L 182.25 43 L 184 43 L 182 36 L 180.75 36 z M 274.75 36 L 273 43 L 273.80078 43 L 275 38 L 276.25 43 L 278 43 L 276 36 L 274.75 36 z M 414.75 36 L 413 43 L 413.80078 43 L 415 38 L 416.25 43 L 418 43 L 416 36 L 414.75 36 z M 365.75 37 L 364 44 L 364.80078 44 L 366 39 L 367.25 44 L 369 44 L 367 37 L 365.75 37 z M 512 37 L 511 41 L 511.80078 41 L 512 40.169922 L 512 37 z M 29.75 38 L 28 45 L 28.800781 45 L 30 40 L 31.25 45 L 33 45 L 31 38 L 29.75 38 z M 225.75 38 L 224 45 L 224.80078 45 L 226 40 L 227.25 45 L 229 45 L 227 38 L 225.75 38 z M 458.75 39 L 457 46 L 457.80078 46 L 459 41 L 460.25 46 L 462 46 L 460 39 L 458.75 39 z M 315.75 40 L 314 47 L 314.80078 47 L 316 42 L 317.25 47 L 319 47 L 317 40 L 315.75 40 z M 128.75 41 L 127 48 L 127.80078 48 L 129 43 L 130.25 48 L 132 48 L 130 41 L 128.75 41 z M 48.75 47 L 47 54 L 47.800781 54 L 49 49 L 50.25 54 L 52 54 L 50 47 L 48.75 47 z M 65.75 49 L 64 56 L 64.800781 56 L 66 51 L 67.25 56 L 69 56 L 67 49 L 65.75 49 z M 151.75 49 L 150 56 L 150.80078 56 L 152 51 L 153.25 56 L 155 56 L 153 49 L 151.75 49 z M 243.75 49 L 242 56 L 242.80078 56 L 244 51 L 245.25 56 L 247 56 L 245 49 L 243.75 49 z M 333.75 49 L 332 56 L 332.80078 56 L 334 51 L 335.25 56 L 337 56 L 335 49 L 333.75 49 z M 99.75 50 L 98 57 L 98.800781 57 L 100 52 L 101.25 57 L 103 57 L 101 50 L 99.75 50 z M 476.75 51 L 475 58 L 475.80078 58 L 477 53 L 478.25 58 L 480 58 L 478 51 L 476.75 51 z M 285.75 52 L 284 59 L 284.80078 59 L 286 54 L 287.25 59 L 289 59 L 287 52 L 285.75 52 z M 191.75 54 L 190 61 L 190.80078 61 L 192 56 L 193.25 61 L 195 61 L 193 54 L 191.75 54 z M 424.75 54 L 423 61 L 423.80078 61 L 425 56 L 426.25 61 L 428 61 L 426 54 L 424.75 54 z M 6.75 55 L 5 62 L 5.8007812 62 L 7 57 L 8.25 62 L 10 62 L 8 55 L 6.75 55 z M 377.75 55 L 376 62 L 376.80078 62 L 378 57 L 379.25 62 L 381 62 L 379 55 L 377.75 55 z M 400.75 56 L 399 63 L 399.80078 63 L 401 58 L 402.25 63 L 404 63 L 402 56 L 400.75 56 z M 497.75 56 L 496 63 L 496.80078 63 L 498 58 L 499.25 63 L 501 63 L 499 56 L 497.75 56 z M 169.75 59 L 168 66 L 168.80078 66 L 170 61 L 171.25 66 L 173 66 L 171 59 L 169.75 59 z M 453.75 60 L 452 67 L 452.80078 67 L 454 62 L 455.25 67 L 457 67 L 455 60 L 453.75 60 z M 35.75 61 L 34 68 L 34.800781 68 L 36 63 L 37.25 68 L 39 68 L 37 61 L 35.75 61 z M 262.75 61 L 261 68 L 261.80078 68 L 263 63 L 264.25 68 L 266 68 L 264 61 L 262.75 61 z M 80.75 62 L 79 69 L 79.800781 69 L 81 64 L 82.25 69 L 84 69 L 82 62 L 80.75 62 z M 218.75 62 L 217 69 L 217.80078 69 L 219 64 L 220.25 69 L 222 69 L 220 62 L 218.75 62 z M 310.75 63 L 309 70 L 309.80078 70 L 311 65 L 312.25 70 L 314 70 L 312 63 L 310.75 63 z M 355.75 63 L 354 70 L 354.80078 70 L 356 65 L 357.25 70 L 359 70 L 357 63 L 355.75 63 z M 127.75 64 L 126 71 L 126.80078 71 L 128 66 L 129.25 71 L 131 71 L 129 64 L 127.75 64 z M 17.75 73 L 16 80 L 16.800781 80 L 18 75 L 19.25 80 L 21 80 L 19 73 L 17.75 73 z M 107.75 73 L 106 80 L 106.80078 80 L 108 75 L 109.25 80 L 111 80 L 109 73 L 107.75 73 z M 340.75 73 L 339 80 L 339.80078 80 L 341 75 L 342.25 80 L 344 80 L 342 73 L 340.75 73 z M 435.75 73 L 434 80 L 434.80078 80 L 436 75 L 437.25 80 L 439 80 L 437 73 L 435.75 73 z M 199.75 74 L 198 81 L 198.80078 81 L 200 76 L 201.25 81 L 203 81 L 201 74 L 199.75 74 z M 292.75 74 L 291 81 L 291.80078 81 L 293 76 L 294.25 81 L 296 81 L 294 74 L 292.75 74 z M 391.75 75 L 390 82 L 390.80078 82 L 392 77 L 393.25 82 L 395 82 L 393 75 L 391.75 75 z M 484.75 76 L 483 83 L 483.80078 83 L 485 78 L 486.25 83 L 488 83 L 486 76 L 484.75 76 z M 156.75 77 L 155 84 L 155.80078 84 L 157 79 L 158.25 84 L 160 84 L 158 77 L 156.75 77 z M 251.75 77 L 250 84 L 250.80078 84 L 252 79 L 253.25 84 L 255 84 L 253 77 L 251.75 77 z M 43.75 81 L 42 88 L 42.800781 88 L 44 83 L 45.25 88 L 47 88 L 45 81 L 43.75 81 z M 65.75 81 L 64 88 L 64.800781 88 L 66 83 L 67.25 88 L 69 88 L 67 81 L 65.75 81 z M 229.75 81 L 228 88 L 228.80078 88 L 230 83 L 231.25 88 L 233 88 L 231 81 L 229.75 81 z M 459.75 81 L 458 88 L 458.80078 88 L 460 83 L 461.25 88 L 463 88 L 461 81 L 459.75 81 z M 136.75 83 L 135 90 L 135.80078 90 L 137 85 L 138.25 90 L 140 90 L 138 83 L 136.75 83 z M 320.75 83 L 319 90 L 319.80078 90 L 321 85 L 322.25 90 L 324 90 L 322 83 L 320.75 83 z M 411.75 83 L 410 90 L 410.80078 90 L 412 85 L 413.25 90 L 415 90 L 413 83 L 411.75 83 z M 366.75 85 L 365 92 L 365.80078 92 L 367 87 L 368.25 92 L 370 92 L 368 85 L 366.75 85 z M 175.75 86 L 174 93 L 174.80078 93 L 176 88 L 177.25 93 L 179 93 L 177 86 L 175.75 86 z M 271.75 87 L 270 94 L 270.80078 94 L 272 89 L 273.25 94 L 275 94 L 273 87 L 271.75 87 z M 502.75 87 L 501 94 L 501.80078 94 L 503 89 L 504.25 94 L 506 94 L 504 87 L 502.75 87 z M 85.75 88 L 84 95 L 84.800781 95 L 86 90 L 87.25 95 L 89 95 L 87 88 L 85.75 88 z M 106.75 95 L 105 102 L 105.80078 102 L 107 97 L 108.25 102 L 110 102 L 108 95 L 106.75 95 z M 198.75 96 L 197 103 L 197.80078 103 L 199 98 L 200.25 103 L 202 103 L 200 96 L 198.75 96 z M 9.75 97 L 8 104 L 8.8007812 104 L 10 99 L 11.25 104 L 13 104 L 11 97 L 9.75 97 z M 291.75 98 L 290 105 L 290.80078 105 L 292 100 L 293.25 105 L 295 105 L 293 98 L 291.75 98 z M 427.75 99 L 426 106 L 426.80078 106 L 428 101 L 429.25 106 L 431 106 L 429 99 L 427.75 99 z M 471.75 99 L 470 106 L 470.80078 106 L 472 101 L 473.25 106 L 475 106 L 473 99 L 471.75 99 z M 379.75 100 L 378 107 L 378.80078 107 L 380 102 L 381.25 107 L 383 107 L 381 100 L 379.75 100 z M 237.75 101 L 236 108 L 236.80078 108 L 238 103 L 239.25 108 L 241 108 L 239 101 L 237.75 101 z M 147.75 102 L 146 109 L 146.80078 109 L 148 104 L 149.25 109 L 151 109 L 149 102 L 147.75 102 z M 333.75 102 L 332 109 L 332.80078 109 L 334 104 L 335.25 109 L 337 109 L 335 102 L 333.75 102 z M 30.75 103 L 29 110 L 29.800781 110 L 31 105 L 32.25 110 L 34 110 L 32 103 L 30.75 103 z M 448.75 103 L 447 110 L 447.80078 110 L 449 105 L 450.25 110 L 452 110 L 450 103 L 448.75 103 z M 51.75 105 L 50 112 L 50.800781 112 L 52 107 L 53.25 112 L 55 112 L 53 105 L 51.75 105 z M 216.75 106 L 215 113 L 215.80078 113 L 217 108 L 218.25 113 L 220 113 L 218 106 L 216.75 106 z M 405.75 106 L 404 113 L 404.80078 113 L 406 108 L 407.25 113 L 409 113 L 407 106 L 405.75 106 z M 124.75 107 L 123 114 L 123.80078 114 L 125 109 L 126.25 114 L 128 114 L 126 107 L 124.75 107 z M 263.75 107 L 262 114 L 262.80078 114 L 264 109 L 265.25 114 L 267 114 L 265 107 L 263.75 107 z M 355.75 107 L 354 114 L 354.80078 114 L 356 109 L 357.25 114 L 359 114 L 357 107 L 355.75 107 z M 173.75 108 L 172 115 L 172.80078 115 L 174 110 L 175.25 115 L 177 115 L 175 108 L 173.75 108 z M 309.75 108 L 308 115 L 308.80078 115 L 310 110 L 311.25 115 L 313 115 L 311 108 L 309.75 108 z M 79.75 110 L 78 117 L 78.800781 117 L 80 112 L 81.25 117 L 83 117 L 81 110 L 79.75 110 z M 499.75 111 L 498 118 L 498.80078 118 L 500 113 L 501.25 118 L 503 118 L 501 111 L 499.75 111 z M 481.75 118 L 480 125 L 480.80078 125 L 482 120 L 483.25 125 L 485 125 L 483 118 L 481.75 118 z M 386.75 119 L 385 126 L 385.80078 126 L 387 121 L 388.25 126 L 390 126 L 388 119 L 386.75 119 z M 62.75 121 L 61 128 L 61.800781 128 L 63 123 L 64.25 128 L 66 128 L 64 121 L 62.75 121 z M 154.75 121 L 153 128 L 153.80078 128 L 155 123 L 156.25 128 L 158 128 L 156 121 L 154.75 121 z M 16.75 122 L 15 129 L 15.800781 129 L 17 124 L 18.25 129 L 20 129 L 18 122 L 16.75 122 z M 436.75 122 L 435 129 L 435.80078 129 L 437 124 L 438.25 129 L 440 129 L 438 122 L 436.75 122 z M 201.75 123 L 200 130 L 200.80078 130 L 202 125 L 203.25 130 L 205 130 L 203 123 L 201.75 123 z M 248.75 124 L 247 131 L 247.80078 131 L 249 126 L 250.25 131 L 252 131 L 250 124 L 248.75 124 z M 294.75 125 L 293 132 L 293.80078 132 L 295 127 L 296.25 132 L 298 132 L 296 125 L 294.75 125 z M 89.75 126 L 88 133 L 88.800781 133 L 90 128 L 91.25 133 L 93 133 L 91 126 L 89.75 126 z M 112.75 126 L 111 133 L 111.80078 133 L 113 128 L 114.25 133 L 116 133 L 114 126 L 112.75 126 z M 344.75 126 L 343 133 L 343.80078 133 L 345 128 L 346.25 133 L 348 133 L 346 126 L 344.75 126 z M 274.75 127 L 273 134 L 273.80078 134 L 275 129 L 276.25 134 L 278 134 L 276 127 L 274.75 127 z M 413.75 128 L 412 135 L 412.80078 135 L 414 130 L 415.25 135 L 417 135 L 415 128 L 413.75 128 z M 180.75 129 L 179 136 L 179.80078 136 L 181 131 L 182.25 136 L 184 136 L 182 129 L 180.75 129 z M 319.75 129 L 318 136 L 318.80078 136 L 320 131 L 321.25 136 L 323 136 L 321 129 L 319.75 129 z M 367.75 130 L 366 137 L 366.80078 137 L 368 132 L 369.25 137 L 371 137 L 369 130 L 367.75 130 z M 505.75 131 L 504 138 L 504.80078 138 L 506 133 L 507.25 138 L 509 138 L 507 131 L 505.75 131 z M 131.75 132 L 130 139 L 130.80078 139 L 132 134 L 133.25 139 L 135 139 L 133 132 L 131.75 132 z M 223.75 132 L 222 139 L 222.80078 139 L 224 134 L 225.25 139 L 227 139 L 225 132 L 223.75 132 z M 35.75 133 L 34 140 L 34.800781 140 L 36 135 L 37.25 140 L 39 140 L 37 133 L 35.75 133 z M 455.75 133 L 454 140 L 454.80078 140 L 456 135 L 457.25 140 L 459 140 L 457 133 L 455.75 133 z M 475.75 143 L 474 150 L 474.80078 150 L 476 145 L 477.25 150 L 479 150 L 477 143 L 475.75 143 z M 55.75 144 L 54 151 L 54.800781 151 L 56 146 L 57.25 151 L 59 151 L 57 144 L 55.75 144 z M 242.75 144 L 241 151 L 241.80078 151 L 243 146 L 244.25 151 L 246 151 L 244 144 L 242.75 144 z M 150.75 145 L 149 152 L 149.80078 152 L 151 147 L 152.25 152 L 154 152 L 152 145 L 150.75 145 z M 334.75 145 L 333 152 L 333.80078 152 L 335 147 L 336.25 152 L 338 152 L 336 145 L 334.75 145 z M 427.75 145 L 426 152 L 426.80078 152 L 428 147 L 429.25 152 L 431 152 L 429 145 L 427.75 145 z M 193.75 147 L 192 154 L 192.80078 154 L 194 149 L 195.25 154 L 197 154 L 195 147 L 193.75 147 z M 381.75 147 L 380 154 L 380.80078 154 L 382 149 L 383.25 154 L 385 154 L 383 147 L 381.75 147 z M 284.75 149 L 283 156 L 283.80078 156 L 285 151 L 286.25 156 L 288 156 L 286 149 L 284.75 149 z M 5.75 150 L 4 157 L 4.8007812 157 L 6 152 L 7.25 157 L 9 157 L 7 150 L 5.75 150 z M 74.75 150 L 73 157 L 73.800781 157 L 75 152 L 76.25 157 L 78 157 L 76 150 L 74.75 150 z M 97.75 150 L 96 157 L 96.800781 157 L 98 152 L 99.25 157 L 101 157 L 99 150 L 97.75 150 z M 403.75 150 L 402 157 L 402.80078 157 L 404 152 L 405.25 157 L 407 157 L 405 150 L 403.75 150 z M 170.75 151 L 169 158 L 169.80078 158 L 171 153 L 172.25 158 L 174 158 L 172 151 L 170.75 151 z M 308.75 151 L 307 158 L 307.80078 158 L 309 153 L 310.25 158 L 312 158 L 310 151 L 308.75 151 z M 493.75 151 L 492 158 L 492.80078 158 L 494 153 L 495.25 158 L 497 158 L 495 151 L 493.75 151 z M 264.75 153 L 263 160 L 263.80078 160 L 265 155 L 266.25 160 L 268 160 L 266 153 L 264.75 153 z M 126.75 154 L 125 161 L 125.80078 161 L 127 156 L 128.25 161 L 130 161 L 128 154 L 126.75 154 z M 219.75 154 L 218 161 L 218.80078 161 L 220 156 L 221.25 161 L 223 161 L 221 154 L 219.75 154 z M 359.75 154 L 358 161 L 358.80078 161 L 360 156 L 361.25 161 L 363 161 L 361 154 L 359.75 154 z M 33.75 156 L 32 163 L 32.800781 163 L 34 158 L 35.25 163 L 37 163 L 35 156 L 33.75 156 z M 453.75 156 L 452 163 L 452.80078 163 L 454 158 L 455.25 163 L 457 163 L 455 156 L 453.75 156 z M 430.75 165 L 429 172 L 429.80078 172 L 431 167 L 432.25 172 L 434 172 L 432 165 L 430.75 165 z M 15.75 166 L 14 173 L 14.800781 173 L 16 168 L 17.25 173 L 19 173 L 17 166 L 15.75 166 z M 108.75 167 L 107 174 L 107.80078 174 L 109 169 L 110.25 174 L 112 174 L 110 167 L 108.75 167 z M 342.75 167 L 341 174 L 341.80078 174 L 343 169 L 344.25 174 L 346 174 L 344 167 L 342.75 167 z M 247.75 168 L 246 175 L 246.80078 175 L 248 170 L 249.25 175 L 251 175 L 249 168 L 247.75 168 z M 203.75 169 L 202 176 L 202.80078 176 L 204 171 L 205.25 176 L 207 176 L 205 169 L 203.75 169 z M 392.75 169 L 391 176 L 391.80078 176 L 393 171 L 394.25 176 L 396 176 L 394 169 L 392.75 169 z M 157.75 170 L 156 177 L 156.80078 177 L 158 172 L 159.25 177 L 161 177 L 159 170 L 157.75 170 z M 297.75 170 L 296 177 L 296.80078 177 L 298 172 L 299.25 177 L 301 177 L 299 170 L 297.75 170 z M 65.75 172 L 64 179 L 64.800781 179 L 66 174 L 67.25 179 L 69 179 L 67 172 L 65.75 172 z M 483.75 172 L 482 179 L 482.80078 179 L 484 174 L 485.25 179 L 487 179 L 485 172 L 483.75 172 z M 320.75 173 L 319 180 L 319.80078 180 L 321 175 L 322.25 180 L 324 180 L 322 173 L 320.75 173 z M 133.75 174 L 132 181 L 132.80078 181 L 134 176 L 135.25 181 L 137 181 L 135 174 L 133.75 174 z M 458.75 175 L 457 182 L 457.80078 182 L 459 177 L 460.25 182 L 462 182 L 460 175 L 458.75 175 z M 40.75 176 L 39 183 L 39.800781 183 L 41 178 L 42.25 183 L 44 183 L 42 176 L 40.75 176 z M 225.75 177 L 224 184 L 224.80078 184 L 226 179 L 227.25 184 L 229 184 L 227 177 L 225.75 177 z M 270.75 177 L 269 184 L 269.80078 184 L 271 179 L 272.25 184 L 274 184 L 272 177 L 270.75 177 z M 366.75 177 L 365 184 L 365.80078 184 L 367 179 L 368.25 184 L 370 184 L 368 177 L 366.75 177 z M 84.75 178 L 83 185 L 83.800781 185 L 85 180 L 86.25 185 L 88 185 L 86 178 L 84.75 178 z M 178.75 178 L 177 185 L 177.80078 185 L 179 180 L 180.25 185 L 182 185 L 180 178 L 178.75 178 z M 501.75 178 L 500 185 L 500.80078 185 L 502 180 L 503.25 185 L 505 185 L 503 178 L 501.75 178 z M 409.75 180 L 408 187 L 408.80078 187 L 410 182 L 411.25 187 L 413 187 L 411 180 L 409.75 180 z M 102.75 189 L 101 196 L 101.80078 196 L 103 191 L 104.25 196 L 106 196 L 104 189 L 102.75 189 z M 288.75 189 L 287 196 L 287.80078 196 L 289 191 L 290.25 196 L 292 196 L 290 189 L 288.75 189 z M 196.75 190 L 195 197 L 195.80078 197 L 197 192 L 198.25 197 L 200 197 L 198 190 L 196.75 190 z M 8.75 191 L 7 198 L 7.8007812 198 L 9 193 L 10.25 198 L 12 198 L 10 191 L 8.75 191 z M 146.75 191 L 145 198 L 145.80078 198 L 147 193 L 148.25 198 L 150 198 L 148 191 L 146.75 191 z M 332.75 191 L 331 198 L 331.80078 198 L 333 193 L 334.25 198 L 336 198 L 334 191 L 332.75 191 z M 382.75 191 L 381 198 L 381.80078 198 L 383 193 L 384.25 198 L 386 198 L 384 191 L 382.75 191 z M 428.75 191 L 427 198 L 427.80078 198 L 429 193 L 430.25 198 L 432 198 L 430 191 L 428.75 191 z M 239.75 194 L 238 201 L 238.80078 201 L 240 196 L 241.25 201 L 243 201 L 241 194 L 239.75 194 z M 51.75 195 L 50 202 L 50.800781 202 L 52 197 L 53.25 202 L 55 202 L 53 195 L 51.75 195 z M 470.75 195 L 469 202 L 469.80078 202 L 471 197 L 472.25 202 L 474 202 L 472 195 L 470.75 195 z M 448.75 196 L 447 203 L 447.80078 203 L 449 198 L 450.25 203 L 452 203 L 450 196 L 448.75 196 z M 30.75 197 L 29 204 L 29.800781 204 L 31 199 L 32.25 204 L 34 204 L 32 197 L 30.75 197 z M 356.75 197 L 355 204 L 355.80078 204 L 357 199 L 358.25 204 L 360 204 L 358 197 L 356.75 197 z M 80.75 200 L 79 207 L 79.800781 207 L 81 202 L 82.25 207 L 84 207 L 82 200 L 80.75 200 z M 126.75 200 L 125 207 L 125.80078 207 L 127 202 L 128.25 207 L 130 207 L 128 200 L 126.75 200 z M 264.75 200 L 263 207 L 263.80078 207 L 265 202 L 266.25 207 L 268 207 L 266 200 L 264.75 200 z M 215.75 201 L 214 208 L 214.80078 208 L 216 203 L 217.25 208 L 219 208 L 217 201 L 215.75 201 z M 313.75 201 L 312 208 L 312.80078 208 L 314 203 L 315.25 208 L 317 208 L 315 201 L 313.75 201 z M 499.75 201 L 498 208 L 498.80078 208 L 500 203 L 501.25 208 L 503 208 L 501 201 L 499.75 201 z M 175.75 204 L 174 211 L 174.80078 211 L 176 206 L 177.25 211 L 179 211 L 177 204 L 175.75 204 z M 406.75 205 L 405 212 L 405.80078 212 L 407 207 L 408.25 212 L 410 212 L 408 205 L 406.75 205 z M 154.75 211 L 153 218 L 153.80078 218 L 155 213 L 156.25 218 L 158 218 L 156 211 L 154.75 211 z M 293.75 212 L 292 219 L 292.80078 219 L 294 214 L 295.25 219 L 297 219 L 295 212 L 293.75 212 z M 386.75 212 L 385 219 L 385.80078 219 L 387 214 L 388.25 219 L 390 219 L 388 212 L 386.75 212 z M 481.75 213 L 480 220 L 480.80078 220 L 482 215 L 483.25 220 L 485 220 L 483 213 L 481.75 213 z M 65.75 214 L 64 221 L 64.800781 221 L 66 216 L 67.25 221 L 69 221 L 67 214 L 65.75 214 z M 250.75 215 L 249 222 L 249.80078 222 L 251 217 L 252.25 222 L 254 222 L 252 215 L 250.75 215 z M 343.75 215 L 342 222 L 342.80078 222 L 344 217 L 345.25 222 L 347 222 L 345 215 L 343.75 215 z M 112.75 216 L 111 223 L 111.80078 223 L 113 218 L 114.25 223 L 116 223 L 114 216 L 112.75 216 z M 202.75 216 L 201 223 L 201.80078 223 L 203 218 L 204.25 223 L 206 223 L 204 216 L 202.75 216 z M 18.75 217 L 17 224 L 17.800781 224 L 19 219 L 20.25 224 L 22 224 L 20 217 L 18.75 217 z M 437.75 217 L 436 224 L 436.80078 224 L 438 219 L 439.25 224 L 441 224 L 439 217 L 437.75 217 z M 90.75 220 L 89 227 L 89.800781 227 L 91 222 L 92.25 227 L 94 227 L 92 220 L 90.75 220 z M 504.75 221 L 503 228 L 503.80078 228 L 505 223 L 506.25 228 L 508 228 L 506 221 L 504.75 221 z M 274.75 222 L 273 229 L 273.80078 229 L 275 224 L 276.25 229 L 278 229 L 276 222 L 274.75 222 z M 38.75 223 L 37 230 L 37.800781 230 L 39 225 L 40.25 230 L 42 230 L 40 223 L 38.75 223 z M 226.75 223 L 225 230 L 225.80078 230 L 227 225 L 228.25 230 L 230 230 L 228 223 L 226.75 223 z M 456.75 223 L 455 230 L 455.80078 230 L 457 225 L 458.25 230 L 460 230 L 458 223 L 456.75 223 z M 317.75 224 L 316 231 L 316.80078 231 L 318 226 L 319.25 231 L 321 231 L 319 224 L 317.75 224 z M 363.75 224 L 362 231 L 362.80078 231 L 364 226 L 365.25 231 L 367 231 L 365 224 L 363.75 224 z M 413.75 225 L 412 232 L 412.80078 232 L 414 227 L 415.25 232 L 417 232 L 415 225 L 413.75 225 z M 132.75 226 L 131 233 L 131.80078 233 L 133 228 L 134.25 233 L 136 233 L 134 226 L 132.75 226 z M 177.75 227 L 176 234 L 176.80078 234 L 178 229 L 179.25 234 L 181 234 L 179 227 L 177.75 227 z M 150.75 235 L 149 242 L 149.80078 242 L 151 237 L 152.25 242 L 154 242 L 152 235 L 150.75 235 z M 336.75 235 L 335 242 L 335.80078 242 L 337 237 L 338.25 242 L 340 242 L 338 235 L 336.75 235 z M 6.75 237 L 5 244 L 5.8007812 244 L 7 239 L 8.25 244 L 10 244 L 8 237 L 6.75 237 z M 476.75 237 L 475 244 L 475.80078 244 L 477 239 L 478.25 244 L 480 244 L 478 237 L 476.75 237 z M 54.75 238 L 53 245 L 53.800781 245 L 55 240 L 56.25 245 L 58 245 L 56 238 L 54.75 238 z M 240.75 238 L 239 245 L 239.80078 245 L 241 240 L 242.25 245 L 244 245 L 242 238 L 240.75 238 z M 288.75 238 L 287 245 L 287.80078 245 L 289 240 L 290.25 245 L 292 245 L 290 238 L 288.75 238 z M 379.75 239 L 378 246 L 378.80078 246 L 380 241 L 381.25 246 L 383 246 L 381 239 L 379.75 239 z M 100.75 240 L 99 247 L 99.800781 247 L 101 242 L 102.25 247 L 104 247 L 102 240 L 100.75 240 z M 194.75 240 L 193 247 L 193.80078 247 L 195 242 L 196.25 247 L 198 247 L 196 240 L 194.75 240 z M 76.75 242 L 75 249 L 75.800781 249 L 77 244 L 78.25 249 L 80 249 L 78 242 L 76.75 242 z M 424.75 242 L 423 249 L 423.80078 249 L 425 244 L 426.25 249 L 428 249 L 426 242 L 424.75 242 z M 400.75 243 L 399 250 L 399.80078 250 L 401 245 L 402.25 250 L 404 250 L 402 243 L 400.75 243 z M 263.75 244 L 262 251 L 262.80078 251 L 264 246 L 265.25 251 L 267 251 L 265 244 L 263.75 244 z M 309.75 245 L 308 252 L 308.80078 252 L 310 247 L 311.25 252 L 313 252 L 311 245 L 309.75 245 z M 32.75 247 L 31 254 L 31.800781 254 L 33 249 L 34.25 254 L 36 254 L 34 247 L 32.75 247 z M 124.75 247 L 123 254 L 123.80078 254 L 125 249 L 126.25 254 L 128 254 L 126 247 L 124.75 247 z M 169.75 248 L 168 255 L 168.80078 255 L 170 250 L 171.25 255 L 173 255 L 171 248 L 169.75 248 z M 455.75 248 L 454 255 L 454.80078 255 L 456 250 L 457.25 255 L 459 255 L 457 248 L 455.75 248 z M 499.75 249 L 498 256 L 498.80078 256 L 500 251 L 501.25 256 L 503 256 L 501 249 L 499.75 249 z M 219.75 250 L 218 257 L 218.80078 257 L 220 252 L 221.25 257 L 223 257 L 221 250 L 219.75 250 z M 358.75 250 L 357 257 L 357.80078 257 L 359 252 L 360.25 257 L 362 257 L 360 250 L 358.75 250 z M 338.75 258 L 337 265 L 337.80078 265 L 339 260 L 340.25 265 L 342 265 L 340 258 L 338.75 258 z M 14.75 259 L 13 266 L 13.800781 266 L 15 261 L 16.25 266 L 18 266 L 16 259 L 14.75 259 z M 436.75 259 L 435 266 L 435.80078 266 L 437 261 L 438.25 266 L 440 266 L 438 259 L 436.75 259 z M 247.75 260 L 246 267 L 246.80078 267 L 248 262 L 249.25 267 L 251 267 L 249 260 L 247.75 260 z M 107.75 261 L 106 268 L 106.80078 268 L 108 263 L 109.25 268 L 111 268 L 109 261 L 107.75 261 z M 64.75 262 L 63 269 L 63.800781 269 L 65 264 L 66.25 269 L 68 269 L 66 262 L 64.75 262 z M 482.75 262 L 481 269 L 481.80078 269 L 483 264 L 484.25 269 L 486 269 L 484 262 L 482.75 262 z M 296.75 263 L 295 270 L 295.80078 270 L 297 265 L 298.25 270 L 300 270 L 298 263 L 296.75 263 z M 202.75 264 L 201 271 L 201.80078 271 L 203 266 L 204.25 271 L 206 271 L 204 264 L 202.75 264 z M 393.75 264 L 392 271 L 392.80078 271 L 394 266 L 395.25 271 L 397 271 L 395 264 L 393.75 264 z M 156.75 265 L 155 272 L 155.80078 272 L 157 267 L 158.25 272 L 160 272 L 158 265 L 156.75 265 z M 271.75 268 L 270 275 L 270.80078 275 L 272 270 L 273.25 275 L 275 275 L 273 268 L 271.75 268 z M 84.75 269 L 83 276 L 83.800781 276 L 85 271 L 86.25 276 L 88 276 L 86 269 L 84.75 269 z M 182.75 269 L 181 276 L 181.80078 276 L 183 271 L 184.25 276 L 186 276 L 184 269 L 182.75 269 z M 317.75 269 L 316 276 L 316.80078 276 L 318 271 L 319.25 276 L 321 276 L 319 269 L 317.75 269 z M 365.75 269 L 364 276 L 364.80078 276 L 366 271 L 367.25 276 L 369 276 L 367 269 L 365.75 269 z M 414.75 269 L 413 276 L 413.80078 276 L 415 271 L 416.25 276 L 418 276 L 416 269 L 414.75 269 z M 36.75 271 L 35 278 L 35.800781 278 L 37 273 L 38.25 278 L 40 278 L 38 271 L 36.75 271 z M 131.75 271 L 130 278 L 130.80078 278 L 132 273 L 133.25 278 L 135 278 L 133 271 L 131.75 271 z M 457.75 271 L 456 278 L 456.80078 278 L 458 273 L 459.25 278 L 461 278 L 459 271 L 457.75 271 z M 501.75 272 L 500 279 L 500.80078 279 L 502 274 L 503.25 279 L 505 279 L 503 272 L 501.75 272 z M 226.75 273 L 225 280 L 225.80078 280 L 227 275 L 228.25 280 L 230 280 L 228 273 L 226.75 273 z M 52.75 282 L 51 289 L 51.800781 289 L 53 284 L 54.25 289 L 56 289 L 54 282 L 52.75 282 z M 8.75 283 L 7 290 L 7.8007812 290 L 9 285 L 10.25 290 L 12 290 L 10 283 L 8.75 283 z M 289.75 283 L 288 290 L 288.80078 290 L 290 285 L 291.25 290 L 293 290 L 291 283 L 289.75 283 z M 98.75 284 L 97 291 L 97.800781 291 L 99 286 L 100.25 291 L 102 291 L 100 284 L 98.75 284 z M 333.75 284 L 332 291 L 332.80078 291 L 334 286 L 335.25 291 L 337 291 L 335 284 L 333.75 284 z M 476.75 284 L 475 291 L 475.80078 291 L 477 286 L 478.25 291 L 480 291 L 478 284 L 476.75 284 z M 244.75 285 L 243 292 L 243.80078 292 L 245 287 L 246.25 292 L 248 292 L 246 285 L 244.75 285 z M 378.75 286 L 377 293 L 377.80078 293 L 379 288 L 380.25 293 L 382 293 L 380 286 L 378.75 286 z M 146.75 287 L 145 294 L 145.80078 294 L 147 289 L 148.25 294 L 150 294 L 148 287 L 146.75 287 z M 427.75 287 L 426 294 L 426.80078 294 L 428 289 L 429.25 294 L 431 294 L 429 287 L 427.75 287 z M 192.75 290 L 191 297 L 191.80078 297 L 193 292 L 194.25 297 L 196 297 L 194 290 L 192.75 290 z M 169.75 291 L 168 298 L 168.80078 298 L 170 293 L 171.25 298 L 173 298 L 171 291 L 169.75 291 z M 216.75 291 L 215 298 L 215.80078 298 L 217 293 L 218.25 298 L 220 298 L 218 291 L 216.75 291 z M 353.75 291 L 352 298 L 352.80078 298 L 354 293 L 355.25 298 L 357 298 L 355 291 L 353.75 291 z M 451.75 291 L 450 298 L 450.80078 298 L 452 293 L 453.25 298 L 455 298 L 453 291 L 451.75 291 z M 122.75 292 L 121 299 L 121.80078 299 L 123 294 L 124.25 299 L 126 299 L 124 292 L 122.75 292 z M 77.75 293 L 76 300 L 76.800781 300 L 78 295 L 79.25 300 L 81 300 L 79 293 L 77.75 293 z M 405.75 294 L 404 301 L 404.80078 301 L 406 296 L 407.25 301 L 409 301 L 407 294 L 405.75 294 z M 268.75 295 L 267 302 L 267.80078 302 L 269 297 L 270.25 302 L 272 302 L 270 295 L 268.75 295 z M 312.75 295 L 311 302 L 311.80078 302 L 313 297 L 314.25 302 L 316 302 L 314 295 L 312.75 295 z M 500.75 296 L 499 303 L 499.80078 303 L 501 298 L 502.25 303 L 504 303 L 502 296 L 500.75 296 z M 30.75 297 L 29 304 L 29.800781 304 L 31 299 L 32.25 304 L 34 304 L 32 297 L 30.75 297 z M 59.75 304 L 58 311 L 58.800781 311 L 60 306 L 61.25 311 L 63 311 L 61 304 L 59.75 304 z M 389.75 304 L 388 311 L 388.80078 311 L 390 306 L 391.25 311 L 393 311 L 391 304 L 389.75 304 z M 250.75 307 L 249 314 L 249.80078 314 L 251 309 L 252.25 314 L 254 314 L 252 307 L 250.75 307 z M 291.75 307 L 290 314 L 290.80078 314 L 292 309 L 293.25 314 L 295 314 L 293 307 L 291.75 307 z M 478.75 307 L 477 314 L 477.80078 314 L 479 309 L 480.25 314 L 482 314 L 480 307 L 478.75 307 z M 15.75 309 L 14 316 L 14.800781 316 L 16 311 L 17.25 316 L 19 316 L 17 309 L 15.75 309 z M 107.75 309 L 106 316 L 106.80078 316 L 108 311 L 109.25 316 L 111 316 L 109 309 L 107.75 309 z M 437.75 309 L 436 316 L 436.80078 316 L 438 311 L 439.25 316 L 441 316 L 439 309 L 437.75 309 z M 157.75 310 L 156 317 L 156.80078 317 L 158 312 L 159.25 317 L 161 317 L 159 310 L 157.75 310 z M 205.75 310 L 204 317 L 204.80078 317 L 206 312 L 207.25 317 L 209 317 L 207 310 L 205.75 310 z M 344.75 312 L 343 319 L 343.80078 319 L 345 314 L 346.25 319 L 348 319 L 346 312 L 344.75 312 z M 133.75 313 L 132 320 L 132.80078 320 L 134 315 L 135.25 320 L 137 320 L 135 313 L 133.75 313 z M 319.75 314 L 318 321 L 318.80078 321 L 320 316 L 321.25 321 L 323 321 L 321 314 L 319.75 314 z M 368.75 314 L 367 321 L 367.80078 321 L 369 316 L 370.25 321 L 372 321 L 370 314 L 368.75 314 z M 228.75 315 L 227 322 L 227.80078 322 L 229 317 L 230.25 322 L 232 322 L 230 315 L 228.75 315 z M 178.75 316 L 177 323 L 177.80078 323 L 179 318 L 180.25 323 L 182 323 L 180 316 L 178.75 316 z M 41.75 317 L 40 324 L 40.800781 324 L 42 319 L 43.25 324 L 45 324 L 43 317 L 41.75 317 z M 83.75 317 L 82 324 L 82.800781 324 L 84 319 L 85.25 324 L 87 324 L 85 317 L 83.75 317 z M 411.75 317 L 410 324 L 410.80078 324 L 412 319 L 413.25 324 L 415 324 L 413 317 L 411.75 317 z M 459.75 319 L 458 326 L 458.80078 326 L 460 321 L 461.25 326 L 463 326 L 461 319 L 459.75 319 z M 505.75 319 L 504 326 L 504.80078 326 L 506 321 L 507.25 326 L 509 326 L 507 319 L 505.75 319 z M 269.75 321 L 268 328 L 268.80078 328 L 270 323 L 271.25 328 L 273 328 L 271 321 L 269.75 321 z M 195.75 328 L 194 335 L 194.80078 335 L 196 330 L 197.25 335 L 199 335 L 197 328 L 195.75 328 z M 290.75 329 L 289 336 L 289.80078 336 L 291 331 L 292.25 336 L 294 336 L 292 329 L 290.75 329 z M 430.75 329 L 429 336 L 429.80078 336 L 431 331 L 432.25 336 L 434 336 L 432 329 L 430.75 329 z M 56.75 331 L 55 338 L 55.800781 338 L 57 333 L 58.25 338 L 60 338 L 58 331 L 56.75 331 z M 332.75 331 L 331 338 L 331.80078 338 L 333 333 L 334.25 338 L 336 338 L 334 331 L 332.75 331 z M 381.75 331 L 380 338 L 380.80078 338 L 382 333 L 383.25 338 L 385 338 L 383 331 L 381.75 331 z M 100.75 332 L 99 339 L 99.800781 339 L 101 334 L 102.25 339 L 104 339 L 102 332 L 100.75 332 z M 9.75 333 L 8 340 L 8.8007812 340 L 10 335 L 11.25 340 L 13 340 L 11 333 L 9.75 333 z M 145.75 333 L 144 340 L 144.80078 340 L 146 335 L 147.25 340 L 149 340 L 147 333 L 145.75 333 z M 473.75 333 L 472 340 L 472.80078 340 L 474 335 L 475.25 340 L 477 340 L 475 333 L 473.75 333 z M 239.75 335 L 238 342 L 238.80078 342 L 240 337 L 241.25 342 L 243 342 L 241 335 L 239.75 335 z M 402.75 337 L 401 344 L 401.80078 344 L 403 339 L 404.25 344 L 406 344 L 404 337 L 402.75 337 z M 123.75 338 L 122 345 L 122.80078 345 L 124 340 L 125.25 345 L 127 345 L 125 338 L 123.75 338 z M 217.75 338 L 216 345 L 216.80078 345 L 218 340 L 219.25 345 L 221 345 L 219 338 L 217.75 338 z M 78.75 339 L 77 346 L 77.800781 346 L 79 341 L 80.25 346 L 82 346 L 80 339 L 78.75 339 z M 172.75 339 L 171 346 L 171.80078 346 L 173 341 L 174.25 346 L 176 346 L 174 339 L 172.75 339 z M 494.75 339 L 493 346 L 493.80078 346 L 495 341 L 496.25 346 L 498 346 L 496 339 L 494.75 339 z M 358.75 340 L 357 347 L 357.80078 347 L 359 342 L 360.25 347 L 362 347 L 360 340 L 358.75 340 z M 265.75 342 L 264 349 L 264.80078 349 L 266 344 L 267.25 349 L 269 349 L 267 342 L 265.75 342 z M 312.75 342 L 311 349 L 311.80078 349 L 313 344 L 314.25 349 L 316 349 L 314 342 L 312.75 342 z M 452.75 342 L 451 349 L 451.80078 349 L 453 344 L 454.25 349 L 456 349 L 454 342 L 452.75 342 z M 31.75 343 L 30 350 L 30.800781 350 L 32 345 L 33.25 350 L 35 350 L 33 343 L 31.75 343 z M 154.75 352 L 153 359 L 153.80078 359 L 155 354 L 156.25 359 L 158 359 L 156 352 L 154.75 352 z M 431.75 352 L 430 359 L 430.80078 359 L 432 354 L 433.25 359 L 435 359 L 433 352 L 431.75 352 z M 61.75 353 L 60 360 L 60.800781 360 L 62 355 L 63.25 360 L 65 360 L 63 353 L 61.75 353 z M 204.75 354 L 203 361 L 203.80078 361 L 205 356 L 206.25 361 L 208 361 L 206 354 L 204.75 354 z M 340.75 354 L 339 361 L 339.80078 361 L 341 356 L 342.25 361 L 344 361 L 342 354 L 340.75 354 z M 111.75 355 L 110 362 L 110.80078 362 L 112 357 L 113.25 362 L 115 362 L 113 355 L 111.75 355 z M 390.75 356 L 389 363 L 389.80078 363 L 391 358 L 392.25 363 L 394 363 L 392 356 L 390.75 356 z M 250.75 357 L 249 364 L 249.80078 364 L 251 359 L 252.25 364 L 254 364 L 252 357 L 250.75 357 z M 297.75 357 L 296 364 L 296.80078 364 L 298 359 L 299.25 364 L 301 364 L 299 357 L 297.75 357 z M 481.75 358 L 480 365 L 480.80078 365 L 482 360 L 483.25 365 L 485 365 L 483 358 L 481.75 358 z M 17.75 359 L 16 366 L 16.800781 366 L 18 361 L 19.25 366 L 21 366 L 19 359 L 17.75 359 z M 274.75 360 L 273 367 L 273.80078 367 L 275 362 L 276.25 367 L 278 367 L 276 360 L 274.75 360 z M 87.75 361 L 86 368 L 86.800781 368 L 88 363 L 89.25 368 L 91 368 L 89 361 L 87.75 361 z M 181.75 361 L 180 368 L 180.80078 368 L 182 363 L 183.25 368 L 185 368 L 183 361 L 181.75 361 z M 365.75 361 L 364 368 L 364.80078 368 L 366 363 L 367.25 368 L 369 368 L 367 361 L 365.75 361 z M 507.75 361 L 506 368 L 506.80078 368 L 508 363 L 509.25 368 L 511 368 L 509 361 L 507.75 361 z M 411.75 362 L 410 369 L 410.80078 369 L 412 364 L 413.25 369 L 415 369 L 413 362 L 411.75 362 z M 40.75 364 L 39 371 L 39.800781 371 L 41 366 L 42.25 371 L 44 371 L 42 364 L 40.75 364 z M 455.75 364 L 454 371 L 454.80078 371 L 456 366 L 457.25 371 L 459 371 L 457 364 L 455.75 364 z M 129.75 365 L 128 372 L 128.80078 372 L 130 367 L 131.25 372 L 133 372 L 131 365 L 129.75 365 z M 222.75 365 L 221 372 L 221.80078 372 L 223 367 L 224.25 372 L 226 372 L 224 365 L 222.75 365 z M 317.75 365 L 316 372 L 316.80078 372 L 318 367 L 319.25 372 L 321 372 L 319 365 L 317.75 365 z M 150.75 374 L 149 381 L 149.80078 381 L 151 376 L 152.25 381 L 154 381 L 152 374 L 150.75 374 z M 336.75 376 L 335 383 L 335.80078 383 L 337 378 L 338.25 383 L 340 383 L 338 376 L 336.75 376 z M 380.75 377 L 379 384 L 379.80078 384 L 381 379 L 382.25 384 L 384 384 L 382 377 L 380.75 377 z M 427.75 377 L 426 384 L 426.80078 384 L 428 379 L 429.25 384 L 431 384 L 429 377 L 427.75 377 z M 473.75 377 L 472 384 L 472.80078 384 L 474 379 L 475.25 384 L 477 384 L 475 377 L 473.75 377 z M 192.75 378 L 191 385 L 191.80078 385 L 193 380 L 194.25 385 L 196 385 L 194 378 L 192.75 378 z M 240.75 378 L 239 385 L 239.80078 385 L 241 380 L 242.25 385 L 244 385 L 242 378 L 240.75 378 z M 55.75 379 L 54 386 L 54.800781 386 L 56 381 L 57.25 386 L 59 386 L 57 379 L 55.75 379 z M 100.75 379 L 99 386 L 99.800781 386 L 101 381 L 102.25 386 L 104 386 L 102 379 L 100.75 379 z M 4.75 382 L 3 389 L 3.8007812 389 L 5 384 L 6.25 389 L 8 389 L 6 382 L 4.75 382 z M 284.75 382 L 283 389 L 283.80078 389 L 285 384 L 286.25 389 L 288 389 L 286 382 L 284.75 382 z M 447.75 383 L 446 390 L 446.80078 390 L 448 385 L 449.25 390 L 451 390 L 449 383 L 447.75 383 z M 27.75 384 L 26 391 L 26.800781 391 L 28 386 L 29.25 391 L 31 391 L 29 384 L 27.75 384 z M 78.75 384 L 77 391 L 77.800781 391 L 79 386 L 80.25 391 L 82 391 L 80 384 L 78.75 384 z M 168.75 384 L 167 391 L 167.80078 391 L 169 386 L 170.25 391 L 172 391 L 170 384 L 168.75 384 z M 261.75 384 L 260 391 L 260.80078 391 L 262 386 L 263.25 391 L 265 391 L 263 384 L 261.75 384 z M 404.75 386 L 403 393 L 403.80078 393 L 405 388 L 406.25 393 L 408 393 L 406 386 L 404.75 386 z M 217.75 387 L 216 394 L 216.80078 394 L 218 389 L 219.25 394 L 221 394 L 219 387 L 217.75 387 z M 495.75 388 L 494 395 L 494.80078 395 L 496 390 L 497.25 395 L 499 395 L 497 388 L 495.75 388 z M 126.75 389 L 125 396 L 125.80078 396 L 127 391 L 128.25 396 L 130 396 L 128 389 L 126.75 389 z M 311.75 389 L 310 396 L 310.80078 396 L 312 391 L 313.25 396 L 315 396 L 313 389 L 311.75 389 z M 359.75 389 L 358 396 L 358.80078 396 L 360 391 L 361.25 396 L 363 396 L 361 389 L 359.75 389 z M 105.75 399 L 104 406 L 104.80078 406 L 106 401 L 107.25 406 L 109 406 L 107 399 L 105.75 399 z M 198.75 399 L 197 406 L 197.80078 406 L 199 401 L 200.25 406 L 202 406 L 200 399 L 198.75 399 z M 385.75 399 L 384 406 L 384.80078 406 L 386 401 L 387.25 406 L 389 406 L 387 399 L 385.75 399 z M 155.75 401 L 154 408 L 154.80078 408 L 156 403 L 157.25 408 L 159 408 L 157 401 L 155.75 401 z M 296.75 401 L 295 408 L 295.80078 408 L 297 403 L 298.25 408 L 300 408 L 298 401 L 296.75 401 z M 477.75 401 L 476 408 L 476.80078 408 L 478 403 L 479.25 408 L 481 408 L 479 401 L 477.75 401 z M 65.75 402 L 64 409 L 64.800781 409 L 66 404 L 67.25 409 L 69 409 L 67 402 L 65.75 402 z M 343.75 402 L 342 409 L 342.80078 409 L 344 404 L 345.25 409 L 347 409 L 345 402 L 343.75 402 z M 433.75 403 L 432 410 L 432.80078 410 L 434 405 L 435.25 410 L 437 410 L 435 403 L 433.75 403 z M 228.75 405 L 227 412 L 227.80078 412 L 229 407 L 230.25 412 L 232 412 L 230 405 L 228.75 405 z M 252.75 405 L 251 412 L 251.80078 412 L 253 407 L 254.25 412 L 256 412 L 254 405 L 252.75 405 z M 19.75 406 L 18 413 L 18.800781 413 L 20 408 L 21.25 413 L 23 413 L 21 406 L 19.75 406 z M 42.75 406 L 41 413 L 41.800781 413 L 43 408 L 44.25 413 L 46 413 L 44 406 L 42.75 406 z M 135.75 407 L 134 414 L 134.80078 414 L 136 409 L 137.25 414 L 139 414 L 137 407 L 135.75 407 z M 456.75 407 L 455 414 L 455.80078 414 L 457 409 L 458.25 414 L 460 414 L 458 407 L 456.75 407 z M 504.75 407 L 503 414 L 503.80078 414 L 505 409 L 506.25 414 L 508 414 L 506 407 L 504.75 407 z M 321.75 408 L 320 415 L 320.80078 415 L 322 410 L 323.25 415 L 325 415 L 323 408 L 321.75 408 z M 409.75 408 L 408 415 L 408.80078 415 L 410 410 L 411.25 415 L 413 415 L 411 408 L 409.75 408 z M 175.75 410 L 174 417 L 174.80078 417 L 176 412 L 177.25 417 L 179 417 L 177 410 L 175.75 410 z M 85.75 412 L 84 419 L 84.800781 419 L 86 414 L 87.25 419 L 89 419 L 87 412 L 85.75 412 z M 273.75 412 L 272 419 L 272.80078 419 L 274 414 L 275.25 419 L 277 419 L 275 412 L 273.75 412 z M 364.75 414 L 363 421 L 363.80078 421 L 365 416 L 366.25 421 L 368 421 L 366 414 L 364.75 414 z M 290.75 422 L 289 429 L 289.80078 429 L 291 424 L 292.25 429 L 294 429 L 292 422 L 290.75 422 z M 428.75 422 L 427 429 L 427.80078 429 L 429 424 L 430.25 429 L 432 429 L 430 422 L 428.75 422 z M 103.75 423 L 102 430 L 102.80078 430 L 104 425 L 105.25 430 L 107 430 L 105 423 L 103.75 423 z M 195.75 423 L 194 430 L 194.80078 430 L 196 425 L 197.25 430 L 199 430 L 197 423 L 195.75 423 z M 384.75 423 L 383 430 L 383.80078 430 L 385 425 L 386.25 430 L 388 430 L 386 423 L 384.75 423 z M 4.75 424 L 3 431 L 3.8007812 431 L 5 426 L 6.25 431 L 8 431 L 6 424 L 4.75 424 z M 54.75 424 L 53 431 L 53.800781 431 L 55 426 L 56.25 431 L 58 431 L 56 424 L 54.75 424 z M 237.75 426 L 236 433 L 236.80078 433 L 238 428 L 239.25 433 L 241 433 L 239 426 L 237.75 426 z M 470.75 426 L 469 433 L 469.80078 433 L 471 428 L 472.25 433 L 474 433 L 472 426 L 470.75 426 z M 147.75 427 L 146 434 L 146.80078 434 L 148 429 L 149.25 434 L 151 434 L 149 427 L 147.75 427 z M 332.75 427 L 331 434 L 331.80078 434 L 333 429 L 334.25 434 L 336 434 L 334 427 L 332.75 427 z M 214.75 428 L 213 435 L 213.80078 435 L 215 430 L 216.25 435 L 218 435 L 216 428 L 214.75 428 z M 492.75 428 L 491 435 L 491.80078 435 L 493 430 L 494.25 435 L 496 435 L 494 428 L 492.75 428 z M 123.75 430 L 122 437 L 122.80078 437 L 124 432 L 125.25 437 L 127 437 L 125 430 L 123.75 430 z M 30.75 431 L 29 438 L 29.800781 438 L 31 433 L 32.25 438 L 34 438 L 32 431 L 30.75 431 z M 310.75 433 L 309 440 L 309.80078 440 L 311 435 L 312.25 440 L 314 440 L 312 433 L 310.75 433 z M 357.75 433 L 356 440 L 356.80078 440 L 358 435 L 359.25 440 L 361 440 L 359 433 L 357.75 433 z M 171.75 434 L 170 441 L 170.80078 441 L 172 436 L 173.25 441 L 175 441 L 173 434 L 171.75 434 z M 263.75 434 L 262 441 L 262.80078 441 L 264 436 L 265.25 441 L 267 441 L 265 434 L 263.75 434 z M 450.75 434 L 449 441 L 449.80078 441 L 451 436 L 452.25 441 L 454 441 L 452 434 L 450.75 434 z M 80.75 435 L 79 442 L 79.800781 442 L 81 437 L 82.25 442 L 84 442 L 82 435 L 80.75 435 z M 406.75 436 L 405 443 L 405.80078 443 L 407 438 L 408.25 443 L 410 443 L 408 436 L 406.75 436 z M 247.75 444 L 246 451 L 246.80078 451 L 248 446 L 249.25 451 L 251 451 L 249 444 L 247.75 444 z M 430.75 445 L 429 452 L 429.80078 452 L 431 447 L 432.25 452 L 434 452 L 432 445 L 430.75 445 z M 62.75 446 L 61 453 L 61.800781 453 L 63 448 L 64.25 453 L 66 453 L 64 446 L 62.75 446 z M 18.75 447 L 17 454 L 17.800781 454 L 19 449 L 20.25 454 L 22 454 L 20 447 L 18.75 447 z M 153.75 447 L 152 454 L 152.80078 454 L 154 449 L 155.25 454 L 157 454 L 155 447 L 153.75 447 z M 387.75 448 L 386 455 L 386.80078 455 L 388 450 L 389.25 455 L 391 455 L 389 448 L 387.75 448 z M 205.75 450 L 204 457 L 204.80078 457 L 206 452 L 207.25 457 L 209 457 L 207 450 L 205.75 450 z M 508.75 450 L 507 457 L 507.80078 457 L 509 452 L 510.25 457 L 512 457 L 510 450 L 508.75 450 z M 110.75 451 L 109 458 L 109.80078 458 L 111 453 L 112.25 458 L 114 458 L 112 451 L 110.75 451 z M 183.75 451 L 182 458 L 182.80078 458 L 184 453 L 185.25 458 L 187 458 L 185 451 L 183.75 451 z M 296.75 451 L 295 458 L 295.80078 458 L 297 453 L 298.25 458 L 300 458 L 298 451 L 296.75 451 z M 344.75 451 L 343 458 L 343.80078 458 L 345 453 L 346.25 458 L 348 458 L 346 451 L 344.75 451 z M 485.75 451 L 484 458 L 484.80078 458 L 486 453 L 487.25 458 L 489 458 L 487 451 L 485.75 451 z M 273.75 452 L 272 459 L 272.80078 459 L 274 454 L 275.25 459 L 277 459 L 275 452 L 273.75 452 z M 89.75 453 L 88 460 L 88.800781 460 L 90 455 L 91.25 460 L 93 460 L 91 453 L 89.75 453 z M 459.75 455 L 458 462 L 458.80078 462 L 460 457 L 461.25 462 L 463 462 L 461 455 L 459.75 455 z M 131.75 456 L 130 463 L 130.80078 463 L 132 458 L 133.25 463 L 135 463 L 133 456 L 131.75 456 z M 367.75 456 L 366 463 L 366.80078 463 L 368 458 L 369.25 463 L 371 463 L 369 456 L 367.75 456 z M 224.75 457 L 223 464 L 223.80078 464 L 225 459 L 226.25 464 L 228 464 L 226 457 L 224.75 457 z M 318.75 458 L 317 465 L 317.80078 465 L 319 460 L 320.25 465 L 322 465 L 320 458 L 318.75 458 z M 36.75 459 L 35 466 L 35.800781 466 L 37 461 L 38.25 466 L 40 466 L 38 459 L 36.75 459 z M 408.75 460 L 407 467 L 407.80078 467 L 409 462 L 410.25 467 L 412 467 L 410 460 L 408.75 460 z M 56.75 468 L 55 475 L 55.800781 475 L 57 470 L 58.25 475 L 60 475 L 58 468 L 56.75 468 z M 243.75 468 L 242 475 L 242.80078 475 L 244 470 L 245.25 475 L 247 475 L 245 468 L 243.75 468 z M 429.75 468 L 428 475 L 428.80078 475 L 430 470 L 431.25 475 L 433 475 L 431 468 L 429.75 468 z M 9.75 469 L 8 476 L 8.8007812 476 L 10 471 L 11.25 476 L 13 476 L 11 469 L 9.75 469 z M 151.75 469 L 150 476 L 150.80078 476 L 152 471 L 153.25 476 L 155 476 L 153 469 L 151.75 469 z M 471.75 469 L 470 476 L 470.80078 476 L 472 471 L 473.25 476 L 475 476 L 473 469 L 471.75 469 z M 335.75 471 L 334 478 L 334.80078 478 L 336 473 L 337.25 478 L 339 478 L 337 471 L 335.75 471 z M 193.75 472 L 192 479 L 192.80078 479 L 194 474 L 195.25 479 L 197 479 L 195 472 L 193.75 472 z M 99.75 474 L 98 481 L 98.800781 481 L 100 476 L 101.25 481 L 103 481 L 101 474 L 99.75 474 z M 169.75 474 L 168 481 L 168.80078 481 L 170 476 L 171.25 481 L 173 481 L 171 474 L 169.75 474 z M 76.75 475 L 75 482 L 75.800781 482 L 77 477 L 78.25 482 L 80 482 L 78 475 L 76.75 475 z M 284.75 475 L 283 482 L 283.80078 482 L 285 477 L 286.25 482 L 288 482 L 286 475 L 284.75 475 z M 379.75 476 L 378 483 L 378.80078 483 L 380 478 L 381.25 483 L 383 483 L 381 476 L 379.75 476 z M 263.75 477 L 262 484 L 262.80078 484 L 264 479 L 265.25 484 L 267 484 L 265 477 L 263.75 477 z M 310.75 477 L 309 484 L 309.80078 484 L 311 479 L 312.25 484 L 314 484 L 312 477 L 310.75 477 z M 498.75 477 L 497 484 L 497.80078 484 L 499 479 L 500.25 484 L 502 484 L 500 477 L 498.75 477 z M 357.75 478 L 356 485 L 356.80078 485 L 358 480 L 359.25 485 L 361 485 L 359 478 L 357.75 478 z M 126.75 480 L 125 487 L 125.80078 487 L 127 482 L 128.25 487 L 130 487 L 128 480 L 126.75 480 z M 403.75 481 L 402 488 L 402.80078 488 L 404 483 L 405.25 488 L 407 488 L 405 481 L 403.75 481 z M 452.75 481 L 451 488 L 451.80078 488 L 453 483 L 454.25 488 L 456 488 L 454 481 L 452.75 481 z M 31.75 482 L 30 489 L 30.800781 489 L 32 484 L 33.25 489 L 35 489 L 33 482 L 31.75 482 z M 221.75 482 L 220 489 L 220.80078 489 L 222 484 L 223.25 489 L 225 489 L 223 482 L 221.75 482 z M 201.75 491 L 200 498 L 200.80078 498 L 202 493 L 203.25 498 L 205 498 L 203 491 L 201.75 491 z M 479.75 491 L 478 498 L 478.80078 498 L 480 493 L 481.25 498 L 483 498 L 481 491 L 479.75 491 z M 108.75 493 L 107 500 L 107.80078 500 L 109 495 L 110.25 500 L 112 500 L 110 493 L 108.75 493 z M 436.75 493 L 435 500 L 435.80078 500 L 437 495 L 438.25 500 L 440 500 L 438 493 L 436.75 493 z M 137.75 495 L 136 502 L 136.80078 502 L 138 497 L 139.25 502 L 141 502 L 139 495 L 137.75 495 z M 342.75 495 L 341 502 L 341.80078 502 L 343 497 L 344.25 502 L 346 502 L 344 495 L 342.75 495 z M 16.75 496 L 15 503 L 15.800781 503 L 17 498 L 18.25 503 L 20 503 L 18 496 L 16.75 496 z M 249.75 496 L 248 503 L 248.80078 503 L 250 498 L 251.25 503 L 253 503 L 251 496 L 249.75 496 z M 297.75 496 L 296 503 L 296.80078 503 L 298 498 L 299.25 503 L 301 503 L 299 496 L 297.75 496 z M 64.75 497 L 63 504 L 63.800781 504 L 65 499 L 66.25 504 L 68 504 L 66 497 L 64.75 497 z M 159.75 497 L 158 504 L 158.80078 504 L 160 499 L 161.25 504 L 163 504 L 161 497 L 159.75 497 z M 319.75 498 L 318 505 L 318.80078 505 L 320 500 L 321.25 505 L 323 505 L 321 498 L 319.75 498 z M 392.75 498 L 391 505 L 391.80078 505 L 393 500 L 394.25 505 L 396 505 L 394 498 L 392.75 498 z M 44.75 499 L 43 506 L 43.800781 506 L 45 501 L 46.25 506 L 48 506 L 46 499 L 44.75 499 z M 85.75 501 L 84 508 L 84.800781 508 L 86 503 L 87.25 508 L 89 508 L 87 501 L 85.75 501 z M 225.75 502 L 224 509 L 224.80078 509 L 226 504 L 227.25 509 L 229 509 L 227 502 L 225.75 502 z M 269.75 502 L 268 509 L 268.80078 509 L 270 504 L 271.25 509 L 273 509 L 271 502 L 269.75 502 z M 458.75 502 L 457 509 L 457.80078 509 L 459 504 L 460.25 509 L 462 509 L 460 502 L 458.75 502 z M 178.75 503 L 177 510 L 177.80078 510 L 179 505 L 180.25 510 L 182 510 L 180 503 L 178.75 503 z M 416.75 503 L 415 510 L 415.80078 510 L 417 505 L 418.25 510 L 420 510 L 418 503 L 416.75 503 z M 500.75 504 L 499 511 L 499.80078 511 L 501 506 L 502.25 511 L 504 511 L 502 504 L 500.75 504 z M 362.75 505 L 361 512 L 361.80078 512 L 363 507 L 364.25 512 L 366 512 L 364 505 L 362.75 505 z "
     style="fill:#7fd181" />
  <rect
     style="fill:none;fill-opacity:1;stroke:none"
     id="rect8566"
     y="0"
     x="0"
     rx="0"
     height="512"
     width="512" />
  <desc
     id="desc1592">Created with Snap</desc>
</svg>
