<?xml version="1.0" encoding="UTF-8" standalone="no"?>
<svg
   viewBox="0 0 8 8"
   height="8"
   width="8"
   version="1.1"
   id="svg1"
   xmlns="http://www.w3.org/2000/svg"
   xmlns:svg="http://www.w3.org/2000/svg">
  <defs
     id="defs1" />
  <rect
     style="visibility:hidden;fill:none;stroke:none"
     y="0"
     x="0"
     height="8"
     width="8"
     id="rect1" />
  <path
     id="path11"
     style="fill:#000000"
     d="M 3.5 0 A 3.4999998 3.4999924 0 0 0 0 3.5 A 3.4999998 3.4999924 0 0 0 3.5 7 A 3.4999998 3.4999924 0 0 0 7 3.5 A 3.4999998 3.4999924 0 0 0 3.5 0 z M 3 0.25 L 4 0.25 L 4.0019531 1.0019531 C 4.5874921 1.0274881 5.013575 1.1409163 5.28125 1.3398438 C 5.554498 1.5387712 5.75 1.8674473 5.75 2.25 C 5.75 2.5356425 5.6000421 2.7385726 5.4160156 2.9375 C 5.2319891 3.1313299 4.812291 3.2900312 4.5 3.3359375 L 4.5 3.375 C 4.8290207 3.4259749 5.2727485 3.5011597 5.4902344 3.6796875 C 5.7077204 3.8582152 5.875 4.1327494 5.875 4.5 C 5.875 4.9488588 5.7095937 5.3801662 5.375 5.625 C 5.0459793 5.8698338 4.7499918 6 4 6 L 4 6.75 L 3 6.75 L 3 6 L 2 6 L 1.9785156 0.99414062 L 3 1 L 3 0.25 z M 2.875 1.875 L 2.875 3 L 3.5 3 L 3.5 1.875 L 2.875 1.875 z M 4 1.875 L 4 3 C 4.4996529 3 4.875 2.8643328 4.875 2.375 C 4.875 2.0000027 4.3749959 1.875 4 1.875 z M 2.875 3.875 L 2.875 5 L 3.5 5 L 3.5 3.875 L 2.875 3.875 z M 4 3.875 L 4 5 C 4.8749939 5 5 4.7499983 5 4.5 C 5 4.2500018 4.8749939 3.875 4 3.875 z " />
</svg>
