<?xml version="1.0" encoding="UTF-8" standalone="no"?>
<svg
   viewBox="0 0 8 8"
   height="8"
   width="8"
   version="1.1"
   id="svg1"
   xmlns="http://www.w3.org/2000/svg"
   xmlns:svg="http://www.w3.org/2000/svg">
  <defs
     id="defs1" />
  <rect
     style="visibility:hidden;fill:none;stroke:none"
     y="0"
     x="0"
     height="8"
     width="8"
     id="rect1" />
  <path
     id="path11"
     style="fill:#000000"
     d="M 3.5 0 A 3.5 3.5 0 0 0 0 3.5 A 3.5 3.5 0 0 0 3.5 7 A 3.5 3.5 0 0 0 6.9882812 3.6640625 C 6.9503193 3.7629137 6.8113183 3.9710065 6.5683594 4.2910156 C 6.2802396 4.0907304 6.0054036 3.9247389 5.7460938 3.7929688 C 5.7806683 3.7244472 5.8190426 3.6569986 5.859375 3.59375 C 5.8997354 3.5305014 5.9341018 3.4700852 5.9628906 3.4121094 C 6.0032513 3.3488608 6.0436661 3.2884446 6.0839844 3.2304688 C 6.1243449 3.1672201 6.1668146 3.1068105 6.2128906 3.0488281 C 6.3281371 3.1120767 6.4473481 3.1801118 6.5683594 3.2539062 C 6.6893706 3.3224214 6.7904218 3.3924161 6.8710938 3.4609375 C 6.9398179 3.5112253 6.9802518 3.5548161 6.9941406 3.5917969 A 3.5 3.5 0 0 0 7 3.5 A 3.5 3.5 0 0 0 3.5 0 z M 4.1855469 1.3671875 C 4.2346801 1.5077539 4.2936616 1.6613985 4.3613281 1.8300781 C 4.4350947 1.9987579 4.5046391 2.165072 4.5722656 2.328125 C 4.6460256 2.4855713 4.7086325 2.6241211 4.7578125 2.7421875 C 4.8438723 2.9446071 4.9170358 3.1323277 4.9785156 3.3066406 C 5.0400489 3.4809337 5.0703125 3.6409163 5.0703125 3.7871094 C 5.0703125 3.8377759 5.0561239 3.916671 5.0253906 4.0234375 C 4.9946574 4.1302773 4.9534767 4.2454475 4.9042969 4.3691406 C 4.8551636 4.4872204 4.8034201 4.5938733 4.7480469 4.6894531 C 4.2808611 4.9087394 3.7094017 5.0195312 3.0332031 5.0195312 C 2.2340647 5.0195312 1.8339844 4.8128028 1.8339844 4.4023438 C 1.8339844 4.2898906 1.8554375 4.1810518 1.8984375 4.0742188 C 1.9414375 3.9617723 2.0004122 3.8680217 2.0742188 3.7949219 C 2.2278984 3.912995 2.4028964 4.0004074 2.5996094 4.0566406 C 2.7963156 4.1073072 3.0391989 4.1328125 3.328125 4.1328125 C 3.7338442 4.1328125 4.1428283 4.075111 4.5546875 3.9570312 C 4.4686344 3.8108449 4.3865604 3.674481 4.3066406 3.5507812 C 4.2328741 3.4214616 4.1613698 3.3062913 4.09375 3.2050781 C 3.8908904 2.9183254 3.7425904 2.6965021 3.6503906 2.5390625 C 3.5581775 2.3760029 3.5117187 2.2352539 3.5117188 2.1171875 C 3.5117187 1.9485012 3.5779382 1.797049 3.7070312 1.6621094 C 3.8361244 1.5215363 3.9949873 1.423414 4.1855469 1.3671875 z M 0.5078125 3.0488281 C 0.623059 3.1120767 0.74226998 3.1801118 0.86328125 3.2539062 C 0.98429252 3.3224214 1.0853438 3.3924161 1.1660156 3.4609375 C 1.2524522 3.524186 1.2949219 3.5769769 1.2949219 3.6191406 C 1.2949219 3.6876622 1.151401 3.9115237 0.86328125 4.2910156 C 0.57516149 4.0907304 0.30032549 3.9247389 0.041015625 3.7929688 C 0.075590275 3.7244472 0.11396443 3.6569986 0.15429688 3.59375 C 0.19465719 3.5305014 0.22902353 3.4700852 0.2578125 3.4121094 C 0.29817282 3.3488608 0.33858774 3.2884446 0.37890625 3.2304688 C 0.41926657 3.1672201 0.4617362 3.1068105 0.5078125 3.0488281 z " />
</svg>
