<?xml version="1.0" encoding="UTF-8" standalone="no"?>
<svg
   viewBox="0 0 8 8"
   height="8"
   width="8"
   version="1.1"
   id="svg1"
   xmlns="http://www.w3.org/2000/svg"
   xmlns:svg="http://www.w3.org/2000/svg">
  <defs
     id="defs1" />
  <rect
     style="visibility:hidden;fill:none;stroke:none"
     y="0"
     x="0"
     height="8"
     width="8"
     id="rect1" />
  <path
     id="path11"
     style="fill:#000000"
     d="M 3.5 0 A 3.4999998 3.4999924 0 0 0 0 3.5 A 3.4999998 3.4999924 0 0 0 3.5 7 A 3.4999998 3.4999924 0 0 0 7 3.5 A 3.4999998 3.4999924 0 0 0 3.5 0 z M 3 0.375 L 4 0.375 L 4 0.953125 C 4.5485351 0.9936469 5.0559076 1.1069068 5.5214844 1.2949219 L 5.125 2.1972656 C 4.8942767 2.1097662 4.6612703 2.0430116 4.4277344 1.9941406 C 4.1970111 1.9452607 3.9788362 1.9118824 3.7734375 1.8964844 L 3.7734375 3.0351562 C 4.0857599 3.1406833 4.3826902 3.25538 4.6640625 3.3789062 C 4.9454349 3.5024421 5.1762437 3.6591651 5.3535156 3.8496094 C 5.5307875 4.0400632 5.6191406 4.2907746 5.6191406 4.5996094 C 5.6191406 4.9830707 5.4649001 5.3045181 5.1582031 5.5644531 C 4.8926612 5.7916034 4.5062821 5.9399095 4 6.0078125 L 4 6.625 L 3 6.625 L 3 6.0390625 C 2.7043237 6.0257685 2.4340808 5.9976518 2.1914062 5.9511719 C 1.8987726 5.8920005 1.632599 5.8126627 1.390625 5.7148438 L 1.390625 4.6953125 C 1.6297864 4.8008397 1.9140827 4.8988192 2.2460938 4.9863281 C 2.5781048 5.0712931 2.8942513 5.122645 3.1953125 5.140625 L 3.1953125 3.9433594 C 2.7507524 3.7837966 2.3962048 3.6297313 2.1289062 3.4804688 C 1.8644099 3.328624 1.6728618 3.1612419 1.5546875 2.9785156 C 1.4393149 2.7932166 1.3808594 2.5718155 1.3808594 2.3144531 C 1.3808594 1.9206915 1.5510354 1.6072456 1.8886719 1.3730469 C 2.1841076 1.1681229 2.5541016 1.0358582 3 0.9765625 L 3 0.375 z M 3.1953125 1.9121094 C 2.8323515 1.9610091 2.6523438 2.0957094 2.6523438 2.3144531 C 2.6523437 2.425116 2.6959996 2.517199 2.7832031 2.5917969 C 2.8704275 2.6664329 3.0068003 2.7431325 3.1953125 2.8203125 L 3.1953125 1.9121094 z M 3.7734375 4.1523438 L 3.7734375 5.1132812 C 4.1560977 5.0541098 4.3476562 4.9027212 4.3476562 4.6582031 C 4.3476562 4.5501128 4.300751 4.4574104 4.2050781 4.3828125 C 4.1094157 4.3081765 3.9647624 4.2321057 3.7734375 4.1523438 z " />
</svg>
