<?xml version="1.0" encoding="UTF-8" standalone="no"?>
<svg
   viewBox="0 0 8 8"
   height="8"
   width="8"
   version="1.1"
   id="svg1"
   xmlns="http://www.w3.org/2000/svg"
   xmlns:svg="http://www.w3.org/2000/svg">
  <defs
     id="defs1" />
  <rect
     style="visibility:hidden;fill:none;stroke:none"
     y="0"
     x="0"
     height="8"
     width="8"
     id="rect1" />
  <path
     id="path11"
     style="fill:#000000"
     d="M 3.5 0 A 3.4999998 3.4999924 0 0 0 0 3.5 A 3.4999998 3.4999924 0 0 0 3.5 7 A 3.4999998 3.4999924 0 0 0 7 3.5 A 3.4999998 3.4999924 0 0 0 3.5 0 z M 4 0.375 L 5 0.5 L 5 1 L 5.75 1 L 5.75 1.875 L 5 1.875 L 5 5.75 L 4.2460938 5.7460938 L 4.0742188 5.2753906 L 4.03125 5.2753906 C 3.9249224 5.4256861 3.7432725 5.5540648 3.5644531 5.6601562 C 3.3856337 5.7618291 3.1249959 5.875 2.75 5.875 C 2.3242713 5.8488908 2.0303164 5.8006004 1.75 5.5 C 1.4745144 5.1993997 1.375 4.8749947 1.375 4.125 C 1.375 3.4999948 1.6249979 3.2499992 1.75 3.125 C 2.0406365 2.8343651 2.4343668 2.6894531 2.8886719 2.6894531 C 3.1738189 2.6894531 3.4081363 2.7401626 3.5917969 2.8417969 C 3.775447 2.9434699 3.9210162 3.0684451 4.0273438 3.21875 L 4.0644531 3.21875 C 4.0451099 3.1258853 4.0252031 3.007205 4.0058594 2.8613281 C 3.9913254 2.7110231 4.0010456 2.3605004 4 2.25 L 4 2 L 3 2 C 2.99164 2.042272 3 1.2144017 3 1 L 4 1 L 4 0.375 z M 3.2226562 3.4921875 C 2.8784534 3.4921875 2.5 3.7499923 2.5 4 C 2.5 4.322712 2.4999998 5 3.125 5 C 3.8750022 5 4 4.8749947 4 4.125 C 4 3.8521921 3.9396701 3.8403589 3.875 3.75 C 3.759011 3.5775931 3.541639 3.4921875 3.2226562 3.4921875 z M 1.75 6 L 5 6 L 5 6.625 L 2 6.625 L 1.75 6 z " />
</svg>
