<?xml version="1.0" encoding="UTF-8" standalone="no"?>
<svg
   viewBox="0 0 8 8"
   height="8"
   width="8"
   version="1.1"
   id="svg1"
   xmlns="http://www.w3.org/2000/svg"
   xmlns:svg="http://www.w3.org/2000/svg">
  <defs
     id="defs1" />
  <rect
     style="visibility:hidden;fill:none;stroke:none"
     y="0"
     x="0"
     height="8"
     width="8"
     id="rect1" />
  <path
     id="path11"
     style="fill:#000000"
     d="M 3.5 0 A 3.5 3.5 0 0 0 0 3.5 A 3.5 3.5 0 0 0 3.5 7 A 3.5 3.5 0 0 0 7 3.5 A 3.5 3.5 0 0 0 3.5 0 z M 3.7226562 0.875 L 3.7246094 0.875 C 3.9358697 0.87514864 4.1465408 0.90043456 4.3554688 0.94921875 C 4.5673685 0.99575204 4.7620998 1.0590517 4.9414062 1.140625 L 4.5273438 2.1855469 C 4.3922839 2.1272803 4.2589392 2.0829077 4.1308594 2.0527344 C 4.0027528 2.0224011 3.8669894 2.0058594 3.7226562 2.0058594 C 3.4618565 2.0058594 3.2627601 2.0695793 3.1230469 2.1953125 C 2.9856603 2.318679 2.90294 2.4840998 2.875 2.6914062 L 4.0546875 2.6914062 L 4.0546875 3.4082031 L 2.8222656 3.4082031 C 2.819599 3.4221364 2.8164531 3.4427032 2.8144531 3.4707031 L 2.8144531 3.5585938 L 2.8144531 3.640625 C 2.8171198 3.666225 2.8202656 3.6883646 2.8222656 3.7070312 L 3.8242188 3.7070312 L 3.8242188 4.4238281 L 2.9023438 4.4238281 C 2.9418104 4.6170946 3.0376064 4.7619486 3.1914062 4.8574219 C 3.3474194 4.9506018 3.5544005 4.9960937 3.8105469 4.9960938 C 3.9898534 4.9960938 4.156867 4.9802458 4.3105469 4.9453125 C 4.4642401 4.9103792 4.6075145 4.8629341 4.7402344 4.8046875 L 4.7402344 5.9335938 C 4.6168678 6.0010737 4.4692415 6.0497648 4.296875 6.0800781 C 4.1269018 6.1104114 3.9345694 6.125 3.7226562 6.125 C 3.1544768 6.125 2.6819205 5.9845045 2.3046875 5.7050781 C 1.9297879 5.4233251 1.6831997 4.9966676 1.5644531 4.4238281 L 1.0195312 4.4238281 L 1.0195312 3.7070312 L 1.4707031 3.7070312 C 1.4680365 3.6884313 1.4648906 3.6666052 1.4628906 3.6386719 L 1.4628906 3.5585938 C 1.4628906 3.5306604 1.4641302 3.4978239 1.4667969 3.4628906 C 1.4694635 3.4279573 1.4707031 3.4105365 1.4707031 3.4082031 L 1.0214844 3.4082031 L 1.0214844 2.6914062 L 1.5371094 2.6914062 C 1.6465026 2.1278801 1.8843604 1.6850011 2.25 1.3613281 C 2.61753 1.0380046 3.1088223 0.87534241 3.7226562 0.875 z " />
</svg>
