<?xml version="1.0" encoding="UTF-8" standalone="no"?>
<svg
   viewBox="0 0 8 8"
   height="8"
   width="8"
   version="1.1"
   id="svg1"
   xmlns="http://www.w3.org/2000/svg"
   xmlns:svg="http://www.w3.org/2000/svg">
  <defs
     id="defs1" />
  <rect
     style="visibility:hidden;fill:none;stroke:none"
     y="0"
     x="0"
     height="8"
     width="8"
     id="rect1" />
  <path
     id="path11"
     style="fill:#000000"
     d="M 3.5 0 A 3.4999998 3.4999924 0 0 0 0 3.5 A 3.4999998 3.4999924 0 0 0 3.5 7 A 3.4999998 3.4999924 0 0 0 7 3.5 A 3.4999998 3.4999924 0 0 0 3.5 0 z M 1.375 1 L 4 1 L 4 1.75 L 2 1.75 L 2 3.125 L 3.375 3.125 L 3.375 4 L 2 4 L 2 6 L 1.375 6 L 1 5.625 L 1 1.375 L 1.375 1 z M 6.1074219 2.1796875 C 6.1738218 2.1796875 6.2455357 2.1825 6.3222656 2.1875 C 6.4040655 2.1925 6.4703744 2.2008438 6.5214844 2.2148438 L 6.4296875 3.0351562 C 6.3172276 3.0117563 6.1845998 3 6.03125 3 C 5.8625602 3 5.6994855 3.0396107 5.5410156 3.1191406 C 5.3825458 3.1939406 5.2526305 3.3148758 5.1503906 3.4785156 C 5.0532607 3.6374955 5 3.7568702 5 4 L 5 6 L 4 6 L 4 2.25 L 4.75 2.25 L 4.9042969 2.9101562 L 4.9570312 2.9101562 C 5.0694811 2.7091065 5.2264114 2.5367542 5.4257812 2.3964844 C 5.6251411 2.2515445 5.8518321 2.1796875 6.1074219 2.1796875 z " />
</svg>
