<?xml version="1.0" encoding="UTF-8" standalone="no"?>
<svg
   viewBox="0 0 8 8"
   height="8"
   width="8"
   version="1.1"
   id="svg1"
   xmlns="http://www.w3.org/2000/svg"
   xmlns:svg="http://www.w3.org/2000/svg">
  <defs
     id="defs1" />
  <rect
     style="visibility:hidden;fill:none;stroke:none"
     y="0"
     x="0"
     height="8"
     width="8"
     id="rect1" />
  <path
     id="path11"
     style="fill:#000000"
     d="M 3.5 0 A 3.4999998 3.4999924 0 0 0 0 3.5 A 3.4999998 3.4999924 0 0 0 3.5 7 A 3.4999998 3.4999924 0 0 0 7 3.5 A 3.4999998 3.4999924 0 0 0 3.5 0 z M 3.5390625 1.0664062 C 4.0416745 1.0664063 4.4415197 1.178849 4.7363281 1.4042969 C 5.0359777 1.6253264 5.1855469 1.9486715 5.1855469 2.3730469 C 5.1855469 2.5100868 5.1695463 2.871797 5.1308594 3 L 5.5 3 L 5.5 3.25 L 5 3.25 L 4.5 3.625 L 5.5 3.625 L 5.5 4 L 3.0214844 4 C 2.9296909 4.0972545 2.8808594 4.4464323 2.8808594 4.5878906 C 2.8808594 4.7514511 2.9427123 4.8797915 3.0683594 4.9726562 C 3.1940201 5.0609971 3.3834545 5.1054688 3.6347656 5.1054688 C 3.8957488 5.1054687 4.1510325 5.0784696 4.4023438 5.0253906 C 4.653655 4.9679121 4.9049283 4.891693 5.15625 4.7988281 L 5.15625 5.6347656 C 4.9484255 5.7276303 4.7100976 5.8004367 4.4394531 5.8535156 C 4.1687982 5.9065946 3.8776704 5.9335938 3.5683594 5.9335938 C 2.9787321 5.9335938 2.5369959 5.8148847 2.2421875 5.5761719 C 1.9522098 5.3374589 1.8066406 5.0078475 1.8066406 4.5878906 C 1.8066406 4.4552692 1.8275552 4.106101 1.8613281 4 L 1.5058594 4 L 1.5 4 L 1.5 3.75 L 2 3.75 L 2.5 3.375 L 1.5 3.375 L 1.5 3 L 1.5058594 3 L 3.9277344 3 C 4.0533745 2.893899 4.1132812 2.5259227 4.1132812 2.3535156 C 4.1132812 2.2120573 4.0554107 2.1010553 3.9394531 2.0214844 C 3.8282947 1.9419418 3.6657697 1.9023438 3.453125 1.9023438 C 3.259803 1.9023438 3.063387 1.9259294 2.8652344 1.9746094 C 2.6719124 2.0232892 2.4545405 2.0913176 2.2128906 2.1796875 L 1.8867188 1.3984375 C 2.13803 1.2967645 2.3992669 1.2176352 2.6699219 1.1601562 C 2.9454075 1.0982783 3.2345822 1.0664062 3.5390625 1.0664062 z " />
</svg>
