<?xml version="1.0" encoding="UTF-8" standalone="no"?>
<svg
   viewBox="0 0 8 8"
   height="8"
   width="8"
   version="1.1"
   id="svg1"
   xmlns="http://www.w3.org/2000/svg"
   xmlns:svg="http://www.w3.org/2000/svg">
  <defs
     id="defs1" />
  <rect
     style="visibility:hidden;fill:none;stroke:none"
     y="0"
     x="0"
     height="8"
     width="8"
     id="rect1" />
  <path
     id="path11"
     style="fill:#000000"
     d="M 3.5 0 A 3.5 3.5 0 0 0 0 3.5 A 3.5 3.5 0 0 0 3.5 7 A 3.5 3.5 0 0 0 3.7421875 6.9824219 L 2.8164062 4.9765625 C 2.7336363 4.9855625 2.6511593 4.9863281 2.5683594 4.9863281 L 1.375 4.9863281 L 1.375 4.2539062 L 2.4472656 4.2539062 C 3.1834449 4.2539063 3.652967 3.9804894 3.7792969 3.375 L 1.375 3.375 L 1.375 2.6289062 L 3.7753906 2.6289062 C 3.6447108 2.0321268 3.1747349 1.7324219 2.4472656 1.7324219 L 1.375 1.7324219 L 1.375 1 L 5.4394531 1 L 5.4394531 1.7324219 L 4.2988281 1.7324219 C 4.5427779 1.9720116 4.7076438 2.2673466 4.7773438 2.6289062 L 5.75 2.625 L 5.75 3.375 L 4.7988281 3.375 C 4.7160582 4.0327693 4.5680944 4.5101146 3.984375 4.7714844 L 4.9609375 6.6796875 A 3.5 3.5 0 0 0 7 3.5 A 3.5 3.5 0 0 0 3.5 0 z " />
</svg>
