<?xml version="1.0" encoding="UTF-8" standalone="no"?>
<svg
   viewBox="0 0 8 8"
   height="8"
   width="8"
   version="1.1"
   id="svg1"
   xmlns="http://www.w3.org/2000/svg"
   xmlns:svg="http://www.w3.org/2000/svg">
  <defs
     id="defs1" />
  <rect
     style="visibility:hidden;fill:none;stroke:none"
     y="0"
     x="0"
     height="8"
     width="8"
     id="rect1" />
  <path
     id="path11"
     style="fill:#000000"
     d="M 3.5 0 A 3.5 3.5 0 0 0 0 3.5 A 3.5 3.5 0 0 0 3.5 7 A 3.5 3.5 0 0 0 7 3.5 A 3.5 3.5 0 0 0 3.5 0 z M 3.0605469 1.1914062 L 3.6972656 1.1914062 L 3.7441406 2.5859375 C 3.7617997 2.5730157 3.7788415 2.5597968 3.7929688 2.546875 C 3.8600734 2.4984183 3.9220064 2.4514763 3.9785156 2.40625 C 4.0385566 2.3610237 4.0958346 2.3173864 4.1523438 2.2753906 L 4.1054688 1.1914062 L 4.734375 1.1914062 L 4.7675781 1.8554688 C 4.8947238 1.777938 5.0139347 1.7210818 5.1269531 1.6855469 C 5.2399715 1.650012 5.3541529 1.6334883 5.4707031 1.6367188 C 5.6614217 1.6399492 5.8321321 1.7007859 5.9804688 1.8203125 C 6.1323372 1.9366086 6.2318045 2.1170914 6.28125 2.359375 L 5.7636719 2.5078125 C 5.6859717 2.2784507 5.5597782 2.1640625 5.3867188 2.1640625 C 5.301955 2.1640625 5.2152487 2.1871956 5.1269531 2.2324219 C 5.0386575 2.2776481 4.9271781 2.3517038 4.7929688 2.4550781 L 4.8457031 3.5546875 C 4.8527668 3.7129794 4.8698085 3.8333013 4.8945312 3.9140625 C 4.9227858 3.9948237 4.9773618 4.049051 5.0585938 4.078125 C 5.1433575 4.107199 5.2722531 4.1230469 5.4453125 4.1230469 C 5.6148401 4.1230469 5.7460632 4.1131327 5.8378906 4.09375 C 5.9297181 4.0743673 5.9920255 4.0380153 6.0273438 3.9863281 C 6.062662 3.934641 6.0800781 3.8605853 6.0800781 3.7636719 C 6.0800781 3.6538367 6.0549305 3.522249 6.0019531 3.3671875 C 5.9525076 3.2088956 5.8956041 3.0515459 5.8320312 2.8964844 L 6.4257812 2.7265625 C 6.4646313 2.8202455 6.5021656 2.9280242 6.5410156 3.0507812 C 6.5798657 3.1703078 6.611996 3.2939344 6.6367188 3.4199219 C 6.6614415 3.5426789 6.6738281 3.6570671 6.6738281 3.7636719 C 6.6738281 4.0867166 6.5697058 4.3187978 6.3613281 4.4609375 C 6.1529505 4.6030772 5.8305244 4.6738281 5.3925781 4.6738281 C 5.0888412 4.6738281 4.8511682 4.6460387 4.6816406 4.5878906 C 4.5156449 4.5297426 4.3987615 4.4365343 4.328125 4.3105469 C 4.2610203 4.1845594 4.2238605 4.0192486 4.2167969 3.8125 L 4.1796875 2.9257812 C 4.1514329 2.9483944 4.1243321 2.9688986 4.0996094 2.9882812 C 4.0395684 3.0335075 3.9803373 3.0771448 3.9238281 3.1191406 C 3.8708508 3.1611364 3.8186024 3.201469 3.765625 3.2402344 L 3.78125 3.6035156 C 3.7883136 3.858721 3.7635404 4.1040211 3.7070312 4.3398438 C 3.6540539 4.5756664 3.5596162 4.7839387 3.421875 4.9648438 C 3.2876657 5.1489793 3.1018666 5.295739 2.8652344 5.4023438 C 2.6286021 5.5089485 2.3313237 5.5605469 1.9746094 5.5605469 C 1.6673406 5.5605469 1.3894314 5.5202143 1.1386719 5.4394531 C 0.89144414 5.3586919 0.69325852 5.2343895 0.54492188 5.0664062 C 0.39658523 4.898423 0.32226563 4.6835412 0.32226562 4.421875 C 0.32226562 4.3249616 0.3373542 4.1966786 0.36914062 4.0351562 C 0.40092705 3.8704034 0.48493128 3.6621312 0.61914062 3.4101562 L 1.1582031 3.6132812 C 1.080503 3.7812645 1.025927 3.9181101 0.99414062 4.0214844 C 0.9623542 4.1216282 0.94726563 4.2194928 0.94726562 4.3164062 C 0.94726562 4.5393071 1.0417033 4.7105516 1.2324219 4.8300781 C 1.4231404 4.9496047 1.675902 5.0097656 1.9902344 5.0097656 C 2.3080986 5.0097656 2.5535031 4.9562141 2.7265625 4.8496094 C 2.8996219 4.7462351 3.0184584 4.5954948 3.0820312 4.3984375 C 3.1456041 4.1981498 3.1727048 3.9568302 3.1621094 3.6757812 C 3.0173046 3.7726947 2.891111 3.8487035 2.7851562 3.9003906 C 2.6792015 3.9520778 2.5801087 3.9891056 2.4882812 4.0117188 C 2.3964538 4.0311014 2.3020161 4.0390625 2.203125 4.0390625 C 2.0124065 4.0390625 1.8587377 4.0079683 1.7421875 3.9433594 C 1.6256373 3.87552 1.5412586 3.7856165 1.4882812 3.6757812 C 1.4353039 3.565946 1.4082031 3.4449483 1.4082031 3.3125 C 1.4082031 3.1574385 1.4480649 2.9861941 1.5292969 2.7988281 C 1.6140607 2.6114622 1.7526408 2.4269988 1.9433594 2.2460938 L 2.3925781 2.5371094 C 2.2830916 2.6469446 2.1936834 2.7646375 2.1230469 2.890625 C 2.0559422 3.0166125 2.0234375 3.1296491 2.0234375 3.2265625 C 2.0234375 3.3073237 2.0458832 3.3688362 2.0917969 3.4140625 C 2.1412424 3.4592888 2.2109069 3.4824219 2.3027344 3.4824219 C 2.4086891 3.4856523 2.5224961 3.4552339 2.6425781 3.390625 C 2.7626602 3.3227856 2.926388 3.2090732 3.1347656 3.0507812 L 3.0605469 1.1914062 z M 5.328125 5.0039062 C 5.4164206 5.0039062 5.4907402 5.0336488 5.5507812 5.0917969 C 5.6143541 5.1499449 5.6464844 5.2206959 5.6464844 5.3046875 C 5.6464844 5.3822182 5.6143541 5.4489886 5.5507812 5.5039062 C 5.4907402 5.5588239 5.4164206 5.5859375 5.328125 5.5859375 C 5.2433612 5.5859375 5.1690416 5.5588239 5.1054688 5.5039062 C 5.0418959 5.4489886 5.0097656 5.3822182 5.0097656 5.3046875 C 5.0097656 5.2206959 5.0418959 5.1499449 5.1054688 5.0917969 C 5.1690416 5.0336488 5.2433612 5.0039062 5.328125 5.0039062 z M 6.0957031 5.0039062 C 6.1804669 5.0039062 6.2547865 5.0336488 6.3183594 5.0917969 C 6.3819322 5.1499449 6.4140625 5.2206959 6.4140625 5.3046875 C 6.4140625 5.3822182 6.3819322 5.4489886 6.3183594 5.5039062 C 6.2547865 5.5588239 6.1804669 5.5859375 6.0957031 5.5859375 C 6.0038757 5.5859375 5.9291816 5.5588239 5.8691406 5.5039062 C 5.8090996 5.4489886 5.7792969 5.3822182 5.7792969 5.3046875 C 5.7792969 5.2206959 5.8090996 5.1499449 5.8691406 5.0917969 C 5.9291816 5.0336488 6.0038757 5.0039062 6.0957031 5.0039062 z " />
</svg>
