<?xml version="1.0" encoding="UTF-8" standalone="no"?>
<svg
   viewBox="0 0 8 8"
   height="8"
   width="8"
   version="1.1"
   id="svg1"
   xmlns="http://www.w3.org/2000/svg"
   xmlns:svg="http://www.w3.org/2000/svg">
  <defs
     id="defs1" />
  <rect
     style="visibility:hidden;fill:none;stroke:none"
     y="0"
     x="0"
     height="8"
     width="8"
     id="rect1" />
  <path
     id="path11"
     style="fill:#000000"
     d="M 3.5 0 A 3.4999998 3.4999924 0 0 0 0 3.5 A 3.4999998 3.4999924 0 0 0 3.5 7 A 3.4999998 3.4999924 0 0 0 7 3.5 A 3.4999998 3.4999924 0 0 0 3.5 0 z M 1.125 1 L 2 1 L 2 3.875 L 3.125 2 L 4 2 L 2.6445312 4.0996094 L 4 5.875 L 3.25 5.875 L 2 4.25 L 2 5.875 L 1.125 5.875 L 1.125 1 z M 4.125 2.25 L 5 2.25 L 5.0058594 2.6289062 C 5.1661925 2.4646668 5.4793172 2.2578125 5.8320312 2.2578125 C 5.8833077 2.2578125 5.9999978 2.2500009 6.125 2.375 L 6 3 C 5.9038043 2.976378 5.7304429 2.9570312 5.640625 2.9570312 C 5.3712771 2.9570312 5.0956749 3.0896667 5.0058594 3.2539062 L 5 5.875 L 4.125 5.875 L 4.125 2.25 z " />
</svg>
