<?xml version="1.0" encoding="UTF-8" standalone="no"?>
<svg
   viewBox="0 0 8 8"
   height="8"
   width="8"
   version="1.1"
   id="svg1"
   xmlns="http://www.w3.org/2000/svg"
   xmlns:svg="http://www.w3.org/2000/svg">
  <defs
     id="defs1" />
  <rect
     style="visibility:hidden;fill:none;stroke:none"
     y="0"
     x="0"
     height="8"
     width="8"
     id="rect1" />
  <path
     id="path11"
     style="fill:#000000"
     d="M 3.5 0 A 3.4999998 3.4999924 0 0 0 0 3.5 A 3.4999998 3.4999924 0 0 0 3.5 7 A 3.4999998 3.4999924 0 0 0 7 3.5 A 3.4999998 3.4999924 0 0 0 3.5 0 z M 3.4550781 0.9921875 C 3.940699 0.9893185 4.3216164 1.0875997 4.5976562 1.2792969 C 4.873696 1.4663269 5.0380997 1.6586768 5.125 2 L 5.875 2 L 5.875 2.5 L 5.25 2.5 C 5.298621 2.6249991 5.296007 2.8750009 5.25 3 L 5.875 3 L 5.875 3.5 L 5.125 3.5 C 5.0125451 3.8179492 4.7921252 4.0345071 4.5058594 4.2402344 C 4.2195936 4.4459617 3.9270796 4.5 3.375 4.5 L 3 4.5 L 3 6 L 2 6 L 2 3.625 L 1.25 3.625 L 1.25 3 L 2 3 L 2 2.625 L 1.25 2.625 L 1.25 2 L 2 2 L 2 1 L 3.4550781 0.9921875 z M 3.0097656 1.7148438 L 3.0097656 2.0722656 L 4.0996094 2.0722656 C 3.9820415 1.833811 3.7418463 1.7148438 3.3789062 1.7148438 L 3.0097656 1.7148438 z M 3 2.5 L 3 3 L 4.25 3 C 4.25523 2.957919 4.260711 2.9151273 4.265625 2.8730469 C 4.270855 2.8262799 4.2734375 2.7791509 4.2734375 2.7324219 C 4.2734375 2.6950269 4.270855 2.6585171 4.265625 2.6210938 C 4.2604851 2.5843428 4.2578835 2.5465526 4.2578125 2.5097656 L 3 2.5 z M 3.0097656 3.453125 L 3.0097656 3.8261719 L 3.2167969 3.8261719 C 3.4263885 3.8261719 3.6029609 3.7983274 3.7460938 3.7421875 C 3.8943397 3.6860476 4.0046106 3.5887205 4.0761719 3.453125 L 3.0097656 3.453125 z " />
</svg>
