<?xml version="1.0" encoding="UTF-8" standalone="no"?>
<svg
   viewBox="0 0 8 8"
   height="8"
   width="8"
   version="1.1"
   id="svg1"
   xmlns="http://www.w3.org/2000/svg"
   xmlns:svg="http://www.w3.org/2000/svg">
  <defs
     id="defs1" />
  <rect
     style="visibility:hidden;fill:none;stroke:none"
     y="0"
     x="0"
     height="8"
     width="8"
     id="rect1" />
  <path
     id="path11"
     style="fill:#000000"
     d="M 3.5 0 A 3.5 3.5 0 0 0 0 3.5 A 3.5 3.5 0 0 0 3.5 7 A 3.5 3.5 0 0 0 7 3.5 A 3.5 3.5 0 0 0 3.5 0 z M 3.4472656 0.83984375 C 3.6979154 0.83984375 4.0999446 0.86717505 4.3027344 0.921875 C 4.5078142 0.97657495 4.7024758 1.0436038 4.8847656 1.1210938 L 4.6132812 1.9375 C 4.4514914 1.8714001 4.3043617 1.82 4.1699219 1.78125 C 4.037762 1.74025 3.7216749 1.71875 3.578125 1.71875 C 3.4254552 1.71875 3.307293 1.7646157 3.2207031 1.8535156 C 3.1363932 1.9401055 3 2.0335302 3 2.25 L 3 3 L 4.125 3 L 4.125 3.75 L 3 3.75 L 3 4.125 C 3 4.2503199 3.0076625 4.4085232 2.9765625 4.5019531 C 2.9469625 4.593053 2.9290062 4.6702482 2.8789062 4.7363281 C 2.8288063 4.8024281 2.7744106 4.8587069 2.7128906 4.9042969 C 2.6535907 4.9498968 2.5615099 4.968 2.5 5 L 5.25 5 L 5.25 6 L 2 6 L 1.375 5.5 L 1.375 5 C 1.4706999 4.959 1.5830132 4.9756343 1.6582031 4.9277344 C 1.735703 4.8798344 1.8011057 4.8238824 1.8535156 4.7578125 C 1.9082156 4.6917126 1.9492225 4.611018 1.9765625 4.5175781 C 2.0038625 4.4241782 2.0175781 4.3118474 2.0175781 4.1796875 L 2 3.75 L 1.375 3.75 L 1.375 3 L 2 3 L 2.0175781 2.2695312 C 2.0235781 2.0121215 2.0523869 1.7932911 2.1230469 1.6132812 C 2.1959468 1.4309914 2.2965451 1.2818986 2.421875 1.1679688 C 2.5494749 1.0540389 2.699867 0.97233182 2.8730469 0.91992188 C 3.0484967 0.86752193 3.2399058 0.83984375 3.4472656 0.83984375 z " />
</svg>
