<?xml version="1.0" encoding="UTF-8" standalone="no"?>
<svg
   viewBox="0 0 8 8"
   height="8"
   width="8"
   version="1.1"
   id="svg1"
   xmlns="http://www.w3.org/2000/svg"
   xmlns:svg="http://www.w3.org/2000/svg">
  <defs
     id="defs1" />
  <rect
     style="visibility:hidden;fill:none;stroke:none"
     y="0"
     x="0"
     height="8"
     width="8"
     id="rect1" />
  <path
     id="path11"
     style="fill:#000000"
     d="M 3.5 0 A 3.4999998 3.4999924 0 0 0 0 3.5 A 3.4999998 3.4999924 0 0 0 3.5 7 A 3.4999998 3.4999924 0 0 0 7 3.5 A 3.4999998 3.4999924 0 0 0 3.5 0 z M 2 1 L 3.5 1 C 4.1798735 1 4.6611218 1.1142904 4.9882812 1.3574219 C 5.3154407 1.6005532 5.4785156 1.9692179 5.4785156 2.4648438 C 5.4785156 2.8295408 5.3844937 3.117721 5.1953125 3.328125 C 5.011286 3.538529 4.7880445 3.6940066 4.5273438 3.796875 L 5.625 5.5 L 5.25 6 L 4.8339844 6 L 3.625 4 L 3 4 L 3 6 L 2 6 L 2 1 z M 2.9785156 1.7421875 L 2.9785156 3.2851562 L 3.4472656 3.2851562 C 4.1066976 3.2851562 4.4355469 3.0224842 4.4355469 2.4941406 C 4.4355469 2.2229585 4.3530595 2.030181 4.1894531 1.9179688 C 4.0258787 1.8010702 3.7741286 1.7421875 3.4316406 1.7421875 L 2.9785156 1.7421875 z " />
</svg>
