<?xml version="1.0" encoding="UTF-8" standalone="no"?>
<svg
   viewBox="0 0 8 8"
   height="8"
   width="8"
   version="1.1"
   id="svg1"
   xmlns="http://www.w3.org/2000/svg"
   xmlns:svg="http://www.w3.org/2000/svg">
  <defs
     id="defs1" />
  <rect
     style="visibility:hidden;fill:none;stroke:none"
     y="0"
     x="0"
     height="8"
     width="8"
     id="rect1" />
  <path
     id="path11"
     style="fill:#000000"
     d="M 3.5 0 A 3.5 3.5 0 0 0 0 3.5 A 3.5 3.5 0 0 0 3.5 7 A 3.5 3.5 0 0 0 6.9863281 3.6953125 C 6.9451779 3.8011977 6.7970919 4.023425 6.5390625 4.3632812 C 6.2323518 4.1500721 5.9420551 3.9723005 5.6660156 3.8320312 C 5.7028209 3.7590913 5.7422168 3.690376 5.7851562 3.6230469 C 5.8280955 3.5557176 5.8658131 3.4894528 5.8964844 3.4277344 C 5.9394236 3.3604051 5.982451 3.2960934 6.0253906 3.234375 C 6.0683299 3.1670458 6.1130354 3.1027341 6.1621094 3.0410156 C 6.2847936 3.1083449 6.410244 3.1812149 6.5390625 3.2597656 C 6.6678809 3.3327057 6.7754492 3.4055757 6.8613281 3.4785156 C 6.930338 3.5290126 6.9747517 3.5735551 6.9921875 3.6113281 A 3.5 3.5 0 0 0 7 3.5 A 3.5 3.5 0 0 0 3.5 0 z M 4.2050781 0.63476562 C 4.2381448 0.75517205 4.2811578 0.89919951 4.3339844 1.0703125 C 4.3934509 1.2350721 4.4522588 1.403119 4.5117188 1.5742188 C 4.5777853 1.7389784 4.6353941 1.884959 4.6816406 2.0117188 C 4.7609138 2.2461782 4.8292053 2.4754594 4.8886719 2.6972656 C 4.9481384 2.9190652 4.9785156 3.1277657 4.9785156 3.3242188 C 4.9785156 3.8185111 4.8798402 4.2751002 4.6816406 4.6933594 C 4.490041 5.1115986 4.2193 5.4373954 3.8691406 5.671875 C 3.518988 5.9063479 3.1286645 6.0234375 2.6992188 6.0234375 C 2.573699 6.0234375 2.3826728 5.9572918 2.125 5.8242188 C 1.8673406 5.6911323 1.6155465 5.5265244 1.3710938 5.3300781 L 1.5195312 4.9589844 C 1.6979176 5.0033176 1.866831 5.0356209 2.0253906 5.0546875 C 2.190557 5.0736875 2.3480404 5.0820312 2.5 5.0820312 C 2.988899 5.0820312 3.4032883 4.9566111 3.7402344 4.703125 C 4.083787 4.4559721 4.3367868 4.0944263 4.5019531 3.6191406 C 4.4556866 3.5240942 4.4063556 3.4290508 4.3535156 3.3339844 C 4.3006491 3.2325912 4.2418279 3.13069 4.1757812 3.0292969 C 3.9709684 2.7124442 3.798896 2.4307465 3.6601562 2.1835938 C 3.5280166 1.9301142 3.4628906 1.7076977 3.4628906 1.5175781 C 3.4628906 1.3401385 3.5280166 1.1755371 3.6601562 1.0234375 C 3.798896 0.8713578 3.9804519 0.74250542 4.2050781 0.63476562 z M 0.53125 3.0410156 C 0.65393424 3.1083449 0.77938468 3.1812149 0.90820312 3.2597656 C 1.0370216 3.3327057 1.1445897 3.4055757 1.2304688 3.4785156 C 1.3224819 3.545845 1.3691406 3.6015982 1.3691406 3.6464844 C 1.3691406 3.7194243 1.2149137 3.959306 0.90820312 4.3632812 C 0.60149253 4.1500721 0.31119578 3.9723005 0.03515625 3.8320312 C 0.071961523 3.7590913 0.11135739 3.690376 0.15429688 3.6230469 C 0.19723636 3.5557176 0.23300082 3.4894528 0.26367188 3.4277344 C 0.30661135 3.3604051 0.34963864 3.2960934 0.39257812 3.234375 C 0.43551761 3.1670458 0.48217631 3.1027341 0.53125 3.0410156 z " />
</svg>
