<?xml version="1.0" encoding="UTF-8" standalone="no"?>
<svg
   viewBox="0 0 8 8"
   height="8"
   width="8"
   version="1.1"
   id="svg1"
   xmlns="http://www.w3.org/2000/svg"
   xmlns:svg="http://www.w3.org/2000/svg">
  <defs
     id="defs1" />
  <rect
     style="visibility:hidden;fill:none;stroke:none"
     y="0"
     x="0"
     height="8"
     width="8"
     id="rect1" />
  <path
     id="path11"
     style="fill:#000000"
     d="M 3.5 0 A 3.5 3.5 0 0 0 0 3.5 A 3.5 3.5 0 0 0 3.5 7 A 3.5 3.5 0 0 0 7 3.5 A 3.5 3.5 0 0 0 3.5 0 z M 2 1 L 3.5039062 1 C 4.5679052 1 5.4238281 1.4406573 5.4238281 2.4726562 C 5.4238281 3.5206552 4.523999 4 3.5 4 L 3 4 L 3 4.375 L 5 4.375 L 5 5 L 3 5 L 3 6.125 L 2 6.125 L 2 5 L 1 5 L 1 4.375 L 2 4.375 L 2 4 L 1 4 L 1 3.375 L 2 3.375 L 2 1 z M 3 1.75 L 3 3.375 L 3.5 3.375 C 4.0519994 3.375 4.3359375 3.0409214 4.3359375 2.5449219 C 4.3359375 1.9769224 4.0519994 1.75 3.5 1.75 L 3 1.75 z " />
</svg>
