<?xml version="1.0" encoding="UTF-8" standalone="no"?>
<svg
   viewBox="0 0 8 8"
   height="8"
   width="8"
   version="1.1"
   id="svg1"
   xmlns="http://www.w3.org/2000/svg"
   xmlns:svg="http://www.w3.org/2000/svg">
  <defs
     id="defs1" />
  <rect
     style="visibility:hidden;fill:none;stroke:none"
     y="0"
     x="0"
     height="8"
     width="8"
     id="rect1" />
  <path
     id="path11"
     style="fill:#000000"
     d="M 3.5 0 A 3.5 3.5 0 0 0 1.0390625 1.0234375 L 2.6171875 1.0234375 C 3.1261571 1.0234375 3.5222535 1.0956597 3.8046875 1.2382812 C 4.0871215 1.3809028 4.2943792 1.6089843 4.4238281 1.9238281 C 4.5562191 2.235981 4.6210937 2.6634547 4.6210938 3.2070312 L 4.6210938 4.2734375 L 3.8105469 4.2734375 L 3.8105469 3.2558594 C 3.8105469 2.8441405 3.7727693 2.5328993 3.6992188 2.3203125 C 3.6286102 2.1050347 3.5094921 1.9496528 3.3417969 1.8554688 C 3.1741017 1.7585937 2.9261737 1.7089844 2.5996094 1.7089844 L 1.8378906 1.7089844 L 1.8378906 5.9765625 L 1.0390625 5.9765625 A 3.5 3.5 0 0 0 3.5 7 A 3.5 3.5 0 0 0 7 3.5 A 3.5 3.5 0 0 0 6.0253906 1.078125 L 6.0253906 3.7929688 C 6.0253906 4.3392362 5.9575986 4.7691406 5.8222656 5.0839844 C 5.6898747 5.3988282 5.4806885 5.6256944 5.1953125 5.765625 C 4.9128785 5.9055556 4.5206637 5.9765625 4.0175781 5.9765625 L 2.4199219 5.9765625 L 2.4199219 3.0332031 L 3.2324219 3.0332031 L 3.2324219 5.2910156 L 4.0078125 5.2910156 C 4.3343768 5.2910156 4.5813406 5.2426215 4.7460938 5.1484375 C 4.9137889 5.0515625 5.0329071 4.89375 5.1035156 4.6757812 C 5.1741241 4.4551215 5.2089844 4.1450956 5.2089844 3.7441406 L 5.2089844 1.0234375 L 5.9726562 1.0234375 A 3.5 3.5 0 0 0 3.5 0 z M 1.0253906 1.0371094 A 3.5 3.5 0 0 0 0 3.5 A 3.5 3.5 0 0 0 1.0253906 5.9628906 L 1.0253906 1.0371094 z " />
</svg>
