<?xml version="1.0" encoding="UTF-8" standalone="no"?>
<svg
   viewBox="0 0 8 8"
   height="8"
   width="8"
   version="1.1"
   id="svg1"
   xmlns="http://www.w3.org/2000/svg"
   xmlns:svg="http://www.w3.org/2000/svg">
  <defs
     id="defs1" />
  <rect
     style="visibility:hidden;fill:none;stroke:none"
     y="0"
     x="0"
     height="8"
     width="8"
     id="rect1" />
  <path
     id="path11"
     style="fill:#000000"
     d="M 3.5 0 A 3.5 3.5 0 0 0 0 3.5 A 3.5 3.5 0 0 0 3.5 7 A 3.5 3.5 0 0 0 7 3.5 A 3.5 3.5 0 0 0 3.5 0 z M 2.125 0.625 L 3 0.625 L 3 1.5 L 4 1.09375 L 4 1.8867188 L 3 2.3203125 L 3 2.75 L 4 2.375 L 4 3.125 L 3 3.4921875 L 3 5.375 C 3.6003594 5.372 3.8885197 5.3241984 4.1933594 4.9804688 C 4.4982091 4.6367191 4.6070513 4.2486956 4.6132812 3.5664062 L 4.6132812 3.3007812 L 5.7148438 3.3007812 L 5.7148438 3.6914062 C 5.7058438 4.5273354 5.4527876 5.0611992 4.9550781 5.5429688 C 4.4604886 6.0221383 3.9999991 6.125 3.125 6.125 C 2.5000006 6.125 2.3546196 6.0495 2 6 L 2 3.875 L 0.99804688 4.2929688 L 1 3.625 L 2.125 3.125 L 2.125 2.625 L 0.99804688 3.125 L 0.99804688 2.3300781 L 2.125 1.875 L 2.125 0.625 z " />
</svg>
