<?xml version="1.0" encoding="UTF-8" standalone="no"?>
<svg
   viewBox="0 0 8 8"
   height="8"
   width="8"
   version="1.1"
   id="svg1"
   xmlns="http://www.w3.org/2000/svg"
   xmlns:svg="http://www.w3.org/2000/svg">
  <defs
     id="defs1" />
  <rect
     style="visibility:hidden;fill:none;stroke:none"
     y="0"
     x="0"
     height="8"
     width="8"
     id="rect1" />
  <path
     id="path11"
     style="fill:#000000"
     d="M 3.5 0 A 3.5 3.5 0 0 0 0 3.5 A 3.5 3.5 0 0 0 3.5 7 A 3.5 3.5 0 0 0 7 3.5 A 3.5 3.5 0 0 0 3.5 0 z M 1.5546875 0.84765625 L 2.1230469 1.4160156 A 2.5 2.4999962 0 0 1 3.5 1 A 2.5 2.4999962 0 0 1 4.8789062 1.4140625 L 5.4453125 0.84765625 L 6.1523438 1.5546875 L 5.5859375 2.1210938 A 2.5 2.4999962 0 0 1 6 3.5 A 2.5 2.4999962 0 0 1 5.5839844 4.8769531 L 6.1523438 5.4453125 L 5.4453125 6.1523438 L 4.8769531 5.5839844 A 2.5 2.4999962 0 0 1 3.5 6 A 2.5 2.4999962 0 0 1 2.1230469 5.5839844 L 1.5546875 6.1523438 L 0.84765625 5.4453125 L 1.4160156 4.8769531 A 2.5 2.4999962 0 0 1 1 3.5 A 2.5 2.4999962 0 0 1 1.4160156 2.1230469 L 0.84765625 1.5546875 L 1.5546875 0.84765625 z M 3.5 2.125 A 1.375 1.375 0 0 0 2.125 3.5 A 1.375 1.375 0 0 0 3.5 4.875 A 1.375 1.375 0 0 0 4.875 3.5 A 1.375 1.375 0 0 0 3.5 2.125 z " />
</svg>
