<?xml version="1.0" encoding="UTF-8" standalone="no"?>
<svg
   viewBox="0 0 8 8"
   height="8"
   width="8"
   version="1.1"
   id="svg1"
   xmlns="http://www.w3.org/2000/svg"
   xmlns:svg="http://www.w3.org/2000/svg">
  <defs
     id="defs1" />
  <rect
     style="visibility:hidden;fill:none;stroke:none"
     y="0"
     x="0"
     height="8"
     width="8"
     id="rect1" />
  <path
     id="path11"
     style="fill:#000000"
     d="M 3.5 0 A 3.5 3.5 0 0 0 0 3.5 A 3.5 3.5 0 0 0 3.5 7 A 3.5 3.5 0 0 0 7 3.5 A 3.5 3.5 0 0 0 3.5 0 z M 1.0292969 1.25 L 1.8300781 1.25 L 2.0097656 2.375 L 2.9472656 2.375 L 3.1621094 1.25 L 3.8769531 1.25 L 4.0898438 2.375 L 5.0292969 2.375 L 5.2089844 1.25 L 6.0097656 1.25 L 5.8027344 2.375 L 6 2.375 L 6 3 L 5.6855469 3 L 5.5 4 L 5.9707031 4 L 5.9707031 4.625 L 5.3847656 4.625 L 5.0859375 6.2480469 L 4.1621094 6.2480469 L 3.8515625 4.625 L 3.1875 4.625 L 2.8789062 6.2480469 L 1.953125 6.2480469 L 1.6542969 4.625 L 1 4.625 L 1 4 L 1.5390625 4 L 1.3535156 3 L 1.0292969 3 L 1.0292969 2.375 L 1.2363281 2.375 L 1.0292969 1.25 z M 2.109375 3 L 2.265625 3.9785156 C 2.2663265 3.9833894 2.2668141 3.9945156 2.2675781 4 L 2.6386719 4 L 2.828125 3 L 2.109375 3 z M 3.4648438 3 C 3.4565424 3.0601687 3.446813 3.1214249 3.4375 3.1855469 C 3.4270016 3.2698777 3.416545 3.3502412 3.4042969 3.4277344 C 3.3937985 3.5052276 3.3835452 3.5768071 3.3730469 3.640625 C 3.3625485 3.7044429 3.352702 3.7545482 3.3457031 3.7910156 L 3.3066406 4 L 3.7304688 4 L 3.6894531 3.7832031 C 3.6824542 3.7490149 3.6745609 3.7021637 3.6640625 3.640625 C 3.6553139 3.5790863 3.6450606 3.5091338 3.6328125 3.4316406 C 3.6205644 3.3541474 3.6079512 3.273784 3.5957031 3.1894531 C 3.5863449 3.1250198 3.5766961 3.0617722 3.5683594 3 L 3.4648438 3 z M 4.2089844 3 L 4.3984375 4 L 4.7695312 4 C 4.7703344 3.9944616 4.7727297 3.9834325 4.7734375 3.9785156 L 4.9296875 3 L 4.2089844 3 z M 2.3554688 4.625 C 2.3563394 4.631759 2.3565512 4.6377261 2.3574219 4.6445312 C 2.3714197 4.7402582 2.3842363 4.8346128 2.3964844 4.9257812 C 2.4087325 5.0169497 2.4191891 5.1018682 2.4296875 5.1816406 C 2.4401859 5.2591338 2.4478758 5.3229042 2.453125 5.3730469 C 2.4583742 5.3229042 2.4658607 5.2591338 2.4746094 5.1816406 C 2.4851077 5.1041474 2.495361 5.0221569 2.5058594 4.9355469 C 2.5163577 4.8466576 2.5287675 4.7555571 2.5410156 4.6621094 C 2.5430213 4.6487197 2.5449412 4.6381088 2.546875 4.625 L 2.3554688 4.625 z M 4.4921875 4.625 C 4.4939409 4.6380974 4.4962935 4.6487316 4.4980469 4.6621094 C 4.510295 4.7555571 4.5227048 4.8466576 4.5332031 4.9355469 C 4.5454512 5.0221569 4.5557045 5.1041474 4.5644531 5.1816406 C 4.5749515 5.2591338 4.5826414 5.3229042 4.5878906 5.3730469 C 4.5931398 5.3229042 4.6006264 5.2591338 4.609375 5.1816406 C 4.6198734 5.1018682 4.63033 5.0169497 4.6425781 4.9257812 C 4.6548262 4.8346128 4.6674394 4.7402582 4.6796875 4.6445312 C 4.6806813 4.6377347 4.6806556 4.6317506 4.6816406 4.625 L 4.4921875 4.625 z " />
</svg>
