<?xml version="1.0" encoding="UTF-8" standalone="no"?>
<svg
   viewBox="0 0 8 8"
   height="8"
   width="8"
   version="1.1"
   id="svg1"
   xmlns="http://www.w3.org/2000/svg"
   xmlns:svg="http://www.w3.org/2000/svg">
  <defs
     id="defs1" />
  <rect
     style="visibility:hidden;fill:none;stroke:none"
     y="0"
     x="0"
     height="8"
     width="8"
     id="rect1" />
  <path
     id="path11"
     style="fill:#000000"
     d="M 3.5 0 A 3.5 3.5 0 0 0 0 3.5 A 3.5 3.5 0 0 0 3.5 7 A 3.5 3.5 0 0 0 7 3.5 A 3.5 3.5 0 0 0 3.5 0 z M 1.2050781 0.91601562 L 2.4921875 0.91601562 L 3.0136719 2.0507812 C 3.175805 2.4262474 3.3293336 2.8010359 3.5 3.1679688 L 3.5332031 3.1679688 C 3.6953362 2.7925026 3.8593513 2.4177141 4.0214844 2.0507812 L 4.5410156 0.91601562 L 5.7949219 0.91601562 L 4.4042969 3.4160156 L 5.5742188 3.4160156 L 5.5742188 4.0136719 L 4.1230469 4.0136719 L 4.1230469 4.4824219 L 5.5742188 4.4824219 L 5.5742188 5.0800781 L 4.1230469 5.0800781 L 4.1230469 6.3339844 L 2.8691406 6.3339844 L 2.8691406 5.0800781 L 1.4257812 5.0800781 L 1.4257812 4.4824219 L 2.8691406 4.4824219 L 2.8691406 4.0136719 L 1.4257812 4.0136719 L 1.4257812 3.4160156 L 2.5957031 3.4160156 L 1.2050781 0.91601562 z " />
</svg>
