<?xml version="1.0" encoding="UTF-8" standalone="no"?>
<svg
   viewBox="0 0 8 8"
   height="8"
   width="8"
   version="1.1"
   id="svg1"
   xmlns="http://www.w3.org/2000/svg"
   xmlns:svg="http://www.w3.org/2000/svg">
  <defs
     id="defs1" />
  <rect
     style="visibility:hidden;fill:none;stroke:none"
     y="0"
     x="0"
     height="8"
     width="8"
     id="rect1" />
  <path
     id="path11"
     style="fill:#000000"
     d="M 3.5 0 A 3.4999998 3.4999924 0 0 0 0 3.5 A 3.4999998 3.4999924 0 0 0 3.5 7 A 3.4999998 3.4999924 0 0 0 7 3.5 A 3.4999998 3.4999924 0 0 0 3.5 0 z M 5 1.125 L 6 1.5 L 5.9882812 3.3769531 L 6.5 3.125 L 6.875 3.625 L 5.9882812 4.0410156 L 6 5.5 L 5 5.875 L 5 4.5 L 4.5 4.75 L 4.125 4.25 L 5 3.875 L 5 1.125 z M 1 2 L 4 2 L 4 2.75 L 2.25 5 L 4 5 L 4 5.875 L 1.2539062 5.875 L 1 5.625 L 1 5.25 L 2.75 2.875 L 1 2.875 L 1 2 z " />
</svg>
